<?xml version="1.0" encoding="UTF-8"?><svg id="uuid-a3de8ae8-4c85-41c2-837c-a633e47aaf49" xmlns="http://www.w3.org/2000/svg" viewBox="0 0 38 38"><title>Red Hat build of Keycloak icon</title>
<desc>Single sign-on, SSO, Application services</desc>
<metadata><?xpacket begin="﻿" id="W5M0MpCehiHzreSzNTczkc9d"?>
<x:xmpmeta xmlns:x="adobe:ns:meta/" x:xmptk="Adobe XMP Core 8.0-c001 1.000000, 0000/00/00-00:00:00        ">
   <rdf:RDF xmlns:rdf="http://www.w3.org/1999/02/22-rdf-syntax-ns#">
      <rdf:Description rdf:about=""
            xmlns:xmp="http://ns.adobe.com/xap/1.0/"
            xmlns:dc="http://purl.org/dc/elements/1.1/"
            xmlns:cq="http://www.day.com/jcr/cq/1.0"
            xmlns:tiff="http://ns.adobe.com/tiff/1.0/"
            xmlns:xmpRights="http://ns.adobe.com/xap/1.0/rights/">
         <xmp:rhcc-effective-on>2024-03-01T15:28:06.224Z</xmp:rhcc-effective-on>
         <xmp:rhcc-metadata-complete-moderator>pending</xmp:rhcc-metadata-complete-moderator>
         <xmp:rhcc-translation-id>TRA847b4b10-3876-4f03-b73d-11999c89f378</xmp:rhcc-translation-id>
         <xmp:brand-content-type>Icon</xmp:brand-content-type>
         <xmp:CreateDate>2024-03-01T15:28:06.224Z</xmp:CreateDate>
         <xmp:rhcc-aspect-ratio>square</xmp:rhcc-aspect-ratio>
         <xmp:rhcc-effective-on-set-on-upload>true</xmp:rhcc-effective-on-set-on-upload>
         <xmp:rhcc-metadata-complete-uploader>pending</xmp:rhcc-metadata-complete-uploader>
         <xmp:rhcc-file-last-modified>2024-07-12T23:51:52.165Z</xmp:rhcc-file-last-modified>
         <xmp:rhcc-audience>rhcc-audience:internal</xmp:rhcc-audience>
         <xmp:rhcc-rights-restricted>no</xmp:rhcc-rights-restricted>
         <xmp:brand-content-subtype>Technology icon</xmp:brand-content-subtype>
         <xmp:rhcc-derivative-id>DER847b4b10-3876-4f03-b73d-11999c89f378</xmp:rhcc-derivative-id>
         <xmp:rhcc-uploaded-by>pmeilleu@redhat.com</xmp:rhcc-uploaded-by>
         <xmp:brand-logo-color>Standard</xmp:brand-logo-color>
         <xmp:rhcc-notify-portal-subscribers-on-change>yes</xmp:rhcc-notify-portal-subscribers-on-change>
         <xmp:rhcc-product>
            <rdf:Bag>
               <rdf:li>rhcc-product:red-hat-runtimes</rdf:li>
               <rdf:li>rhcc-product:red-hat-application-foundations</rdf:li>
            </rdf:Bag>
         </xmp:rhcc-product>
         <xmp:brand-subtype>
            <rdf:Bag>
               <rdf:li>Technology icon</rdf:li>
            </rdf:Bag>
         </xmp:brand-subtype>
         <dc:format>image/svg+xml</dc:format>
         <dc:modified>2024-05-10T00:36:52.706Z</dc:modified>
         <dc:title>
            <rdf:Alt>
               <rdf:li xml:lang="x-default">Red Hat build of Keycloak icon</rdf:li>
            </rdf:Alt>
         </dc:title>
         <dc:description>
            <rdf:Alt>
               <rdf:li xml:lang="x-default">Single sign-on, SSO, Application services</rdf:li>
            </rdf:Alt>
         </dc:description>
         <cq:lastReplicationAction_scene7>Activate</cq:lastReplicationAction_scene7>
         <cq:lastReplicationAction_publish>Activate</cq:lastReplicationAction_publish>
         <cq:lastReplicated_publish>2024-10-02T19:53:46.402Z</cq:lastReplicated_publish>
         <cq:lastReplicatedBy>workflow-process-service</cq:lastReplicatedBy>
         <cq:lastReplicationAction>Activate</cq:lastReplicationAction>
         <cq:lastReplicatedBy_publish>workflow-process-service</cq:lastReplicatedBy_publish>
         <cq:isDelivered>false</cq:isDelivered>
         <cq:lastReplicated>2024-10-02T19:53:46.402Z</cq:lastReplicated>
         <cq:lastReplicatedBy_scene7>workflow-process-service</cq:lastReplicatedBy_scene7>
         <cq:lastReplicated_scene7>2024-10-02T19:53:46.402Z</cq:lastReplicated_scene7>
         <tiff:ImageLength>38</tiff:ImageLength>
         <tiff:ImageWidth>38</tiff:ImageWidth>
         <xmpRights:UsageTerms>
            <rdf:Alt>
               <rdf:li xml:lang="x-default">Use technology icons to represent Red Hat products and components. Do not remove the icon from the bounding shape.</rdf:li>
            </rdf:Alt>
         </xmpRights:UsageTerms>
      </rdf:Description>
   </rdf:RDF>
</x:xmpmeta>
                                                                                                    
                                                                                                    
                                                                                                    
                                                                                                    
                                                                                                    
                                                                                                    
                                                                                                    
                                                                                                    
                                                                                                    
                                                                                                    
                                                                                                    
                                                                                                    
                                                                                                    
                                                                                                    
                                                                                                    
                                                                                                    
                                                                                                    
                                     
<?xpacket end="w"?></metadata>
<defs><style>.uuid-d1d7f842-6446-4e89-9c59-7d7cc4a4bb10{fill:#e00;}.uuid-86065e89-0c79-4f7d-b10e-70c76011f9c1{fill:#fff;}.uuid-3bf11ad6-b5e8-435e-ad4f-cf1549b9118e{fill:#e0e0e0;}</style></defs><rect class="uuid-86065e89-0c79-4f7d-b10e-70c76011f9c1" x="1" y="1" width="36" height="36" rx="9" ry="9"/><path class="uuid-3bf11ad6-b5e8-435e-ad4f-cf1549b9118e" d="m28,2.25c4.27332,0,7.75,3.47668,7.75,7.75v18c0,4.27332-3.47668,7.75-7.75,7.75H10c-4.27332,0-7.75-3.47668-7.75-7.75V10c0-4.27332,3.47668-7.75,7.75-7.75h18m0-1.25H10C5.02942,1,1,5.02942,1,10v18c0,4.97058,4.02942,9,9,9h18c4.97058,0,9-4.02942,9-9V10c0-4.97058-4.02942-9-9-9h0Z"/><path class="uuid-d1d7f842-6446-4e89-9c59-7d7cc4a4bb10" d="m27.65137,12.65723l-1.1875-1.1543c-.24219-.23633-.62891-.23633-.87109,0l-4.7616,4.62842c-.00061.00073-.00146.00085-.00208.00146-.00049.00049-.00049.00122-.00098.00171l-4.73633,4.60376c-.24805.24023-.25293.63672-.0127.88379.12305.12598.28516.18945.44824.18945.15723,0,.31445-.05859.43555-.17676l4.31506-4.19421,1.93982,1.88562c.12109.11816.27832.17676.43555.17676.16309,0,.3252-.06348.44824-.18945.24023-.24707.23535-.64355-.0127-.88379l-1.91418-1.86072,1.47888-1.43738,1.93921,1.88501c.12109.11816.27832.17676.43555.17676.16309,0,.3252-.06348.44824-.18945.24023-.24707.23535-.64355-.0127-.88379l-1.91357-1.86011,1.47803-1.43677.75195.73047c.24707.24023.64258.23535.88379-.0127.24023-.24707.23535-.64355-.0127-.88379Z"/><path d="m14.22852,27.35742c-.99219,0-1.98438-.37695-2.73926-1.13184-1.51172-1.51172-1.51172-3.96973-.00098-5.48145,1.5127-1.50977,3.9707-1.50879,5.48145,0v.00098c1.50977,1.51074,1.50977,3.96875,0,5.47949-.75586.75586-1.74805,1.13281-2.74121,1.13281Zm.00098-6.49707c-.67285,0-1.34473.25586-1.85645.76855-1.02441,1.02344-1.02441,2.68848,0,3.71191,1.02441,1.02441,2.68848,1.02246,3.71289,0,1.02246-1.02344,1.02246-2.68848-.00098-3.71289-.51172-.51172-1.18359-.76758-1.85547-.76758Z"/></svg>