<?xml version="1.0" encoding="UTF-8"?><svg id="uuid-3985e5e1-466d-4828-907f-9daeb94aad81" xmlns="http://www.w3.org/2000/svg" width="38" height="38" viewBox="0 0 38 38"><title>Red Hat build of Podman Desktop</title>
<metadata><?xpacket begin="﻿" id="W5M0MpCehiHzreSzNTczkc9d"?>
<x:xmpmeta xmlns:x="adobe:ns:meta/" x:xmptk="Adobe XMP Core 8.0-c001 1.000000, 0000/00/00-00:00:00        ">
   <rdf:RDF xmlns:rdf="http://www.w3.org/1999/02/22-rdf-syntax-ns#">
      <rdf:Description rdf:about=""
            xmlns:xmp="http://ns.adobe.com/xap/1.0/"
            xmlns:dc="http://purl.org/dc/elements/1.1/">
         <xmp:brand-content-type>Icon</xmp:brand-content-type>
         <xmp:brand-content-subtype>Technology</xmp:brand-content-subtype>
         <xmp:brand-colorway>
            <rdf:Bag>
               <rdf:li>colorway:red</rdf:li>
            </rdf:Bag>
         </xmp:brand-colorway>
         <dc:modified>2025-12-11T20:02:23.284Z</dc:modified>
         <dc:format>image/svg+xml</dc:format>
         <dc:title>
            <rdf:Alt>
               <rdf:li xml:lang="x-default">Red Hat build of Podman Desktop</rdf:li>
            </rdf:Alt>
         </dc:title>
      </rdf:Description>
   </rdf:RDF>
</x:xmpmeta>
                                                                                                    
                                                                                                    
                                                                                                    
                                                                                                    
                                                                                                    
                                                                                                    
                                                                                                    
                                                                                                    
                                                                                                    
                                                                                                    
                                                                                                    
                                                                                                    
                                                                                                    
                                                                                                    
                                                                                                    
                                                                                                    
                                                                                                    
                                                                                                    
                                                                                                    
                                                                                                    
                           
<?xpacket end="w"?></metadata>
<defs><style>.uuid-0e4fa3ab-2de2-48d3-ac80-c306c9632dc7{fill:#e00;}</style></defs><path class="uuid-0e4fa3ab-2de2-48d3-ac80-c306c9632dc7" d="M28,1H10C5.02942,1,1,5.02942,1,10v18c0,4.97058,4.02942,9,9,9h18c4.97058,0,9-4.02942,9-9V10c0-4.97058-4.02942-9-9-9ZM35.75,28c0,4.27338-3.47662,7.75-7.75,7.75H10c-4.27338,0-7.75-3.47662-7.75-7.75V10c0-4.27338,3.47662-7.75,7.75-7.75h18c4.27338,0,7.75,3.47662,7.75,7.75v18Z"/><path class="uuid-0e4fa3ab-2de2-48d3-ac80-c306c9632dc7" d="M28.625,11.5c0-1.17188-.95312-2.125-2.125-2.125s-2.125.95312-2.125,2.125.95312,2.125,2.125,2.125c.42511,0,.81952-.12836,1.15204-.34418,1.12622,1.69659,1.72296,3.65808,1.72296,5.71918,0,5.7207-4.6543,10.375-10.375,10.375-.63477,0-1.26953-.05762-1.88672-.1709-.33691-.0625-.66602.16162-.72754.50195-.0625.33936.16211.66504.50098.72754.69141.12695,1.40234.19141,2.11328.19141,6.41016,0,11.625-5.21484,11.625-11.625,0-2.43866-.74774-4.75177-2.15149-6.72412.09509-.24097.15149-.50146.15149-.77588ZM26.5,12.375c-.48242,0-.875-.39258-.875-.875s.39258-.875.875-.875.875.39258.875.875-.39258.875-.875.875Z"/><path class="uuid-0e4fa3ab-2de2-48d3-ac80-c306c9632dc7" d="M11.5,24.375c-.42493,0-.81915.1283-1.15155.34393-1.12671-1.69611-1.72345-3.65753-1.72345-5.71893,0-5.7207,4.6543-10.375,10.375-10.375.63477,0,1.26953.05762,1.88672.1709.33008.05811.66504-.16211.72754-.50195.0625-.33936-.16211-.66504-.50098-.72754-.69141-.12695-1.40234-.19141-2.11328-.19141-6.41016,0-11.625,5.21484-11.625,11.625,0,2.43872.74841,4.75201,2.15179,6.72327-.09528.24121-.15179.50201-.15179.77673,0,1.17188.95312,2.125,2.125,2.125s2.125-.95312,2.125-2.125-.95312-2.125-2.125-2.125ZM11.5,27.375c-.48242,0-.875-.39258-.875-.875s.39258-.875.875-.875.875.39258.875.875-.39258.875-.875.875Z"/><path class="uuid-0e4fa3ab-2de2-48d3-ac80-c306c9632dc7" d="M22.81055,23.19922c.10547,0,.21289-.02686.31152-.08398l1.19043-.6875c.19336-.11133.3125-.31787.3125-.54102v-1.375c0-.34521-.28027-.625-.625-.625s-.625.27979-.625.625v1.01416l-.87793.50732c-.29883.17236-.40137.55469-.22852.85352.11523.20068.3252.3125.54199.3125Z"/><path class="uuid-0e4fa3ab-2de2-48d3-ac80-c306c9632dc7" d="M22.49707,15.9668l.87793.50732v1.01416c0,.34521.28027.625.625.625s.625-.27979.625-.625v-1.375c0-.22314-.11914-.42969-.3125-.54102l-1.19043-.6875c-.30176-.1748-.68262-.06982-.85352.22852-.17285.29883-.07031.68115.22852.85352Z"/><path class="uuid-0e4fa3ab-2de2-48d3-ac80-c306c9632dc7" d="M20.50293,13.37305l-1.19043-.6875c-.19336-.1123-.43164-.1123-.625,0l-1.19043.6875c-.29883.17236-.40137.55469-.22852.85352.17188.29785.55176.40332.85352.22852l.87793-.50684.87793.50684c.09863.05713.20605.08398.31152.08398.2168,0,.42676-.11182.54199-.3125.17285-.29883.07031-.68115-.22852-.85352Z"/><path class="uuid-0e4fa3ab-2de2-48d3-ac80-c306c9632dc7" d="M14.87793,14.88477l-1.19043.6875c-.19336.11133-.3125.31787-.3125.54102v1.375c0,.34521.28027.625.625.625s.625-.27979.625-.625v-1.01416l.87793-.50732c.29883-.17236.40137-.55469.22852-.85352-.1709-.29834-.55176-.40283-.85352-.22852Z"/><path class="uuid-0e4fa3ab-2de2-48d3-ac80-c306c9632dc7" d="M15.50293,22.0332l-.87793-.50732v-1.01416c0-.34521-.28027-.625-.625-.625s-.625.27979-.625.625v1.375c0,.22314.11914.42969.3125.54102l1.19043.6875c.09863.05713.20605.08398.31152.08398.2168,0,.42676-.11182.54199-.3125.17285-.29883.07031-.68115-.22852-.85352Z"/><path class="uuid-0e4fa3ab-2de2-48d3-ac80-c306c9632dc7" d="M19.87793,23.54492l-.87793.50684-.87793-.50684c-.30273-.17578-.68262-.07031-.85352.22852-.17285.29883-.07031.68115.22852.85352l1.19043.6875c.09668.05615.2041.08398.3125.08398s.21582-.02783.3125-.08398l1.19043-.6875c.29883-.17236.40137-.55469.22852-.85352-.1709-.29785-.55273-.40332-.85352-.22852Z"/></svg>