<?xml version="1.0" encoding="UTF-8"?><svg id="uuid-e19cff64-7869-479a-9083-e0db10dec3eb" xmlns="http://www.w3.org/2000/svg" width="38" height="38" viewBox="0 0 38 38"><title>Red Hat build of Podman Desktop</title>
<metadata><?xpacket begin="﻿" id="W5M0MpCehiHzreSzNTczkc9d"?>
<x:xmpmeta xmlns:x="adobe:ns:meta/" x:xmptk="Adobe XMP Core 8.0-c001 1.000000, 0000/00/00-00:00:00        ">
   <rdf:RDF xmlns:rdf="http://www.w3.org/1999/02/22-rdf-syntax-ns#">
      <rdf:Description rdf:about=""
            xmlns:dc="http://purl.org/dc/elements/1.1/"
            xmlns:tiff="http://ns.adobe.com/tiff/1.0/"
            xmlns:xmp="http://ns.adobe.com/xap/1.0/">
         <dc:format>image/svg+xml</dc:format>
         <dc:modified>2025-12-11T20:02:23.241Z</dc:modified>
         <dc:title>
            <rdf:Alt>
               <rdf:li xml:lang="x-default">Red Hat build of Podman Desktop</rdf:li>
            </rdf:Alt>
         </dc:title>
         <tiff:ImageWidth>38</tiff:ImageWidth>
         <tiff:ImageLength>38</tiff:ImageLength>
         <xmp:brand-content-type>Icon</xmp:brand-content-type>
         <xmp:brand-content-subtype>Technology</xmp:brand-content-subtype>
         <xmp:brand-colorway>
            <rdf:Bag>
               <rdf:li>colorway:standard</rdf:li>
            </rdf:Bag>
         </xmp:brand-colorway>
      </rdf:Description>
   </rdf:RDF>
</x:xmpmeta>
                                                                                                    
                                                                                                    
                                                                                                    
                                                                                                    
                                                                                                    
                                                                                                    
                                                                                                    
                                                                                                    
                                                                                                    
                                                                                                    
                                                                                                    
                                                                                                    
                                                                                                    
                                                                                                    
                                                                                                    
                                                                                                    
                                                                                                    
                       
<?xpacket end="w"?></metadata>
<defs><style>.uuid-ef0388e2-9416-40b7-97d9-27fa8bee349a{fill:#e0e0e0;}.uuid-5b8bafe9-ef68-4979-b04a-85394d83c995{fill:#fff;}.uuid-180f07a9-1322-4083-b67a-d5a9d82f338f{fill:#e00;}</style></defs><rect class="uuid-5b8bafe9-ef68-4979-b04a-85394d83c995" x="1" y="1" width="36" height="36" rx="9" ry="9"/><path class="uuid-ef0388e2-9416-40b7-97d9-27fa8bee349a" d="M28,2.25c4.27336,0,7.75,3.47664,7.75,7.75v18c0,4.27336-3.47664,7.75-7.75,7.75H10c-4.27336,0-7.75-3.47664-7.75-7.75V10c0-4.27336,3.47664-7.75,7.75-7.75h18M28,1H10C5.02944,1,1,5.02943,1,10v18c0,4.97057,4.02944,9,9,9h18c4.97056,0,9-4.02943,9-9V10c0-4.97057-4.02944-9-9-9h0Z"/><path class="uuid-180f07a9-1322-4083-b67a-d5a9d82f338f" d="M28.24609,11.95166c-.20996-.2749-.60156-.32471-.87598-.11719-.27441.20898-.32715.60156-.11816.87598,1.38867,1.81934,2.12305,3.99414,2.12305,6.28955,0,5.7207-4.6543,10.375-10.375,10.375-.63525,0-1.27002-.05762-1.88721-.1709-.34229-.0625-.66553.16309-.72754.50195-.0625.33936.16211.66504.50195.72754.69141.12695,1.40234.19141,2.11279.19141,6.41016,0,11.625-5.21484,11.625-11.625,0-2.57178-.82227-5.00879-2.37891-7.04834Z"/><path class="uuid-180f07a9-1322-4083-b67a-d5a9d82f338f" d="M19,8.625c.63477,0,1.26953.05762,1.88672.1709.33301.05811.66602-.16211.72754-.50195.0625-.33936-.16211-.66504-.50098-.72754-.69141-.12695-1.40234-.19141-2.11328-.19141-6.41016,0-11.625,5.21484-11.625,11.625,0,2.57178.82275,5.00928,2.37988,7.04834.12305.16113.30908.24561.49707.24561.13232,0,.26562-.04199.37891-.12842.27441-.20947.32666-.60156.11719-.87598-1.38867-1.81934-2.12305-3.99414-2.12305-6.28955,0-5.7207,4.6543-10.375,10.375-10.375Z"/><path d="M26.5,9.375c-1.17188,0-2.125.95312-2.125,2.125s.95312,2.125,2.125,2.125,2.125-.95312,2.125-2.125-.95312-2.125-2.125-2.125ZM26.5,12.375c-.48242,0-.875-.39258-.875-.875s.39258-.875.875-.875.875.39258.875.875-.39258.875-.875.875Z"/><path d="M11.5,24.375c-1.17188,0-2.125.95312-2.125,2.125s.95312,2.125,2.125,2.125,2.125-.95312,2.125-2.125-.95312-2.125-2.125-2.125ZM11.5,27.375c-.48242,0-.875-.39258-.875-.875s.39258-.875.875-.875.875.39258.875.875-.39258.875-.875.875Z"/><path d="M24,19.88672c-.34473,0-.625.27979-.625.625v1.01416l-.87793.50732c-.29883.17236-.40137.55469-.22852.85352.11523.20068.3252.3125.54199.3125.10547,0,.21289-.02686.31152-.08398l1.19043-.6875c.19336-.11133.3125-.31787.3125-.54102v-1.375c0-.34521-.28027-.625-.625-.625Z"/><path d="M24.3125,15.57227l-1.19043-.6875c-.30176-.1748-.68262-.06982-.85352.22852-.17285.29883-.07031.68115.22852.85352l.87793.50732v1.01416c0,.34521.28027.625.625.625s.625-.27979.625-.625v-1.375c0-.22314-.11914-.42969-.3125-.54102Z"/><path d="M20.50293,13.37305l-1.19043-.6875c-.19336-.11182-.43115-.1123-.625-.00049l-1.19092.6875c-.29883.17285-.40137.55518-.229.854.11621.20068.32617.3125.54199.3125.10596,0,.21338-.02686.31201-.0835l.87842-.50732.87793.50684c.2998.17432.68164.06934.85352-.22852.17285-.29883.07031-.68115-.22852-.85352Z"/><path d="M14.87842,14.88428l-1.19092.6875c-.19336.11182-.3125.31836-.3125.5415v1.375c0,.34521.27979.625.625.625s.625-.27979.625-.625v-1.01416l.87842-.50684c.29883-.17285.40137-.55518.229-.854-.17285-.29883-.55518-.40137-.854-.229Z"/><path d="M15.50342,22.03271l-.87842-.50684v-1.01416c0-.34521-.27979-.625-.625-.625s-.625.27979-.625.625v1.375c0,.22314.11914.42969.3125.5415l1.19092.6875c.09863.05664.20605.0835.31201.0835.21582,0,.42578-.11182.54199-.3125.17236-.29883.06982-.68115-.229-.854Z"/><path d="M19.87793,23.54492l-.87793.50684-.87842-.50732c-.29883-.17285-.68115-.07031-.854.229-.17236.29883-.06982.68115.229.854l1.19092.6875c.09668.05566.20459.0835.3125.0835.1084,0,.21582-.02783.3125-.08398l1.19043-.6875c.29883-.17236.40137-.55469.22852-.85352-.17188-.29785-.55273-.40332-.85352-.22852Z"/></svg>