<?xml version="1.0" encoding="UTF-8"?><svg id="Ryan_tweaks" xmlns="http://www.w3.org/2000/svg" viewBox="0 0 36 36"><title>Couch icon - Red</title>
<desc>couch, seating, cozy, comfort, nap, loveseat</desc>
<metadata><?xpacket begin="﻿" id="W5M0MpCehiHzreSzNTczkc9d"?>
<x:xmpmeta xmlns:x="adobe:ns:meta/" x:xmptk="Adobe XMP Core 8.0-c001 1.000000, 0000/00/00-00:00:00        ">
   <rdf:RDF xmlns:rdf="http://www.w3.org/1999/02/22-rdf-syntax-ns#">
      <rdf:Description rdf:about=""
            xmlns:xmp="http://ns.adobe.com/xap/1.0/"
            xmlns:tiff="http://ns.adobe.com/tiff/1.0/"
            xmlns:dc="http://purl.org/dc/elements/1.1/">
         <xmp:brand-content-subtype>Icon</xmp:brand-content-subtype>
         <xmp:rhcc-rights-restricted>no</xmp:rhcc-rights-restricted>
         <xmp:brand-content-type>Icon</xmp:brand-content-type>
         <xmp:rhcc-file-last-modified>2025-06-03T18:41:41.485Z</xmp:rhcc-file-last-modified>
         <xmp:brand-colorway>
            <rdf:Bag>
               <rdf:li>colorway:red</rdf:li>
            </rdf:Bag>
         </xmp:brand-colorway>
         <tiff:ImageWidth>36</tiff:ImageWidth>
         <tiff:ImageLength>36</tiff:ImageLength>
         <dc:modified>2025-06-03T18:44:43.103Z</dc:modified>
         <dc:format>image/svg+xml</dc:format>
         <dc:description>
            <rdf:Alt>
               <rdf:li xml:lang="x-default">couch, seating, cozy, comfort, nap, loveseat</rdf:li>
            </rdf:Alt>
         </dc:description>
         <dc:title>
            <rdf:Alt>
               <rdf:li xml:lang="x-default">Couch icon - Red</rdf:li>
            </rdf:Alt>
         </dc:title>
      </rdf:Description>
   </rdf:RDF>
</x:xmpmeta>
                                                                                                    
                                                                                                    
                                                                                                    
                                                                                                    
                                                                                                    
                                                                                                    
                                                                                                    
                                                                                                    
                                                                                                    
                                                                                                    
                                                                                                    
                                                                                                    
                                                                                                    
                                                                                                    
                                                                                                    
                                                                                                    
                                                                                                    
                                                                                                    
                                                                    
<?xpacket end="w"?></metadata>
<defs><style>.cls-1{fill:none;}.cls-1,.cls-2{stroke-width:0px;}.cls-2{fill:#e00;}</style></defs><rect class="cls-1" x="18.62" y="19.63" width="7.75" height="1.75"/><path class="cls-1" d="M18.62,18.38h7.75v-.38h0c0-1.23.85-2.26,2-2.54.78-7.01-9.35-8.03-9.75-.96,0,0,0,3.87,0,3.87Z"/><rect class="cls-1" x="9.62" y="19.63" width="7.75" height="1.75"/><path class="cls-1" d="M9.62,18v.38h7.75v-3.88c-.46-7.06-10.43-6.14-9.75.96,1.15.28,2,1.31,2,2.54Z"/><path class="cls-1" d="M29.42,19.49c.06-.12.15-.22.26-.3.42-.25.69-.7.69-1.19-.03-1.81-2.72-1.81-2.75,0,0,0,0,4,0,4,0,.34-.28.62-.62.62H9c-.35,0-.62-.28-.62-.62,0,0,0-4,0-4h0c0-.76-.62-1.37-1.38-1.37-1.38-.02-1.89,1.9-.69,2.57.2.12.31.32.31.54,0,0,0,5.64,0,5.64h22.75v-5.64c.01-.08.02-.17.05-.25Z"/><path class="cls-2" d="M29.62,15.45c.68-7.03-8.38-9.84-11.62-3.63-3.25-6.22-12.31-3.4-11.62,3.63-2.08.48-2.7,3.4-1,4.58v5.97c0,.34.28.62.62.62h2.38v1.38c0,.34.28.62.62.62s.62-.28.62-.62v-1.38h16.75v1.38c0,.34.28.62.62.62s.62-.28.62-.62v-1.38h2.38c.35,0,.62-.28.62-.62v-5.97c1.7-1.18,1.08-4.11-1-4.58ZM28.38,14.5v.96c-1.15.28-2,1.31-2,2.54h0v.38h-7.75v-3.87c.2-6.44,9.54-6.44,9.75,0ZM9.62,21.38v-1.75h7.75v1.75h-7.75ZM18.62,19.63h7.75v1.75h-7.75v-1.75ZM12.5,9.63c2.69,0,4.88,2.19,4.88,4.88v3.88h-7.75c.13-1.34-.7-2.61-2-2.92-.33-3.05,1.7-5.81,4.88-5.83ZM29.38,25.38H6.62v-5.64c0-.22-.12-.42-.31-.54-1.2-.67-.69-2.59.69-2.57.76,0,1.38.62,1.38,1.37h0s0,4,0,4c0,.34.28.62.63.62h18c.35,0,.62-.28.62-.62v-4c0-.76.62-1.38,1.38-1.38,1.38-.02,1.89,1.9.69,2.57-.19.12-.31.32-.31.54,0,0,0,5.64,0,5.64Z"/></svg>