<?xml version="1.0" encoding="UTF-8"?>
<svg id="Icon" xmlns="http://www.w3.org/2000/svg" viewBox="0 0 36 36">
  <defs>
    <style>
      .cls-1 {
        fill: #fff;
      }
    </style>
  </defs>
  <path class="cls-1" d="M29.7,17.01c-.58-1.88-1.62-3.19-2.39-3.96-.63-.63-1.99-1.79-3.96-2.39-.06-.02-1.38-.43-2.84-.43h-.01c-.67,0-1.29.09-1.35.1-.3.04-.51.08-.7.12,0-.03-.01-.06-.02-.09,0,0,0,0,0,0,.1-.3.23-.59.38-.88.15-.28.33-.54.52-.79.2-.25.42-.48.66-.69.24-.21.5-.4.77-.57.3-.18.39-.56.21-.86-.18-.3-.56-.39-.86-.21-.34.2-.66.44-.95.7-.29.26-.56.54-.81.85-.21.27-.4.56-.56.85-.91-1.62-2.47-2.82-4.38-3.22-1.12-.24-2.28-.18-3.36.15-.24.08-.42.29-.44.55-.15,1.83.47,3.61,1.69,4.96-1.24.61-2.12,1.37-2.59,1.84-.77.77-1.81,2.08-2.39,3.96-.39,1.25-.43,2.32-.43,2.85.01,1.18.27,2.35.79,3.58,1.85,4.42,5.95,7.4,11.24,8.17.03,0,.06,0,.09,0,0,0,.01,0,.02,0,.03,0,.07,0,.1,0,1.01-.16,2.09-.34,3.14-.68,4.42-1.42,8.88-5.4,8.88-11.08,0-.97-.14-1.93-.43-2.84ZM12.45,10.63c-1.05-1.02-1.63-2.41-1.63-3.85.76-.17,1.55-.17,2.31-.01,1.91.41,3.4,1.78,3.99,3.59,0,0,0,0,0,0-.08-.01-.16-.02-.26-.04-.11-.02-.72-.1-1.37-.1-.09,0-.18,0-.27,0-.14-.3-.31-.59-.52-.85-.32-.41-.71-.75-1.15-1.02-.29-.18-.68-.09-.86.21-.18.29-.09.68.21.86.31.19.59.44.82.73.05.07.1.14.15.22-.62.11-1.08.24-1.22.28-.05.01-.09.03-.13.05-.03-.02-.05-.05-.08-.07ZM20.86,29.75c-.93.3-1.92.47-2.86.62-4.81-.72-8.52-3.42-10.18-7.41-.45-1.08-.68-2.1-.69-3.11,0-.45.04-1.38.37-2.46.51-1.64,1.41-2.78,2.08-3.45.55-.55,1.73-1.55,3.44-2.08.21-.06,1.3-.37,2.48-.37h.01c.58,0,1.12.08,1.18.08.31.05.56.08.71.14.09.04.23.08.39.11.75.36,1.43.84,2.02,1.43.7.7,1.25,1.52,1.62,2.44.36.88.54,1.82.54,2.78,0,.34.28.62.62.62s.62-.28.62-.62c0-1.12-.21-2.21-.63-3.25-.44-1.07-1.07-2.03-1.89-2.85-.31-.31-.64-.58-.99-.83.22-.02.5-.04.8-.04h0c1.27,0,2.46.37,2.48.37,1.72.53,2.9,1.53,3.45,2.08.67.67,1.58,1.81,2.08,3.45.25.8.37,1.63.37,2.47,0,5.05-4.03,8.61-8.02,9.89Z"/>
</svg>