<svg xmlns="http://www.w3.org/2000/svg" viewBox="0 0 32 32">
  <title>Microsoft sharing icon (square) - White</title>
<metadata><?xpacket begin="﻿" id="W5M0MpCehiHzreSzNTczkc9d"?>
<x:xmpmeta xmlns:x="adobe:ns:meta/" x:xmptk="Adobe XMP Core 8.0-c001 1.000000, 0000/00/00-00:00:00        ">
   <rdf:RDF xmlns:rdf="http://www.w3.org/1999/02/22-rdf-syntax-ns#">
      <rdf:Description rdf:about=""
            xmlns:xmp="http://ns.adobe.com/xap/1.0/"
            xmlns:dc="http://purl.org/dc/elements/1.1/"
            xmlns:cq="http://www.day.com/jcr/cq/1.0"
            xmlns:tiff="http://ns.adobe.com/tiff/1.0/">
         <xmp:rhcc-effective-on>2023-12-07T22:16:38.891Z</xmp:rhcc-effective-on>
         <xmp:rhcc-metadata-complete-moderator>pending</xmp:rhcc-metadata-complete-moderator>
         <xmp:rhcc-translation-id>TRAc91a083f-074a-4966-9691-1cf08678e460</xmp:rhcc-translation-id>
         <xmp:brand-content-type>Icon</xmp:brand-content-type>
         <xmp:CreateDate>2023-12-07T22:16:38.891Z</xmp:CreateDate>
         <xmp:rhcc-aspect-ratio>square</xmp:rhcc-aspect-ratio>
         <xmp:rhcc-effective-on-set-on-upload>true</xmp:rhcc-effective-on-set-on-upload>
         <xmp:rhcc-metadata-complete-uploader>pending</xmp:rhcc-metadata-complete-uploader>
         <xmp:rhcc-file-last-modified>2024-07-12T23:30:49.363Z</xmp:rhcc-file-last-modified>
         <xmp:rhcc-audience>rhcc-audience:internal</xmp:rhcc-audience>
         <xmp:rhcc-rights-restricted>no</xmp:rhcc-rights-restricted>
         <xmp:brand-content-subtype>Social sharing</xmp:brand-content-subtype>
         <xmp:rhcc-derivative-id>DERc91a083f-074a-4966-9691-1cf08678e460</xmp:rhcc-derivative-id>
         <xmp:rhcc-uploaded-by>pmeilleu@redhat.com</xmp:rhcc-uploaded-by>
         <xmp:brand-logo-color>White</xmp:brand-logo-color>
         <xmp:rhcc-notify-portal-subscribers-on-change>yes</xmp:rhcc-notify-portal-subscribers-on-change>
         <dc:format>image/svg+xml</dc:format>
         <dc:modified>2024-02-09T20:38:23.723Z</dc:modified>
         <dc:title>
            <rdf:Alt>
               <rdf:li xml:lang="x-default">Microsoft sharing icon (square) - White</rdf:li>
            </rdf:Alt>
         </dc:title>
         <cq:lastReplicationAction_scene7>Activate</cq:lastReplicationAction_scene7>
         <cq:lastReplicationAction_publish>Activate</cq:lastReplicationAction_publish>
         <cq:lastReplicated_publish>2024-10-02T19:49:25.004Z</cq:lastReplicated_publish>
         <cq:lastReplicatedBy>workflow-process-service</cq:lastReplicatedBy>
         <cq:lastReplicationAction>Activate</cq:lastReplicationAction>
         <cq:lastReplicatedBy_publish>workflow-process-service</cq:lastReplicatedBy_publish>
         <cq:isDelivered>false</cq:isDelivered>
         <cq:lastReplicated>2024-10-02T19:49:25.004Z</cq:lastReplicated>
         <cq:lastReplicatedBy_scene7>workflow-process-service</cq:lastReplicatedBy_scene7>
         <cq:lastReplicated_scene7>2024-10-02T19:49:25.004Z</cq:lastReplicated_scene7>
         <tiff:ImageLength>32</tiff:ImageLength>
         <tiff:ImageWidth>32</tiff:ImageWidth>
      </rdf:Description>
   </rdf:RDF>
</x:xmpmeta>
                                                                                                    
                                                                                                    
                                                                                                    
                                                                                                    
                                                                                                    
                                                                                                    
                                                                                                    
                                                                                                    
                                                                                                 
<?xpacket end="w"?></metadata>
<defs>
    <style>
      .af462c36-92f8-43ce-bf62-ab01ef6fb997 {
        fill: #fff;
      }
    </style>
  </defs>
  <g id="b9482e63-d484-407b-8f0a-73fc8ced1741" data-name="Microsoft">
    <path id="ae278c2a-ec81-4929-ad5e-13fa1af9fb10" data-name="One-color white" class="af462c36-92f8-43ce-bf62-ab01ef6fb997" d="M30.81,0H1.19A1.19,1.19,0,0,0,0,1.19V30.81A1.19,1.19,0,0,0,1.19,32H30.81A1.19,1.19,0,0,0,32,30.81V1.19A1.19,1.19,0,0,0,30.81,0ZM15.53,25.4a.1.1,0,0,1-.1.1H6.6a.09.09,0,0,1-.1-.1V16.57a.09.09,0,0,1,.1-.1h8.83a.1.1,0,0,1,.1.1Zm0-10a.1.1,0,0,1-.1.1H6.6a.09.09,0,0,1-.1-.1V6.6a.09.09,0,0,1,.1-.1h8.83a.1.1,0,0,1,.1.1Zm10,10a.09.09,0,0,1-.1.1H16.57a.1.1,0,0,1-.1-.1V16.57a.1.1,0,0,1,.1-.1H25.4a.09.09,0,0,1,.1.1Zm0-10a.09.09,0,0,1-.1.1H16.57a.1.1,0,0,1-.1-.1V6.6a.1.1,0,0,1,.1-.1H25.4a.09.09,0,0,1,.1.1Z"/>
  </g>
</svg>
