<?xml version="1.0" encoding="UTF-8"?>
<svg id="ai-sovereignty" xmlns="http://www.w3.org/2000/svg" width="36" height="36" version="1.1" viewBox="0 0 36 36">
  <!-- Generator: Adobe Illustrator 30.2.1, SVG Export Plug-In . SVG Version: 2.1.1 Build 1)  -->
  <defs>
    <style>
      .st0 {
        fill: none;
      }
    </style>
  </defs>
  <path id="icon" d="M31,4.375H5c-.34521,0-.625.27979-.625.625v26c0,.34473.27979.625.625.625h26c.34521,0,.625-.28027.625-.625V5c0-.34521-.27979-.625-.625-.625ZM30.375,30.375H5.625V5.625h24.75v24.75ZM9.92969,18.67578c3.8584.42676,6.96826,3.53613,7.39404,7.39355.03809.34863.32861.61133.67627.61133.31885,0,.64111-.29297.67578-.61035.42627-3.8584,3.53613-6.96777,7.39453-7.39453.34814-.03809.61084-.32812.61084-.67578,0-.31836-.29443-.64062-.61084-.67578-3.8584-.42676-6.96826-3.53613-7.39404-7.39355-.03809-.34863-.32861-.61133-.67627-.61133-.31885,0-.64111.29297-.67578.61035-.42627,3.8584-3.53613,6.96777-7.39258,7.39453-.34912.03711-.61279.32812-.61279.67578,0,.31836.29443.64062.61084.67578ZM18,12.4043c.979,2.5625,3.03223,4.61621,5.59521,5.5957-2.56201.97852-4.61572,3.03223-5.59521,5.5957-.979-2.5625-3.03223-4.61621-5.59521-5.5957,2.56201-.97852,4.61572-3.03223,5.59521-5.5957Z"/>
  <rect id="transparent_rectangle" class="st0" width="36" height="36"/>
</svg>