<?xml version="1.0" encoding="UTF-8"?><svg id="uuid-edb30bdb-7bf7-4ce3-965a-7624525eed69" xmlns="http://www.w3.org/2000/svg" viewBox="0 0 38 38"><title>Product placeholder icon</title>
<desc>Use this icon as a placeholder before a custom icon is designed and approved for use.</desc>
<metadata><?xpacket begin="﻿" id="W5M0MpCehiHzreSzNTczkc9d"?>
<x:xmpmeta xmlns:x="adobe:ns:meta/" x:xmptk="Adobe XMP Core 8.0-c001 1.000000, 0000/00/00-00:00:00        ">
   <rdf:RDF xmlns:rdf="http://www.w3.org/1999/02/22-rdf-syntax-ns#">
      <rdf:Description rdf:about=""
            xmlns:xmp="http://ns.adobe.com/xap/1.0/"
            xmlns:dc="http://purl.org/dc/elements/1.1/"
            xmlns:cq="http://www.day.com/jcr/cq/1.0"
            xmlns:tiff="http://ns.adobe.com/tiff/1.0/"
            xmlns:xmpRights="http://ns.adobe.com/xap/1.0/rights/">
         <xmp:rhcc-effective-on>2024-03-01T15:25:36.967Z</xmp:rhcc-effective-on>
         <xmp:rhcc-metadata-complete-moderator>pending</xmp:rhcc-metadata-complete-moderator>
         <xmp:rhcc-translation-id>TRAc6b7eb09-b78f-4ec1-8c39-f24b6b0964ad</xmp:rhcc-translation-id>
         <xmp:brand-content-type>Icon</xmp:brand-content-type>
         <xmp:CreateDate>2024-03-01T15:25:36.967Z</xmp:CreateDate>
         <xmp:rhcc-aspect-ratio>square</xmp:rhcc-aspect-ratio>
         <xmp:rhcc-effective-on-set-on-upload>true</xmp:rhcc-effective-on-set-on-upload>
         <xmp:rhcc-published-asset-email-sent>true</xmp:rhcc-published-asset-email-sent>
         <xmp:rhcc-metadata-complete-uploader>pending</xmp:rhcc-metadata-complete-uploader>
         <xmp:rhcc-file-last-modified>2024-07-13T00:01:04.679Z</xmp:rhcc-file-last-modified>
         <xmp:rhcc-audience>rhcc-audience:internal</xmp:rhcc-audience>
         <xmp:rhcc-rights-restricted>no</xmp:rhcc-rights-restricted>
         <xmp:brand-content-subtype>Technology icon</xmp:brand-content-subtype>
         <xmp:rhcc-derivative-id>DERc6b7eb09-b78f-4ec1-8c39-f24b6b0964ad</xmp:rhcc-derivative-id>
         <xmp:rhcc-uploaded-by>pmeilleu@redhat.com</xmp:rhcc-uploaded-by>
         <xmp:brand-logo-color>Red</xmp:brand-logo-color>
         <xmp:rhcc-notify-portal-subscribers-on-change>yes</xmp:rhcc-notify-portal-subscribers-on-change>
         <xmp:brand-subtype>
            <rdf:Bag>
               <rdf:li>Technology icon</rdf:li>
            </rdf:Bag>
         </xmp:brand-subtype>
         <dc:format>image/svg+xml</dc:format>
         <dc:modified>2024-05-10T00:40:46.803Z</dc:modified>
         <dc:title>
            <rdf:Alt>
               <rdf:li xml:lang="x-default">Product placeholder icon</rdf:li>
            </rdf:Alt>
         </dc:title>
         <dc:description>
            <rdf:Alt>
               <rdf:li xml:lang="x-default">Use this icon as a placeholder before a custom icon is designed and approved for use.</rdf:li>
            </rdf:Alt>
         </dc:description>
         <cq:lastReplicationAction_scene7>Activate</cq:lastReplicationAction_scene7>
         <cq:lastReplicationAction_publish>Activate</cq:lastReplicationAction_publish>
         <cq:lastReplicated_publish>2024-10-02T19:50:00.441Z</cq:lastReplicated_publish>
         <cq:lastReplicatedBy>workflow-process-service</cq:lastReplicatedBy>
         <cq:lastReplicationAction>Activate</cq:lastReplicationAction>
         <cq:lastReplicatedBy_publish>workflow-process-service</cq:lastReplicatedBy_publish>
         <cq:isDelivered>false</cq:isDelivered>
         <cq:lastReplicated>2024-10-02T19:50:00.441Z</cq:lastReplicated>
         <cq:lastReplicatedBy_scene7>workflow-process-service</cq:lastReplicatedBy_scene7>
         <cq:lastReplicated_scene7>2024-10-02T19:50:00.441Z</cq:lastReplicated_scene7>
         <tiff:ImageLength>38</tiff:ImageLength>
         <tiff:ImageWidth>38</tiff:ImageWidth>
         <xmpRights:UsageTerms>
            <rdf:Alt>
               <rdf:li xml:lang="x-default">Use this placeholder icon temporarily if a Red Hat offering doesn't have a technology icon yet. Request a new technology icon for an offering via your Marketing Account Manager.</rdf:li>
            </rdf:Alt>
         </xmpRights:UsageTerms>
      </rdf:Description>
   </rdf:RDF>
</x:xmpmeta>
                                                                                                    
                                                                                                    
                                                                                                    
                                                                                                    
                                                                                                    
                                                                                                    
                                                                                                    
                                                                                                    
                                                                                                    
                                                                                                    
                                                                                                    
                                                                                                    
                                                                                                    
                                                                                                    
                                                                                                    
                                                                                                    
                                                      
<?xpacket end="w"?></metadata>
<defs><style>.uuid-31c37ed0-ff65-41cc-aa9b-591b14071643{fill:#e00;}</style></defs><path class="uuid-31c37ed0-ff65-41cc-aa9b-591b14071643" d="m27.19727,10.65381c-.64844,0-1.17676.52832-1.17676,1.17725,0,.64941.52832,1.17773,1.17676,1.17773.64941,0,1.17773-.52832,1.17773-1.17773,0-.64893-.52832-1.17725-1.17773-1.17725Z"/><path class="uuid-31c37ed0-ff65-41cc-aa9b-591b14071643" d="m28,1H10C5.02942,1,1,5.02942,1,10v18c0,4.97058,4.02942,9,9,9h18c4.97058,0,9-4.02942,9-9V10c0-4.97058-4.02942-9-9-9Zm-3.24316,17.21826c-.01172.27246-.03711.54102-.0752.80566-.04395.31152-.31152.53613-.61719.53613-.03027,0-.05957-.00195-.08984-.00635-.3418-.04932-.5791-.36621-.5293-.70752.03223-.22363.05371-.45117.06348-.68164.01465-.34424.28711-.63037.65039-.59766.34473.01465.61328.30615.59766.65137Zm-2.23242-5.08252c.28809-.18994.6748-.11279.86719.17334.31348.47168.58105.97852.79297,1.50732.12891.3208-.02734.68457-.34766.81299-.07617.03076-.1543.04492-.23242.04492-.24805,0-.48242-.14844-.58008-.39209-.17969-.44922-.40625-.87988-.67383-1.27979-.19141-.28711-.11328-.67529.17383-.8667Zm-14.1377,4.28662c.0293-.57129.11816-1.13867.26465-1.68555.08887-.33252.43066-.53027.76465-.44238.33398.08936.53223.43213.44238.76562-.12305.4624-.19922.94189-.22363,1.42578-.0166.33398-.29297.59326-.62305.59326-.01074,0-.02246-.00049-.0332-.00098-.34473-.01758-.60938-.31104-.5918-.65576Zm2.15723,5.05811c-.10449.06738-.22266.09961-.33789.09961-.20605,0-.40625-.10107-.52637-.28613-.30762-.47803-.56738-.98926-.77051-1.52051-.12305-.32227.03809-.68359.36035-.80713.3252-.12305.68359.03857.80762.36084.17188.4502.3916.88379.65332,1.28906.18652.29004.10352.67676-.18652.86426Zm.61621-8.98291c-.12305.15332-.30371.23291-.48633.23291-.1377,0-.27637-.04541-.39258-.13818-.26855-.2168-.31055-.61035-.09375-.87891.35645-.44287.76074-.8501,1.20117-1.20947.2666-.2168.66016-.1792.87988.08936.21777.26758.17773.66113-.08887.87939-.37402.30469-.7168.64941-1.01953,1.0249Zm3.23242,11.63574c-.09668.24658-.33301.39697-.58203.39697-.07617,0-.15332-.01367-.22852-.04297-.5293-.20801-1.03906-.47168-1.51367-.78467-.28809-.18994-.36816-.57764-.17773-.86572.18945-.28857.57617-.36914.86523-.17822.40234.26514.83398.48877,1.2832.66455.32129.12598.47949.48877.35352.81006Zm.3418-13.979c-.05469.01514-.11035.02197-.16504.02197-.27539,0-.52637-.18213-.60254-.45996-.0918-.33301.10449-.67676.4375-.76807.54785-.1499,1.11426-.24268,1.68262-.27539.33203-.01416.63965.24268.66016.58838.01953.34424-.24316.63965-.58789.65967-.48145.02783-.96094.10596-1.4248.2334Zm3.00586,14.81152c-.26367.03809-.53223.06299-.80371.0752-.00977.00049-.01953.00049-.02832.00049-.33301,0-.60938-.26172-.62402-.59717-.01562-.34473.25098-.63672.5957-.65234.23047-.01025.45801-.03125.68262-.06348.33301-.05176.65918.1875.70703.52979.0498.34131-.1875.6582-.5293.70752Zm.89551-15.42383c.12012-.32275.47949-.4873.80469-.3667.53125.19824,1.04492.4541,1.52637.76074.29199.18506.37793.57129.19238.86279-.11914.18701-.32129.28955-.52832.28955-.11426,0-.23047-.03125-.33398-.09766-.40918-.25977-.84375-.47656-1.29395-.64453-.32324-.12061-.4873-.48047-.36719-.8042Zm5.14453,19.11182c-2.53125,0-4.59082-2.05908-4.59082-4.59033s2.05957-4.59033,4.59082-4.59033,4.58984,2.05908,4.58984,4.59033-2.05859,4.59033-4.58984,4.59033Zm3.41699-15.39502c-1.33789,0-2.42676-1.08887-2.42676-2.42773,0-1.33838,1.08887-2.42725,2.42676-2.42725,1.33887,0,2.42773,1.08887,2.42773,2.42725,0,1.33887-1.08887,2.42773-2.42773,2.42773Z"/><path class="uuid-31c37ed0-ff65-41cc-aa9b-591b14071643" d="m23.78027,21.72314c-1.8418,0-3.34082,1.49854-3.34082,3.34033s1.49902,3.34033,3.34082,3.34033,3.33984-1.49854,3.33984-3.34033-1.49805-3.34033-3.33984-3.34033Z"/></svg>