<?xml version="1.0" encoding="UTF-8"?><svg id="uuid-155d0124-be11-4df4-92a3-137ef820bc31" xmlns="http://www.w3.org/2000/svg" width="38" height="38" viewBox="0 0 38 38"><title>Red Hat Edge Manager icon</title>
<desc>Market product, component, management, edge, Red Hat Advanced Cluster Management for Kubernetes</desc>
<metadata><?xpacket begin="﻿" id="W5M0MpCehiHzreSzNTczkc9d"?>
<x:xmpmeta xmlns:x="adobe:ns:meta/" x:xmptk="Adobe XMP Core 8.0-c001 1.000000, 0000/00/00-00:00:00        ">
   <rdf:RDF xmlns:rdf="http://www.w3.org/1999/02/22-rdf-syntax-ns#">
      <rdf:Description rdf:about=""
            xmlns:xmp="http://ns.adobe.com/xap/1.0/"
            xmlns:tiff="http://ns.adobe.com/tiff/1.0/"
            xmlns:dc="http://purl.org/dc/elements/1.1/"
            xmlns:xmpRights="http://ns.adobe.com/xap/1.0/rights/">
         <xmp:rhcc-notify-portal-subscribers-on-change>yes</xmp:rhcc-notify-portal-subscribers-on-change>
         <xmp:rhcc-aspect-ratio>square</xmp:rhcc-aspect-ratio>
         <xmp:rhcc-file-last-modified>2025-04-22T18:17:32.876Z</xmp:rhcc-file-last-modified>
         <xmp:brand-content-type>Icon</xmp:brand-content-type>
         <xmp:rhcc-audience>rhcc-audience:internal</xmp:rhcc-audience>
         <xmp:rhcc-rights-restricted>no</xmp:rhcc-rights-restricted>
         <xmp:brand-content-subtype>Technology</xmp:brand-content-subtype>
         <xmp:brand-logo-color>Standard</xmp:brand-logo-color>
         <xmp:brand-subtype>
            <rdf:Bag>
               <rdf:li>Technology icon</rdf:li>
            </rdf:Bag>
         </xmp:brand-subtype>
         <xmp:rhcc-topics>
            <rdf:Bag>
               <rdf:li>rhcc-topics:edge-computing</rdf:li>
            </rdf:Bag>
         </xmp:rhcc-topics>
         <xmp:brand-colorway>
            <rdf:Bag>
               <rdf:li>colorway:standard</rdf:li>
            </rdf:Bag>
         </xmp:brand-colorway>
         <xmp:rhcc-product>
            <rdf:Bag>
               <rdf:li>rhcc-product:red-hat-enterprise-linux</rdf:li>
            </rdf:Bag>
         </xmp:rhcc-product>
         <tiff:ImageWidth>38</tiff:ImageWidth>
         <tiff:ImageLength>38</tiff:ImageLength>
         <dc:format>image/svg+xml</dc:format>
         <dc:modified>2025-04-22T18:18:02.441Z</dc:modified>
         <dc:description>
            <rdf:Alt>
               <rdf:li xml:lang="x-default">Market product, component, management, edge, Red Hat Advanced Cluster Management for Kubernetes</rdf:li>
            </rdf:Alt>
         </dc:description>
         <dc:title>
            <rdf:Alt>
               <rdf:li xml:lang="x-default">Red Hat Edge Manager icon</rdf:li>
            </rdf:Alt>
         </dc:title>
         <xmpRights:UsageTerms>
            <rdf:Alt>
               <rdf:li xml:lang="x-default">Use technology icons to represent Red Hat products and components. Do not remove the icon from the bounding shape.</rdf:li>
            </rdf:Alt>
         </xmpRights:UsageTerms>
      </rdf:Description>
   </rdf:RDF>
</x:xmpmeta>
                                                                                                    
                                                                                                    
<?xpacket end="w"?></metadata>
<defs><style>.uuid-56c3591e-7e53-40e4-8ab7-378de5f92278{fill:#4d4d4d;}.uuid-659fb3f3-2c21-45d0-a008-b19ae2b7d715{fill:#fff;}.uuid-2f7fc137-2173-4037-b75f-4c43af290917{fill:#e00;}</style></defs><rect x="1" y="1" width="36" height="36" rx="9" ry="9"/><path class="uuid-56c3591e-7e53-40e4-8ab7-378de5f92278" d="M28,2.25c4.27336,0,7.75,3.47664,7.75,7.75v18c0,4.27336-3.47664,7.75-7.75,7.75H10c-4.27336,0-7.75-3.47664-7.75-7.75V10c0-4.27336,3.47664-7.75,7.75-7.75h18M28,1H10C5.02944,1,1,5.02943,1,10v18c0,4.97057,4.02944,9,9,9h18c4.97056,0,9-4.02943,9-9V10c0-4.97057-4.02944-9-9-9h0Z"/><path class="uuid-659fb3f3-2c21-45d0-a008-b19ae2b7d715" d="M16.66992,26.25977h0c-.33008-.1001-.51025-.45996-.3999-.77979h0c.09961-.33008.44971-.51025.77979-.41016h0c.33008.10986.51025.45996.41016.79004h0c-.09033.25977-.34033.43018-.6001.43018h0c-.06006,0-.12988-.01025-.18994-.03027ZM20.58008,25.84961c-.10059-.32959.08008-.67969.39941-.78955h0c.33008-.11035.69043.06982.79004.3999h0c.11035.33008-.06934.67969-.39941.79004h0c-.06055.02002-.12988.02979-.19043.02979h0c-.25977,0-.50977-.16992-.59961-.43018ZM12.84961,23.50977c-.19971-.27979-.13965-.66992.14014-.87012h0c.27002-.20996.66016-.1499.87012.13037h0c.2002.27979.14014.66992-.12988.87988h0c-.11035.08008-.24023.12012-.37012.12012h0c-.18994,0-.37988-.09033-.51025-.26025ZM24.2998,23.60986c-.28027-.2002-.33984-.58984-.13965-.87012h0c.20996-.27979.59961-.33984.87988-.14014h0c.2793.21045.33984.6001.12988.87012h0c-.12012.16992-.31055.26025-.5.26025h0c-.12988,0-.25977-.04004-.37012-.12012ZM11.36963,19.04004c0-.34033.28027-.62012.63037-.62012h0c.33984-.01025.61963.27002.62988.62012h0c0,.33984-.28027.61963-.62988.62988h0c-.34033,0-.62012-.28027-.63037-.62988ZM25.37988,19v-.04004h0v-.04004h0c-.00977-.34033.26953-.62012.61035-.62988h0c.34961,0,.62988.27979.63965.61963h0c0,.02002-.00977.03027-.00977.05029h0c0,.00977.00977.02979.00977.04004h0c0,.34961-.28027.61963-.62988.61963h0c-.33984,0-.62012-.27002-.62012-.61963ZM12.93994,15.42969c-.28027-.19971-.34033-.58984-.14014-.86963h0c.2002-.28027.58984-.34033.87012-.14014h0c.27979.19971.3501.58984.1499.87012h0c-.12988.16992-.31982.25977-.50977.25977h0c-.13037,0-.25-.04004-.37012-.12012ZM24.12012,15.19971c-.20996-.27979-.15039-.66992.12988-.87012h0c.26953-.20996.66992-.1499.87012.12012h0c.20996.28027.14941.66992-.12988.87988h0c-.11035.08008-.24023.12012-.37012.12012h0c-.19043,0-.37988-.08984-.5-.25ZM16.18994,12.56006c-.11035-.33008.06982-.69043.38965-.79004h0c.33008-.11035.69043.05957.80029.38965h0c.1001.33008-.06982.68018-.3999.79004h0c-.07031.02002-.13037.03027-.2002.03027h0c-.25977,0-.5-.16016-.58984-.41992ZM20.91016,12.91992c-.32031-.10986-.51074-.45996-.40039-.79004h0c.09961-.33008.4502-.51025.78027-.41016h0c.33008.10986.50977.45996.41016.79004h0c-.09082.27002-.33008.43994-.60059.43994h0c-.05957,0-.12012-.00977-.18945-.02979Z"/><path class="uuid-2f7fc137-2173-4037-b75f-4c43af290917" d="M19.625,15c0-.34521-.28027-.625-.625-.625-.34521,0-.625.27979-.625.625v.77173c-.44336.08575-.8562.25763-1.21716.50232l-.54456-.54456c-.24414-.24414-.63965-.24414-.88379,0s-.24414.63965,0,.88379l.54449.54456c-.24469.36096-.4165.7738-.50226,1.21716h-.77173c-.34521,0-.625.27979-.625.625s.27979.625.625.625h.77173c.08575.44336.25757.8562.50226,1.21716l-.54449.54456c-.24414.24414-.24414.63965,0,.88379.12207.12207.28174.18311.44189.18311s.31982-.06104.44189-.18311l.54456-.54456c.36096.24469.7738.41656,1.21716.50232v.77173c0,.34521.27979.625.625.625.34473,0,.625-.27979.625-.625v-.77173c.44324-.08563.85596-.2572,1.21686-.50171l.54388.54395c.12207.12207.28223.18311.44238.18311s.32031-.06104.44238-.18311c.24316-.24414.24316-.63965,0-.88379l-.54425-.54425c.24487-.36108.41675-.77399.5025-1.21747h.77124c.34473,0,.625-.27979.625-.625s-.28027-.625-.625-.625h-.77124c-.08575-.44348-.25763-.85638-.5025-1.21747l.54425-.54425c.24316-.24414.24316-.63965,0-.88379-.24414-.24414-.64062-.24414-.88477,0l-.54388.54395c-.3609-.24451-.77362-.41608-1.21686-.50171v-.77173ZM21.04199,19c0,1.12549-.91602,2.0415-2.04199,2.0415-1.12549,0-2.0415-.91602-2.0415-2.0415s.91602-2.0415,2.0415-2.0415c1.12598,0,2.04199.91602,2.04199,2.0415Z"/><path class="uuid-2f7fc137-2173-4037-b75f-4c43af290917" d="M30,18.375c-.34473,0-.625.27979-.625.625,0,5.7207-4.6543,10.375-10.375,10.375s-10.375-4.6543-10.375-10.375,4.6543-10.375,10.375-10.375c.34473,0,.625-.27979.625-.625s-.28027-.625-.625-.625c-6.41016,0-11.625,5.21484-11.625,11.625s5.21484,11.625,11.625,11.625,11.625-5.21484,11.625-11.625c0-.34521-.28027-.625-.625-.625Z"/><path class="uuid-2f7fc137-2173-4037-b75f-4c43af290917" d="M29.16016,15.40967c.08008,0,.16992-.00977.23926-.0498.32031-.12988.4707-.49023.34082-.81006-.13086-.31982-.5-.47021-.82031-.33984-.31055.12988-.45996.5-.33008.81982.09961.24023.33008.37988.57031.37988Z"/><path class="uuid-2f7fc137-2173-4037-b75f-4c43af290917" d="M22.96973,9.40967c.08008.04004.16016.05029.24023.05029.25,0,.47949-.14014.58008-.38037.12988-.31982-.02051-.68994-.33984-.81982-.32031-.12988-.68066.02002-.81055.33984-.13965.32031.00977.68018.33008.81006Z"/><path class="uuid-2f7fc137-2173-4037-b75f-4c43af290917" d="M26.78027,11.84961c.15918,0,.31934-.05957.43945-.17969.25-.25.25-.6499,0-.89014-.24023-.23975-.63965-.23975-.87988,0-.25.24023-.25.64014,0,.87988.12012.13037.28027.18994.44043.18994Z"/></svg>