<?xml version="1.0" encoding="UTF-8"?>
<svg xmlns="http://www.w3.org/2000/svg" viewBox="0 0 38 38">
  <defs>
    <style>
      .cls-1 {
        fill: #e0e0e0;
      }

      .cls-2 {
        fill: #fff;
      }

      .cls-3 {
        fill: #e00;
      }
    </style>
  </defs>
  <g id="Bounding_shape" data-name="Bounding shape">
    <g>
      <rect class="cls-2" x="1" y="1" width="36" height="36" rx="9" ry="9"/>
      <path class="cls-1" d="M28,2.25c4.27,0,7.75,3.48,7.75,7.75v18c0,4.27-3.48,7.75-7.75,7.75H10c-4.27,0-7.75-3.48-7.75-7.75V10c0-4.27,3.48-7.75,7.75-7.75h18M28,1H10C5.03,1,1,5.03,1,10v18c0,4.97,4.03,9,9,9h18c4.97,0,9-4.03,9-9V10c0-4.97-4.03-9-9-9h0Z"/>
    </g>
  </g>
  <g id="Icons">
    <g>
      <path d="M25.7,20.1v-6.99c0-.29-.21-.55-.5-.61l-6.08-1.29c-.09-.02-.17-.02-.26,0l-6.08,1.29c-.29.06-.5.32-.5.61v6.99c0,3.7,3.01,6.7,6.7,6.7s6.7-3.01,6.7-6.7ZM19,25.56c-3.01,0-5.45-2.45-5.45-5.45v-6.49l5.45-1.16,5.45,1.16v6.49c0,3.01-2.45,5.45-5.45,5.45Z"/>
      <path d="M10,14.62c.34,0,.62-.28.62-.62v-3.38h3.38c.34,0,.62-.28.62-.62s-.28-.62-.62-.62h-4c-.34,0-.62.28-.62.62v4c0,.34.28.62.62.62Z"/>
      <path d="M28,9.38h-4c-.34,0-.62.28-.62.62s.28.62.62.62h3.38v3.38c0,.34.28.62.62.62s.62-.28.62-.62v-4c0-.34-.28-.62-.62-.62Z"/>
      <path d="M28,23.38c-.34,0-.62.28-.62.62v3.38h-3.38c-.34,0-.62.28-.62.62s.28.62.62.62h4c.34,0,.62-.28.62-.62v-4c0-.34-.28-.62-.62-.62Z"/>
      <path d="M14,27.38h-3.38v-3.38c0-.34-.28-.62-.62-.62s-.62.28-.62.62v4c0,.34.28.62.62.62h4c.34,0,.62-.28.62-.62s-.28-.62-.62-.62Z"/>
    </g>
    <g>
      <circle class="cls-2" cx="19" cy="12" r="2"/>
      <path class="cls-3" d="M19,14.62c-1.45,0-2.62-1.18-2.62-2.62s1.18-2.62,2.62-2.62,2.62,1.18,2.62,2.62-1.18,2.62-2.62,2.62ZM19,10.62c-.76,0-1.38.62-1.38,1.38s.62,1.38,1.38,1.38,1.38-.62,1.38-1.38-.62-1.38-1.38-1.38Z"/>
    </g>
    <g>
      <path class="cls-2" d="M19,24c-1.1,0-2,.9-2,2s.9,2,2,2,2-.9,2-2-.9-2-2-2ZM19,27.38c-.76,0-1.38-.62-1.38-1.38s.62-1.38,1.38-1.38,1.38.62,1.38,1.38-.62,1.38-1.38,1.38Z"/>
      <path class="cls-3" d="M19,23.38c-1.45,0-2.62,1.17-2.62,2.62s1.17,2.62,2.62,2.62,2.62-1.17,2.62-2.62-1.17-2.62-2.62-2.62ZM19,27.38c-.76,0-1.38-.62-1.38-1.38s.62-1.38,1.38-1.38,1.38.62,1.38,1.38-.62,1.38-1.38,1.38Z"/>
      <circle class="cls-2" cx="19" cy="26" r="1.38"/>
    </g>
    <g>
      <path class="cls-2" d="M26,17c-1.1,0-2,.9-2,2s.9,2,2,2,2-.9,2-2-.9-2-2-2ZM26,20.38c-.76,0-1.38-.62-1.38-1.38s.62-1.38,1.38-1.38,1.38.62,1.38,1.38-.62,1.38-1.38,1.38Z"/>
      <path class="cls-3" d="M26,16.38c-1.45,0-2.62,1.17-2.62,2.62s1.17,2.62,2.62,2.62,2.62-1.17,2.62-2.62-1.17-2.62-2.62-2.62ZM26,20.38c-.76,0-1.38-.62-1.38-1.38s.62-1.38,1.38-1.38,1.38.62,1.38,1.38-.62,1.38-1.38,1.38Z"/>
      <circle class="cls-2" cx="26" cy="19" r="1.38"/>
    </g>
    <g>
      <path class="cls-2" d="M12,17c-1.1,0-2,.9-2,2s.9,2,2,2,2-.9,2-2-.9-2-2-2ZM12,20.38c-.76,0-1.38-.62-1.38-1.38s.62-1.38,1.38-1.38,1.38.62,1.38,1.38-.62,1.38-1.38,1.38Z"/>
      <path class="cls-3" d="M12,16.38c-1.45,0-2.62,1.17-2.62,2.62s1.17,2.62,2.62,2.62,2.62-1.17,2.62-2.62-1.17-2.62-2.62-2.62ZM12,20.38c-.76,0-1.38-.62-1.38-1.38s.62-1.38,1.38-1.38,1.38.62,1.38,1.38-.62,1.38-1.38,1.38Z"/>
      <circle class="cls-2" cx="12" cy="19" r="1.38"/>
    </g>
    <path class="cls-3" d="M18.45,21c-.16,0-.31-.07-.43-.2l-.97-1.12c-.24-.27-.24-.71,0-.99.24-.27.62-.27.86,0l.54.62,1.51-1.74c.24-.27.62-.27.86,0,.24.27.24.71,0,.99l-1.94,2.23c-.12.14-.27.2-.43.2Z"/>
  </g>
</svg>