<?xml version="1.0" encoding="UTF-8"?>
<svg id="Icons" xmlns="http://www.w3.org/2000/svg" viewBox="0 0 38 38">
  <defs>
    <style>
      .cls-1 {
        fill: #fff;
      }
    </style>
  </defs>
  <path class="cls-1" d="M28,1H10C5.03,1,1,5.03,1,10v18c0,4.97,4.03,9,9,9h18c4.97,0,9-4.03,9-9V10c0-4.97-4.03-9-9-9ZM35.75,28c0,4.27-3.48,7.75-7.75,7.75H10c-4.27,0-7.75-3.48-7.75-7.75V10c0-4.27,3.48-7.75,7.75-7.75h18c4.27,0,7.75,3.48,7.75,7.75v18Z"/>
  <path class="cls-1" d="M10,14.63c.34,0,.62-.28.62-.62v-3.38h3.38c.34,0,.62-.28.62-.62s-.28-.62-.62-.62h-4c-.34,0-.62.28-.62.62v4c0,.34.28.62.62.62Z"/>
  <path class="cls-1" d="M28,9.38h-4c-.34,0-.62.28-.62.62s.28.62.62.62h3.38v3.38c0,.34.28.62.62.62s.62-.28.62-.62v-4c0-.34-.28-.62-.62-.62Z"/>
  <path class="cls-1" d="M28,23.38c-.34,0-.62.28-.62.62v3.38h-3.38c-.34,0-.62.28-.62.62s.28.62.62.62h4c.34,0,.62-.28.62-.62v-4c0-.34-.28-.62-.62-.62Z"/>
  <path class="cls-1" d="M14,27.38h-3.38v-3.38c0-.34-.28-.62-.62-.62s-.62.28-.62.62v4c0,.34.28.62.62.62h4c.34,0,.62-.28.62-.62s-.28-.62-.62-.62Z"/>
  <path class="cls-1" d="M26,16.38c-.1,0-.2.02-.29.04v-3.3c0-.29-.21-.55-.49-.61-1.03-.22-2.42-.51-3.61-.77-.14-1.32-1.24-2.36-2.6-2.36s-2.46,1.04-2.6,2.36l-3.61.77c-.29.06-.5.32-.5.61v3.3c-.1-.01-.19-.04-.29-.04-1.45,0-2.62,1.18-2.62,2.62s1.18,2.62,2.62,2.62c.16,0,.32-.03.47-.06.47,2.1,1.93,3.85,3.93,4.69.13,1.33,1.24,2.37,2.6,2.37s2.47-1.04,2.6-2.37c1.98-.83,3.44-2.57,3.92-4.69.16.03.32.06.48.06,1.45,0,2.62-1.18,2.62-2.62s-1.18-2.62-2.62-2.62ZM19,10.63c.76,0,1.38.62,1.38,1.38v.17c-.1.69-.68,1.21-1.38,1.21s-1.28-.52-1.36-1.21c0-.02,0-.14-.01-.17,0-.76.62-1.38,1.38-1.38ZM10.62,19c0-.76.62-1.38,1.38-1.38.22,0,.44.05.63.16.46.24.74.7.74,1.21s-.27.96-.72,1.2c-.02.01-.05.03-.07.04-.18.08-.39.13-.59.13-.76,0-1.38-.62-1.38-1.38ZM19,27.38c-.76,0-1.38-.62-1.38-1.38v-.11c.06-.71.66-1.26,1.38-1.26s1.31.55,1.37,1.32v.06c0,.76-.62,1.38-1.37,1.38ZM21.42,24.99s-.03-.06-.04-.09c-.02-.04-.04-.09-.07-.13-.05-.09-.1-.18-.16-.27-.03-.04-.05-.08-.08-.11-.08-.1-.16-.2-.26-.28-.01-.01-.02-.03-.04-.04-.11-.1-.22-.19-.35-.27-.03-.02-.07-.04-.1-.06-.09-.05-.19-.1-.29-.15-.05-.02-.09-.04-.14-.06-.1-.04-.2-.07-.3-.09-.05-.01-.09-.02-.13-.03-.15-.03-.3-.04-.46-.04s-.31.02-.45.04c-.05,0-.09.02-.14.03-.1.02-.19.05-.29.08-.05.02-.11.04-.16.06-.08.03-.15.07-.23.12-.06.03-.11.06-.17.1-.05.03-.09.07-.14.11-.26.2-.48.43-.65.71,0,0-.01.02-.02.03-.06.1-.11.21-.16.31,0,0,0,.01,0,.02-1.56-.77-2.67-2.25-2.96-3.93.05-.04.09-.1.14-.14.06-.06.12-.12.18-.18.09-.1.16-.2.23-.31.05-.07.09-.13.13-.21.07-.12.11-.25.16-.39.02-.07.05-.13.07-.2.05-.21.08-.42.08-.63,0-.23-.04-.45-.09-.67-.02-.07-.05-.14-.08-.21-.05-.14-.1-.27-.17-.4-.04-.08-.1-.15-.15-.22-.07-.11-.15-.21-.24-.3-.07-.07-.14-.13-.21-.19-.05-.04-.08-.09-.13-.12v-3.27l3.02-.64c.02.06.05.11.08.17.02.04.04.09.06.13.06.1.12.2.19.29.02.02.03.05.05.07.09.11.19.22.29.31.03.03.06.05.1.08.08.07.16.13.25.18.04.03.09.05.13.08.08.05.17.09.25.13.05.02.1.04.15.06.09.03.19.06.29.08.05.01.09.02.14.03.15.03.3.04.45.04s.3-.02.45-.04c.05,0,.1-.02.15-.03.09-.02.18-.05.27-.08.06-.02.12-.05.18-.07.07-.03.14-.06.2-.1.07-.04.13-.07.2-.11.04-.03.08-.06.12-.09.39-.29.69-.67.87-1.11,0,0,0-.01,0-.02.99.21,2.1.44,3.02.64v3.27c-.05.04-.09.09-.14.13-.07.06-.13.11-.19.17-.1.1-.18.21-.27.33-.05.07-.1.13-.14.2-.07.13-.13.27-.18.41-.02.07-.06.13-.07.2-.06.22-.09.44-.09.67,0,.22.03.43.08.63.02.07.05.13.07.19.05.14.09.27.16.39.04.07.08.13.13.2.07.11.15.21.23.31.06.06.12.12.18.18.05.05.09.1.14.14-.3,1.71-1.4,3.17-2.95,3.93ZM26,20.38c-.2,0-.41-.04-.59-.13-.02-.02-.04-.03-.07-.04-.44-.24-.72-.7-.72-1.2s.28-.98.76-1.22c.18-.1.4-.15.62-.15.76,0,1.38.62,1.38,1.38s-.62,1.38-1.38,1.38Z"/>
  <path class="cls-1" d="M20.06,17.56l-1.56,1.56-.56-.56c-.24-.24-.64-.24-.88,0-.24.24-.24.64,0,.88l1,1c.12.12.28.18.44.18s.32-.06.44-.18l2-2c.24-.24.24-.64,0-.88-.24-.24-.64-.24-.88,0Z"/>
</svg>