<svg id="f1c08df0-b480-4a4f-9977-187c4352f712" data-name="Icon" xmlns="http://www.w3.org/2000/svg" viewBox="0 0 36 36">
  <title>Trashcan icon - White</title>
<desc>trash, recycle, compost, lid, can, bin, garbage, shapes and signage</desc>
<metadata><?xpacket begin="﻿" id="W5M0MpCehiHzreSzNTczkc9d"?>
<x:xmpmeta xmlns:x="adobe:ns:meta/" x:xmptk="Adobe XMP Core 8.0-c001 1.000000, 0000/00/00-00:00:00        ">
   <rdf:RDF xmlns:rdf="http://www.w3.org/1999/02/22-rdf-syntax-ns#">
      <rdf:Description rdf:about=""
            xmlns:xmp="http://ns.adobe.com/xap/1.0/"
            xmlns:dc="http://purl.org/dc/elements/1.1/"
            xmlns:cq="http://www.day.com/jcr/cq/1.0"
            xmlns:tiff="http://ns.adobe.com/tiff/1.0/">
         <xmp:rhcc-effective-on>2023-12-08T17:38:26.635Z</xmp:rhcc-effective-on>
         <xmp:rhcc-metadata-complete-moderator>pending</xmp:rhcc-metadata-complete-moderator>
         <xmp:rhcc-translation-id>TRA474b66e7-e89b-430d-9514-4c2b8e640aba</xmp:rhcc-translation-id>
         <xmp:brand-content-type>Icon</xmp:brand-content-type>
         <xmp:CreateDate>2023-12-08T17:38:26.635Z</xmp:CreateDate>
         <xmp:rhcc-effective-on-set-on-upload>true</xmp:rhcc-effective-on-set-on-upload>
         <xmp:rhcc-metadata-complete-uploader>pending</xmp:rhcc-metadata-complete-uploader>
         <xmp:rhcc-file-last-modified>2023-12-08T17:40:50.797Z</xmp:rhcc-file-last-modified>
         <xmp:rhcc-audience>rhcc-audience:internal</xmp:rhcc-audience>
         <xmp:rhcc-rights-restricted>no</xmp:rhcc-rights-restricted>
         <xmp:brand-content-subtype>Icon</xmp:brand-content-subtype>
         <xmp:rhcc-derivative-id>DER474b66e7-e89b-430d-9514-4c2b8e640aba</xmp:rhcc-derivative-id>
         <xmp:brand-logo-color>White</xmp:brand-logo-color>
         <xmp:rhcc-notify-portal-subscribers-on-change>yes</xmp:rhcc-notify-portal-subscribers-on-change>
         <dc:format>image/svg+xml</dc:format>
         <dc:modified>2024-02-09T20:28:59.832Z</dc:modified>
         <dc:title>
            <rdf:Alt>
               <rdf:li xml:lang="x-default">Trashcan icon - White</rdf:li>
            </rdf:Alt>
         </dc:title>
         <dc:description>
            <rdf:Alt>
               <rdf:li xml:lang="x-default">trash, recycle, compost, lid, can, bin, garbage, shapes and signage</rdf:li>
            </rdf:Alt>
         </dc:description>
         <cq:lastReplicationAction_scene7>Activate</cq:lastReplicationAction_scene7>
         <cq:lastReplicationAction_publish>Activate</cq:lastReplicationAction_publish>
         <cq:lastReplicated_publish>2024-02-09T22:15:48.080Z</cq:lastReplicated_publish>
         <cq:lastReplicatedBy>workflow-process-service</cq:lastReplicatedBy>
         <cq:lastReplicationAction>Activate</cq:lastReplicationAction>
         <cq:lastReplicatedBy_publish>workflow-process-service</cq:lastReplicatedBy_publish>
         <cq:isDelivered>true</cq:isDelivered>
         <cq:lastReplicated>2024-02-09T22:15:48.080Z</cq:lastReplicated>
         <cq:lastReplicatedBy_scene7>workflow-process-service</cq:lastReplicatedBy_scene7>
         <cq:lastReplicated_scene7>2024-02-09T22:15:48.080Z</cq:lastReplicated_scene7>
         <tiff:ImageLength>36</tiff:ImageLength>
         <tiff:ImageWidth>36</tiff:ImageWidth>
      </rdf:Description>
   </rdf:RDF>
</x:xmpmeta>
                                                                                                    
                                                                                                    
                                                                                                    
                                                                                                    
                                                                                                    
                                                                                                    
                                                                                                    
                                                                                                    
                                                                                                    
                                                                                                    
                                 
<?xpacket end="w"?></metadata>
<defs>
    <style>
      .b43fff0f-d272-4522-9554-644cc09a0390 {
        fill: #fff;
      }
    </style>
  </defs>
  <g>
    <path class="b43fff0f-d272-4522-9554-644cc09a0390" d="M8,8.62H28a.62.62,0,1,0,0-1.24H21.56a3.62,3.62,0,0,0-7.12,0H8A.62.62,0,0,0,8,8.62Zm10-3a2.38,2.38,0,0,1,2.28,1.76H15.72A2.38,2.38,0,0,1,18,5.62Z"/>
    <path class="b43fff0f-d272-4522-9554-644cc09a0390" d="M18,27.62a.62.62,0,0,0,.62-.62V15a.62.62,0,0,0-1.24,0V27A.62.62,0,0,0,18,27.62Z"/>
    <path class="b43fff0f-d272-4522-9554-644cc09a0390" d="M13,27.62a.62.62,0,0,0,.62-.62V15a.62.62,0,0,0-1.24,0V27A.62.62,0,0,0,13,27.62Z"/>
    <path class="b43fff0f-d272-4522-9554-644cc09a0390" d="M23,27.62a.62.62,0,0,0,.62-.62V15a.62.62,0,0,0-1.24,0V27A.62.62,0,0,0,23,27.62Z"/>
    <path class="b43fff0f-d272-4522-9554-644cc09a0390" d="M28,10.38H8a.62.62,0,0,0,0,1.24h.38V31a.62.62,0,0,0,.62.62H27a.62.62,0,0,0,.62-.62V11.62H28A.62.62,0,0,0,28,10.38Zm-1.62,20H9.62V11.62H26.38Z"/>
  </g>
</svg>
