<svg id="b154b82f-21a0-43f7-b456-6b31fb759697" data-name="Icon" xmlns="http://www.w3.org/2000/svg" viewBox="0 0 36 36">
  <title>Bridge icon - White</title>
<desc>drive, ride, commute, engineering, construction, road, highway, transportation</desc>
<metadata><?xpacket begin="﻿" id="W5M0MpCehiHzreSzNTczkc9d"?>
<x:xmpmeta xmlns:x="adobe:ns:meta/" x:xmptk="Adobe XMP Core 8.0-c001 1.000000, 0000/00/00-00:00:00        ">
   <rdf:RDF xmlns:rdf="http://www.w3.org/1999/02/22-rdf-syntax-ns#">
      <rdf:Description rdf:about=""
            xmlns:xmp="http://ns.adobe.com/xap/1.0/"
            xmlns:dc="http://purl.org/dc/elements/1.1/"
            xmlns:cq="http://www.day.com/jcr/cq/1.0"
            xmlns:tiff="http://ns.adobe.com/tiff/1.0/">
         <xmp:rhcc-effective-on>2023-12-08T17:46:03.935Z</xmp:rhcc-effective-on>
         <xmp:rhcc-metadata-complete-moderator>pending</xmp:rhcc-metadata-complete-moderator>
         <xmp:rhcc-translation-id>TRA68c725ee-aa08-4b3a-85fc-f5f142e8df26</xmp:rhcc-translation-id>
         <xmp:brand-content-type>Icon</xmp:brand-content-type>
         <xmp:CreateDate>2023-12-08T17:46:03.935Z</xmp:CreateDate>
         <xmp:rhcc-aspect-ratio>square</xmp:rhcc-aspect-ratio>
         <xmp:rhcc-effective-on-set-on-upload>true</xmp:rhcc-effective-on-set-on-upload>
         <xmp:rhcc-published-asset-email-sent>true</xmp:rhcc-published-asset-email-sent>
         <xmp:rhcc-metadata-complete-uploader>pending</xmp:rhcc-metadata-complete-uploader>
         <xmp:rhcc-file-last-modified>2024-07-12T21:18:34.372Z</xmp:rhcc-file-last-modified>
         <xmp:rhcc-audience>rhcc-audience:internal</xmp:rhcc-audience>
         <xmp:brand-content-subtype>Icon</xmp:brand-content-subtype>
         <xmp:rhcc-rights-restricted>no</xmp:rhcc-rights-restricted>
         <xmp:rhcc-derivative-id>DER68c725ee-aa08-4b3a-85fc-f5f142e8df26</xmp:rhcc-derivative-id>
         <xmp:rhcc-uploaded-by>pmeilleu@redhat.com</xmp:rhcc-uploaded-by>
         <xmp:brand-logo-color>White</xmp:brand-logo-color>
         <xmp:rhcc-notify-portal-subscribers-on-change>yes</xmp:rhcc-notify-portal-subscribers-on-change>
         <dc:format>image/svg+xml</dc:format>
         <dc:modified>2024-02-09T20:25:07.861Z</dc:modified>
         <dc:title>
            <rdf:Alt>
               <rdf:li xml:lang="x-default">Bridge icon - White</rdf:li>
            </rdf:Alt>
         </dc:title>
         <dc:description>
            <rdf:Alt>
               <rdf:li xml:lang="x-default">drive, ride, commute, engineering, construction, road, highway, transportation</rdf:li>
            </rdf:Alt>
         </dc:description>
         <cq:lastReplicationAction_scene7>Activate</cq:lastReplicationAction_scene7>
         <cq:lastReplicationAction_publish>Activate</cq:lastReplicationAction_publish>
         <cq:lastReplicated_publish>2024-10-02T19:46:14.646Z</cq:lastReplicated_publish>
         <cq:lastReplicatedBy>workflow-process-service</cq:lastReplicatedBy>
         <cq:lastReplicationAction>Activate</cq:lastReplicationAction>
         <cq:lastReplicatedBy_publish>workflow-process-service</cq:lastReplicatedBy_publish>
         <cq:isDelivered>false</cq:isDelivered>
         <cq:lastReplicated>2024-10-02T19:46:14.646Z</cq:lastReplicated>
         <cq:lastReplicatedBy_scene7>workflow-process-service</cq:lastReplicatedBy_scene7>
         <cq:lastReplicated_scene7>2024-10-02T19:46:14.646Z</cq:lastReplicated_scene7>
         <tiff:ImageLength>36</tiff:ImageLength>
         <tiff:ImageWidth>36</tiff:ImageWidth>
      </rdf:Description>
   </rdf:RDF>
</x:xmpmeta>
                                                                                                    
                                                                                                    
                                                                                                    
                                                                                                    
                                                                                                    
                                                                                                    
                                                                                                    
                                                                                                    
        
<?xpacket end="w"?></metadata>
<defs>
    <style>
      .e626b85a-8fd9-4c0d-9985-4848cc254cca {
        fill: #fff;
      }
    </style>
  </defs>
  <path class="e626b85a-8fd9-4c0d-9985-4848cc254cca" d="M32,19.38H25.62V10.52A7.66,7.66,0,0,0,32,14a.63.63,0,0,0,0-1.25c-4.27-.07-6.79-3.64-6.37-7.72a.63.63,0,0,0-1.26,0c.42,4.08-2.11,7.65-6.37,7.72S11.21,9.08,11.63,5a.63.63,0,0,0-1.25,0c.41,4.08-2.12,7.65-6.38,7.72A.63.63,0,0,0,4,14a7.66,7.66,0,0,0,6.38-3.45v8.86H4a.62.62,0,1,0,0,1.24h6.38v6.84a2.62,2.62,0,0,0-2,2.54v1a.61.61,0,0,0,.62.62h4c.84,0,.59-1.08.62-1.62a2.62,2.62,0,0,0-2-2.54V20.62H24.38v6.84a2.62,2.62,0,0,0-2,2.54v1a.61.61,0,0,0,.62.62h4c.84,0,.59-1.08.62-1.62a2.62,2.62,0,0,0-2-2.54V20.62H32A.62.62,0,0,0,32,19.38ZM12.38,30v.38H9.62A1.4,1.4,0,1,1,12.38,30Zm14,0v.38H23.62A1.4,1.4,0,1,1,26.38,30ZM11.62,19.38V10.52a7.67,7.67,0,0,0,12.76,0v8.86Z"/>
</svg>
