<?xml version="1.0" encoding="UTF-8"?><svg id="uuid-a3d75b08-16f5-4dd2-a3a3-048154e36a18" xmlns="http://www.w3.org/2000/svg" viewBox="0 0 36 36"><title>Assessment icon - White</title>
<desc>assessment, quiz, digital assessment, test, app, window, check, checkbox, correct, survey, form</desc>
<metadata><?xpacket begin="﻿" id="W5M0MpCehiHzreSzNTczkc9d"?>
<x:xmpmeta xmlns:x="adobe:ns:meta/" x:xmptk="Adobe XMP Core 8.0-c001 1.000000, 0000/00/00-00:00:00        ">
   <rdf:RDF xmlns:rdf="http://www.w3.org/1999/02/22-rdf-syntax-ns#">
      <rdf:Description rdf:about=""
            xmlns:xmp="http://ns.adobe.com/xap/1.0/"
            xmlns:tiff="http://ns.adobe.com/tiff/1.0/"
            xmlns:dc="http://purl.org/dc/elements/1.1/">
         <xmp:rhcc-effective-on>2024-03-13T14:16:38.272Z</xmp:rhcc-effective-on>
         <xmp:rhcc-rights-restricted>no</xmp:rhcc-rights-restricted>
         <xmp:brand-content-subtype>Icon</xmp:brand-content-subtype>
         <xmp:rhcc-metadata-complete-moderator>pending</xmp:rhcc-metadata-complete-moderator>
         <xmp:rhcc-translation-id>TRA433b1a1a-1b41-4b9c-b7be-b2cc60cce173</xmp:rhcc-translation-id>
         <xmp:brand-content-type>Icon</xmp:brand-content-type>
         <xmp:CreateDate>2024-03-13T14:16:38.272Z</xmp:CreateDate>
         <xmp:rhcc-aspect-ratio>square</xmp:rhcc-aspect-ratio>
         <xmp:rhcc-derivative-id>DER433b1a1a-1b41-4b9c-b7be-b2cc60cce173</xmp:rhcc-derivative-id>
         <xmp:rhcc-effective-on-set-on-upload>true</xmp:rhcc-effective-on-set-on-upload>
         <xmp:rhcc-uploaded-by>llevi@redhat.com</xmp:rhcc-uploaded-by>
         <xmp:brand-logo-color>White</xmp:brand-logo-color>
         <xmp:rhcc-metadata-complete-uploader>pending</xmp:rhcc-metadata-complete-uploader>
         <xmp:rhcc-file-last-modified>2024-07-12T23:37:07.366Z</xmp:rhcc-file-last-modified>
         <xmp:rhcc-audience>rhcc-audience:internal</xmp:rhcc-audience>
         <xmp:rhcc-notify-portal-subscribers-on-change>yes</xmp:rhcc-notify-portal-subscribers-on-change>
         <tiff:ImageLength>36</tiff:ImageLength>
         <tiff:ImageWidth>36</tiff:ImageWidth>
         <dc:format>image/svg+xml</dc:format>
         <dc:modified>2024-03-13T14:17:40.156Z</dc:modified>
         <dc:description>
            <rdf:Alt>
               <rdf:li xml:lang="x-default">assessment, quiz, digital assessment, test, app, window, check, checkbox, correct, survey, form</rdf:li>
            </rdf:Alt>
         </dc:description>
         <dc:title>
            <rdf:Alt>
               <rdf:li xml:lang="x-default">Assessment icon - White</rdf:li>
            </rdf:Alt>
         </dc:title>
      </rdf:Description>
   </rdf:RDF>
</x:xmpmeta>
                                                                                                    
                                                                                                    
                                                                                                    
                                                                                                    
                                                                                                    
                                                                                                    
                                                                                                    
                                                                                                    
                                                                                                    
                                                                                                    
                                                                                                    
                                                                                                    
                                                                                                    
                                                                                                    
                                                                                                    
                        
<?xpacket end="w"?></metadata>
<defs><style>.uuid-34f92df7-e901-4b1e-a369-3011edd60531{fill:#fff;stroke-width:0px;}</style></defs><path class="uuid-34f92df7-e901-4b1e-a369-3011edd60531" d="M31,4.375H5c-.3452,0-.625.2803-.625.625v26c0,.3447.2798.625.625.625h26c.3452,0,.625-.2803.625-.625V5c0-.3447-.2798-.625-.625-.625ZM30.375,30.375H5.625V5.625h24.75v24.75Z"/><path class="uuid-34f92df7-e901-4b1e-a369-3011edd60531" d="M8,8.6299c.0796,0,.1597-.0205.2397-.0498.0703-.0303.1401-.0801.2002-.1406.1201-.1094.1899-.2695.1899-.4395,0-.1602-.0698-.3301-.1899-.4404-.0601-.0596-.1299-.0996-.2002-.1396-.23-.0898-.5098-.0303-.6797.1396-.1201.1104-.1904.2705-.1904.4404s.0703.3301.1904.4395c.1196.1201.2798.1904.4399.1904Z"/><path class="uuid-34f92df7-e901-4b1e-a369-3011edd60531" d="M10,8.6299c.0796,0,.1597-.0205.2397-.0498.0703-.0303.1401-.0801.2002-.1406.1201-.1094.1899-.2695.1899-.4395,0-.1602-.0698-.3301-.1899-.4404-.0601-.0596-.1299-.0996-.2002-.1396-.23-.0898-.5098-.0303-.6797.1396-.1201.1104-.1904.2705-.1904.4404s.0703.3301.1904.4395c.1196.1201.2798.1904.4399.1904Z"/><path class="uuid-34f92df7-e901-4b1e-a369-3011edd60531" d="M13,8.625h15c.3452,0,.625-.2803.625-.625s-.2798-.625-.625-.625h-15c-.3452,0-.625.2803-.625.625s.2798.625.625.625Z"/><path class="uuid-34f92df7-e901-4b1e-a369-3011edd60531" d="M13,24.625h10c.3452,0,.625-.2803.625-.625v-3c0-.3447-.2798-.625-.625-.625s-.625.2803-.625.625v2.375h-8.75v-8.75h6.375c.3452,0,.625-.2803.625-.625s-.2798-.625-.625-.625h-7c-.3452,0-.625.2803-.625.625v10c0,.3447.2798.625.625.625Z"/><path class="uuid-34f92df7-e901-4b1e-a369-3011edd60531" d="M22.5581,15.5576l-4.5581,4.5586-1.5581-1.5586c-.2441-.2441-.6396-.2441-.8838,0s-.2441.6406,0,.8848l2,2c.1221.1221.2817.1826.4419.1826s.3198-.0605.4419-.1826l5-5c.2441-.2441.2441-.6406,0-.8848s-.6396-.2441-.8838,0Z"/></svg>