<?xml version="1.0" encoding="UTF-8"?><svg id="uuid-207cd9e3-7d67-4c2d-9749-c210be30ef7b" xmlns="http://www.w3.org/2000/svg" viewBox="0 0 38 38"><title>Red Hat build of Apicurio Registry icon</title>
<desc>application services</desc>
<metadata><?xpacket begin="﻿" id="W5M0MpCehiHzreSzNTczkc9d"?>
<x:xmpmeta xmlns:x="adobe:ns:meta/" x:xmptk="Adobe XMP Core 8.0-c001 1.000000, 0000/00/00-00:00:00        ">
   <rdf:RDF xmlns:rdf="http://www.w3.org/1999/02/22-rdf-syntax-ns#">
      <rdf:Description rdf:about=""
            xmlns:xmp="http://ns.adobe.com/xap/1.0/"
            xmlns:tiff="http://ns.adobe.com/tiff/1.0/"
            xmlns:dc="http://purl.org/dc/elements/1.1/"
            xmlns:xmpRights="http://ns.adobe.com/xap/1.0/rights/">
         <xmp:rhcc-effective-on>2024-06-27T14:22:54.616Z</xmp:rhcc-effective-on>
         <xmp:rhcc-rights-restricted>no</xmp:rhcc-rights-restricted>
         <xmp:brand-content-subtype>Technology icon</xmp:brand-content-subtype>
         <xmp:rhcc-metadata-complete-moderator>pending</xmp:rhcc-metadata-complete-moderator>
         <xmp:rhcc-translation-id>TRA085df822-7830-4a6d-b3f9-62d13f1ca5f4</xmp:rhcc-translation-id>
         <xmp:brand-content-type>Icon</xmp:brand-content-type>
         <xmp:CreateDate>2024-06-27T14:22:54.616Z</xmp:CreateDate>
         <xmp:rhcc-aspect-ratio>square</xmp:rhcc-aspect-ratio>
         <xmp:rhcc-derivative-id>DER085df822-7830-4a6d-b3f9-62d13f1ca5f4</xmp:rhcc-derivative-id>
         <xmp:rhcc-effective-on-set-on-upload>true</xmp:rhcc-effective-on-set-on-upload>
         <xmp:rhcc-uploaded-by>ryawilli@redhat.com</xmp:rhcc-uploaded-by>
         <xmp:brand-logo-color>Red</xmp:brand-logo-color>
         <xmp:rhcc-metadata-complete-uploader>pending</xmp:rhcc-metadata-complete-uploader>
         <xmp:rhcc-file-last-modified>2024-07-13T00:26:50.462Z</xmp:rhcc-file-last-modified>
         <xmp:rhcc-audience>rhcc-audience:internal</xmp:rhcc-audience>
         <xmp:rhcc-notify-portal-subscribers-on-change>yes</xmp:rhcc-notify-portal-subscribers-on-change>
         <xmp:rhcc-product>
            <rdf:Bag>
               <rdf:li>rhcc-product:red-hat-amq</rdf:li>
               <rdf:li>rhcc-product:red-hat-application-foundations</rdf:li>
            </rdf:Bag>
         </xmp:rhcc-product>
         <tiff:ImageLength>38</tiff:ImageLength>
         <tiff:ImageWidth>38</tiff:ImageWidth>
         <dc:format>image/svg+xml</dc:format>
         <dc:modified>2024-06-27T14:23:38.514Z</dc:modified>
         <dc:description>
            <rdf:Alt>
               <rdf:li xml:lang="x-default">application services</rdf:li>
            </rdf:Alt>
         </dc:description>
         <dc:title>
            <rdf:Alt>
               <rdf:li xml:lang="x-default">Red Hat build of Apicurio Registry icon</rdf:li>
            </rdf:Alt>
         </dc:title>
         <xmpRights:UsageTerms>
            <rdf:Alt>
               <rdf:li xml:lang="x-default">Use technology icons to represent Red Hat products and components. Do not remove the icon from the bounding shape.</rdf:li>
            </rdf:Alt>
         </xmpRights:UsageTerms>
      </rdf:Description>
   </rdf:RDF>
</x:xmpmeta>
                                                                                                    
                                                                                                    
                                                                                                    
                                                                                                    
                                                                                                    
                                                                                                    
                                                                                                    
                                                                                                    
                                                                                                    
                                        
<?xpacket end="w"?></metadata>
<defs><style>.uuid-2157827a-0817-4455-bee1-f945d5ef945c{fill:#e00;}</style></defs><path class="uuid-2157827a-0817-4455-bee1-f945d5ef945c" d="m28,1H10C5.02942,1,1,5.02942,1,10v18c0,4.97058,4.02942,9,9,9h18c4.97058,0,9-4.02942,9-9V10c0-4.97058-4.02942-9-9-9Zm7.75,27c0,4.27332-3.47668,7.75-7.75,7.75H10c-4.27332,0-7.75-3.47668-7.75-7.75V10c0-4.27332,3.47668-7.75,7.75-7.75h18c4.27332,0,7.75,3.47668,7.75,7.75v18Z"/><path class="uuid-2157827a-0817-4455-bee1-f945d5ef945c" d="m27,20.375h-6c-.34473,0-.625.28027-.625.625v6c0,.34473.28027.625.625.625h6c.34473,0,.625-.28027.625-.625v-6c0-.34473-.28027-.625-.625-.625Zm-.625,6h-4.75v-4.75h4.75v4.75Z"/><path class="uuid-2157827a-0817-4455-bee1-f945d5ef945c" d="m27,10.375h-6c-.34473,0-.625.28027-.625.625v6c0,.34473.28027.625.625.625h6c.34473,0,.625-.28027.625-.625v-6c0-.34473-.28027-.625-.625-.625Zm-.625,6h-4.75v-4.75h4.75v4.75Z"/><path class="uuid-2157827a-0817-4455-bee1-f945d5ef945c" d="m17,10.375h-6c-.34473,0-.625.28027-.625.625v6c0,.34473.28027.625.625.625h6c.34473,0,.625-.28027.625-.625v-6c0-.34473-.28027-.625-.625-.625Zm-.625,6h-4.75v-4.75h4.75v4.75Z"/><path class="uuid-2157827a-0817-4455-bee1-f945d5ef945c" d="m17.57654,20.7605c-.02002-.04785-.05383-.08667-.08447-.12769-.01807-.02441-.02759-.05298-.04968-.0752-.02759-.02759-.0625-.04065-.09351-.06201-.03564-.0249-.06763-.05493-.10828-.0719-.07776-.03235-.16028-.04907-.24304-.04871h-4.99756c-.34473,0-.625.28027-.625.625s.28027.625.625.625h3.49023l-4.93262,4.93262c-.24316.24414-.24316.64062,0,.88477.12207.12207.28223.18262.44238.18262s.32031-.06055.44238-.18262l4.93262-4.93262v3.49023c0,.34473.28027.625.625.625s.625-.28027.625-.625v-5c0-.00989-.00513-.01807-.00562-.02795-.0033-.07202-.01489-.1438-.04285-.21155Z"/></svg>