<svg xmlns="http://www.w3.org/2000/svg" viewBox="0 0 36 36"><title>Blank Space icon - White</title>
<desc>empty, fill, form, block, schedule, shapes and signage</desc>
<metadata><?xpacket begin="﻿" id="W5M0MpCehiHzreSzNTczkc9d"?>
<x:xmpmeta xmlns:x="adobe:ns:meta/" x:xmptk="Adobe XMP Core 8.0-c001 1.000000, 0000/00/00-00:00:00        ">
   <rdf:RDF xmlns:rdf="http://www.w3.org/1999/02/22-rdf-syntax-ns#">
      <rdf:Description rdf:about=""
            xmlns:xmp="http://ns.adobe.com/xap/1.0/"
            xmlns:dc="http://purl.org/dc/elements/1.1/"
            xmlns:cq="http://www.day.com/jcr/cq/1.0"
            xmlns:tiff="http://ns.adobe.com/tiff/1.0/">
         <xmp:rhcc-effective-on>2023-12-08T17:37:45.698Z</xmp:rhcc-effective-on>
         <xmp:rhcc-metadata-complete-moderator>pending</xmp:rhcc-metadata-complete-moderator>
         <xmp:rhcc-translation-id>TRAc23a544e-d2c1-49d9-848e-928f9b760b75</xmp:rhcc-translation-id>
         <xmp:brand-content-type>Icon</xmp:brand-content-type>
         <xmp:CreateDate>2023-12-08T17:37:45.698Z</xmp:CreateDate>
         <xmp:rhcc-effective-on-set-on-upload>true</xmp:rhcc-effective-on-set-on-upload>
         <xmp:rhcc-metadata-complete-uploader>pending</xmp:rhcc-metadata-complete-uploader>
         <xmp:rhcc-file-last-modified>2023-12-08T17:40:50.107Z</xmp:rhcc-file-last-modified>
         <xmp:rhcc-audience>rhcc-audience:internal</xmp:rhcc-audience>
         <xmp:rhcc-rights-restricted>no</xmp:rhcc-rights-restricted>
         <xmp:brand-content-subtype>Icon</xmp:brand-content-subtype>
         <xmp:rhcc-derivative-id>DERc23a544e-d2c1-49d9-848e-928f9b760b75</xmp:rhcc-derivative-id>
         <xmp:brand-logo-color>White</xmp:brand-logo-color>
         <xmp:rhcc-notify-portal-subscribers-on-change>yes</xmp:rhcc-notify-portal-subscribers-on-change>
         <dc:format>image/svg+xml</dc:format>
         <dc:modified>2024-02-09T20:27:28.617Z</dc:modified>
         <dc:title>
            <rdf:Alt>
               <rdf:li xml:lang="x-default">Blank Space icon - White</rdf:li>
            </rdf:Alt>
         </dc:title>
         <dc:description>
            <rdf:Alt>
               <rdf:li xml:lang="x-default">empty, fill, form, block, schedule, shapes and signage</rdf:li>
            </rdf:Alt>
         </dc:description>
         <cq:lastReplicationAction_scene7>Activate</cq:lastReplicationAction_scene7>
         <cq:lastReplicationAction_publish>Activate</cq:lastReplicationAction_publish>
         <cq:lastReplicated_publish>2024-02-09T22:14:00.052Z</cq:lastReplicated_publish>
         <cq:lastReplicatedBy>workflow-process-service</cq:lastReplicatedBy>
         <cq:lastReplicationAction>Activate</cq:lastReplicationAction>
         <cq:lastReplicatedBy_publish>workflow-process-service</cq:lastReplicatedBy_publish>
         <cq:isDelivered>true</cq:isDelivered>
         <cq:lastReplicated>2024-02-09T22:14:00.052Z</cq:lastReplicated>
         <cq:lastReplicatedBy_scene7>workflow-process-service</cq:lastReplicatedBy_scene7>
         <cq:lastReplicated_scene7>2024-02-09T22:14:00.052Z</cq:lastReplicated_scene7>
         <tiff:ImageLength>36</tiff:ImageLength>
         <tiff:ImageWidth>36</tiff:ImageWidth>
      </rdf:Description>
   </rdf:RDF>
</x:xmpmeta>
                                                                                                    
                                                                                                    
                                                                                                    
                                                                                                    
                                                                                                    
                                                                                                    
                                                                                                    
                                                                                                    
                                                                                                    
                                                                                                    
                                 
<?xpacket end="w"?></metadata>
<defs><style>.cls-1{fill:#fff;}</style></defs><g id="Layer_4" data-name="Layer 4"><path class="cls-1" d="M31.3,30.31a.75.75,0,0,0-.58,1.38A.75.75,0,0,0,31.3,30.31Z"/><path class="cls-1" d="M7.61,30.25a.75.75,0,0,0,0,1.5A.75.75,0,0,0,7.61,30.25Z"/><path class="cls-1" d="M20.61,30.25a.75.75,0,0,0,0,1.5A.75.75,0,0,0,20.61,30.25Z"/><path class="cls-1" d="M23.21,30.25a.75.75,0,0,0,0,1.5A.75.75,0,0,0,23.21,30.25Z"/><path class="cls-1" d="M12.81,30.25a.75.75,0,0,0,0,1.5A.75.75,0,0,0,12.81,30.25Z"/><path class="cls-1" d="M18,30.25a.75.75,0,0,0,0,1.5A.75.75,0,0,0,18,30.25Z"/><path class="cls-1" d="M15.41,30.25a.75.75,0,0,0,0,1.5A.75.75,0,0,0,15.41,30.25Z"/><path class="cls-1" d="M10.21,30.25a.75.75,0,0,0,0,1.5A.75.75,0,0,0,10.21,30.25Z"/><path class="cls-1" d="M28.41,30.25a.75.75,0,0,0,0,1.5A.75.75,0,0,0,28.41,30.25Z"/><path class="cls-1" d="M25.81,30.25a.75.75,0,0,0,0,1.5A.75.75,0,0,0,25.81,30.25Z"/><path class="cls-1" d="M5.54,30.47a.75.75,0,0,0-1.06,1.06A.75.75,0,0,0,5.54,30.47Z"/><path class="cls-1" d="M5,17.25a.75.75,0,0,0,0,1.5A.75.75,0,0,0,5,17.25Z"/><path class="cls-1" d="M5,19.85a.75.75,0,0,0,0,1.5A.75.75,0,0,0,5,19.85Z"/><path class="cls-1" d="M5,22.45A.75.75,0,0,0,5,24,.75.75,0,0,0,5,22.45Z"/><path class="cls-1" d="M5,25.05a.75.75,0,0,0,0,1.5A.75.75,0,0,0,5,25.05Z"/><path class="cls-1" d="M5,9.45A.75.75,0,0,0,5,11,.75.75,0,0,0,5,9.45Z"/><path class="cls-1" d="M5,27.65a.75.75,0,0,0,0,1.5A.75.75,0,0,0,5,27.65Z"/><path class="cls-1" d="M5,12.05a.75.75,0,0,0,0,1.5A.75.75,0,0,0,5,12.05Z"/><path class="cls-1" d="M5,6.85a.75.75,0,0,0,0,1.5A.75.75,0,0,0,5,6.85Z"/><path class="cls-1" d="M5,14.65a.75.75,0,0,0,0,1.5A.75.75,0,0,0,5,14.65Z"/><path class="cls-1" d="M4.48,4.47A.75.75,0,0,0,5.54,5.53.75.75,0,0,0,4.48,4.47Z"/><path class="cls-1" d="M10.21,4.25a.75.75,0,0,0,0,1.5A.75.75,0,0,0,10.21,4.25Z"/><path class="cls-1" d="M7.61,4.25a.75.75,0,0,0,0,1.5A.75.75,0,0,0,7.61,4.25Z"/><path class="cls-1" d="M25.81,4.25a.75.75,0,0,0,0,1.5A.75.75,0,0,0,25.81,4.25Z"/><path class="cls-1" d="M20.61,4.25a.75.75,0,0,0,0,1.5A.75.75,0,0,0,20.61,4.25Z"/><path class="cls-1" d="M23.21,4.25a.75.75,0,0,0,0,1.5A.75.75,0,0,0,23.21,4.25Z"/><path class="cls-1" d="M12.81,4.25a.75.75,0,0,0,0,1.5A.75.75,0,0,0,12.81,4.25Z"/><path class="cls-1" d="M28.41,4.25a.75.75,0,0,0,0,1.5A.75.75,0,0,0,28.41,4.25Z"/><path class="cls-1" d="M18,4.25a.75.75,0,0,0,0,1.5A.75.75,0,0,0,18,4.25Z"/><path class="cls-1" d="M15.41,4.25a.75.75,0,0,0,0,1.5A.75.75,0,0,0,15.41,4.25Z"/><path class="cls-1" d="M30.72,5.69a.75.75,0,0,0,.58-1.38A.75.75,0,0,0,30.72,5.69Z"/><path class="cls-1" d="M31,17.25a.75.75,0,0,0,0,1.5A.75.75,0,0,0,31,17.25Z"/><path class="cls-1" d="M31,19.85a.75.75,0,0,0,0,1.5A.75.75,0,0,0,31,19.85Z"/><path class="cls-1" d="M31,14.65a.75.75,0,0,0,0,1.5A.75.75,0,0,0,31,14.65Z"/><path class="cls-1" d="M31,12.05a.75.75,0,0,0,0,1.5A.75.75,0,0,0,31,12.05Z"/><path class="cls-1" d="M31,6.85a.75.75,0,0,0,0,1.5A.75.75,0,0,0,31,6.85Z"/><path class="cls-1" d="M31,22.45A.75.75,0,0,0,31,24,.75.75,0,0,0,31,22.45Z"/><path class="cls-1" d="M31,9.45A.75.75,0,0,0,31,11,.75.75,0,0,0,31,9.45Z"/><path class="cls-1" d="M31,27.65a.75.75,0,0,0,0,1.5A.75.75,0,0,0,31,27.65Z"/><path class="cls-1" d="M31,25.05a.75.75,0,0,0,0,1.5A.75.75,0,0,0,31,25.05Z"/></g></svg>