<?xml version="1.0" encoding="UTF-8"?><svg xmlns="http://www.w3.org/2000/svg" viewBox="0 0 38 38"><title>Red Hat Satellite icon</title>
<desc>Component, management</desc>
<metadata><?xpacket begin="﻿" id="W5M0MpCehiHzreSzNTczkc9d"?>
<x:xmpmeta xmlns:x="adobe:ns:meta/" x:xmptk="Adobe XMP Core 8.0-c001 1.000000, 0000/00/00-00:00:00        ">
   <rdf:RDF xmlns:rdf="http://www.w3.org/1999/02/22-rdf-syntax-ns#">
      <rdf:Description rdf:about=""
            xmlns:xmp="http://ns.adobe.com/xap/1.0/"
            xmlns:tiff="http://ns.adobe.com/tiff/1.0/"
            xmlns:dc="http://purl.org/dc/elements/1.1/"
            xmlns:xmpRights="http://ns.adobe.com/xap/1.0/rights/">
         <xmp:rhcc-notify-portal-subscribers-on-change>yes</xmp:rhcc-notify-portal-subscribers-on-change>
         <xmp:rhcc-aspect-ratio>square</xmp:rhcc-aspect-ratio>
         <xmp:rhcc-file-last-modified>2025-03-05T16:52:52.070Z</xmp:rhcc-file-last-modified>
         <xmp:brand-content-type>Icon</xmp:brand-content-type>
         <xmp:rhcc-audience>rhcc-audience:internal</xmp:rhcc-audience>
         <xmp:rhcc-rights-restricted>no</xmp:rhcc-rights-restricted>
         <xmp:brand-content-subtype>Technology</xmp:brand-content-subtype>
         <xmp:brand-logo-color>Standard</xmp:brand-logo-color>
         <xmp:brand-subtype>
            <rdf:Bag>
               <rdf:li>Technology icon</rdf:li>
            </rdf:Bag>
         </xmp:brand-subtype>
         <xmp:rhcc-topics>
            <rdf:Bag>
               <rdf:li>rhcc-topics:application-development-&amp;-delivery</rdf:li>
            </rdf:Bag>
         </xmp:rhcc-topics>
         <xmp:brand-colorway>
            <rdf:Bag>
               <rdf:li>colorway:standard</rdf:li>
            </rdf:Bag>
         </xmp:brand-colorway>
         <xmp:rhcc-product>
            <rdf:Bag>
               <rdf:li>rhcc-product:red-hat-satellite</rdf:li>
            </rdf:Bag>
         </xmp:rhcc-product>
         <tiff:ImageWidth>38</tiff:ImageWidth>
         <tiff:ImageLength>38</tiff:ImageLength>
         <dc:format>image/svg+xml</dc:format>
         <dc:modified>2025-03-05T17:00:55.668Z</dc:modified>
         <dc:description>
            <rdf:Alt>
               <rdf:li xml:lang="x-default">Component, management</rdf:li>
            </rdf:Alt>
         </dc:description>
         <dc:title>
            <rdf:Alt>
               <rdf:li xml:lang="x-default">Red Hat Satellite icon</rdf:li>
            </rdf:Alt>
         </dc:title>
         <xmpRights:UsageTerms>
            <rdf:Alt>
               <rdf:li xml:lang="x-default">Use technology icons to represent Red Hat products and components. Do not remove the icon from the bounding shape.</rdf:li>
            </rdf:Alt>
         </xmpRights:UsageTerms>
      </rdf:Description>
   </rdf:RDF>
</x:xmpmeta>
                                                                                                    
                                                                                                    
                                                                                                    
                                                                                                    
                                                                                                    
                                                                                                    
                                                                
<?xpacket end="w"?></metadata>
<defs><style>.cls-1,.cls-2,.cls-3,.cls-4{stroke-width:0px;}.cls-2{fill:#4d4d4d;}.cls-3{fill:#fff;}.cls-4{fill:#e00;}</style></defs><g id="Bounding_shape"><rect class="cls-1" x="1" y="1" width="36" height="36" rx="9" ry="9"/><path class="cls-2" d="M28,2.25c4.27,0,7.75,3.48,7.75,7.75v18c0,4.27-3.48,7.75-7.75,7.75H10c-4.27,0-7.75-3.48-7.75-7.75V10c0-4.27,3.48-7.75,7.75-7.75h18M28,1H10C5.03,1,1,5.03,1,10v18c0,4.97,4.03,9,9,9h18c4.97,0,9-4.03,9-9V10c0-4.97-4.03-9-9-9h0Z"/></g><g id="Icons"><path class="cls-4" d="M22.44,21.56l-1-1c-.24-.24-.64-.24-.88,0-.24.24-.24.64,0,.88l1,1c.12.12.28.18.44.18s.32-.06.44-.18c.24-.24.24-.64,0-.88Z"/><path class="cls-4" d="M16.44,15.56c-.24-.24-.64-.24-.88,0-.24.24-.24.64,0,.88l1,1c.12.12.28.18.44.18s.32-.06.44-.18c.24-.24.24-.64,0-.88l-1-1Z"/><path class="cls-3" d="M14,17.63c.16,0,.32-.06.44-.18l3-3c.24-.24.24-.64,0-.88l-4-4c-.24-.24-.64-.24-.88,0l-3,3c-.24.24-.24.64,0,.88l4,4c.12.12.28.18.44.18ZM13,10.88l3.12,3.12-2.12,2.12-3.12-3.12,2.12-2.12Z"/><path class="cls-3" d="M28.44,24.56l-4-4c-.24-.24-.64-.24-.88,0l-3,3c-.24.24-.24.64,0,.88l4,4c.12.12.28.18.44.18s.32-.06.44-.18l3-3c.24-.24.24-.64,0-.88ZM25,27.12l-3.12-3.12,2.12-2.12,3.12,3.12-2.12,2.12Z"/><path class="cls-3" d="M26.44,14.56l-3-3c-.24-.24-.64-.24-.88,0l-9,9c-.24.24-.24.64,0,.88l3,3c.12.12.28.18.44.18s.32-.06.44-.18l9-9c.24-.24.24-.64,0-.88ZM17,23.12l-2.12-2.12,8.12-8.12,2.12,2.12-8.12,8.12Z"/><path class="cls-4" d="M28.44,12.56l-3-3c-.24-.24-.64-.24-.88,0-.24.24-.24.64,0,.88l3,3c.12.12.28.18.44.18s.32-.06.44-.18c.24-.24.24-.64,0-.88Z"/><path class="cls-4" d="M15.56,22.44c-1.37-1.37-3.76-1.37-5.13,0-.24.24-.24.64,0,.88l1.68,1.68-1.56,1.56c-.24.24-.24.64,0,.88.12.12.28.18.44.18s.32-.06.44-.18l1.56-1.56,1.68,1.68c.12.12.28.18.44.18s.32-.06.44-.18c.69-.68,1.06-1.59,1.06-2.56s-.38-1.88-1.06-2.56ZM15.06,26.18l-1.62-1.62s0,0,0,0c0,0,0,0,0,0l-1.62-1.62c.89-.51,2.11-.36,2.86.38.45.45.7,1.04.7,1.68,0,.42-.11.82-.31,1.18Z"/></g></svg>