<?xml version="1.0" encoding="UTF-8"?><svg id="Icons" xmlns="http://www.w3.org/2000/svg" viewBox="0 0 38 38"><title>Red Hat Satellite icon</title>
<desc>Component, management</desc>
<metadata><?xpacket begin="﻿" id="W5M0MpCehiHzreSzNTczkc9d"?>
<x:xmpmeta xmlns:x="adobe:ns:meta/" x:xmptk="Adobe XMP Core 8.0-c001 1.000000, 0000/00/00-00:00:00        ">
   <rdf:RDF xmlns:rdf="http://www.w3.org/1999/02/22-rdf-syntax-ns#">
      <rdf:Description rdf:about=""
            xmlns:xmp="http://ns.adobe.com/xap/1.0/"
            xmlns:tiff="http://ns.adobe.com/tiff/1.0/"
            xmlns:dc="http://purl.org/dc/elements/1.1/"
            xmlns:xmpRights="http://ns.adobe.com/xap/1.0/rights/">
         <xmp:rhcc-notify-portal-subscribers-on-change>yes</xmp:rhcc-notify-portal-subscribers-on-change>
         <xmp:rhcc-aspect-ratio>square</xmp:rhcc-aspect-ratio>
         <xmp:rhcc-file-last-modified>2025-03-05T16:52:31.372Z</xmp:rhcc-file-last-modified>
         <xmp:brand-content-type>Icon</xmp:brand-content-type>
         <xmp:rhcc-audience>rhcc-audience:internal</xmp:rhcc-audience>
         <xmp:rhcc-rights-restricted>no</xmp:rhcc-rights-restricted>
         <xmp:brand-content-subtype>Technology</xmp:brand-content-subtype>
         <xmp:brand-logo-color>White</xmp:brand-logo-color>
         <xmp:brand-subtype>
            <rdf:Bag>
               <rdf:li>Technology icon</rdf:li>
            </rdf:Bag>
         </xmp:brand-subtype>
         <xmp:rhcc-topics>
            <rdf:Bag>
               <rdf:li>rhcc-topics:application-development-&amp;-delivery</rdf:li>
            </rdf:Bag>
         </xmp:rhcc-topics>
         <xmp:brand-colorway>
            <rdf:Bag>
               <rdf:li>colorway:white</rdf:li>
            </rdf:Bag>
         </xmp:brand-colorway>
         <xmp:rhcc-product>
            <rdf:Bag>
               <rdf:li>rhcc-product:red-hat-satellite</rdf:li>
            </rdf:Bag>
         </xmp:rhcc-product>
         <tiff:ImageWidth>38</tiff:ImageWidth>
         <tiff:ImageLength>38</tiff:ImageLength>
         <dc:format>image/svg+xml</dc:format>
         <dc:modified>2025-03-05T16:59:38.060Z</dc:modified>
         <dc:description>
            <rdf:Alt>
               <rdf:li xml:lang="x-default">Component, management</rdf:li>
            </rdf:Alt>
         </dc:description>
         <dc:title>
            <rdf:Alt>
               <rdf:li xml:lang="x-default">Red Hat Satellite icon</rdf:li>
            </rdf:Alt>
         </dc:title>
         <xmpRights:UsageTerms>
            <rdf:Alt>
               <rdf:li xml:lang="x-default">Use technology icons to represent Red Hat products and components. Do not remove the icon from the bounding shape.</rdf:li>
            </rdf:Alt>
         </xmpRights:UsageTerms>
      </rdf:Description>
   </rdf:RDF>
</x:xmpmeta>
                                                                                                    
                                                                                                    
                                                                                                    
                                                                                                    
                                                                                                    
                                                                                                    
                                                                   
<?xpacket end="w"?></metadata>
<defs><style>.cls-1{fill:#fff;stroke-width:0px;}</style></defs><path class="cls-1" d="M11.82,22.94l1.62,1.62s0,0,0,0c0,0,0,0,0,0l1.62,1.62c.2-.35.31-.76.31-1.18,0-.63-.25-1.23-.7-1.68-.75-.75-1.97-.9-2.86-.38Z"/><rect class="cls-1" x="23" y="22.3" width="2.99" height="4.41" transform="translate(-10.15 24.5) rotate(-45)"/><rect class="cls-1" x="12" y="11.3" width="2.99" height="4.41" transform="translate(-5.59 13.5) rotate(-45)"/><rect class="cls-1" x="14.26" y="16.5" width="11.48" height="2.99" transform="translate(-6.87 19.41) rotate(-45)"/><path class="cls-1" d="M28,1H10C5.03,1,1,5.03,1,10v18c0,1.55.39,3.01,1.09,4.29.14.26.29.5.45.74.32.48.69.92,1.1,1.33,1.63,1.63,3.88,2.64,6.36,2.64h18c2.49,0,4.74-1.01,6.36-2.64.41-.41.78-.85,1.1-1.33.16-.24.31-.49.45-.74.69-1.28,1.09-2.74,1.09-4.29V10c0-4.97-4.03-9-9-9ZM28.44,25.44l-3,3c-.12.12-.28.18-.44.18s-.32-.06-.44-.18l-4-4c-.24-.24-.24-.64,0-.88l1.07-1.07s-.05-.03-.07-.05l-1-1s-.03-.05-.05-.07l-3.07,3.07c-.12.12-.28.18-.44.18s-.31-.06-.43-.17c.03.18.05.36.05.55,0,.97-.38,1.88-1.06,2.56-.12.12-.28.18-.44.18s-.32-.06-.44-.18l-1.68-1.68-1.56,1.56c-.12.12-.28.18-.44.18s-.32-.06-.44-.18c-.24-.24-.24-.64,0-.88l1.56-1.56-1.68-1.68c-.24-.24-.24-.64,0-.88.83-.83,2.02-1.14,3.14-.97l-.02-.02c-.24-.24-.24-.64,0-.88l3.07-3.07s-.05-.03-.07-.05l-1-1s-.03-.05-.05-.07l-1.07,1.07c-.12.12-.28.18-.44.18s-.32-.06-.44-.18l-4-4c-.24-.24-.24-.64,0-.88l3-3c.24-.24.64-.24.88,0l4,4c.24.24.24.64,0,.88l-1.07,1.07s.05.03.07.05l1,1s.03.05.05.07l5.07-5.07c.24-.24.64-.24.88,0l3,3c.24.24.24.64,0,.88l-5.07,5.07s.05.03.07.05l1,1s.03.05.05.07l1.07-1.07c.24-.24.64-.24.88,0l4,4c.24.24.24.64,0,.88ZM28.44,13.44c-.12.12-.28.18-.44.18s-.32-.06-.44-.18l-3-3c-.24-.24-.24-.64,0-.88.24-.24.64-.24.88,0l3,3c.24.24.24.64,0,.88Z"/></svg>