<?xml version="1.0" encoding="UTF-8"?>
<svg id="data-sovereignty" xmlns="http://www.w3.org/2000/svg" width="36" height="36" version="1.1" viewBox="0 0 36 36">
  <!-- Generator: Adobe Illustrator 30.2.1, SVG Export Plug-In . SVG Version: 2.1.1 Build 1)  -->
  <defs>
    <style>
      .st0 {
        fill: none;
      }

      .st1 {
        fill: #fff;
      }
    </style>
  </defs>
  <path id="icon" class="st1" d="M31,4.375H5c-.34521,0-.625.27979-.625.625v26c0,.34473.27979.625.625.625h26c.34521,0,.625-.28027.625-.625V5c0-.34521-.27979-.625-.625-.625ZM30.375,30.375H5.625V5.625h24.75v24.75ZM20.375,23c0,1.99902,1.62598,3.625,3.625,3.625s3.625-1.62598,3.625-3.625-1.62598-3.625-3.625-3.625-3.625,1.62598-3.625,3.625ZM24,20.625c1.30957,0,2.375,1.06543,2.375,2.375s-1.06543,2.375-2.375,2.375-2.375-1.06543-2.375-2.375,1.06543-2.375,2.375-2.375ZM18,16.625c1.99902,0,3.625-1.62598,3.625-3.625s-1.62598-3.625-3.625-3.625-3.625,1.62598-3.625,3.625,1.62598,3.625,3.625,3.625ZM18,10.625c1.30957,0,2.375,1.06543,2.375,2.375s-1.06543,2.375-2.375,2.375-2.375-1.06543-2.375-2.375,1.06543-2.375,2.375-2.375ZM9.375,26v-6c0-.34473.27979-.625.625-.625s.625.28027.625.625v6c0,.34473-.27979.625-.625.625s-.625-.28027-.625-.625ZM9.375,16v-6c0-.34473.27979-.625.625-.625s.625.28027.625.625v6c0,.34473-.27979.625-.625.625s-.625-.28027-.625-.625ZM25.375,16v-6c0-.34473.27979-.625.625-.625s.625.28027.625.625v6c0,.34473-.27979.625-.625.625s-.625-.28027-.625-.625ZM16.625,20v6c0,.34473-.27979.625-.625.625s-.625-.28027-.625-.625v-6c0-.34473.27979-.625.625-.625s.625.28027.625.625Z"/>
  <rect id="transparent_rectangle" class="st0" width="36" height="36"/>
</svg>