<?xml version="1.0" encoding="UTF-8"?><svg id="uuid-d6ce64e2-6267-427f-9eab-e063a173dd4b" xmlns="http://www.w3.org/2000/svg" width="36" height="36" viewBox="0 0 36 36"><title>Craft paper icon</title>
<desc>craft, paper, art, cut lines, recycle, waste, GWS, signage</desc>
<metadata><?xpacket begin="﻿" id="W5M0MpCehiHzreSzNTczkc9d"?>
<x:xmpmeta xmlns:x="adobe:ns:meta/" x:xmptk="Adobe XMP Core 8.0-c001 1.000000, 0000/00/00-00:00:00        ">
   <rdf:RDF xmlns:rdf="http://www.w3.org/1999/02/22-rdf-syntax-ns#">
      <rdf:Description rdf:about=""
            xmlns:dc="http://purl.org/dc/elements/1.1/"
            xmlns:tiff="http://ns.adobe.com/tiff/1.0/"
            xmlns:xmp="http://ns.adobe.com/xap/1.0/">
         <dc:modified>2025-09-09T20:32:38.776Z</dc:modified>
         <dc:format>image/svg+xml</dc:format>
         <dc:description>
            <rdf:Alt>
               <rdf:li xml:lang="x-default">craft, paper, art, cut lines, recycle, waste, GWS, signage</rdf:li>
            </rdf:Alt>
         </dc:description>
         <dc:title>
            <rdf:Alt>
               <rdf:li xml:lang="x-default">Craft paper icon</rdf:li>
            </rdf:Alt>
         </dc:title>
         <tiff:ImageLength>36</tiff:ImageLength>
         <tiff:ImageWidth>36</tiff:ImageWidth>
         <xmp:rhcc-rights-restricted>no</xmp:rhcc-rights-restricted>
         <xmp:brand-content-subtype>Icon</xmp:brand-content-subtype>
         <xmp:rhcc-file-last-modified>2025-09-09T20:29:56.790Z</xmp:rhcc-file-last-modified>
         <xmp:brand-content-type>Icon</xmp:brand-content-type>
         <xmp:brand-colorway>
            <rdf:Bag>
               <rdf:li>colorway:red</rdf:li>
            </rdf:Bag>
         </xmp:brand-colorway>
      </rdf:Description>
   </rdf:RDF>
</x:xmpmeta>
                                                                                                    
                                                                                                    
                                                                                                    
                                                                                                    
                                                                                                    
                                                                                                    
                                                                                                    
                                                                                                    
                                                                                                    
                                                                                                    
                                                                                                    
                                                                                                    
                                                                                                    
                                                                                                    
                                                                                                    
                                                                                                    
                                                                                                    
                                                                                                    
                                                                              
<?xpacket end="w"?></metadata>
<defs><style>.uuid-9b5c27f0-a392-4c56-9b3a-131246a89e33{fill:#e00;}</style></defs><path class="uuid-9b5c27f0-a392-4c56-9b3a-131246a89e33" d="M28.625,28V8c0-.34473-.27979-.625-.625-.625s-.625.28027-.625.625v19.375H8c-.34521,0-.625.28027-.625.625s.27979.625.625.625h20c.34521,0,.625-.28027.625-.625Z"/><path class="uuid-9b5c27f0-a392-4c56-9b3a-131246a89e33" d="M31,10.375c-.34521,0-.625.28027-.625.625v19.375H11c-.34521,0-.625.28027-.625.625s.27979.625.625.625h20c.34521,0,.625-.28027.625-.625V11c0-.34473-.27979-.625-.625-.625Z"/><path class="uuid-9b5c27f0-a392-4c56-9b3a-131246a89e33" d="M15,25.62988c.02422.00509,9.97326-.01393,10.00004-.00485.34517-.00003.62496-.28031.62496-.62503-.01044-.05456.00758-9.97853-.00002-10.02322.00002-.00009.00002-9.97678.00002-9.97678,0-.34521-.27979-.625-.625-.625h-15c-.1649-.00045-.32683.06786-.4422.18341l-4.99969,4.99921c-.10066.12778-.19101.27027-.18309.44239-.00001,0-.00001,4.97436-.00001,4.97436-.01468.03829.01058,9.97792-.00003,10.02571.00003.34465.27982.62492.62503.62492.023.00487,9.98069-.00934,10,.00488ZM9.375,6.50879v2.86621h-2.86621l2.86621-2.86621ZM5.625,10.625h4.375c.34521,0,.625-.28027.625-.625v-4.375c2.8308.00004,10.8091,0,13.75,0v18.75H5.625v-13.75Z"/><path class="uuid-9b5c27f0-a392-4c56-9b3a-131246a89e33" d="M15,11.87988c-.82212.00895-.82205,1.23141.00004,1.24023.82391-.00506.82385-1.23528-.00004-1.24023Z"/><path class="uuid-9b5c27f0-a392-4c56-9b3a-131246a89e33" d="M15,16.87988c-.82721.0083-.81732,1.24405.00004,1.25.81922-.00219.8289-1.2457-.00004-1.25Z"/><path class="uuid-9b5c27f0-a392-4c56-9b3a-131246a89e33" d="M15,14.37988c-.82721.0083-.81732,1.24405.00004,1.25.81922-.00219.8289-1.2457-.00004-1.25Z"/><path class="uuid-9b5c27f0-a392-4c56-9b3a-131246a89e33" d="M15,21.87988c-.82721.0083-.81732,1.24405.00004,1.25.81922-.00219.8289-1.2457-.00004-1.25Z"/><path class="uuid-9b5c27f0-a392-4c56-9b3a-131246a89e33" d="M15,19.37012c-.82245.00473-.82254,1.2545.00004,1.25976.8244-.00149.82418-1.25903-.00004-1.25976Z"/><path class="uuid-9b5c27f0-a392-4c56-9b3a-131246a89e33" d="M15,6.87988c-.82689.00043-.8187,1.24471.00004,1.25.82063-.00155.82853-1.25354-.00004-1.25Z"/><path class="uuid-9b5c27f0-a392-4c56-9b3a-131246a89e33" d="M15,9.37988c-.82721.0083-.81732,1.24405.00004,1.25.81922-.00219.8289-1.2457-.00004-1.25Z"/><path class="uuid-9b5c27f0-a392-4c56-9b3a-131246a89e33" d="M12.5,14.37988c-.82721.0083-.81732,1.24405.00004,1.25.81922-.00219.8289-1.2457-.00004-1.25Z"/><path class="uuid-9b5c27f0-a392-4c56-9b3a-131246a89e33" d="M7.5,14.37988c-.81515.0059-.80537,1.2465.00004,1.25.81923-.00219.8289-1.2457-.00004-1.25Z"/><path class="uuid-9b5c27f0-a392-4c56-9b3a-131246a89e33" d="M10,14.37988c-.82969.00432-.81991,1.248.00004,1.25.81923-.00219.8289-1.2457-.00004-1.25Z"/><path class="uuid-9b5c27f0-a392-4c56-9b3a-131246a89e33" d="M22.5,14.37988c-.81516.0059-.80536,1.2465.00004,1.25.80468-.0037.81436-1.24413-.00004-1.25Z"/><path class="uuid-9b5c27f0-a392-4c56-9b3a-131246a89e33" d="M20,14.37988c-.82969.00432-.81991,1.248.00004,1.25.81923-.00219.8289-1.2457-.00004-1.25Z"/><path class="uuid-9b5c27f0-a392-4c56-9b3a-131246a89e33" d="M17.5,14.37988c-.81515.0059-.80537,1.2465.00004,1.25.81923-.00219.8289-1.2457-.00004-1.25Z"/></svg>