<svg id="acaf8b2b-93dd-4786-968e-f62fb0a303a8" data-name="Icon" xmlns="http://www.w3.org/2000/svg" viewBox="0 0 36 36">
  <title>Virtual server stack icon - Red</title>
<desc>host, datacenter, computer, rack, infrastructure, client, virtualization, hardware</desc>
<metadata><?xpacket begin="﻿" id="W5M0MpCehiHzreSzNTczkc9d"?>
<x:xmpmeta xmlns:x="adobe:ns:meta/" x:xmptk="Adobe XMP Core 8.0-c001 1.000000, 0000/00/00-00:00:00        ">
   <rdf:RDF xmlns:rdf="http://www.w3.org/1999/02/22-rdf-syntax-ns#">
      <rdf:Description rdf:about=""
            xmlns:xmp="http://ns.adobe.com/xap/1.0/"
            xmlns:dc="http://purl.org/dc/elements/1.1/"
            xmlns:cq="http://www.day.com/jcr/cq/1.0"
            xmlns:tiff="http://ns.adobe.com/tiff/1.0/">
         <xmp:rhcc-effective-on>2023-12-08T17:34:37.599Z</xmp:rhcc-effective-on>
         <xmp:rhcc-metadata-complete-moderator>pending</xmp:rhcc-metadata-complete-moderator>
         <xmp:rhcc-translation-id>TRA76377243-ccdd-427c-a40d-3e1048ba54a6</xmp:rhcc-translation-id>
         <xmp:brand-content-type>Icon</xmp:brand-content-type>
         <xmp:CreateDate>2023-12-08T17:34:37.599Z</xmp:CreateDate>
         <xmp:rhcc-aspect-ratio>square</xmp:rhcc-aspect-ratio>
         <xmp:rhcc-effective-on-set-on-upload>true</xmp:rhcc-effective-on-set-on-upload>
         <xmp:rhcc-metadata-complete-uploader>pending</xmp:rhcc-metadata-complete-uploader>
         <xmp:rhcc-file-last-modified>2024-07-12T19:16:49.386Z</xmp:rhcc-file-last-modified>
         <xmp:rhcc-audience>rhcc-audience:internal</xmp:rhcc-audience>
         <xmp:brand-content-subtype>Icon</xmp:brand-content-subtype>
         <xmp:rhcc-rights-restricted>no</xmp:rhcc-rights-restricted>
         <xmp:rhcc-derivative-id>DER76377243-ccdd-427c-a40d-3e1048ba54a6</xmp:rhcc-derivative-id>
         <xmp:rhcc-uploaded-by>pmeilleu@redhat.com</xmp:rhcc-uploaded-by>
         <xmp:brand-logo-color>Red</xmp:brand-logo-color>
         <xmp:rhcc-notify-portal-subscribers-on-change>yes</xmp:rhcc-notify-portal-subscribers-on-change>
         <dc:format>image/svg+xml</dc:format>
         <dc:modified>2024-02-09T20:13:48.833Z</dc:modified>
         <dc:title>
            <rdf:Alt>
               <rdf:li xml:lang="x-default">Virtual server stack icon - Red</rdf:li>
            </rdf:Alt>
         </dc:title>
         <dc:description>
            <rdf:Alt>
               <rdf:li xml:lang="x-default">host, datacenter, computer, rack, infrastructure, client, virtualization, hardware</rdf:li>
            </rdf:Alt>
         </dc:description>
         <cq:lastReplicationAction_scene7>Activate</cq:lastReplicationAction_scene7>
         <cq:lastReplicationAction_publish>Activate</cq:lastReplicationAction_publish>
         <cq:lastReplicated_publish>2024-10-02T19:47:23.119Z</cq:lastReplicated_publish>
         <cq:lastReplicatedBy>workflow-process-service</cq:lastReplicatedBy>
         <cq:lastReplicationAction>Activate</cq:lastReplicationAction>
         <cq:lastReplicatedBy_publish>workflow-process-service</cq:lastReplicatedBy_publish>
         <cq:isDelivered>false</cq:isDelivered>
         <cq:lastReplicated>2024-10-02T19:47:23.119Z</cq:lastReplicated>
         <cq:lastReplicatedBy_scene7>workflow-process-service</cq:lastReplicatedBy_scene7>
         <cq:lastReplicated_scene7>2024-10-02T19:47:23.119Z</cq:lastReplicated_scene7>
         <tiff:ImageLength>36</tiff:ImageLength>
         <tiff:ImageWidth>36</tiff:ImageWidth>
      </rdf:Description>
   </rdf:RDF>
</x:xmpmeta>
                                                                                                    
                                                                                                    
                                                                                                    
                                                                                                    
                                                                                                    
                                                                                                    
                                                                                                    
                                                                                                    
                                                                                                 
<?xpacket end="w"?></metadata>
<defs>
    <style>
      .bc49bfd0-5a9b-42f6-a014-8dc55e2d099a {
        fill: #e00;
      }
    </style>
  </defs>
  <g>
    <path class="bc49bfd0-5a9b-42f6-a014-8dc55e2d099a" d="M27,25.37a.62.62,0,0,0-.62.63.63.63,0,0,0,.62.63.64.64,0,0,0,.63-.63A.63.63,0,0,0,27,25.37Z"/>
    <path class="bc49bfd0-5a9b-42f6-a014-8dc55e2d099a" d="M27,17.37a.62.62,0,0,0-.62.63.63.63,0,0,0,.62.63.64.64,0,0,0,.63-.63A.63.63,0,0,0,27,17.37Z"/>
    <path class="bc49bfd0-5a9b-42f6-a014-8dc55e2d099a" d="M27,9.37a.62.62,0,0,0-.62.63.63.63,0,0,0,.62.63.64.64,0,0,0,.63-.63A.63.63,0,0,0,27,9.37Z"/>
    <path class="bc49bfd0-5a9b-42f6-a014-8dc55e2d099a" d="M2.5,3.13a.63.63,0,1,0-.63-.62A.62.62,0,0,0,2.5,3.13Z"/>
    <path class="bc49bfd0-5a9b-42f6-a014-8dc55e2d099a" d="M2.49,32.88a.62.62,0,1,0,0,1.24.62.62,0,1,0,0-1.24Z"/>
    <path class="bc49bfd0-5a9b-42f6-a014-8dc55e2d099a" d="M33.5,32.87a.63.63,0,0,0,0,1.26.63.63,0,0,0,0-1.26Z"/>
    <path class="bc49bfd0-5a9b-42f6-a014-8dc55e2d099a" d="M33.49,3.12a.63.63,0,0,0,.63-.62.63.63,0,0,0-.63-.62.62.62,0,0,0-.62.62A.61.61,0,0,0,33.49,3.12Z"/>
    <path class="bc49bfd0-5a9b-42f6-a014-8dc55e2d099a" d="M31,4.38H5A.61.61,0,0,0,4.38,5V31a.61.61,0,0,0,.62.62H31a.61.61,0,0,0,.62-.62V5A.61.61,0,0,0,31,4.38Zm-.62,26H5.62V5.62H30.38Z"/>
    <path class="bc49bfd0-5a9b-42f6-a014-8dc55e2d099a" d="M9,10.62h6a.62.62,0,0,0,0-1.24H9a.62.62,0,0,0,0,1.24Z"/>
    <path class="bc49bfd0-5a9b-42f6-a014-8dc55e2d099a" d="M9,26.62h6a.62.62,0,0,0,0-1.24H9a.62.62,0,1,0,0,1.24Z"/>
    <path class="bc49bfd0-5a9b-42f6-a014-8dc55e2d099a" d="M9,18.62h6a.62.62,0,0,0,0-1.24H9a.62.62,0,0,0,0,1.24Z"/>
    <path class="bc49bfd0-5a9b-42f6-a014-8dc55e2d099a" d="M21.1,32.88a.62.62,0,1,0,0,1.24.62.62,0,1,0,0-1.24Z"/>
    <path class="bc49bfd0-5a9b-42f6-a014-8dc55e2d099a" d="M24.2,32.88a.62.62,0,1,0,.62.62A.61.61,0,0,0,24.2,32.88Z"/>
    <path class="bc49bfd0-5a9b-42f6-a014-8dc55e2d099a" d="M27.3,32.88a.62.62,0,1,0,0,1.24.62.62,0,0,0,0-1.24Z"/>
    <path class="bc49bfd0-5a9b-42f6-a014-8dc55e2d099a" d="M30.4,32.88a.62.62,0,0,0,0,1.24.62.62,0,1,0,0-1.24Z"/>
    <path class="bc49bfd0-5a9b-42f6-a014-8dc55e2d099a" d="M8.7,32.88a.62.62,0,1,0,.62.62A.61.61,0,0,0,8.7,32.88Z"/>
    <path class="bc49bfd0-5a9b-42f6-a014-8dc55e2d099a" d="M14.9,32.88a.62.62,0,1,0,0,1.24.62.62,0,1,0,0-1.24Z"/>
    <path class="bc49bfd0-5a9b-42f6-a014-8dc55e2d099a" d="M11.8,32.88a.62.62,0,1,0,0,1.24.62.62,0,1,0,0-1.24Z"/>
    <path class="bc49bfd0-5a9b-42f6-a014-8dc55e2d099a" d="M5.6,32.88a.62.62,0,0,0,0,1.24.62.62,0,1,0,0-1.24Z"/>
    <path class="bc49bfd0-5a9b-42f6-a014-8dc55e2d099a" d="M18,32.88a.62.62,0,1,0,0,1.24.62.62,0,0,0,0-1.24Z"/>
    <path class="bc49bfd0-5a9b-42f6-a014-8dc55e2d099a" d="M2.5,31a.63.63,0,0,0,.62-.63.63.63,0,0,0-1.25,0A.63.63,0,0,0,2.5,31Z"/>
    <path class="bc49bfd0-5a9b-42f6-a014-8dc55e2d099a" d="M2.5,21.72a.63.63,0,1,0-.63-.62A.62.62,0,0,0,2.5,21.72Z"/>
    <path class="bc49bfd0-5a9b-42f6-a014-8dc55e2d099a" d="M2.5,12.42a.63.63,0,1,0-.63-.62A.62.62,0,0,0,2.5,12.42Z"/>
    <path class="bc49bfd0-5a9b-42f6-a014-8dc55e2d099a" d="M2.5,15.52a.63.63,0,1,0-.63-.62A.62.62,0,0,0,2.5,15.52Z"/>
    <path class="bc49bfd0-5a9b-42f6-a014-8dc55e2d099a" d="M2.5,6.22a.63.63,0,1,0-.63-.62A.62.62,0,0,0,2.5,6.22Z"/>
    <path class="bc49bfd0-5a9b-42f6-a014-8dc55e2d099a" d="M2.5,24.82a.63.63,0,1,0-.63-.62A.62.62,0,0,0,2.5,24.82Z"/>
    <path class="bc49bfd0-5a9b-42f6-a014-8dc55e2d099a" d="M2.5,18.62A.63.63,0,1,0,1.87,18,.62.62,0,0,0,2.5,18.62Z"/>
    <path class="bc49bfd0-5a9b-42f6-a014-8dc55e2d099a" d="M2.5,27.92a.63.63,0,1,0-.63-.62A.62.62,0,0,0,2.5,27.92Z"/>
    <path class="bc49bfd0-5a9b-42f6-a014-8dc55e2d099a" d="M2.5,9.32a.63.63,0,1,0-.63-.62A.62.62,0,0,0,2.5,9.32Z"/>
    <path class="bc49bfd0-5a9b-42f6-a014-8dc55e2d099a" d="M11.8,3.12a.62.62,0,0,0,.62-.62.62.62,0,0,0-.62-.62.63.63,0,0,0-.63.62A.63.63,0,0,0,11.8,3.12Z"/>
    <path class="bc49bfd0-5a9b-42f6-a014-8dc55e2d099a" d="M14.9,3.12a.63.63,0,0,0,.63-.62.63.63,0,0,0-.63-.62.62.62,0,0,0-.62.62A.61.61,0,0,0,14.9,3.12Z"/>
    <path class="bc49bfd0-5a9b-42f6-a014-8dc55e2d099a" d="M18,3.12a.61.61,0,0,0,.62-.62A.62.62,0,0,0,18,1.88a.62.62,0,0,0-.62.62A.62.62,0,0,0,18,3.12Z"/>
    <path class="bc49bfd0-5a9b-42f6-a014-8dc55e2d099a" d="M5.6,3.12a.63.63,0,0,0,.63-.62.63.63,0,0,0-.63-.62A.62.62,0,0,0,5,2.5.62.62,0,0,0,5.6,3.12Z"/>
    <path class="bc49bfd0-5a9b-42f6-a014-8dc55e2d099a" d="M8.7,3.12a.61.61,0,0,0,.62-.62.62.62,0,1,0-1.24,0A.61.61,0,0,0,8.7,3.12Z"/>
    <path class="bc49bfd0-5a9b-42f6-a014-8dc55e2d099a" d="M21.1,3.12a.63.63,0,0,0,.63-.62.63.63,0,0,0-.63-.62.62.62,0,0,0-.62.62A.61.61,0,0,0,21.1,3.12Z"/>
    <path class="bc49bfd0-5a9b-42f6-a014-8dc55e2d099a" d="M27.3,3.12a.62.62,0,0,0,.62-.62.62.62,0,0,0-.62-.62.63.63,0,0,0-.63.62A.63.63,0,0,0,27.3,3.12Z"/>
    <path class="bc49bfd0-5a9b-42f6-a014-8dc55e2d099a" d="M30.4,3.12A.63.63,0,0,0,31,2.5a.63.63,0,0,0-.63-.62.62.62,0,0,0-.62.62A.61.61,0,0,0,30.4,3.12Z"/>
    <path class="bc49bfd0-5a9b-42f6-a014-8dc55e2d099a" d="M24.2,3.12a.61.61,0,0,0,.62-.62.62.62,0,0,0-1.24,0A.61.61,0,0,0,24.2,3.12Z"/>
    <path class="bc49bfd0-5a9b-42f6-a014-8dc55e2d099a" d="M33.5,26.67a.63.63,0,0,0,0,1.26.63.63,0,0,0,0-1.26Z"/>
    <path class="bc49bfd0-5a9b-42f6-a014-8dc55e2d099a" d="M33.5,5a.63.63,0,0,0,0,1.26A.63.63,0,0,0,33.5,5Z"/>
    <path class="bc49bfd0-5a9b-42f6-a014-8dc55e2d099a" d="M33.5,29.77a.63.63,0,0,0,0,1.26.63.63,0,0,0,0-1.26Z"/>
    <path class="bc49bfd0-5a9b-42f6-a014-8dc55e2d099a" d="M33.5,23.57a.62.62,0,0,0-.62.63.63.63,0,0,0,.62.63.64.64,0,0,0,.63-.63A.63.63,0,0,0,33.5,23.57Z"/>
    <path class="bc49bfd0-5a9b-42f6-a014-8dc55e2d099a" d="M33.5,11.17a.62.62,0,0,0-.62.63.63.63,0,0,0,.62.63.64.64,0,0,0,.63-.63A.63.63,0,0,0,33.5,11.17Z"/>
    <path class="bc49bfd0-5a9b-42f6-a014-8dc55e2d099a" d="M33.5,20.47a.62.62,0,0,0-.62.63.63.63,0,0,0,.62.63.64.64,0,0,0,.63-.63A.63.63,0,0,0,33.5,20.47Z"/>
    <path class="bc49bfd0-5a9b-42f6-a014-8dc55e2d099a" d="M33.5,8.07a.62.62,0,0,0-.62.63.63.63,0,0,0,.62.63.64.64,0,0,0,.63-.63A.63.63,0,0,0,33.5,8.07Z"/>
    <path class="bc49bfd0-5a9b-42f6-a014-8dc55e2d099a" d="M33.5,14.27a.63.63,0,0,0,0,1.26.63.63,0,1,0,0-1.26Z"/>
    <path class="bc49bfd0-5a9b-42f6-a014-8dc55e2d099a" d="M33.5,17.37a.63.63,0,0,0,0,1.26.63.63,0,0,0,0-1.26Z"/>
  </g>
</svg>
