<?xml version="1.0" encoding="UTF-8"?><svg id="Ryan_tweaks" xmlns="http://www.w3.org/2000/svg" viewBox="0 0 36 36"><title>Baby bottle icon - White</title>
<desc>baby, bottle, nursing,</desc>
<metadata><?xpacket begin="﻿" id="W5M0MpCehiHzreSzNTczkc9d"?>
<x:xmpmeta xmlns:x="adobe:ns:meta/" x:xmptk="Adobe XMP Core 8.0-c001 1.000000, 0000/00/00-00:00:00        ">
   <rdf:RDF xmlns:rdf="http://www.w3.org/1999/02/22-rdf-syntax-ns#">
      <rdf:Description rdf:about=""
            xmlns:dc="http://purl.org/dc/elements/1.1/"
            xmlns:xmp="http://ns.adobe.com/xap/1.0/"
            xmlns:tiff="http://ns.adobe.com/tiff/1.0/"
            xmlns:ns1="http://ns.adobe.com/aem/metadata-unspecified/repo">
         <dc:format>image/svg+xml</dc:format>
         <dc:modified>2025-06-03T18:33:09.772Z</dc:modified>
         <dc:title>
            <rdf:Alt>
               <rdf:li xml:lang="x-default">Baby bottle icon - White</rdf:li>
            </rdf:Alt>
         </dc:title>
         <dc:description>
            <rdf:Alt>
               <rdf:li xml:lang="x-default">baby, bottle, nursing,</rdf:li>
            </rdf:Alt>
         </dc:description>
         <xmp:brand-content-subtype>Icon</xmp:brand-content-subtype>
         <xmp:rhcc-rights-restricted>no</xmp:rhcc-rights-restricted>
         <xmp:rhcc-file-last-modified>2025-06-03T18:25:26.421Z</xmp:rhcc-file-last-modified>
         <xmp:brand-content-type>Icon</xmp:brand-content-type>
         <xmp:brand-colorway>
            <rdf:Bag>
               <rdf:li>colorway:white</rdf:li>
            </rdf:Bag>
         </xmp:brand-colorway>
         <tiff:ImageLength>36</tiff:ImageLength>
         <tiff:ImageWidth>36</tiff:ImageWidth>
         <ns1:encoding>utf-8</ns1:encoding>
      </rdf:Description>
   </rdf:RDF>
</x:xmpmeta>
                                                                                                    
                                                                                                    
                                                                                                    
                                                                                                    
                                                                                                    
                                                                                                    
                                                                                                    
                                                                                                    
                                                                                                    
                                                                                                    
                                                                                                    
                                                                                                    
                                                                                                    
                                                                                                    
                                                                                                    
                                                                                                    
                                                                                                    
                                                
<?xpacket end="w"?></metadata>
<defs><style>.cls-1{fill:none;}.cls-1,.cls-2{stroke-width:0px;}.cls-2{fill:#fff;}</style></defs><path class="cls-1" d="M22.38,11.62h-8.75v1.75h8.38s.02,0,.02,0h.35v-1.75Z"/><path class="cls-1" d="M19.69,8.09c-.39-.19-.31-.74-.31-1.09.04-1.19-1.53-1.82-2.35-.97-.43.38-.42,1-.4,1.53,0,.22-.12.43-.31.54-.87.51-1.45,1.33-1.63,2.28h6.63c-.18-.95-.76-1.77-1.63-2.28Z"/><path class="cls-1" d="M23.29,16.51c-.12-.37-1.32-1.57-1.58-1.88h-7.43c-.26.32-1.44,1.51-1.56,1.88-.09.26-.1.6-.09.87h2.38c.82,0,.82,1.25,0,1.25h-2.38v1.75h4.38c.82,0,.82,1.25,0,1.25h-4.38v1.75h2.38c.82,0,.82,1.25,0,1.25h-2.38v1.75h4.38c.82,0,.82,1.25,0,1.25h-4.38v1.38c0,.76.62,1.38,1.38,1.38h8c.76,0,1.38-.62,1.38-1.38v-12c-.02-.16-.04-.33-.09-.49Z"/><path class="cls-2" d="M23.96,15.26s-.02-.03-.03-.05l-.62-.69c.19-.11.32-.3.32-.53v-3c-.02-.6-.57-.66-1.05-.62-.18-1.27-.88-2.42-1.95-3.16.15-3.72-5.4-3.72-5.25,0-1.07.74-1.78,1.9-1.95,3.16-.48-.04-1.03.02-1.05.63,0,0,0,3,0,3,0,.23.13.42.31.53-.84.92-1.29,1.33-1.31,2.47,0,0,0,12,0,12,0,1.45,1.18,2.62,2.62,2.62h8c1.45,0,2.62-1.18,2.62-2.62v-12c.03-.58-.25-1.34-.66-1.74ZM22,13.38h-8.38v-1.75h8.75v1.75h-.35s-.02,0-.02,0ZM16.31,8.09c.19-.11.31-.32.31-.54-.02-.52-.02-1.15.4-1.53.81-.85,2.39-.22,2.35.97v.55c0,.22.12.43.31.54.87.51,1.45,1.33,1.63,2.28h-6.63c.18-.95.76-1.77,1.63-2.28ZM23.38,29c0,.76-.62,1.38-1.38,1.38h-8c-.76,0-1.38-.62-1.38-1.38v-1.38h4.38c.82,0,.82-1.25,0-1.25h-4.38v-1.75h2.38c.82,0,.82-1.25,0-1.25h-2.38v-1.75h4.38c.82,0,.82-1.25,0-1.25h-4.38v-1.75h2.38c.82,0,.82-1.25,0-1.25h-2.38c0-.27,0-.61.09-.87.12-.37,1.31-1.57,1.56-1.88h7.43c.58.73,1.68,1.54,1.67,2.37,0,0,0,12,0,12Z"/></svg>