<svg id="aeb56053-cf21-46a6-b4df-306bed57478e" data-name="Icon" xmlns="http://www.w3.org/2000/svg" viewBox="0 0 36 36">
  <title>Digital standup icon - Red</title>
<desc>agile, team, meeting, projects, capacity, teamwork, virtual meeting, people and audiences</desc>
<metadata><?xpacket begin="﻿" id="W5M0MpCehiHzreSzNTczkc9d"?>
<x:xmpmeta xmlns:x="adobe:ns:meta/" x:xmptk="Adobe XMP Core 8.0-c001 1.000000, 0000/00/00-00:00:00        ">
   <rdf:RDF xmlns:rdf="http://www.w3.org/1999/02/22-rdf-syntax-ns#">
      <rdf:Description rdf:about=""
            xmlns:xmp="http://ns.adobe.com/xap/1.0/"
            xmlns:dc="http://purl.org/dc/elements/1.1/"
            xmlns:cq="http://www.day.com/jcr/cq/1.0"
            xmlns:tiff="http://ns.adobe.com/tiff/1.0/">
         <xmp:rhcc-effective-on>2023-12-08T17:33:52.068Z</xmp:rhcc-effective-on>
         <xmp:rhcc-metadata-complete-moderator>pending</xmp:rhcc-metadata-complete-moderator>
         <xmp:rhcc-translation-id>TRA757b1968-62a5-4e41-aba9-973c4254a0f4</xmp:rhcc-translation-id>
         <xmp:brand-content-type>Icon</xmp:brand-content-type>
         <xmp:CreateDate>2023-12-08T17:33:52.068Z</xmp:CreateDate>
         <xmp:rhcc-aspect-ratio>square</xmp:rhcc-aspect-ratio>
         <xmp:rhcc-effective-on-set-on-upload>true</xmp:rhcc-effective-on-set-on-upload>
         <xmp:rhcc-published-asset-email-sent>true</xmp:rhcc-published-asset-email-sent>
         <xmp:rhcc-metadata-complete-uploader>pending</xmp:rhcc-metadata-complete-uploader>
         <xmp:rhcc-file-last-modified>2024-07-12T20:39:49.369Z</xmp:rhcc-file-last-modified>
         <xmp:rhcc-audience>rhcc-audience:internal</xmp:rhcc-audience>
         <xmp:brand-content-subtype>Icon</xmp:brand-content-subtype>
         <xmp:rhcc-rights-restricted>no</xmp:rhcc-rights-restricted>
         <xmp:rhcc-derivative-id>DER757b1968-62a5-4e41-aba9-973c4254a0f4</xmp:rhcc-derivative-id>
         <xmp:rhcc-uploaded-by>pmeilleu@redhat.com</xmp:rhcc-uploaded-by>
         <xmp:brand-logo-color>Red</xmp:brand-logo-color>
         <xmp:rhcc-notify-portal-subscribers-on-change>yes</xmp:rhcc-notify-portal-subscribers-on-change>
         <dc:format>image/svg+xml</dc:format>
         <dc:modified>2024-02-09T20:22:10.113Z</dc:modified>
         <dc:title>
            <rdf:Alt>
               <rdf:li xml:lang="x-default">Digital standup icon - Red</rdf:li>
            </rdf:Alt>
         </dc:title>
         <dc:description>
            <rdf:Alt>
               <rdf:li xml:lang="x-default">agile, team, meeting, projects, capacity, teamwork, virtual meeting, people and audiences</rdf:li>
            </rdf:Alt>
         </dc:description>
         <cq:lastReplicationAction_scene7>Activate</cq:lastReplicationAction_scene7>
         <cq:lastReplicationAction_publish>Activate</cq:lastReplicationAction_publish>
         <cq:lastReplicated_publish>2024-10-02T19:33:14.068Z</cq:lastReplicated_publish>
         <cq:lastReplicatedBy>workflow-process-service</cq:lastReplicatedBy>
         <cq:lastReplicationAction>Activate</cq:lastReplicationAction>
         <cq:lastReplicatedBy_publish>workflow-process-service</cq:lastReplicatedBy_publish>
         <cq:isDelivered>false</cq:isDelivered>
         <cq:lastReplicated>2024-10-02T19:33:14.068Z</cq:lastReplicated>
         <cq:lastReplicatedBy_scene7>workflow-process-service</cq:lastReplicatedBy_scene7>
         <cq:lastReplicated_scene7>2024-10-02T19:33:14.068Z</cq:lastReplicated_scene7>
         <tiff:ImageLength>36</tiff:ImageLength>
         <tiff:ImageWidth>36</tiff:ImageWidth>
      </rdf:Description>
   </rdf:RDF>
</x:xmpmeta>
                                                                                                    
                                                                                                    
                                                                                                    
                                                                                                    
                                                                                                    
                                                                                                    
                                                                                                    
                                                                                                    
        
<?xpacket end="w"?></metadata>
<defs>
    <style>
      .bb78651e-4449-442d-a898-d7fb7fdfae00 {
        fill: #e00;
      }
    </style>
  </defs>
  <g>
    <path class="bb78651e-4449-442d-a898-d7fb7fdfae00" d="M6,26.62H30a.62.62,0,0,0,.62-.62V11a.62.62,0,0,0-.62-.62H26a.63.63,0,0,0,0,1.25h3.38V25.38H23.05a5,5,0,0,0-3-4.48,3.15,3.15,0,1,0-4.14,0,5,5,0,0,0-3,4.48H6.62V11.62H10a.62.62,0,0,0,0-1.24H6a.62.62,0,0,0-.62.62V26A.62.62,0,0,0,6,26.62Zm10.09-8.09a1.91,1.91,0,0,1,3.82,0A1.91,1.91,0,0,1,16.09,18.53ZM18,21.69a3.81,3.81,0,0,1,3.8,3.69H14.2A3.81,3.81,0,0,1,18,21.69Z"/>
    <path class="bb78651e-4449-442d-a898-d7fb7fdfae00" d="M32,28.38H4a.62.62,0,0,0,0,1.24H32A.62.62,0,0,0,32,28.38Z"/>
    <path class="bb78651e-4449-442d-a898-d7fb7fdfae00" d="M12,12.62h3.74c2.73,2.67,1.8,2.66,4.52,0H24a.62.62,0,0,0,.62-.62V6A.62.62,0,0,0,24,5.38H12a.62.62,0,0,0-.62.62v6A.62.62,0,0,0,12,12.62Zm.62-6H23.38v4.76H20a.59.59,0,0,0-.44.18L18,13.12l-1.56-1.56a.59.59,0,0,0-.44-.18H12.62Z"/>
  </g>
</svg>
