<svg id="ad545b3b-f390-4b20-8b3a-aa29065980c9" data-name="Icon" xmlns="http://www.w3.org/2000/svg" viewBox="0 0 36 36">
  <title>Speedometer icon - White</title>
<desc>fast, fly, engine, speed, miles, MPH, kilometer, KPH, car, automobile, accelerate, transportation</desc>
<metadata><?xpacket begin="﻿" id="W5M0MpCehiHzreSzNTczkc9d"?>
<x:xmpmeta xmlns:x="adobe:ns:meta/" x:xmptk="Adobe XMP Core 8.0-c001 1.000000, 0000/00/00-00:00:00        ">
   <rdf:RDF xmlns:rdf="http://www.w3.org/1999/02/22-rdf-syntax-ns#">
      <rdf:Description rdf:about=""
            xmlns:xmp="http://ns.adobe.com/xap/1.0/"
            xmlns:dc="http://purl.org/dc/elements/1.1/"
            xmlns:cq="http://www.day.com/jcr/cq/1.0"
            xmlns:tiff="http://ns.adobe.com/tiff/1.0/">
         <xmp:rhcc-effective-on>2023-12-08T17:46:22.255Z</xmp:rhcc-effective-on>
         <xmp:rhcc-metadata-complete-moderator>pending</xmp:rhcc-metadata-complete-moderator>
         <xmp:rhcc-translation-id>TRAed6241fb-c9ac-4a74-98b6-888f5d6cd54a</xmp:rhcc-translation-id>
         <xmp:brand-content-type>Icon</xmp:brand-content-type>
         <xmp:CreateDate>2023-12-08T17:46:22.255Z</xmp:CreateDate>
         <xmp:rhcc-aspect-ratio>square</xmp:rhcc-aspect-ratio>
         <xmp:rhcc-effective-on-set-on-upload>true</xmp:rhcc-effective-on-set-on-upload>
         <xmp:rhcc-metadata-complete-uploader>pending</xmp:rhcc-metadata-complete-uploader>
         <xmp:rhcc-file-last-modified>2024-07-12T18:47:13.349Z</xmp:rhcc-file-last-modified>
         <xmp:rhcc-audience>rhcc-audience:internal</xmp:rhcc-audience>
         <xmp:brand-content-subtype>Icon</xmp:brand-content-subtype>
         <xmp:rhcc-rights-restricted>no</xmp:rhcc-rights-restricted>
         <xmp:rhcc-derivative-id>DERed6241fb-c9ac-4a74-98b6-888f5d6cd54a</xmp:rhcc-derivative-id>
         <xmp:rhcc-uploaded-by>pmeilleu@redhat.com</xmp:rhcc-uploaded-by>
         <xmp:brand-logo-color>White</xmp:brand-logo-color>
         <xmp:rhcc-notify-portal-subscribers-on-change>yes</xmp:rhcc-notify-portal-subscribers-on-change>
         <dc:format>image/svg+xml</dc:format>
         <dc:modified>2024-02-09T20:25:40.718Z</dc:modified>
         <dc:title>
            <rdf:Alt>
               <rdf:li xml:lang="x-default">Speedometer icon - White</rdf:li>
            </rdf:Alt>
         </dc:title>
         <dc:description>
            <rdf:Alt>
               <rdf:li xml:lang="x-default">fast, fly, engine, speed, miles, MPH, kilometer, KPH, car, automobile, accelerate, transportation</rdf:li>
            </rdf:Alt>
         </dc:description>
         <cq:lastReplicationAction_scene7>Activate</cq:lastReplicationAction_scene7>
         <cq:lastReplicationAction_publish>Activate</cq:lastReplicationAction_publish>
         <cq:lastReplicated_publish>2024-10-02T19:46:38.974Z</cq:lastReplicated_publish>
         <cq:lastReplicatedBy>workflow-process-service</cq:lastReplicatedBy>
         <cq:lastReplicationAction>Activate</cq:lastReplicationAction>
         <cq:lastReplicatedBy_publish>workflow-process-service</cq:lastReplicatedBy_publish>
         <cq:isDelivered>false</cq:isDelivered>
         <cq:lastReplicated>2024-10-02T19:46:38.974Z</cq:lastReplicated>
         <cq:lastReplicatedBy_scene7>workflow-process-service</cq:lastReplicatedBy_scene7>
         <cq:lastReplicated_scene7>2024-10-02T19:46:38.974Z</cq:lastReplicated_scene7>
         <tiff:ImageLength>36</tiff:ImageLength>
         <tiff:ImageWidth>36</tiff:ImageWidth>
      </rdf:Description>
   </rdf:RDF>
</x:xmpmeta>
                                                                                                    
                                                                                                    
                                                                                                    
                                                                                                    
                                                                                                    
                                                                                                    
                                                                                                    
                                                                                                    
                                                                                                 
<?xpacket end="w"?></metadata>
<defs>
    <style>
      .b337d8bd-429d-4170-bc9a-b852a3d52011 {
        fill: #fff;
      }
    </style>
  </defs>
  <g>
    <path class="b337d8bd-429d-4170-bc9a-b852a3d52011" d="M18,3.36A14.66,14.66,0,0,0,3.36,18c.8,19.43,28.48,19.42,29.28,0A14.66,14.66,0,0,0,18,3.36Zm0,28A13.41,13.41,0,0,1,4.61,18C5.34.23,30.66.24,31.39,18A13.41,13.41,0,0,1,18,31.39Z"/>
    <path class="b337d8bd-429d-4170-bc9a-b852a3d52011" d="M17.56,8.44c.57.57,1.47-.31.88-.88S17,7.86,17.56,8.44Z"/>
    <path class="b337d8bd-429d-4170-bc9a-b852a3d52011" d="M11.44,11.44c.59-.57-.32-1.46-.88-.88A.62.62,0,0,0,11.44,11.44Z"/>
    <path class="b337d8bd-429d-4170-bc9a-b852a3d52011" d="M8.24,17.42a.63.63,0,0,0-.48,1.16A.63.63,0,0,0,8.24,17.42Z"/>
    <path class="b337d8bd-429d-4170-bc9a-b852a3d52011" d="M28.58,17.76a.63.63,0,0,0-1.16.48A.63.63,0,0,0,28.58,17.76Z"/>
    <path class="b337d8bd-429d-4170-bc9a-b852a3d52011" d="M22.23,23.38h-9a2.12,2.12,0,0,0,0,4.24h9A2.12,2.12,0,0,0,22.23,23.38Zm0,3h-9a.88.88,0,0,1,0-1.75h9A.88.88,0,0,1,22.23,26.38Z"/>
    <path class="b337d8bd-429d-4170-bc9a-b852a3d52011" d="M24.56,10.56l-5,5a3,3,0,1,0,.89.89l5-5C26,10.88,25.12,10,24.56,10.56Zm-6.62,9.27a1.77,1.77,0,0,1,0-3.54A1.77,1.77,0,0,1,17.94,19.83Z"/>
  </g>
</svg>
