<svg id="a969c775-2257-4ac2-9a4b-b2e96aa55883" data-name="Icon" xmlns="http://www.w3.org/2000/svg" viewBox="0 0 36 36">
  <title>Shower icon - Red</title>
<desc>bath, restroom, gym, exercise, office, amenity, GWS, wash, office and work</desc>
<metadata><?xpacket begin="﻿" id="W5M0MpCehiHzreSzNTczkc9d"?>
<x:xmpmeta xmlns:x="adobe:ns:meta/" x:xmptk="Adobe XMP Core 8.0-c001 1.000000, 0000/00/00-00:00:00        ">
   <rdf:RDF xmlns:rdf="http://www.w3.org/1999/02/22-rdf-syntax-ns#">
      <rdf:Description rdf:about=""
            xmlns:xmp="http://ns.adobe.com/xap/1.0/"
            xmlns:dc="http://purl.org/dc/elements/1.1/"
            xmlns:cq="http://www.day.com/jcr/cq/1.0"
            xmlns:tiff="http://ns.adobe.com/tiff/1.0/">
         <xmp:rhcc-effective-on>2023-12-08T17:47:13.827Z</xmp:rhcc-effective-on>
         <xmp:rhcc-metadata-complete-moderator>pending</xmp:rhcc-metadata-complete-moderator>
         <xmp:rhcc-translation-id>TRAb298da90-9eca-498a-a78d-2e003f56a163</xmp:rhcc-translation-id>
         <xmp:brand-content-type>Icon</xmp:brand-content-type>
         <xmp:CreateDate>2023-12-08T17:47:13.827Z</xmp:CreateDate>
         <xmp:rhcc-aspect-ratio>square</xmp:rhcc-aspect-ratio>
         <xmp:rhcc-effective-on-set-on-upload>true</xmp:rhcc-effective-on-set-on-upload>
         <xmp:rhcc-metadata-complete-uploader>pending</xmp:rhcc-metadata-complete-uploader>
         <xmp:rhcc-file-last-modified>2024-07-12T21:00:13.550Z</xmp:rhcc-file-last-modified>
         <xmp:rhcc-audience>rhcc-audience:internal</xmp:rhcc-audience>
         <xmp:brand-content-subtype>Icon</xmp:brand-content-subtype>
         <xmp:rhcc-rights-restricted>no</xmp:rhcc-rights-restricted>
         <xmp:rhcc-derivative-id>DERb298da90-9eca-498a-a78d-2e003f56a163</xmp:rhcc-derivative-id>
         <xmp:rhcc-uploaded-by>pmeilleu@redhat.com</xmp:rhcc-uploaded-by>
         <xmp:brand-logo-color>Red</xmp:brand-logo-color>
         <xmp:rhcc-notify-portal-subscribers-on-change>yes</xmp:rhcc-notify-portal-subscribers-on-change>
         <dc:format>image/svg+xml</dc:format>
         <dc:modified>2024-02-09T20:23:50.733Z</dc:modified>
         <dc:title>
            <rdf:Alt>
               <rdf:li xml:lang="x-default">Shower icon - Red</rdf:li>
            </rdf:Alt>
         </dc:title>
         <dc:description>
            <rdf:Alt>
               <rdf:li xml:lang="x-default">bath, restroom, gym, exercise, office, amenity, GWS, wash, office and work</rdf:li>
            </rdf:Alt>
         </dc:description>
         <cq:lastReplicationAction_scene7>Activate</cq:lastReplicationAction_scene7>
         <cq:lastReplicationAction_publish>Activate</cq:lastReplicationAction_publish>
         <cq:lastReplicated_publish>2024-10-02T19:44:17.984Z</cq:lastReplicated_publish>
         <cq:lastReplicatedBy>workflow-process-service</cq:lastReplicatedBy>
         <cq:lastReplicationAction>Activate</cq:lastReplicationAction>
         <cq:lastReplicatedBy_publish>workflow-process-service</cq:lastReplicatedBy_publish>
         <cq:isDelivered>false</cq:isDelivered>
         <cq:lastReplicated>2024-10-02T19:44:17.984Z</cq:lastReplicated>
         <cq:lastReplicatedBy_scene7>workflow-process-service</cq:lastReplicatedBy_scene7>
         <cq:lastReplicated_scene7>2024-10-02T19:44:17.984Z</cq:lastReplicated_scene7>
         <tiff:ImageLength>36</tiff:ImageLength>
         <tiff:ImageWidth>36</tiff:ImageWidth>
      </rdf:Description>
   </rdf:RDF>
</x:xmpmeta>
                                                                                                    
                                                                                                    
                                                                                                    
                                                                                                    
                                                                                                    
                                                                                                    
                                                                                                    
                                                                                                    
                                                                                                 
<?xpacket end="w"?></metadata>
<defs>
    <style>
      .a4195405-3c81-428d-9f1f-a23a9c08c511 {
        fill: #e00;
      }
    </style>
  </defs>
  <g>
    <path class="a4195405-3c81-428d-9f1f-a23a9c08c511" d="M22,20.38a.61.61,0,0,0-.62.62V31a.62.62,0,0,0,1.24,0V21A.61.61,0,0,0,22,20.38Z"/>
    <path class="a4195405-3c81-428d-9f1f-a23a9c08c511" d="M27,20.38a.61.61,0,0,0-.62.62V31a.62.62,0,0,0,1.24,0V21A.61.61,0,0,0,27,20.38Z"/>
    <path class="a4195405-3c81-428d-9f1f-a23a9c08c511" d="M17,20.38a.61.61,0,0,0-.62.62V31a.62.62,0,0,0,1.24,0V21A.61.61,0,0,0,17,20.38Z"/>
    <path class="a4195405-3c81-428d-9f1f-a23a9c08c511" d="M22,8.38c-.32,0-.63,0-.94,0A9.11,9.11,0,0,0,4.41,12.83a.51.51,0,0,0,0,.17V31a.62.62,0,0,0,1.24,0V13.5A7.86,7.86,0,0,1,19.69,8.67,9.63,9.63,0,0,0,12.38,18a.61.61,0,0,0,.62.62H31a.61.61,0,0,0,.62-.62A9.62,9.62,0,0,0,22,8.38Zm-8.35,9a8.37,8.37,0,0,1,16.7,0Z"/>
  </g>
</svg>
