<?xml version="1.0" encoding="UTF-8"?><svg id="uuid-33decb7e-5e8b-47b9-bccc-791414254598" xmlns="http://www.w3.org/2000/svg" viewBox="0 0 36 36"><title>USB flash drive icon - White</title>
<desc>drive, storage, media, flash, flash drive, thumb drive, usb, keychain</desc>
<metadata><?xpacket begin="﻿" id="W5M0MpCehiHzreSzNTczkc9d"?>
<x:xmpmeta xmlns:x="adobe:ns:meta/" x:xmptk="Adobe XMP Core 8.0-c001 1.000000, 0000/00/00-00:00:00        ">
   <rdf:RDF xmlns:rdf="http://www.w3.org/1999/02/22-rdf-syntax-ns#">
      <rdf:Description rdf:about=""
            xmlns:xmp="http://ns.adobe.com/xap/1.0/"
            xmlns:tiff="http://ns.adobe.com/tiff/1.0/"
            xmlns:dc="http://purl.org/dc/elements/1.1/">
         <xmp:rhcc-effective-on>2024-03-13T15:06:22.053Z</xmp:rhcc-effective-on>
         <xmp:rhcc-rights-restricted>no</xmp:rhcc-rights-restricted>
         <xmp:brand-content-subtype>Icon</xmp:brand-content-subtype>
         <xmp:rhcc-metadata-complete-moderator>pending</xmp:rhcc-metadata-complete-moderator>
         <xmp:rhcc-translation-id>TRA134d2b6d-2e92-4961-9db3-03a25cc4f3a1</xmp:rhcc-translation-id>
         <xmp:brand-content-type>Icon</xmp:brand-content-type>
         <xmp:CreateDate>2024-03-13T15:06:22.053Z</xmp:CreateDate>
         <xmp:rhcc-aspect-ratio>square</xmp:rhcc-aspect-ratio>
         <xmp:rhcc-derivative-id>DER134d2b6d-2e92-4961-9db3-03a25cc4f3a1</xmp:rhcc-derivative-id>
         <xmp:rhcc-effective-on-set-on-upload>true</xmp:rhcc-effective-on-set-on-upload>
         <xmp:rhcc-uploaded-by>llevi@redhat.com</xmp:rhcc-uploaded-by>
         <xmp:brand-logo-color>White</xmp:brand-logo-color>
         <xmp:rhcc-metadata-complete-uploader>pending</xmp:rhcc-metadata-complete-uploader>
         <xmp:rhcc-file-last-modified>2024-07-12T23:37:06.166Z</xmp:rhcc-file-last-modified>
         <xmp:rhcc-audience>rhcc-audience:internal</xmp:rhcc-audience>
         <xmp:rhcc-notify-portal-subscribers-on-change>yes</xmp:rhcc-notify-portal-subscribers-on-change>
         <xmp:brand-colorway>
            <rdf:Bag>
               <rdf:li>colorway:white</rdf:li>
            </rdf:Bag>
         </xmp:brand-colorway>
         <tiff:ImageLength>36</tiff:ImageLength>
         <tiff:ImageWidth>36</tiff:ImageWidth>
         <dc:format>image/svg+xml</dc:format>
         <dc:modified>2024-03-13T15:08:13.463Z</dc:modified>
         <dc:description>
            <rdf:Alt>
               <rdf:li xml:lang="x-default">drive, storage, media, flash, flash drive, thumb drive, usb, keychain</rdf:li>
            </rdf:Alt>
         </dc:description>
         <dc:title>
            <rdf:Alt>
               <rdf:li xml:lang="x-default">USB flash drive icon - White</rdf:li>
            </rdf:Alt>
         </dc:title>
      </rdf:Description>
   </rdf:RDF>
</x:xmpmeta>
                                                                                                    
                                                                                                    
                                                                                                    
                                                                                                    
                                                                                                    
                                                                                                    
                                                                                                    
                                                                                                    
                                                                                                    
                                                                                                    
                                                                                                    
                                                                                                    
                                                                                                    
                                                                    
<?xpacket end="w"?></metadata>
<defs><style>.uuid-980e5bd9-5d0b-4190-ad49-f85022e75b20{fill:#fff;stroke-width:0px;}</style></defs><path class="uuid-980e5bd9-5d0b-4190-ad49-f85022e75b20" d="M31.4419,10.5576l-6-5.9995c-.2441-.2441-.6396-.2441-.8838,0l-4.5581,4.5576-.5581-.5581c-.2441-.2441-.6396-.2441-.8838,0l-13.3433,13.3438c-2.4487,2.4492-2.4487,6.4346,0,8.8828,1.1865,1.1875,2.7642,1.8408,4.4419,1.8408s3.2554-.6533,4.4419-1.8398l13.3433-13.3428c.1172-.1172.1831-.2764.1831-.4424s-.0659-.3252-.1831-.4424l-.5576-.5576,4.5576-4.5576c.2441-.2441.2441-.6406,0-.8848ZM13.2148,29.9014c-.9507.9502-2.2139,1.4736-3.5581,1.4736s-2.6074-.5234-3.5581-1.4746c-1.9614-1.9609-1.9614-5.1533,0-7.1152l12.9014-12.9014.5571.5571s.0005.001.001.0015l6,6s.001.0005.0015.001l.5566.5566-12.9014,12.9014ZM26.0002,15.116l-5.1162-5.1162,4.116-4.116,5.1162,5.1162-4.116,4.116Z"/><path class="uuid-980e5bd9-5d0b-4190-ad49-f85022e75b20" d="M24.5581,8.5576l-1,1c-.2441.2441-.2441.6406,0,.8848.1221.1221.2817.1826.4419.1826s.3198-.0605.4419-.1826l1-1c.2441-.2441.2441-.6406,0-.8848s-.6396-.2441-.8838,0Z"/><path class="uuid-980e5bd9-5d0b-4190-ad49-f85022e75b20" d="M25.5581,12.4424c.1221.1221.2817.1826.4419.1826s.3198-.0605.4419-.1826l1-1c.2441-.2441.2441-.6406,0-.8848s-.6396-.2441-.8838,0l-1,1c-.2441.2441-.2441.6406,0,.8848Z"/><path class="uuid-980e5bd9-5d0b-4190-ad49-f85022e75b20" d="M10,23.375c-1.4473,0-2.625,1.1777-2.625,2.625s1.1777,2.625,2.625,2.625,2.625-1.1777,2.625-2.625-1.1777-2.625-2.625-2.625ZM10,27.375c-.7583,0-1.375-.6172-1.375-1.375s.6167-1.375,1.375-1.375,1.375.6172,1.375,1.375-.6167,1.375-1.375,1.375Z"/></svg>