<svg id="a961c6f6-c153-43e6-aeb5-4b2308f7649c" data-name="Icon" xmlns="http://www.w3.org/2000/svg" viewBox="0 0 36 36">
  <title>Utensils icon - White</title>
<desc>eat, fork, knife, spoon, restaurant, cafe, cook, dinner, lunch, breakfast, food and drink</desc>
<metadata><?xpacket begin="﻿" id="W5M0MpCehiHzreSzNTczkc9d"?>
<x:xmpmeta xmlns:x="adobe:ns:meta/" x:xmptk="Adobe XMP Core 8.0-c001 1.000000, 0000/00/00-00:00:00        ">
   <rdf:RDF xmlns:rdf="http://www.w3.org/1999/02/22-rdf-syntax-ns#">
      <rdf:Description rdf:about=""
            xmlns:xmp="http://ns.adobe.com/xap/1.0/"
            xmlns:dc="http://purl.org/dc/elements/1.1/"
            xmlns:cq="http://www.day.com/jcr/cq/1.0"
            xmlns:tiff="http://ns.adobe.com/tiff/1.0/">
         <xmp:rhcc-effective-on>2023-12-08T17:45:53.274Z</xmp:rhcc-effective-on>
         <xmp:rhcc-metadata-complete-moderator>pending</xmp:rhcc-metadata-complete-moderator>
         <xmp:rhcc-translation-id>TRAdb406385-cb23-48fd-80ad-27d487d410c6</xmp:rhcc-translation-id>
         <xmp:brand-content-type>Icon</xmp:brand-content-type>
         <xmp:CreateDate>2023-12-08T17:45:53.274Z</xmp:CreateDate>
         <xmp:rhcc-aspect-ratio>square</xmp:rhcc-aspect-ratio>
         <xmp:rhcc-effective-on-set-on-upload>true</xmp:rhcc-effective-on-set-on-upload>
         <xmp:rhcc-published-asset-email-sent>true</xmp:rhcc-published-asset-email-sent>
         <xmp:rhcc-metadata-complete-uploader>pending</xmp:rhcc-metadata-complete-uploader>
         <xmp:rhcc-file-last-modified>2024-07-12T23:23:25.392Z</xmp:rhcc-file-last-modified>
         <xmp:rhcc-audience>rhcc-audience:internal</xmp:rhcc-audience>
         <xmp:brand-content-subtype>Icon</xmp:brand-content-subtype>
         <xmp:rhcc-rights-restricted>no</xmp:rhcc-rights-restricted>
         <xmp:rhcc-derivative-id>DERdb406385-cb23-48fd-80ad-27d487d410c6</xmp:rhcc-derivative-id>
         <xmp:rhcc-uploaded-by>pmeilleu@redhat.com</xmp:rhcc-uploaded-by>
         <xmp:brand-logo-color>White</xmp:brand-logo-color>
         <xmp:rhcc-notify-portal-subscribers-on-change>yes</xmp:rhcc-notify-portal-subscribers-on-change>
         <dc:format>image/svg+xml</dc:format>
         <dc:modified>2024-02-09T20:36:50.302Z</dc:modified>
         <dc:title>
            <rdf:Alt>
               <rdf:li xml:lang="x-default">Utensils icon - White</rdf:li>
            </rdf:Alt>
         </dc:title>
         <dc:description>
            <rdf:Alt>
               <rdf:li xml:lang="x-default">eat, fork, knife, spoon, restaurant, cafe, cook, dinner, lunch, breakfast, food and drink</rdf:li>
            </rdf:Alt>
         </dc:description>
         <cq:lastReplicationAction_scene7>Activate</cq:lastReplicationAction_scene7>
         <cq:lastReplicationAction_publish>Activate</cq:lastReplicationAction_publish>
         <cq:lastReplicated_publish>2024-10-02T19:47:20.320Z</cq:lastReplicated_publish>
         <cq:lastReplicatedBy>workflow-process-service</cq:lastReplicatedBy>
         <cq:lastReplicationAction>Activate</cq:lastReplicationAction>
         <cq:lastReplicatedBy_publish>workflow-process-service</cq:lastReplicatedBy_publish>
         <cq:isDelivered>false</cq:isDelivered>
         <cq:lastReplicated>2024-10-02T19:47:20.320Z</cq:lastReplicated>
         <cq:lastReplicatedBy_scene7>workflow-process-service</cq:lastReplicatedBy_scene7>
         <cq:lastReplicated_scene7>2024-10-02T19:47:20.320Z</cq:lastReplicated_scene7>
         <tiff:ImageLength>36</tiff:ImageLength>
         <tiff:ImageWidth>36</tiff:ImageWidth>
      </rdf:Description>
   </rdf:RDF>
</x:xmpmeta>
                                                                                                    
                                                                                                    
                                                                                                    
                                                                                                    
                                                                                                    
                                                                                                    
                                                                                                    
                                                                                                    
        
<?xpacket end="w"?></metadata>
<defs>
    <style>
      .ba80fe43-5b7f-440d-9829-72839a30b104 {
        fill: #fff;
      }
    </style>
  </defs>
  <g>
    <path class="ba80fe43-5b7f-440d-9829-72839a30b104" d="M27.92,4.59c-.23-.37-1.49-.16-1.92-.22a.63.63,0,0,0-.62.63V31a.62.62,0,0,0,1.24,0V21.62H31a.62.62,0,0,0,.62-.62V14.45A14.88,14.88,0,0,0,27.92,4.59Zm2.46,15.79H26.62V5.62h.55a13.7,13.7,0,0,1,3.21,8.83Z"/>
    <path class="ba80fe43-5b7f-440d-9829-72839a30b104" d="M12,4.38a.62.62,0,0,0-.62.62v7a2.38,2.38,0,0,1-4.76,0V5A.62.62,0,0,0,5.38,5v7a3.62,3.62,0,0,0,3,3.56V31a.62.62,0,0,0,1.24,0V15.56a3.62,3.62,0,0,0,3-3.56V5A.62.62,0,0,0,12,4.38Z"/>
    <path class="ba80fe43-5b7f-440d-9829-72839a30b104" d="M8,12.62A.62.62,0,0,0,8.62,12V6A.62.62,0,0,0,7.38,6v6A.62.62,0,0,0,8,12.62Z"/>
    <path class="ba80fe43-5b7f-440d-9829-72839a30b104" d="M10,12.62a.62.62,0,0,0,.62-.62V6A.62.62,0,0,0,9.38,6v6A.62.62,0,0,0,10,12.62Z"/>
    <path class="ba80fe43-5b7f-440d-9829-72839a30b104" d="M19,4.38c-4.54.11-4.81,10.1-.62,11.16V31a.62.62,0,0,0,1.24,0V15.54C23.81,14.48,23.54,4.49,19,4.38Zm0,10c-3.12-.2-3.12-8.56,0-8.76C22.12,5.82,22.12,14.18,19,14.38Z"/>
  </g>
</svg>
