<svg id="a2758d48-9d98-4e75-9d28-dfe4d8d4aafa" data-name="Icon" xmlns="http://www.w3.org/2000/svg" viewBox="0 0 36 36">
  <title>Walking shoe icon - White</title>
<desc>foot, footwear, wear, clothes, tennis shoe, sneaker, step, walk, run, exercise, athletic, sports, objects</desc>
<metadata><?xpacket begin="﻿" id="W5M0MpCehiHzreSzNTczkc9d"?>
<x:xmpmeta xmlns:x="adobe:ns:meta/" x:xmptk="Adobe XMP Core 8.0-c001 1.000000, 0000/00/00-00:00:00        ">
   <rdf:RDF xmlns:rdf="http://www.w3.org/1999/02/22-rdf-syntax-ns#">
      <rdf:Description rdf:about=""
            xmlns:xmp="http://ns.adobe.com/xap/1.0/"
            xmlns:dc="http://purl.org/dc/elements/1.1/"
            xmlns:cq="http://www.day.com/jcr/cq/1.0"
            xmlns:tiff="http://ns.adobe.com/tiff/1.0/">
         <xmp:rhcc-effective-on>2023-12-08T17:36:28.931Z</xmp:rhcc-effective-on>
         <xmp:rhcc-metadata-complete-moderator>pending</xmp:rhcc-metadata-complete-moderator>
         <xmp:rhcc-translation-id>TRAc9ba1f41-9077-47db-9bb5-f61913bc3e05</xmp:rhcc-translation-id>
         <xmp:brand-content-type>Icon</xmp:brand-content-type>
         <xmp:CreateDate>2023-12-08T17:36:28.931Z</xmp:CreateDate>
         <xmp:rhcc-aspect-ratio>square</xmp:rhcc-aspect-ratio>
         <xmp:rhcc-effective-on-set-on-upload>true</xmp:rhcc-effective-on-set-on-upload>
         <xmp:rhcc-published-asset-email-sent>true</xmp:rhcc-published-asset-email-sent>
         <xmp:rhcc-metadata-complete-uploader>pending</xmp:rhcc-metadata-complete-uploader>
         <xmp:rhcc-file-last-modified>2024-07-12T22:34:55.370Z</xmp:rhcc-file-last-modified>
         <xmp:rhcc-audience>rhcc-audience:internal</xmp:rhcc-audience>
         <xmp:brand-content-subtype>Icon</xmp:brand-content-subtype>
         <xmp:rhcc-rights-restricted>no</xmp:rhcc-rights-restricted>
         <xmp:rhcc-derivative-id>DERc9ba1f41-9077-47db-9bb5-f61913bc3e05</xmp:rhcc-derivative-id>
         <xmp:rhcc-uploaded-by>pmeilleu@redhat.com</xmp:rhcc-uploaded-by>
         <xmp:brand-logo-color>White</xmp:brand-logo-color>
         <xmp:rhcc-notify-portal-subscribers-on-change>yes</xmp:rhcc-notify-portal-subscribers-on-change>
         <dc:format>image/svg+xml</dc:format>
         <dc:modified>2024-02-09T20:33:01.548Z</dc:modified>
         <dc:title>
            <rdf:Alt>
               <rdf:li xml:lang="x-default">Walking shoe icon - White</rdf:li>
            </rdf:Alt>
         </dc:title>
         <dc:description>
            <rdf:Alt>
               <rdf:li xml:lang="x-default">foot, footwear, wear, clothes, tennis shoe, sneaker, step, walk, run, exercise, athletic, sports, objects</rdf:li>
            </rdf:Alt>
         </dc:description>
         <cq:lastReplicationAction_scene7>Activate</cq:lastReplicationAction_scene7>
         <cq:lastReplicationAction_publish>Activate</cq:lastReplicationAction_publish>
         <cq:lastReplicated_publish>2024-10-02T19:44:14.885Z</cq:lastReplicated_publish>
         <cq:lastReplicatedBy>workflow-process-service</cq:lastReplicatedBy>
         <cq:lastReplicationAction>Activate</cq:lastReplicationAction>
         <cq:lastReplicatedBy_publish>workflow-process-service</cq:lastReplicatedBy_publish>
         <cq:isDelivered>false</cq:isDelivered>
         <cq:lastReplicated>2024-10-02T19:44:14.885Z</cq:lastReplicated>
         <cq:lastReplicatedBy_scene7>workflow-process-service</cq:lastReplicatedBy_scene7>
         <cq:lastReplicated_scene7>2024-10-02T19:44:14.885Z</cq:lastReplicated_scene7>
         <tiff:ImageLength>36</tiff:ImageLength>
         <tiff:ImageWidth>36</tiff:ImageWidth>
      </rdf:Description>
   </rdf:RDF>
</x:xmpmeta>
                                                                                                    
                                                                                                    
                                                                                                    
                                                                                                    
                                                                                                    
                                                                                                    
                                                                                                    
                                                                                                    
        
<?xpacket end="w"?></metadata>
<defs>
    <style>
      .eafb3bcd-a43b-408e-9460-2a58fd571551 {
        fill: #fff;
      }
    </style>
  </defs>
  <g>
    <path class="eafb3bcd-a43b-408e-9460-2a58fd571551" d="M28.41,17.75A.62.62,0,0,0,28.16,19a3,3,0,0,1,2.38,3,4.25,4.25,0,0,0-4.19,2.76L23,24.05a4.26,4.26,0,0,0-8.24-1.75L7.89,20.84,10,10.75a1.2,1.2,0,0,1,2.35.5c-2,6,6.48,8.68,8.17,2.66l.56-2.67A.62.62,0,0,0,19.89,11l-.57,2.67a3,3,0,1,1-5.91-1.25l.19-.89a2.45,2.45,0,0,0-4.79-1L6.53,21.19a.63.63,0,0,0,.48.74l15.17,3.23,7.13,1.51a1.55,1.55,0,0,0,1.83-1.18l.57-2.68A4.27,4.27,0,0,0,28.41,17.75Zm-9,3.08a3,3,0,0,1,2.39,3L16,22.56A3,3,0,0,1,19.37,20.83Zm10.2,4.62-2-.42a3,3,0,0,1,2.77-1.8l-.43,2A.29.29,0,0,1,29.57,25.45Z"/>
    <path class="eafb3bcd-a43b-408e-9460-2a58fd571551" d="M24.59,18.21a.63.63,0,0,0,.74-.48l.38-1.79a.62.62,0,1,0-1.22-.26l-.38,1.79A.62.62,0,0,0,24.59,18.21Z"/>
    <path class="eafb3bcd-a43b-408e-9460-2a58fd571551" d="M22.1,16.75a.63.63,0,0,0,.74-.48l.57-2.68a.62.62,0,1,0-1.22-.26L21.62,16A.62.62,0,0,0,22.1,16.75Z"/>
    <path class="eafb3bcd-a43b-408e-9460-2a58fd571551" d="M15,25.38H7a.62.62,0,0,0,0,1.24h8A.62.62,0,0,0,15,25.38Z"/>
    <path class="eafb3bcd-a43b-408e-9460-2a58fd571551" d="M5,10.62H7A.62.62,0,0,0,7,9.38H5A.62.62,0,0,0,5,10.62Z"/>
    <path class="eafb3bcd-a43b-408e-9460-2a58fd571551" d="M5,12.37a.63.63,0,0,0,0,1.25A.63.63,0,0,0,5,12.37Z"/>
    <path class="eafb3bcd-a43b-408e-9460-2a58fd571551" d="M18,25.37a.63.63,0,0,0,0,1.25A.63.63,0,0,0,18,25.37Z"/>
  </g>
</svg>
