<?xml version="1.0" encoding="UTF-8"?><svg id="uuid-bcb84cf8-2bf0-421a-86b5-f390dcf56977" xmlns="http://www.w3.org/2000/svg" width="36" height="36" viewBox="0 0 36 36"><title>AI model icon - White</title>
<desc>AI, artificial intelligence, machine learning, neural network, data, algorithm, robot, automation, digital brain, futuristic, technology, innovation, smart, intelligence</desc>
<metadata><?xpacket begin="﻿" id="W5M0MpCehiHzreSzNTczkc9d"?>
<x:xmpmeta xmlns:x="adobe:ns:meta/" x:xmptk="Adobe XMP Core 8.0-c001 1.000000, 0000/00/00-00:00:00        ">
   <rdf:RDF xmlns:rdf="http://www.w3.org/1999/02/22-rdf-syntax-ns#">
      <rdf:Description rdf:about=""
            xmlns:xmp="http://ns.adobe.com/xap/1.0/"
            xmlns:tiff="http://ns.adobe.com/tiff/1.0/"
            xmlns:dc="http://purl.org/dc/elements/1.1/">
         <xmp:rhcc-file-last-modified>2025-05-12T17:34:32.790Z</xmp:rhcc-file-last-modified>
         <xmp:brand-logo-color>White</xmp:brand-logo-color>
         <xmp:brand-content-subtype>Icon</xmp:brand-content-subtype>
         <xmp:rhcc-rights-restricted>no</xmp:rhcc-rights-restricted>
         <xmp:rhcc-aspect-ratio>square</xmp:rhcc-aspect-ratio>
         <xmp:brand-content-type>Icon</xmp:brand-content-type>
         <xmp:rhcc-topics>
            <rdf:Bag>
               <rdf:li>rhcc-topics:artificial-intelligence</rdf:li>
            </rdf:Bag>
         </xmp:rhcc-topics>
         <xmp:brand-colorway>
            <rdf:Bag>
               <rdf:li>colorway:white</rdf:li>
            </rdf:Bag>
         </xmp:brand-colorway>
         <tiff:ImageWidth>36</tiff:ImageWidth>
         <tiff:ImageLength>36</tiff:ImageLength>
         <dc:format>image/svg+xml</dc:format>
         <dc:modified>2025-05-12T17:34:59.281Z</dc:modified>
         <dc:title>
            <rdf:Alt>
               <rdf:li xml:lang="x-default">AI model icon - White</rdf:li>
            </rdf:Alt>
         </dc:title>
         <dc:description>
            <rdf:Alt>
               <rdf:li xml:lang="x-default">AI, artificial intelligence, machine learning, neural network, data, algorithm, robot, automation, digital brain, futuristic, technology, innovation, smart, intelligence</rdf:li>
            </rdf:Alt>
         </dc:description>
      </rdf:Description>
   </rdf:RDF>
</x:xmpmeta>
                                                                                                    
                                                                                                    
                                                                                                    
                                                                                                    
                                                                                                    
                                                                                                    
                                                                                                    
                                                                                                    
                                                                                                    
                                                                                                    
                                                                                                    
                                                                                                    
                                                                               
<?xpacket end="w"?></metadata>
<defs><style>.uuid-7fd3d6e5-b62c-4c73-ab73-20b6a899274b{fill:#fff;}</style></defs><path class="uuid-7fd3d6e5-b62c-4c73-ab73-20b6a899274b" d="M20.625,16.25928l6.63428-6.63428h3.74072c.34521,0,.625-.28027.625-.625v-4c0-.34521-.27979-.625-.625-.625h-4c-.34521,0-.625.27979-.625.625v1.375H9.625v-1.375c0-.34521-.27979-.625-.625-.625h-4c-.34521,0-.625.27979-.625.625v4c0,.34473.27979.625.625.625h3.74078l6.63422,6.63403v1.11597h-5.75v-1.375c0-.34473-.27979-.625-.625-.625h-4c-.34521,0-.625.28027-.625.625v4c0,.34473.27979.625.625.625h4c.34521,0,.625-.28027.625-.625v-1.375h5.75v1.11597l-6.63422,6.63403h-3.74078c-.34521,0-.625.28027-.625.625v4c0,.34473.27979.625.625.625h4c.34521,0,.625-.28027.625-.625v-1.375h16.75v1.375c0,.34473.27979.625.625.625h4c.34521,0,.625-.28027.625-.625v-4c0-.34473-.27979-.625-.625-.625h-3.74078l-6.63422-6.63403v-1.11597h5.75v1.375c0,.34473.27979.625.625.625h4c.34521,0,.625-.28027.625-.625v-4c0-.34473-.27979-.625-.625-.625h-4c-.34521,0-.625.28027-.625.625v1.375h-5.75v-1.11572ZM8.375,19.375h-2.75v-2.75h2.75v2.75ZM27.625,16.625h2.75v2.75h-2.75v-2.75ZM16.625,19.375v-2.75h2.75v2.75h-2.75ZM27.625,5.625h2.75v2.75h-2.75v-2.75ZM26.375,7.625v1.11621l-6.63403,6.63379h-3.48193l-6.63403-6.63379v-1.11621h16.75ZM5.625,5.625h2.75v2.75h-2.75v-2.75ZM8.375,30.375h-2.75v-2.75h2.75v2.75ZM9.625,28.375v-1.11572l6.63428-6.63428h3.48169l6.63403,6.63379v1.11621H9.625ZM30.375,30.375h-2.75v-2.75h2.75v2.75Z"/></svg>