<svg xmlns="http://www.w3.org/2000/svg" viewBox="0 0 32 32">
  <title>Instagram sharing icon (square) - Standard</title>
<metadata><?xpacket begin="﻿" id="W5M0MpCehiHzreSzNTczkc9d"?>
<x:xmpmeta xmlns:x="adobe:ns:meta/" x:xmptk="Adobe XMP Core 8.0-c001 1.000000, 0000/00/00-00:00:00        ">
   <rdf:RDF xmlns:rdf="http://www.w3.org/1999/02/22-rdf-syntax-ns#">
      <rdf:Description rdf:about=""
            xmlns:xmp="http://ns.adobe.com/xap/1.0/"
            xmlns:dc="http://purl.org/dc/elements/1.1/"
            xmlns:cq="http://www.day.com/jcr/cq/1.0"
            xmlns:tiff="http://ns.adobe.com/tiff/1.0/">
         <xmp:rhcc-effective-on>2023-12-07T22:16:31.980Z</xmp:rhcc-effective-on>
         <xmp:rhcc-metadata-complete-moderator>pending</xmp:rhcc-metadata-complete-moderator>
         <xmp:rhcc-translation-id>TRA623b0fc3-ecac-4ba1-94a7-60d1684114c9</xmp:rhcc-translation-id>
         <xmp:brand-content-type>Icon</xmp:brand-content-type>
         <xmp:CreateDate>2023-12-07T22:16:31.980Z</xmp:CreateDate>
         <xmp:rhcc-aspect-ratio>square</xmp:rhcc-aspect-ratio>
         <xmp:rhcc-effective-on-set-on-upload>true</xmp:rhcc-effective-on-set-on-upload>
         <xmp:rhcc-published-asset-email-sent>true</xmp:rhcc-published-asset-email-sent>
         <xmp:rhcc-metadata-complete-uploader>pending</xmp:rhcc-metadata-complete-uploader>
         <xmp:rhcc-file-last-modified>2024-07-12T23:26:34.374Z</xmp:rhcc-file-last-modified>
         <xmp:rhcc-audience>rhcc-audience:internal</xmp:rhcc-audience>
         <xmp:rhcc-rights-restricted>no</xmp:rhcc-rights-restricted>
         <xmp:brand-content-subtype>Social sharing</xmp:brand-content-subtype>
         <xmp:rhcc-derivative-id>DER623b0fc3-ecac-4ba1-94a7-60d1684114c9</xmp:rhcc-derivative-id>
         <xmp:rhcc-uploaded-by>pmeilleu@redhat.com</xmp:rhcc-uploaded-by>
         <xmp:brand-logo-color>Standard</xmp:brand-logo-color>
         <xmp:rhcc-notify-portal-subscribers-on-change>yes</xmp:rhcc-notify-portal-subscribers-on-change>
         <dc:format>image/svg+xml</dc:format>
         <dc:modified>2024-02-09T20:38:06.981Z</dc:modified>
         <dc:title>
            <rdf:Alt>
               <rdf:li xml:lang="x-default">Instagram sharing icon (square) - Standard</rdf:li>
            </rdf:Alt>
         </dc:title>
         <cq:lastReplicationAction_scene7>Activate</cq:lastReplicationAction_scene7>
         <cq:lastReplicationAction_publish>Activate</cq:lastReplicationAction_publish>
         <cq:lastReplicated_publish>2024-10-02T19:49:04.798Z</cq:lastReplicated_publish>
         <cq:lastReplicatedBy>workflow-process-service</cq:lastReplicatedBy>
         <cq:lastReplicationAction>Activate</cq:lastReplicationAction>
         <cq:lastReplicatedBy_publish>workflow-process-service</cq:lastReplicatedBy_publish>
         <cq:isDelivered>false</cq:isDelivered>
         <cq:lastReplicated>2024-10-02T19:49:04.798Z</cq:lastReplicated>
         <cq:lastReplicatedBy_scene7>workflow-process-service</cq:lastReplicatedBy_scene7>
         <cq:lastReplicated_scene7>2024-10-02T19:49:04.798Z</cq:lastReplicated_scene7>
         <tiff:ImageLength>32</tiff:ImageLength>
         <tiff:ImageWidth>32</tiff:ImageWidth>
      </rdf:Description>
   </rdf:RDF>
</x:xmpmeta>
                                                                                                    
                                                                                                    
                                                                                                    
                                                                                                    
                                                                                                    
                                                                                                    
                                                                                                    
                                                                                                    
        
<?xpacket end="w"?></metadata>
<defs>
    <style>
      .b07add15-30d6-4d7e-9a42-193c57e7a79c {
        fill: #fff;
      }
    </style>
  </defs>
  <g id="b023d091-2adf-4757-9498-25b688adc77e" data-name="Instagram">
    <g id="bece6105-4a1e-47c2-ad83-2da983b09087" data-name="Black and white">
      <rect width="32" height="32" rx="1.19"/>
    </g>
    <g>
      <path class="b07add15-30d6-4d7e-9a42-193c57e7a79c" d="M16,6.09c-2.69,0-3,0-4.09.06a7.18,7.18,0,0,0-2.4.46,5,5,0,0,0-2.9,2.9,7.18,7.18,0,0,0-.46,2.4C6.1,13,6.09,13.31,6.09,16s0,3,.06,4.09a7.18,7.18,0,0,0,.46,2.4,5,5,0,0,0,2.9,2.9,7.18,7.18,0,0,0,2.4.46c1.06,0,1.4.06,4.09.06s3,0,4.09-.06a7.18,7.18,0,0,0,2.4-.46,5,5,0,0,0,2.9-2.9,7.18,7.18,0,0,0,.46-2.4c0-1.06.06-1.4.06-4.09s0-3-.06-4.09a7.18,7.18,0,0,0-.46-2.4,5,5,0,0,0-2.9-2.9,7.18,7.18,0,0,0-2.4-.46C19,6.1,18.69,6.09,16,6.09Zm0,1.79c2.65,0,3,0,4,0a5.73,5.73,0,0,1,1.84.34A3,3,0,0,1,23,9a3,3,0,0,1,.75,1.14A5.73,5.73,0,0,1,24.07,12c0,1,.05,1.35.05,4s0,3-.05,4a5.73,5.73,0,0,1-.34,1.84,3.38,3.38,0,0,1-1.89,1.89,5.73,5.73,0,0,1-1.84.34c-1,0-1.35.05-4,.05s-3,0-4-.05a5.73,5.73,0,0,1-1.84-.34A3,3,0,0,1,9,23a3,3,0,0,1-.75-1.14A5.73,5.73,0,0,1,7.93,20c0-1,0-1.35,0-4s0-3,0-4a5.73,5.73,0,0,1,.34-1.84A3,3,0,0,1,9,9a3,3,0,0,1,1.14-.75A5.73,5.73,0,0,1,12,7.93c1,0,1.35,0,4,0"/>
      <path class="b07add15-30d6-4d7e-9a42-193c57e7a79c" d="M16,19.3A3.3,3.3,0,1,1,19.3,16,3.3,3.3,0,0,1,16,19.3Zm0-8.39A5.09,5.09,0,1,0,21.09,16,5.09,5.09,0,0,0,16,10.91Z"/>
      <path class="b07add15-30d6-4d7e-9a42-193c57e7a79c" d="M22.48,10.71a1.19,1.19,0,1,1-1.19-1.19,1.19,1.19,0,0,1,1.19,1.19Z"/>
    </g>
  </g>
</svg>
