<svg xmlns="http://www.w3.org/2000/svg" viewBox="0 0 30 30">
  <title>Instagram sharing icon - Black</title>
<metadata><?xpacket begin="﻿" id="W5M0MpCehiHzreSzNTczkc9d"?>
<x:xmpmeta xmlns:x="adobe:ns:meta/" x:xmptk="Adobe XMP Core 8.0-c001 1.000000, 0000/00/00-00:00:00        ">
   <rdf:RDF xmlns:rdf="http://www.w3.org/1999/02/22-rdf-syntax-ns#">
      <rdf:Description rdf:about=""
            xmlns:xmp="http://ns.adobe.com/xap/1.0/"
            xmlns:dc="http://purl.org/dc/elements/1.1/"
            xmlns:cq="http://www.day.com/jcr/cq/1.0"
            xmlns:tiff="http://ns.adobe.com/tiff/1.0/">
         <xmp:rhcc-effective-on>2023-12-07T22:16:31.672Z</xmp:rhcc-effective-on>
         <xmp:rhcc-metadata-complete-moderator>pending</xmp:rhcc-metadata-complete-moderator>
         <xmp:rhcc-translation-id>TRA48d8673a-be35-42d9-89f2-85f0079b2fcc</xmp:rhcc-translation-id>
         <xmp:brand-content-type>Icon</xmp:brand-content-type>
         <xmp:CreateDate>2023-12-07T22:16:31.672Z</xmp:CreateDate>
         <xmp:rhcc-aspect-ratio>square</xmp:rhcc-aspect-ratio>
         <xmp:rhcc-effective-on-set-on-upload>true</xmp:rhcc-effective-on-set-on-upload>
         <xmp:rhcc-metadata-complete-uploader>pending</xmp:rhcc-metadata-complete-uploader>
         <xmp:rhcc-file-last-modified>2024-07-12T23:23:34.392Z</xmp:rhcc-file-last-modified>
         <xmp:rhcc-audience>rhcc-audience:internal</xmp:rhcc-audience>
         <xmp:rhcc-rights-restricted>no</xmp:rhcc-rights-restricted>
         <xmp:brand-content-subtype>Social sharing</xmp:brand-content-subtype>
         <xmp:rhcc-derivative-id>DER48d8673a-be35-42d9-89f2-85f0079b2fcc</xmp:rhcc-derivative-id>
         <xmp:rhcc-uploaded-by>pmeilleu@redhat.com</xmp:rhcc-uploaded-by>
         <xmp:brand-logo-color>Black</xmp:brand-logo-color>
         <xmp:rhcc-notify-portal-subscribers-on-change>yes</xmp:rhcc-notify-portal-subscribers-on-change>
         <dc:format>image/svg+xml</dc:format>
         <dc:modified>2024-02-09T20:38:07.105Z</dc:modified>
         <dc:title>
            <rdf:Alt>
               <rdf:li xml:lang="x-default">Instagram sharing icon - Black</rdf:li>
            </rdf:Alt>
         </dc:title>
         <cq:lastReplicationAction_scene7>Activate</cq:lastReplicationAction_scene7>
         <cq:lastReplicationAction_publish>Activate</cq:lastReplicationAction_publish>
         <cq:lastReplicated_publish>2024-10-02T19:49:05.248Z</cq:lastReplicated_publish>
         <cq:lastReplicatedBy>workflow-process-service</cq:lastReplicatedBy>
         <cq:lastReplicationAction>Activate</cq:lastReplicationAction>
         <cq:lastReplicatedBy_publish>workflow-process-service</cq:lastReplicatedBy_publish>
         <cq:isDelivered>false</cq:isDelivered>
         <cq:lastReplicated>2024-10-02T19:49:05.248Z</cq:lastReplicated>
         <cq:lastReplicatedBy_scene7>workflow-process-service</cq:lastReplicatedBy_scene7>
         <cq:lastReplicated_scene7>2024-10-02T19:49:05.248Z</cq:lastReplicated_scene7>
         <tiff:ImageLength>30</tiff:ImageLength>
         <tiff:ImageWidth>30</tiff:ImageWidth>
      </rdf:Description>
   </rdf:RDF>
</x:xmpmeta>
                                                                                                    
                                                                                                    
                                                                                                    
                                                                                                    
                                                                                                    
                                                                                                    
                                                                                                    
                                                                                                    
                                                                                                 
<?xpacket end="w"?></metadata>
<defs>
    <style>
      .b4da2196-6a8d-45b9-b0e7-f848043d0d4f {
        fill: none;
      }
    </style>
  </defs>
  <g id="bce5bc36-08a4-4c8e-a7b4-16ad86744a54" data-name="Instagram">
    <rect class="b4da2196-6a8d-45b9-b0e7-f848043d0d4f" width="30" height="30"/>
    <g>
      <path d="M15,4.4c-2.88,0-3.24,0-4.37.06A7.72,7.72,0,0,0,8.06,5,5.38,5.38,0,0,0,5,8.06a7.72,7.72,0,0,0-.5,2.57c0,1.13-.06,1.49-.06,4.37s0,3.24.06,4.37A7.72,7.72,0,0,0,5,21.94,5.38,5.38,0,0,0,8.06,25a7.72,7.72,0,0,0,2.57.5c1.13.05,1.49.06,4.37.06s3.24,0,4.37-.06a7.72,7.72,0,0,0,2.57-.5,5.38,5.38,0,0,0,3.1-3.1,7.72,7.72,0,0,0,.5-2.57c.05-1.13.06-1.49.06-4.37s0-3.24-.06-4.37A7.72,7.72,0,0,0,25,8.06,5.38,5.38,0,0,0,21.94,5a7.72,7.72,0,0,0-2.57-.5c-1.13,0-1.49-.06-4.37-.06Zm0,1.91c2.83,0,3.17,0,4.28.06a5.73,5.73,0,0,1,2,.37,3.47,3.47,0,0,1,2,2,5.73,5.73,0,0,1,.37,2c.05,1.11.06,1.45.06,4.28s0,3.17-.06,4.28a5.73,5.73,0,0,1-.37,2,3.47,3.47,0,0,1-2,2,5.73,5.73,0,0,1-2,.37c-1.11.05-1.45.06-4.28.06s-3.17,0-4.28-.06a5.73,5.73,0,0,1-2-.37,3.47,3.47,0,0,1-2-2,5.73,5.73,0,0,1-.37-2c0-1.11-.06-1.45-.06-4.28s0-3.17.06-4.28a5.73,5.73,0,0,1,.37-2,3.47,3.47,0,0,1,2-2,5.73,5.73,0,0,1,2-.37c1.11,0,1.45-.06,4.28-.06"/>
      <path d="M15,18.53A3.53,3.53,0,1,1,18.53,15,3.53,3.53,0,0,1,15,18.53Zm0-9A5.44,5.44,0,1,0,20.44,15,5.43,5.43,0,0,0,15,9.56Z"/>
      <path d="M21.93,9.34a1.27,1.27,0,1,1-1.27-1.27,1.27,1.27,0,0,1,1.27,1.27Z"/>
    </g>
  </g>
</svg>
