<svg xmlns="http://www.w3.org/2000/svg" viewBox="0 0 32 32">
  <title>Instagram sharing icon (square) - White</title>
<metadata><?xpacket begin="﻿" id="W5M0MpCehiHzreSzNTczkc9d"?>
<x:xmpmeta xmlns:x="adobe:ns:meta/" x:xmptk="Adobe XMP Core 8.0-c001 1.000000, 0000/00/00-00:00:00        ">
   <rdf:RDF xmlns:rdf="http://www.w3.org/1999/02/22-rdf-syntax-ns#">
      <rdf:Description rdf:about=""
            xmlns:xmp="http://ns.adobe.com/xap/1.0/"
            xmlns:dc="http://purl.org/dc/elements/1.1/"
            xmlns:cq="http://www.day.com/jcr/cq/1.0"
            xmlns:tiff="http://ns.adobe.com/tiff/1.0/">
         <xmp:rhcc-effective-on>2023-12-07T22:16:32.527Z</xmp:rhcc-effective-on>
         <xmp:rhcc-metadata-complete-moderator>pending</xmp:rhcc-metadata-complete-moderator>
         <xmp:rhcc-translation-id>TRA84613e91-38a4-475e-85c9-c25f56c4a524</xmp:rhcc-translation-id>
         <xmp:brand-content-type>Icon</xmp:brand-content-type>
         <xmp:CreateDate>2023-12-07T22:16:32.527Z</xmp:CreateDate>
         <xmp:rhcc-aspect-ratio>square</xmp:rhcc-aspect-ratio>
         <xmp:rhcc-effective-on-set-on-upload>true</xmp:rhcc-effective-on-set-on-upload>
         <xmp:rhcc-metadata-complete-uploader>pending</xmp:rhcc-metadata-complete-uploader>
         <xmp:rhcc-file-last-modified>2024-07-12T23:28:34.355Z</xmp:rhcc-file-last-modified>
         <xmp:rhcc-audience>rhcc-audience:internal</xmp:rhcc-audience>
         <xmp:rhcc-rights-restricted>no</xmp:rhcc-rights-restricted>
         <xmp:brand-content-subtype>Social sharing</xmp:brand-content-subtype>
         <xmp:rhcc-derivative-id>DER84613e91-38a4-475e-85c9-c25f56c4a524</xmp:rhcc-derivative-id>
         <xmp:rhcc-uploaded-by>pmeilleu@redhat.com</xmp:rhcc-uploaded-by>
         <xmp:brand-logo-color>White</xmp:brand-logo-color>
         <xmp:rhcc-notify-portal-subscribers-on-change>yes</xmp:rhcc-notify-portal-subscribers-on-change>
         <dc:format>image/svg+xml</dc:format>
         <dc:modified>2024-02-09T20:38:09.840Z</dc:modified>
         <dc:title>
            <rdf:Alt>
               <rdf:li xml:lang="x-default">Instagram sharing icon (square) - White</rdf:li>
            </rdf:Alt>
         </dc:title>
         <cq:lastReplicationAction_scene7>Activate</cq:lastReplicationAction_scene7>
         <cq:lastReplicationAction_publish>Activate</cq:lastReplicationAction_publish>
         <cq:lastReplicated_publish>2024-10-02T19:49:08.472Z</cq:lastReplicated_publish>
         <cq:lastReplicatedBy>workflow-process-service</cq:lastReplicatedBy>
         <cq:lastReplicationAction>Activate</cq:lastReplicationAction>
         <cq:lastReplicatedBy_publish>workflow-process-service</cq:lastReplicatedBy_publish>
         <cq:isDelivered>false</cq:isDelivered>
         <cq:lastReplicated>2024-10-02T19:49:08.472Z</cq:lastReplicated>
         <cq:lastReplicatedBy_scene7>workflow-process-service</cq:lastReplicatedBy_scene7>
         <cq:lastReplicated_scene7>2024-10-02T19:49:08.472Z</cq:lastReplicated_scene7>
         <tiff:ImageLength>32</tiff:ImageLength>
         <tiff:ImageWidth>32</tiff:ImageWidth>
      </rdf:Description>
   </rdf:RDF>
</x:xmpmeta>
                                                                                                    
                                                                                                    
                                                                                                    
                                                                                                    
                                                                                                    
                                                                                                    
                                                                                                    
                                                                                                    
                                                                                                 
<?xpacket end="w"?></metadata>
<defs>
    <style>
      .bbc52536-ef7a-401b-b7ac-0dfa8294606d {
        fill: #fff;
      }
    </style>
  </defs>
  <g id="ef8eba5a-4138-44bd-a227-b5292c6646ae" data-name="Instagram">
    <g>
      <path class="bbc52536-ef7a-401b-b7ac-0dfa8294606d" d="M16,12.7A3.3,3.3,0,1,0,19.3,16,3.3,3.3,0,0,0,16,12.7Z"/>
      <path class="bbc52536-ef7a-401b-b7ac-0dfa8294606d" d="M23.73,10.16A3,3,0,0,0,23,9a3,3,0,0,0-1.14-.75A5.73,5.73,0,0,0,20,7.93c-1,0-1.35,0-4,0s-3,0-4,0a5.73,5.73,0,0,0-1.84.34A3,3,0,0,0,9,9a3,3,0,0,0-.75,1.14A5.73,5.73,0,0,0,7.93,12c0,1,0,1.35,0,4s0,3,0,4a5.73,5.73,0,0,0,.34,1.84A3,3,0,0,0,9,23a3,3,0,0,0,1.14.75,5.73,5.73,0,0,0,1.84.34c1,0,1.35.05,4,.05s3,0,4-.05a5.73,5.73,0,0,0,1.84-.34,3.38,3.38,0,0,0,1.89-1.89A5.73,5.73,0,0,0,24.07,20c0-1,.05-1.35.05-4s0-3-.05-4A5.73,5.73,0,0,0,23.73,10.16ZM16,21.09A5.09,5.09,0,1,1,21.09,16,5.09,5.09,0,0,1,16,21.09Zm5.29-9.19a1.19,1.19,0,1,1,1.19-1.19A1.19,1.19,0,0,1,21.29,11.9Z"/>
      <path class="bbc52536-ef7a-401b-b7ac-0dfa8294606d" d="M30.81,0H1.19A1.19,1.19,0,0,0,0,1.19V30.81A1.19,1.19,0,0,0,1.19,32H30.81A1.19,1.19,0,0,0,32,30.81V1.19A1.19,1.19,0,0,0,30.81,0Zm-5,20.09a7.18,7.18,0,0,1-.46,2.4,5,5,0,0,1-2.9,2.9,7.18,7.18,0,0,1-2.4.46c-1.06,0-1.4.06-4.09.06s-3,0-4.09-.06a7.18,7.18,0,0,1-2.4-.46,5,5,0,0,1-2.9-2.9,7.18,7.18,0,0,1-.46-2.4C6.1,19,6.09,18.69,6.09,16s0-3,.06-4.09a7.18,7.18,0,0,1,.46-2.4,5,5,0,0,1,2.9-2.9,7.18,7.18,0,0,1,2.4-.46C13,6.1,13.31,6.09,16,6.09s3,0,4.09.06a7.18,7.18,0,0,1,2.4.46,5,5,0,0,1,2.9,2.9,7.18,7.18,0,0,1,.46,2.4c0,1.06.06,1.4.06,4.09S25.9,19,25.85,20.09Z"/>
    </g>
  </g>
</svg>
