<svg id="ae36323d-3d88-4afc-a2eb-f1488f6d9a05" data-name="Icon" xmlns="http://www.w3.org/2000/svg" viewBox="0 0 36 36">
  <title>Planning icon - White</title>
<desc>agile, team, meeting, projects, capacity, people and audiences</desc>
<metadata><?xpacket begin="﻿" id="W5M0MpCehiHzreSzNTczkc9d"?>
<x:xmpmeta xmlns:x="adobe:ns:meta/" x:xmptk="Adobe XMP Core 8.0-c001 1.000000, 0000/00/00-00:00:00        ">
   <rdf:RDF xmlns:rdf="http://www.w3.org/1999/02/22-rdf-syntax-ns#">
      <rdf:Description rdf:about=""
            xmlns:xmp="http://ns.adobe.com/xap/1.0/"
            xmlns:dc="http://purl.org/dc/elements/1.1/"
            xmlns:cq="http://www.day.com/jcr/cq/1.0"
            xmlns:tiff="http://ns.adobe.com/tiff/1.0/">
         <xmp:rhcc-effective-on>2023-12-08T17:34:02.391Z</xmp:rhcc-effective-on>
         <xmp:rhcc-metadata-complete-moderator>pending</xmp:rhcc-metadata-complete-moderator>
         <xmp:rhcc-translation-id>TRAf821d0a2-d2f0-4737-bf76-3eb1c762af99</xmp:rhcc-translation-id>
         <xmp:brand-content-type>Icon</xmp:brand-content-type>
         <xmp:CreateDate>2023-12-08T17:34:02.391Z</xmp:CreateDate>
         <xmp:rhcc-aspect-ratio>square</xmp:rhcc-aspect-ratio>
         <xmp:rhcc-effective-on-set-on-upload>true</xmp:rhcc-effective-on-set-on-upload>
         <xmp:rhcc-metadata-complete-uploader>pending</xmp:rhcc-metadata-complete-uploader>
         <xmp:rhcc-file-last-modified>2024-07-12T20:52:25.371Z</xmp:rhcc-file-last-modified>
         <xmp:rhcc-audience>rhcc-audience:internal</xmp:rhcc-audience>
         <xmp:brand-content-subtype>Icon</xmp:brand-content-subtype>
         <xmp:rhcc-rights-restricted>no</xmp:rhcc-rights-restricted>
         <xmp:rhcc-derivative-id>DERf821d0a2-d2f0-4737-bf76-3eb1c762af99</xmp:rhcc-derivative-id>
         <xmp:rhcc-uploaded-by>pmeilleu@redhat.com</xmp:rhcc-uploaded-by>
         <xmp:brand-logo-color>White</xmp:brand-logo-color>
         <xmp:rhcc-notify-portal-subscribers-on-change>yes</xmp:rhcc-notify-portal-subscribers-on-change>
         <dc:format>image/svg+xml</dc:format>
         <dc:modified>2024-02-09T20:22:40.642Z</dc:modified>
         <dc:title>
            <rdf:Alt>
               <rdf:li xml:lang="x-default">Planning icon - White</rdf:li>
            </rdf:Alt>
         </dc:title>
         <dc:description>
            <rdf:Alt>
               <rdf:li xml:lang="x-default">agile, team, meeting, projects, capacity, people and audiences</rdf:li>
            </rdf:Alt>
         </dc:description>
         <cq:lastReplicationAction_scene7>Activate</cq:lastReplicationAction_scene7>
         <cq:lastReplicationAction_publish>Activate</cq:lastReplicationAction_publish>
         <cq:lastReplicated_publish>2024-10-02T19:41:51.028Z</cq:lastReplicated_publish>
         <cq:lastReplicatedBy>workflow-process-service</cq:lastReplicatedBy>
         <cq:lastReplicationAction>Activate</cq:lastReplicationAction>
         <cq:lastReplicatedBy_publish>workflow-process-service</cq:lastReplicatedBy_publish>
         <cq:isDelivered>false</cq:isDelivered>
         <cq:lastReplicated>2024-10-02T19:41:51.028Z</cq:lastReplicated>
         <cq:lastReplicatedBy_scene7>workflow-process-service</cq:lastReplicatedBy_scene7>
         <cq:lastReplicated_scene7>2024-10-02T19:41:51.028Z</cq:lastReplicated_scene7>
         <tiff:ImageLength>36</tiff:ImageLength>
         <tiff:ImageWidth>36</tiff:ImageWidth>
      </rdf:Description>
   </rdf:RDF>
</x:xmpmeta>
                                                                                                    
                                                                                                    
                                                                                                    
                                                                                                    
                                                                                                    
                                                                                                    
                                                                                                    
                                                                                                    
                                                                                                 
<?xpacket end="w"?></metadata>
<defs>
    <style>
      .fe39ec89-8663-4d93-a635-1fa14e81cd92 {
        fill: #fff;
      }
    </style>
  </defs>
  <g>
    <path class="fe39ec89-8663-4d93-a635-1fa14e81cd92" d="M15,13.62h6a.62.62,0,0,0,.62-.62V7A.62.62,0,0,0,21,6.38H15a.62.62,0,0,0-.62.62v6A.62.62,0,0,0,15,13.62Zm.62-6h4.76v4.76H15.62Z"/>
    <path class="fe39ec89-8663-4d93-a635-1fa14e81cd92" d="M24,16.62h5a.62.62,0,0,0,.62-.62V11a.62.62,0,0,0-.62-.62H24a.62.62,0,0,0-.62.62v5A.62.62,0,0,0,24,16.62Zm.62-5h3.76v3.76H24.62Z"/>
    <path class="fe39ec89-8663-4d93-a635-1fa14e81cd92" d="M7,16.62h5a.62.62,0,0,0,.62-.62V11a.62.62,0,0,0-.62-.62H7a.62.62,0,0,0-.62.62v5A.62.62,0,0,0,7,16.62Zm.62-5h3.76v3.76H7.62Z"/>
    <path class="fe39ec89-8663-4d93-a635-1fa14e81cd92" d="M28.59,24.33a3.19,3.19,0,1,0-4.18,0,5.68,5.68,0,0,0-1,.63,5.52,5.52,0,0,0-3.26-4,3.18,3.18,0,1,0-4.24,0,5.52,5.52,0,0,0-3.26,4,5.68,5.68,0,0,0-1-.63,3.19,3.19,0,1,0-4.18,0,5.13,5.13,0,0,0-3,4.67.62.62,0,0,0,.62.62H31a.62.62,0,0,0,.62-.62A5.13,5.13,0,0,0,28.59,24.33Zm-4-2.4a2,2,0,0,1,3.9,0A2,2,0,0,1,24.55,21.93Zm1.95,3.19a3.88,3.88,0,0,1,3.81,3.26H22.69A3.88,3.88,0,0,1,26.5,25.12ZM16.05,18.57a2,2,0,0,1,3.9,0A2,2,0,0,1,16.05,18.57ZM18,21.77a4.24,4.24,0,0,1,4.23,4.4,5.1,5.1,0,0,0-.79,2.21H14.56a5.1,5.1,0,0,0-.79-2.21A4.24,4.24,0,0,1,18,21.77Zm-10.45.16a2,2,0,0,1,3.9,0A2,2,0,0,1,7.55,21.93Zm2,3.19a3.88,3.88,0,0,1,3.81,3.26H5.69A3.88,3.88,0,0,1,9.5,25.12Z"/>
  </g>
</svg>
