<svg id="f3e137ae-a1cd-4b61-8b88-e4d62af7f813" data-name="Icon" xmlns="http://www.w3.org/2000/svg" viewBox="0 0 36 36">
  <title>Money stack icon - Red</title>
<desc>dollars, yens, pounds, euros, bills, change, spend, pay, bank, amount, rich, wallet, profit, finance, fintech, financial, objects</desc>
<metadata><?xpacket begin="﻿" id="W5M0MpCehiHzreSzNTczkc9d"?>
<x:xmpmeta xmlns:x="adobe:ns:meta/" x:xmptk="Adobe XMP Core 8.0-c001 1.000000, 0000/00/00-00:00:00        ">
   <rdf:RDF xmlns:rdf="http://www.w3.org/1999/02/22-rdf-syntax-ns#">
      <rdf:Description rdf:about=""
            xmlns:xmp="http://ns.adobe.com/xap/1.0/"
            xmlns:dc="http://purl.org/dc/elements/1.1/"
            xmlns:cq="http://www.day.com/jcr/cq/1.0"
            xmlns:tiff="http://ns.adobe.com/tiff/1.0/">
         <xmp:rhcc-effective-on>2023-12-08T17:36:06.252Z</xmp:rhcc-effective-on>
         <xmp:rhcc-metadata-complete-moderator>pending</xmp:rhcc-metadata-complete-moderator>
         <xmp:rhcc-translation-id>TRA6b859388-479e-4688-8b48-0299ead68368</xmp:rhcc-translation-id>
         <xmp:brand-content-type>Icon</xmp:brand-content-type>
         <xmp:CreateDate>2023-12-08T17:36:06.252Z</xmp:CreateDate>
         <xmp:rhcc-aspect-ratio>square</xmp:rhcc-aspect-ratio>
         <xmp:rhcc-effective-on-set-on-upload>true</xmp:rhcc-effective-on-set-on-upload>
         <xmp:rhcc-published-asset-email-sent>true</xmp:rhcc-published-asset-email-sent>
         <xmp:rhcc-metadata-complete-uploader>pending</xmp:rhcc-metadata-complete-uploader>
         <xmp:rhcc-file-last-modified>2024-07-12T22:25:04.373Z</xmp:rhcc-file-last-modified>
         <xmp:rhcc-audience>rhcc-audience:internal</xmp:rhcc-audience>
         <xmp:brand-content-subtype>Icon</xmp:brand-content-subtype>
         <xmp:rhcc-rights-restricted>no</xmp:rhcc-rights-restricted>
         <xmp:rhcc-derivative-id>DER6b859388-479e-4688-8b48-0299ead68368</xmp:rhcc-derivative-id>
         <xmp:rhcc-uploaded-by>pmeilleu@redhat.com</xmp:rhcc-uploaded-by>
         <xmp:brand-logo-color>Red</xmp:brand-logo-color>
         <xmp:rhcc-notify-portal-subscribers-on-change>yes</xmp:rhcc-notify-portal-subscribers-on-change>
         <dc:format>image/svg+xml</dc:format>
         <dc:modified>2024-02-09T20:31:54.685Z</dc:modified>
         <dc:title>
            <rdf:Alt>
               <rdf:li xml:lang="x-default">Money stack icon - Red</rdf:li>
            </rdf:Alt>
         </dc:title>
         <dc:description>
            <rdf:Alt>
               <rdf:li xml:lang="x-default">dollars, yens, pounds, euros, bills, change, spend, pay, bank, amount, rich, wallet, profit, finance, fintech, financial, objects</rdf:li>
            </rdf:Alt>
         </dc:description>
         <cq:lastReplicationAction_scene7>Activate</cq:lastReplicationAction_scene7>
         <cq:lastReplicationAction_publish>Activate</cq:lastReplicationAction_publish>
         <cq:lastReplicated_publish>2024-10-02T19:39:28.270Z</cq:lastReplicated_publish>
         <cq:lastReplicatedBy>workflow-process-service</cq:lastReplicatedBy>
         <cq:lastReplicationAction>Activate</cq:lastReplicationAction>
         <cq:lastReplicatedBy_publish>workflow-process-service</cq:lastReplicatedBy_publish>
         <cq:isDelivered>false</cq:isDelivered>
         <cq:lastReplicated>2024-10-02T19:39:28.270Z</cq:lastReplicated>
         <cq:lastReplicatedBy_scene7>workflow-process-service</cq:lastReplicatedBy_scene7>
         <cq:lastReplicated_scene7>2024-10-02T19:39:28.270Z</cq:lastReplicated_scene7>
         <tiff:ImageLength>36</tiff:ImageLength>
         <tiff:ImageWidth>36</tiff:ImageWidth>
      </rdf:Description>
   </rdf:RDF>
</x:xmpmeta>
                                                                                                    
                                                                                                    
                                                                                                    
                                                                                                    
                                                                                                    
                                                                                                    
                                                                                                    
                                                                                                    
        
<?xpacket end="w"?></metadata>
<defs>
    <style>
      .a8fddbfd-17bf-4a8c-a9c8-6a36ab008a9f {
        fill: #e00;
      }
    </style>
  </defs>
  <g>
    <path class="a8fddbfd-17bf-4a8c-a9c8-6a36ab008a9f" d="M31,9.38H11a.62.62,0,0,0-.62.62V20a.62.62,0,0,0,.62.62H31a.62.62,0,0,0,.62-.62V10A.62.62,0,0,0,31,9.38Zm-.62,10H11.62V10.62H30.38Z"/>
    <path class="a8fddbfd-17bf-4a8c-a9c8-6a36ab008a9f" d="M28,22.38H8.62V13a.62.62,0,0,0-1.24,0V23a.62.62,0,0,0,.62.62H28a.62.62,0,0,0,0-1.24Z"/>
    <path class="a8fddbfd-17bf-4a8c-a9c8-6a36ab008a9f" d="M25,25.38H5.62V16a.62.62,0,0,0-1.24,0V26a.62.62,0,0,0,.62.62H25a.62.62,0,0,0,0-1.24Z"/>
    <path class="a8fddbfd-17bf-4a8c-a9c8-6a36ab008a9f" d="M21,17.62A2.62,2.62,0,1,0,18.38,15,2.62,2.62,0,0,0,21,17.62Zm0-4A1.38,1.38,0,1,1,19.62,15,1.38,1.38,0,0,1,21,13.62Z"/>
    <circle class="a8fddbfd-17bf-4a8c-a9c8-6a36ab008a9f" cx="26" cy="15" r="0.62"/>
    <path class="a8fddbfd-17bf-4a8c-a9c8-6a36ab008a9f" d="M16,15.63a.63.63,0,1,0-.62-.63A.63.63,0,0,0,16,15.63Z"/>
  </g>
</svg>
