<?xml version="1.0" encoding="UTF-8"?>
<svg id="Icon" xmlns="http://www.w3.org/2000/svg" viewBox="0 0 36 36">
  <title>Call to action icon</title>
<desc>action, CTA, sign up, register, click, buy, now, button, conversion, prompt, engagement</desc>
<metadata><?xpacket begin="﻿" id="W5M0MpCehiHzreSzNTczkc9d"?>
<x:xmpmeta xmlns:x="adobe:ns:meta/" x:xmptk="Adobe XMP Core 8.0-c001 1.000000, 0000/00/00-00:00:00        ">
   <rdf:RDF xmlns:rdf="http://www.w3.org/1999/02/22-rdf-syntax-ns#">
      <rdf:Description rdf:about=""
            xmlns:dc="http://purl.org/dc/elements/1.1/"
            xmlns:tiff="http://ns.adobe.com/tiff/1.0/"
            xmlns:xmp="http://ns.adobe.com/xap/1.0/">
         <dc:modified>2025-08-13T14:46:13.631Z</dc:modified>
         <dc:format>image/svg+xml</dc:format>
         <dc:description>
            <rdf:Alt>
               <rdf:li xml:lang="x-default">action, CTA, sign up, register, click, buy, now, button, conversion, prompt, engagement</rdf:li>
            </rdf:Alt>
         </dc:description>
         <dc:title>
            <rdf:Alt>
               <rdf:li xml:lang="x-default">Call to action icon</rdf:li>
            </rdf:Alt>
         </dc:title>
         <tiff:ImageLength>36</tiff:ImageLength>
         <tiff:ImageWidth>36</tiff:ImageWidth>
         <xmp:rhcc-rights-restricted>no</xmp:rhcc-rights-restricted>
         <xmp:brand-content-subtype>Icon</xmp:brand-content-subtype>
         <xmp:rhcc-file-last-modified>2025-08-13T14:41:53.979Z</xmp:rhcc-file-last-modified>
         <xmp:brand-content-type>Icon</xmp:brand-content-type>
         <xmp:brand-colorway>
            <rdf:Bag>
               <rdf:li>colorway:white</rdf:li>
            </rdf:Bag>
         </xmp:brand-colorway>
      </rdf:Description>
   </rdf:RDF>
</x:xmpmeta>
                                                                                                    
                                                                                                    
                                                                                                    
                                                                                                    
                                                                                                    
                                                                                                    
                                                                                                    
                                                                                                    
                                                                                                    
                                                                                                    
                                                                                                    
                                                                                                    
                                                                                                    
                                                                                                    
                                                                                                    
                                                                                                    
                                                                                                    
                                                                                                    
                                                                              
<?xpacket end="w"?></metadata>
<defs>
    <style>
      .cls-1 {
        fill: #fff;
      }
    </style>
  </defs>
  <path class="cls-1" d="M31,11.38H5c-.35,0-.62.28-.62.62v10c0,.34.28.62.62.62h9c.35,0,.62-.28.62-.62s-.28-.62-.62-.62H5.62v-8.75h24.75v8.75h-5.37l1.43-1.43c.34-.32.17-.95-.29-1.05,0,0-10-2.5-10-2.5-.21-.05-.44,0-.59.16-.16.16-.22.38-.16.59l2.5,10c.1.46.72.63,1.05.29,0,0,2.06-2.06,2.06-2.06l2.06,2.06c.24.24.64.24.88,0l2.5-2.5c.24-.24.24-.64,0-.88l-1.43-1.43h5.99c.35,0,.62-.28.62-.62v-10c0-.34-.28-.62-.62-.62ZM23.5,26.12l-2.06-2.06c-.12-.12-.28-.18-.44-.18s-.32.06-.44.18l-1.72,1.72-1.98-7.92,7.92,1.98c-.09.11-1.88,1.81-1.85,1.92-.1.23-.03.5.13.68,0,0,2.06,2.06,2.06,2.06l-1.62,1.62Z"/>
</svg>