<svg xmlns="http://www.w3.org/2000/svg" viewBox="0 0 30 30">
  <title>WhatsApp sharing icon - Black</title>
<metadata><?xpacket begin="﻿" id="W5M0MpCehiHzreSzNTczkc9d"?>
<x:xmpmeta xmlns:x="adobe:ns:meta/" x:xmptk="Adobe XMP Core 8.0-c001 1.000000, 0000/00/00-00:00:00        ">
   <rdf:RDF xmlns:rdf="http://www.w3.org/1999/02/22-rdf-syntax-ns#">
      <rdf:Description rdf:about=""
            xmlns:xmp="http://ns.adobe.com/xap/1.0/"
            xmlns:dc="http://purl.org/dc/elements/1.1/"
            xmlns:cq="http://www.day.com/jcr/cq/1.0"
            xmlns:tiff="http://ns.adobe.com/tiff/1.0/">
         <xmp:rhcc-effective-on>2023-12-07T22:16:47.397Z</xmp:rhcc-effective-on>
         <xmp:rhcc-metadata-complete-moderator>pending</xmp:rhcc-metadata-complete-moderator>
         <xmp:rhcc-translation-id>TRA4a22cee7-189a-4ea9-8a88-f0e02d13617d</xmp:rhcc-translation-id>
         <xmp:brand-content-type>Icon</xmp:brand-content-type>
         <xmp:CreateDate>2023-12-07T22:16:47.397Z</xmp:CreateDate>
         <xmp:rhcc-aspect-ratio>square</xmp:rhcc-aspect-ratio>
         <xmp:rhcc-effective-on-set-on-upload>true</xmp:rhcc-effective-on-set-on-upload>
         <xmp:rhcc-metadata-complete-uploader>pending</xmp:rhcc-metadata-complete-uploader>
         <xmp:rhcc-file-last-modified>2024-07-12T23:32:25.365Z</xmp:rhcc-file-last-modified>
         <xmp:rhcc-audience>rhcc-audience:internal</xmp:rhcc-audience>
         <xmp:rhcc-rights-restricted>no</xmp:rhcc-rights-restricted>
         <xmp:brand-content-subtype>Social sharing</xmp:brand-content-subtype>
         <xmp:rhcc-derivative-id>DER4a22cee7-189a-4ea9-8a88-f0e02d13617d</xmp:rhcc-derivative-id>
         <xmp:rhcc-uploaded-by>pmeilleu@redhat.com</xmp:rhcc-uploaded-by>
         <xmp:brand-logo-color>Black</xmp:brand-logo-color>
         <xmp:rhcc-notify-portal-subscribers-on-change>yes</xmp:rhcc-notify-portal-subscribers-on-change>
         <dc:format>image/svg+xml</dc:format>
         <dc:modified>2024-02-09T20:38:38.789Z</dc:modified>
         <dc:title>
            <rdf:Alt>
               <rdf:li xml:lang="x-default">WhatsApp sharing icon - Black</rdf:li>
            </rdf:Alt>
         </dc:title>
         <cq:lastReplicationAction_scene7>Activate</cq:lastReplicationAction_scene7>
         <cq:lastReplicationAction_publish>Activate</cq:lastReplicationAction_publish>
         <cq:lastReplicated_publish>2024-10-02T19:49:58.813Z</cq:lastReplicated_publish>
         <cq:lastReplicatedBy>workflow-process-service</cq:lastReplicatedBy>
         <cq:lastReplicationAction>Activate</cq:lastReplicationAction>
         <cq:lastReplicatedBy_publish>workflow-process-service</cq:lastReplicatedBy_publish>
         <cq:isDelivered>false</cq:isDelivered>
         <cq:lastReplicated>2024-10-02T19:49:58.813Z</cq:lastReplicated>
         <cq:lastReplicatedBy_scene7>workflow-process-service</cq:lastReplicatedBy_scene7>
         <cq:lastReplicated_scene7>2024-10-02T19:49:58.813Z</cq:lastReplicated_scene7>
         <tiff:ImageLength>30</tiff:ImageLength>
         <tiff:ImageWidth>30</tiff:ImageWidth>
      </rdf:Description>
   </rdf:RDF>
</x:xmpmeta>
                                                                                                    
                                                                                                    
                                                                                                    
                                                                                                    
                                                                                                    
                                                                                                    
                                                                                                    
                                                                                                    
                                                                                                 
<?xpacket end="w"?></metadata>
<defs>
    <style>
      .fa2b6a79-20fb-4cdb-90e5-fa5e291fbded {
        fill: none;
      }

      .f07da8cf-fac2-45ec-bbd2-be92db4021ba {
        fill-rule: evenodd;
      }
    </style>
  </defs>
  <g id="b87cec55-2676-406f-a1db-093f27628edd" data-name="WhatsApp">
    <rect class="fa2b6a79-20fb-4cdb-90e5-fa5e291fbded" width="30" height="30"/>
    <g id="ea6206a4-c55e-4ea6-ad69-8edc200baa08" data-name="WA Logo">
      <path class="f07da8cf-fac2-45ec-bbd2-be92db4021ba" d="M22.77,7.19A10.92,10.92,0,0,0,5.59,20.36L4,26l5.79-1.52A10.85,10.85,0,0,0,15,25.82h0A10.92,10.92,0,0,0,22.77,7.19ZM15.05,24h0a9,9,0,0,1-4.61-1.27l-.34-.19-3.43.9.92-3.35-.22-.34A9,9,0,0,1,6,14.9,9.07,9.07,0,1,1,15.05,24Zm5-6.79c-.27-.14-1.61-.8-1.86-.89s-.43-.14-.62.14-.7.88-.86,1.06-.32.21-.59.07a7.25,7.25,0,0,1-2.19-1.35,8.3,8.3,0,0,1-1.52-1.89c-.16-.27,0-.42.12-.56s.27-.31.41-.47a1.79,1.79,0,0,0,.27-.46.51.51,0,0,0,0-.48c-.07-.13-.61-1.48-.84-2s-.45-.46-.62-.47h-.52a1,1,0,0,0-.72.34,3.07,3.07,0,0,0-1,2.28,5.36,5.36,0,0,0,1.11,2.82,12.34,12.34,0,0,0,4.66,4.12,16.42,16.42,0,0,0,1.56.57,3.68,3.68,0,0,0,1.71.11,2.78,2.78,0,0,0,1.84-1.3,2.25,2.25,0,0,0,.16-1.3C20.48,17.39,20.29,17.32,20,17.19Z"/>
    </g>
  </g>
</svg>
