<svg xmlns="http://www.w3.org/2000/svg" viewBox="0 0 32 32">
  <title>WhatsApp sharing icon (square) - White</title>
<metadata><?xpacket begin="﻿" id="W5M0MpCehiHzreSzNTczkc9d"?>
<x:xmpmeta xmlns:x="adobe:ns:meta/" x:xmptk="Adobe XMP Core 8.0-c001 1.000000, 0000/00/00-00:00:00        ">
   <rdf:RDF xmlns:rdf="http://www.w3.org/1999/02/22-rdf-syntax-ns#">
      <rdf:Description rdf:about=""
            xmlns:xmp="http://ns.adobe.com/xap/1.0/"
            xmlns:dc="http://purl.org/dc/elements/1.1/"
            xmlns:cq="http://www.day.com/jcr/cq/1.0"
            xmlns:tiff="http://ns.adobe.com/tiff/1.0/">
         <xmp:rhcc-effective-on>2023-12-07T22:16:49.004Z</xmp:rhcc-effective-on>
         <xmp:rhcc-metadata-complete-moderator>pending</xmp:rhcc-metadata-complete-moderator>
         <xmp:rhcc-translation-id>TRA96cd5b6e-74c0-40c7-b727-312c11eb10f8</xmp:rhcc-translation-id>
         <xmp:brand-content-type>Icon</xmp:brand-content-type>
         <xmp:CreateDate>2023-12-07T22:16:49.004Z</xmp:CreateDate>
         <xmp:rhcc-aspect-ratio>square</xmp:rhcc-aspect-ratio>
         <xmp:rhcc-effective-on-set-on-upload>true</xmp:rhcc-effective-on-set-on-upload>
         <xmp:rhcc-published-asset-email-sent>true</xmp:rhcc-published-asset-email-sent>
         <xmp:rhcc-metadata-complete-uploader>pending</xmp:rhcc-metadata-complete-uploader>
         <xmp:rhcc-file-last-modified>2024-07-12T23:42:28.346Z</xmp:rhcc-file-last-modified>
         <xmp:rhcc-audience>rhcc-audience:internal</xmp:rhcc-audience>
         <xmp:rhcc-rights-restricted>no</xmp:rhcc-rights-restricted>
         <xmp:brand-content-subtype>Social sharing</xmp:brand-content-subtype>
         <xmp:rhcc-derivative-id>DER96cd5b6e-74c0-40c7-b727-312c11eb10f8</xmp:rhcc-derivative-id>
         <xmp:rhcc-uploaded-by>pmeilleu@redhat.com</xmp:rhcc-uploaded-by>
         <xmp:brand-logo-color>White</xmp:brand-logo-color>
         <xmp:rhcc-notify-portal-subscribers-on-change>yes</xmp:rhcc-notify-portal-subscribers-on-change>
         <dc:format>image/svg+xml</dc:format>
         <dc:modified>2024-02-09T20:38:37.882Z</dc:modified>
         <dc:title>
            <rdf:Alt>
               <rdf:li xml:lang="x-default">WhatsApp sharing icon (square) - White</rdf:li>
            </rdf:Alt>
         </dc:title>
         <cq:lastReplicationAction_scene7>Activate</cq:lastReplicationAction_scene7>
         <cq:lastReplicationAction_publish>Activate</cq:lastReplicationAction_publish>
         <cq:lastReplicated_publish>2024-10-02T19:49:40.621Z</cq:lastReplicated_publish>
         <cq:lastReplicatedBy>workflow-process-service</cq:lastReplicatedBy>
         <cq:lastReplicationAction>Activate</cq:lastReplicationAction>
         <cq:lastReplicatedBy_publish>workflow-process-service</cq:lastReplicatedBy_publish>
         <cq:isDelivered>false</cq:isDelivered>
         <cq:lastReplicated>2024-10-02T19:49:40.621Z</cq:lastReplicated>
         <cq:lastReplicatedBy_scene7>workflow-process-service</cq:lastReplicatedBy_scene7>
         <cq:lastReplicated_scene7>2024-10-02T19:49:40.621Z</cq:lastReplicated_scene7>
         <tiff:ImageLength>32</tiff:ImageLength>
         <tiff:ImageWidth>32</tiff:ImageWidth>
      </rdf:Description>
   </rdf:RDF>
</x:xmpmeta>
                                                                                                    
                                                                                                    
                                                                                                    
                                                                                                    
                                                                                                    
                                                                                                    
                                                                                                    
                                                                                                    
        
<?xpacket end="w"?></metadata>
<defs>
    <style>
      .be53e602-ceda-44f5-9915-bd5079999c6a {
        fill: #fff;
        fill-rule: evenodd;
      }
    </style>
  </defs>
  <g id="ba50dea9-d934-45ab-9be9-85c13e76f3ad" data-name="WhatsApp">
    <g>
      <path class="be53e602-ceda-44f5-9915-bd5079999c6a" d="M30.81,0H1.19A1.19,1.19,0,0,0,0,1.19V30.81A1.19,1.19,0,0,0,1.19,32H30.81A1.19,1.19,0,0,0,32,30.81V1.19A1.19,1.19,0,0,0,30.81,0ZM16.49,26.33h0a10.54,10.54,0,0,1-5-1.28L5.9,26.51l1.49-5.44a10.5,10.5,0,1,1,9.1,5.26Z"/>
      <path class="be53e602-ceda-44f5-9915-bd5079999c6a" d="M16.49,7.09a8.74,8.74,0,0,0-8.73,8.73A8.65,8.65,0,0,0,9.1,20.46l.2.33L8.42,24l3.3-.86.32.19a8.77,8.77,0,0,0,4.45,1.21h0a8.73,8.73,0,0,0,0-17.46Zm5.14,12.48a2.74,2.74,0,0,1-1.78,1.25,3.56,3.56,0,0,1-1.65-.11,14.36,14.36,0,0,1-1.49-.55,11.83,11.83,0,0,1-4.49-4,5.12,5.12,0,0,1-1.07-2.71,2.92,2.92,0,0,1,.92-2.19,1,1,0,0,1,.7-.33h.5c.16,0,.38-.06.59.45l.81,2a.49.49,0,0,1,0,.46,1.94,1.94,0,0,1-.27.43,4.9,4.9,0,0,1-.39.46c-.13.13-.27.28-.12.54a8.27,8.27,0,0,0,1.46,1.82,7.33,7.33,0,0,0,2.11,1.3c.27.13.42.11.57-.07a10.6,10.6,0,0,0,.83-1c.18-.26.35-.22.59-.13s1.53.72,1.8.86.43.19.5.3A2.33,2.33,0,0,1,21.63,19.57Z"/>
    </g>
  </g>
</svg>
