<?xml version="1.0" encoding="UTF-8"?><svg id="uuid-96deabcb-2dd3-4457-8a43-5d7e9e78d321" xmlns="http://www.w3.org/2000/svg" width="36" height="36" viewBox="0 0 36 36"><title>Oil derrick icon</title>
<desc>oil, rig, oil rig, drilling, petroleum, energy, fossil fuel, gas, natural gas, pump, pumpjack, well, oil well, extraction, tower, industry, fuel, crude, platform, refinery</desc>
<metadata><?xpacket begin="﻿" id="W5M0MpCehiHzreSzNTczkc9d"?>
<x:xmpmeta xmlns:x="adobe:ns:meta/" x:xmptk="Adobe XMP Core 8.0-c001 1.000000, 0000/00/00-00:00:00        ">
   <rdf:RDF xmlns:rdf="http://www.w3.org/1999/02/22-rdf-syntax-ns#">
      <rdf:Description rdf:about=""
            xmlns:dc="http://purl.org/dc/elements/1.1/"
            xmlns:tiff="http://ns.adobe.com/tiff/1.0/"
            xmlns:xmp="http://ns.adobe.com/xap/1.0/">
         <dc:modified>2025-11-04T18:06:28.490Z</dc:modified>
         <dc:format>image/svg+xml</dc:format>
         <dc:description>
            <rdf:Alt>
               <rdf:li xml:lang="x-default">oil, rig, oil rig, drilling, petroleum, energy, fossil fuel, gas, natural gas, pump, pumpjack, well, oil well, extraction, tower, industry, fuel, crude, platform, refinery</rdf:li>
            </rdf:Alt>
         </dc:description>
         <dc:title>
            <rdf:Alt>
               <rdf:li xml:lang="x-default">Oil derrick icon</rdf:li>
            </rdf:Alt>
         </dc:title>
         <tiff:ImageLength>36</tiff:ImageLength>
         <tiff:ImageWidth>36</tiff:ImageWidth>
         <xmp:rhcc-rights-restricted>no</xmp:rhcc-rights-restricted>
         <xmp:brand-content-subtype>Icon</xmp:brand-content-subtype>
         <xmp:rhcc-file-last-modified>2025-11-07T22:04:55.331Z</xmp:rhcc-file-last-modified>
         <xmp:brand-content-type>Icon</xmp:brand-content-type>
         <xmp:brand-colorway>
            <rdf:Bag>
               <rdf:li>colorway:red</rdf:li>
            </rdf:Bag>
         </xmp:brand-colorway>
      </rdf:Description>
   </rdf:RDF>
</x:xmpmeta>
                                                                                                    
                                                                                                    
                                                                                                    
                                                                                                    
                                                                                                    
                                                                                                    
                                                                                                    
                                                                                                    
                                                                                                    
                                                                                                    
                                                                                                    
                                                                                                    
                                                                                                    
                                                                                                    
                                                                                                    
                                                                                                    
                                                                                                    
                                                                                                    
                                                                                                    
                                                                                                    
                           
<?xpacket end="w"?></metadata>
<defs><style>.uuid-0020db76-328d-4ed1-93e8-fcd213cb5bab{fill:#e00;}</style></defs><path class="uuid-0020db76-328d-4ed1-93e8-fcd213cb5bab" d="M31,30.375h-3.375v-2.375c0-.34473-.27979-.625-.625-.625h-.59442l-4.44727-9.98859c-.00024-.00061-.00055-.00116-.00079-.00171l-.78351-1.7597h.82599c.34521,0,.625-.28027.625-.625v-3c0-.34473-.27979-.625-.625-.625h-3.21765c.22852-.44305.68567-.75,1.21765-.75h3c1.44727,0,2.625-1.17773,2.625-2.625v-3c0-.34521-.27979-.625-.625-.625s-.625.27979-.625.625c0,.7583-.6167,1.375-1.375,1.375h-3c-1.44727,0-2.625,1.17773-2.625,2.625v2.375h-3.375c-.34521,0-.625.28027-.625.625v3c0,.34473.27979.625.625.625h.82599l-.78351,1.7597c-.00024.00055-.00055.0011-.00079.00171l-4.44727,9.98859h-.59442c-.34521,0-.625.28027-.625.625v2.375h-3.375c-.34521,0-.625.28027-.625.625s.27979.625.625.625h26c.34521,0,.625-.28027.625-.625s-.27979-.625-.625-.625ZM22.375,28v2.375h-3.75v-7.86572l4.86572,4.86572h-.49072c-.34521,0-.625.28027-.625.625ZM13,27.375h-.49072l4.86572-4.86572v7.86572h-3.75v-2.375c0-.34473-.27979-.625-.625-.625ZM14.82184,18.70612l2.29388,2.29388-5.97589,5.97589,3.68201-8.26978ZM24.86017,26.97589l-5.97589-5.97589,2.29388-2.29388,3.68201,8.26978ZM20.6333,17.48242l-2.0083,2.0083v-3.86572h1.18134l.82697,1.85742ZM20,7.625h3c.50555,0,.97394-.15051,1.375-.39923v.77423c0,.75781-.6167,1.375-1.375,1.375h-3c-.50555,0-.97394.15051-1.375.39923v-.77423c0-.75781.6167-1.375,1.375-1.375ZM14.625,12.625h6.75v1.75h-6.75v-1.75ZM17.375,15.625v3.86572l-2.0083-2.0083.82697-1.85742h1.18134ZM9.625,30.375v-1.75h2.75v1.75h-2.75ZM23.625,30.375v-1.75h2.75v1.75h-2.75Z"/></svg>