<?xml version="1.0" encoding="UTF-8"?><svg id="uuid-de3f67b4-ca11-4ccf-a3aa-10bdb4bc3fbf" xmlns="http://www.w3.org/2000/svg" width="36" height="36" viewBox="0 0 36 36"><title>Tea kettle icon</title>
<desc>tea, kettle, hot liquids, boil, waste, GWS, signage</desc>
<metadata><?xpacket begin="﻿" id="W5M0MpCehiHzreSzNTczkc9d"?>
<x:xmpmeta xmlns:x="adobe:ns:meta/" x:xmptk="Adobe XMP Core 8.0-c001 1.000000, 0000/00/00-00:00:00        ">
   <rdf:RDF xmlns:rdf="http://www.w3.org/1999/02/22-rdf-syntax-ns#">
      <rdf:Description rdf:about=""
            xmlns:xmp="http://ns.adobe.com/xap/1.0/"
            xmlns:tiff="http://ns.adobe.com/tiff/1.0/"
            xmlns:dc="http://purl.org/dc/elements/1.1/">
         <xmp:brand-content-subtype>Icon</xmp:brand-content-subtype>
         <xmp:rhcc-rights-restricted>no</xmp:rhcc-rights-restricted>
         <xmp:brand-content-type>Icon</xmp:brand-content-type>
         <xmp:rhcc-file-last-modified>2025-09-11T00:32:26.742Z</xmp:rhcc-file-last-modified>
         <xmp:brand-colorway>
            <rdf:Bag>
               <rdf:li>colorway:white</rdf:li>
            </rdf:Bag>
         </xmp:brand-colorway>
         <tiff:ImageLength>36</tiff:ImageLength>
         <tiff:ImageWidth>36</tiff:ImageWidth>
         <dc:modified>2025-09-11T00:39:00.964Z</dc:modified>
         <dc:format>image/svg+xml</dc:format>
         <dc:description>
            <rdf:Alt>
               <rdf:li xml:lang="x-default">tea, kettle, hot liquids, boil, waste, GWS, signage</rdf:li>
            </rdf:Alt>
         </dc:description>
         <dc:title>
            <rdf:Alt>
               <rdf:li xml:lang="x-default">Tea kettle icon</rdf:li>
            </rdf:Alt>
         </dc:title>
      </rdf:Description>
   </rdf:RDF>
</x:xmpmeta>
                                                                                                    
                                                                                                    
                                                                                                    
                                                                                                    
                                                                                                    
                                                                                                    
                                                                                                    
                                                                                                    
                                                                                                    
                                                                                                    
                                                                                                    
                                                                                                    
                                                                                                    
                                                                                                    
                                                                                                    
                                                                                                    
                                                                                                    
                                                                                                    
                                                                              
<?xpacket end="w"?></metadata>
<defs><style>.uuid-72df6b85-7f96-4c8d-ad6a-e0779c20d171{fill:#fff;}</style></defs><path class="uuid-72df6b85-7f96-4c8d-ad6a-e0779c20d171" d="M30.03308,14.01947c-.00879-.00989-.0119-.02264-.02136-.03217-.0069-.00684-.01624-.00897-.02332-.01544-.47821-.54047-1.00537-1.04565-1.59875-1.49139-.28516-.21387-.69238-.1582-.9082.12891-.21533.28613-.15723.69336.12891.9082.37421.28113.71356.5929,1.03619.91797l-1.44635,1.44666c-.35364-.45605-.73761-.88574-1.15375-1.28436-.0379-.04681-.08167-.08441-.13104-.11914-1.9314-1.79535-4.46649-2.93896-7.26697-3.0943v-1.73596h1.35156c.3584,0,.64844-.29004.64844-.64844s-.29004-.64844-.64844-.64844h-4c-.3584,0-.64844.29004-.64844.64844s.29004.64844.64844.64844h1.35156v1.73596c-2.80048.15533-5.33557,1.29895-7.26697,3.0943-.04938.03473-.09314.07233-.13104.11914-.07471.07153-.15289.1391-.22565.21259l-1.26941-1.26941c-.12158-.12109-.28662-.18945-.4585-.18945h-4c-.02362,0-.04364.01099-.06659.01343-.04541.00464-.08838.01227-.13251.02673-.04236.01392-.08002.03241-.11804.05432-.02081.0119-.04437.01501-.06421.02954-.01379.01001-.02045.02521-.0332.03607-.03442.02924-.06232.06213-.09003.0979-.02502.03241-.04883.06348-.06702.09943-.01819.03558-.0293.07281-.04071.11188-.01276.0437-.02301.08582-.02643.13116-.00128.01672-.0097.03094-.0097.04797,0,.02417.01117.04462.01373.06812.00464.04462.01215.08685.02625.13019.01385.04248.03235.08032.0542.11841.01184.02081.01489.04431.02936.06415l3.51758,4.84137c-.40857,1.18658-.64111,2.45422-.64111,3.77777,0,1.07812.14746,2.14648.43848,3.17676.00378.01349.01385.02277.01843.03583.01514.04303.03748.08002.06091.11835.021.03436.03955.0686.06604.09796.02832.03162.06183.05524.09583.08081.03259.02435.06281.04901.09924.06689.03668.01813.07599.0271.11621.03809.0423.0116.08295.02283.12732.0257.01398.00092.02582.00806.04004.00806h21.17188c.00006,0,.00012-.00006.00018-.00006.00012,0,.00018.00006.00031.00006.0802,0,.15686-.01843.22986-.04645.02496-.00958.0459-.0238.06927-.03619.04529-.02399.08728-.05084.12585-.08484.02173-.01923.04034-.03931.05933-.06122.03198-.03674.05823-.07684.08154-.12097.0141-.02661.02777-.05194.03809-.08063.00531-.01465.01532-.02618.01959-.04138.29102-1.03027.43848-2.09863.43848-3.17676,0-2.20862-.62921-4.26813-1.70123-6.02985l1.54724-1.54749c1.19061,1.59155,1.85712,3.52246,1.85712,5.57733,0,.3584.29004.64844.64844.64844s.64844-.29004.64844-.64844c0-2.61737-.93933-5.06305-2.61536-6.98053ZM18,12.64844c2.09436,0,4.04236.62964,5.67328,1.70312h-11.34656c1.63092-1.07349,3.57892-1.70312,5.67328-1.70312ZM5.27277,14.64844h2.45868l1.13904,1.13934c-.49823.62933-.92889,1.31183-1.29034,2.03638l-2.30737-3.17572ZM28.06049,25.35156H7.93951c-.17889-.76965-.29108-1.55548-.29108-2.35156,0-2.8728,1.17792-5.4743,3.0741-7.35156h14.55493c1.89618,1.87726,3.0741,4.47876,3.0741,7.35156,0,.79608-.11218,1.58191-.29108,2.35156Z"/></svg>