<?xml version="1.0" encoding="UTF-8"?><svg id="uuid-aaec9296-01db-40fe-b2c5-d33700429cc0" xmlns="http://www.w3.org/2000/svg" viewBox="0 0 38 38"><title>Red Hat build of Quarkus icon</title>
<desc>Application services</desc>
<metadata><?xpacket begin="﻿" id="W5M0MpCehiHzreSzNTczkc9d"?>
<x:xmpmeta xmlns:x="adobe:ns:meta/" x:xmptk="Adobe XMP Core 8.0-c001 1.000000, 0000/00/00-00:00:00        ">
   <rdf:RDF xmlns:rdf="http://www.w3.org/1999/02/22-rdf-syntax-ns#">
      <rdf:Description rdf:about=""
            xmlns:xmp="http://ns.adobe.com/xap/1.0/"
            xmlns:dc="http://purl.org/dc/elements/1.1/"
            xmlns:cq="http://www.day.com/jcr/cq/1.0"
            xmlns:tiff="http://ns.adobe.com/tiff/1.0/"
            xmlns:xmpRights="http://ns.adobe.com/xap/1.0/rights/">
         <xmp:rhcc-effective-on>2024-03-01T15:27:58.815Z</xmp:rhcc-effective-on>
         <xmp:rhcc-metadata-complete-moderator>pending</xmp:rhcc-metadata-complete-moderator>
         <xmp:rhcc-translation-id>TRA01a5875d-a02d-4aef-ab57-7342c7a67a0d</xmp:rhcc-translation-id>
         <xmp:brand-content-type>Icon</xmp:brand-content-type>
         <xmp:CreateDate>2024-03-01T15:27:58.815Z</xmp:CreateDate>
         <xmp:rhcc-aspect-ratio>square</xmp:rhcc-aspect-ratio>
         <xmp:rhcc-effective-on-set-on-upload>true</xmp:rhcc-effective-on-set-on-upload>
         <xmp:rhcc-metadata-complete-uploader>pending</xmp:rhcc-metadata-complete-uploader>
         <xmp:rhcc-file-last-modified>2024-07-12T23:51:54.467Z</xmp:rhcc-file-last-modified>
         <xmp:rhcc-audience>rhcc-audience:internal</xmp:rhcc-audience>
         <xmp:rhcc-product>Red Hat Runtimes</xmp:rhcc-product>
         <xmp:rhcc-rights-restricted>no</xmp:rhcc-rights-restricted>
         <xmp:brand-content-subtype>Technology icon</xmp:brand-content-subtype>
         <xmp:rhcc-derivative-id>DER01a5875d-a02d-4aef-ab57-7342c7a67a0d</xmp:rhcc-derivative-id>
         <xmp:rhcc-uploaded-by>pmeilleu@redhat.com</xmp:rhcc-uploaded-by>
         <xmp:brand-logo-color>White</xmp:brand-logo-color>
         <xmp:rhcc-notify-portal-subscribers-on-change>yes</xmp:rhcc-notify-portal-subscribers-on-change>
         <xmp:brand-subtype>
            <rdf:Bag>
               <rdf:li>Technology icon</rdf:li>
            </rdf:Bag>
         </xmp:brand-subtype>
         <dc:format>image/svg+xml</dc:format>
         <dc:modified>2024-05-10T14:07:55.078Z</dc:modified>
         <dc:title>
            <rdf:Alt>
               <rdf:li xml:lang="x-default">Red Hat build of Quarkus icon</rdf:li>
            </rdf:Alt>
         </dc:title>
         <dc:description>
            <rdf:Alt>
               <rdf:li xml:lang="x-default">Application services</rdf:li>
            </rdf:Alt>
         </dc:description>
         <cq:lastReplicationAction_scene7>Activate</cq:lastReplicationAction_scene7>
         <cq:lastReplicationAction_publish>Activate</cq:lastReplicationAction_publish>
         <cq:lastReplicated_publish>2024-10-02T19:52:19.434Z</cq:lastReplicated_publish>
         <cq:lastReplicatedBy>workflow-process-service</cq:lastReplicatedBy>
         <cq:lastReplicationAction>Activate</cq:lastReplicationAction>
         <cq:lastReplicatedBy_publish>workflow-process-service</cq:lastReplicatedBy_publish>
         <cq:isDelivered>false</cq:isDelivered>
         <cq:lastReplicated>2024-10-02T19:52:19.434Z</cq:lastReplicated>
         <cq:lastReplicatedBy_scene7>workflow-process-service</cq:lastReplicatedBy_scene7>
         <cq:lastReplicated_scene7>2024-10-02T19:52:19.434Z</cq:lastReplicated_scene7>
         <tiff:ImageLength>38</tiff:ImageLength>
         <tiff:ImageWidth>38</tiff:ImageWidth>
         <xmpRights:UsageTerms>
            <rdf:Alt>
               <rdf:li xml:lang="x-default">Use technology icons to represent Red Hat products and components. Do not remove the icon from the bounding shape.</rdf:li>
            </rdf:Alt>
         </xmpRights:UsageTerms>
      </rdf:Description>
   </rdf:RDF>
</x:xmpmeta>
                                                                                                    
                                                                                                    
                                                                                                    
                                                                                                    
                                                                                                    
                                                                                                    
                                                                                                    
                                                                                                    
                                                                                                    
                                                                                                    
                                                                                                    
                                                                                                    
                                                                                                    
                                                                                                    
                                                                                                    
                                                                                                    
                                                                                                    
                                          
<?xpacket end="w"?></metadata>
<defs><style>.uuid-6a20a746-e14f-42cc-a82d-8f01abf1898d{fill:#fff;}</style></defs><path class="uuid-6a20a746-e14f-42cc-a82d-8f01abf1898d" d="m28,1H10C5.02942,1,1,5.02942,1,10v18c0,4.97058,4.02942,9,9,9h18c4.97058,0,9-4.02942,9-9V10c0-4.97058-4.02942-9-9-9Zm7.75,27c0,4.27338-3.47668,7.75-7.75,7.75H10c-4.27332,0-7.75-3.47662-7.75-7.75V10c0-4.27338,3.47668-7.75,7.75-7.75h18c4.27332,0,7.75,3.47662,7.75,7.75v18Z"/><path class="uuid-6a20a746-e14f-42cc-a82d-8f01abf1898d" d="m23.64258,15.95898l-4.33008-2.5c-.19336-.11133-.43164-.11133-.625,0l-4.33008,2.5c-.19336.11133-.3125.31738-.3125.54102v5c0,.22363.11914.42969.3125.54102l4.33008,2.5c.09668.05566.20508.08398.3125.08398s.21582-.02832.3125-.08398l4.33008-2.5c.19336-.11133.3125-.31738.3125-.54102v-5c0-.22363-.11914-.42969-.3125-.54102Zm-.9375,5.18066l-3.70508,2.13867-3.70508-2.13867v-4.2793l3.70508-2.13867,3.70508,2.13867v4.2793Z"/><path class="uuid-6a20a746-e14f-42cc-a82d-8f01abf1898d" d="m27,24.375c-1.44727,0-2.625,1.17773-2.625,2.625s1.17773,2.625,2.625,2.625,2.625-1.17773,2.625-2.625-1.17773-2.625-2.625-2.625Zm0,4c-.75781,0-1.375-.61719-1.375-1.375s.61719-1.375,1.375-1.375,1.375.61719,1.375,1.375-.61719,1.375-1.375,1.375Z"/><path class="uuid-6a20a746-e14f-42cc-a82d-8f01abf1898d" d="m22.77246,28.66797c-.43945.1709-.89258.31348-1.34863.42285-.33594.08008-.54297.41699-.46191.75293.06836.28711.32422.47949.60645.47949.04883,0,.09766-.00586.14648-.01758.51074-.12207,1.01953-.28125,1.5127-.47363.32129-.125.48047-.4873.35449-.80957-.125-.32227-.48926-.48145-.80957-.35449Z"/><path class="uuid-6a20a746-e14f-42cc-a82d-8f01abf1898d" d="m29.27734,15.02148c-.32812.10645-.50879.45898-.40234.78711.28906.89355.45508,1.82715.49121,2.77539.01367.33691.29102.60059.625.60059h.02441c.34473-.01367.61328-.30469.60059-.64941-.04199-1.0625-.22754-2.10938-.55176-3.11133-.10645-.32812-.45996-.50781-.78711-.40234Z"/><path class="uuid-6a20a746-e14f-42cc-a82d-8f01abf1898d" d="m7.99316,18.49902c.02148.00195.04297.00293.06445.00293.31641,0,.58789-.24023.62109-.56152.0957-.94336.31934-1.86523.66406-2.74023.12695-.32129-.03027-.68457-.35156-.81055-.32227-.12891-.68457.03125-.81055.35156-.3877.98242-.63867,2.01562-.74609,3.07227-.03516.34375.21582.65039.55859.68555Z"/><path class="uuid-6a20a746-e14f-42cc-a82d-8f01abf1898d" d="m10.72559,12.73926c.57031-.75293,1.24121-1.4248,1.99219-1.99707.27441-.20898.32715-.60156.11816-.87598-.20898-.27539-.60254-.3252-.87598-.11816-.84082.64062-1.5918,1.39355-2.23047,2.2373-.20898.27441-.1543.66699.12109.875.1123.08594.24512.12695.37695.12695.18848,0,.375-.08496.49805-.24805Z"/><path class="uuid-6a20a746-e14f-42cc-a82d-8f01abf1898d" d="m27.65039,13.26758c.12012.18164.31836.2793.52148.2793.11816,0,.23828-.03418.34473-.10449.28809-.19141.36621-.5791.1748-.86621-.58398-.87988-1.28711-1.67773-2.08789-2.37109-.26074-.22559-.6543-.19824-.88184.06348-.22559.26074-.19727.65625.06348.88184.71582.61914,1.34375,1.33203,1.86523,2.11719Z"/><path class="uuid-6a20a746-e14f-42cc-a82d-8f01abf1898d" d="m14.94141,9.39844c.07715,0,.15527-.01367.23047-.04395.87695-.34863,1.79785-.57422,2.7373-.6709.34277-.03613.59277-.34277.55762-.68652s-.3291-.59473-.68652-.55762c-1.05273.1084-2.08594.3623-3.06934.75293-.32129.12793-.47754.49121-.35059.81152.09766.24512.33301.39453.58105.39453Z"/><path class="uuid-6a20a746-e14f-42cc-a82d-8f01abf1898d" d="m8.77344,20.75977c-.05859-.34082-.38184-.56445-.72168-.51074-.33984.05859-.56836.38184-.51074.72168.17871,1.04492.5,2.05957.95312,3.01367.10645.22559.33105.35742.56445.35742.08984,0,.18164-.01953.26758-.06055.3125-.14746.44531-.52051.29688-.83203-.4043-.85156-.69043-1.75684-.84961-2.68945Z"/><path class="uuid-6a20a746-e14f-42cc-a82d-8f01abf1898d" d="m23.9541,8.48145c-.95703-.45117-1.97168-.76953-3.0166-.94531-.33008-.05469-.66309.1709-.71973.5127-.05762.33984.17188.66211.5127.71973.93164.15723,1.83691.44043,2.69043.84375.08594.04004.17676.05957.2666.05957.2334,0,.45898-.13184.56543-.3584.14746-.31152.01367-.68457-.29883-.83203Z"/><path class="uuid-6a20a746-e14f-42cc-a82d-8f01abf1898d" d="m13.29199,27.66504c-.78809-.52051-1.50195-1.14551-2.12207-1.8584-.22852-.26172-.62207-.28613-.88184-.06152-.26074.22656-.28809.62207-.06152.88184.69531.79883,1.49414,1.49902,2.37598,2.08105.10645.07031.22559.10352.34375.10352.20312,0,.40234-.09863.52246-.28027.19043-.28809.11133-.67578-.17676-.86621Z"/><path class="uuid-6a20a746-e14f-42cc-a82d-8f01abf1898d" d="m18.61328,29.36719c-.94629-.03418-1.88086-.19727-2.77734-.48438-.33008-.10254-.68066.07617-.78613.40527-.10449.3291.07617.68066.40527.78613,1.00586.32129,2.05273.50391,3.11328.54297h.02246c.33496,0,.6123-.26465.625-.60254.01172-.34473-.25781-.63477-.60254-.64746Z"/><path class="uuid-6a20a746-e14f-42cc-a82d-8f01abf1898d" d="m29.84375,20.96191c-.33105-.08105-.67285.125-.75293.46191-.10938.45605-.25195.90918-.42285,1.34863-.12598.32227.0332.68457.35449.80957.0752.0293.15137.04297.22754.04297.25,0,.48633-.15039.58203-.39746.19238-.49316.35156-1.00195.47363-1.5127.08105-.33594-.12598-.67285-.46191-.75293Z"/></svg>