<?xml version="1.0" encoding="UTF-8"?><svg id="uuid-278f7b57-8281-492f-b046-807d81208ed5" xmlns="http://www.w3.org/2000/svg" width="30" height="30" viewBox="0 0 30 30"><metadata><?xpacket begin="﻿" id="W5M0MpCehiHzreSzNTczkc9d"?>
<x:xmpmeta xmlns:x="adobe:ns:meta/" x:xmptk="Adobe XMP Core 8.0-c001 1.000000, 0000/00/00-00:00:00        ">
   <rdf:RDF xmlns:rdf="http://www.w3.org/1999/02/22-rdf-syntax-ns#">
      <rdf:Description rdf:about=""
            xmlns:xmp="http://ns.adobe.com/xap/1.0/"
            xmlns:dc="http://purl.org/dc/elements/1.1/"
            xmlns:cq="http://www.day.com/jcr/cq/1.0"
            xmlns:tiff="http://ns.adobe.com/tiff/1.0/">
         <xmp:rhcc-effective-on>2023-12-07T22:16:51.979Z</xmp:rhcc-effective-on>
         <xmp:rhcc-metadata-complete-moderator>pending</xmp:rhcc-metadata-complete-moderator>
         <xmp:rhcc-translation-id>TRA01cb3610-d356-4f1d-8fbe-38e1df9164e5</xmp:rhcc-translation-id>
         <xmp:CreateDate>2023-12-07T22:16:51.979Z</xmp:CreateDate>
         <xmp:rhcc-aspect-ratio>square</xmp:rhcc-aspect-ratio>
         <xmp:rhcc-effective-on-set-on-upload>true</xmp:rhcc-effective-on-set-on-upload>
         <xmp:rhcc-metadata-complete-uploader>pending</xmp:rhcc-metadata-complete-uploader>
         <xmp:rhcc-file-last-modified>2024-07-12T23:30:58.369Z</xmp:rhcc-file-last-modified>
         <xmp:rhcc-audience>rhcc-audience:internal</xmp:rhcc-audience>
         <xmp:rhcc-rights-restricted>no</xmp:rhcc-rights-restricted>
         <xmp:rhcc-derivative-id>DER01cb3610-d356-4f1d-8fbe-38e1df9164e5</xmp:rhcc-derivative-id>
         <xmp:rhcc-uploaded-by>pmeilleu@redhat.com</xmp:rhcc-uploaded-by>
         <xmp:rhcc-notify-portal-subscribers-on-change>yes</xmp:rhcc-notify-portal-subscribers-on-change>
         <dc:format>image/svg+xml</dc:format>
         <dc:modified>2024-02-09T20:38:16.405Z</dc:modified>
         <cq:lastReplicationAction_scene7>Activate</cq:lastReplicationAction_scene7>
         <cq:lastReplicationAction_publish>Activate</cq:lastReplicationAction_publish>
         <cq:lastReplicated_publish>2024-10-02T19:49:52.873Z</cq:lastReplicated_publish>
         <cq:lastReplicatedBy>workflow-process-service</cq:lastReplicatedBy>
         <cq:lastReplicationAction>Activate</cq:lastReplicationAction>
         <cq:lastReplicatedBy_publish>workflow-process-service</cq:lastReplicatedBy_publish>
         <cq:isDelivered>false</cq:isDelivered>
         <cq:lastReplicated>2024-10-02T19:49:52.873Z</cq:lastReplicated>
         <cq:lastReplicatedBy_scene7>workflow-process-service</cq:lastReplicatedBy_scene7>
         <cq:lastReplicated_scene7>2024-10-02T19:49:52.873Z</cq:lastReplicated_scene7>
         <tiff:ImageLength>30</tiff:ImageLength>
         <tiff:ImageWidth>30</tiff:ImageWidth>
      </rdf:Description>
   </rdf:RDF>
</x:xmpmeta>
                                                                                                    
                                                                                                    
                                                                                                    
                                                                                                    
                                                                                                    
                                                                                                    
                                                                                                    
                                                                                                    
                                                                                                 
<?xpacket end="w"?></metadata>
<path d="m15.17,25.65h0c-3.18-.02-5.62-1.07-7.26-3.11-1.46-1.82-2.21-4.35-2.24-7.53h0c.03-3.19.78-5.72,2.24-7.54,1.64-2.05,4.08-3.09,7.26-3.12h.01c2.44.02,4.47.64,6.06,1.86,1.49,1.15,2.54,2.78,3.11,4.85l-1.81.5c-.98-3.51-3.46-5.31-7.37-5.34-2.58.02-4.53.83-5.8,2.41-1.19,1.48-1.8,3.62-1.82,6.36.02,2.74.64,4.88,1.83,6.36,1.27,1.58,3.22,2.39,5.8,2.41,2.33-.02,3.87-.56,5.15-1.81,1.46-1.43,1.44-3.19.97-4.26-.27-.63-.78-1.15-1.45-1.55-.17,1.2-.55,2.17-1.14,2.9-.79.98-1.9,1.51-3.31,1.59-1.07.06-2.1-.19-2.89-.71-.94-.61-1.49-1.54-1.55-2.63-.06-1.06.36-2.03,1.18-2.73.78-.68,1.88-1.07,3.18-1.15.96-.05,1.85-.01,2.68.13-.11-.66-.33-1.18-.66-1.56-.46-.52-1.16-.78-2.09-.79h-.03c-.75,0-1.77.21-2.41,1.17l-1.56-1.05c.87-1.29,2.28-2,3.97-2h.04c2.83.02,4.52,1.75,4.69,4.78.1.04.19.08.29.13,1.32.62,2.29,1.56,2.8,2.72.71,1.62.77,4.25-1.37,6.35-1.64,1.61-3.63,2.33-6.46,2.35h0Zm.89-10.37c-.22,0-.43,0-.66.02-1.63.09-2.64.84-2.59,1.9.06,1.11,1.29,1.63,2.47,1.57,1.09-.06,2.5-.48,2.74-3.29-.6-.13-1.26-.2-1.97-.2Z" stroke-width="0"/></svg>