<?xml version="1.0" encoding="UTF-8"?><svg id="uuid-8f52e486-4b4f-4d1c-b748-6812a9b5a4d9" xmlns="http://www.w3.org/2000/svg" width="32" height="32" viewBox="0 0 32 32"><metadata><?xpacket begin="﻿" id="W5M0MpCehiHzreSzNTczkc9d"?>
<x:xmpmeta xmlns:x="adobe:ns:meta/" x:xmptk="Adobe XMP Core 8.0-c001 1.000000, 0000/00/00-00:00:00        ">
   <rdf:RDF xmlns:rdf="http://www.w3.org/1999/02/22-rdf-syntax-ns#">
      <rdf:Description rdf:about=""
            xmlns:xmp="http://ns.adobe.com/xap/1.0/"
            xmlns:cq="http://www.day.com/jcr/cq/1.0"
            xmlns:dc="http://purl.org/dc/elements/1.1/"
            xmlns:tiff="http://ns.adobe.com/tiff/1.0/">
         <xmp:rhcc-effective-on-set-on-upload>true</xmp:rhcc-effective-on-set-on-upload>
         <xmp:brand-content-subtype>Social sharing</xmp:brand-content-subtype>
         <xmp:rhcc-notify-portal-subscribers-on-change>yes</xmp:rhcc-notify-portal-subscribers-on-change>
         <xmp:rhcc-metadata-complete-moderator>pending</xmp:rhcc-metadata-complete-moderator>
         <xmp:rhcc-derivative-id>DER7188af91-21ca-4919-bcc6-93419fe7f09b</xmp:rhcc-derivative-id>
         <xmp:rhcc-rights-restricted>no</xmp:rhcc-rights-restricted>
         <xmp:rhcc-aspect-ratio>square</xmp:rhcc-aspect-ratio>
         <xmp:CreateDate>2023-12-07T22:16:52.244Z</xmp:CreateDate>
         <xmp:rhcc-file-last-modified>2024-12-19T22:05:56.843Z</xmp:rhcc-file-last-modified>
         <xmp:brand-logo-color>Black,white</xmp:brand-logo-color>
         <xmp:rhcc-uploaded-by>pmeilleu@redhat.com</xmp:rhcc-uploaded-by>
         <xmp:brand-content-type>Icon</xmp:brand-content-type>
         <xmp:rhcc-publish-url>https://content.redhat.com/content/dam/brand/icons/social-media-icons/threads/Icon-Social_and_external-Threads-Square-Black_and_white-RGB.svg</xmp:rhcc-publish-url>
         <xmp:rhcc-metadata-complete-uploader>pending</xmp:rhcc-metadata-complete-uploader>
         <xmp:rhcc-audience>rhcc-audience:internal</xmp:rhcc-audience>
         <xmp:rhcc-translation-id>TRA7188af91-21ca-4919-bcc6-93419fe7f09b</xmp:rhcc-translation-id>
         <xmp:rhcc-effective-on>2023-12-07T22:16:52.244Z</xmp:rhcc-effective-on>
         <xmp:brand-colorway>
            <rdf:Bag>
               <rdf:li>colorway:black</rdf:li>
               <rdf:li>colorway:white</rdf:li>
            </rdf:Bag>
         </xmp:brand-colorway>
         <cq:lastReplicatedBy_scene7>workflow-process-service</cq:lastReplicatedBy_scene7>
         <cq:lastReplicationAction_scene7>Activate</cq:lastReplicationAction_scene7>
         <cq:lastReplicatedBy_publish>workflow-process-service</cq:lastReplicatedBy_publish>
         <cq:lastReplicated_publish>2024-10-02T19:50:05.701Z</cq:lastReplicated_publish>
         <cq:lastReplicationAction>Activate</cq:lastReplicationAction>
         <cq:lastReplicationAction_publish>Activate</cq:lastReplicationAction_publish>
         <cq:lastReplicated_scene7>2024-10-02T19:50:05.701Z</cq:lastReplicated_scene7>
         <cq:isDelivered>false</cq:isDelivered>
         <cq:lastReplicatedBy>workflow-process-service</cq:lastReplicatedBy>
         <cq:lastReplicated>2024-10-02T19:50:05.701Z</cq:lastReplicated>
         <dc:format>image/svg+xml</dc:format>
         <dc:modified>2024-02-09T20:38:30.417Z</dc:modified>
         <tiff:ImageLength>32</tiff:ImageLength>
         <tiff:ImageWidth>32</tiff:ImageWidth>
      </rdf:Description>
   </rdf:RDF>
</x:xmpmeta>
                                                                                                    
                                                                                                    
                                                                                                   
<?xpacket end="w"?></metadata>
<rect width="32" height="32" rx="1.19" ry="1.19" stroke-width="0"/><path d="m16.16,26.05h0c-3-.02-5.3-1.01-6.85-2.94-1.38-1.72-2.09-4.11-2.11-7.1h0c.02-3.01.74-5.4,2.11-7.12,1.55-1.93,3.86-2.92,6.85-2.94h.01c2.3.02,4.22.61,5.72,1.76,1.4,1.08,2.39,2.62,2.94,4.58l-1.71.48c-.92-3.32-3.26-5.01-6.95-5.04-2.44.02-4.28.78-5.48,2.28-1.12,1.4-1.7,3.41-1.72,6,.02,2.58.6,4.6,1.72,6,1.2,1.49,3.04,2.26,5.48,2.28,2.2-.02,3.65-.53,4.86-1.71,1.38-1.35,1.35-3.01.91-4.02-.26-.59-.73-1.09-1.37-1.47-.16,1.13-.52,2.05-1.08,2.74-.74.92-1.79,1.43-3.12,1.5-1.01.05-1.98-.18-2.73-.67-.89-.58-1.41-1.46-1.47-2.48-.05-1,.34-1.91,1.11-2.58.74-.64,1.77-1.01,3-1.08.9-.05,1.75-.01,2.53.12-.1-.62-.31-1.12-.63-1.47-.43-.49-1.1-.74-1.98-.75h-.02c-.71,0-1.67.19-2.28,1.11l-1.47-.99c.82-1.22,2.15-1.89,3.75-1.89h.04c2.68.02,4.27,1.65,4.43,4.51.09.04.18.08.27.12,1.25.59,2.16,1.48,2.64,2.57.67,1.53.73,4.01-1.3,6-1.55,1.52-3.43,2.2-6.09,2.22h0Zm.84-9.79c-.2,0-.41,0-.62.02-1.54.09-2.5.79-2.44,1.79.06,1.05,1.22,1.54,2.33,1.48,1.03-.05,2.36-.45,2.58-3.11-.57-.12-1.19-.18-1.86-.18Z" fill="#fff" stroke-width="0"/></svg>