<svg id="e3b645dd-a0e2-4dbb-b9d9-057939a9306a" data-name="Icon" xmlns="http://www.w3.org/2000/svg" viewBox="0 0 36 36">
  <title>Train icon - White</title>
<desc>trip, commute, lightrail, ride, speed, tunnel, subway, underground, tube, metro, public, transportation, NAPS, DOD, CIV, north america public sector, department of defense, civilian, train</desc>
<metadata><?xpacket begin="﻿" id="W5M0MpCehiHzreSzNTczkc9d"?>
<x:xmpmeta xmlns:x="adobe:ns:meta/" x:xmptk="Adobe XMP Core 8.0-c001 1.000000, 0000/00/00-00:00:00        ">
   <rdf:RDF xmlns:rdf="http://www.w3.org/1999/02/22-rdf-syntax-ns#">
      <rdf:Description rdf:about=""
            xmlns:xmp="http://ns.adobe.com/xap/1.0/"
            xmlns:dc="http://purl.org/dc/elements/1.1/"
            xmlns:cq="http://www.day.com/jcr/cq/1.0"
            xmlns:tiff="http://ns.adobe.com/tiff/1.0/">
         <xmp:rhcc-effective-on>2023-12-08T17:46:32.639Z</xmp:rhcc-effective-on>
         <xmp:rhcc-metadata-complete-moderator>pending</xmp:rhcc-metadata-complete-moderator>
         <xmp:rhcc-translation-id>TRA67334e74-9114-496f-ad38-bdf0df644952</xmp:rhcc-translation-id>
         <xmp:brand-content-type>Icon</xmp:brand-content-type>
         <xmp:CreateDate>2023-12-08T17:46:32.639Z</xmp:CreateDate>
         <xmp:rhcc-aspect-ratio>square</xmp:rhcc-aspect-ratio>
         <xmp:rhcc-effective-on-set-on-upload>true</xmp:rhcc-effective-on-set-on-upload>
         <xmp:rhcc-published-asset-email-sent>true</xmp:rhcc-published-asset-email-sent>
         <xmp:rhcc-metadata-complete-uploader>pending</xmp:rhcc-metadata-complete-uploader>
         <xmp:rhcc-file-last-modified>2024-07-12T21:21:25.382Z</xmp:rhcc-file-last-modified>
         <xmp:rhcc-audience>rhcc-audience:internal</xmp:rhcc-audience>
         <xmp:brand-content-subtype>Icon</xmp:brand-content-subtype>
         <xmp:rhcc-rights-restricted>no</xmp:rhcc-rights-restricted>
         <xmp:rhcc-derivative-id>DER67334e74-9114-496f-ad38-bdf0df644952</xmp:rhcc-derivative-id>
         <xmp:rhcc-uploaded-by>pmeilleu@redhat.com</xmp:rhcc-uploaded-by>
         <xmp:brand-logo-color>White</xmp:brand-logo-color>
         <xmp:rhcc-notify-portal-subscribers-on-change>yes</xmp:rhcc-notify-portal-subscribers-on-change>
         <dc:format>image/svg+xml</dc:format>
         <dc:modified>2024-02-09T20:25:46.519Z</dc:modified>
         <dc:title>
            <rdf:Alt>
               <rdf:li xml:lang="x-default">Train icon - White</rdf:li>
            </rdf:Alt>
         </dc:title>
         <dc:description>
            <rdf:Alt>
               <rdf:li xml:lang="x-default">trip, commute, lightrail, ride, speed, tunnel, subway, underground, tube, metro, public, transportation, NAPS, DOD, CIV, north america public sector, department of defense, civilian, train</rdf:li>
            </rdf:Alt>
         </dc:description>
         <cq:lastReplicationAction_scene7>Activate</cq:lastReplicationAction_scene7>
         <cq:lastReplicationAction_publish>Activate</cq:lastReplicationAction_publish>
         <cq:lastReplicated_publish>2024-10-02T19:46:48.467Z</cq:lastReplicated_publish>
         <cq:lastReplicatedBy>workflow-process-service</cq:lastReplicatedBy>
         <cq:lastReplicationAction>Activate</cq:lastReplicationAction>
         <cq:lastReplicatedBy_publish>workflow-process-service</cq:lastReplicatedBy_publish>
         <cq:isDelivered>false</cq:isDelivered>
         <cq:lastReplicated>2024-10-02T19:46:48.467Z</cq:lastReplicated>
         <cq:lastReplicatedBy_scene7>workflow-process-service</cq:lastReplicatedBy_scene7>
         <cq:lastReplicated_scene7>2024-10-02T19:46:48.467Z</cq:lastReplicated_scene7>
         <tiff:ImageLength>36</tiff:ImageLength>
         <tiff:ImageWidth>36</tiff:ImageWidth>
      </rdf:Description>
   </rdf:RDF>
</x:xmpmeta>
                                                                                                    
                                                                                                    
                                                                                                    
                                                                                                    
                                                                                                    
                                                                                                    
                                                                                                    
                        
<?xpacket end="w"?></metadata>
<defs>
    <style>
      .e045102a-a31b-4f0a-9b5f-857d4e33fd21 {
        fill: #fff;
      }
    </style>
  </defs>
  <g>
    <path class="e045102a-a31b-4f0a-9b5f-857d4e33fd21" d="M22,11.38H14A3.62,3.62,0,0,0,10.38,15V27a.62.62,0,0,0,.62.62H25a.62.62,0,0,0,.62-.62V15A3.62,3.62,0,0,0,22,11.38Zm-8,1.24h8A2.39,2.39,0,0,1,24.38,15v5.38H11.62V15A2.39,2.39,0,0,1,14,12.62ZM11.62,26.38V21.62H24.38v4.76Z"/>
    <path class="e045102a-a31b-4f0a-9b5f-857d4e33fd21" d="M20,9.62a.62.62,0,0,0,0-1.24H16a.62.62,0,0,0,0,1.24Z"/>
    <path class="e045102a-a31b-4f0a-9b5f-857d4e33fd21" d="M13.56,23.56a.62.62,0,0,0,.88.88A.62.62,0,0,0,13.56,23.56Z"/>
    <path class="e045102a-a31b-4f0a-9b5f-857d4e33fd21" d="M22.24,23.42A.63.63,0,1,0,22,24.63.63.63,0,0,0,22.24,23.42Z"/>
    <path class="e045102a-a31b-4f0a-9b5f-857d4e33fd21" d="M14.28,28.44a.63.63,0,0,0-.84.28l-1,2a.63.63,0,0,0,1.12.56l1-2A.63.63,0,0,0,14.28,28.44Z"/>
    <path class="e045102a-a31b-4f0a-9b5f-857d4e33fd21" d="M22.56,28.72a.63.63,0,0,0-1.12.56l1,2a.62.62,0,0,0,.56.34.63.63,0,0,0,.56-.9Z"/>
    <path class="e045102a-a31b-4f0a-9b5f-857d4e33fd21" d="M18,3.38A14.64,14.64,0,0,0,3.38,18V31a.63.63,0,0,0,1.25,0V18a13.38,13.38,0,0,1,26.76,0V31a.62.62,0,0,0,1.24,0V18A14.64,14.64,0,0,0,18,3.38Z"/>
  </g>
</svg>
