<svg xmlns="http://www.w3.org/2000/svg" viewBox="0 0 32 32">
  <title>Weibo sharing icon (square) - Black</title>
<metadata><?xpacket begin="﻿" id="W5M0MpCehiHzreSzNTczkc9d"?>
<x:xmpmeta xmlns:x="adobe:ns:meta/" x:xmptk="Adobe XMP Core 8.0-c001 1.000000, 0000/00/00-00:00:00        ">
   <rdf:RDF xmlns:rdf="http://www.w3.org/1999/02/22-rdf-syntax-ns#">
      <rdf:Description rdf:about=""
            xmlns:xmp="http://ns.adobe.com/xap/1.0/"
            xmlns:dc="http://purl.org/dc/elements/1.1/"
            xmlns:cq="http://www.day.com/jcr/cq/1.0"
            xmlns:tiff="http://ns.adobe.com/tiff/1.0/">
         <xmp:rhcc-effective-on>2023-12-07T22:16:34.229Z</xmp:rhcc-effective-on>
         <xmp:rhcc-metadata-complete-moderator>pending</xmp:rhcc-metadata-complete-moderator>
         <xmp:rhcc-translation-id>TRA05234a03-9a58-46d8-9ade-7314120593cb</xmp:rhcc-translation-id>
         <xmp:brand-content-type>Icon</xmp:brand-content-type>
         <xmp:CreateDate>2023-12-07T22:16:34.229Z</xmp:CreateDate>
         <xmp:rhcc-aspect-ratio>square</xmp:rhcc-aspect-ratio>
         <xmp:rhcc-effective-on-set-on-upload>true</xmp:rhcc-effective-on-set-on-upload>
         <xmp:rhcc-metadata-complete-uploader>pending</xmp:rhcc-metadata-complete-uploader>
         <xmp:rhcc-file-last-modified>2024-07-12T23:33:10.372Z</xmp:rhcc-file-last-modified>
         <xmp:rhcc-audience>rhcc-audience:internal</xmp:rhcc-audience>
         <xmp:rhcc-rights-restricted>no</xmp:rhcc-rights-restricted>
         <xmp:brand-content-subtype>Social sharing</xmp:brand-content-subtype>
         <xmp:rhcc-derivative-id>DER05234a03-9a58-46d8-9ade-7314120593cb</xmp:rhcc-derivative-id>
         <xmp:rhcc-uploaded-by>pmeilleu@redhat.com</xmp:rhcc-uploaded-by>
         <xmp:brand-logo-color>Black</xmp:brand-logo-color>
         <xmp:rhcc-notify-portal-subscribers-on-change>yes</xmp:rhcc-notify-portal-subscribers-on-change>
         <dc:format>image/svg+xml</dc:format>
         <dc:modified>2024-02-09T20:38:43.516Z</dc:modified>
         <dc:title>
            <rdf:Alt>
               <rdf:li xml:lang="x-default">Weibo sharing icon (square) - Black</rdf:li>
            </rdf:Alt>
         </dc:title>
         <cq:lastReplicationAction_scene7>Activate</cq:lastReplicationAction_scene7>
         <cq:lastReplicationAction_publish>Activate</cq:lastReplicationAction_publish>
         <cq:lastReplicated_publish>2024-10-02T19:49:46.393Z</cq:lastReplicated_publish>
         <cq:lastReplicatedBy>workflow-process-service</cq:lastReplicatedBy>
         <cq:lastReplicationAction>Activate</cq:lastReplicationAction>
         <cq:lastReplicatedBy_publish>workflow-process-service</cq:lastReplicatedBy_publish>
         <cq:isDelivered>false</cq:isDelivered>
         <cq:lastReplicated>2024-10-02T19:49:46.393Z</cq:lastReplicated>
         <cq:lastReplicatedBy_scene7>workflow-process-service</cq:lastReplicatedBy_scene7>
         <cq:lastReplicated_scene7>2024-10-02T19:49:46.393Z</cq:lastReplicated_scene7>
         <tiff:ImageLength>32</tiff:ImageLength>
         <tiff:ImageWidth>32</tiff:ImageWidth>
      </rdf:Description>
   </rdf:RDF>
</x:xmpmeta>
                                                                                                    
                                                                                                    
                                                                                                    
                                                                                                    
                                                                                                    
                                                                                                    
                                                                                                    
                                                                                                    
                                                                                                 
<?xpacket end="w"?></metadata>
<g id="b5950af3-e4ed-411c-9fad-07b62b1127f4" data-name="Weibo">
    <g>
      <path d="M12.19,19.32a1.36,1.36,0,0,0-1.48,1.24,1.05,1.05,0,0,0,1.1,1.09,1.32,1.32,0,0,0,1.37-1.35A.92.92,0,0,0,12.19,19.32Z"/>
      <path d="M19.37,15.89A6.88,6.88,0,0,0,18,15.14a10.75,10.75,0,0,0-5.89-.44,8.4,8.4,0,0,0-4.38,2.13,3.68,3.68,0,0,0,.62,6.1A8.57,8.57,0,0,0,13,24.16a10.94,10.94,0,0,0,5.17-1.29A5.76,5.76,0,0,0,20.31,21,3.58,3.58,0,0,0,19.37,15.89Zm-3,5.65a5,5,0,0,1-5.35,1.32,3.06,3.06,0,0,1-1.2-4.66,4.68,4.68,0,0,1,3.77-1.77,3.69,3.69,0,0,1,2,.56A3.06,3.06,0,0,1,16.4,21.54Z"/>
      <path d="M14,18.74a.44.44,0,0,0-.39.13.41.41,0,0,0-.11.34.39.39,0,0,0,.34.33.33.33,0,0,0,.14,0c.19-.06.42-.22.4-.44S14.14,18.76,14,18.74Z"/>
      <path d="M30.81,0H1.19A1.19,1.19,0,0,0,0,1.19V30.81A1.19,1.19,0,0,0,1.19,32H30.81A1.19,1.19,0,0,0,32,30.81V1.19A1.19,1.19,0,0,0,30.81,0ZM25,19.67a5.84,5.84,0,0,1-2.43,3.24,13.36,13.36,0,0,1-5.81,2.3,14.82,14.82,0,0,1-7.81-.61,13.27,13.27,0,0,1-2.53-1.33c-2.28-1.5-2.91-3.6-2.11-6.29a7.91,7.91,0,0,1,1.44-2.64,16.43,16.43,0,0,1,5.56-4.86,9.78,9.78,0,0,1,2.36-.79,1.87,1.87,0,0,1,2.39,2c0,.52-.09,1-.14,1.65l1.3-.31c.74-.17,1.47-.36,2.21-.5a2.76,2.76,0,0,1,1.74.2A1.44,1.44,0,0,1,22,13c0,.66-.14,1.32-.22,2.06a2.19,2.19,0,0,0,.28.16c.49.26,1,.49,1.47.77A2.89,2.89,0,0,1,25,19.67Zm-3.79-9.14a.56.56,0,0,1,0-1.11c.21,0,.43,0,.65,0a2.78,2.78,0,0,1,2.72,3.88.58.58,0,0,1-.75.28c-.29-.08-.33-.32-.32-.58C23.64,11.14,22.94,10.64,21.18,10.53Zm6.47,3.82a.69.69,0,0,1-1.27-.53c1-3.86-2-6.73-5.76-6.28-.49,0-.67-.15-.68-.5-.08-1.23,1.25-.83,2-1a5.91,5.91,0,0,1,5.92,4.7C28,11.94,28.3,13.25,27.65,14.35Z"/>
    </g>
  </g>
</svg>
