<svg xmlns="http://www.w3.org/2000/svg" viewBox="0 0 30 30">
  <title>Weibo sharing icon - White</title>
<metadata><?xpacket begin="﻿" id="W5M0MpCehiHzreSzNTczkc9d"?>
<x:xmpmeta xmlns:x="adobe:ns:meta/" x:xmptk="Adobe XMP Core 8.0-c001 1.000000, 0000/00/00-00:00:00        ">
   <rdf:RDF xmlns:rdf="http://www.w3.org/1999/02/22-rdf-syntax-ns#">
      <rdf:Description rdf:about=""
            xmlns:xmp="http://ns.adobe.com/xap/1.0/"
            xmlns:dc="http://purl.org/dc/elements/1.1/"
            xmlns:cq="http://www.day.com/jcr/cq/1.0"
            xmlns:tiff="http://ns.adobe.com/tiff/1.0/">
         <xmp:rhcc-effective-on>2023-12-07T22:16:33.698Z</xmp:rhcc-effective-on>
         <xmp:rhcc-metadata-complete-moderator>pending</xmp:rhcc-metadata-complete-moderator>
         <xmp:rhcc-translation-id>TRA7d9d4d01-dbfb-4ef1-aefa-54fab1a5a3a0</xmp:rhcc-translation-id>
         <xmp:brand-content-type>Icon</xmp:brand-content-type>
         <xmp:CreateDate>2023-12-07T22:16:33.698Z</xmp:CreateDate>
         <xmp:rhcc-aspect-ratio>square</xmp:rhcc-aspect-ratio>
         <xmp:rhcc-effective-on-set-on-upload>true</xmp:rhcc-effective-on-set-on-upload>
         <xmp:rhcc-published-asset-email-sent>true</xmp:rhcc-published-asset-email-sent>
         <xmp:rhcc-metadata-complete-uploader>pending</xmp:rhcc-metadata-complete-uploader>
         <xmp:rhcc-file-last-modified>2024-07-12T23:39:25.429Z</xmp:rhcc-file-last-modified>
         <xmp:rhcc-audience>rhcc-audience:internal</xmp:rhcc-audience>
         <xmp:rhcc-rights-restricted>no</xmp:rhcc-rights-restricted>
         <xmp:brand-content-subtype>Social sharing</xmp:brand-content-subtype>
         <xmp:rhcc-derivative-id>DER7d9d4d01-dbfb-4ef1-aefa-54fab1a5a3a0</xmp:rhcc-derivative-id>
         <xmp:rhcc-uploaded-by>pmeilleu@redhat.com</xmp:rhcc-uploaded-by>
         <xmp:brand-logo-color>White</xmp:brand-logo-color>
         <xmp:rhcc-notify-portal-subscribers-on-change>yes</xmp:rhcc-notify-portal-subscribers-on-change>
         <dc:format>image/svg+xml</dc:format>
         <dc:modified>2024-02-09T20:38:45.153Z</dc:modified>
         <dc:title>
            <rdf:Alt>
               <rdf:li xml:lang="x-default">Weibo sharing icon - White</rdf:li>
            </rdf:Alt>
         </dc:title>
         <cq:lastReplicationAction_scene7>Activate</cq:lastReplicationAction_scene7>
         <cq:lastReplicationAction_publish>Activate</cq:lastReplicationAction_publish>
         <cq:lastReplicated_publish>2024-10-02T19:50:05.564Z</cq:lastReplicated_publish>
         <cq:lastReplicatedBy>workflow-process-service</cq:lastReplicatedBy>
         <cq:lastReplicationAction>Activate</cq:lastReplicationAction>
         <cq:lastReplicatedBy_publish>workflow-process-service</cq:lastReplicatedBy_publish>
         <cq:isDelivered>false</cq:isDelivered>
         <cq:lastReplicated>2024-10-02T19:50:05.564Z</cq:lastReplicated>
         <cq:lastReplicatedBy_scene7>workflow-process-service</cq:lastReplicatedBy_scene7>
         <cq:lastReplicated_scene7>2024-10-02T19:50:05.564Z</cq:lastReplicated_scene7>
         <tiff:ImageLength>30</tiff:ImageLength>
         <tiff:ImageWidth>30</tiff:ImageWidth>
      </rdf:Description>
   </rdf:RDF>
</x:xmpmeta>
                                                                                                    
                                                                                                    
                                                                                                    
                                                                                                    
                                                                                                    
                                                                                                    
                                                                                                    
                                                                                                    
        
<?xpacket end="w"?></metadata>
<defs>
    <style>
      .bda057a7-5155-4006-bd82-532b59d6ab24 {
        fill: none;
      }

      .bc9afa09-0188-46ff-8145-4401f077793c {
        fill: #fff;
      }
    </style>
  </defs>
  <g id="bace6c87-6ef1-4821-a35e-74ece43f2da0" data-name="Weibo">
    <rect class="bda057a7-5155-4006-bd82-532b59d6ab24" width="30" height="30"/>
    <g>
      <path class="bc9afa09-0188-46ff-8145-4401f077793c" d="M15.42,11.45l1.34-.32c.75-.17,1.5-.37,2.26-.5a2.81,2.81,0,0,1,1.78.2,1.46,1.46,0,0,1,.92,1.37c0,.68-.14,1.36-.22,2.12l.28.16c.51.26,1,.5,1.51.78A3,3,0,0,1,24.73,19a6,6,0,0,1-2.49,3.32,13.69,13.69,0,0,1-5.95,2.35,15.13,15.13,0,0,1-8-.63A13.57,13.57,0,0,1,5.7,22.7c-2.33-1.54-3-3.69-2.16-6.44A8.06,8.06,0,0,1,5,13.55a16.92,16.92,0,0,1,5.69-5,10.26,10.26,0,0,1,2.42-.8,1.9,1.9,0,0,1,2.44,2A15.35,15.35,0,0,1,15.42,11.45ZM12.51,23.61a11.19,11.19,0,0,0,5.29-1.33A6,6,0,0,0,20,20.39a3.66,3.66,0,0,0-1-5.25,7.27,7.27,0,0,0-1.46-.77,11.06,11.06,0,0,0-6-.45A8.5,8.5,0,0,0,7,16.11a3.76,3.76,0,0,0,.63,6.24A8.86,8.86,0,0,0,12.51,23.61Z"/>
      <path class="bc9afa09-0188-46ff-8145-4401f077793c" d="M21.64,5.07a6,6,0,0,1,6.06,4.8c.12,1.23.43,2.57-.23,3.69a.71.71,0,0,1-1.3-.54c1-3.95-2-6.89-5.9-6.43-.5,0-.68-.15-.69-.51C19.5,4.82,20.85,5.23,21.64,5.07Z"/>
      <path class="bc9afa09-0188-46ff-8145-4401f077793c" d="M21.49,8.51a2.86,2.86,0,0,1,2.79,4,.6.6,0,0,1-.78.28c-.29-.08-.33-.33-.32-.59.18-1.9-.53-2.41-2.34-2.53a.57.57,0,0,1,0-1.13C21,8.5,21.27,8.51,21.49,8.51Z"/>
      <path class="bc9afa09-0188-46ff-8145-4401f077793c" d="M13.1,15.69a3.77,3.77,0,0,1,2.09.58A3.12,3.12,0,0,1,16,20.92a5.05,5.05,0,0,1-5.48,1.35,3.13,3.13,0,0,1-1.23-4.76A4.8,4.8,0,0,1,13.1,15.69ZM11.25,21a1.33,1.33,0,0,0,1.4-1.37.94.94,0,0,0-1-1,1.39,1.39,0,0,0-1.51,1.27A1.06,1.06,0,0,0,11.25,21Zm2.07-2.15h.14c.2-.06.43-.23.42-.46a.55.55,0,0,0-.4-.35.44.44,0,0,0-.39.13.4.4,0,0,0-.12.34A.41.41,0,0,0,13.32,18.88Z"/>
    </g>
  </g>
</svg>
