<?xml version="1.0" encoding="UTF-8"?><svg xmlns="http://www.w3.org/2000/svg" width="38" height="38" viewBox="0 0 38 38"><title>Red Hat OpenStack Platform icon</title>
<desc>RHOSP, infrastructure migration solution, Cloud, Linux platforms</desc>
<metadata><?xpacket begin="﻿" id="W5M0MpCehiHzreSzNTczkc9d"?>
<x:xmpmeta xmlns:x="adobe:ns:meta/" x:xmptk="Adobe XMP Core 8.0-c001 1.000000, 0000/00/00-00:00:00        ">
   <rdf:RDF xmlns:rdf="http://www.w3.org/1999/02/22-rdf-syntax-ns#">
      <rdf:Description rdf:about=""
            xmlns:xmp="http://ns.adobe.com/xap/1.0/"
            xmlns:dc="http://purl.org/dc/elements/1.1/"
            xmlns:cq="http://www.day.com/jcr/cq/1.0"
            xmlns:tiff="http://ns.adobe.com/tiff/1.0/"
            xmlns:xmpRights="http://ns.adobe.com/xap/1.0/rights/">
         <xmp:rhcc-effective-on>2024-03-01T15:27:32.957Z</xmp:rhcc-effective-on>
         <xmp:rhcc-metadata-complete-moderator>pending</xmp:rhcc-metadata-complete-moderator>
         <xmp:rhcc-translation-id>TRAa66636bd-3311-448d-9a6a-4f7a280cc75f</xmp:rhcc-translation-id>
         <xmp:brand-content-type>Icon</xmp:brand-content-type>
         <xmp:CreateDate>2024-03-01T15:27:32.957Z</xmp:CreateDate>
         <xmp:rhcc-aspect-ratio>square</xmp:rhcc-aspect-ratio>
         <xmp:rhcc-effective-on-set-on-upload>true</xmp:rhcc-effective-on-set-on-upload>
         <xmp:rhcc-published-asset-email-sent>true</xmp:rhcc-published-asset-email-sent>
         <xmp:rhcc-metadata-complete-uploader>pending</xmp:rhcc-metadata-complete-uploader>
         <xmp:rhcc-file-last-modified>2024-07-13T00:09:40.460Z</xmp:rhcc-file-last-modified>
         <xmp:rhcc-audience>rhcc-audience:internal</xmp:rhcc-audience>
         <xmp:rhcc-rights-restricted>no</xmp:rhcc-rights-restricted>
         <xmp:brand-content-subtype>Technology icon</xmp:brand-content-subtype>
         <xmp:rhcc-derivative-id>DERa66636bd-3311-448d-9a6a-4f7a280cc75f</xmp:rhcc-derivative-id>
         <xmp:rhcc-uploaded-by>pmeilleu@redhat.com</xmp:rhcc-uploaded-by>
         <xmp:brand-logo-color>Standard</xmp:brand-logo-color>
         <xmp:rhcc-notify-portal-subscribers-on-change>yes</xmp:rhcc-notify-portal-subscribers-on-change>
         <xmp:rhcc-product>
            <rdf:Bag>
               <rdf:li>rhcc-product:red-hat-openstack-services-on-openshift</rdf:li>
            </rdf:Bag>
         </xmp:rhcc-product>
         <xmp:brand-subtype>
            <rdf:Bag>
               <rdf:li>Technology icon</rdf:li>
            </rdf:Bag>
         </xmp:brand-subtype>
         <dc:format>image/svg+xml</dc:format>
         <dc:modified>2024-05-10T00:29:25.063Z</dc:modified>
         <dc:title>
            <rdf:Alt>
               <rdf:li xml:lang="x-default">Red Hat OpenStack Platform icon</rdf:li>
            </rdf:Alt>
         </dc:title>
         <dc:description>
            <rdf:Alt>
               <rdf:li xml:lang="x-default">RHOSP, infrastructure migration solution, Cloud, Linux platforms</rdf:li>
            </rdf:Alt>
         </dc:description>
         <cq:lastReplicationAction_scene7>Activate</cq:lastReplicationAction_scene7>
         <cq:lastReplicationAction_publish>Activate</cq:lastReplicationAction_publish>
         <cq:lastReplicated_publish>2024-10-11T10:21:47.900Z</cq:lastReplicated_publish>
         <cq:lastReplicatedBy>workflow-process-service</cq:lastReplicatedBy>
         <cq:lastReplicationAction>Activate</cq:lastReplicationAction>
         <cq:lastReplicatedBy_publish>workflow-process-service</cq:lastReplicatedBy_publish>
         <cq:isDelivered>false</cq:isDelivered>
         <cq:lastReplicated>2024-10-11T10:21:47.900Z</cq:lastReplicated>
         <cq:lastReplicatedBy_scene7>workflow-process-service</cq:lastReplicatedBy_scene7>
         <cq:lastReplicated_scene7>2024-10-11T10:21:47.900Z</cq:lastReplicated_scene7>
         <tiff:ImageLength>38</tiff:ImageLength>
         <tiff:ImageWidth>38</tiff:ImageWidth>
         <xmpRights:UsageTerms>
            <rdf:Alt>
               <rdf:li xml:lang="x-default">Use technology icons to represent Red Hat products and components. Do not remove the icon from the bounding shape.</rdf:li>
            </rdf:Alt>
         </xmpRights:UsageTerms>
      </rdf:Description>
   </rdf:RDF>
</x:xmpmeta>
                                                                                                    
                                                                                                    
                                                                                                    
                                                                                                    
                                                                                                    
                                                                                                    
                                                                                                    
                                                                                                    
                                                                                                    
                                                                                                    
                                                                                                    
                                                                                                    
                                                                                                    
                                                                                                    
                                                                                                    
                                                                                                    
                                         
<?xpacket end="w"?></metadata>
<g id="uuid-c9b57a80-5a78-4557-9001-5705500153ee"><rect x="1" y="1" width="36" height="36" rx="9" ry="9" stroke-width="0"/><path d="m28,2.25c4.27336,0,7.75,3.47664,7.75,7.75v18c0,4.27336-3.47664,7.75-7.75,7.75H10c-4.27336,0-7.75-3.47664-7.75-7.75V10c0-4.27336,3.47664-7.75,7.75-7.75h18m0-1.25H10C5.02944,1,1,5.02943,1,10v18c0,4.97057,4.02944,9,9,9h18c4.97057,0,9-4.02943,9-9V10c0-4.97057-4.02943-9-9-9h0Z" fill="#4d4d4d" stroke-width="0"/></g><g id="uuid-02eefdd1-f89e-4ee8-85da-661b82d334db"><path d="m25.7334,14.01855c-.09277-3.12793-2.66699-5.64355-5.81641-5.64355-2.15723,0-4.12207,1.19092-5.12891,3.07178-2.72559-.23535-4.96875,1.92432-4.96875,4.58105,0,2.53467,2.0625,4.59717,4.59766,4.59717h10.69434c.0791,0,.15527-.01465.22461-.0415,1.61035-.25537,2.84473-1.65283,2.84473-3.3335,0-1.52588-1.01855-2.82715-2.44727-3.23145Zm-.92773,5.35645h-10.38867c-1.8457,0-3.34766-1.50146-3.34766-3.34717s1.50195-3.34717,3.34766-3.34717c.2002,0,.4082.02002.61914.06006.29102.0542.57324-.09766.68945-.36523.72656-1.6709,2.37207-2.75049,4.19141-2.75049,2.51953,0,4.56934,2.0498,4.56934,4.56934,0,.07861-.00586.15576-.01562.29102-.02441.33594.22266.62988.55762.66553,1.08398.11475,1.90234,1.01709,1.90234,2.09912,0,1.17188-.95312,2.125-2.125,2.125Z" fill="#fff" stroke-width="0"/><path d="m24,23.625h-13c-.34473,0-.625-.27979-.625-.625s.28027-.625.625-.625h13c.34473,0,.625.27979.625.625s-.28027.625-.625.625Z" fill="#e00" stroke-width="0"/><path d="m28,26.625h-13c-.34473,0-.625-.27979-.625-.625s.28027-.625.625-.625h13c.34473,0,.625.27979.625.625s-.28027.625-.625.625Z" fill="#e00" stroke-width="0"/><path d="m24,29.625h-13c-.34473,0-.625-.27979-.625-.625s.28027-.625.625-.625h13c.34473,0,.625.27979.625.625s-.28027.625-.625.625Z" fill="#e00" stroke-width="0"/></g></svg>