<?xml version="1.0" encoding="UTF-8"?><svg id="uuid-4f49b5a2-8bd4-429e-ad79-51c269a8667b" xmlns="http://www.w3.org/2000/svg" width="38" height="38" viewBox="0 0 38 38"><title>Red Hat OpenStack Platform icon</title>
<desc>RHOSP, infrastructure migration solution, Cloud, Linux platforms</desc>
<metadata><?xpacket begin="﻿" id="W5M0MpCehiHzreSzNTczkc9d"?>
<x:xmpmeta xmlns:x="adobe:ns:meta/" x:xmptk="Adobe XMP Core 8.0-c001 1.000000, 0000/00/00-00:00:00        ">
   <rdf:RDF xmlns:rdf="http://www.w3.org/1999/02/22-rdf-syntax-ns#">
      <rdf:Description rdf:about=""
            xmlns:xmp="http://ns.adobe.com/xap/1.0/"
            xmlns:dc="http://purl.org/dc/elements/1.1/"
            xmlns:cq="http://www.day.com/jcr/cq/1.0"
            xmlns:tiff="http://ns.adobe.com/tiff/1.0/"
            xmlns:xmpRights="http://ns.adobe.com/xap/1.0/rights/">
         <xmp:rhcc-effective-on>2024-03-01T15:27:32.260Z</xmp:rhcc-effective-on>
         <xmp:rhcc-metadata-complete-moderator>pending</xmp:rhcc-metadata-complete-moderator>
         <xmp:rhcc-translation-id>TRAf717b301-875d-41e8-be9a-6b8f556c5606</xmp:rhcc-translation-id>
         <xmp:brand-content-type>Icon</xmp:brand-content-type>
         <xmp:CreateDate>2024-03-01T15:27:32.260Z</xmp:CreateDate>
         <xmp:rhcc-aspect-ratio>square</xmp:rhcc-aspect-ratio>
         <xmp:rhcc-effective-on-set-on-upload>true</xmp:rhcc-effective-on-set-on-upload>
         <xmp:rhcc-published-asset-email-sent>true</xmp:rhcc-published-asset-email-sent>
         <xmp:rhcc-metadata-complete-uploader>pending</xmp:rhcc-metadata-complete-uploader>
         <xmp:rhcc-file-last-modified>2024-07-13T00:01:25.416Z</xmp:rhcc-file-last-modified>
         <xmp:rhcc-audience>rhcc-audience:internal</xmp:rhcc-audience>
         <xmp:rhcc-rights-restricted>no</xmp:rhcc-rights-restricted>
         <xmp:brand-content-subtype>Technology icon</xmp:brand-content-subtype>
         <xmp:rhcc-derivative-id>DERf717b301-875d-41e8-be9a-6b8f556c5606</xmp:rhcc-derivative-id>
         <xmp:rhcc-uploaded-by>pmeilleu@redhat.com</xmp:rhcc-uploaded-by>
         <xmp:brand-logo-color>Black</xmp:brand-logo-color>
         <xmp:rhcc-notify-portal-subscribers-on-change>yes</xmp:rhcc-notify-portal-subscribers-on-change>
         <xmp:rhcc-product>
            <rdf:Bag>
               <rdf:li>rhcc-product:red-hat-openstack-services-on-openshift</rdf:li>
            </rdf:Bag>
         </xmp:rhcc-product>
         <xmp:brand-subtype>
            <rdf:Bag>
               <rdf:li>Technology icon</rdf:li>
            </rdf:Bag>
         </xmp:brand-subtype>
         <dc:format>image/svg+xml</dc:format>
         <dc:modified>2024-05-10T00:29:25.564Z</dc:modified>
         <dc:title>
            <rdf:Alt>
               <rdf:li xml:lang="x-default">Red Hat OpenStack Platform icon</rdf:li>
            </rdf:Alt>
         </dc:title>
         <dc:description>
            <rdf:Alt>
               <rdf:li xml:lang="x-default">RHOSP, infrastructure migration solution, Cloud, Linux platforms</rdf:li>
            </rdf:Alt>
         </dc:description>
         <cq:lastReplicationAction_scene7>Activate</cq:lastReplicationAction_scene7>
         <cq:lastReplicationAction_publish>Activate</cq:lastReplicationAction_publish>
         <cq:lastReplicated_publish>2024-10-11T10:21:26.669Z</cq:lastReplicated_publish>
         <cq:lastReplicatedBy>workflow-process-service</cq:lastReplicatedBy>
         <cq:lastReplicationAction>Activate</cq:lastReplicationAction>
         <cq:lastReplicatedBy_publish>workflow-process-service</cq:lastReplicatedBy_publish>
         <cq:isDelivered>false</cq:isDelivered>
         <cq:lastReplicated>2024-10-11T10:21:26.669Z</cq:lastReplicated>
         <cq:lastReplicatedBy_scene7>workflow-process-service</cq:lastReplicatedBy_scene7>
         <cq:lastReplicated_scene7>2024-10-11T10:21:26.669Z</cq:lastReplicated_scene7>
         <tiff:ImageLength>38</tiff:ImageLength>
         <tiff:ImageWidth>38</tiff:ImageWidth>
         <xmpRights:UsageTerms>
            <rdf:Alt>
               <rdf:li xml:lang="x-default">Use technology icons to represent Red Hat products and components. Do not remove the icon from the bounding shape.</rdf:li>
            </rdf:Alt>
         </xmpRights:UsageTerms>
      </rdf:Description>
   </rdf:RDF>
</x:xmpmeta>
                                                                                                    
                                                                                                    
                                                                                                    
                                                                                                    
                                                                                                    
                                                                                                    
                                                                                                    
                                                                                                    
                                                                                                    
                                                                                                    
                                                                                                    
                                                                                                    
                                                                                                    
                                                                                                    
                                                                                                    
                                                                                                    
                                         
<?xpacket end="w"?></metadata>
<path d="m14.41699,19.375h10.38867c1.17188,0,2.125-.95312,2.125-2.125,0-1.08203-.81836-1.98438-1.90234-2.09912-.33496-.03564-.58203-.32959-.55762-.66553.00977-.13525.01562-.2124.01562-.29102,0-2.51953-2.0498-4.56934-4.56934-4.56934-1.81934,0-3.46484,1.07959-4.19141,2.75049-.11621.26758-.39844.41943-.68945.36523-.21094-.04004-.41895-.06006-.61914-.06006-1.8457,0-3.34766,1.50146-3.34766,3.34717s1.50195,3.34717,3.34766,3.34717Z" stroke-width="0"/><path d="m28,1H10C5.02942,1,1,5.02942,1,10v18c0,4.97058,4.02942,9,9,9h18c4.97058,0,9-4.02942,9-9V10c0-4.97058-4.02942-9-9-9Zm-18.18066,15.02783c0-2.65674,2.24316-4.81641,4.96875-4.58105,1.00684-1.88086,2.97168-3.07178,5.12891-3.07178,3.14941,0,5.72363,2.51562,5.81641,5.64355,1.42871.4043,2.44727,1.70557,2.44727,3.23145,0,1.68066-1.23438,3.07812-2.84473,3.3335-.06934.02686-.14551.0415-.22461.0415h-10.69434c-2.53516,0-4.59766-2.0625-4.59766-4.59717Zm14.80566,6.97217c0,.34521-.28027.625-.625.625h-13c-.34473,0-.625-.27979-.625-.625s.28027-.625.625-.625h13c.34473,0,.625.27979.625.625Zm-.625,6.625h-13c-.34473,0-.625-.27979-.625-.625s.28027-.625.625-.625h13c.34473,0,.625.27979.625.625s-.28027.625-.625.625Zm4-3h-13c-.34473,0-.625-.27979-.625-.625s.28027-.625.625-.625h13c.34473,0,.625.27979.625.625s-.28027.625-.625.625Z" stroke-width="0"/></svg>