<?xml version="1.0" encoding="UTF-8"?><svg id="uuid-f829b83f-a2bc-4280-bdfc-16016997c389" xmlns="http://www.w3.org/2000/svg" viewBox="0 0 38 38"><title>Compliance operator icon</title>
<desc>Cloud, operator</desc>
<metadata><?xpacket begin="﻿" id="W5M0MpCehiHzreSzNTczkc9d"?>
<x:xmpmeta xmlns:x="adobe:ns:meta/" x:xmptk="Adobe XMP Core 8.0-c001 1.000000, 0000/00/00-00:00:00        ">
   <rdf:RDF xmlns:rdf="http://www.w3.org/1999/02/22-rdf-syntax-ns#">
      <rdf:Description rdf:about=""
            xmlns:xmp="http://ns.adobe.com/xap/1.0/"
            xmlns:dc="http://purl.org/dc/elements/1.1/"
            xmlns:cq="http://www.day.com/jcr/cq/1.0"
            xmlns:tiff="http://ns.adobe.com/tiff/1.0/"
            xmlns:xmpRights="http://ns.adobe.com/xap/1.0/rights/">
         <xmp:rhcc-effective-on>2024-03-01T15:26:03.348Z</xmp:rhcc-effective-on>
         <xmp:rhcc-metadata-complete-moderator>pending</xmp:rhcc-metadata-complete-moderator>
         <xmp:rhcc-translation-id>TRAf0146fd7-9d5d-402e-bef2-b5b8c90276af</xmp:rhcc-translation-id>
         <xmp:brand-content-type>Icon</xmp:brand-content-type>
         <xmp:CreateDate>2024-03-01T15:26:03.348Z</xmp:CreateDate>
         <xmp:rhcc-aspect-ratio>square</xmp:rhcc-aspect-ratio>
         <xmp:rhcc-effective-on-set-on-upload>true</xmp:rhcc-effective-on-set-on-upload>
         <xmp:rhcc-metadata-complete-uploader>pending</xmp:rhcc-metadata-complete-uploader>
         <xmp:rhcc-file-last-modified>2024-07-12T23:54:08.871Z</xmp:rhcc-file-last-modified>
         <xmp:rhcc-audience>rhcc-audience:internal</xmp:rhcc-audience>
         <xmp:rhcc-product>Red Hat OpenShift</xmp:rhcc-product>
         <xmp:rhcc-rights-restricted>no</xmp:rhcc-rights-restricted>
         <xmp:brand-content-subtype>Technology icon</xmp:brand-content-subtype>
         <xmp:rhcc-derivative-id>DERf0146fd7-9d5d-402e-bef2-b5b8c90276af</xmp:rhcc-derivative-id>
         <xmp:rhcc-uploaded-by>pmeilleu@redhat.com</xmp:rhcc-uploaded-by>
         <xmp:brand-logo-color>White</xmp:brand-logo-color>
         <xmp:rhcc-notify-portal-subscribers-on-change>yes</xmp:rhcc-notify-portal-subscribers-on-change>
         <xmp:brand-subtype>
            <rdf:Bag>
               <rdf:li>Technology icon</rdf:li>
            </rdf:Bag>
         </xmp:brand-subtype>
         <dc:format>image/svg+xml</dc:format>
         <dc:modified>2024-05-10T12:41:02.049Z</dc:modified>
         <dc:title>
            <rdf:Alt>
               <rdf:li xml:lang="x-default">Compliance operator icon</rdf:li>
            </rdf:Alt>
         </dc:title>
         <dc:description>
            <rdf:Alt>
               <rdf:li xml:lang="x-default">Cloud, operator</rdf:li>
            </rdf:Alt>
         </dc:description>
         <cq:lastReplicationAction_scene7>Activate</cq:lastReplicationAction_scene7>
         <cq:lastReplicationAction_publish>Activate</cq:lastReplicationAction_publish>
         <cq:lastReplicated_publish>2024-10-02T19:51:15.214Z</cq:lastReplicated_publish>
         <cq:lastReplicatedBy>workflow-process-service</cq:lastReplicatedBy>
         <cq:lastReplicationAction>Activate</cq:lastReplicationAction>
         <cq:lastReplicatedBy_publish>workflow-process-service</cq:lastReplicatedBy_publish>
         <cq:isDelivered>false</cq:isDelivered>
         <cq:lastReplicated>2024-10-02T19:51:15.214Z</cq:lastReplicated>
         <cq:lastReplicatedBy_scene7>workflow-process-service</cq:lastReplicatedBy_scene7>
         <cq:lastReplicated_scene7>2024-10-02T19:51:15.214Z</cq:lastReplicated_scene7>
         <tiff:ImageLength>38</tiff:ImageLength>
         <tiff:ImageWidth>38</tiff:ImageWidth>
         <xmpRights:UsageTerms>
            <rdf:Alt>
               <rdf:li xml:lang="x-default">Use technology icons to represent Red Hat products and components. Do not remove the icon from the bounding shape.</rdf:li>
            </rdf:Alt>
         </xmpRights:UsageTerms>
      </rdf:Description>
   </rdf:RDF>
</x:xmpmeta>
                                                                                                    
                                                                                                    
                                                                                                    
                                                                                                    
                                                                                                    
                                                                                                    
                                                                                                    
                                                                                                    
                                                                                                    
                                                                                                    
                                                                                                    
                                                                                                    
                                                                                                    
                                                                                                    
                                                                                                    
                                                                                                    
                                                                                                    
                                          
<?xpacket end="w"?></metadata>
<defs><style>.uuid-a75db0e2-cf30-4a61-962d-554457fbed73{fill:#fff;}</style></defs><path class="uuid-a75db0e2-cf30-4a61-962d-554457fbed73" d="m28,1H10C5.02942,1,1,5.02942,1,10v18c0,4.97058,4.02942,9,9,9h18c4.97058,0,9-4.02942,9-9V10c0-4.97058-4.02942-9-9-9Zm7.75,27c0,4.27332-3.47668,7.75-7.75,7.75H10c-4.27332,0-7.75-3.47668-7.75-7.75V10c0-4.27338,3.47668-7.75,7.75-7.75h18c4.27332,0,7.75,3.47662,7.75,7.75v18Z"/><path class="uuid-a75db0e2-cf30-4a61-962d-554457fbed73" d="m11,23.625c.34473,0,.625-.28027.625-.625v-9.375h3.375c.34473,0,.625-.28027.625-.625v-3.375h10.75v13.28516c0,.34473.28027.625.625.625s.625-.28027.625-.625v-13.91016c0-.34473-.28027-.625-.625-.625h-12c-.02759,0-.05249.01245-.07959.01611-.02832.0036-.05249.00879-.07996.01617-.0271.00732-.05652.00586-.0824.01666-.0271.01147-.04736.03333-.07251.04834-.04419.02625-.09106.0484-.12793.08533l-4,4c-.03687.03693-.05908.0838-.08533.12799-.01501.02509-.03687.04529-.04834.07251-.01062.02551-.00916.0545-.01648.08124-.00745.02777-.0127.05225-.01636.08081-.00366.02716-.01611.05212-.01611.07983v10c0,.34473.28027.625.625.625Zm3.375-13.11621v1.86621h-1.86621l1.86621-1.86621Z"/><path class="uuid-a75db0e2-cf30-4a61-962d-554457fbed73" d="m27,26.375c-.34473,0-.625.28027-.625.625v1.375h-14.73047l-.01953-1.38379c-.00488-.34473-.26074-.6377-.63379-.61621-.34473.00488-.62109.28906-.61621.63379l.02832,2c.00488.3418.2832.61621.625.61621h15.97168c.34473,0,.625-.28027.625-.625v-2c0-.34473-.28027-.625-.625-.625Z"/><path class="uuid-a75db0e2-cf30-4a61-962d-554457fbed73" d="m29,24.375H9c-.34473,0-.625.28027-.625.625s.28027.625.625.625h20c.34473,0,.625-.28027.625-.625s-.28027-.625-.625-.625Z"/><path class="uuid-a75db0e2-cf30-4a61-962d-554457fbed73" d="m16.55762,19.55762l-1.55762,1.55859-.55762-.55859c-.24414-.24414-.64062-.24414-.88477,0-.24316.24414-.24316.64062,0,.88477l1,1c.12207.12207.28223.18262.44238.18262s.32031-.06055.44238-.18262l2-2c.24316-.24414.24316-.64062,0-.88477-.24414-.24414-.64062-.24414-.88477,0Z"/><path class="uuid-a75db0e2-cf30-4a61-962d-554457fbed73" d="m17.44238,14.55762c-.24414-.24414-.64062-.24414-.88477,0l-1.55762,1.55859-.55762-.55859c-.24414-.24414-.64062-.24414-.88477,0-.24316.24414-.24316.64062,0,.88477l1,1c.12207.12207.28223.18262.44238.18262s.32031-.06055.44238-.18262l2-2c.24316-.24414.24316-.64062,0-.88477Z"/><path class="uuid-a75db0e2-cf30-4a61-962d-554457fbed73" d="m24,20.375h-4c-.34473,0-.625.28027-.625.625s.28027.625.625.625h4c.34473,0,.625-.28027.625-.625s-.28027-.625-.625-.625Z"/><path class="uuid-a75db0e2-cf30-4a61-962d-554457fbed73" d="m24,15.375h-4c-.34473,0-.625.28027-.625.625s.28027.625.625.625h4c.34473,0,.625-.28027.625-.625s-.28027-.625-.625-.625Z"/></svg>