<svg id="e44465f3-c568-49c6-b9d0-fe05b91b78dd" data-name="Layer 1" xmlns="http://www.w3.org/2000/svg" viewBox="0 0 36 36">
  <title>Assigned locker icon - Red</title>
<desc>storage, cabinet, personal, permanent, GWS, office and work</desc>
<metadata><?xpacket begin="﻿" id="W5M0MpCehiHzreSzNTczkc9d"?>
<x:xmpmeta xmlns:x="adobe:ns:meta/" x:xmptk="Adobe XMP Core 8.0-c001 1.000000, 0000/00/00-00:00:00        ">
   <rdf:RDF xmlns:rdf="http://www.w3.org/1999/02/22-rdf-syntax-ns#">
      <rdf:Description rdf:about=""
            xmlns:xmp="http://ns.adobe.com/xap/1.0/"
            xmlns:dc="http://purl.org/dc/elements/1.1/"
            xmlns:cq="http://www.day.com/jcr/cq/1.0"
            xmlns:tiff="http://ns.adobe.com/tiff/1.0/">
         <xmp:rhcc-effective-on>2023-12-08T17:46:56.204Z</xmp:rhcc-effective-on>
         <xmp:rhcc-metadata-complete-moderator>pending</xmp:rhcc-metadata-complete-moderator>
         <xmp:rhcc-translation-id>TRAecaae090-eb7d-4c6d-a7aa-08c07b7e1002</xmp:rhcc-translation-id>
         <xmp:brand-content-type>Icon</xmp:brand-content-type>
         <xmp:CreateDate>2023-12-08T17:46:56.204Z</xmp:CreateDate>
         <xmp:rhcc-aspect-ratio>square</xmp:rhcc-aspect-ratio>
         <xmp:rhcc-effective-on-set-on-upload>true</xmp:rhcc-effective-on-set-on-upload>
         <xmp:rhcc-metadata-complete-uploader>pending</xmp:rhcc-metadata-complete-uploader>
         <xmp:rhcc-file-last-modified>2024-07-12T20:58:49.364Z</xmp:rhcc-file-last-modified>
         <xmp:rhcc-audience>rhcc-audience:internal</xmp:rhcc-audience>
         <xmp:brand-content-subtype>Icon</xmp:brand-content-subtype>
         <xmp:rhcc-rights-restricted>no</xmp:rhcc-rights-restricted>
         <xmp:rhcc-derivative-id>DERecaae090-eb7d-4c6d-a7aa-08c07b7e1002</xmp:rhcc-derivative-id>
         <xmp:rhcc-uploaded-by>pmeilleu@redhat.com</xmp:rhcc-uploaded-by>
         <xmp:brand-logo-color>Red</xmp:brand-logo-color>
         <xmp:rhcc-notify-portal-subscribers-on-change>yes</xmp:rhcc-notify-portal-subscribers-on-change>
         <dc:format>image/svg+xml</dc:format>
         <dc:modified>2024-02-09T20:23:23.099Z</dc:modified>
         <dc:title>
            <rdf:Alt>
               <rdf:li xml:lang="x-default">Assigned locker icon - Red</rdf:li>
            </rdf:Alt>
         </dc:title>
         <dc:description>
            <rdf:Alt>
               <rdf:li xml:lang="x-default">storage, cabinet, personal, permanent, GWS, office and work</rdf:li>
            </rdf:Alt>
         </dc:description>
         <cq:lastReplicationAction_scene7>Activate</cq:lastReplicationAction_scene7>
         <cq:lastReplicationAction_publish>Activate</cq:lastReplicationAction_publish>
         <cq:lastReplicated_publish>2024-10-02T19:38:23.221Z</cq:lastReplicated_publish>
         <cq:lastReplicatedBy>workflow-process-service</cq:lastReplicatedBy>
         <cq:lastReplicationAction>Activate</cq:lastReplicationAction>
         <cq:lastReplicatedBy_publish>workflow-process-service</cq:lastReplicatedBy_publish>
         <cq:isDelivered>false</cq:isDelivered>
         <cq:lastReplicated>2024-10-02T19:38:23.221Z</cq:lastReplicated>
         <cq:lastReplicatedBy_scene7>workflow-process-service</cq:lastReplicatedBy_scene7>
         <cq:lastReplicated_scene7>2024-10-02T19:38:23.221Z</cq:lastReplicated_scene7>
         <tiff:ImageLength>36</tiff:ImageLength>
         <tiff:ImageWidth>36</tiff:ImageWidth>
      </rdf:Description>
   </rdf:RDF>
</x:xmpmeta>
                                                                                                    
                                                                                                    
                                                                                                    
                                                                                                    
                                                                                                    
                                                                                                    
                                                                                                    
                                                                                                    
                                                                                                 
<?xpacket end="w"?></metadata>
<defs>
    <style>
      .f4f63c20-d558-46f4-a2a2-3640c459b6ba {
        fill: #e00;
      }
    </style>
  </defs>
  <g>
    <path class="f4f63c20-d558-46f4-a2a2-3640c459b6ba" d="M27.68,23a.64.64,0,0,0-.86,0l-3.75,3.5a.63.63,0,0,0,.43,1.08h.88V31a.62.62,0,0,0,.62.62c.52,0,1.35.14,1.37-.62V28.62h1.74V31c0,.76.86.62,1.38.62a.62.62,0,0,0,.62-.62V27.62H31a.63.63,0,0,0,.43-1.08Z"/>
    <path class="f4f63c20-d558-46f4-a2a2-3640c459b6ba" d="M14.5,8.38h-6a.62.62,0,0,0,0,1.24h6A.62.62,0,0,0,14.5,8.38Z"/>
    <path class="f4f63c20-d558-46f4-a2a2-3640c459b6ba" d="M14.5,11.38h-6a.62.62,0,0,0,0,1.24h6A.62.62,0,0,0,14.5,11.38Z"/>
    <path class="f4f63c20-d558-46f4-a2a2-3640c459b6ba" d="M21.5,9.62h6a.62.62,0,0,0,0-1.24h-6A.62.62,0,0,0,21.5,9.62Z"/>
    <path class="f4f63c20-d558-46f4-a2a2-3640c459b6ba" d="M28.12,12a.62.62,0,0,0-.62-.62h-6a.62.62,0,0,0,0,1.24h6A.62.62,0,0,0,28.12,12Z"/>
    <path class="f4f63c20-d558-46f4-a2a2-3640c459b6ba" d="M8.5,16.84a.63.63,0,0,0-.62.63v3.06a.62.62,0,1,0,1.24,0V17.47A.63.63,0,0,0,8.5,16.84Z"/>
    <path class="f4f63c20-d558-46f4-a2a2-3640c459b6ba" d="M31,4.38H5A.62.62,0,0,0,4.38,5V31a.62.62,0,0,0,.62.62H22.25a.63.63,0,0,0,0-1.26H18.62V5.62H30.38V23.11a.62.62,0,1,0,1.24,0V5A.62.62,0,0,0,31,4.38ZM5.62,5.62H17.38V30.38H5.62Z"/>
    <path class="f4f63c20-d558-46f4-a2a2-3640c459b6ba" d="M20.88,17.47v3.06a.62.62,0,0,0,1.24,0V17.47A.62.62,0,0,0,20.88,17.47Z"/>
  </g>
</svg>
