<?xml version="1.0" encoding="UTF-8"?><svg id="uuid-3c654ee1-809a-437c-b7d0-0b2db0bf8a29" xmlns="http://www.w3.org/2000/svg" width="38" height="38" viewBox="0 0 38 38"><title>Red Hat Device Edge icon</title>
<desc>Cloud, Linux platforms</desc>
<metadata><?xpacket begin="﻿" id="W5M0MpCehiHzreSzNTczkc9d"?>
<x:xmpmeta xmlns:x="adobe:ns:meta/" x:xmptk="Adobe XMP Core 8.0-c001 1.000000, 0000/00/00-00:00:00        ">
   <rdf:RDF xmlns:rdf="http://www.w3.org/1999/02/22-rdf-syntax-ns#">
      <rdf:Description rdf:about=""
            xmlns:xmp="http://ns.adobe.com/xap/1.0/"
            xmlns:dc="http://purl.org/dc/elements/1.1/"
            xmlns:cq="http://www.day.com/jcr/cq/1.0"
            xmlns:tiff="http://ns.adobe.com/tiff/1.0/"
            xmlns:xmpRights="http://ns.adobe.com/xap/1.0/rights/">
         <xmp:rhcc-effective-on>2024-03-01T15:26:40.748Z</xmp:rhcc-effective-on>
         <xmp:rhcc-metadata-complete-moderator>pending</xmp:rhcc-metadata-complete-moderator>
         <xmp:rhcc-translation-id>TRA14342fae-0ddc-48d9-a65c-271f29667483</xmp:rhcc-translation-id>
         <xmp:brand-content-type>Icon</xmp:brand-content-type>
         <xmp:CreateDate>2024-03-01T15:26:40.748Z</xmp:CreateDate>
         <xmp:rhcc-aspect-ratio>square</xmp:rhcc-aspect-ratio>
         <xmp:rhcc-effective-on-set-on-upload>true</xmp:rhcc-effective-on-set-on-upload>
         <xmp:rhcc-metadata-complete-uploader>pending</xmp:rhcc-metadata-complete-uploader>
         <xmp:rhcc-file-last-modified>2024-07-12T23:52:30.162Z</xmp:rhcc-file-last-modified>
         <xmp:rhcc-audience>rhcc-audience:internal</xmp:rhcc-audience>
         <xmp:rhcc-rights-restricted>no</xmp:rhcc-rights-restricted>
         <xmp:brand-content-subtype>Technology icon</xmp:brand-content-subtype>
         <xmp:rhcc-derivative-id>DER14342fae-0ddc-48d9-a65c-271f29667483</xmp:rhcc-derivative-id>
         <xmp:rhcc-uploaded-by>pmeilleu@redhat.com</xmp:rhcc-uploaded-by>
         <xmp:brand-logo-color>Red</xmp:brand-logo-color>
         <xmp:rhcc-notify-portal-subscribers-on-change>yes</xmp:rhcc-notify-portal-subscribers-on-change>
         <xmp:rhcc-product>
            <rdf:Bag>
               <rdf:li>rhcc-product:red-hat-device-edge</rdf:li>
            </rdf:Bag>
         </xmp:rhcc-product>
         <xmp:brand-subtype>
            <rdf:Bag>
               <rdf:li>Technology icon</rdf:li>
            </rdf:Bag>
         </xmp:brand-subtype>
         <dc:format>image/svg+xml</dc:format>
         <dc:modified>2024-05-10T14:10:46.754Z</dc:modified>
         <dc:title>
            <rdf:Alt>
               <rdf:li xml:lang="x-default">Red Hat Device Edge icon</rdf:li>
            </rdf:Alt>
         </dc:title>
         <dc:description>
            <rdf:Alt>
               <rdf:li xml:lang="x-default">Cloud, Linux platforms</rdf:li>
            </rdf:Alt>
         </dc:description>
         <cq:lastReplicationAction_scene7>Activate</cq:lastReplicationAction_scene7>
         <cq:lastReplicationAction_publish>Activate</cq:lastReplicationAction_publish>
         <cq:lastReplicated_publish>2024-10-02T19:52:24.954Z</cq:lastReplicated_publish>
         <cq:lastReplicatedBy>workflow-process-service</cq:lastReplicatedBy>
         <cq:lastReplicationAction>Activate</cq:lastReplicationAction>
         <cq:lastReplicatedBy_publish>workflow-process-service</cq:lastReplicatedBy_publish>
         <cq:isDelivered>false</cq:isDelivered>
         <cq:lastReplicated>2024-10-02T19:52:24.954Z</cq:lastReplicated>
         <cq:lastReplicatedBy_scene7>workflow-process-service</cq:lastReplicatedBy_scene7>
         <cq:lastReplicated_scene7>2024-10-02T19:52:24.954Z</cq:lastReplicated_scene7>
         <tiff:ImageLength>38</tiff:ImageLength>
         <tiff:ImageWidth>38</tiff:ImageWidth>
         <xmpRights:UsageTerms>
            <rdf:Alt>
               <rdf:li xml:lang="x-default">Use technology icons to represent Red Hat products and components. Do not remove the icon from the bounding shape.</rdf:li>
            </rdf:Alt>
         </xmpRights:UsageTerms>
      </rdf:Description>
   </rdf:RDF>
</x:xmpmeta>
                                                                                                    
                                                                                                    
                                                                                                    
                                                                                                    
                                                                                                    
                                                                                                    
                                                                                                    
                                                                                                    
                                                                                                    
                                                                                                    
                                                                                                    
                                                                                                    
                                                                                                    
                                                                                                    
                                                                                                    
                                                                                                    
                                                                                                    
                                          
<?xpacket end="w"?></metadata>
<path d="m28,1H10C5.03,1,1,5.03,1,10v18c0,4.97,4.03,9,9,9h18c4.97,0,9-4.03,9-9V10c0-4.97-4.03-9-9-9ZM8.51,13.98c.15-.31.53-.44.84-.29.31.14.44.52.29.83-.11.22-.33.36-.56.36-.09,0-.19-.03-.27-.07-.32-.15-.45-.52-.3-.83Zm-.51,5.67c-.35,0-.62-.28-.62-.63s.27-.62.62-.62.62.28.63.62c0,.35-.28.63-.63.63Zm1.37,4.7c-.09.05-.18.07-.27.07-.24,0-.46-.13-.57-.36-.15-.31-.02-.68.29-.83.31-.15.69-.02.84.29.15.31.02.68-.29.83Zm15.97-14.36c.21-.27.61-.32.88-.1.27.21.31.61.1.88-.12.15-.31.23-.49.23-.14,0-.27-.04-.39-.13-.27-.22-.31-.61-.1-.88Zm-4.53-1.86c.07-.34.4-.55.74-.47.34.07.55.41.47.74-.06.29-.32.49-.6.49-.05,0-.1,0-.14,0-.34-.08-.55-.41-.47-.75Zm-4.43-.46c.34-.08.67.13.75.47.08.34-.13.67-.47.75-.05.01-.09.02-.14.02-.28,0-.54-.2-.61-.49-.08-.34.13-.67.47-.75Zm-4.65,2.26c.27-.21.66-.17.88.1.21.27.17.66-.1.88-.11.09-.25.13-.39.13-.18,0-.36-.08-.49-.23-.21-.27-.17-.66.1-.88Zm.91,18.07c-.12.15-.3.24-.49.24-.13,0-.27-.05-.39-.14-.27-.22-.31-.61-.09-.88.21-.27.6-.31.87-.1.27.22.32.61.1.88Zm4.53,1.87c-.06.29-.32.48-.6.48-.05,0-.1,0-.14,0-.34-.08-.55-.41-.47-.75.07-.33.41-.55.74-.47.34.08.55.41.47.75Zm1.83-3.25c-.16,0-.32-.06-.44-.18l-2-2c-.24-.24-.24-.64,0-.88s.64-.24.88,0l.93.93v-5.98l-.93.93c-.24.24-.64.24-.88,0s-.24-.64,0-.88l2-2c.24-.24.64-.24.88,0l2,2c.24.24.24.64,0,.88-.12.12-.28.18-.44.18s-.32-.06-.44-.18l-.93-.93v5.98l.93-.93c.24-.24.64-.24.88,0,.24.24.24.64,0,.88l-2,2c-.12.12-.28.18-.44.18Zm2.6,3.71s-.1.02-.14.02c-.29,0-.55-.2-.61-.49-.08-.33.13-.67.47-.74.34-.08.67.13.75.47.07.33-.14.67-.47.74Zm4.65-2.24c-.11.09-.25.13-.39.13-.18,0-.36-.08-.49-.23-.21-.27-.17-.67.1-.88.27-.22.67-.17.88.1.22.27.17.66-.1.88Zm-2.5-5.47h-.75c-.34,0-.62-.28-.62-.62s.28-.62.62-.62h.75c.9,0,1.62-.73,1.62-1.62,0-.83-.62-1.52-1.45-1.6-.33-.04-.58-.33-.56-.66,0-.12.01-.17.01-.23,0-2-1.63-3.62-3.62-3.62-1.44,0-2.75.86-3.32,2.18-.12.27-.4.42-.69.37-.16-.03-.32-.05-.49-.05-1.45,0-2.62,1.18-2.62,2.62,0,1.36,1.06,2.51,2.42,2.62.34.03.6.33.58.67-.03.34-.33.61-.67.58-2.01-.15-3.58-1.85-3.58-3.86,0-2.14,1.74-3.88,3.88-3.88.08,0,.16,0,.24,0,.85-1.54,2.48-2.51,4.26-2.51,2.61,0,4.75,2.06,4.87,4.65,1.17.37,2,1.46,2,2.73,0,1.59-1.29,2.88-2.88,2.88Zm4.87-8.99c.31-.15.69-.02.84.29.15.31.02.68-.29.83-.09.04-.18.06-.27.06-.24,0-.46-.12-.57-.35-.15-.31-.02-.68.29-.83Zm.86,10.41c-.11.23-.33.36-.57.36-.09,0-.18-.02-.27-.07-.31-.15-.44-.52-.29-.83.15-.31.52-.44.84-.29.31.15.44.52.29.83Zm.51-4.39c-.35,0-.62-.28-.62-.63s.27-.62.62-.62.62.28.63.62c0,.35-.28.63-.63.63Z" fill="#e00" stroke-width="0"/></svg>