<svg id="a8d5b516-7703-4318-a18a-9c2312c615d1" data-name="Icon" xmlns="http://www.w3.org/2000/svg" viewBox="0 0 36 36">
  <title>Forklift icon - Red</title>
<desc>work, industry, shipping, logistics, warehouse, construction, fulfillment, package, transportation</desc>
<metadata><?xpacket begin="﻿" id="W5M0MpCehiHzreSzNTczkc9d"?>
<x:xmpmeta xmlns:x="adobe:ns:meta/" x:xmptk="Adobe XMP Core 8.0-c001 1.000000, 0000/00/00-00:00:00        ">
   <rdf:RDF xmlns:rdf="http://www.w3.org/1999/02/22-rdf-syntax-ns#">
      <rdf:Description rdf:about=""
            xmlns:xmp="http://ns.adobe.com/xap/1.0/"
            xmlns:dc="http://purl.org/dc/elements/1.1/"
            xmlns:cq="http://www.day.com/jcr/cq/1.0"
            xmlns:tiff="http://ns.adobe.com/tiff/1.0/">
         <xmp:rhcc-effective-on>2023-12-08T17:46:12.345Z</xmp:rhcc-effective-on>
         <xmp:rhcc-metadata-complete-moderator>pending</xmp:rhcc-metadata-complete-moderator>
         <xmp:rhcc-translation-id>TRA9a4f590f-cc3a-4de7-aaa6-fb302454afdd</xmp:rhcc-translation-id>
         <xmp:brand-content-type>Icon</xmp:brand-content-type>
         <xmp:CreateDate>2023-12-08T17:46:12.345Z</xmp:CreateDate>
         <xmp:rhcc-aspect-ratio>square</xmp:rhcc-aspect-ratio>
         <xmp:rhcc-effective-on-set-on-upload>true</xmp:rhcc-effective-on-set-on-upload>
         <xmp:rhcc-published-asset-email-sent>true</xmp:rhcc-published-asset-email-sent>
         <xmp:rhcc-metadata-complete-uploader>pending</xmp:rhcc-metadata-complete-uploader>
         <xmp:rhcc-file-last-modified>2024-07-12T21:19:25.368Z</xmp:rhcc-file-last-modified>
         <xmp:rhcc-audience>rhcc-audience:internal</xmp:rhcc-audience>
         <xmp:brand-content-subtype>Icon</xmp:brand-content-subtype>
         <xmp:rhcc-rights-restricted>no</xmp:rhcc-rights-restricted>
         <xmp:rhcc-derivative-id>DER9a4f590f-cc3a-4de7-aaa6-fb302454afdd</xmp:rhcc-derivative-id>
         <xmp:rhcc-uploaded-by>pmeilleu@redhat.com</xmp:rhcc-uploaded-by>
         <xmp:brand-logo-color>Red</xmp:brand-logo-color>
         <xmp:rhcc-notify-portal-subscribers-on-change>yes</xmp:rhcc-notify-portal-subscribers-on-change>
         <dc:format>image/svg+xml</dc:format>
         <dc:modified>2024-02-09T20:25:27.491Z</dc:modified>
         <dc:title>
            <rdf:Alt>
               <rdf:li xml:lang="x-default">Forklift icon - Red</rdf:li>
            </rdf:Alt>
         </dc:title>
         <dc:description>
            <rdf:Alt>
               <rdf:li xml:lang="x-default">work, industry, shipping, logistics, warehouse, construction, fulfillment, package, transportation</rdf:li>
            </rdf:Alt>
         </dc:description>
         <cq:lastReplicationAction_scene7>Activate</cq:lastReplicationAction_scene7>
         <cq:lastReplicationAction_publish>Activate</cq:lastReplicationAction_publish>
         <cq:lastReplicated_publish>2024-10-02T19:46:23.980Z</cq:lastReplicated_publish>
         <cq:lastReplicatedBy>workflow-process-service</cq:lastReplicatedBy>
         <cq:lastReplicationAction>Activate</cq:lastReplicationAction>
         <cq:lastReplicatedBy_publish>workflow-process-service</cq:lastReplicatedBy_publish>
         <cq:isDelivered>false</cq:isDelivered>
         <cq:lastReplicated>2024-10-02T19:46:23.980Z</cq:lastReplicated>
         <cq:lastReplicatedBy_scene7>workflow-process-service</cq:lastReplicatedBy_scene7>
         <cq:lastReplicated_scene7>2024-10-02T19:46:23.980Z</cq:lastReplicated_scene7>
         <tiff:ImageLength>36</tiff:ImageLength>
         <tiff:ImageWidth>36</tiff:ImageWidth>
      </rdf:Description>
   </rdf:RDF>
</x:xmpmeta>
                                                                                                    
                                                                                                    
                                                                                                    
                                                                                                    
                                                                                                    
                                                                                                    
                                                                                                    
                                                                                                    
        
<?xpacket end="w"?></metadata>
<defs>
    <style>
      .bd0aee4b-1311-4335-b9aa-28c4890b212f {
        fill: #e00;
      }
    </style>
  </defs>
  <g>
    <path class="bd0aee4b-1311-4335-b9aa-28c4890b212f" d="M19.21,9.87a.62.62,0,0,0-.61-.49H14a.61.61,0,0,0-.62.62v8.38H5a.61.61,0,0,0-.62.62v6a.61.61,0,0,0,.62.62H6.52a3.11,3.11,0,1,0,6,0h2a3.11,3.11,0,1,0,6,0c.63-.06,2.05.33,1.92-.75C21.61,21.16,20,13.6,19.21,9.87Zm-4.59.75h3.47l1.6,7.51,0,.25H14.62ZM9.5,28.38a1.88,1.88,0,0,1,0-3.75A1.88,1.88,0,0,1,9.5,28.38Zm8,0a1.88,1.88,0,0,1,0-3.75A1.88,1.88,0,0,1,17.5,28.38Zm2.28-4a3.12,3.12,0,0,0-4.56,0H11.78a3.12,3.12,0,0,0-4.56,0H5.62V19.62H20l1,4.76Z"/>
    <path class="bd0aee4b-1311-4335-b9aa-28c4890b212f" d="M31.61,23.44a.61.61,0,0,0-.74-.48l-6.12,1.3L21.05,6.87a.62.62,0,0,0-1.22.26l3.82,18a.63.63,0,0,0,.62.49h.13l6.73-1.43A.62.62,0,0,0,31.61,23.44Z"/>
    <path class="bd0aee4b-1311-4335-b9aa-28c4890b212f" d="M25.51,22.15a.63.63,0,0,0,.74.48l4.57-1a.62.62,0,0,0,.48-.74l-1-4.56a.61.61,0,0,0-.74-.48l-4.57,1a.63.63,0,0,0-.48.74Zm3.73-4.92L30,20.57l-3.35.71-.71-3.34Z"/>
  </g>
</svg>
