<?xml version="1.0" encoding="UTF-8"?><svg id="uuid-13899e0c-7a1c-4fc1-aecc-0127f80b629b" xmlns="http://www.w3.org/2000/svg" width="36" height="36" viewBox="0 0 36 36"><title>Aluminum foil and plastic wrap icon</title>
<desc>aluminum, foil, plastic film, wrapping, food, waste, GWS, signage</desc>
<metadata><?xpacket begin="﻿" id="W5M0MpCehiHzreSzNTczkc9d"?>
<x:xmpmeta xmlns:x="adobe:ns:meta/" x:xmptk="Adobe XMP Core 8.0-c001 1.000000, 0000/00/00-00:00:00        ">
   <rdf:RDF xmlns:rdf="http://www.w3.org/1999/02/22-rdf-syntax-ns#">
      <rdf:Description rdf:about=""
            xmlns:tiff="http://ns.adobe.com/tiff/1.0/"
            xmlns:xmp="http://ns.adobe.com/xap/1.0/"
            xmlns:dc="http://purl.org/dc/elements/1.1/">
         <tiff:ImageWidth>36</tiff:ImageWidth>
         <tiff:ImageLength>36</tiff:ImageLength>
         <xmp:brand-content-type>Icon</xmp:brand-content-type>
         <xmp:rhcc-rights-restricted>no</xmp:rhcc-rights-restricted>
         <xmp:brand-content-subtype>Icon</xmp:brand-content-subtype>
         <xmp:rhcc-file-last-modified>2025-09-11T00:31:50.676Z</xmp:rhcc-file-last-modified>
         <xmp:brand-colorway>
            <rdf:Bag>
               <rdf:li>colorway:black</rdf:li>
            </rdf:Bag>
         </xmp:brand-colorway>
         <dc:format>image/svg+xml</dc:format>
         <dc:modified>2025-09-11T00:32:45.483Z</dc:modified>
         <dc:title>
            <rdf:Alt>
               <rdf:li xml:lang="x-default">Aluminum foil and plastic wrap icon</rdf:li>
            </rdf:Alt>
         </dc:title>
         <dc:description>
            <rdf:Alt>
               <rdf:li xml:lang="x-default">aluminum, foil, plastic film, wrapping, food, waste, GWS, signage</rdf:li>
            </rdf:Alt>
         </dc:description>
      </rdf:Description>
   </rdf:RDF>
</x:xmpmeta>
                                                                                                    
                                                                                                    
                                                                                                    
                                                                                                    
                                                                                                    
                                                                                                    
                                                                                                    
                                                                                                    
                                                                                                    
                                                                                                    
                                                                                                    
                                                                                                    
                                                                                                    
                                                                                                    
                                                                                                    
                                                                                                    
                                                                                                    
                                                                                                    
                                                                              
<?xpacket end="w"?></metadata>
<path d="M31.64844,13.5c0-3.44824-1.58545-6.14844-3.60986-6.14844-.00922,0-.01807.00214-.02728.00226-.00397-.00006-.00726-.00226-.01129-.00226H6.96143c-2.02441,0-3.60986,2.7002-3.60986,6.14844s1.58545,6.14844,3.60986,6.14844h.39014v9.35156c0,.3584.29004.64844.64844.64844h23c.3584,0,.64844-.29004.64844-.64844v-15.36981c0-.00574-.00317-.0105-.0033-.01624.00037-.03833.0033-.07544.0033-.11395ZM30.35156,13.5c0,2.85938-1.21924,4.85156-2.31299,4.85156s-2.31299-1.99219-2.31299-4.85156,1.21924-4.85156,2.31299-4.85156,2.31299,1.99219,2.31299,4.85156ZM24.42871,13.5c0,.29034.0152.573.03699.85156H6.56592l5.70312-5.70312h2.16504l-1.89258,1.89258c-.25342.25391-.25342.66406,0,.91797.12646.12598.29248.18945.4585.18945s.33203-.06348.4585-.18945l2.81055-2.81055h9.5318c-.83936,1.11615-1.37213,2.85657-1.37213,4.85156ZM6.96143,8.64844h3.47266l-5.70312,5.70312h-.03741c-.0246-.27588-.0451-.55591-.0451-.85156,0-2.85938,1.21924-4.85156,2.31299-4.85156ZM4.90851,15.64844h19.74323c.23041,1.08215.62982,2.01257,1.14911,2.70312H6.96143c-.78992,0-1.63861-1.04883-2.05292-2.70312ZM30.35156,28.35156H8.64844v-8.70312h19.35156c.00403,0,.00732-.0022.01129-.00226.00922.00012.01807.00226.02728.00226.8877,0,1.6908-.51947,2.31299-1.39325v10.09637Z"/><path d="M28.4585,20.54102c-.25293-.25195-.66406-.25195-.91699,0l-6,6c-.25342.25391-.25342.66406,0,.91797.12646.12598.29248.18945.4585.18945s.33203-.06348.4585-.18945l6-6c.25342-.25391.25342-.66406,0-.91797Z"/><path d="M28.5415,23.54102l-3,3c-.25342.25391-.25342.66406,0,.91797.12646.12598.29248.18945.4585.18945s.33203-.06348.4585-.18945l3-3c.25342-.25391.25342-.66406,0-.91797-.25293-.25195-.66406-.25195-.91699,0Z"/></svg>