<?xml version="1.0" encoding="UTF-8"?><svg id="uuid-557cf333-02f6-4180-b140-416da4028a85" xmlns="http://www.w3.org/2000/svg" viewBox="0 0 38 38"><title>Red Hat Runtimes icon</title>
<desc>Application services</desc>
<metadata><?xpacket begin="﻿" id="W5M0MpCehiHzreSzNTczkc9d"?>
<x:xmpmeta xmlns:x="adobe:ns:meta/" x:xmptk="Adobe XMP Core 8.0-c001 1.000000, 0000/00/00-00:00:00        ">
   <rdf:RDF xmlns:rdf="http://www.w3.org/1999/02/22-rdf-syntax-ns#">
      <rdf:Description rdf:about=""
            xmlns:xmp="http://ns.adobe.com/xap/1.0/"
            xmlns:dc="http://purl.org/dc/elements/1.1/"
            xmlns:cq="http://www.day.com/jcr/cq/1.0"
            xmlns:tiff="http://ns.adobe.com/tiff/1.0/"
            xmlns:xmpRights="http://ns.adobe.com/xap/1.0/rights/">
         <xmp:rhcc-effective-on>2024-03-01T15:27:39.554Z</xmp:rhcc-effective-on>
         <xmp:rhcc-metadata-complete-moderator>pending</xmp:rhcc-metadata-complete-moderator>
         <xmp:rhcc-translation-id>TRA0cf3eb09-4744-4199-862a-e88470852237</xmp:rhcc-translation-id>
         <xmp:brand-content-type>Icon</xmp:brand-content-type>
         <xmp:CreateDate>2024-03-01T15:27:39.554Z</xmp:CreateDate>
         <xmp:rhcc-aspect-ratio>square</xmp:rhcc-aspect-ratio>
         <xmp:rhcc-effective-on-set-on-upload>true</xmp:rhcc-effective-on-set-on-upload>
         <xmp:rhcc-published-asset-email-sent>true</xmp:rhcc-published-asset-email-sent>
         <xmp:rhcc-metadata-complete-uploader>pending</xmp:rhcc-metadata-complete-uploader>
         <xmp:rhcc-file-last-modified>2024-07-13T00:01:04.490Z</xmp:rhcc-file-last-modified>
         <xmp:rhcc-audience>rhcc-audience:internal</xmp:rhcc-audience>
         <xmp:rhcc-rights-restricted>no</xmp:rhcc-rights-restricted>
         <xmp:brand-content-subtype>Technology icon</xmp:brand-content-subtype>
         <xmp:rhcc-derivative-id>DER0cf3eb09-4744-4199-862a-e88470852237</xmp:rhcc-derivative-id>
         <xmp:rhcc-uploaded-by>pmeilleu@redhat.com</xmp:rhcc-uploaded-by>
         <xmp:brand-logo-color>Red</xmp:brand-logo-color>
         <xmp:rhcc-notify-portal-subscribers-on-change>yes</xmp:rhcc-notify-portal-subscribers-on-change>
         <xmp:rhcc-product>
            <rdf:Bag>
               <rdf:li>rhcc-product:red-hat-runtimes</rdf:li>
            </rdf:Bag>
         </xmp:rhcc-product>
         <xmp:brand-subtype>
            <rdf:Bag>
               <rdf:li>Technology icon</rdf:li>
            </rdf:Bag>
         </xmp:brand-subtype>
         <dc:format>image/svg+xml</dc:format>
         <dc:modified>2024-05-10T00:32:18.713Z</dc:modified>
         <dc:title>
            <rdf:Alt>
               <rdf:li xml:lang="x-default">Red Hat Runtimes icon</rdf:li>
            </rdf:Alt>
         </dc:title>
         <dc:description>
            <rdf:Alt>
               <rdf:li xml:lang="x-default">Application services</rdf:li>
            </rdf:Alt>
         </dc:description>
         <cq:lastReplicationAction_scene7>Activate</cq:lastReplicationAction_scene7>
         <cq:lastReplicationAction_publish>Activate</cq:lastReplicationAction_publish>
         <cq:lastReplicated_publish>2024-10-02T19:53:54.107Z</cq:lastReplicated_publish>
         <cq:lastReplicatedBy>workflow-process-service</cq:lastReplicatedBy>
         <cq:lastReplicationAction>Activate</cq:lastReplicationAction>
         <cq:lastReplicatedBy_publish>workflow-process-service</cq:lastReplicatedBy_publish>
         <cq:isDelivered>false</cq:isDelivered>
         <cq:lastReplicated>2024-10-02T19:53:54.107Z</cq:lastReplicated>
         <cq:lastReplicatedBy_scene7>workflow-process-service</cq:lastReplicatedBy_scene7>
         <cq:lastReplicated_scene7>2024-10-02T19:53:54.107Z</cq:lastReplicated_scene7>
         <tiff:ImageLength>38</tiff:ImageLength>
         <tiff:ImageWidth>38</tiff:ImageWidth>
         <xmpRights:UsageTerms>
            <rdf:Alt>
               <rdf:li xml:lang="x-default">Use technology icons to represent Red Hat products and components. Do not remove the icon from the bounding shape.</rdf:li>
            </rdf:Alt>
         </xmpRights:UsageTerms>
      </rdf:Description>
   </rdf:RDF>
</x:xmpmeta>
                                                                                                    
                                                                                                    
                                                                                                    
                                                                                                    
                                                                                                    
                                                                                                    
                                                                                                    
                                                                                                    
                                                                                                    
                                                                                                    
                                                                                                    
                                                                                                    
                                                                                                    
                                                                                                    
                                                                                                    
                                                                                                    
                                                      
<?xpacket end="w"?></metadata>
<defs><style>.uuid-efea8382-8202-4801-b4ab-10c639eae6b1{fill:#e00;}</style></defs><path class="uuid-efea8382-8202-4801-b4ab-10c639eae6b1" d="m20.625,26.375h6.75v-6.75h-6.75v6.75Zm4.93457-5.81543c.06055-.05957.12012-.10938.2002-.13965.15039-.06055.32031-.06055.48047,0,.0791.03027.14941.08008.19922.13965.12012.12012.19043.28027.19043.44043s-.07031.31934-.19043.43945c-.05957.06055-.12012.11035-.19922.14062-.08008.0293-.16016.04004-.24023.04004-.16992,0-.33008-.06055-.44043-.18066-.12012-.12012-.18945-.2793-.18945-.43945s.06934-.32031.18945-.44043Zm-2.13965.2002c.03027-.07031.08008-.15039.13965-.2002.06055-.05957.12988-.09961.2002-.13965.23047-.08984.50977-.03027.67969.13965.06055.0498.11035.12988.14062.2002.0293.08008.0498.16016.0498.24023s-.02051.16016-.0498.24023c-.03027.06934-.08008.14941-.14062.19922-.10938.12012-.2793.19043-.43945.19043-.08008,0-.16016-.02051-.24023-.0498-.07031-.03027-.13965-.08008-.2002-.14062-.05957-.0498-.10938-.12988-.13965-.19922-.03027-.08008-.0498-.16016-.0498-.24023s.01953-.16016.0498-.24023Z"/><path class="uuid-efea8382-8202-4801-b4ab-10c639eae6b1" d="m28,1H10C5.02942,1,1,5.02942,1,10v18c0,4.97052,4.02942,9,9,9h18c4.97058,0,9-4.02948,9-9V10c0-4.97058-4.02942-9-9-9Zm-15,21.375h4c.34473,0,.625.28027.625.625s-.28027.625-.625.625h-4c-2.5498,0-4.625-2.0752-4.625-4.625,0-2.52441,2.03223-4.58203,4.54688-4.62402,1.04102-2.41211,3.42578-4.00098,6.07812-4.00098,3.25,0,5.99707,2.32227,6.5332,5.52148.05762.34082-.17285.66309-.5127.71973-.3418.06055-.66309-.17188-.71973-.5127-.43457-2.59473-2.66406-4.47852-5.30078-4.47852-2.2832,0-4.32227,1.45215-5.07324,3.61426-.09375.26953-.36133.44043-.64453.41797l-.15625-.01855c-.04199-.00586-.08301-.01367-.12598-.01367-1.86133,0-3.375,1.51367-3.375,3.375s1.51367,3.375,3.375,3.375Zm15.625,4.625c0,.34473-.28027.625-.625.625h-8c-.34473,0-.625-.28027-.625-.625v-8c0-.34473.28027-.625.625-.625h8c.34473,0,.625.28027.625.625v8Z"/></svg>