<svg id="a06ccef5-3f91-42e8-95c0-7864429d4557" data-name="Icon" xmlns="http://www.w3.org/2000/svg" viewBox="0 0 36 36">
  <title>Community of people icon - White</title>
<desc>people, humans, together, connect, communicate, work, group, people and audiences</desc>
<metadata><?xpacket begin="﻿" id="W5M0MpCehiHzreSzNTczkc9d"?>
<x:xmpmeta xmlns:x="adobe:ns:meta/" x:xmptk="Adobe XMP Core 8.0-c001 1.000000, 0000/00/00-00:00:00        ">
   <rdf:RDF xmlns:rdf="http://www.w3.org/1999/02/22-rdf-syntax-ns#">
      <rdf:Description rdf:about=""
            xmlns:xmp="http://ns.adobe.com/xap/1.0/"
            xmlns:dc="http://purl.org/dc/elements/1.1/"
            xmlns:cq="http://www.day.com/jcr/cq/1.0"
            xmlns:tiff="http://ns.adobe.com/tiff/1.0/">
         <xmp:rhcc-effective-on>2023-12-08T17:33:47.568Z</xmp:rhcc-effective-on>
         <xmp:rhcc-metadata-complete-moderator>pending</xmp:rhcc-metadata-complete-moderator>
         <xmp:rhcc-translation-id>TRA947132fe-e362-4955-a65a-124774130263</xmp:rhcc-translation-id>
         <xmp:brand-content-type>Icon</xmp:brand-content-type>
         <xmp:CreateDate>2023-12-08T17:33:47.568Z</xmp:CreateDate>
         <xmp:rhcc-aspect-ratio>square</xmp:rhcc-aspect-ratio>
         <xmp:rhcc-effective-on-set-on-upload>true</xmp:rhcc-effective-on-set-on-upload>
         <xmp:rhcc-published-asset-email-sent>true</xmp:rhcc-published-asset-email-sent>
         <xmp:rhcc-metadata-complete-uploader>pending</xmp:rhcc-metadata-complete-uploader>
         <xmp:rhcc-file-last-modified>2024-07-12T20:43:25.443Z</xmp:rhcc-file-last-modified>
         <xmp:rhcc-audience>rhcc-audience:internal</xmp:rhcc-audience>
         <xmp:brand-content-subtype>Icon</xmp:brand-content-subtype>
         <xmp:rhcc-rights-restricted>no</xmp:rhcc-rights-restricted>
         <xmp:rhcc-derivative-id>DER947132fe-e362-4955-a65a-124774130263</xmp:rhcc-derivative-id>
         <xmp:rhcc-uploaded-by>pmeilleu@redhat.com</xmp:rhcc-uploaded-by>
         <xmp:brand-logo-color>White</xmp:brand-logo-color>
         <xmp:rhcc-notify-portal-subscribers-on-change>yes</xmp:rhcc-notify-portal-subscribers-on-change>
         <dc:format>image/svg+xml</dc:format>
         <dc:modified>2024-02-09T20:21:55.191Z</dc:modified>
         <dc:title>
            <rdf:Alt>
               <rdf:li xml:lang="x-default">Community of people icon - White</rdf:li>
            </rdf:Alt>
         </dc:title>
         <dc:description>
            <rdf:Alt>
               <rdf:li xml:lang="x-default">people, humans, together, connect, communicate, work, group, people and audiences</rdf:li>
            </rdf:Alt>
         </dc:description>
         <cq:lastReplicationAction_scene7>Activate</cq:lastReplicationAction_scene7>
         <cq:lastReplicationAction_publish>Activate</cq:lastReplicationAction_publish>
         <cq:lastReplicated_publish>2024-10-02T19:31:57.398Z</cq:lastReplicated_publish>
         <cq:lastReplicatedBy>workflow-process-service</cq:lastReplicatedBy>
         <cq:lastReplicationAction>Activate</cq:lastReplicationAction>
         <cq:lastReplicatedBy_publish>workflow-process-service</cq:lastReplicatedBy_publish>
         <cq:isDelivered>false</cq:isDelivered>
         <cq:lastReplicated>2024-10-02T19:31:57.398Z</cq:lastReplicated>
         <cq:lastReplicatedBy_scene7>workflow-process-service</cq:lastReplicatedBy_scene7>
         <cq:lastReplicated_scene7>2024-10-02T19:31:57.398Z</cq:lastReplicated_scene7>
         <tiff:ImageLength>36</tiff:ImageLength>
         <tiff:ImageWidth>36</tiff:ImageWidth>
      </rdf:Description>
   </rdf:RDF>
</x:xmpmeta>
                                                                                                    
                                                                                                    
                                                                                                    
                                                                                                    
                                                                                                    
                                                                                                    
                                                                                                    
                                                                                                    
        
<?xpacket end="w"?></metadata>
<defs>
    <style>
      .b4319aa0-6118-4fd2-b23f-1a828e81acdf {
        fill: #fff;
      }
    </style>
  </defs>
  <g>
    <path class="b4319aa0-6118-4fd2-b23f-1a828e81acdf" d="M12.87,23.29a3.86,3.86,0,1,0-4.74,0A7.11,7.11,0,0,0,3.38,30a.61.61,0,0,0,.62.62H17a.63.63,0,0,0,.63-.62A7.13,7.13,0,0,0,12.87,23.29Zm-5-3a2.62,2.62,0,0,1,5.24,0A2.62,2.62,0,0,1,7.88,20.25ZM4.66,29.38c.84-6.94,10.84-6.93,11.68,0Z"/>
    <path class="b4319aa0-6118-4fd2-b23f-1a828e81acdf" d="M13.37,15.38a6,6,0,0,1,9.48.18.61.61,0,0,0,.66-.07c1.07-1-2.27-3-3.13-3.21a3.86,3.86,0,1,0-4.76,0c-.86.25-4.2,2.18-3.13,3.21A.62.62,0,0,0,13.37,15.38Zm2-6.13a2.62,2.62,0,0,1,5.24,0A2.62,2.62,0,0,1,15.38,9.25Z"/>
    <path class="b4319aa0-6118-4fd2-b23f-1a828e81acdf" d="M16,19.38a.62.62,0,0,0,0,1.24h4a.62.62,0,0,0,0-1.24Z"/>
    <path class="b4319aa0-6118-4fd2-b23f-1a828e81acdf" d="M27.87,23.29a3.86,3.86,0,1,0-4.74,0A7.11,7.11,0,0,0,18.38,30a.61.61,0,0,0,.62.62H32a.63.63,0,0,0,.63-.62A7.13,7.13,0,0,0,27.87,23.29Zm-5-3a2.62,2.62,0,0,1,5.24,0A2.62,2.62,0,0,1,22.88,20.25Zm-3.22,9.13c.84-6.94,10.84-6.93,11.68,0Z"/>
  </g>
</svg>
