<?xml version="1.0" encoding="UTF-8"?><svg id="uuid-cabfa142-c5a9-4b33-93e4-c4895bbe468d" xmlns="http://www.w3.org/2000/svg" viewBox="0 0 38 38"><title>Red Hat OpenShift Pipelines icon</title>
<desc>Cloud</desc>
<metadata><?xpacket begin="﻿" id="W5M0MpCehiHzreSzNTczkc9d"?>
<x:xmpmeta xmlns:x="adobe:ns:meta/" x:xmptk="Adobe XMP Core 8.0-c001 1.000000, 0000/00/00-00:00:00        ">
   <rdf:RDF xmlns:rdf="http://www.w3.org/1999/02/22-rdf-syntax-ns#">
      <rdf:Description rdf:about=""
            xmlns:xmp="http://ns.adobe.com/xap/1.0/"
            xmlns:dc="http://purl.org/dc/elements/1.1/"
            xmlns:cq="http://www.day.com/jcr/cq/1.0"
            xmlns:tiff="http://ns.adobe.com/tiff/1.0/"
            xmlns:xmpRights="http://ns.adobe.com/xap/1.0/rights/">
         <xmp:rhcc-effective-on>2024-03-01T15:27:11.132Z</xmp:rhcc-effective-on>
         <xmp:rhcc-metadata-complete-moderator>pending</xmp:rhcc-metadata-complete-moderator>
         <xmp:rhcc-translation-id>TRA127bb170-15e0-444a-8fe0-75db04eb19aa</xmp:rhcc-translation-id>
         <xmp:brand-content-type>Icon</xmp:brand-content-type>
         <xmp:CreateDate>2024-03-01T15:27:11.132Z</xmp:CreateDate>
         <xmp:rhcc-aspect-ratio>square</xmp:rhcc-aspect-ratio>
         <xmp:rhcc-effective-on-set-on-upload>true</xmp:rhcc-effective-on-set-on-upload>
         <xmp:rhcc-published-asset-email-sent>true</xmp:rhcc-published-asset-email-sent>
         <xmp:rhcc-metadata-complete-uploader>pending</xmp:rhcc-metadata-complete-uploader>
         <xmp:rhcc-file-last-modified>2024-07-13T00:01:05.466Z</xmp:rhcc-file-last-modified>
         <xmp:rhcc-audience>rhcc-audience:internal</xmp:rhcc-audience>
         <xmp:rhcc-rights-restricted>no</xmp:rhcc-rights-restricted>
         <xmp:brand-content-subtype>Technology icon</xmp:brand-content-subtype>
         <xmp:rhcc-derivative-id>DER127bb170-15e0-444a-8fe0-75db04eb19aa</xmp:rhcc-derivative-id>
         <xmp:rhcc-uploaded-by>pmeilleu@redhat.com</xmp:rhcc-uploaded-by>
         <xmp:brand-logo-color>Red</xmp:brand-logo-color>
         <xmp:rhcc-notify-portal-subscribers-on-change>yes</xmp:rhcc-notify-portal-subscribers-on-change>
         <xmp:rhcc-product>
            <rdf:Bag>
               <rdf:li>rhcc-product:red-hat-openshift-container-platform</rdf:li>
            </rdf:Bag>
         </xmp:rhcc-product>
         <xmp:brand-subtype>
            <rdf:Bag>
               <rdf:li>Technology icon</rdf:li>
            </rdf:Bag>
         </xmp:brand-subtype>
         <dc:format>image/svg+xml</dc:format>
         <dc:modified>2024-05-10T00:24:48.404Z</dc:modified>
         <dc:title>
            <rdf:Alt>
               <rdf:li xml:lang="x-default">Red Hat OpenShift Pipelines icon</rdf:li>
            </rdf:Alt>
         </dc:title>
         <dc:description>
            <rdf:Alt>
               <rdf:li xml:lang="x-default">Cloud</rdf:li>
            </rdf:Alt>
         </dc:description>
         <cq:lastReplicationAction_scene7>Activate</cq:lastReplicationAction_scene7>
         <cq:lastReplicationAction_publish>Activate</cq:lastReplicationAction_publish>
         <cq:lastReplicated_publish>2024-10-02T19:53:00.476Z</cq:lastReplicated_publish>
         <cq:lastReplicatedBy>workflow-process-service</cq:lastReplicatedBy>
         <cq:lastReplicationAction>Activate</cq:lastReplicationAction>
         <cq:lastReplicatedBy_publish>workflow-process-service</cq:lastReplicatedBy_publish>
         <cq:isDelivered>false</cq:isDelivered>
         <cq:lastReplicated>2024-10-02T19:53:00.476Z</cq:lastReplicated>
         <cq:lastReplicatedBy_scene7>workflow-process-service</cq:lastReplicatedBy_scene7>
         <cq:lastReplicated_scene7>2024-10-02T19:53:00.476Z</cq:lastReplicated_scene7>
         <tiff:ImageLength>38</tiff:ImageLength>
         <tiff:ImageWidth>38</tiff:ImageWidth>
         <xmpRights:UsageTerms>
            <rdf:Alt>
               <rdf:li xml:lang="x-default">Use technology icons to represent Red Hat products and components. Do not remove the icon from the bounding shape.</rdf:li>
            </rdf:Alt>
         </xmpRights:UsageTerms>
      </rdf:Description>
   </rdf:RDF>
</x:xmpmeta>
                                                                                                    
                                                                                                    
                                                                                                    
                                                                                                    
                                                                                                    
                                                                                                    
                                                                                                    
                                                                                                    
                                                                                                    
                                                                                                    
                                                                                                    
                                                                                                    
                                                                                                    
                                                                                                    
                                                                                                    
                                                                                                    
                                                      
<?xpacket end="w"?></metadata>
<defs><style>.uuid-12bb4ece-2c6c-41a7-a517-6df12c604dc8{fill:#e00;}</style></defs><path class="uuid-12bb4ece-2c6c-41a7-a517-6df12c604dc8" d="m28,1H10C5.02942,1,1,5.02942,1,10v18c0,4.97058,4.02942,9,9,9h18c4.97058,0,9-4.02942,9-9V10c0-4.97058-4.02942-9-9-9Zm7.75,27c0,4.27332-3.47668,7.75-7.75,7.75H10c-4.27332,0-7.75-3.47668-7.75-7.75V10c0-4.27332,3.47668-7.75,7.75-7.75h18c4.27332,0,7.75,3.47668,7.75,7.75v18Z"/><path class="uuid-12bb4ece-2c6c-41a7-a517-6df12c604dc8" d="m29.55762,17.55762l-.9657.96631c-.17004-3.48584-2.16003-6.58105-5.3136-8.14795-.31152-.15625-.68457-.02832-.83789.28125s-.02734.68457.28125.83789c2.70435,1.34338,4.42334,3.97876,4.61523,6.95764l-.89453-.89514c-.24414-.24414-.64062-.24414-.88477,0-.24316.24414-.24316.64062,0,.88477l2,2c.12207.12207.28223.18262.44238.18262s.32031-.06055.44238-.18262l2-2c.24316-.24414.24316-.64062,0-.88477-.24414-.24414-.64062-.24414-.88477,0Z"/><path class="uuid-12bb4ece-2c6c-41a7-a517-6df12c604dc8" d="m10.65723,15.55957c.08984.04492.18457.06543.27832.06543.22949,0,.4502-.12695.55957-.34668.78809-1.58691,2.08984-2.90918,3.66504-3.72266.30664-.15918.42676-.53613.26855-.84277-.1582-.30566-.53418-.42676-.84277-.26855-1.80957.93555-3.30469,2.45508-4.20996,4.27734-.15332.30957-.02734.68457.28125.83789Z"/><path class="uuid-12bb4ece-2c6c-41a7-a517-6df12c604dc8" d="m15.27832,26.50488c-1.62988-.80957-2.97363-2.15332-3.7832-3.7832-.15332-.30957-.52637-.43555-.83789-.28125-.30859.15332-.43457.52832-.28125.83789.93066,1.87207,2.47363,3.41504,4.3457,4.3457.08984.04492.18457.06543.27832.06543.22949,0,.4502-.12695.55957-.34668.15332-.30957.02734-.68457-.28125-.83789Z"/><path class="uuid-12bb4ece-2c6c-41a7-a517-6df12c604dc8" d="m27.34277,22.44043c-.30957-.15625-.68457-.02832-.83789.28125-.78809,1.58691-2.08984,2.90918-3.66504,3.72266-.30664.15918-.42676.53613-.26855.84277.11133.21484.33008.33789.55664.33789.0957,0,.19434-.02246.28613-.06934,1.80957-.93555,3.30469-2.45508,4.20996-4.27734.15332-.30957.02734-.68457-.28125-.83789Z"/><path class="uuid-12bb4ece-2c6c-41a7-a517-6df12c604dc8" d="m19,7.375c-1.44727,0-2.625,1.17773-2.625,2.625s1.17773,2.625,2.625,2.625,2.625-1.17773,2.625-2.625-1.17773-2.625-2.625-2.625Zm0,4c-.75781,0-1.375-.61719-1.375-1.375s.61719-1.375,1.375-1.375,1.375.61719,1.375,1.375-.61719,1.375-1.375,1.375Z"/><path class="uuid-12bb4ece-2c6c-41a7-a517-6df12c604dc8" d="m12.625,19c0-1.44727-1.17773-2.625-2.625-2.625s-2.625,1.17773-2.625,2.625,1.17773,2.625,2.625,2.625,2.625-1.17773,2.625-2.625Zm-2.625,1.375c-.75781,0-1.375-.61719-1.375-1.375s.61719-1.375,1.375-1.375,1.375.61719,1.375,1.375-.61719,1.375-1.375,1.375Z"/><path class="uuid-12bb4ece-2c6c-41a7-a517-6df12c604dc8" d="m19,25.375c-1.44727,0-2.625,1.17773-2.625,2.625s1.17773,2.625,2.625,2.625,2.625-1.17773,2.625-2.625-1.17773-2.625-2.625-2.625Zm0,4c-.75781,0-1.375-.61719-1.375-1.375s.61719-1.375,1.375-1.375,1.375.61719,1.375,1.375-.61719,1.375-1.375,1.375Z"/></svg>