<?xml version="1.0" encoding="UTF-8"?><svg id="uuid-67c0760f-e188-4766-8899-4f27e6c7f84d" xmlns="http://www.w3.org/2000/svg" viewBox="0 0 36 36"><metadata><?xpacket begin="﻿" id="W5M0MpCehiHzreSzNTczkc9d"?>
<x:xmpmeta xmlns:x="adobe:ns:meta/" x:xmptk="Adobe XMP Core 8.0-c001 1.000000, 0000/00/00-00:00:00        ">
   <rdf:RDF xmlns:rdf="http://www.w3.org/1999/02/22-rdf-syntax-ns#">
      <rdf:Description rdf:about=""
            xmlns:xmp="http://ns.adobe.com/xap/1.0/"
            xmlns:dc="http://purl.org/dc/elements/1.1/">
         <xmp:rhcc-effective-on>2024-04-04T17:02:07.711Z</xmp:rhcc-effective-on>
         <xmp:rhcc-metadata-complete-moderator>pending</xmp:rhcc-metadata-complete-moderator>
         <xmp:rhcc-translation-id>TRA0df9b6cb-7d82-41f9-b378-abbc39c90201</xmp:rhcc-translation-id>
         <xmp:CreateDate>2024-04-04T17:02:07.711Z</xmp:CreateDate>
         <xmp:rhcc-effective-on-set-on-upload>true</xmp:rhcc-effective-on-set-on-upload>
         <xmp:rhcc-metadata-complete-uploader>pending</xmp:rhcc-metadata-complete-uploader>
         <xmp:rhcc-file-last-modified>2024-07-12T23:37:05.966Z</xmp:rhcc-file-last-modified>
         <xmp:rhcc-audience>rhcc-audience:internal</xmp:rhcc-audience>
         <xmp:rhcc-rights-restricted>no</xmp:rhcc-rights-restricted>
         <xmp:rhcc-derivative-id>DER0df9b6cb-7d82-41f9-b378-abbc39c90201</xmp:rhcc-derivative-id>
         <xmp:rhcc-uploaded-by>ryawilli@redhat.com</xmp:rhcc-uploaded-by>
         <xmp:rhcc-notify-portal-subscribers-on-change>yes</xmp:rhcc-notify-portal-subscribers-on-change>
         <dc:format>image/svg+xml</dc:format>
         <dc:modified>2024-10-02T19:42:23.669Z</dc:modified>
      </rdf:Description>
   </rdf:RDF>
</x:xmpmeta>
                                                                                                    
                                                                                                    
                                                                                                    
                                                                                                    
                                                                                                    
                                                                                                    
                                                                                                    
                                                                                                    
                                                                                                    
                                                                                                    
                                                                                                    
                                                                                                    
                                                                                                    
                                                                                                    
                                                                                                    
                                                                                                    
                                                                                                    
                                                                                                    
                                                                                                    
                                                                                                    
                           
<?xpacket end="w"?></metadata>
<defs><style>.uuid-2cc2310c-95b4-4af6-94fe-6bca4516cdac{stroke-width:0px;}</style></defs><path class="uuid-2cc2310c-95b4-4af6-94fe-6bca4516cdac" d="M18,3.375c-8.0645,0-14.625,6.5605-14.625,14.625s6.5605,14.625,14.625,14.625,14.625-6.5605,14.625-14.625S26.0645,3.375,18,3.375ZM18,31.375c-7.375,0-13.375-6-13.375-13.375s6-13.375,13.375-13.375,13.375,6,13.375,13.375-6,13.375-13.375,13.375Z"/><path class="uuid-2cc2310c-95b4-4af6-94fe-6bca4516cdac" d="M18,10.375c-2.5503,0-4.625,2.0752-4.625,4.625,0,.3447.2798.625.625.625s.625-.2803.625-.625c0-1.8613,1.5142-3.375,3.375-3.375s3.375,1.5137,3.375,3.375-1.5142,3.375-3.375,3.375c-.3452,0-.625.2803-.625.625v3c0,.3447.2798.625.625.625s.625-.2803.625-.625v-2.4382c2.2529-.3088,4-2.226,4-4.5618,0-2.5498-2.0747-4.625-4.625-4.625Z"/><path class="uuid-2cc2310c-95b4-4af6-94fe-6bca4516cdac" d="M17.5601,24.5596c-.0601.0605-.1104.1201-.1401.2002-.0303.0801-.0503.1602-.0503.2402,0,.1699.0703.3301.1904.4395.1099.1201.2798.1904.4399.1904.1597,0,.3296-.0703.4399-.1904.1201-.1201.1797-.2793.1797-.4395s-.0596-.3203-.1797-.4404c-.2402-.2402-.6499-.2402-.8799,0Z"/></svg>