<?xml version="1.0" encoding="UTF-8"?><svg id="uuid-d997f4dd-2b54-479b-9965-2256862a24c0" xmlns="http://www.w3.org/2000/svg" viewBox="0 0 38 38"><title>Security profile operator icon</title>
<desc>Cloud</desc>
<metadata><?xpacket begin="﻿" id="W5M0MpCehiHzreSzNTczkc9d"?>
<x:xmpmeta xmlns:x="adobe:ns:meta/" x:xmptk="Adobe XMP Core 8.0-c001 1.000000, 0000/00/00-00:00:00        ">
   <rdf:RDF xmlns:rdf="http://www.w3.org/1999/02/22-rdf-syntax-ns#">
      <rdf:Description rdf:about=""
            xmlns:xmp="http://ns.adobe.com/xap/1.0/"
            xmlns:dc="http://purl.org/dc/elements/1.1/"
            xmlns:cq="http://www.day.com/jcr/cq/1.0"
            xmlns:tiff="http://ns.adobe.com/tiff/1.0/"
            xmlns:xmpRights="http://ns.adobe.com/xap/1.0/rights/">
         <xmp:rhcc-effective-on>2024-03-01T15:28:01.203Z</xmp:rhcc-effective-on>
         <xmp:rhcc-metadata-complete-moderator>pending</xmp:rhcc-metadata-complete-moderator>
         <xmp:rhcc-translation-id>TRA02ae3851-3701-465b-a6d2-9a1a98cec545</xmp:rhcc-translation-id>
         <xmp:brand-content-type>Icon</xmp:brand-content-type>
         <xmp:CreateDate>2024-03-01T15:28:01.203Z</xmp:CreateDate>
         <xmp:rhcc-aspect-ratio>square</xmp:rhcc-aspect-ratio>
         <xmp:rhcc-effective-on-set-on-upload>true</xmp:rhcc-effective-on-set-on-upload>
         <xmp:rhcc-metadata-complete-uploader>pending</xmp:rhcc-metadata-complete-uploader>
         <xmp:rhcc-file-last-modified>2024-07-12T23:51:54.255Z</xmp:rhcc-file-last-modified>
         <xmp:rhcc-audience>rhcc-audience:internal</xmp:rhcc-audience>
         <xmp:rhcc-rights-restricted>no</xmp:rhcc-rights-restricted>
         <xmp:brand-content-subtype>Technology icon</xmp:brand-content-subtype>
         <xmp:rhcc-derivative-id>DER02ae3851-3701-465b-a6d2-9a1a98cec545</xmp:rhcc-derivative-id>
         <xmp:rhcc-uploaded-by>pmeilleu@redhat.com</xmp:rhcc-uploaded-by>
         <xmp:brand-logo-color>White</xmp:brand-logo-color>
         <xmp:rhcc-notify-portal-subscribers-on-change>yes</xmp:rhcc-notify-portal-subscribers-on-change>
         <xmp:rhcc-product>
            <rdf:Bag>
               <rdf:li>rhcc-product:red-hat-openshift</rdf:li>
            </rdf:Bag>
         </xmp:rhcc-product>
         <xmp:brand-subtype>
            <rdf:Bag>
               <rdf:li>Technology icon</rdf:li>
            </rdf:Bag>
         </xmp:brand-subtype>
         <dc:format>image/svg+xml</dc:format>
         <dc:modified>2024-05-10T00:35:10.528Z</dc:modified>
         <dc:title>
            <rdf:Alt>
               <rdf:li xml:lang="x-default">Security profile operator icon</rdf:li>
            </rdf:Alt>
         </dc:title>
         <dc:description>
            <rdf:Alt>
               <rdf:li xml:lang="x-default">Cloud</rdf:li>
            </rdf:Alt>
         </dc:description>
         <cq:lastReplicationAction_scene7>Activate</cq:lastReplicationAction_scene7>
         <cq:lastReplicationAction_publish>Activate</cq:lastReplicationAction_publish>
         <cq:lastReplicated_publish>2024-10-02T19:53:35.957Z</cq:lastReplicated_publish>
         <cq:lastReplicatedBy>workflow-process-service</cq:lastReplicatedBy>
         <cq:lastReplicationAction>Activate</cq:lastReplicationAction>
         <cq:lastReplicatedBy_publish>workflow-process-service</cq:lastReplicatedBy_publish>
         <cq:isDelivered>false</cq:isDelivered>
         <cq:lastReplicated>2024-10-02T19:53:35.957Z</cq:lastReplicated>
         <cq:lastReplicatedBy_scene7>workflow-process-service</cq:lastReplicatedBy_scene7>
         <cq:lastReplicated_scene7>2024-10-02T19:53:35.957Z</cq:lastReplicated_scene7>
         <tiff:ImageLength>38</tiff:ImageLength>
         <tiff:ImageWidth>38</tiff:ImageWidth>
         <xmpRights:UsageTerms>
            <rdf:Alt>
               <rdf:li xml:lang="x-default">Use technology icons to represent Red Hat products and components. Do not remove the icon from the bounding shape.</rdf:li>
            </rdf:Alt>
         </xmpRights:UsageTerms>
      </rdf:Description>
   </rdf:RDF>
</x:xmpmeta>
                                                                                                    
                                                                                                    
                                                                                                    
                                                                                                    
                                                                                                    
                                                                                                    
                                                                                                    
                                                                                                    
                                                                                                    
                                                                                                    
                                                                                                    
                                                                                                    
                                                                                                    
                                                                                                    
                                                                                                    
                                                                                                    
                                                                                                    
                                          
<?xpacket end="w"?></metadata>
<defs><style>.uuid-c4ca78f3-21b1-4cf9-8361-510568ffb5d7{fill:#fff;}</style></defs><path class="uuid-c4ca78f3-21b1-4cf9-8361-510568ffb5d7" d="m28,1H10C5.02942,1,1,5.02942,1,10v18c0,4.97058,4.02942,9,9,9h18c4.97058,0,9-4.02942,9-9V10c0-4.97058-4.02942-9-9-9Zm7.75,27c0,4.27332-3.47668,7.75-7.75,7.75H10c-4.27332,0-7.75-3.47668-7.75-7.75V10c0-4.27332,3.47668-7.75,7.75-7.75h18c4.27332,0,7.75,3.47668,7.75,7.75v18Z"/><path class="uuid-c4ca78f3-21b1-4cf9-8361-510568ffb5d7" d="m13,27.375h-1.49023l5.93262-5.93262c.24316-.24414.24316-.64062,0-.88477-.24414-.24414-.64062-.24414-.88477,0l-5.93262,5.93262v-1.49023c0-.34473-.28027-.625-.625-.625s-.625.28027-.625.625v3c0,.00989.00513.01807.00562.02795.0033.07202.01489.1438.04285.21155.02002.04785.05383.08667.08447.12769.01807.02441.02759.05298.04968.0752.0249.0249.05664.03613.08435.05591.03845.02771.07373.05957.11804.07812.07666.03174.1582.04858.23999.04858h3c.34473,0,.625-.28027.625-.625s-.28027-.625-.625-.625Z"/><path class="uuid-c4ca78f3-21b1-4cf9-8361-510568ffb5d7" d="m28.57654,9.7605c-.02002-.04785-.05383-.08667-.08447-.12769-.01807-.02441-.02759-.05298-.04968-.0752-.02759-.02759-.0625-.04065-.09351-.06201-.03564-.0249-.06763-.05493-.10828-.0719-.07776-.03235-.16028-.04907-.24304-.04871h-2.99756c-.34473,0-.625.28027-.625.625s.28027.625.625.625h1.49023l-5.93262,5.93262c-.24316.24414-.24316.64062,0,.88477.12207.12207.28223.18262.44238.18262s.32031-.06055.44238-.18262l5.93262-5.93262v1.49023c0,.34473.28027.625.625.625s.625-.28027.625-.625v-3c0-.00989-.00513-.01807-.00562-.02795-.0033-.07202-.01489-.1438-.04285-.21155Z"/><path class="uuid-c4ca78f3-21b1-4cf9-8361-510568ffb5d7" d="m26.19238,15.375c-.34473,0-.625.28027-.625.625v4.80762c0,3.41016-2.61353,6.21973-5.94238,6.53564v-15.57166l2.24512.47742c.33691.07227.66992-.14355.74121-.48145s-.14355-.66992-.48145-.74121l-3-.6377c-.02063-.00415-.0415.0022-.06226,0-.02332-.00269-.0437-.01367-.06763-.01367s-.04431.01099-.06763.01367c-.02075.0022-.04163-.00415-.06226,0l-7.19238,1.52832c-.28906.06152-.49512.31641-.49512.61133v8.2793c0,.43164.03613.86719.10742,1.29492.05078.30566.31543.52246.61523.52246.03418,0,.06836-.00293.10352-.00879.34082-.05664.57031-.37793.51367-.71875-.05957-.35938-.08984-.72656-.08984-1.08984v-7.77344l5.94238-1.2627v15.56177c-.95874-.09143-1.88843-.38013-2.7168-.87134-.29688-.17383-.67969-.07715-.85645.21973-.17578.29688-.07715.67969.21973.85645,1.19922.71094,2.5752,1.08691,3.97852,1.08691,4.31055,0,7.81738-3.50684,7.81738-7.81738v-4.80762c0-.34473-.28027-.625-.625-.625Z"/></svg>