<?xml version="1.0" encoding="UTF-8"?><svg id="uuid-d6701b68-2f62-4ee6-af84-ffccbf2cb6ea" xmlns="http://www.w3.org/2000/svg" width="36" height="36" viewBox="0 0 36 36"><title>Bubble wrap icon</title>
<desc>bubble wrap, packaging, protective, shipping, fragile, recycle, waste, GWS, signage</desc>
<metadata><?xpacket begin="﻿" id="W5M0MpCehiHzreSzNTczkc9d"?>
<x:xmpmeta xmlns:x="adobe:ns:meta/" x:xmptk="Adobe XMP Core 8.0-c001 1.000000, 0000/00/00-00:00:00        ">
   <rdf:RDF xmlns:rdf="http://www.w3.org/1999/02/22-rdf-syntax-ns#">
      <rdf:Description rdf:about=""
            xmlns:tiff="http://ns.adobe.com/tiff/1.0/"
            xmlns:xmp="http://ns.adobe.com/xap/1.0/"
            xmlns:dc="http://purl.org/dc/elements/1.1/">
         <tiff:ImageWidth>36</tiff:ImageWidth>
         <tiff:ImageLength>36</tiff:ImageLength>
         <xmp:brand-content-type>Icon</xmp:brand-content-type>
         <xmp:rhcc-rights-restricted>no</xmp:rhcc-rights-restricted>
         <xmp:brand-content-subtype>Icon</xmp:brand-content-subtype>
         <xmp:rhcc-file-last-modified>2025-09-11T00:31:56.810Z</xmp:rhcc-file-last-modified>
         <xmp:brand-colorway>
            <rdf:Bag>
               <rdf:li>colorway:red</rdf:li>
            </rdf:Bag>
         </xmp:brand-colorway>
         <dc:format>image/svg+xml</dc:format>
         <dc:modified>2025-09-11T00:33:40.869Z</dc:modified>
         <dc:title>
            <rdf:Alt>
               <rdf:li xml:lang="x-default">Bubble wrap icon</rdf:li>
            </rdf:Alt>
         </dc:title>
         <dc:description>
            <rdf:Alt>
               <rdf:li xml:lang="x-default">bubble wrap, packaging, protective, shipping, fragile, recycle, waste, GWS, signage</rdf:li>
            </rdf:Alt>
         </dc:description>
      </rdf:Description>
   </rdf:RDF>
</x:xmpmeta>
                                                                                                    
                                                                                                    
                                                                                                    
                                                                                                    
                                                                                                    
                                                                                                    
                                                                                                    
                                                                                                    
                                                                                                    
                                                                                                    
                                                                                                    
                                                                                                    
                                                                                                    
                                                                                                    
                                                                                                    
                                                                                                    
                                                                                                    
                                                                                                    
                                                                              
<?xpacket end="w"?></metadata>
<defs><style>.uuid-fa6085bc-c877-4c14-accb-1efc2f6f4862{fill:#e00;}</style></defs><path class="uuid-fa6085bc-c877-4c14-accb-1efc2f6f4862" d="M31,4.35156H12c-.02191,0-.04041.01031-.06177.01245-.14569-.00494-.29004-.01245-.43823-.01245-4.00879,0-7.14844,1.82227-7.14844,4.14844v20c0,2.32617,3.13965,4.14844,7.14844,4.14844,3.9223,0,7.00439-1.74591,7.13593-4h12.36407c.3584,0,.64844-.29004.64844-.64844V5c0-.3584-.29004-.64844-.64844-.64844ZM20.35156,5.64844v21.70312h-1.70312V8.5c0-1.11597-.72797-2.1131-1.92255-2.85156h3.62567ZM11.5,5.64844c3.44824,0,5.85156,1.50293,5.85156,2.85156s-2.40332,2.85156-5.85156,2.85156-5.85156-1.50293-5.85156-2.85156,2.40332-2.85156,5.85156-2.85156ZM17.35156,28.5c0,.4472-.28516.90741-.76416,1.32812-.02753-.10132-.07056-.19788-.14746-.26855-.05029-.05957-.12012-.09961-.2002-.13965-.1499-.06055-.33008-.06055-.47998,0-.08008.04004-.14014.08008-.19971.13965-.06006.06055-.11035.12988-.14014.2002-.03027.08008-.05029.16016-.05029.24023,0,.16016.07031.31934.19043.43945.01349.01636.03687.02338.05396.03802-1.0257.51733-2.44293.87408-4.11401.87408-3.44824,0-5.85156-1.50293-5.85156-2.85156V10.90668c.90613.7486,2.22968,1.30774,3.79376,1.57147-.04291.08313-.07257.17328-.07257.27185,0,.33984.29004.62012.63037.62012.34961,0,.62988-.28027.62988-.62012,0-.04816-.01727-.09106-.02789-.13617.29431.02057.59259.03461.89801.03461,2.44897,0,4.56897-.68219,5.85156-1.74176v17.59332ZM30.35156,27.35156h-3.85254c.07318-.10352.12061-.2265.12061-.35156,0-.16016-.05957-.33008-.17969-.44043-.22998-.24023-.6499-.24023-.87988,0-.12012.12012-.19043.28027-.19043.44043,0,.12579.05341.24536.13019.35156h-3.85138V5.64844h3.85107c-.07233.10107-.11963.2193-.11963.35156,0,.07959.00977.15967.04004.23975.02979.08008.08008.1499.14014.2002.05957.06006.12988.10986.19971.13965.08008.03027.16016.05029.24023.05029.16992,0,.32959-.06982.43994-.18994.06006-.05029.10986-.12012.13965-.2002.03027-.08008.05029-.16016.05029-.23975,0-.12561-.05304-.24554-.12952-.35156h3.8512v21.70312Z"/><path class="uuid-fa6085bc-c877-4c14-accb-1efc2f6f4862" d="M29,11.37988c.34961,0,.62988-.28027.62988-.62988,0-.35059-.28027-.62988-.62988-.62988-.34033,0-.62012.2793-.62012.62988,0,.34961.27979.62988.62012.62988Z"/><path class="uuid-fa6085bc-c877-4c14-accb-1efc2f6f4862" d="M29,8.5c.34961,0,.62988-.28027.62988-.62988,0-.33984-.28027-.62012-.62988-.62012-.34033,0-.62012.28027-.62012.62012,0,.34961.27979.62988.62012.62988Z"/><path class="uuid-fa6085bc-c877-4c14-accb-1efc2f6f4862" d="M29,17.12012c.34961,0,.62988-.28027.62988-.62012s-.28027-.62012-.62988-.62012c-.34033,0-.62012.28027-.62012.62012s.27979.62012.62012.62012Z"/><path class="uuid-fa6085bc-c877-4c14-accb-1efc2f6f4862" d="M29,14.25c.34961,0,.62988-.28027.62988-.62012,0-.34961-.28027-.62988-.62988-.62988-.34033,0-.62012.28027-.62012.62988,0,.33984.27979.62012.62012.62012Z"/><path class="uuid-fa6085bc-c877-4c14-accb-1efc2f6f4862" d="M29,25.75c.34961,0,.62988-.28027.62988-.62012,0-.34961-.28027-.62988-.62988-.62988-.34033,0-.62012.28027-.62012.62988,0,.33984.27979.62012.62012.62012Z"/><path class="uuid-fa6085bc-c877-4c14-accb-1efc2f6f4862" d="M29,20c.34961,0,.62988-.28027.62988-.62012,0-.34961-.28027-.62988-.62988-.62988-.34033,0-.62012.28027-.62012.62988,0,.33984.27979.62012.62012.62012Z"/><path class="uuid-fa6085bc-c877-4c14-accb-1efc2f6f4862" d="M29,22.87988c.34961,0,.62988-.28027.62988-.62988,0-.33984-.28027-.62012-.62988-.62012-.34033,0-.62012.28027-.62012.62012,0,.34961.27979.62988.62012.62988Z"/><path class="uuid-fa6085bc-c877-4c14-accb-1efc2f6f4862" d="M26,23.37988c-.34033,0-.63037.28027-.63037.62012,0,.34961.29004.62988.63037.62988.34961,0,.62988-.28027.62988-.62988,0-.33984-.28027-.62012-.62988-.62012Z"/><path class="uuid-fa6085bc-c877-4c14-accb-1efc2f6f4862" d="M26,14.37988c-.34033,0-.63037.28027-.63037.62012,0,.34961.29004.62988.63037.62988.34961,0,.62988-.28027.62988-.62988,0-.33984-.28027-.62012-.62988-.62012Z"/><path class="uuid-fa6085bc-c877-4c14-accb-1efc2f6f4862" d="M26,11.37988c-.34033,0-.63037.28027-.63037.62012,0,.34961.29004.62988.63037.62988.34961,0,.62988-.28027.62988-.62988,0-.33984-.28027-.62012-.62988-.62012Z"/><path class="uuid-fa6085bc-c877-4c14-accb-1efc2f6f4862" d="M26,20.37988c-.34033,0-.63037.28027-.63037.62012,0,.34961.29004.62988.63037.62988.34961,0,.62988-.28027.62988-.62988,0-.33984-.28027-.62012-.62988-.62012Z"/><path class="uuid-fa6085bc-c877-4c14-accb-1efc2f6f4862" d="M26,17.37988c-.34033,0-.63037.28027-.63037.62012,0,.34961.29004.62988.63037.62988.34961,0,.62988-.28027.62988-.62988,0-.33984-.28027-.62012-.62988-.62012Z"/><path class="uuid-fa6085bc-c877-4c14-accb-1efc2f6f4862" d="M26,8.37988c-.34033,0-.63037.28027-.63037.62012,0,.34961.29004.62988.63037.62988.34961,0,.62988-.28027.62988-.62988,0-.33984-.28027-.62012-.62988-.62012Z"/><path class="uuid-fa6085bc-c877-4c14-accb-1efc2f6f4862" d="M23,24.5c-.3501,0-.63037.28027-.63037.62988,0,.33984.28027.62012.63037.62012.34961,0,.62988-.28027.62988-.62012,0-.34961-.28027-.62988-.62988-.62988Z"/><path class="uuid-fa6085bc-c877-4c14-accb-1efc2f6f4862" d="M23,21.62988c-.3501,0-.63037.28027-.63037.62012,0,.34961.28027.62988.63037.62988.34961,0,.62988-.28027.62988-.62988,0-.33984-.28027-.62012-.62988-.62012Z"/><path class="uuid-fa6085bc-c877-4c14-accb-1efc2f6f4862" d="M23,13c-.3501,0-.63037.28027-.63037.62988,0,.33984.28027.62012.63037.62012.34961,0,.62988-.28027.62988-.62012,0-.34961-.28027-.62988-.62988-.62988Z"/><path class="uuid-fa6085bc-c877-4c14-accb-1efc2f6f4862" d="M23,7.25c-.3501,0-.63037.28027-.63037.62012,0,.34961.28027.62988.63037.62988.34961,0,.62988-.28027.62988-.62988,0-.33984-.28027-.62012-.62988-.62012Z"/><path class="uuid-fa6085bc-c877-4c14-accb-1efc2f6f4862" d="M23,18.75c-.3501,0-.63037.28027-.63037.62988,0,.33984.28027.62012.63037.62012.34961,0,.62988-.28027.62988-.62012,0-.34961-.28027-.62988-.62988-.62988Z"/><path class="uuid-fa6085bc-c877-4c14-accb-1efc2f6f4862" d="M23,10.12012c-.3501,0-.63037.2793-.63037.62988,0,.34961.28027.62988.63037.62988.34961,0,.62988-.28027.62988-.62988,0-.35059-.28027-.62988-.62988-.62988Z"/><path class="uuid-fa6085bc-c877-4c14-accb-1efc2f6f4862" d="M23,15.87988c-.3501,0-.63037.28027-.63037.62012s.28027.62012.63037.62012c.34961,0,.62988-.28027.62988-.62012s-.28027-.62012-.62988-.62012Z"/><path class="uuid-fa6085bc-c877-4c14-accb-1efc2f6f4862" d="M16,26.5c-.34033,0-.63037.28027-.63037.62988,0,.33984.29004.62012.63037.62012.34961,0,.62988-.28027.62988-.62012,0-.34961-.28027-.62988-.62988-.62988Z"/><path class="uuid-fa6085bc-c877-4c14-accb-1efc2f6f4862" d="M16,23.62012c-.34033,0-.63037.2793-.63037.62988,0,.34961.29004.62988.63037.62988.34961,0,.62988-.28027.62988-.62988,0-.35059-.28027-.62988-.62988-.62988Z"/><path class="uuid-fa6085bc-c877-4c14-accb-1efc2f6f4862" d="M16,15c-.34033,0-.63037.28027-.63037.62988,0,.33984.29004.62012.63037.62012.34961,0,.62988-.28027.62988-.62012,0-.34961-.28027-.62988-.62988-.62988Z"/><path class="uuid-fa6085bc-c877-4c14-accb-1efc2f6f4862" d="M16,17.87988c-.34033,0-.63037.28027-.63037.62012,0,.34961.29004.62988.63037.62988.34961,0,.62988-.28027.62988-.62988,0-.33984-.28027-.62012-.62988-.62012Z"/><path class="uuid-fa6085bc-c877-4c14-accb-1efc2f6f4862" d="M16,20.75c-.34033,0-.63037.28027-.63037.62988,0,.33984.29004.62012.63037.62012.34961,0,.62988-.28027.62988-.62012,0-.34961-.28027-.62988-.62988-.62988Z"/><path class="uuid-fa6085bc-c877-4c14-accb-1efc2f6f4862" d="M16,12.12988c-.34033,0-.63037.28027-.63037.62012s.29004.62012.63037.62012c.34961,0,.62988-.28027.62988-.62012s-.28027-.62012-.62988-.62012Z"/><path class="uuid-fa6085bc-c877-4c14-accb-1efc2f6f4862" d="M13,25.37012c-.3501,0-.62012.29004-.62012.62988,0,.34961.27002.62988.62012.62988.34961,0,.62988-.28027.62988-.62988,0-.33984-.28027-.62988-.62988-.62988Z"/><path class="uuid-fa6085bc-c877-4c14-accb-1efc2f6f4862" d="M13,16.37988c-.3501,0-.62012.28027-.62012.62012,0,.34961.27002.62988.62012.62988.34961,0,.62988-.28027.62988-.62988,0-.33984-.28027-.62012-.62988-.62012Z"/><path class="uuid-fa6085bc-c877-4c14-accb-1efc2f6f4862" d="M13,13.37012c-.3501,0-.62012.2793-.62012.62988,0,.34961.27002.62988.62012.62988.34961,0,.62988-.28027.62988-.62988,0-.35059-.28027-.62988-.62988-.62988Z"/><path class="uuid-fa6085bc-c877-4c14-accb-1efc2f6f4862" d="M13,19.37988c-.3501,0-.62012.28027-.62012.62012s.27002.62012.62012.62012c.34961,0,.62988-.28027.62988-.62012s-.28027-.62012-.62988-.62012Z"/><path class="uuid-fa6085bc-c877-4c14-accb-1efc2f6f4862" d="M13,22.37988c-.3501,0-.62012.28027-.62012.62012,0,.34961.27002.62988.62012.62988.34961,0,.62988-.28027.62988-.62988,0-.33984-.28027-.62012-.62988-.62012Z"/><path class="uuid-fa6085bc-c877-4c14-accb-1efc2f6f4862" d="M12.56006,28.55957c-.12012.11035-.18018.27051-.18018.44043,0,.08008.00977.16016.04004.24023.02979.0791.08008.14941.14014.19922.05957.06055.12988.11035.19971.14062.08008.0293.16016.0498.24023.0498.15967,0,.32959-.07031.43994-.19043.06006-.0498.10986-.12012.13965-.19922.03027-.08008.05029-.16016.05029-.24023,0-.16992-.06982-.33008-.18994-.44043-.22998-.22949-.6499-.22949-.87988,0Z"/><path class="uuid-fa6085bc-c877-4c14-accb-1efc2f6f4862" d="M7,16.37988c-.34033,0-.62012.28027-.62012.62012,0,.34961.27979.62988.62012.62988.34961,0,.62988-.28027.62988-.62988,0-.33984-.28027-.62012-.62988-.62012Z"/><path class="uuid-fa6085bc-c877-4c14-accb-1efc2f6f4862" d="M7,22.37988c-.34033,0-.62012.28027-.62012.62012,0,.34961.27979.62988.62012.62988.34961,0,.62988-.28027.62988-.62988,0-.33984-.28027-.62012-.62988-.62012Z"/><path class="uuid-fa6085bc-c877-4c14-accb-1efc2f6f4862" d="M7,13.37012c-.34033,0-.62012.2793-.62012.62988,0,.34961.27979.62988.62012.62988.34961,0,.62988-.28027.62988-.62988,0-.35059-.28027-.62988-.62988-.62988Z"/><path class="uuid-fa6085bc-c877-4c14-accb-1efc2f6f4862" d="M7,19.37988c-.34033,0-.62012.28027-.62012.62012s.27979.62012.62012.62012c.34961,0,.62988-.28027.62988-.62012s-.28027-.62012-.62988-.62012Z"/><path class="uuid-fa6085bc-c877-4c14-accb-1efc2f6f4862" d="M7,25.37012c-.34033,0-.62012.29004-.62012.62988,0,.34961.27979.62988.62012.62988.34961,0,.62988-.28027.62988-.62988,0-.33984-.28027-.62988-.62988-.62988Z"/><path class="uuid-fa6085bc-c877-4c14-accb-1efc2f6f4862" d="M7.23975,28.41992c-.1499-.06055-.33008-.06055-.47998,0-.08008.04004-.14014.08008-.19971.13965-.12012.12012-.18018.28027-.18018.44043,0,.08008.00977.16016.04004.24023.04004.0791.08008.14941.14014.19922.11963.12012.27979.19043.43994.19043.07959,0,.15967-.02051.23975-.0498.08008-.03027.1499-.08008.2002-.14062.06006-.0498.10986-.12012.13965-.19922.03027-.08008.04004-.16016.04004-.24023,0-.16016-.05957-.32031-.17969-.44043-.05029-.05957-.12012-.09961-.2002-.13965Z"/><path class="uuid-fa6085bc-c877-4c14-accb-1efc2f6f4862" d="M10,20.75c-.34033,0-.63037.28027-.63037.62988,0,.33984.29004.62012.63037.62012.34961,0,.62988-.28027.62988-.62012,0-.34961-.28027-.62988-.62988-.62988Z"/><path class="uuid-fa6085bc-c877-4c14-accb-1efc2f6f4862" d="M10,17.87988c-.34033,0-.63037.28027-.63037.62012,0,.34961.29004.62988.63037.62988.34961,0,.62988-.28027.62988-.62988,0-.33984-.28027-.62012-.62988-.62012Z"/><path class="uuid-fa6085bc-c877-4c14-accb-1efc2f6f4862" d="M10,23.62012c-.34033,0-.63037.2793-.63037.62988,0,.34961.29004.62988.63037.62988.34961,0,.62988-.28027.62988-.62988,0-.35059-.28027-.62988-.62988-.62988Z"/><path class="uuid-fa6085bc-c877-4c14-accb-1efc2f6f4862" d="M10,26.5c-.34033,0-.63037.28027-.63037.62988,0,.33984.29004.62012.63037.62012.34961,0,.62988-.28027.62988-.62012,0-.34961-.28027-.62988-.62988-.62988Z"/><path class="uuid-fa6085bc-c877-4c14-accb-1efc2f6f4862" d="M10,15c-.34033,0-.63037.28027-.63037.62988,0,.33984.29004.62012.63037.62012.34961,0,.62988-.28027.62988-.62012,0-.34961-.28027-.62988-.62988-.62988Z"/><path class="uuid-fa6085bc-c877-4c14-accb-1efc2f6f4862" d="M10.23975,29.41992c-.1499-.06055-.33008-.06055-.47998,0-.08008.04004-.14014.08008-.19971.13965-.06006.06055-.11035.12988-.14014.2002-.03027.08008-.05029.16016-.05029.24023,0,.16016.07031.31934.19043.43945.0498.06055.12988.11035.19971.14062.08008.0293.16016.0498.24023.0498.15967,0,.32959-.07031.43994-.19043.12012-.10938.17969-.2793.17969-.43945s-.05957-.33008-.17969-.44043c-.05029-.05957-.12012-.09961-.2002-.13965Z"/></svg>