<svg id="b7e5da3e-2e85-4446-97f3-e7afb8579602" data-name="Icon" xmlns="http://www.w3.org/2000/svg" viewBox="0 0 36 36">
  <title>Rockstar icon - White</title>
<desc>music, pop, culture, idol, celebrity, music, rock and roll</desc>
<metadata><?xpacket begin="﻿" id="W5M0MpCehiHzreSzNTczkc9d"?>
<x:xmpmeta xmlns:x="adobe:ns:meta/" x:xmptk="Adobe XMP Core 8.0-c001 1.000000, 0000/00/00-00:00:00        ">
   <rdf:RDF xmlns:rdf="http://www.w3.org/1999/02/22-rdf-syntax-ns#">
      <rdf:Description rdf:about=""
            xmlns:xmp="http://ns.adobe.com/xap/1.0/"
            xmlns:dc="http://purl.org/dc/elements/1.1/"
            xmlns:cq="http://www.day.com/jcr/cq/1.0"
            xmlns:tiff="http://ns.adobe.com/tiff/1.0/">
         <xmp:rhcc-effective-on>2023-12-08T17:34:04.118Z</xmp:rhcc-effective-on>
         <xmp:rhcc-metadata-complete-moderator>pending</xmp:rhcc-metadata-complete-moderator>
         <xmp:rhcc-translation-id>TRAbac86384-eeb2-4a80-bb1c-c4b6abccb747</xmp:rhcc-translation-id>
         <xmp:brand-content-type>Icon</xmp:brand-content-type>
         <xmp:CreateDate>2023-12-08T17:34:04.118Z</xmp:CreateDate>
         <xmp:rhcc-effective-on-set-on-upload>true</xmp:rhcc-effective-on-set-on-upload>
         <xmp:rhcc-metadata-complete-uploader>pending</xmp:rhcc-metadata-complete-uploader>
         <xmp:rhcc-file-last-modified>2023-12-08T17:34:10.877Z</xmp:rhcc-file-last-modified>
         <xmp:rhcc-audience>rhcc-audience:internal</xmp:rhcc-audience>
         <xmp:rhcc-rights-restricted>no</xmp:rhcc-rights-restricted>
         <xmp:brand-content-subtype>Icon</xmp:brand-content-subtype>
         <xmp:rhcc-derivative-id>DERbac86384-eeb2-4a80-bb1c-c4b6abccb747</xmp:rhcc-derivative-id>
         <xmp:brand-logo-color>White</xmp:brand-logo-color>
         <xmp:rhcc-notify-portal-subscribers-on-change>yes</xmp:rhcc-notify-portal-subscribers-on-change>
         <dc:format>image/svg+xml</dc:format>
         <dc:modified>2024-02-09T20:23:02.980Z</dc:modified>
         <dc:title>
            <rdf:Alt>
               <rdf:li xml:lang="x-default">Rockstar icon - White</rdf:li>
            </rdf:Alt>
         </dc:title>
         <dc:description>
            <rdf:Alt>
               <rdf:li xml:lang="x-default">music, pop, culture, idol, celebrity, music, rock and roll</rdf:li>
            </rdf:Alt>
         </dc:description>
         <cq:lastReplicationAction_scene7>Activate</cq:lastReplicationAction_scene7>
         <cq:lastReplicationAction_publish>Activate</cq:lastReplicationAction_publish>
         <cq:lastReplicated_publish>2024-02-09T22:03:20.085Z</cq:lastReplicated_publish>
         <cq:lastReplicatedBy>workflow-process-service</cq:lastReplicatedBy>
         <cq:lastReplicationAction>Activate</cq:lastReplicationAction>
         <cq:lastReplicatedBy_publish>workflow-process-service</cq:lastReplicatedBy_publish>
         <cq:isDelivered>true</cq:isDelivered>
         <cq:lastReplicated>2024-02-09T22:03:20.085Z</cq:lastReplicated>
         <cq:lastReplicatedBy_scene7>workflow-process-service</cq:lastReplicatedBy_scene7>
         <cq:lastReplicated_scene7>2024-02-09T22:03:20.085Z</cq:lastReplicated_scene7>
         <tiff:ImageLength>36</tiff:ImageLength>
         <tiff:ImageWidth>36</tiff:ImageWidth>
      </rdf:Description>
   </rdf:RDF>
</x:xmpmeta>
                                                                                                    
                                                                                                    
                                                                                                    
                                                                                                    
                                                                                                    
                                                                                                    
                                                                                                    
                                                                                                    
                                                                                                    
                                                                                                    
                                 
<?xpacket end="w"?></metadata>
<defs>
    <style>
      .f50d98a1-f357-4ec1-8dca-fa0c4a3668ef {
        fill: #fff;
      }
    </style>
  </defs>
  <g>
    <path class="f50d98a1-f357-4ec1-8dca-fa0c4a3668ef" d="M22.5,4.38a6,6,0,0,0-3.76,1.3s0,0,0,0a6.11,6.11,0,0,0-2.21,5.93l-8,8.94a.62.62,0,0,0,0,.86l3,3a.62.62,0,0,0,.86,0l8.94-8a6.11,6.11,0,0,0,5.93-2.21h0s0,0,0,0A6.14,6.14,0,0,0,22.5,4.38ZM12,23.14,9.86,21,16.93,13A6.12,6.12,0,0,0,20,16.07ZM22.5,15.38A4.89,4.89,0,0,1,19.12,7L26,13.88A4.86,4.86,0,0,1,22.5,15.38Zm4.24-2.52-6.6-6.6A4.86,4.86,0,0,1,26.74,12.86Z"/>
    <path class="f50d98a1-f357-4ec1-8dca-fa0c4a3668ef" d="M15.56,16.56l-1,1a.62.62,0,0,0,.88.88l1-1a.62.62,0,0,0-.88-.88Z"/>
    <path class="f50d98a1-f357-4ec1-8dca-fa0c4a3668ef" d="M23.44,29.56a2.23,2.23,0,0,1,0-3.12,3.45,3.45,0,0,0-4.88-4.88l-7,7a2.21,2.21,0,0,1-3.12-3.12l1-1a.62.62,0,1,0-.88-.88l-1,1a3.45,3.45,0,0,0,4.88,4.88l7-7a2.21,2.21,0,0,1,3.12,3.12,3.46,3.46,0,0,0,0,4.88l1,1a.62.62,0,0,0,.88-.88Z"/>
  </g>
</svg>
