<svg id="be50485d-3d14-42be-82bd-5fa58c7be9ed" data-name="Icon" xmlns="http://www.w3.org/2000/svg" viewBox="0 0 36 36">
  <title>Developer icon - Red</title>
<desc>laptop, code, data, writing, computer, develop, software, people and audiences</desc>
<metadata><?xpacket begin="﻿" id="W5M0MpCehiHzreSzNTczkc9d"?>
<x:xmpmeta xmlns:x="adobe:ns:meta/" x:xmptk="Adobe XMP Core 8.0-c001 1.000000, 0000/00/00-00:00:00        ">
   <rdf:RDF xmlns:rdf="http://www.w3.org/1999/02/22-rdf-syntax-ns#">
      <rdf:Description rdf:about=""
            xmlns:xmp="http://ns.adobe.com/xap/1.0/"
            xmlns:dc="http://purl.org/dc/elements/1.1/"
            xmlns:cq="http://www.day.com/jcr/cq/1.0"
            xmlns:tiff="http://ns.adobe.com/tiff/1.0/">
         <xmp:rhcc-effective-on>2023-12-08T17:33:50.182Z</xmp:rhcc-effective-on>
         <xmp:rhcc-metadata-complete-moderator>pending</xmp:rhcc-metadata-complete-moderator>
         <xmp:rhcc-translation-id>TRAbe8eb64f-dfcc-45f2-ae9a-2e783e68276b</xmp:rhcc-translation-id>
         <xmp:brand-content-type>Icon</xmp:brand-content-type>
         <xmp:CreateDate>2023-12-08T17:33:50.182Z</xmp:CreateDate>
         <xmp:rhcc-aspect-ratio>square</xmp:rhcc-aspect-ratio>
         <xmp:rhcc-effective-on-set-on-upload>true</xmp:rhcc-effective-on-set-on-upload>
         <xmp:rhcc-published-asset-email-sent>true</xmp:rhcc-published-asset-email-sent>
         <xmp:rhcc-metadata-complete-uploader>pending</xmp:rhcc-metadata-complete-uploader>
         <xmp:rhcc-file-last-modified>2024-07-12T20:39:34.378Z</xmp:rhcc-file-last-modified>
         <xmp:rhcc-audience>rhcc-audience:internal</xmp:rhcc-audience>
         <xmp:brand-content-subtype>Icon</xmp:brand-content-subtype>
         <xmp:rhcc-rights-restricted>no</xmp:rhcc-rights-restricted>
         <xmp:rhcc-derivative-id>DERbe8eb64f-dfcc-45f2-ae9a-2e783e68276b</xmp:rhcc-derivative-id>
         <xmp:rhcc-uploaded-by>pmeilleu@redhat.com</xmp:rhcc-uploaded-by>
         <xmp:brand-logo-color>Red</xmp:brand-logo-color>
         <xmp:rhcc-notify-portal-subscribers-on-change>yes</xmp:rhcc-notify-portal-subscribers-on-change>
         <dc:format>image/svg+xml</dc:format>
         <dc:modified>2024-02-09T20:22:08.253Z</dc:modified>
         <dc:title>
            <rdf:Alt>
               <rdf:li xml:lang="x-default">Developer icon - Red</rdf:li>
            </rdf:Alt>
         </dc:title>
         <dc:description>
            <rdf:Alt>
               <rdf:li xml:lang="x-default">laptop, code, data, writing, computer, develop, software, people and audiences</rdf:li>
            </rdf:Alt>
         </dc:description>
         <cq:lastReplicationAction_scene7>Activate</cq:lastReplicationAction_scene7>
         <cq:lastReplicationAction_publish>Activate</cq:lastReplicationAction_publish>
         <cq:lastReplicated_publish>2024-10-02T19:33:04.249Z</cq:lastReplicated_publish>
         <cq:lastReplicatedBy>workflow-process-service</cq:lastReplicatedBy>
         <cq:lastReplicationAction>Activate</cq:lastReplicationAction>
         <cq:lastReplicatedBy_publish>workflow-process-service</cq:lastReplicatedBy_publish>
         <cq:isDelivered>false</cq:isDelivered>
         <cq:lastReplicated>2024-10-02T19:33:04.249Z</cq:lastReplicated>
         <cq:lastReplicatedBy_scene7>workflow-process-service</cq:lastReplicatedBy_scene7>
         <cq:lastReplicated_scene7>2024-10-02T19:33:04.249Z</cq:lastReplicated_scene7>
         <tiff:ImageLength>36</tiff:ImageLength>
         <tiff:ImageWidth>36</tiff:ImageWidth>
      </rdf:Description>
   </rdf:RDF>
</x:xmpmeta>
                                                                                                    
                                                                                                    
                                                                                                    
                                                                                                    
                                                                                                    
                                                                                                    
                                                                                                    
                                                                                                    
        
<?xpacket end="w"?></metadata>
<defs>
    <style>
      .bb69eb79-0c8d-407f-9eaf-10c8c561bb4a {
        fill: #e00;
      }
    </style>
  </defs>
  <path class="bb69eb79-0c8d-407f-9eaf-10c8c561bb4a" d="M18.62,9a.62.62,0,0,1-1.24,0A.62.62,0,0,1,18.62,9Z"/>
  <g>
    <path class="bb69eb79-0c8d-407f-9eaf-10c8c561bb4a" d="M6,24.62H30a.61.61,0,0,0,.62-.62V9A.61.61,0,0,0,30,8.38H21a.62.62,0,0,0,0,1.24h8.38V23.38H6.62V9.62H15a.62.62,0,0,0,0-1.24H6A.61.61,0,0,0,5.38,9V24A.61.61,0,0,0,6,24.62Z"/>
    <path class="bb69eb79-0c8d-407f-9eaf-10c8c561bb4a" d="M32,26.38H4a.62.62,0,0,0,0,1.24H32A.62.62,0,0,0,32,26.38Z"/>
    <path class="bb69eb79-0c8d-407f-9eaf-10c8c561bb4a" d="M17.24,20a.63.63,0,0,0,.74-.49l1.24-5.84a.64.64,0,0,0-.48-.75.63.63,0,0,0-.74.49l-1.24,5.84A.63.63,0,0,0,17.24,20Z"/>
    <path class="bb69eb79-0c8d-407f-9eaf-10c8c561bb4a" d="M21,19.5a.63.63,0,0,0,.88,0l2.56-2.56a.64.64,0,0,0,0-.89l-2.56-2.56c-.57-.58-1.47.32-.88.88l2.12,2.12L21,18.61A.62.62,0,0,0,21,19.5Z"/>
    <path class="bb69eb79-0c8d-407f-9eaf-10c8c561bb4a" d="M15,13.49a.61.61,0,0,0-.88,0l-2.56,2.56a.64.64,0,0,0,0,.89l2.56,2.56a.63.63,0,0,0,.88-.89l-2.12-2.12L15,14.37A.61.61,0,0,0,15,13.49Z"/>
  </g>
</svg>
