<svg id="b5f3f499-1b3c-40ba-8d4a-d32ef6c3c8e7" data-name="Icon" xmlns="http://www.w3.org/2000/svg" viewBox="0 0 36 36">
  <title>Data icon - Red</title>
<desc>software and technologies</desc>
<metadata><?xpacket begin="﻿" id="W5M0MpCehiHzreSzNTczkc9d"?>
<x:xmpmeta xmlns:x="adobe:ns:meta/" x:xmptk="Adobe XMP Core 8.0-c001 1.000000, 0000/00/00-00:00:00        ">
   <rdf:RDF xmlns:rdf="http://www.w3.org/1999/02/22-rdf-syntax-ns#">
      <rdf:Description rdf:about=""
            xmlns:xmp="http://ns.adobe.com/xap/1.0/"
            xmlns:dc="http://purl.org/dc/elements/1.1/"
            xmlns:cq="http://www.day.com/jcr/cq/1.0"
            xmlns:tiff="http://ns.adobe.com/tiff/1.0/">
         <xmp:rhcc-effective-on>2023-12-08T17:43:14.537Z</xmp:rhcc-effective-on>
         <xmp:rhcc-metadata-complete-moderator>pending</xmp:rhcc-metadata-complete-moderator>
         <xmp:rhcc-translation-id>TRAa37171eb-554f-4a32-8d18-8bfb25234337</xmp:rhcc-translation-id>
         <xmp:brand-content-type>Icon</xmp:brand-content-type>
         <xmp:CreateDate>2023-12-08T17:43:14.537Z</xmp:CreateDate>
         <xmp:rhcc-aspect-ratio>square</xmp:rhcc-aspect-ratio>
         <xmp:rhcc-effective-on-set-on-upload>true</xmp:rhcc-effective-on-set-on-upload>
         <xmp:rhcc-published-asset-email-sent>true</xmp:rhcc-published-asset-email-sent>
         <xmp:rhcc-metadata-complete-uploader>pending</xmp:rhcc-metadata-complete-uploader>
         <xmp:rhcc-file-last-modified>2024-07-12T20:08:58.370Z</xmp:rhcc-file-last-modified>
         <xmp:rhcc-audience>rhcc-audience:internal</xmp:rhcc-audience>
         <xmp:brand-content-subtype>Icon</xmp:brand-content-subtype>
         <xmp:rhcc-rights-restricted>no</xmp:rhcc-rights-restricted>
         <xmp:rhcc-derivative-id>DERa37171eb-554f-4a32-8d18-8bfb25234337</xmp:rhcc-derivative-id>
         <xmp:rhcc-uploaded-by>pmeilleu@redhat.com</xmp:rhcc-uploaded-by>
         <xmp:brand-logo-color>Red</xmp:brand-logo-color>
         <xmp:rhcc-notify-portal-subscribers-on-change>yes</xmp:rhcc-notify-portal-subscribers-on-change>
         <dc:format>image/svg+xml</dc:format>
         <dc:modified>2024-02-09T20:16:46.166Z</dc:modified>
         <dc:title>
            <rdf:Alt>
               <rdf:li xml:lang="x-default">Data icon - Red</rdf:li>
            </rdf:Alt>
         </dc:title>
         <dc:description>
            <rdf:Alt>
               <rdf:li xml:lang="x-default">software and technologies</rdf:li>
            </rdf:Alt>
         </dc:description>
         <cq:lastReplicationAction_scene7>Activate</cq:lastReplicationAction_scene7>
         <cq:lastReplicationAction_publish>Activate</cq:lastReplicationAction_publish>
         <cq:lastReplicated_publish>2024-10-02T19:32:38.756Z</cq:lastReplicated_publish>
         <cq:lastReplicatedBy>workflow-process-service</cq:lastReplicatedBy>
         <cq:lastReplicationAction>Activate</cq:lastReplicationAction>
         <cq:lastReplicatedBy_publish>workflow-process-service</cq:lastReplicatedBy_publish>
         <cq:isDelivered>false</cq:isDelivered>
         <cq:lastReplicated>2024-10-02T19:32:38.756Z</cq:lastReplicated>
         <cq:lastReplicatedBy_scene7>workflow-process-service</cq:lastReplicatedBy_scene7>
         <cq:lastReplicated_scene7>2024-10-02T19:32:38.756Z</cq:lastReplicated_scene7>
         <tiff:ImageLength>36</tiff:ImageLength>
         <tiff:ImageWidth>36</tiff:ImageWidth>
      </rdf:Description>
   </rdf:RDF>
</x:xmpmeta>
                                                                                                    
                                                                                                    
                                                                                                    
                                                                                                    
                                                                                                    
                                                                                                    
                                                                                                    
                                                                                                    
        
<?xpacket end="w"?></metadata>
<defs>
    <style>
      .f990180a-872c-4f70-a012-f9c395eb8868 {
        fill: #e00;
      }
    </style>
  </defs>
  <g>
    <path class="f990180a-872c-4f70-a012-f9c395eb8868" d="M16.62,12.5a4.12,4.12,0,1,0-4.12,4.12A4.13,4.13,0,0,0,16.62,12.5ZM12.5,15.38a2.88,2.88,0,1,1,2.88-2.88A2.88,2.88,0,0,1,12.5,15.38Z"/>
    <path class="f990180a-872c-4f70-a012-f9c395eb8868" d="M17.5,19.38a4.12,4.12,0,1,0,4.12,4.12A4.13,4.13,0,0,0,17.5,19.38Zm0,7a2.88,2.88,0,1,1,2.88-2.88A2.88,2.88,0,0,1,17.5,26.38Z"/>
    <path class="f990180a-872c-4f70-a012-f9c395eb8868" d="M31.62,12.5a4.12,4.12,0,1,0-4.12,4.12A4.13,4.13,0,0,0,31.62,12.5ZM27.5,15.38a2.88,2.88,0,1,1,2.88-2.88A2.88,2.88,0,0,1,27.5,15.38Z"/>
    <path class="f990180a-872c-4f70-a012-f9c395eb8868" d="M5,8.38A.61.61,0,0,0,4.38,9v7a.62.62,0,0,0,1.24,0V9A.61.61,0,0,0,5,8.38Z"/>
    <path class="f990180a-872c-4f70-a012-f9c395eb8868" d="M5,19.38a.61.61,0,0,0-.62.62v7a.62.62,0,0,0,1.24,0V20A.61.61,0,0,0,5,19.38Z"/>
    <path class="f990180a-872c-4f70-a012-f9c395eb8868" d="M10,19.38a.61.61,0,0,0-.62.62v7a.62.62,0,0,0,1.24,0V20A.61.61,0,0,0,10,19.38Z"/>
    <path class="f990180a-872c-4f70-a012-f9c395eb8868" d="M25,19.38a.61.61,0,0,0-.62.62v7a.62.62,0,0,0,1.24,0V20A.61.61,0,0,0,25,19.38Z"/>
    <path class="f990180a-872c-4f70-a012-f9c395eb8868" d="M30,19.38a.61.61,0,0,0-.62.62v7a.62.62,0,0,0,1.24,0V20A.61.61,0,0,0,30,19.38Z"/>
    <path class="f990180a-872c-4f70-a012-f9c395eb8868" d="M20,16.62a.61.61,0,0,0,.62-.62V9a.62.62,0,0,0-1.24,0v7A.61.61,0,0,0,20,16.62Z"/>
  </g>
</svg>
