<svg id="ff886b03-8bb7-4e66-a586-2f8b17b47c69" data-name="Icon" xmlns="http://www.w3.org/2000/svg" viewBox="0 0 36 36">
  <title>Money icon - White</title>
<desc>dollar, yen, pound, euro, bill, change, coin, spend, pay, bank, amount, wallet, profit, finance, fintech, financial, objects, NAPS, SLED, CIV, north america public sector, state, local, and education, civilian</desc>
<metadata><?xpacket begin="﻿" id="W5M0MpCehiHzreSzNTczkc9d"?>
<x:xmpmeta xmlns:x="adobe:ns:meta/" x:xmptk="Adobe XMP Core 8.0-c001 1.000000, 0000/00/00-00:00:00        ">
   <rdf:RDF xmlns:rdf="http://www.w3.org/1999/02/22-rdf-syntax-ns#">
      <rdf:Description rdf:about=""
            xmlns:xmp="http://ns.adobe.com/xap/1.0/"
            xmlns:dc="http://purl.org/dc/elements/1.1/"
            xmlns:cq="http://www.day.com/jcr/cq/1.0"
            xmlns:tiff="http://ns.adobe.com/tiff/1.0/">
         <xmp:rhcc-effective-on>2023-12-08T17:36:04.761Z</xmp:rhcc-effective-on>
         <xmp:rhcc-metadata-complete-moderator>pending</xmp:rhcc-metadata-complete-moderator>
         <xmp:rhcc-translation-id>TRAa86690f2-293b-46fe-aa17-a296cde7e53c</xmp:rhcc-translation-id>
         <xmp:brand-content-type>Icon</xmp:brand-content-type>
         <xmp:CreateDate>2023-12-08T17:36:04.761Z</xmp:CreateDate>
         <xmp:rhcc-aspect-ratio>square</xmp:rhcc-aspect-ratio>
         <xmp:rhcc-effective-on-set-on-upload>true</xmp:rhcc-effective-on-set-on-upload>
         <xmp:rhcc-metadata-complete-uploader>pending</xmp:rhcc-metadata-complete-uploader>
         <xmp:rhcc-file-last-modified>2024-07-12T18:54:51.344Z</xmp:rhcc-file-last-modified>
         <xmp:rhcc-audience>rhcc-audience:internal</xmp:rhcc-audience>
         <xmp:brand-content-subtype>Icon</xmp:brand-content-subtype>
         <xmp:rhcc-rights-restricted>no</xmp:rhcc-rights-restricted>
         <xmp:rhcc-derivative-id>DERa86690f2-293b-46fe-aa17-a296cde7e53c</xmp:rhcc-derivative-id>
         <xmp:rhcc-uploaded-by>pmeilleu@redhat.com</xmp:rhcc-uploaded-by>
         <xmp:brand-logo-color>White</xmp:brand-logo-color>
         <xmp:rhcc-notify-portal-subscribers-on-change>yes</xmp:rhcc-notify-portal-subscribers-on-change>
         <dc:format>image/svg+xml</dc:format>
         <dc:modified>2024-02-09T20:31:56.799Z</dc:modified>
         <dc:title>
            <rdf:Alt>
               <rdf:li xml:lang="x-default">Money icon - White</rdf:li>
            </rdf:Alt>
         </dc:title>
         <dc:description>
            <rdf:Alt>
               <rdf:li xml:lang="x-default">dollar, yen, pound, euro, bill, change, coin, spend, pay, bank, amount, wallet, profit, finance, fintech, financial, objects, NAPS, SLED, CIV, north america public sector, state, local, and education, civilian</rdf:li>
            </rdf:Alt>
         </dc:description>
         <cq:lastReplicationAction_scene7>Activate</cq:lastReplicationAction_scene7>
         <cq:lastReplicationAction_publish>Activate</cq:lastReplicationAction_publish>
         <cq:lastReplicated_publish>2024-10-02T19:39:34.822Z</cq:lastReplicated_publish>
         <cq:lastReplicatedBy>workflow-process-service</cq:lastReplicatedBy>
         <cq:lastReplicationAction>Activate</cq:lastReplicationAction>
         <cq:lastReplicatedBy_publish>workflow-process-service</cq:lastReplicatedBy_publish>
         <cq:isDelivered>false</cq:isDelivered>
         <cq:lastReplicated>2024-10-02T19:39:34.822Z</cq:lastReplicated>
         <cq:lastReplicatedBy_scene7>workflow-process-service</cq:lastReplicatedBy_scene7>
         <cq:lastReplicated_scene7>2024-10-02T19:39:34.822Z</cq:lastReplicated_scene7>
         <tiff:ImageLength>36</tiff:ImageLength>
         <tiff:ImageWidth>36</tiff:ImageWidth>
      </rdf:Description>
   </rdf:RDF>
</x:xmpmeta>
                                                                                                    
                                                                                                    
                                                                                                    
                                                                                                    
                                                                                                    
                                                                                                    
                                                                                                    
                                                                                                    
            
<?xpacket end="w"?></metadata>
<defs>
    <style>
      .bf852915-0ea9-498f-b915-36e360a281f9 {
        fill: #fff;
      }
    </style>
  </defs>
  <g>
    <path class="bf852915-0ea9-498f-b915-36e360a281f9" d="M21.62,16A3.62,3.62,0,1,0,18,19.62,3.62,3.62,0,0,0,21.62,16ZM18,18.38A2.38,2.38,0,1,1,20.38,16,2.39,2.39,0,0,1,18,18.38Z"/>
    <path class="bf852915-0ea9-498f-b915-36e360a281f9" d="M28.5,18.38a4.12,4.12,0,1,0,4.12,4.12A4.13,4.13,0,0,0,28.5,18.38Zm0,7a2.88,2.88,0,1,1,2.88-2.88A2.89,2.89,0,0,1,28.5,25.38Z"/>
    <path class="bf852915-0ea9-498f-b915-36e360a281f9" d="M21,22.38A2.62,2.62,0,1,0,23.62,25,2.62,2.62,0,0,0,21,22.38Zm0,4A1.38,1.38,0,1,1,22.38,25,1.38,1.38,0,0,1,21,26.38Z"/>
    <path class="bf852915-0ea9-498f-b915-36e360a281f9" d="M17,22.38H9.61a4.1,4.1,0,0,0-4-4V13.61a4.1,4.1,0,0,0,4-4H26.39a4.1,4.1,0,0,0,4,4V17a.62.62,0,0,0,1.24,0V9A.62.62,0,0,0,31,8.38H5A.62.62,0,0,0,4.38,9V23a.62.62,0,0,0,.62.62H17a.62.62,0,0,0,0-1.24Zm13.38-10a2.85,2.85,0,0,1-2.74-2.74h2.74Zm-22-2.74a2.85,2.85,0,0,1-2.74,2.74V9.62Zm-2.74,10a2.85,2.85,0,0,1,2.74,2.74H5.62Z"/>
    <path class="bf852915-0ea9-498f-b915-36e360a281f9" d="M10.38,16a.63.63,0,1,0,.62-.62A.63.63,0,0,0,10.38,16Z"/>
    <path class="bf852915-0ea9-498f-b915-36e360a281f9" d="M24.38,16a.62.62,0,1,0,.62-.63A.62.62,0,0,0,24.38,16Z"/>
  </g>
</svg>
