<?xml version="1.0" encoding="UTF-8"?><svg id="uuid-11608eb8-b8f7-4c44-bcf1-74726a68c449" xmlns="http://www.w3.org/2000/svg" viewBox="0 0 38 38"><title>Infrared intelligence feature icon</title>
<metadata><?xpacket begin="﻿" id="W5M0MpCehiHzreSzNTczkc9d"?>
<x:xmpmeta xmlns:x="adobe:ns:meta/" x:xmptk="Adobe XMP Core 8.0-c001 1.000000, 0000/00/00-00:00:00        ">
   <rdf:RDF xmlns:rdf="http://www.w3.org/1999/02/22-rdf-syntax-ns#">
      <rdf:Description rdf:about=""
            xmlns:xmp="http://ns.adobe.com/xap/1.0/"
            xmlns:dc="http://purl.org/dc/elements/1.1/"
            xmlns:cq="http://www.day.com/jcr/cq/1.0"
            xmlns:tiff="http://ns.adobe.com/tiff/1.0/"
            xmlns:xmpRights="http://ns.adobe.com/xap/1.0/rights/">
         <xmp:rhcc-effective-on>2024-03-01T15:26:17.805Z</xmp:rhcc-effective-on>
         <xmp:rhcc-metadata-complete-moderator>pending</xmp:rhcc-metadata-complete-moderator>
         <xmp:rhcc-translation-id>TRA48c61e22-5755-4ade-8e71-128dd798918b</xmp:rhcc-translation-id>
         <xmp:brand-content-type>Icon</xmp:brand-content-type>
         <xmp:CreateDate>2024-03-01T15:26:17.805Z</xmp:CreateDate>
         <xmp:rhcc-aspect-ratio>square</xmp:rhcc-aspect-ratio>
         <xmp:rhcc-effective-on-set-on-upload>true</xmp:rhcc-effective-on-set-on-upload>
         <xmp:rhcc-metadata-complete-uploader>pending</xmp:rhcc-metadata-complete-uploader>
         <xmp:rhcc-file-last-modified>2024-07-12T23:51:53.070Z</xmp:rhcc-file-last-modified>
         <xmp:rhcc-audience>rhcc-audience:internal</xmp:rhcc-audience>
         <xmp:rhcc-product>Red Hat Insights</xmp:rhcc-product>
         <xmp:rhcc-rights-restricted>no</xmp:rhcc-rights-restricted>
         <xmp:brand-content-subtype>Technology icon</xmp:brand-content-subtype>
         <xmp:rhcc-derivative-id>DER48c61e22-5755-4ade-8e71-128dd798918b</xmp:rhcc-derivative-id>
         <xmp:rhcc-uploaded-by>pmeilleu@redhat.com</xmp:rhcc-uploaded-by>
         <xmp:brand-logo-color>White</xmp:brand-logo-color>
         <xmp:rhcc-notify-portal-subscribers-on-change>yes</xmp:rhcc-notify-portal-subscribers-on-change>
         <xmp:brand-subtype>
            <rdf:Bag>
               <rdf:li>Technology icon</rdf:li>
            </rdf:Bag>
         </xmp:brand-subtype>
         <dc:format>image/svg+xml</dc:format>
         <dc:modified>2024-05-10T13:24:57.383Z</dc:modified>
         <dc:title>
            <rdf:Alt>
               <rdf:li xml:lang="x-default">Infrared intelligence feature icon</rdf:li>
            </rdf:Alt>
         </dc:title>
         <cq:lastReplicationAction_scene7>Activate</cq:lastReplicationAction_scene7>
         <cq:lastReplicationAction_publish>Activate</cq:lastReplicationAction_publish>
         <cq:lastReplicated_publish>2024-10-02T19:51:36.313Z</cq:lastReplicated_publish>
         <cq:lastReplicatedBy>workflow-process-service</cq:lastReplicatedBy>
         <cq:lastReplicationAction>Activate</cq:lastReplicationAction>
         <cq:lastReplicatedBy_publish>workflow-process-service</cq:lastReplicatedBy_publish>
         <cq:isDelivered>false</cq:isDelivered>
         <cq:lastReplicated>2024-10-02T19:51:36.313Z</cq:lastReplicated>
         <cq:lastReplicatedBy_scene7>workflow-process-service</cq:lastReplicatedBy_scene7>
         <cq:lastReplicated_scene7>2024-10-02T19:51:36.313Z</cq:lastReplicated_scene7>
         <tiff:ImageLength>38</tiff:ImageLength>
         <tiff:ImageWidth>38</tiff:ImageWidth>
         <xmpRights:UsageTerms>
            <rdf:Alt>
               <rdf:li xml:lang="x-default">Use technology icons to represent Red Hat products and components. Do not remove the icon from the bounding shape.</rdf:li>
            </rdf:Alt>
         </xmpRights:UsageTerms>
      </rdf:Description>
   </rdf:RDF>
</x:xmpmeta>
                                                                                                    
                                                                                                    
                                                                                                    
                                                                                                    
                                                                                                    
                                                                                                    
                                                                                                    
                                                                                                    
                                                                                                    
                                                                                                    
                                                                                                    
                                                                                                    
                                                                                                    
                                                                                                    
                                                                                                    
                                                                                                    
                                                                                                    
                                          
<?xpacket end="w"?></metadata>
<defs><style>.uuid-90401be1-2511-4b63-a7d3-19d1ce3e9dfa{fill:#fff;}</style></defs><path class="uuid-90401be1-2511-4b63-a7d3-19d1ce3e9dfa" d="m28,1H10C5.02942,1,1,5.02942,1,10v18c0,4.97058,4.02942,9,9,9h18c4.97058,0,9-4.02942,9-9V10c0-4.97058-4.02942-9-9-9Zm7.75,27c0,4.27338-3.47668,7.75-7.75,7.75H10c-4.27332,0-7.75-3.47662-7.75-7.75V10c0-4.27338,3.47668-7.75,7.75-7.75h18c4.27332,0,7.75,3.47662,7.75,7.75v18Z"/><path class="uuid-90401be1-2511-4b63-a7d3-19d1ce3e9dfa" d="m10.5,17.625c1.17188,0,2.125-.95312,2.125-2.125s-.95312-2.125-2.125-2.125-2.125.95312-2.125,2.125.95312,2.125,2.125,2.125Zm0-3c.48242,0,.875.39258.875.875s-.39258.875-.875.875-.875-.39258-.875-.875.39258-.875.875-.875Z"/><path class="uuid-90401be1-2511-4b63-a7d3-19d1ce3e9dfa" d="m27.5,20.375c-1.17188,0-2.125.95312-2.125,2.125s.95312,2.125,2.125,2.125,2.125-.95312,2.125-2.125-.95312-2.125-2.125-2.125Zm0,3c-.48242,0-.875-.39258-.875-.875s.39258-.875.875-.875.875.39258.875.875-.39258.875-.875.875Z"/><path class="uuid-90401be1-2511-4b63-a7d3-19d1ce3e9dfa" d="m13.00098,14.23047c.10547,0,.21387-.02734.3125-.08398,1.17383-.67969,2.44922-1.13867,3.79004-1.36426.34082-.05664.57031-.37891.5127-.71973-.05664-.33984-.36914-.56543-.71973-.5127-1.48828.25-2.90527.75977-4.20996,1.51465-.29883.17285-.40039.55566-.22754.85449.11621.2002.32617.31152.54199.31152Z"/><path class="uuid-90401be1-2511-4b63-a7d3-19d1ce3e9dfa" d="m24.68652,23.85352c-1.17383.67969-2.44922,1.13867-3.79004,1.36426-.34082.05664-.57031.37891-.5127.71973.05078.30566.31543.52148.61523.52148.03418,0,.06934-.00293.10449-.00879,1.48828-.25,2.90527-.75977,4.20996-1.51465.29883-.17285.40039-.55566.22754-.85449-.17383-.29883-.55469-.40137-.85449-.22754Z"/><path class="uuid-90401be1-2511-4b63-a7d3-19d1ce3e9dfa" d="m15.375,19c0,1.99902,1.62598,3.625,3.625,3.625s3.625-1.62598,3.625-3.625-1.62598-3.625-3.625-3.625-3.625,1.62598-3.625,3.625Zm3.625-2.375c1.30957,0,2.375,1.06543,2.375,2.375s-1.06543,2.375-2.375,2.375-2.375-1.06543-2.375-2.375,1.06543-2.375,2.375-2.375Z"/><path class="uuid-90401be1-2511-4b63-a7d3-19d1ce3e9dfa" d="m19.625,11.39789v-.39789c0-.34473-.28027-.625-.625-.625s-.625.28027-.625.625v2c0,.34473.28027.625.625.625s.625-.28027.625-.625v-.35217c4.18652.23206,7.95557,2.77222,9.71875,6.61292.10547.22949.33203.36426.56836.36426.08789,0,.17676-.01855.26074-.05664.31348-.14453.45117-.51562.30762-.8291-1.96631-4.28308-6.18237-7.10791-10.85547-7.34137Z"/><path class="uuid-90401be1-2511-4b63-a7d3-19d1ce3e9dfa" d="m19,24.375c-.34473,0-.625.28027-.625.625v.35217c-4.18652-.23206-7.95557-2.77222-9.71875-6.61292-.14453-.31543-.52051-.44922-.8291-.30762-.31348.14453-.45117.51562-.30762.8291,1.96631,4.28308,6.18237,7.10791,10.85547,7.34137v.39789c0,.34473.28027.625.625.625s.625-.28027.625-.625v-2c0-.34473-.28027-.625-.625-.625Z"/></svg>