<?xml version="1.0" encoding="UTF-8"?><svg id="uuid-3426f4e5-8af5-46ae-9e4f-ee8ab9458ca1" xmlns="http://www.w3.org/2000/svg" width="36" height="36" viewBox="0 0 36 36"><title>Palm tree icon</title>
<desc>frond, tropics, beach, vacation, desert, island, oasis, sun, paradise, exotic, coconut, tree, coast, summer, heat, fun, resilient, plant, relax, time off, PTO, break, holiday</desc>
<metadata><?xpacket begin="﻿" id="W5M0MpCehiHzreSzNTczkc9d"?>
<x:xmpmeta xmlns:x="adobe:ns:meta/" x:xmptk="Adobe XMP Core 8.0-c001 1.000000, 0000/00/00-00:00:00        ">
   <rdf:RDF xmlns:rdf="http://www.w3.org/1999/02/22-rdf-syntax-ns#">
      <rdf:Description rdf:about=""
            xmlns:dc="http://purl.org/dc/elements/1.1/"
            xmlns:tiff="http://ns.adobe.com/tiff/1.0/"
            xmlns:xmp="http://ns.adobe.com/xap/1.0/">
         <dc:modified>2025-09-25T18:04:11.622Z</dc:modified>
         <dc:format>image/svg+xml</dc:format>
         <dc:description>
            <rdf:Alt>
               <rdf:li xml:lang="x-default">frond, tropics, beach, vacation, desert, island, oasis, sun, paradise, exotic, coconut, tree, coast, summer, heat, fun, resilient, plant, relax, time off, PTO, break, holiday</rdf:li>
            </rdf:Alt>
         </dc:description>
         <dc:title>
            <rdf:Alt>
               <rdf:li xml:lang="x-default">Palm tree icon</rdf:li>
            </rdf:Alt>
         </dc:title>
         <tiff:ImageLength>36</tiff:ImageLength>
         <tiff:ImageWidth>36</tiff:ImageWidth>
         <xmp:rhcc-rights-restricted>no</xmp:rhcc-rights-restricted>
         <xmp:brand-content-subtype>Icon</xmp:brand-content-subtype>
         <xmp:rhcc-file-last-modified>2025-09-25T18:02:21.342Z</xmp:rhcc-file-last-modified>
         <xmp:brand-content-type>Icon</xmp:brand-content-type>
         <xmp:brand-colorway>
            <rdf:Bag>
               <rdf:li>colorway:black</rdf:li>
            </rdf:Bag>
         </xmp:brand-colorway>
      </rdf:Description>
   </rdf:RDF>
</x:xmpmeta>
                                                                                                    
                                                                                                    
                                                                                                    
                                                                                                    
                                                                                                    
                                                                                                    
                                                                                                    
                                                                                                    
                                                                                                    
                                                                                                    
                                                                                                    
                                                                                                    
                                                                                                    
                                                                                                    
                                                                                                    
                                                                                                    
                                                                                                    
                                                                                                    
                                                                              
<?xpacket end="w"?></metadata>
<path d="M32.5874,12.5625c-2.01465-2.05566-4.70947-3.1875-7.5874-3.1875-2.13739,0-4.18097.63379-5.91852,1.80414,1.04974-3.3175,3.86359-5.79236,7.26129-6.40619l-2.78467,2.78467c-.24414.24414-.24414.64062,0,.88477s.63965.24414.88379,0l4-4.00049c.17871-.17871.23242-.44775.13574-.68115-.09717-.2334-.32471-.38574-.57764-.38574-4.52527,0-8.51276,2.89374-10,7.05634-1.48724-4.1626-5.47473-7.05634-10-7.05634-.25293,0-.48047.15234-.57764.38574-.09668.2334-.04297.50244.13574.68115l4,4.00049c.24414.24414.63965.24414.88379,0s.24414-.64062,0-.88477l-2.78467-2.78467c3.39783.61383,6.21179,3.08893,7.26141,6.40668-1.73773-1.17059-3.78143-1.80463-5.91913-1.80463-2.87793,0-5.57275,1.13184-7.5874,3.1875-.17627.17969-.22754.44727-.12988.67969.09766.23145.32471.38281.57617.38281h5.14111c.34521,0,.625-.28027.625-.625s-.27979-.625-.625-.625h-3.45898c1.58008-1.13672,3.46973-1.75,5.45898-1.75,2.03784,0,3.97565.65759,5.58362,1.85577-5.18939.69635-9.20813,5.14233-9.20813,10.51923,0,.25293.15234.48047.38574.57715.23389.09668.50195.04297.68115-.13477l3-3c.24414-.24414.24414-.64062,0-.88477s-.63965-.24414-.88379,0l-1.78662,1.78711c.78369-4.38281,4.62402-7.71973,9.22852-7.71973s8.44482,3.33691,9.22852,7.71973l-3.78662-3.78711c-.24414-.24414-.63965-.24414-.88379,0s-.24414.64062,0,.88477l5,5c.11963.11914.2793.18262.44189.18262.08057,0,.16162-.01562.23926-.04785.2334-.09668.38574-.32422.38574-.57715,0-5.37701-4.01898-9.82306-9.20856-10.51929,1.60785-1.19818,3.54578-1.85571,5.58356-1.85571,1.98926,0,3.87891.61328,5.45898,1.75h-3.45898c-.34521,0-.625.28027-.625.625s.27979.625.625.625h5.14111c.25146,0,.47852-.15137.57617-.38281.09766-.23242.04639-.5-.12988-.67969Z"/><path d="M28,30.375c-5.16943,0-9.375-4.20605-9.375-9.375,0-1.30371.26221-2.56543.77979-3.75.13818-.31641-.00635-.68457-.32227-.82227-.31836-.1416-.68555.00488-.82324.32227-.58691,1.34277-.88428,2.77246-.88428,4.25,0,.12726.02179.24884.02625.375h-3.17236c.48718-1.44849,1.25494-2.79858,2.2926-3.95801.22998-.25781.20801-.65234-.04883-.88281-.25879-.23047-.65283-.20801-.88281.04883-1.33545,1.49207-2.27789,3.26514-2.78412,5.1684-.01147.02649-.01196.05707-.01978.08527-.26514,1.02539-.41095,2.08582-.41095,3.16333,0,.66388.06891,1.32098.17169,1.97198-.00049.00983-.00568.01807-.00568.02802,0,.0957.02533.18396.0639.26508.25415,1.39441.72107,2.74323,1.42456,3.97754.00018.00043.00043.00079.00061.00122.01288.02252.02136.04718.03436.06964.0094.01624.02722.02234.03778.03741.04321.06183.09509.11298.15729.15564.02313.01575.04242.03302.06726.04541.08484.04309.177.07306.27869.07306h13.39453c.34521,0,.625-.28027.625-.625s-.27979-.625-.625-.625ZM17.50757,22.625c.20862,1.35114.67371,2.61633,1.34216,3.75h-5.13458c-.05524-.45514-.09015-.9137-.09015-1.375,0-.8056.09454-1.59949.25989-2.375h3.62268ZM14.99274,30.375c-.46747-.86877-.81775-1.79163-1.04462-2.75h5.7572c.89984,1.12433,2.01904,2.06567,3.29761,2.75h-8.01019Z"/></svg>