<svg id="f74e39d1-806c-43a4-82dd-f37f355d8af3" data-name="Icon" xmlns="http://www.w3.org/2000/svg" viewBox="0 0 36 36">
  <title>Management and automation icon - Red</title>
<desc>gear, arrows, service, manage, control, automate, system, administrator, sysadmin, monitor, software and technologies, telco</desc>
<metadata><?xpacket begin="﻿" id="W5M0MpCehiHzreSzNTczkc9d"?>
<x:xmpmeta xmlns:x="adobe:ns:meta/" x:xmptk="Adobe XMP Core 8.0-c001 1.000000, 0000/00/00-00:00:00        ">
   <rdf:RDF xmlns:rdf="http://www.w3.org/1999/02/22-rdf-syntax-ns#">
      <rdf:Description rdf:about=""
            xmlns:xmp="http://ns.adobe.com/xap/1.0/"
            xmlns:dc="http://purl.org/dc/elements/1.1/"
            xmlns:cq="http://www.day.com/jcr/cq/1.0"
            xmlns:tiff="http://ns.adobe.com/tiff/1.0/">
         <xmp:rhcc-effective-on>2023-12-08T17:43:44.611Z</xmp:rhcc-effective-on>
         <xmp:rhcc-metadata-complete-moderator>pending</xmp:rhcc-metadata-complete-moderator>
         <xmp:rhcc-translation-id>TRAeacfd020-f1d5-4be4-8c11-7b2df6b0a48e</xmp:rhcc-translation-id>
         <xmp:brand-content-type>Icon</xmp:brand-content-type>
         <xmp:CreateDate>2023-12-08T17:43:44.611Z</xmp:CreateDate>
         <xmp:rhcc-aspect-ratio>square</xmp:rhcc-aspect-ratio>
         <xmp:rhcc-effective-on-set-on-upload>true</xmp:rhcc-effective-on-set-on-upload>
         <xmp:rhcc-metadata-complete-uploader>pending</xmp:rhcc-metadata-complete-uploader>
         <xmp:rhcc-file-last-modified>2024-12-19T19:35:59.815Z</xmp:rhcc-file-last-modified>
         <xmp:rhcc-audience>rhcc-audience:internal</xmp:rhcc-audience>
         <xmp:brand-content-subtype>Icon</xmp:brand-content-subtype>
         <xmp:rhcc-rights-restricted>no</xmp:rhcc-rights-restricted>
         <xmp:rhcc-derivative-id>DEReacfd020-f1d5-4be4-8c11-7b2df6b0a48e</xmp:rhcc-derivative-id>
         <xmp:rhcc-uploaded-by>pmeilleu@redhat.com</xmp:rhcc-uploaded-by>
         <xmp:brand-logo-color>Red</xmp:brand-logo-color>
         <xmp:rhcc-notify-portal-subscribers-on-change>yes</xmp:rhcc-notify-portal-subscribers-on-change>
         <dc:format>image/svg+xml</dc:format>
         <dc:modified>2024-02-09T20:17:18.277Z</dc:modified>
         <dc:title>
            <rdf:Alt>
               <rdf:li xml:lang="x-default">Management and automation icon - Red</rdf:li>
            </rdf:Alt>
         </dc:title>
         <dc:description>
            <rdf:Alt>
               <rdf:li xml:lang="x-default">gear, arrows, service, manage, control, automate, system, administrator, sysadmin, monitor, software and technologies, telco</rdf:li>
            </rdf:Alt>
         </dc:description>
         <cq:lastReplicationAction_scene7>Activate</cq:lastReplicationAction_scene7>
         <cq:lastReplicationAction_publish>Activate</cq:lastReplicationAction_publish>
         <cq:lastReplicated_publish>2025-01-31T18:14:28.049Z</cq:lastReplicated_publish>
         <cq:lastReplicatedBy>workflow-process-service</cq:lastReplicatedBy>
         <cq:lastReplicationAction>Activate</cq:lastReplicationAction>
         <cq:lastReplicatedBy_publish>workflow-process-service</cq:lastReplicatedBy_publish>
         <cq:isDelivered>false</cq:isDelivered>
         <cq:lastReplicated>2025-01-31T18:14:28.049Z</cq:lastReplicated>
         <cq:lastReplicatedBy_scene7>workflow-process-service</cq:lastReplicatedBy_scene7>
         <cq:lastReplicated_scene7>2025-01-31T18:14:28.049Z</cq:lastReplicated_scene7>
         <tiff:ImageLength>36</tiff:ImageLength>
         <tiff:ImageWidth>36</tiff:ImageWidth>
      </rdf:Description>
   </rdf:RDF>
</x:xmpmeta>
                                                                                                    
                                                                                                    
                                                                                                    
                                                                                                    
                                                                                                    
                                                                                                    
                                                                                                    
                                                                                                    
                                                                                          
<?xpacket end="w"?></metadata>
<defs>
    <style>
      .a41c5234-a14a-4f3d-9160-4472b76d0040 {
        fill: #e00;
      }
    </style>
  </defs>
  <g>
    <path class="a41c5234-a14a-4f3d-9160-4472b76d0040" d="M25,17.38H23.23a5.27,5.27,0,0,0-1.09-2.64l1.25-1.25a.62.62,0,1,0-.88-.88l-1.25,1.25a5.27,5.27,0,0,0-2.64-1.09V11a.62.62,0,1,0-1.24,0v1.77a5.27,5.27,0,0,0-2.64,1.09l-1.25-1.25a.62.62,0,0,0-.88.88l1.25,1.25a5.27,5.27,0,0,0-1.09,2.64H11a.62.62,0,0,0,0,1.24h1.77a5.27,5.27,0,0,0,1.09,2.64l-1.25,1.25a.61.61,0,0,0,0,.88.63.63,0,0,0,.88,0l1.25-1.25a5.27,5.27,0,0,0,2.64,1.09V25a.62.62,0,0,0,1.24,0V23.23a5.27,5.27,0,0,0,2.64-1.09l1.25,1.25a.63.63,0,0,0,.88,0,.61.61,0,0,0,0-.88l-1.25-1.25a5.27,5.27,0,0,0,1.09-2.64H25a.62.62,0,0,0,0-1.24Zm-7,4.68A4.06,4.06,0,1,1,22.06,18,4.06,4.06,0,0,1,18,22.06Z"/>
    <path class="a41c5234-a14a-4f3d-9160-4472b76d0040" d="M27.9,28.52a.62.62,0,0,1-.44-.18.61.61,0,0,1,0-.88,13.42,13.42,0,0,0,2.63-15.19.61.61,0,0,1,.3-.83.62.62,0,0,1,.83.29,14.67,14.67,0,0,1-2.88,16.61A.62.62,0,0,1,27.9,28.52Z"/>
    <path class="a41c5234-a14a-4f3d-9160-4472b76d0040" d="M27.9,8.73a.63.63,0,0,1-.44-.19A13.4,13.4,0,0,0,12.27,5.91a.61.61,0,0,1-.83-.3.62.62,0,0,1,.29-.83A14.67,14.67,0,0,1,28.34,7.66a.63.63,0,0,1-.44,1.07Z"/>
    <path class="a41c5234-a14a-4f3d-9160-4472b76d0040" d="M5.35,24.62a.63.63,0,0,1-.57-.35A14.67,14.67,0,0,1,7.66,7.66a.62.62,0,0,1,.88.88A13.42,13.42,0,0,0,5.91,23.73a.61.61,0,0,1-.3.83A.48.48,0,0,1,5.35,24.62Z"/>
    <path class="a41c5234-a14a-4f3d-9160-4472b76d0040" d="M18,32.62A14.64,14.64,0,0,1,7.66,28.34a.63.63,0,0,1,0-.88.61.61,0,0,1,.88,0,13.42,13.42,0,0,0,15.19,2.63.61.61,0,0,1,.83.3.62.62,0,0,1-.29.83A14.67,14.67,0,0,1,18,32.62Z"/>
    <path class="a41c5234-a14a-4f3d-9160-4472b76d0040" d="M30,29.62H27a.62.62,0,0,1-.62-.62V26a.62.62,0,0,1,1.24,0v2.38H30a.62.62,0,0,1,0,1.24Z"/>
    <path class="a41c5234-a14a-4f3d-9160-4472b76d0040" d="M7,30.62A.62.62,0,0,1,6.38,30V27A.62.62,0,0,1,7,26.38h3a.62.62,0,0,1,0,1.24H7.62V30A.62.62,0,0,1,7,30.62Z"/>
    <path class="a41c5234-a14a-4f3d-9160-4472b76d0040" d="M29,9.62H26a.62.62,0,0,1,0-1.24h2.38V6a.62.62,0,0,1,1.24,0V9A.62.62,0,0,1,29,9.62Z"/>
    <path class="a41c5234-a14a-4f3d-9160-4472b76d0040" d="M9,10.62A.62.62,0,0,1,8.38,10V7.62H6A.62.62,0,0,1,6,6.38H9A.62.62,0,0,1,9.62,7v3A.62.62,0,0,1,9,10.62Z"/>
  </g>
</svg>
