<?xml version="1.0" encoding="UTF-8"?><svg id="uuid-32daef88-15c0-460f-9764-a17608d2d9c5" xmlns="http://www.w3.org/2000/svg" viewBox="0 0 38 38"><title>Distributed tracing icon</title>
<desc>Cloud, component</desc>
<metadata><?xpacket begin="﻿" id="W5M0MpCehiHzreSzNTczkc9d"?>
<x:xmpmeta xmlns:x="adobe:ns:meta/" x:xmptk="Adobe XMP Core 8.0-c001 1.000000, 0000/00/00-00:00:00        ">
   <rdf:RDF xmlns:rdf="http://www.w3.org/1999/02/22-rdf-syntax-ns#">
      <rdf:Description rdf:about=""
            xmlns:xmp="http://ns.adobe.com/xap/1.0/"
            xmlns:dc="http://purl.org/dc/elements/1.1/"
            xmlns:cq="http://www.day.com/jcr/cq/1.0"
            xmlns:tiff="http://ns.adobe.com/tiff/1.0/"
            xmlns:xmpRights="http://ns.adobe.com/xap/1.0/rights/">
         <xmp:rhcc-effective-on>2024-03-01T15:26:09.256Z</xmp:rhcc-effective-on>
         <xmp:rhcc-metadata-complete-moderator>pending</xmp:rhcc-metadata-complete-moderator>
         <xmp:rhcc-translation-id>TRA4385b7d5-75d9-4331-819c-b2e02c439bc0</xmp:rhcc-translation-id>
         <xmp:brand-content-type>Icon</xmp:brand-content-type>
         <xmp:CreateDate>2024-03-01T15:26:09.256Z</xmp:CreateDate>
         <xmp:rhcc-aspect-ratio>square</xmp:rhcc-aspect-ratio>
         <xmp:rhcc-effective-on-set-on-upload>true</xmp:rhcc-effective-on-set-on-upload>
         <xmp:rhcc-metadata-complete-uploader>pending</xmp:rhcc-metadata-complete-uploader>
         <xmp:rhcc-file-last-modified>2024-07-12T23:54:08.957Z</xmp:rhcc-file-last-modified>
         <xmp:rhcc-audience>rhcc-audience:internal</xmp:rhcc-audience>
         <xmp:rhcc-rights-restricted>no</xmp:rhcc-rights-restricted>
         <xmp:brand-content-subtype>Technology icon</xmp:brand-content-subtype>
         <xmp:rhcc-derivative-id>DER4385b7d5-75d9-4331-819c-b2e02c439bc0</xmp:rhcc-derivative-id>
         <xmp:rhcc-uploaded-by>pmeilleu@redhat.com</xmp:rhcc-uploaded-by>
         <xmp:brand-logo-color>Standard</xmp:brand-logo-color>
         <xmp:rhcc-notify-portal-subscribers-on-change>yes</xmp:rhcc-notify-portal-subscribers-on-change>
         <xmp:rhcc-product>
            <rdf:Bag>
               <rdf:li>rhcc-product:red-hat-openshift</rdf:li>
            </rdf:Bag>
         </xmp:rhcc-product>
         <xmp:brand-subtype>
            <rdf:Bag>
               <rdf:li>Technology icon</rdf:li>
            </rdf:Bag>
         </xmp:brand-subtype>
         <dc:format>image/svg+xml</dc:format>
         <dc:modified>2024-05-10T12:43:05.073Z</dc:modified>
         <dc:title>
            <rdf:Alt>
               <rdf:li xml:lang="x-default">Distributed tracing icon</rdf:li>
            </rdf:Alt>
         </dc:title>
         <dc:description>
            <rdf:Alt>
               <rdf:li xml:lang="x-default">Cloud, component</rdf:li>
            </rdf:Alt>
         </dc:description>
         <cq:lastReplicationAction_scene7>Activate</cq:lastReplicationAction_scene7>
         <cq:lastReplicationAction_publish>Activate</cq:lastReplicationAction_publish>
         <cq:lastReplicated_publish>2024-10-02T19:50:59.446Z</cq:lastReplicated_publish>
         <cq:lastReplicatedBy>workflow-process-service</cq:lastReplicatedBy>
         <cq:lastReplicationAction>Activate</cq:lastReplicationAction>
         <cq:lastReplicatedBy_publish>workflow-process-service</cq:lastReplicatedBy_publish>
         <cq:isDelivered>false</cq:isDelivered>
         <cq:lastReplicated>2024-10-02T19:50:59.446Z</cq:lastReplicated>
         <cq:lastReplicatedBy_scene7>workflow-process-service</cq:lastReplicatedBy_scene7>
         <cq:lastReplicated_scene7>2024-10-02T19:50:59.446Z</cq:lastReplicated_scene7>
         <tiff:ImageLength>38</tiff:ImageLength>
         <tiff:ImageWidth>38</tiff:ImageWidth>
         <xmpRights:UsageTerms>
            <rdf:Alt>
               <rdf:li xml:lang="x-default">Use technology icons to represent Red Hat products and components. Do not remove the icon from the bounding shape.</rdf:li>
            </rdf:Alt>
         </xmpRights:UsageTerms>
      </rdf:Description>
   </rdf:RDF>
</x:xmpmeta>
                                                                                                    
                                                                                                    
                                                                                                    
                                                                                                    
                                                                                                    
                                                                                                    
                                                                                                    
                                                                                                    
                                                                                                    
                                                                                                    
                                                                                                    
                                                                                                    
                                                                                                    
                                                                                                    
                                                                                                    
                                                                                                    
                                                                                                    
                                          
<?xpacket end="w"?></metadata>
<defs><style>.uuid-fa633b78-8f94-42bd-b93a-5a4dbcea2fa8{fill:#e00;}.uuid-6ecbf259-6049-4d53-98de-f159f50d19aa{fill:#fff;}.uuid-72725ea4-b0eb-4a1a-a866-174f5fac14c5{fill:#e0e0e0;}</style></defs><path class="uuid-6ecbf259-6049-4d53-98de-f159f50d19aa" d="m28,1H10C5.02944,1,1,5.02944,1,10v18c0,4.97057,4.02944,9,9,9h18c4.97056,0,9-4.02943,9-9V10c0-4.97056-4.02944-9-9-9h0Z"/><path class="uuid-72725ea4-b0eb-4a1a-a866-174f5fac14c5" d="m28,2.25c4.27332,0,7.75,3.47665,7.75,7.75v18c0,4.27335-3.47668,7.75-7.75,7.75H10c-4.27332,0-7.75-3.47665-7.75-7.75V10c0-4.27335,3.47668-7.75,7.75-7.75h18m0-1.25H10C5.02942,1,1,5.02945,1,10v18c0,4.97058,4.02942,9,9,9h18c4.97058,0,9-4.02942,9-9V10c0-4.97055-4.02942-9-9-9h0Z"/><path class="uuid-fa633b78-8f94-42bd-b93a-5a4dbcea2fa8" d="m27,15.625c.34473,0,.625-.28027.625-.625v-4c0-.34473-.28027-.625-.625-.625h-4c-.34473,0-.625.28027-.625.625v1.375h-3.375c-.34473,0-.625.28027-.625.625s.28027.625.625.625h3.375v1.375c0,.34473.28027.625.625.625h1.375v6.75h-1.375c-.34473,0-.625.28027-.625.625v1.375h-6.75v-1.375c0-.34473-.28027-.625-.625-.625h-1.375v-3.375c0-.34473-.28027-.625-.625-.625s-.625.28027-.625.625v3.375h-1.375c-.34473,0-.625.28027-.625.625v4c0,.34473.28027.625.625.625h4c.34473,0,.625-.28027.625-.625v-1.375h6.75v1.375c0,.34473.28027.625.625.625h4c.34473,0,.625-.28027.625-.625v-4c0-.34473-.28027-.625-.625-.625h-1.375v-6.75h1.375Zm-12.625,10.75h-2.75v-2.75h2.75v2.75Zm12,0h-2.75v-2.75h2.75v2.75Zm-2.75-14.75h2.75v2.75h-2.75v-2.75Z"/><path d="m21.44238,20.55762l-3.05139-3.05139c.77014-.96259,1.23401-2.18048,1.23401-3.50623,0-3.10156-2.52344-5.625-5.625-5.625s-5.625,2.52344-5.625,5.625,2.52344,5.625,5.625,5.625c1.32568,0,2.5437-.46381,3.50623-1.23401l3.05139,3.05139c.12207.12207.28223.18262.44238.18262s.32031-.06055.44238-.18262c.24316-.24414.24316-.64062,0-.88477Zm-11.81738-6.55762c0-2.41211,1.96289-4.375,4.375-4.375s4.375,1.96289,4.375,4.375-1.96289,4.375-4.375,4.375-4.375-1.96289-4.375-4.375Z"/><path class="uuid-fa633b78-8f94-42bd-b93a-5a4dbcea2fa8" d="m14.88477,14l1.55762-1.55762c.24316-.24414.24316-.64062,0-.88477-.24414-.24414-.64062-.24414-.88477,0l-1.55762,1.55762-1.55762-1.55762c-.24414-.24414-.64062-.24414-.88477,0-.24316.24414-.24316.64062,0,.88477l1.55762,1.55762-1.55762,1.55762c-.24316.24414-.24316.64062,0,.88477.12207.12207.28223.18262.44238.18262s.32031-.06055.44238-.18262l1.55762-1.55762,1.55762,1.55762c.12207.12207.28223.18262.44238.18262s.32031-.06055.44238-.18262c.24316-.24414.24316-.64062,0-.88477l-1.55762-1.55762Z"/></svg>