<svg id="f15951de-beee-4708-931e-d7cc7c579514" data-name="Icon" xmlns="http://www.w3.org/2000/svg" viewBox="0 0 36 36">
  <title>Puzzle piece icon - White</title>
<metadata><?xpacket begin="﻿" id="W5M0MpCehiHzreSzNTczkc9d"?>
<x:xmpmeta xmlns:x="adobe:ns:meta/" x:xmptk="Adobe XMP Core 8.0-c001 1.000000, 0000/00/00-00:00:00        ">
   <rdf:RDF xmlns:rdf="http://www.w3.org/1999/02/22-rdf-syntax-ns#">
      <rdf:Description rdf:about=""
            xmlns:xmp="http://ns.adobe.com/xap/1.0/"
            xmlns:dc="http://purl.org/dc/elements/1.1/"
            xmlns:cq="http://www.day.com/jcr/cq/1.0"
            xmlns:tiff="http://ns.adobe.com/tiff/1.0/">
         <xmp:rhcc-effective-on>2023-12-08T17:36:20.199Z</xmp:rhcc-effective-on>
         <xmp:rhcc-metadata-complete-moderator>pending</xmp:rhcc-metadata-complete-moderator>
         <xmp:rhcc-translation-id>TRAf1f98621-f292-4c06-98af-b557ebc9eace</xmp:rhcc-translation-id>
         <xmp:brand-content-type>Icon</xmp:brand-content-type>
         <xmp:CreateDate>2023-12-08T17:36:20.199Z</xmp:CreateDate>
         <xmp:rhcc-aspect-ratio>square</xmp:rhcc-aspect-ratio>
         <xmp:rhcc-effective-on-set-on-upload>true</xmp:rhcc-effective-on-set-on-upload>
         <xmp:rhcc-published-asset-email-sent>true</xmp:rhcc-published-asset-email-sent>
         <xmp:rhcc-metadata-complete-uploader>pending</xmp:rhcc-metadata-complete-uploader>
         <xmp:rhcc-file-last-modified>2024-07-12T22:31:19.346Z</xmp:rhcc-file-last-modified>
         <xmp:rhcc-audience>rhcc-audience:internal</xmp:rhcc-audience>
         <xmp:brand-content-subtype>Icon</xmp:brand-content-subtype>
         <xmp:rhcc-rights-restricted>no</xmp:rhcc-rights-restricted>
         <xmp:rhcc-derivative-id>DERf1f98621-f292-4c06-98af-b557ebc9eace</xmp:rhcc-derivative-id>
         <xmp:rhcc-uploaded-by>pmeilleu@redhat.com</xmp:rhcc-uploaded-by>
         <xmp:brand-logo-color>White</xmp:brand-logo-color>
         <xmp:rhcc-notify-portal-subscribers-on-change>yes</xmp:rhcc-notify-portal-subscribers-on-change>
         <dc:format>image/svg+xml</dc:format>
         <dc:modified>2024-02-09T20:32:28.190Z</dc:modified>
         <dc:title>
            <rdf:Alt>
               <rdf:li xml:lang="x-default">Puzzle piece icon - White</rdf:li>
            </rdf:Alt>
         </dc:title>
         <cq:lastReplicationAction_scene7>Activate</cq:lastReplicationAction_scene7>
         <cq:lastReplicationAction_publish>Activate</cq:lastReplicationAction_publish>
         <cq:lastReplicated_publish>2024-10-02T19:42:28.123Z</cq:lastReplicated_publish>
         <cq:lastReplicatedBy>workflow-process-service</cq:lastReplicatedBy>
         <cq:lastReplicationAction>Activate</cq:lastReplicationAction>
         <cq:lastReplicatedBy_publish>workflow-process-service</cq:lastReplicatedBy_publish>
         <cq:isDelivered>false</cq:isDelivered>
         <cq:lastReplicated>2024-10-02T19:42:28.123Z</cq:lastReplicated>
         <cq:lastReplicatedBy_scene7>workflow-process-service</cq:lastReplicatedBy_scene7>
         <cq:lastReplicated_scene7>2024-10-02T19:42:28.123Z</cq:lastReplicated_scene7>
         <tiff:ImageLength>36</tiff:ImageLength>
         <tiff:ImageWidth>36</tiff:ImageWidth>
      </rdf:Description>
   </rdf:RDF>
</x:xmpmeta>
                                                                                                    
                                                                                                    
                                                                                                    
                                                                                                    
                                                                                                    
                                                                                                    
                                                                                                    
                                                                                                    
        
<?xpacket end="w"?></metadata>
<defs>
    <style>
      .a1c8ff5b-3b0d-462b-a918-1c93aa651df1 {
        fill: #fff;
      }
    </style>
  </defs>
  <path class="a1c8ff5b-3b0d-462b-a918-1c93aa651df1" d="M27,14.38a3.65,3.65,0,0,0-1.38.27V9A.62.62,0,0,0,25,8.38H19.35a3.62,3.62,0,1,0-6.7,0H7A.62.62,0,0,0,6.38,9v6.78a.62.62,0,0,0,1,.46A2.35,2.35,0,0,1,9,15.62a2.38,2.38,0,1,1,0,4.76,2.35,2.35,0,0,1-1.58-.62.62.62,0,0,0-1,.46V27a.62.62,0,0,0,.62.62h5.65a3.62,3.62,0,1,0,6.7,0H25a.62.62,0,0,0,.62-.62V21.35a3.62,3.62,0,1,0,1.38-7Zm0,6a2.35,2.35,0,0,1-1.58-.62.62.62,0,0,0-1,.46v6.16H18.22a.62.62,0,0,0-.46,1A2.35,2.35,0,0,1,18.38,29a2.38,2.38,0,1,1-4.76,0,2.35,2.35,0,0,1,.62-1.58.62.62,0,0,0-.46-1H7.62v-5a3.62,3.62,0,1,0,0-6.7v-5h6.16a.62.62,0,0,0,.46-1A2.35,2.35,0,0,1,13.62,7a2.38,2.38,0,1,1,4.76,0,2.35,2.35,0,0,1-.62,1.58.62.62,0,0,0,.46,1h6.16v6.16a.62.62,0,0,0,1,.46A2.35,2.35,0,0,1,27,15.62a2.38,2.38,0,0,1,0,4.76Z"/>
</svg>
