<svg id="baef88e9-8d5d-4f5d-86f3-a4967814cb0e" data-name="Icon" xmlns="http://www.w3.org/2000/svg" viewBox="0 0 36 36">
  <title>Insurance icon - Red</title>
<desc>security, safeguard, service, assurance, warranty, buildings and industries</desc>
<metadata><?xpacket begin="﻿" id="W5M0MpCehiHzreSzNTczkc9d"?>
<x:xmpmeta xmlns:x="adobe:ns:meta/" x:xmptk="Adobe XMP Core 8.0-c001 1.000000, 0000/00/00-00:00:00        ">
   <rdf:RDF xmlns:rdf="http://www.w3.org/1999/02/22-rdf-syntax-ns#">
      <rdf:Description rdf:about=""
            xmlns:xmp="http://ns.adobe.com/xap/1.0/"
            xmlns:dc="http://purl.org/dc/elements/1.1/"
            xmlns:cq="http://www.day.com/jcr/cq/1.0"
            xmlns:tiff="http://ns.adobe.com/tiff/1.0/">
         <xmp:rhcc-effective-on>2023-12-08T17:47:33.240Z</xmp:rhcc-effective-on>
         <xmp:rhcc-metadata-complete-moderator>pending</xmp:rhcc-metadata-complete-moderator>
         <xmp:rhcc-translation-id>TRA4d6ca9d9-d3c9-4d58-a9ca-010218d1619b</xmp:rhcc-translation-id>
         <xmp:brand-content-type>Icon</xmp:brand-content-type>
         <xmp:CreateDate>2023-12-08T17:47:33.240Z</xmp:CreateDate>
         <xmp:rhcc-aspect-ratio>square</xmp:rhcc-aspect-ratio>
         <xmp:rhcc-effective-on-set-on-upload>true</xmp:rhcc-effective-on-set-on-upload>
         <xmp:rhcc-metadata-complete-uploader>pending</xmp:rhcc-metadata-complete-uploader>
         <xmp:rhcc-file-last-modified>2024-07-12T21:05:51.125Z</xmp:rhcc-file-last-modified>
         <xmp:rhcc-audience>rhcc-audience:internal</xmp:rhcc-audience>
         <xmp:brand-content-subtype>Icon</xmp:brand-content-subtype>
         <xmp:rhcc-rights-restricted>no</xmp:rhcc-rights-restricted>
         <xmp:rhcc-derivative-id>DER4d6ca9d9-d3c9-4d58-a9ca-010218d1619b</xmp:rhcc-derivative-id>
         <xmp:rhcc-uploaded-by>pmeilleu@redhat.com</xmp:rhcc-uploaded-by>
         <xmp:brand-logo-color>Red</xmp:brand-logo-color>
         <xmp:rhcc-notify-portal-subscribers-on-change>yes</xmp:rhcc-notify-portal-subscribers-on-change>
         <dc:format>image/svg+xml</dc:format>
         <dc:modified>2024-02-09T20:24:23.258Z</dc:modified>
         <dc:title>
            <rdf:Alt>
               <rdf:li xml:lang="x-default">Insurance icon - Red</rdf:li>
            </rdf:Alt>
         </dc:title>
         <dc:description>
            <rdf:Alt>
               <rdf:li xml:lang="x-default">security, safeguard, service, assurance, warranty, buildings and industries</rdf:li>
            </rdf:Alt>
         </dc:description>
         <cq:lastReplicationAction_scene7>Activate</cq:lastReplicationAction_scene7>
         <cq:lastReplicationAction_publish>Activate</cq:lastReplicationAction_publish>
         <cq:lastReplicated_publish>2024-10-02T19:37:32.210Z</cq:lastReplicated_publish>
         <cq:lastReplicatedBy>workflow-process-service</cq:lastReplicatedBy>
         <cq:lastReplicationAction>Activate</cq:lastReplicationAction>
         <cq:lastReplicatedBy_publish>workflow-process-service</cq:lastReplicatedBy_publish>
         <cq:isDelivered>false</cq:isDelivered>
         <cq:lastReplicated>2024-10-02T19:37:32.210Z</cq:lastReplicated>
         <cq:lastReplicatedBy_scene7>workflow-process-service</cq:lastReplicatedBy_scene7>
         <cq:lastReplicated_scene7>2024-10-02T19:37:32.210Z</cq:lastReplicated_scene7>
         <tiff:ImageLength>36</tiff:ImageLength>
         <tiff:ImageWidth>36</tiff:ImageWidth>
      </rdf:Description>
   </rdf:RDF>
</x:xmpmeta>
                                                                                                    
                                                                                                    
                                                                                                    
                                                                                                    
                                                                                                    
                                                                                                    
                                                                                                    
                                                                                                    
                                                                                                 
<?xpacket end="w"?></metadata>
<defs>
    <style>
      .f7fadb7c-20af-4d1c-855d-17744103f1a4 {
        fill: #e00;
      }
    </style>
  </defs>
  <g>
    <path class="f7fadb7c-20af-4d1c-855d-17744103f1a4" d="M27,7.38H23c-.9,0-.57,1.24-.62,1.8H13.62c0-.54.28-1.79-.62-1.8H9A.61.61,0,0,0,8.38,8V31a.61.61,0,0,0,.62.62H27a.61.61,0,0,0,.62-.62V8A.61.61,0,0,0,27,7.38Zm-.62,23H9.62V8.62h2.76c0,.56-.28,1.79.62,1.81H23c.9,0,.57-1.25.62-1.81h2.76Z"/>
    <path class="f7fadb7c-20af-4d1c-855d-17744103f1a4" d="M12,6.62h3c.31,0,.65-.07.76-.41a2.37,2.37,0,0,1,4.48,0,.68.68,0,0,0,.76.41h3a.62.62,0,0,0,0-1.24H21.23a3.63,3.63,0,0,0-6.46,0H12A.62.62,0,0,0,12,6.62Z"/>
    <path class="f7fadb7c-20af-4d1c-855d-17744103f1a4" d="M22.13,15.51l-4-.85a.57.57,0,0,0-.26,0l-4,.85a.62.62,0,0,0-.49.61v4.61c.19,6.11,9,6.11,9.25,0V16.12A.62.62,0,0,0,22.13,15.51Zm-4.13.4,3.38.72v.16l-6.76,3.52V16.63Zm0,8.19a3.36,3.36,0,0,1-3.23-2.45l6.61-3.45v2.53A3.38,3.38,0,0,1,18,24.1Z"/>
    <path class="f7fadb7c-20af-4d1c-855d-17744103f1a4" d="M17.38,6A.63.63,0,1,0,18,5.37.62.62,0,0,0,17.38,6Z"/>
  </g>
</svg>
