<?xml version="1.0" encoding="UTF-8"?><svg id="uuid-3ad84ebf-698c-406c-9d5a-2e09d2ec2061" xmlns="http://www.w3.org/2000/svg" viewBox="0 0 38 38"><title>Ansible content tools icon</title>
<desc>Management</desc>
<metadata><?xpacket begin="﻿" id="W5M0MpCehiHzreSzNTczkc9d"?>
<x:xmpmeta xmlns:x="adobe:ns:meta/" x:xmptk="Adobe XMP Core 8.0-c001 1.000000, 0000/00/00-00:00:00        ">
   <rdf:RDF xmlns:rdf="http://www.w3.org/1999/02/22-rdf-syntax-ns#">
      <rdf:Description rdf:about=""
            xmlns:xmp="http://ns.adobe.com/xap/1.0/"
            xmlns:dc="http://purl.org/dc/elements/1.1/"
            xmlns:cq="http://www.day.com/jcr/cq/1.0"
            xmlns:tiff="http://ns.adobe.com/tiff/1.0/"
            xmlns:xmpRights="http://ns.adobe.com/xap/1.0/rights/">
         <xmp:rhcc-effective-on>2024-03-01T15:25:47.581Z</xmp:rhcc-effective-on>
         <xmp:rhcc-metadata-complete-moderator>pending</xmp:rhcc-metadata-complete-moderator>
         <xmp:rhcc-translation-id>TRA0d0d0470-5ac4-4cf8-a21a-57ce42c069ee</xmp:rhcc-translation-id>
         <xmp:brand-content-type>Icon</xmp:brand-content-type>
         <xmp:CreateDate>2024-03-01T15:25:47.581Z</xmp:CreateDate>
         <xmp:rhcc-aspect-ratio>square</xmp:rhcc-aspect-ratio>
         <xmp:rhcc-effective-on-set-on-upload>true</xmp:rhcc-effective-on-set-on-upload>
         <xmp:rhcc-metadata-complete-uploader>pending</xmp:rhcc-metadata-complete-uploader>
         <xmp:rhcc-file-last-modified>2024-07-12T23:51:53.210Z</xmp:rhcc-file-last-modified>
         <xmp:rhcc-audience>rhcc-audience:internal</xmp:rhcc-audience>
         <xmp:rhcc-rights-restricted>no</xmp:rhcc-rights-restricted>
         <xmp:brand-content-subtype>Technology icon</xmp:brand-content-subtype>
         <xmp:rhcc-derivative-id>DER0d0d0470-5ac4-4cf8-a21a-57ce42c069ee</xmp:rhcc-derivative-id>
         <xmp:rhcc-uploaded-by>pmeilleu@redhat.com</xmp:rhcc-uploaded-by>
         <xmp:brand-logo-color>Red</xmp:brand-logo-color>
         <xmp:rhcc-notify-portal-subscribers-on-change>yes</xmp:rhcc-notify-portal-subscribers-on-change>
         <xmp:rhcc-product>
            <rdf:Bag>
               <rdf:li>rhcc-product:red-hat-ansible-automation-platform</rdf:li>
            </rdf:Bag>
         </xmp:rhcc-product>
         <xmp:brand-subtype>
            <rdf:Bag>
               <rdf:li>Technology icon</rdf:li>
            </rdf:Bag>
         </xmp:brand-subtype>
         <dc:format>image/svg+xml</dc:format>
         <dc:modified>2024-05-10T12:19:32.015Z</dc:modified>
         <dc:title>
            <rdf:Alt>
               <rdf:li xml:lang="x-default">Ansible content tools icon</rdf:li>
            </rdf:Alt>
         </dc:title>
         <dc:description>
            <rdf:Alt>
               <rdf:li xml:lang="x-default">Management</rdf:li>
            </rdf:Alt>
         </dc:description>
         <cq:lastReplicationAction_scene7>Activate</cq:lastReplicationAction_scene7>
         <cq:lastReplicationAction_publish>Activate</cq:lastReplicationAction_publish>
         <cq:lastReplicated_publish>2024-10-02T19:50:19.371Z</cq:lastReplicated_publish>
         <cq:lastReplicatedBy>workflow-process-service</cq:lastReplicatedBy>
         <cq:lastReplicationAction>Activate</cq:lastReplicationAction>
         <cq:lastReplicatedBy_publish>workflow-process-service</cq:lastReplicatedBy_publish>
         <cq:isDelivered>false</cq:isDelivered>
         <cq:lastReplicated>2024-10-02T19:50:19.371Z</cq:lastReplicated>
         <cq:lastReplicatedBy_scene7>workflow-process-service</cq:lastReplicatedBy_scene7>
         <cq:lastReplicated_scene7>2024-10-02T19:50:19.371Z</cq:lastReplicated_scene7>
         <tiff:ImageLength>38</tiff:ImageLength>
         <tiff:ImageWidth>38</tiff:ImageWidth>
         <xmpRights:UsageTerms>
            <rdf:Alt>
               <rdf:li xml:lang="x-default">Use technology icons to represent Red Hat products and components. Do not remove the icon from the bounding shape.</rdf:li>
            </rdf:Alt>
         </xmpRights:UsageTerms>
      </rdf:Description>
   </rdf:RDF>
</x:xmpmeta>
                                                                                                    
                                                                                                    
                                                                                                    
                                                                                                    
                                                                                                    
                                                                                                    
                                                                                                    
                                                                                                    
                                                                                                    
                                                                                                    
                                                                                                    
                                                                                                    
                                                                                                    
                                                                                                    
                                                                                                    
                                                                                                    
                                                                                                    
                                          
<?xpacket end="w"?></metadata>
<defs><style>.uuid-c20bce92-ae6d-4fc3-8e18-a39961ba9900{fill:#e00;}</style></defs><path class="uuid-c20bce92-ae6d-4fc3-8e18-a39961ba9900" d="m28,1H10C5.02942,1,1,5.02942,1,10v18c0,4.97058,4.02942,9,9,9h18c4.97058,0,9-4.02942,9-9V10c0-4.97058-4.02942-9-9-9Zm7.75,27c0,4.27338-3.47668,7.75-7.75,7.75H10c-4.27332,0-7.75-3.47662-7.75-7.75V10c0-4.27338,3.47668-7.75,7.75-7.75h18c4.27332,0,7.75,3.47662,7.75,7.75v18Z"/><path class="uuid-c20bce92-ae6d-4fc3-8e18-a39961ba9900" d="m26.44238,12.55811c-.11719-.11719-.27637-.18311-.44238-.18311h-3.375v-2.375c0-.34521-.28027-.625-.625-.625h-6c-.34473,0-.625.27979-.625.625v2.375h-3.375c-.16602,0-.3252.06592-.44238.18311l-2,2c-.11719.11719-.18262.27637-.18262.44189v12c0,.34521.28027.625.625.625h18c.34473,0,.625-.27979.625-.625v-12c0-.16553-.06543-.32471-.18262-.44189l-2-2Zm-9.81738-1.93311h4.75v1.75h-4.75v-1.75Zm-6,15.75v-5.75h2.375c.34473,0,.625-.27979.625-.625s-.28027-.625-.625-.625h-2.375v-4.11621l1.63379-1.63379h13.48242l1.63379,1.63379v4.11621h-2.375c-.34473,0-.625.27979-.625.625s.28027.625.625.625h2.375v5.75H10.625Z"/><path class="uuid-c20bce92-ae6d-4fc3-8e18-a39961ba9900" d="m23,19.375h-.77124c-.08569-.44348-.25769-.85632-.50244-1.21741l.54419-.54431c.24316-.24414.24316-.63965,0-.88379-.24414-.24414-.64062-.24414-.88477,0l-.54382.54401c-.36096-.24451-.77368-.41614-1.21692-.50177v-.77173c0-.34521-.28027-.625-.625-.625s-.625.27979-.625.625v.77173c-.44324.08563-.85596.25726-1.21692.50177l-.54382-.54401c-.24414-.24414-.64062-.24414-.88477,0-.24316.24414-.24316.63965,0,.88379l.54419.54431c-.24475.36108-.41675.77393-.50244,1.21741h-.77124c-.34473,0-.625.27979-.625.625s.28027.625.625.625h.77124c.08569.44348.25769.85632.50244,1.21741l-.54419.54431c-.24316.24414-.24316.63965,0,.88379.12207.12207.28223.18311.44238.18311s.32031-.06104.44238-.18311l.54382-.54401c.36096.24451.77368.41614,1.21692.50177v.77173c0,.34521.28027.625.625.625s.625-.27979.625-.625v-.77173c.44324-.08563.85596-.25726,1.21692-.50177l.54382.54401c.12207.12207.28223.18311.44238.18311s.32031-.06104.44238-.18311c.24316-.24414.24316-.63965,0-.88379l-.54419-.54431c.24475-.36108.41675-.77393.50244-1.21741h.77124c.34473,0,.625-.27979.625-.625s-.28027-.625-.625-.625Zm-4,2.6665c-1.12598,0-2.04199-.91602-2.04199-2.0415s.91602-2.0415,2.04199-2.0415,2.04199.91602,2.04199,2.0415-.91602,2.0415-2.04199,2.0415Z"/></svg>