<svg id="fe865320-f821-4572-b058-9598c5b4e8d4" data-name="Icon" xmlns="http://www.w3.org/2000/svg" viewBox="0 0 36 36">
  <title>Bank safe icon - White</title>
<desc>money, profit, finances, financial, fintech, dollars, yens, euros, pounds, security, objects</desc>
<metadata><?xpacket begin="﻿" id="W5M0MpCehiHzreSzNTczkc9d"?>
<x:xmpmeta xmlns:x="adobe:ns:meta/" x:xmptk="Adobe XMP Core 8.0-c001 1.000000, 0000/00/00-00:00:00        ">
   <rdf:RDF xmlns:rdf="http://www.w3.org/1999/02/22-rdf-syntax-ns#">
      <rdf:Description rdf:about=""
            xmlns:xmp="http://ns.adobe.com/xap/1.0/"
            xmlns:dc="http://purl.org/dc/elements/1.1/"
            xmlns:cq="http://www.day.com/jcr/cq/1.0"
            xmlns:tiff="http://ns.adobe.com/tiff/1.0/">
         <xmp:rhcc-effective-on>2023-12-08T17:35:22.987Z</xmp:rhcc-effective-on>
         <xmp:rhcc-metadata-complete-moderator>pending</xmp:rhcc-metadata-complete-moderator>
         <xmp:rhcc-translation-id>TRA3703bee6-842a-4097-9e34-cbadea0f7863</xmp:rhcc-translation-id>
         <xmp:brand-content-type>Icon</xmp:brand-content-type>
         <xmp:CreateDate>2023-12-08T17:35:22.987Z</xmp:CreateDate>
         <xmp:rhcc-aspect-ratio>square</xmp:rhcc-aspect-ratio>
         <xmp:rhcc-effective-on-set-on-upload>true</xmp:rhcc-effective-on-set-on-upload>
         <xmp:rhcc-published-asset-email-sent>true</xmp:rhcc-published-asset-email-sent>
         <xmp:rhcc-metadata-complete-uploader>pending</xmp:rhcc-metadata-complete-uploader>
         <xmp:rhcc-file-last-modified>2024-07-12T21:59:25.343Z</xmp:rhcc-file-last-modified>
         <xmp:rhcc-audience>rhcc-audience:internal</xmp:rhcc-audience>
         <xmp:brand-content-subtype>Icon</xmp:brand-content-subtype>
         <xmp:rhcc-rights-restricted>no</xmp:rhcc-rights-restricted>
         <xmp:rhcc-derivative-id>DER3703bee6-842a-4097-9e34-cbadea0f7863</xmp:rhcc-derivative-id>
         <xmp:rhcc-uploaded-by>pmeilleu@redhat.com</xmp:rhcc-uploaded-by>
         <xmp:brand-logo-color>White</xmp:brand-logo-color>
         <xmp:rhcc-notify-portal-subscribers-on-change>yes</xmp:rhcc-notify-portal-subscribers-on-change>
         <dc:format>image/svg+xml</dc:format>
         <dc:modified>2024-02-09T20:29:22.385Z</dc:modified>
         <dc:title>
            <rdf:Alt>
               <rdf:li xml:lang="x-default">Bank safe icon - White</rdf:li>
            </rdf:Alt>
         </dc:title>
         <dc:description>
            <rdf:Alt>
               <rdf:li xml:lang="x-default">money, profit, finances, financial, fintech, dollars, yens, euros, pounds, security, objects</rdf:li>
            </rdf:Alt>
         </dc:description>
         <cq:lastReplicationAction_scene7>Activate</cq:lastReplicationAction_scene7>
         <cq:lastReplicationAction_publish>Activate</cq:lastReplicationAction_publish>
         <cq:lastReplicated_publish>2024-10-02T19:28:17.506Z</cq:lastReplicated_publish>
         <cq:lastReplicatedBy>workflow-process-service</cq:lastReplicatedBy>
         <cq:lastReplicationAction>Activate</cq:lastReplicationAction>
         <cq:lastReplicatedBy_publish>workflow-process-service</cq:lastReplicatedBy_publish>
         <cq:isDelivered>false</cq:isDelivered>
         <cq:lastReplicated>2024-10-02T19:28:17.506Z</cq:lastReplicated>
         <cq:lastReplicatedBy_scene7>workflow-process-service</cq:lastReplicatedBy_scene7>
         <cq:lastReplicated_scene7>2024-10-02T19:28:17.506Z</cq:lastReplicated_scene7>
         <tiff:ImageLength>36</tiff:ImageLength>
         <tiff:ImageWidth>36</tiff:ImageWidth>
      </rdf:Description>
   </rdf:RDF>
</x:xmpmeta>
                                                                                                    
                                                                                                    
                                                                                                    
                                                                                                    
                                                                                                    
                                                                                                    
                                                                                                    
                                                                                                    
        
<?xpacket end="w"?></metadata>
<defs>
    <style>
      .a0a9c40d-9f11-4e32-a351-6893e47ca9b0 {
        fill: #fff;
      }
    </style>
  </defs>
  <g>
    <path class="a0a9c40d-9f11-4e32-a351-6893e47ca9b0" d="M31,4.38H5A.62.62,0,0,0,4.38,5V31a.62.62,0,0,0,.62.62H31a.62.62,0,0,0,.62-.62V5A.62.62,0,0,0,31,4.38Zm-.62,26H5.62V5.62H30.38Z"/>
    <path class="a0a9c40d-9f11-4e32-a351-6893e47ca9b0" d="M9,10.62A.62.62,0,0,0,9.62,10V9.62H26.38V26.38H9.62V26a.62.62,0,0,0-1.24,0v1a.62.62,0,0,0,.62.62H27a.62.62,0,0,0,.62-.62V9A.62.62,0,0,0,27,8.38H9A.62.62,0,0,0,8.38,9v1A.62.62,0,0,0,9,10.62Z"/>
    <path class="a0a9c40d-9f11-4e32-a351-6893e47ca9b0" d="M8,16.62h2a.62.62,0,0,0,.62-.62V12a.62.62,0,0,0-.62-.62H8a.62.62,0,0,0-.62.62v4A.62.62,0,0,0,8,16.62Zm.62-4h.76v2.76H8.62Z"/>
    <path class="a0a9c40d-9f11-4e32-a351-6893e47ca9b0" d="M8,24.62h2a.62.62,0,0,0,.62-.62V20a.62.62,0,0,0-.62-.62H8a.62.62,0,0,0-.62.62v4A.62.62,0,0,0,8,24.62Zm.62-4h.76v2.76H8.62Z"/>
    <path class="a0a9c40d-9f11-4e32-a351-6893e47ca9b0" d="M15.56,22.44a.61.61,0,0,0,.88,0L17.92,21a3.64,3.64,0,0,0,4.16,0l1.48,1.48a.62.62,0,0,0,.88-.88L23,20.08a3.64,3.64,0,0,0,0-4.16l1.48-1.48c.58-.56-.32-1.46-.88-.88L22.08,15a3.64,3.64,0,0,0-4.16,0l-1.48-1.48c-.56-.58-1.46.32-.88.88L17,15.92a3.64,3.64,0,0,0,0,4.16l-1.48,1.48A.61.61,0,0,0,15.56,22.44ZM22.38,18a2.38,2.38,0,0,1-4.75,0A2.38,2.38,0,0,1,22.38,18Z"/>
    <circle class="a0a9c40d-9f11-4e32-a351-6893e47ca9b0" cx="20" cy="18" r="0.62"/>
  </g>
</svg>
