<svg id="bd0c0606-962f-4c5f-8161-46d346abf2ff" data-name="Icon" xmlns="http://www.w3.org/2000/svg" viewBox="0 0 36 36">
  <title>Bicycle icon - White</title>
<desc>ride, trip, helmet, bike, sustainable, pedal, exercise, commute, vehicle, drive, transportation</desc>
<metadata><?xpacket begin="﻿" id="W5M0MpCehiHzreSzNTczkc9d"?>
<x:xmpmeta xmlns:x="adobe:ns:meta/" x:xmptk="Adobe XMP Core 8.0-c001 1.000000, 0000/00/00-00:00:00        ">
   <rdf:RDF xmlns:rdf="http://www.w3.org/1999/02/22-rdf-syntax-ns#">
      <rdf:Description rdf:about=""
            xmlns:xmp="http://ns.adobe.com/xap/1.0/"
            xmlns:dc="http://purl.org/dc/elements/1.1/"
            xmlns:cq="http://www.day.com/jcr/cq/1.0"
            xmlns:tiff="http://ns.adobe.com/tiff/1.0/">
         <xmp:rhcc-effective-on>2023-12-08T17:45:56.527Z</xmp:rhcc-effective-on>
         <xmp:rhcc-metadata-complete-moderator>pending</xmp:rhcc-metadata-complete-moderator>
         <xmp:rhcc-translation-id>TRA242db3ad-7d59-4287-b622-72382926533d</xmp:rhcc-translation-id>
         <xmp:brand-content-type>Icon</xmp:brand-content-type>
         <xmp:CreateDate>2023-12-08T17:45:56.527Z</xmp:CreateDate>
         <xmp:rhcc-aspect-ratio>square</xmp:rhcc-aspect-ratio>
         <xmp:rhcc-effective-on-set-on-upload>true</xmp:rhcc-effective-on-set-on-upload>
         <xmp:rhcc-metadata-complete-uploader>pending</xmp:rhcc-metadata-complete-uploader>
         <xmp:rhcc-file-last-modified>2024-07-12T21:10:40.395Z</xmp:rhcc-file-last-modified>
         <xmp:rhcc-audience>rhcc-audience:internal</xmp:rhcc-audience>
         <xmp:brand-content-subtype>Icon</xmp:brand-content-subtype>
         <xmp:rhcc-rights-restricted>no</xmp:rhcc-rights-restricted>
         <xmp:rhcc-derivative-id>DER242db3ad-7d59-4287-b622-72382926533d</xmp:rhcc-derivative-id>
         <xmp:rhcc-uploaded-by>pmeilleu@redhat.com</xmp:rhcc-uploaded-by>
         <xmp:brand-logo-color>White</xmp:brand-logo-color>
         <xmp:rhcc-notify-portal-subscribers-on-change>yes</xmp:rhcc-notify-portal-subscribers-on-change>
         <dc:format>image/svg+xml</dc:format>
         <dc:modified>2024-02-09T20:24:53.442Z</dc:modified>
         <dc:title>
            <rdf:Alt>
               <rdf:li xml:lang="x-default">Bicycle icon - White</rdf:li>
            </rdf:Alt>
         </dc:title>
         <dc:description>
            <rdf:Alt>
               <rdf:li xml:lang="x-default">ride, trip, helmet, bike, sustainable, pedal, exercise, commute, vehicle, drive, transportation</rdf:li>
            </rdf:Alt>
         </dc:description>
         <cq:lastReplicationAction_scene7>Activate</cq:lastReplicationAction_scene7>
         <cq:lastReplicationAction_publish>Activate</cq:lastReplicationAction_publish>
         <cq:lastReplicated_publish>2024-10-02T19:46:17.676Z</cq:lastReplicated_publish>
         <cq:lastReplicatedBy>workflow-process-service</cq:lastReplicatedBy>
         <cq:lastReplicationAction>Activate</cq:lastReplicationAction>
         <cq:lastReplicatedBy_publish>workflow-process-service</cq:lastReplicatedBy_publish>
         <cq:isDelivered>false</cq:isDelivered>
         <cq:lastReplicated>2024-10-02T19:46:17.676Z</cq:lastReplicated>
         <cq:lastReplicatedBy_scene7>workflow-process-service</cq:lastReplicatedBy_scene7>
         <cq:lastReplicated_scene7>2024-10-02T19:46:17.676Z</cq:lastReplicated_scene7>
         <tiff:ImageLength>36</tiff:ImageLength>
         <tiff:ImageWidth>36</tiff:ImageWidth>
      </rdf:Description>
   </rdf:RDF>
</x:xmpmeta>
                                                                                                    
                                                                                                    
                                                                                                    
                                                                                                    
                                                                                                    
                                                                                                    
                                                                                                    
                                                                                                    
                                                                                                 
<?xpacket end="w"?></metadata>
<defs>
    <style>
      .a37b37a8-f439-419c-a067-a306e927d473 {
        fill: #fff;
      }
    </style>
  </defs>
  <g>
    <path class="a37b37a8-f439-419c-a067-a306e927d473" d="M10,26.61a5.63,5.63,0,0,0,5.59-5H18a.63.63,0,0,0,.52-.29s3.69-6.46,3.71-6.48l.71,1.43a5.62,5.62,0,1,0,1.12-.56l-3.5-7c0-.06-.09-.13-.14-.18A.78.78,0,0,0,20,8.36H17a.63.63,0,0,0,0,1.25h2.61l1.88,3.75h-7l-.42-.75c.53,0,1.55.2,1.56-.63a.62.62,0,0,0-.62-.62H11a.63.63,0,0,0,0,1.25h1.63l.71,1.27-1.11,1.94A5.62,5.62,0,1,0,10,26.61Zm16-10a4.38,4.38,0,1,1-2.49.79l1.93,3.86a.62.62,0,0,0,1.12-.55l-1.93-3.86A4.43,4.43,0,0,1,26,16.61ZM14.31,20.36H11.08l1.6-2.81A4.32,4.32,0,0,1,14.31,20.36Zm6.61-5.75L18,19.71l-2.84-5.1Zm-6.87.55,2.89,5.2H15.59a5.64,5.64,0,0,0-2.28-3.91ZM10,16.61a4.47,4.47,0,0,1,1.6.31L9.46,20.67a.64.64,0,0,0,0,.63.63.63,0,0,0,.54.31h4.31c-.84,5.3-8.58,4.77-8.68-.63A4.37,4.37,0,0,1,10,16.61Z"/>
    <path class="a37b37a8-f439-419c-a067-a306e927d473" d="M30,28.36H6a.63.63,0,0,0,0,1.25H30A.63.63,0,0,0,30,28.36Z"/>
  </g>
</svg>
