<?xml version="1.0" encoding="UTF-8"?><svg id="uuid-f32cdca6-4f88-4e42-b2d8-f285dc21e40e" xmlns="http://www.w3.org/2000/svg" viewBox="0 0 38 38"><title>Component placeholder icon</title>
<desc>Use this icon as a placeholder before a custom icon is designed and approved for use.</desc>
<metadata><?xpacket begin="﻿" id="W5M0MpCehiHzreSzNTczkc9d"?>
<x:xmpmeta xmlns:x="adobe:ns:meta/" x:xmptk="Adobe XMP Core 8.0-c001 1.000000, 0000/00/00-00:00:00        ">
   <rdf:RDF xmlns:rdf="http://www.w3.org/1999/02/22-rdf-syntax-ns#">
      <rdf:Description rdf:about=""
            xmlns:xmp="http://ns.adobe.com/xap/1.0/"
            xmlns:dc="http://purl.org/dc/elements/1.1/"
            xmlns:cq="http://www.day.com/jcr/cq/1.0"
            xmlns:tiff="http://ns.adobe.com/tiff/1.0/"
            xmlns:xmpRights="http://ns.adobe.com/xap/1.0/rights/">
         <xmp:rhcc-effective-on>2024-03-01T15:25:34.344Z</xmp:rhcc-effective-on>
         <xmp:rhcc-metadata-complete-moderator>pending</xmp:rhcc-metadata-complete-moderator>
         <xmp:rhcc-translation-id>TRA14a5e4bf-ddd4-4d14-84d9-a9bf6199583e</xmp:rhcc-translation-id>
         <xmp:brand-content-type>Icon</xmp:brand-content-type>
         <xmp:CreateDate>2024-03-01T15:25:34.344Z</xmp:CreateDate>
         <xmp:rhcc-aspect-ratio>square</xmp:rhcc-aspect-ratio>
         <xmp:rhcc-effective-on-set-on-upload>true</xmp:rhcc-effective-on-set-on-upload>
         <xmp:rhcc-published-asset-email-sent>true</xmp:rhcc-published-asset-email-sent>
         <xmp:rhcc-metadata-complete-uploader>pending</xmp:rhcc-metadata-complete-uploader>
         <xmp:rhcc-file-last-modified>2024-07-13T00:09:41.094Z</xmp:rhcc-file-last-modified>
         <xmp:rhcc-audience>rhcc-audience:internal</xmp:rhcc-audience>
         <xmp:rhcc-rights-restricted>no</xmp:rhcc-rights-restricted>
         <xmp:brand-content-subtype>Technology icon</xmp:brand-content-subtype>
         <xmp:rhcc-derivative-id>DER14a5e4bf-ddd4-4d14-84d9-a9bf6199583e</xmp:rhcc-derivative-id>
         <xmp:rhcc-uploaded-by>pmeilleu@redhat.com</xmp:rhcc-uploaded-by>
         <xmp:brand-logo-color>Black</xmp:brand-logo-color>
         <xmp:rhcc-notify-portal-subscribers-on-change>yes</xmp:rhcc-notify-portal-subscribers-on-change>
         <xmp:brand-subtype>
            <rdf:Bag>
               <rdf:li>Technology icon</rdf:li>
            </rdf:Bag>
         </xmp:brand-subtype>
         <dc:format>image/svg+xml</dc:format>
         <dc:modified>2024-05-10T00:39:12.236Z</dc:modified>
         <dc:title>
            <rdf:Alt>
               <rdf:li xml:lang="x-default">Component placeholder icon</rdf:li>
            </rdf:Alt>
         </dc:title>
         <dc:description>
            <rdf:Alt>
               <rdf:li xml:lang="x-default">Use this icon as a placeholder before a custom icon is designed and approved for use.</rdf:li>
            </rdf:Alt>
         </dc:description>
         <cq:lastReplicationAction_scene7>Activate</cq:lastReplicationAction_scene7>
         <cq:lastReplicationAction_publish>Activate</cq:lastReplicationAction_publish>
         <cq:lastReplicated_publish>2024-10-02T19:49:36.304Z</cq:lastReplicated_publish>
         <cq:lastReplicatedBy>workflow-process-service</cq:lastReplicatedBy>
         <cq:lastReplicationAction>Activate</cq:lastReplicationAction>
         <cq:lastReplicatedBy_publish>workflow-process-service</cq:lastReplicatedBy_publish>
         <cq:isDelivered>false</cq:isDelivered>
         <cq:lastReplicated>2024-10-02T19:49:36.304Z</cq:lastReplicated>
         <cq:lastReplicatedBy_scene7>workflow-process-service</cq:lastReplicatedBy_scene7>
         <cq:lastReplicated_scene7>2024-10-02T19:49:36.304Z</cq:lastReplicated_scene7>
         <tiff:ImageLength>38</tiff:ImageLength>
         <tiff:ImageWidth>38</tiff:ImageWidth>
         <xmpRights:UsageTerms>
            <rdf:Alt>
               <rdf:li xml:lang="x-default">Use this placeholder icon temporarily if a Red Hat offering doesn't have a technology icon yet. Request a new technology icon for an offering via your Marketing Account Manager.</rdf:li>
            </rdf:Alt>
         </xmpRights:UsageTerms>
      </rdf:Description>
   </rdf:RDF>
</x:xmpmeta>
                                                                                                    
                                                                                                    
                                                                                                    
                                                                                                    
                                                                                                    
                                                                                                    
                                                                                                    
                                                                                                    
                                                                                                    
                                                                                                    
                                                                                                    
                                                                                                    
                                                                                                    
                                                                                                    
                                                                                                    
                                                                                                    
                                                      
<?xpacket end="w"?></metadata>
<path d="m28,1H10C5.02942,1,1,5.02942,1,10v18c0,4.97058,4.02942,9,9,9h18c4.97058,0,9-4.02942,9-9V10c0-4.97058-4.02942-9-9-9Zm7.75,27c0,4.27338-3.47668,7.75-7.75,7.75H10c-4.27332,0-7.75-3.47662-7.75-7.75V10c0-4.27338,3.47668-7.75,7.75-7.75h18c4.27332,0,7.75,3.47662,7.75,7.75v18Z"/><path d="m27.22656,9.43262c-1.33887,0-2.42773,1.08887-2.42773,2.42725,0,1.33887,1.08887,2.42773,2.42773,2.42773,1.33789,0,2.42676-1.08887,2.42676-2.42773,0-1.33838-1.08887-2.42725-2.42676-2.42725Zm0,3.60498c-.64941,0-1.17773-.52832-1.17773-1.17773,0-.64893.52832-1.17725,1.17773-1.17725.64844,0,1.17676.52832,1.17676,1.17725,0,.64941-.52832,1.17773-1.17676,1.17773Z"/><path d="m23.80859,20.50195c-2.53125,0-4.58984,2.05908-4.58984,4.59033s2.05859,4.59033,4.58984,4.59033,4.59082-2.05908,4.59082-4.59033-2.05957-4.59033-4.59082-4.59033Zm0,7.93066c-1.8418,0-3.33984-1.49854-3.33984-3.34033s1.49805-3.34033,3.33984-3.34033,3.34082,1.49854,3.34082,3.34033-1.49902,3.34033-3.34082,3.34033Z"/><path d="m17.5918,24.75732c-.22461.03223-.45215.05322-.68262.06348-.3457.01562-.6123.30762-.59668.65234.01465.33545.29102.59717.62402.59717.00879,0,.01855,0,.02734-.00049.27344-.01221.54199-.03711.80566-.0752.3418-.04932.5791-.36621.5293-.70752-.04883-.34277-.37402-.57764-.70703-.52979Z"/><path d="m9.04102,18.10791c.33008,0,.60645-.25928.62305-.59326.02441-.48389.10059-.96338.22363-1.42578.08984-.3335-.1084-.67627-.44238-.76562s-.67676.10986-.76465.44238c-.14648.54688-.23535,1.11426-.26465,1.68555-.01758.34473.24707.63818.5918.65576.01074.00049.02246.00098.0332.00098Z"/><path d="m10.10645,20.35596c-.12305-.32227-.48242-.48291-.80762-.36084-.32227.12354-.4834.48486-.36035.80713.20312.53125.46289,1.04248.77051,1.52051.12012.18506.32031.28613.52637.28613.11523,0,.2334-.03223.33789-.09961.29004-.1875.37305-.57422.18652-.86426-.26172-.40527-.48145-.83887-.65332-1.28906Z"/><path d="m23.05371,15.31104c.09766.24365.33203.39209.58008.39209.07812,0,.15625-.01416.23242-.04492.32031-.12842.47656-.49219.34766-.81299-.21191-.52881-.47949-1.03564-.79297-1.50732-.19141-.28711-.58008-.36426-.86719-.17334-.28711.19141-.36523.57959-.17383.8667.26758.3999.49414.83057.67383,1.27979Z"/><path d="m14.06836,24.35205c-.44922-.17578-.88086-.39941-1.2832-.66455-.28809-.19141-.67578-.10987-.86523.17822-.19043.28809-.11035.67578.17773.86572.47461.31299.98438.57666,1.51367.78467.0752.0293.15234.04297.22852.04297.24902,0,.48535-.15039.58203-.39697.12598-.32129-.03223-.68408-.35352-.81006Z"/><path d="m16.77539,10.28906c-.02051-.34521-.33984-.604-.66016-.5874-.57129.0332-1.13672.12598-1.68262.27539-.33301.09131-.5293.43506-.4375.76807.07617.27783.32715.45996.60254.45996.05469,0,.11035-.00684.16504-.02197.46191-.12695.94141-.20508,1.4248-.2334.34473-.02002.6084-.31592.58789-.66064Z"/><path d="m12.29785,11.62061c-.21973-.26855-.61426-.30566-.87988-.08838-.44043.35986-.84473.76709-1.20117,1.20947-.2168.26855-.1748.66211.09375.87891.11621.09277.25488.13818.39258.13818.18262,0,.36328-.07959.48633-.23291.30273-.375.64551-.72021,1.01953-1.02588.26758-.21826.30664-.61182.08887-.87939Z"/><path d="m20.65918,12.11768c.20703,0,.40918-.10254.52832-.28955.18555-.2915.09961-.67773-.19238-.86279-.48145-.30664-.99512-.5625-1.52637-.76074-.32617-.12158-.68457.04395-.80469.3667-.12012.32373.04395.68359.36719.8042.4502.16797.88477.38477,1.29395.64453.10352.06592.21973.09766.33398.09766Z"/><path d="m23.53809,18.19092c-.01074.23145-.03125.45947-.06348.68408-.0498.34131.1875.6582.5293.70752.03027.00439.05957.00635.08984.00635.30566,0,.57324-.22461.61719-.53613.03809-.26367.0625-.53174.0752-.80322.0166-.34521-.25-.6377-.59473-.65381-.29883-.01367-.6377.25-.65332.59521Z"/></svg>