<?xml version="1.0" encoding="UTF-8"?><svg id="uuid-19efe339-c42a-4ba2-a04e-03355e8c797c" xmlns="http://www.w3.org/2000/svg" viewBox="0 0 38 38"><title>Red Hat OpenShift Serverless icon</title>
<desc>OSS, Cloud</desc>
<metadata><?xpacket begin="﻿" id="W5M0MpCehiHzreSzNTczkc9d"?>
<x:xmpmeta xmlns:x="adobe:ns:meta/" x:xmptk="Adobe XMP Core 8.0-c001 1.000000, 0000/00/00-00:00:00        ">
   <rdf:RDF xmlns:rdf="http://www.w3.org/1999/02/22-rdf-syntax-ns#">
      <rdf:Description rdf:about=""
            xmlns:xmp="http://ns.adobe.com/xap/1.0/"
            xmlns:dc="http://purl.org/dc/elements/1.1/"
            xmlns:cq="http://www.day.com/jcr/cq/1.0"
            xmlns:tiff="http://ns.adobe.com/tiff/1.0/"
            xmlns:xmpRights="http://ns.adobe.com/xap/1.0/rights/">
         <xmp:rhcc-effective-on>2024-03-01T15:27:14.427Z</xmp:rhcc-effective-on>
         <xmp:rhcc-metadata-complete-moderator>pending</xmp:rhcc-metadata-complete-moderator>
         <xmp:rhcc-translation-id>TRA0b9e4c29-e253-4b66-900c-c7674915ffbe</xmp:rhcc-translation-id>
         <xmp:brand-content-type>Icon</xmp:brand-content-type>
         <xmp:CreateDate>2024-03-01T15:27:14.427Z</xmp:CreateDate>
         <xmp:rhcc-aspect-ratio>square</xmp:rhcc-aspect-ratio>
         <xmp:rhcc-effective-on-set-on-upload>true</xmp:rhcc-effective-on-set-on-upload>
         <xmp:rhcc-published-asset-email-sent>true</xmp:rhcc-published-asset-email-sent>
         <xmp:rhcc-metadata-complete-uploader>pending</xmp:rhcc-metadata-complete-uploader>
         <xmp:rhcc-file-last-modified>2024-07-13T00:01:05.680Z</xmp:rhcc-file-last-modified>
         <xmp:rhcc-audience>rhcc-audience:internal</xmp:rhcc-audience>
         <xmp:rhcc-rights-restricted>no</xmp:rhcc-rights-restricted>
         <xmp:brand-content-subtype>Technology icon</xmp:brand-content-subtype>
         <xmp:rhcc-derivative-id>DER0b9e4c29-e253-4b66-900c-c7674915ffbe</xmp:rhcc-derivative-id>
         <xmp:rhcc-uploaded-by>pmeilleu@redhat.com</xmp:rhcc-uploaded-by>
         <xmp:brand-logo-color>White</xmp:brand-logo-color>
         <xmp:rhcc-notify-portal-subscribers-on-change>yes</xmp:rhcc-notify-portal-subscribers-on-change>
         <xmp:rhcc-product>
            <rdf:Bag>
               <rdf:li>rhcc-product:red-hat-openshift-container-platform</rdf:li>
            </rdf:Bag>
         </xmp:rhcc-product>
         <xmp:brand-subtype>
            <rdf:Bag>
               <rdf:li>Technology icon</rdf:li>
            </rdf:Bag>
         </xmp:brand-subtype>
         <dc:format>image/svg+xml</dc:format>
         <dc:modified>2024-05-10T00:27:16.001Z</dc:modified>
         <dc:title>
            <rdf:Alt>
               <rdf:li xml:lang="x-default">Red Hat OpenShift Serverless icon</rdf:li>
            </rdf:Alt>
         </dc:title>
         <dc:description>
            <rdf:Alt>
               <rdf:li xml:lang="x-default">OSS, Cloud</rdf:li>
            </rdf:Alt>
         </dc:description>
         <cq:lastReplicationAction_scene7>Activate</cq:lastReplicationAction_scene7>
         <cq:lastReplicationAction_publish>Activate</cq:lastReplicationAction_publish>
         <cq:lastReplicated_publish>2024-10-02T19:53:22.147Z</cq:lastReplicated_publish>
         <cq:lastReplicatedBy>workflow-process-service</cq:lastReplicatedBy>
         <cq:lastReplicationAction>Activate</cq:lastReplicationAction>
         <cq:lastReplicatedBy_publish>workflow-process-service</cq:lastReplicatedBy_publish>
         <cq:isDelivered>false</cq:isDelivered>
         <cq:lastReplicated>2024-10-02T19:53:22.147Z</cq:lastReplicated>
         <cq:lastReplicatedBy_scene7>workflow-process-service</cq:lastReplicatedBy_scene7>
         <cq:lastReplicated_scene7>2024-10-02T19:53:22.147Z</cq:lastReplicated_scene7>
         <tiff:ImageLength>38</tiff:ImageLength>
         <tiff:ImageWidth>38</tiff:ImageWidth>
         <xmpRights:UsageTerms>
            <rdf:Alt>
               <rdf:li xml:lang="x-default">Use technology icons to represent Red Hat products and components. Do not remove the icon from the bounding shape.</rdf:li>
            </rdf:Alt>
         </xmpRights:UsageTerms>
      </rdf:Description>
   </rdf:RDF>
</x:xmpmeta>
                                                                                                    
                                                                                                    
                                                                                                    
                                                                                                    
                                                                                                    
                                                                                                    
                                                                                                    
                                                                                                    
                                                                                                    
                                                                                                    
                                                                                                    
                                                                                                    
                                                                                                    
                                                                                                    
                                                                                                    
                                                                                                    
                                                      
<?xpacket end="w"?></metadata>
<defs><style>.uuid-ed1eeaa2-4c61-4047-8f7c-19c1a584db27{fill:#fff;}</style></defs><path class="uuid-ed1eeaa2-4c61-4047-8f7c-19c1a584db27" d="m28,1H10C5.02942,1,1,5.02942,1,10v18c0,4.97058,4.02942,9,9,9h18c4.97058,0,9-4.02942,9-9V10c0-4.97058-4.02942-9-9-9Zm7.75,27c0,4.27332-3.47668,7.75-7.75,7.75H10c-4.27332,0-7.75-3.47668-7.75-7.75V10c0-4.27332,3.47668-7.75,7.75-7.75h18c4.27332,0,7.75,3.47668,7.75,7.75v18Z"/><path class="uuid-ed1eeaa2-4c61-4047-8f7c-19c1a584db27" d="m10,23.625h4c.34473,0,.625-.28027.625-.625v-4c0-.34473-.28027-.625-.625-.625h-4c-.34473,0-.625.28027-.625.625v4c0,.34473.28027.625.625.625Zm.625-4h2.75v2.75h-2.75v-2.75Z"/><path class="uuid-ed1eeaa2-4c61-4047-8f7c-19c1a584db27" d="m17,18.375c-.34473,0-.625.28027-.625.625v4c0,.34473.28027.625.625.625h4c.34473,0,.625-.28027.625-.625v-4c0-.34473-.28027-.625-.625-.625h-4Zm3.375,4h-2.75v-2.75h2.75v2.75Z"/><path class="uuid-ed1eeaa2-4c61-4047-8f7c-19c1a584db27" d="m13.5,16.625h4c.34473,0,.625-.28027.625-.625v-4c0-.34473-.28027-.625-.625-.625h-4c-.34473,0-.625.28027-.625.625v4c0,.34473.28027.625.625.625Zm.625-4h2.75v2.75h-2.75v-2.75Z"/><path class="uuid-ed1eeaa2-4c61-4047-8f7c-19c1a584db27" d="m20.5,16.625h4c.34473,0,.625-.28027.625-.625v-4c0-.34473-.28027-.625-.625-.625h-4c-.34473,0-.625.28027-.625.625v4c0,.34473.28027.625.625.625Zm.625-4h2.75v2.75h-2.75v-2.75Z"/><path class="uuid-ed1eeaa2-4c61-4047-8f7c-19c1a584db27" d="m23.375,19v4c0,.34473.28027.625.625.625h4c.34473,0,.625-.28027.625-.625v-4c0-.34473-.28027-.625-.625-.625h-4c-.34473,0-.625.28027-.625.625Zm1.25.625h2.75v2.75h-2.75v-2.75Z"/><path class="uuid-ed1eeaa2-4c61-4047-8f7c-19c1a584db27" d="m29,25.375H9c-.34473,0-.625.28027-.625.625s.28027.625.625.625h20c.34473,0,.625-.28027.625-.625s-.28027-.625-.625-.625Z"/></svg>