<svg id="f792f2b7-80c6-472d-8094-cc9e40caaace" data-name="Icon" xmlns="http://www.w3.org/2000/svg" viewBox="0 0 36 36">
  <title>Pricetag icon - Red</title>
<desc>purchase, sale, sell, price, money, store, shopping, ecommerce, business, objects</desc>
<metadata><?xpacket begin="﻿" id="W5M0MpCehiHzreSzNTczkc9d"?>
<x:xmpmeta xmlns:x="adobe:ns:meta/" x:xmptk="Adobe XMP Core 8.0-c001 1.000000, 0000/00/00-00:00:00        ">
   <rdf:RDF xmlns:rdf="http://www.w3.org/1999/02/22-rdf-syntax-ns#">
      <rdf:Description rdf:about=""
            xmlns:xmp="http://ns.adobe.com/xap/1.0/"
            xmlns:dc="http://purl.org/dc/elements/1.1/"
            xmlns:cq="http://www.day.com/jcr/cq/1.0"
            xmlns:tiff="http://ns.adobe.com/tiff/1.0/">
         <xmp:rhcc-effective-on>2023-12-08T17:36:18.354Z</xmp:rhcc-effective-on>
         <xmp:rhcc-metadata-complete-moderator>pending</xmp:rhcc-metadata-complete-moderator>
         <xmp:rhcc-translation-id>TRA5375308b-73a8-49dc-9c25-266734e2f701</xmp:rhcc-translation-id>
         <xmp:brand-content-type>Icon</xmp:brand-content-type>
         <xmp:CreateDate>2023-12-08T17:36:18.354Z</xmp:CreateDate>
         <xmp:rhcc-aspect-ratio>square</xmp:rhcc-aspect-ratio>
         <xmp:rhcc-effective-on-set-on-upload>true</xmp:rhcc-effective-on-set-on-upload>
         <xmp:rhcc-published-asset-email-sent>true</xmp:rhcc-published-asset-email-sent>
         <xmp:rhcc-metadata-complete-uploader>pending</xmp:rhcc-metadata-complete-uploader>
         <xmp:rhcc-file-last-modified>2024-07-12T22:19:28.369Z</xmp:rhcc-file-last-modified>
         <xmp:rhcc-audience>rhcc-audience:internal</xmp:rhcc-audience>
         <xmp:brand-content-subtype>Icon</xmp:brand-content-subtype>
         <xmp:rhcc-rights-restricted>no</xmp:rhcc-rights-restricted>
         <xmp:rhcc-derivative-id>DER5375308b-73a8-49dc-9c25-266734e2f701</xmp:rhcc-derivative-id>
         <xmp:rhcc-uploaded-by>pmeilleu@redhat.com</xmp:rhcc-uploaded-by>
         <xmp:brand-logo-color>Red</xmp:brand-logo-color>
         <xmp:rhcc-notify-portal-subscribers-on-change>yes</xmp:rhcc-notify-portal-subscribers-on-change>
         <dc:format>image/svg+xml</dc:format>
         <dc:modified>2024-02-09T20:32:34.836Z</dc:modified>
         <dc:title>
            <rdf:Alt>
               <rdf:li xml:lang="x-default">Pricetag icon - Red</rdf:li>
            </rdf:Alt>
         </dc:title>
         <dc:description>
            <rdf:Alt>
               <rdf:li xml:lang="x-default">purchase, sale, sell, price, money, store, shopping, ecommerce, business, objects</rdf:li>
            </rdf:Alt>
         </dc:description>
         <cq:lastReplicationAction_scene7>Activate</cq:lastReplicationAction_scene7>
         <cq:lastReplicationAction_publish>Activate</cq:lastReplicationAction_publish>
         <cq:lastReplicated_publish>2024-10-02T19:42:10.968Z</cq:lastReplicated_publish>
         <cq:lastReplicatedBy>workflow-process-service</cq:lastReplicatedBy>
         <cq:lastReplicationAction>Activate</cq:lastReplicationAction>
         <cq:lastReplicatedBy_publish>workflow-process-service</cq:lastReplicatedBy_publish>
         <cq:isDelivered>false</cq:isDelivered>
         <cq:lastReplicated>2024-10-02T19:42:10.968Z</cq:lastReplicated>
         <cq:lastReplicatedBy_scene7>workflow-process-service</cq:lastReplicatedBy_scene7>
         <cq:lastReplicated_scene7>2024-10-02T19:42:10.968Z</cq:lastReplicated_scene7>
         <tiff:ImageLength>36</tiff:ImageLength>
         <tiff:ImageWidth>36</tiff:ImageWidth>
      </rdf:Description>
   </rdf:RDF>
</x:xmpmeta>
                                                                                                    
                                                                                                    
                                                                                                    
                                                                                                    
                                                                                                    
                                                                                                    
                                                                                                    
                                                                                                    
        
<?xpacket end="w"?></metadata>
<defs>
    <style>
      .af9485b9-96b4-468c-b21a-82463ef828e4 {
        fill: #e00;
      }
    </style>
  </defs>
  <g>
    <path class="af9485b9-96b4-468c-b21a-82463ef828e4" d="M31.33,21.67l-11-11a.59.59,0,0,0-.44-.18H15.54a.59.59,0,0,0-.44.18L10.71,15.1a.59.59,0,0,0-.18.44v4.38a.63.63,0,0,0,.18.45l11,11a.64.64,0,0,0,.89,0l8.77-8.77a.64.64,0,0,0,0-.89ZM22.12,30,11.78,19.66V15.8l4-4h3.86L30,22.12Z"/>
    <path class="af9485b9-96b4-468c-b21a-82463ef828e4" d="M12.33,12.33a.64.64,0,0,0,0-.89,2.76,2.76,0,0,0-3.81,0l-.73.73c-.37.38-1-.2-.58-.57L11.6,7.21A1.66,1.66,0,0,0,9.25,4.87L7.06,7.06c-.58.56.32,1.46.88.88l2.19-2.19c.37-.38,1,.21.58.58L6.33,10.71a1.63,1.63,0,0,0-.49,1.17,1.67,1.67,0,0,0,2.83,1.18l.73-.73a1.47,1.47,0,0,1,2,0A.64.64,0,0,0,12.33,12.33Z"/>
    <path class="af9485b9-96b4-468c-b21a-82463ef828e4" d="M15,14.37a.63.63,0,1,0,.63.63A.63.63,0,0,0,15,14.37Z"/>
  </g>
</svg>
