<svg id="a92791e5-0ec4-4952-a84b-6540334d1332" data-name="Icon" xmlns="http://www.w3.org/2000/svg" viewBox="0 0 36 36">
  <title>Kanban icon - Red</title>
<desc>rally, agile, board, planning, project, work, workfront, complete, request, diagrams and graphs</desc>
<metadata><?xpacket begin="﻿" id="W5M0MpCehiHzreSzNTczkc9d"?>
<x:xmpmeta xmlns:x="adobe:ns:meta/" x:xmptk="Adobe XMP Core 8.0-c001 1.000000, 0000/00/00-00:00:00        ">
   <rdf:RDF xmlns:rdf="http://www.w3.org/1999/02/22-rdf-syntax-ns#">
      <rdf:Description rdf:about=""
            xmlns:xmp="http://ns.adobe.com/xap/1.0/"
            xmlns:dc="http://purl.org/dc/elements/1.1/"
            xmlns:cq="http://www.day.com/jcr/cq/1.0"
            xmlns:tiff="http://ns.adobe.com/tiff/1.0/">
         <xmp:rhcc-effective-on>2023-12-08T17:35:00.140Z</xmp:rhcc-effective-on>
         <xmp:rhcc-metadata-complete-moderator>pending</xmp:rhcc-metadata-complete-moderator>
         <xmp:rhcc-translation-id>TRA105f1b25-84ca-48b6-8dbe-d79084a91731</xmp:rhcc-translation-id>
         <xmp:brand-content-type>Icon</xmp:brand-content-type>
         <xmp:CreateDate>2023-12-08T17:35:00.140Z</xmp:CreateDate>
         <xmp:rhcc-aspect-ratio>square</xmp:rhcc-aspect-ratio>
         <xmp:rhcc-effective-on-set-on-upload>true</xmp:rhcc-effective-on-set-on-upload>
         <xmp:rhcc-published-asset-email-sent>true</xmp:rhcc-published-asset-email-sent>
         <xmp:rhcc-metadata-complete-uploader>pending</xmp:rhcc-metadata-complete-uploader>
         <xmp:rhcc-file-last-modified>2024-07-12T22:46:43.371Z</xmp:rhcc-file-last-modified>
         <xmp:rhcc-audience>rhcc-audience:internal</xmp:rhcc-audience>
         <xmp:brand-content-subtype>Icon</xmp:brand-content-subtype>
         <xmp:rhcc-rights-restricted>no</xmp:rhcc-rights-restricted>
         <xmp:rhcc-derivative-id>DER105f1b25-84ca-48b6-8dbe-d79084a91731</xmp:rhcc-derivative-id>
         <xmp:rhcc-uploaded-by>pmeilleu@redhat.com</xmp:rhcc-uploaded-by>
         <xmp:brand-logo-color>Red</xmp:brand-logo-color>
         <xmp:rhcc-notify-portal-subscribers-on-change>yes</xmp:rhcc-notify-portal-subscribers-on-change>
         <dc:format>image/svg+xml</dc:format>
         <dc:modified>2024-02-09T20:35:06.748Z</dc:modified>
         <dc:title>
            <rdf:Alt>
               <rdf:li xml:lang="x-default">Kanban icon - Red</rdf:li>
            </rdf:Alt>
         </dc:title>
         <dc:description>
            <rdf:Alt>
               <rdf:li xml:lang="x-default">rally, agile, board, planning, project, work, workfront, complete, request, diagrams and graphs</rdf:li>
            </rdf:Alt>
         </dc:description>
         <cq:lastReplicationAction_scene7>Activate</cq:lastReplicationAction_scene7>
         <cq:lastReplicationAction_publish>Activate</cq:lastReplicationAction_publish>
         <cq:lastReplicated_publish>2024-10-02T19:37:51.391Z</cq:lastReplicated_publish>
         <cq:lastReplicatedBy>workflow-process-service</cq:lastReplicatedBy>
         <cq:lastReplicationAction>Activate</cq:lastReplicationAction>
         <cq:lastReplicatedBy_publish>workflow-process-service</cq:lastReplicatedBy_publish>
         <cq:isDelivered>false</cq:isDelivered>
         <cq:lastReplicated>2024-10-02T19:37:51.391Z</cq:lastReplicated>
         <cq:lastReplicatedBy_scene7>workflow-process-service</cq:lastReplicatedBy_scene7>
         <cq:lastReplicated_scene7>2024-10-02T19:37:51.391Z</cq:lastReplicated_scene7>
         <tiff:ImageLength>36</tiff:ImageLength>
         <tiff:ImageWidth>36</tiff:ImageWidth>
      </rdf:Description>
   </rdf:RDF>
</x:xmpmeta>
                                                                                                    
                                                                                                    
                                                                                                    
                                                                                                    
                                                                                                    
                                                                                                    
                                                                                                    
                                                                                                    
        
<?xpacket end="w"?></metadata>
<defs>
    <style>
      .b38b2184-b33b-42f4-9bb9-4f00e50cf76a {
        fill: #e00;
      }
    </style>
  </defs>
  <g>
    <path class="b38b2184-b33b-42f4-9bb9-4f00e50cf76a" d="M10,11.38H5a.62.62,0,0,0-.62.62v5a.62.62,0,0,0,.62.62h5a.62.62,0,0,0,.62-.62V12A.62.62,0,0,0,10,11.38Zm-.62,5H5.62V12.62H9.38Z"/>
    <path class="b38b2184-b33b-42f4-9bb9-4f00e50cf76a" d="M20.5,11.38h-5a.62.62,0,0,0-.62.62v5a.62.62,0,0,0,.62.62h5a.62.62,0,0,0,.62-.62V12A.62.62,0,0,0,20.5,11.38Zm-.62,5H16.12V12.62h3.76Z"/>
    <path class="b38b2184-b33b-42f4-9bb9-4f00e50cf76a" d="M20.5,19.38h-5a.62.62,0,0,0-.62.62v5a.62.62,0,0,0,.62.62h5a.62.62,0,0,0,.62-.62V20A.62.62,0,0,0,20.5,19.38Zm-.62,5H16.12V20.62h3.76Z"/>
    <path class="b38b2184-b33b-42f4-9bb9-4f00e50cf76a" d="M31,11.38H26a.62.62,0,0,0-.62.62v5a.62.62,0,0,0,.62.62h5a.62.62,0,0,0,.62-.62V12A.62.62,0,0,0,31,11.38Zm-.62,5H26.62V12.62h3.76Z"/>
    <path class="b38b2184-b33b-42f4-9bb9-4f00e50cf76a" d="M32,8.38H23.62V5a.62.62,0,0,0-1.24,0V8.38H13.62V5a.62.62,0,1,0-1.24,0V8.38H4A.62.62,0,1,0,4,9.62h8.38V31a.62.62,0,0,0,1.24,0V9.62h8.76V31a.62.62,0,0,0,1.24,0V9.62H32A.62.62,0,0,0,32,8.38Z"/>
  </g>
</svg>
