<?xml version="1.0" encoding="UTF-8"?><svg id="uuid-e4ea72d5-7b48-4d97-afb6-e55e020babea" xmlns="http://www.w3.org/2000/svg" width="36" height="36" viewBox="0 0 36 36"><title>Cardboard box icon</title>
<desc>cardboard, box, packaging, package, shipping, delivery, recycle, waste, GWS, signage</desc>
<metadata><?xpacket begin="﻿" id="W5M0MpCehiHzreSzNTczkc9d"?>
<x:xmpmeta xmlns:x="adobe:ns:meta/" x:xmptk="Adobe XMP Core 8.0-c001 1.000000, 0000/00/00-00:00:00        ">
   <rdf:RDF xmlns:rdf="http://www.w3.org/1999/02/22-rdf-syntax-ns#">
      <rdf:Description rdf:about=""
            xmlns:dc="http://purl.org/dc/elements/1.1/"
            xmlns:tiff="http://ns.adobe.com/tiff/1.0/"
            xmlns:xmp="http://ns.adobe.com/xap/1.0/">
         <dc:modified>2025-09-11T00:34:31.050Z</dc:modified>
         <dc:format>image/svg+xml</dc:format>
         <dc:description>
            <rdf:Alt>
               <rdf:li xml:lang="x-default">cardboard, box, packaging, package, shipping, delivery, recycle, waste, GWS, signage</rdf:li>
            </rdf:Alt>
         </dc:description>
         <dc:title>
            <rdf:Alt>
               <rdf:li xml:lang="x-default">Cardboard box icon</rdf:li>
            </rdf:Alt>
         </dc:title>
         <tiff:ImageLength>36</tiff:ImageLength>
         <tiff:ImageWidth>36</tiff:ImageWidth>
         <xmp:rhcc-rights-restricted>no</xmp:rhcc-rights-restricted>
         <xmp:brand-content-subtype>Icon</xmp:brand-content-subtype>
         <xmp:rhcc-file-last-modified>2025-09-11T00:31:56.587Z</xmp:rhcc-file-last-modified>
         <xmp:brand-content-type>Icon</xmp:brand-content-type>
         <xmp:brand-colorway>
            <rdf:Bag>
               <rdf:li>colorway:red</rdf:li>
            </rdf:Bag>
         </xmp:brand-colorway>
      </rdf:Description>
   </rdf:RDF>
</x:xmpmeta>
                                                                                                    
                                                                                                    
                                                                                                    
                                                                                                    
                                                                                                    
                                                                                                    
                                                                                                    
                                                                                                    
                                                                                                    
                                                                                                    
                                                                                                    
                                                                                                    
                                                                                                    
                                                                                                    
                                                                                                    
                                                                                                    
                                                                                                    
                                                                                                    
                                                                              
<?xpacket end="w"?></metadata>
<defs><style>.uuid-0f1f4c7b-3d87-43e2-b8a2-b0de557ed328{fill:#e00;}</style></defs><path class="uuid-0f1f4c7b-3d87-43e2-b8a2-b0de557ed328" d="M31.61157,11.93341c-.00452-.04254-.01172-.08282-.02515-.12421-.01324-.04077-.03094-.07703-.05188-.11365-.01154-.02039-.01459-.04333-.02869-.06274l-5.08594-7c-.01001-.01379-.02509-.02039-.03595-.03308-.02759-.03241-.05841-.05847-.09192-.08466-.03229-.02521-.06342-.04889-.09924-.06696-.03314-.01685-.06769-.02698-.10394-.03778-.04315-.01276-.0849-.02301-.1297-.02625-.01569-.00116-.02911-.00909-.0451-.00909h-15.82812c-.01703,0-.03137.00836-.04803.0097-.04236.0033-.0816.01306-.12256.02478-.03839.01117-.07507.02197-.11005.03992-.03461.01746-.06451.04047-.09576.06458-.03424.02649-.06567.0531-.09369.08606-.0108.01263-.02582.0191-.03577.03278l-5.08594,7c-.0141.01941-.01715.04236-.02869.06274-.02094.03662-.03864.07288-.05188.11365-.01343.04138-.02063.08167-.02515.12421-.00256.02295-.01343.04297-.01343.06659v19c0,.34473.27979.625.625.625h26c.34521,0,.625-.28027.625-.625V12c0-.02362-.01086-.04364-.01343-.06659ZM10.40448,5.625h5.31152l-1.22211,5.75H6.22675l4.17773-5.75ZM19.0061,5.625l1.22211,5.75h-4.45642l1.22211-5.75h2.01221ZM15.625,12.625h4.75v3.75h-4.75v-3.75ZM21.5061,11.375l-1.22211-5.75h5.31152l4.17773,5.75h-8.26715ZM30.375,30.375H5.625V12.625h8.75v4.375c0,.34473.27979.625.625.625h6c.34521,0,.625-.28027.625-.625v-4.375h8.75v17.75Z"/><path class="uuid-0f1f4c7b-3d87-43e2-b8a2-b0de557ed328" d="M18,23.375h-9c-.34521,0-.625.28027-.625.625s.27979.625.625.625h9c.34521,0,.625-.28027.625-.625s-.27979-.625-.625-.625Z"/><path class="uuid-0f1f4c7b-3d87-43e2-b8a2-b0de557ed328" d="M14,26.375h-5c-.34521,0-.625.28027-.625.625s.27979.625.625.625h5c.34521,0,.625-.28027.625-.625s-.27979-.625-.625-.625Z"/></svg>