<?xml version="1.0" encoding="UTF-8"?><svg id="uuid-69da85d5-8958-4751-94ed-4b0f1cd024ed" xmlns="http://www.w3.org/2000/svg" width="36" height="36" viewBox="0 0 36 36"><metadata><?xpacket begin="﻿" id="W5M0MpCehiHzreSzNTczkc9d"?>
<x:xmpmeta xmlns:x="adobe:ns:meta/" x:xmptk="Adobe XMP Core 8.0-c001 1.000000, 0000/00/00-00:00:00        ">
   <rdf:RDF xmlns:rdf="http://www.w3.org/1999/02/22-rdf-syntax-ns#">
      <rdf:Description rdf:about=""
            xmlns:xmp="http://ns.adobe.com/xap/1.0/"
            xmlns:dc="http://purl.org/dc/elements/1.1/"
            xmlns:cq="http://www.day.com/jcr/cq/1.0"
            xmlns:tiff="http://ns.adobe.com/tiff/1.0/">
         <xmp:rhcc-effective-on>2023-12-08T17:45:16.550Z</xmp:rhcc-effective-on>
         <xmp:rhcc-metadata-complete-moderator>pending</xmp:rhcc-metadata-complete-moderator>
         <xmp:rhcc-translation-id>TRAd5e8447b-cffd-45d9-87e9-434639a47750</xmp:rhcc-translation-id>
         <xmp:CreateDate>2023-12-08T17:45:16.550Z</xmp:CreateDate>
         <xmp:rhcc-aspect-ratio>square</xmp:rhcc-aspect-ratio>
         <xmp:rhcc-effective-on-set-on-upload>true</xmp:rhcc-effective-on-set-on-upload>
         <xmp:rhcc-published-asset-email-sent>true</xmp:rhcc-published-asset-email-sent>
         <xmp:rhcc-metadata-complete-uploader>pending</xmp:rhcc-metadata-complete-uploader>
         <xmp:rhcc-file-last-modified>2024-07-12T23:18:13.375Z</xmp:rhcc-file-last-modified>
         <xmp:rhcc-audience>rhcc-audience:internal</xmp:rhcc-audience>
         <xmp:rhcc-rights-restricted>no</xmp:rhcc-rights-restricted>
         <xmp:rhcc-derivative-id>DERd5e8447b-cffd-45d9-87e9-434639a47750</xmp:rhcc-derivative-id>
         <xmp:rhcc-uploaded-by>pmeilleu@redhat.com</xmp:rhcc-uploaded-by>
         <xmp:rhcc-notify-portal-subscribers-on-change>yes</xmp:rhcc-notify-portal-subscribers-on-change>
         <dc:format>image/svg+xml</dc:format>
         <dc:modified>2024-02-09T20:37:26.706Z</dc:modified>
         <cq:lastReplicationAction_scene7>Activate</cq:lastReplicationAction_scene7>
         <cq:lastReplicationAction_publish>Activate</cq:lastReplicationAction_publish>
         <cq:lastReplicated_publish>2024-10-02T19:48:42.111Z</cq:lastReplicated_publish>
         <cq:lastReplicatedBy>workflow-process-service</cq:lastReplicatedBy>
         <cq:lastReplicationAction>Activate</cq:lastReplicationAction>
         <cq:lastReplicatedBy_publish>workflow-process-service</cq:lastReplicatedBy_publish>
         <cq:isDelivered>false</cq:isDelivered>
         <cq:lastReplicated>2024-10-02T19:48:42.111Z</cq:lastReplicated>
         <cq:lastReplicatedBy_scene7>workflow-process-service</cq:lastReplicatedBy_scene7>
         <cq:lastReplicated_scene7>2024-10-02T19:48:42.111Z</cq:lastReplicated_scene7>
         <tiff:ImageLength>36</tiff:ImageLength>
         <tiff:ImageWidth>36</tiff:ImageWidth>
      </rdf:Description>
   </rdf:RDF>
</x:xmpmeta>
                                                                                                    
                                                                                                    
                                                                                                    
                                                                                                    
                                                                                                    
                                                                                                    
                                                                                                    
                                                                                                    
        
<?xpacket end="w"?></metadata>
<path d="m27.44189,9.55762c-.24414-.24414-.63965-.24414-.88379,0l-8.55811,8.55859-8.55811-8.55859c-.24414-.24414-.63965-.24414-.88379,0s-.24414.64062,0,.88477l7.93262,7.93262h-4.49072c-.34521,0-.625.28027-.625.625s.27979.625.625.625h5.375v2.75h-5.375c-.34521,0-.625.28027-.625.625s.27979.625.625.625h5.375v7.375c0,.34473.27979.625.625.625s.625-.28027.625-.625v-7.375h5.375c.34521,0,.625-.28027.625-.625s-.27979-.625-.625-.625h-5.375v-2.75h5.375c.34521,0,.625-.28027.625-.625s-.27979-.625-.625-.625h-4.49072l7.93262-7.93262c.24414-.24414.24414-.64062,0-.88477Z" fill="#fff" stroke-width="0"/><path d="m16.44189,7.44238l.93311-.93341v5.49103c0,.34473.27979.625.625.625s.625-.28027.625-.625v-5.49103l.93311.93341c.12207.12207.28174.18262.44189.18262s.31982-.06055.44189-.18262c.24414-.24414.24414-.64062,0-.88477l-2-2c-.01624-.01624-.03748-.02246-.05499-.03656-.04584-.03705-.09161-.07452-.14685-.09753-.15356-.06396-.32648-.06396-.48004,0-.0556.02319-.10187.06085-.14795.09827-.01715.01385-.03802.0199-.05396.03583l-2,2c-.24414.24414-.24414.64062,0,.88477s.63965.24414.88379,0Z" fill="#fff" stroke-width="0"/></svg>