<?xml version="1.0" encoding="UTF-8"?><svg id="uuid-f9047aee-c68b-4ef5-9526-41830daaf5e0" xmlns="http://www.w3.org/2000/svg" width="36" height="36" viewBox="0 0 36 36"><title>Clothes hanger icon</title>
<desc>Laundry, Wardrobe, Clothing, Fashion, Store, Closet, Organization, Apparel, Garment, Drying, Hanging, Hook, Rack, Storage, Coat rack</desc>
<metadata><?xpacket begin="﻿" id="W5M0MpCehiHzreSzNTczkc9d"?>
<x:xmpmeta xmlns:x="adobe:ns:meta/" x:xmptk="Adobe XMP Core 8.0-c001 1.000000, 0000/00/00-00:00:00        ">
   <rdf:RDF xmlns:rdf="http://www.w3.org/1999/02/22-rdf-syntax-ns#">
      <rdf:Description rdf:about=""
            xmlns:xmp="http://ns.adobe.com/xap/1.0/"
            xmlns:tiff="http://ns.adobe.com/tiff/1.0/"
            xmlns:dc="http://purl.org/dc/elements/1.1/">
         <xmp:brand-content-type>Icon</xmp:brand-content-type>
         <xmp:rhcc-rights-restricted>no</xmp:rhcc-rights-restricted>
         <xmp:brand-content-subtype>Icon</xmp:brand-content-subtype>
         <xmp:rhcc-file-last-modified>2025-07-07T14:59:05.037Z</xmp:rhcc-file-last-modified>
         <xmp:brand-colorway>
            <rdf:Bag>
               <rdf:li>colorway:black</rdf:li>
            </rdf:Bag>
         </xmp:brand-colorway>
         <tiff:ImageLength>36</tiff:ImageLength>
         <tiff:ImageWidth>36</tiff:ImageWidth>
         <dc:format>image/svg+xml</dc:format>
         <dc:modified>2025-07-07T14:59:40.903Z</dc:modified>
         <dc:title>
            <rdf:Alt>
               <rdf:li xml:lang="x-default">Clothes hanger icon</rdf:li>
            </rdf:Alt>
         </dc:title>
         <dc:description>
            <rdf:Alt>
               <rdf:li xml:lang="x-default">Laundry, Wardrobe, Clothing, Fashion, Store, Closet, Organization, Apparel, Garment, Drying, Hanging, Hook, Rack, Storage, Coat rack</rdf:li>
            </rdf:Alt>
         </dc:description>
      </rdf:Description>
   </rdf:RDF>
</x:xmpmeta>
                                                                                                    
                                                                                                    
                                                                                                    
                                                                                                    
                                                                                                    
                                                                                                    
                                                                                                    
                                                                                                    
                                                                                                    
                                                                                                    
                                                                                                    
                                                                                                    
                                                                                                    
                                                                                                    
                                                                                                    
                                                       
<?xpacket end="w"?></metadata>
<path d="M4.43408,25.58984c.25879,1.2168,1.26953,2.03516,2.51416,2.03516h22.10352c1.24463,0,2.25537-.81836,2.51416-2.03516.25928-1.21777-.33057-2.37695-1.46777-2.88477l-11.47314-5.11127v-2.59381c0-.34473-.27979-.625-.625-.625-1.30957,0-2.375-1.06543-2.375-2.375,0-1.30957,1.06543-2.375,2.375-2.375s2.375,1.06543,2.375,2.375c0,.34473.27979.625.625.625s.625-.28027.625-.625c0-1.99902-1.62598-3.625-3.625-3.625s-3.625,1.62598-3.625,3.625c0,1.78497,1.29919,3.26373,3,3.56177v2.03204s-11.47314,5.11127-11.47314,5.11127c-1.13721.50781-1.72705,1.66699-1.46777,2.88477ZM6.41064,23.84766l11.58936-5.16309,11.58936,5.16309c.72119.32129.85693.99902.75439,1.48145-.10303.48242-.50293,1.0459-1.29199,1.0459H6.94824c-.78906,0-1.18896-.56348-1.29199-1.0459-.10254-.48242.0332-1.16016.75439-1.48145Z"/></svg>