<?xml version="1.0" encoding="UTF-8"?><svg id="uuid-d80947f9-8442-4a9b-9743-011a5b832db3" xmlns="http://www.w3.org/2000/svg" width="36" height="36" viewBox="0 0 36 36"><title>Air pillow packaging icon</title>
<desc>airbag, cushion, filler, void fill, inflatable, bubble, plastic, wrap, protective, shipment, package, shipping, transit, polybag, blow up, air cell, dunnage, anti-shock, cushioning, delivery</desc>
<metadata><?xpacket begin="﻿" id="W5M0MpCehiHzreSzNTczkc9d"?>
<x:xmpmeta xmlns:x="adobe:ns:meta/" x:xmptk="Adobe XMP Core 8.0-c001 1.000000, 0000/00/00-00:00:00        ">
   <rdf:RDF xmlns:rdf="http://www.w3.org/1999/02/22-rdf-syntax-ns#">
      <rdf:Description rdf:about=""
            xmlns:tiff="http://ns.adobe.com/tiff/1.0/"
            xmlns:xmp="http://ns.adobe.com/xap/1.0/"
            xmlns:dc="http://purl.org/dc/elements/1.1/">
         <tiff:ImageWidth>36</tiff:ImageWidth>
         <tiff:ImageLength>36</tiff:ImageLength>
         <xmp:brand-content-type>Icon</xmp:brand-content-type>
         <xmp:rhcc-rights-restricted>no</xmp:rhcc-rights-restricted>
         <xmp:brand-content-subtype>Icon</xmp:brand-content-subtype>
         <xmp:rhcc-file-last-modified>2025-09-26T17:28:30.354Z</xmp:rhcc-file-last-modified>
         <xmp:brand-colorway>
            <rdf:Bag>
               <rdf:li>colorway:black</rdf:li>
            </rdf:Bag>
         </xmp:brand-colorway>
         <dc:format>image/svg+xml</dc:format>
         <dc:modified>2025-09-26T17:28:43.571Z</dc:modified>
         <dc:description>
            <rdf:Alt>
               <rdf:li xml:lang="x-default">airbag, cushion, filler, void fill, inflatable, bubble, plastic, wrap, protective, shipment, package, shipping, transit, polybag, blow up, air cell, dunnage, anti-shock, cushioning, delivery</rdf:li>
            </rdf:Alt>
         </dc:description>
         <dc:title>
            <rdf:Alt>
               <rdf:li xml:lang="x-default">Air pillow packaging icon</rdf:li>
            </rdf:Alt>
         </dc:title>
      </rdf:Description>
   </rdf:RDF>
</x:xmpmeta>
                                                                                                    
                                                                                                    
                                                                                                    
                                                                                                    
                                                                                                    
                                                                                                    
                                                                                                    
                                                                                                    
                                                                                                    
                                                                                                    
                                                                                                    
                                                                                                    
                                                                                                    
                                                                                                    
                                                                                                    
                                                                  
<?xpacket end="w"?></metadata>
<path d="M10.65723,17.76074c.10547.06934.22412.10254.3418.10254.20361,0,.40332-.09961.52344-.28223,1.31299-2.00586,2.94629-3.75879,4.85498-5.20898.31738-.24121.6416-.47266.97217-.69531.28613-.19336.36133-.58203.16846-.86816-.19238-.28516-.58057-.3623-.86768-.16895-.3501.23633-.69287.48145-1.0293.73633-2.02246,1.53809-3.75342,3.39551-5.14453,5.51953-.18896.28906-.1084.67676.18066.86523Z"/><path d="M17.74414,28.51074c-.78833.3537-1.60919.6535-2.4397.90942l-8.72485-8.72485c.25537-.82666.55444-1.64679.90967-2.43945.14111-.31543.00049-.68457-.31445-.82617-.31543-.13965-.68555,0-.82617.31445-.2868.63959-.53265,1.29797-.75873,1.96149l-1.14801-1.14801c-.24414-.24414-.63965-.24414-.88379,0s-.24414.64062,0,.88477l13,13c.12207.12207.28174.18262.44189.18262s.31982-.06055.44189-.18262c.24414-.24414.24414-.64062,0-.88477l-1.14752-1.14752c.66559-.22681,1.32446-.47302,1.96149-.75873.31494-.1416.45557-.51172.31445-.82617-.14111-.31543-.51123-.4541-.82617-.31445Z"/><path d="M32.44189,16.55762L19.44189,3.55811c-.24414-.24414-.63965-.24414-.88379,0s-.24414.63965,0,.88379l1.14795,1.14795c-.66461.22638-1.32343.47253-1.96191.75928-.31494.1416-.45557.51123-.31445.82666.104.23145.33203.36914.5708.36914.08545,0,.17236-.01758.25537-.05566.79077-.35486,1.61145-.65417,2.4397-.90985l8.72491,8.72522c-.25604.82898-.55536,1.65002-.91022,2.43951-.14111.31445-.00049.68457.31396.82617.0835.03711.17041.05469.25586.05469.23877,0,.46631-.13672.5708-.36914.28644-.63763.53259-1.29657.75916-1.96161l1.14807,1.14813c.12207.12207.28174.18262.44189.18262s.31982-.06055.44189-.18262c.24414-.24414.24414-.64062,0-.88477Z"/><path d="M9.66992,14.06934c.18994,0,.37012-.08984.5-.23926.20996-.27051.15967-.66992-.10986-.87988-.27002-.2207-.66016-.16992-.88037.10938-.20996.27051-.15967.66016.11035.87012.10986.08984.25.13965.37988.13965Z"/><path d="M7.83984,16.16992c.1001.05957.20996.08984.31982.08984.20996,0,.41992-.11035.53027-.2998.17969-.2998.08984-.67969-.20996-.86035-.29004-.17969-.68018-.08008-.86035.20996-.16992.2998-.07959.68066.22021.86035Z"/><path d="M11.43994,12.06934c.15967,0,.31982-.05957.44971-.17969.24023-.25.24023-.63965,0-.88965-.25-.24023-.63965-.24023-.88965,0-.24023.25-.24023.63965,0,.88965.11963.12012.27979.17969.43994.17969Z"/><path d="M13.43994,10.2998c.13965,0,.27002-.04004.38965-.12988.27002-.21973.32031-.61035.1001-.87988-.20996-.27051-.6001-.32031-.87988-.11035-.27002.21973-.31006.61035-.1001.87988.12012.16016.30029.24023.49023.24023Z"/><path d="M15.63965,8.79004c.11035,0,.22021-.03027.32031-.08984v-.01074c.29004-.16992.38965-.55957.20996-.84961-.18018-.2998-.56006-.38965-.85986-.20996-.29004.16992-.39014.55957-.21045.84961.12012.2002.32031.31055.54004.31055Z"/><path d="M28.16992,19.83008c-.30029-.18066-.68018-.08008-.85986.20996-.18018.2998-.09033.67969.20996.85938.09961.06055.20996.09082.31982.09082.20996,0,.41992-.11035.54004-.30078.18018-.2998.08008-.67969-.20996-.85938Z"/><path d="M25.82959,22.16992c-.20996.28027-.15967.66992.11035.87988.10986.08984.25.13965.38965.13965.18018,0,.36035-.08984.49023-.23926.20996-.28027.16016-.66992-.10986-.88086-.27002-.20996-.66016-.16992-.88037.10059Z"/><path d="M20.04004,27.30957c-.29004.18066-.39014.56055-.21045.85059.12012.19922.33008.2998.54004.2998.11035,0,.22021-.02051.32031-.08984v.00977c.29004-.17969.38965-.57031.20996-.86035-.18018-.2998-.56006-.38965-.85986-.20996Z"/><path d="M24.11963,24.10938c-.25.25-.25.64062,0,.89062.12012.12012.28027.17969.44043.17969.15967,0,.31982-.05957.43994-.17969.23975-.25.23975-.64062,0-.89062-.24023-.23926-.64014-.23926-.88037,0Z"/><path d="M22.17969,25.83008c-.27979.21973-.31982.60938-.10986.87988.12012.16016.31006.24023.49023.24023.13965,0,.26953-.04004.38965-.13086.27002-.21973.32031-.60938.1001-.87988-.20996-.26953-.6001-.31934-.87012-.10938Z"/></svg>