<svg id="aa2a3fa4-1d00-4f11-8340-350a2f3f7815" data-name="Icon" xmlns="http://www.w3.org/2000/svg" viewBox="0 0 36 36">
  <title>Line graph up icon - Red</title>
<desc>increase, grow, finance, chart, plot, gain, steady, diagrams and graphs</desc>
<metadata><?xpacket begin="﻿" id="W5M0MpCehiHzreSzNTczkc9d"?>
<x:xmpmeta xmlns:x="adobe:ns:meta/" x:xmptk="Adobe XMP Core 8.0-c001 1.000000, 0000/00/00-00:00:00        ">
   <rdf:RDF xmlns:rdf="http://www.w3.org/1999/02/22-rdf-syntax-ns#">
      <rdf:Description rdf:about=""
            xmlns:xmp="http://ns.adobe.com/xap/1.0/"
            xmlns:dc="http://purl.org/dc/elements/1.1/"
            xmlns:cq="http://www.day.com/jcr/cq/1.0"
            xmlns:tiff="http://ns.adobe.com/tiff/1.0/">
         <xmp:rhcc-effective-on>2023-12-08T17:34:55.519Z</xmp:rhcc-effective-on>
         <xmp:rhcc-metadata-complete-moderator>pending</xmp:rhcc-metadata-complete-moderator>
         <xmp:rhcc-translation-id>TRAf8a7ca2a-4b07-45b9-bc02-80482ef022b8</xmp:rhcc-translation-id>
         <xmp:brand-content-type>Icon</xmp:brand-content-type>
         <xmp:CreateDate>2023-12-08T17:34:55.519Z</xmp:CreateDate>
         <xmp:rhcc-aspect-ratio>square</xmp:rhcc-aspect-ratio>
         <xmp:rhcc-effective-on-set-on-upload>true</xmp:rhcc-effective-on-set-on-upload>
         <xmp:rhcc-published-asset-email-sent>true</xmp:rhcc-published-asset-email-sent>
         <xmp:rhcc-metadata-complete-uploader>pending</xmp:rhcc-metadata-complete-uploader>
         <xmp:rhcc-file-last-modified>2024-07-12T22:54:19.341Z</xmp:rhcc-file-last-modified>
         <xmp:rhcc-audience>rhcc-audience:internal</xmp:rhcc-audience>
         <xmp:brand-content-subtype>Icon</xmp:brand-content-subtype>
         <xmp:rhcc-rights-restricted>no</xmp:rhcc-rights-restricted>
         <xmp:rhcc-derivative-id>DERf8a7ca2a-4b07-45b9-bc02-80482ef022b8</xmp:rhcc-derivative-id>
         <xmp:rhcc-uploaded-by>pmeilleu@redhat.com</xmp:rhcc-uploaded-by>
         <xmp:brand-logo-color>Red</xmp:brand-logo-color>
         <xmp:rhcc-notify-portal-subscribers-on-change>yes</xmp:rhcc-notify-portal-subscribers-on-change>
         <dc:format>image/svg+xml</dc:format>
         <dc:modified>2024-02-09T20:34:46.316Z</dc:modified>
         <dc:title>
            <rdf:Alt>
               <rdf:li xml:lang="x-default">Line graph up icon - Red</rdf:li>
            </rdf:Alt>
         </dc:title>
         <dc:description>
            <rdf:Alt>
               <rdf:li xml:lang="x-default">increase, grow, finance, chart, plot, gain, steady, diagrams and graphs</rdf:li>
            </rdf:Alt>
         </dc:description>
         <cq:lastReplicationAction_scene7>Activate</cq:lastReplicationAction_scene7>
         <cq:lastReplicationAction_publish>Activate</cq:lastReplicationAction_publish>
         <cq:lastReplicated_publish>2024-10-02T19:35:47.802Z</cq:lastReplicated_publish>
         <cq:lastReplicatedBy>workflow-process-service</cq:lastReplicatedBy>
         <cq:lastReplicationAction>Activate</cq:lastReplicationAction>
         <cq:lastReplicatedBy_publish>workflow-process-service</cq:lastReplicatedBy_publish>
         <cq:isDelivered>false</cq:isDelivered>
         <cq:lastReplicated>2024-10-02T19:35:47.802Z</cq:lastReplicated>
         <cq:lastReplicatedBy_scene7>workflow-process-service</cq:lastReplicatedBy_scene7>
         <cq:lastReplicated_scene7>2024-10-02T19:35:47.802Z</cq:lastReplicated_scene7>
         <tiff:ImageLength>36</tiff:ImageLength>
         <tiff:ImageWidth>36</tiff:ImageWidth>
      </rdf:Description>
   </rdf:RDF>
</x:xmpmeta>
                                                                                                    
                                                                                                    
                                                                                                    
                                                                                                    
                                                                                                    
                                                                                                    
                                                                                                    
                                                                                                    
        
<?xpacket end="w"?></metadata>
<defs>
    <style>
      .aa2e5963-2fb2-446c-9a19-3158bada7ac0 {
        fill: #e00;
      }
    </style>
  </defs>
  <g>
    <path class="aa2e5963-2fb2-446c-9a19-3158bada7ac0" d="M17.38,8V18a.62.62,0,0,0,1.24,0V8A.62.62,0,0,0,17.38,8Z"/>
    <path class="aa2e5963-2fb2-446c-9a19-3158bada7ac0" d="M10.38,8v6a.62.62,0,0,0,1.24,0V8A.62.62,0,0,0,10.38,8Z"/>
    <path class="aa2e5963-2fb2-446c-9a19-3158bada7ac0" d="M24.38,8v6a.62.62,0,0,0,1.24,0V8A.62.62,0,0,0,24.38,8Z"/>
    <path class="aa2e5963-2fb2-446c-9a19-3158bada7ac0" d="M5,21.62A.62.62,0,0,0,5.62,21V5.62H30.38V10a.62.62,0,0,0,1.24,0V5A.62.62,0,0,0,31,4.38H5A.62.62,0,0,0,4.38,5V21A.62.62,0,0,0,5,21.62Z"/>
    <path class="aa2e5963-2fb2-446c-9a19-3158bada7ac0" d="M31,16.38a.62.62,0,0,0-.62.62V30.38H5.62V28a.62.62,0,0,0-1.24,0v3a.62.62,0,0,0,.62.62H31a.62.62,0,0,0,.62-.62V17A.62.62,0,0,0,31,16.38Z"/>
    <path class="aa2e5963-2fb2-446c-9a19-3158bada7ac0" d="M32.44,11.56a.61.61,0,0,0-.88,0L19,24.12l-6.56-6.56a.61.61,0,0,0-.88,0l-8,8a.62.62,0,0,0,.88.88L12,18.88l6.56,6.56a.61.61,0,0,0,.88,0l13-13A.61.61,0,0,0,32.44,11.56Z"/>
  </g>
</svg>
