<svg id="a8eec07d-1a1b-4317-a4b0-3cd14df97a04" data-name="Icon" xmlns="http://www.w3.org/2000/svg" viewBox="0 0 36 36">
  <title>Transportation icon - White</title>
<desc>trailer, ship, deliver, box, container, wheels, logistics, fulfillment, industry, transportation</desc>
<metadata><?xpacket begin="﻿" id="W5M0MpCehiHzreSzNTczkc9d"?>
<x:xmpmeta xmlns:x="adobe:ns:meta/" x:xmptk="Adobe XMP Core 8.0-c001 1.000000, 0000/00/00-00:00:00        ">
   <rdf:RDF xmlns:rdf="http://www.w3.org/1999/02/22-rdf-syntax-ns#">
      <rdf:Description rdf:about=""
            xmlns:xmp="http://ns.adobe.com/xap/1.0/"
            xmlns:dc="http://purl.org/dc/elements/1.1/"
            xmlns:cq="http://www.day.com/jcr/cq/1.0"
            xmlns:tiff="http://ns.adobe.com/tiff/1.0/">
         <xmp:rhcc-effective-on>2023-12-08T17:46:35.008Z</xmp:rhcc-effective-on>
         <xmp:rhcc-metadata-complete-moderator>pending</xmp:rhcc-metadata-complete-moderator>
         <xmp:rhcc-translation-id>TRA07594b4a-1b77-41d7-91c9-e6197ef4b732</xmp:rhcc-translation-id>
         <xmp:brand-content-type>Icon</xmp:brand-content-type>
         <xmp:CreateDate>2023-12-08T17:46:35.008Z</xmp:CreateDate>
         <xmp:rhcc-aspect-ratio>square</xmp:rhcc-aspect-ratio>
         <xmp:rhcc-effective-on-set-on-upload>true</xmp:rhcc-effective-on-set-on-upload>
         <xmp:rhcc-published-asset-email-sent>true</xmp:rhcc-published-asset-email-sent>
         <xmp:rhcc-metadata-complete-uploader>pending</xmp:rhcc-metadata-complete-uploader>
         <xmp:rhcc-file-last-modified>2024-07-12T21:21:34.368Z</xmp:rhcc-file-last-modified>
         <xmp:rhcc-audience>rhcc-audience:internal</xmp:rhcc-audience>
         <xmp:brand-content-subtype>Icon</xmp:brand-content-subtype>
         <xmp:rhcc-rights-restricted>no</xmp:rhcc-rights-restricted>
         <xmp:rhcc-derivative-id>DER07594b4a-1b77-41d7-91c9-e6197ef4b732</xmp:rhcc-derivative-id>
         <xmp:rhcc-uploaded-by>pmeilleu@redhat.com</xmp:rhcc-uploaded-by>
         <xmp:brand-logo-color>White</xmp:brand-logo-color>
         <xmp:rhcc-notify-portal-subscribers-on-change>yes</xmp:rhcc-notify-portal-subscribers-on-change>
         <dc:format>image/svg+xml</dc:format>
         <dc:modified>2024-02-09T20:25:46.219Z</dc:modified>
         <dc:title>
            <rdf:Alt>
               <rdf:li xml:lang="x-default">Transportation icon - White</rdf:li>
            </rdf:Alt>
         </dc:title>
         <dc:description>
            <rdf:Alt>
               <rdf:li xml:lang="x-default">trailer, ship, deliver, box, container, wheels, logistics, fulfillment, industry, transportation</rdf:li>
            </rdf:Alt>
         </dc:description>
         <cq:lastReplicationAction_scene7>Activate</cq:lastReplicationAction_scene7>
         <cq:lastReplicationAction_publish>Activate</cq:lastReplicationAction_publish>
         <cq:lastReplicated_publish>2024-10-02T19:47:12.446Z</cq:lastReplicated_publish>
         <cq:lastReplicatedBy>workflow-process-service</cq:lastReplicatedBy>
         <cq:lastReplicationAction>Activate</cq:lastReplicationAction>
         <cq:lastReplicatedBy_publish>workflow-process-service</cq:lastReplicatedBy_publish>
         <cq:isDelivered>false</cq:isDelivered>
         <cq:lastReplicated>2024-10-02T19:47:12.446Z</cq:lastReplicated>
         <cq:lastReplicatedBy_scene7>workflow-process-service</cq:lastReplicatedBy_scene7>
         <cq:lastReplicated_scene7>2024-10-02T19:47:12.446Z</cq:lastReplicated_scene7>
         <tiff:ImageLength>36</tiff:ImageLength>
         <tiff:ImageWidth>36</tiff:ImageWidth>
      </rdf:Description>
   </rdf:RDF>
</x:xmpmeta>
                                                                                                    
                                                                                                    
                                                                                                    
                                                                                                    
                                                                                                    
                                                                                                    
                                                                                                    
                                                                                                    
        
<?xpacket end="w"?></metadata>
<defs>
    <style>
      .be80c675-24ad-444a-a238-bcb43c7697b2 {
        fill: #fff;
      }
    </style>
  </defs>
  <g>
    <path class="be80c675-24ad-444a-a238-bcb43c7697b2" d="M8.45,27.38a2.07,2.07,0,0,0,0,4.14A2.07,2.07,0,0,0,8.45,27.38Zm0,2.89a.82.82,0,0,1,0-1.64A.82.82,0,0,1,8.45,30.27Z"/>
    <path class="be80c675-24ad-444a-a238-bcb43c7697b2" d="M13.45,27.38a2.07,2.07,0,0,0,0,4.14A2.07,2.07,0,0,0,13.45,27.38Zm0,2.89a.82.82,0,0,1,0-1.64A.82.82,0,0,1,13.45,30.27Z"/>
    <path class="be80c675-24ad-444a-a238-bcb43c7697b2" d="M27.35,27.38a2.07,2.07,0,0,0,0,4.14A2.07,2.07,0,0,0,27.35,27.38Zm0,2.89a.82.82,0,0,1,0-1.64A.82.82,0,0,1,27.35,30.27Z"/>
    <path class="be80c675-24ad-444a-a238-bcb43c7697b2" d="M22.45,27.38a2.07,2.07,0,0,0,0,4.14A2.07,2.07,0,0,0,22.45,27.38Zm0,2.89a.82.82,0,0,1,0-1.64A.82.82,0,0,1,22.45,30.27Z"/>
    <path class="be80c675-24ad-444a-a238-bcb43c7697b2" d="M31,24.38H5a.62.62,0,0,0,0,1.24H31A.62.62,0,0,0,31,24.38Z"/>
    <path class="be80c675-24ad-444a-a238-bcb43c7697b2" d="M7,22.62H29a.62.62,0,0,0,.62-.62V5A.62.62,0,0,0,29,4.38H7A.62.62,0,0,0,6.38,5V22A.62.62,0,0,0,7,22.62Zm.62-17H28.38V21.38H7.62Z"/>
    <path class="be80c675-24ad-444a-a238-bcb43c7697b2" d="M12,7.38a.62.62,0,0,0-.62.62V19a.62.62,0,1,0,1.24,0V8A.62.62,0,0,0,12,7.38Z"/>
    <path class="be80c675-24ad-444a-a238-bcb43c7697b2" d="M15.86,7.38a.62.62,0,0,0-.63.62V19a.63.63,0,0,0,1.25,0V8A.62.62,0,0,0,15.86,7.38Z"/>
    <path class="be80c675-24ad-444a-a238-bcb43c7697b2" d="M20,7.38a.62.62,0,0,0-.63.62V19a.63.63,0,0,0,1.25,0V8A.62.62,0,0,0,20,7.38Z"/>
    <path class="be80c675-24ad-444a-a238-bcb43c7697b2" d="M24.06,7.38a.62.62,0,0,0-.62.62V19a.63.63,0,0,0,1.25,0V8A.62.62,0,0,0,24.06,7.38Z"/>
  </g>
</svg>
