<svg id="a2cd3c0f-d1c2-41c1-b710-2d6c3f3673e3" data-name="Icon" xmlns="http://www.w3.org/2000/svg" viewBox="0 0 36 36">
  <title>Headphones icon - Red</title>
<desc>time, sand, glass, timer, stopwatch, clock, track, count, objects</desc>
<metadata><?xpacket begin="﻿" id="W5M0MpCehiHzreSzNTczkc9d"?>
<x:xmpmeta xmlns:x="adobe:ns:meta/" x:xmptk="Adobe XMP Core 8.0-c001 1.000000, 0000/00/00-00:00:00        ">
   <rdf:RDF xmlns:rdf="http://www.w3.org/1999/02/22-rdf-syntax-ns#">
      <rdf:Description rdf:about=""
            xmlns:xmp="http://ns.adobe.com/xap/1.0/"
            xmlns:dc="http://purl.org/dc/elements/1.1/"
            xmlns:cq="http://www.day.com/jcr/cq/1.0"
            xmlns:tiff="http://ns.adobe.com/tiff/1.0/">
         <xmp:rhcc-effective-on>2023-12-08T17:35:47.899Z</xmp:rhcc-effective-on>
         <xmp:rhcc-metadata-complete-moderator>pending</xmp:rhcc-metadata-complete-moderator>
         <xmp:rhcc-translation-id>TRA41734d5c-23dd-4f19-bfd6-3211e3052def</xmp:rhcc-translation-id>
         <xmp:brand-content-type>Icon</xmp:brand-content-type>
         <xmp:CreateDate>2023-12-08T17:35:47.899Z</xmp:CreateDate>
         <xmp:rhcc-aspect-ratio>square</xmp:rhcc-aspect-ratio>
         <xmp:rhcc-effective-on-set-on-upload>true</xmp:rhcc-effective-on-set-on-upload>
         <xmp:rhcc-metadata-complete-uploader>pending</xmp:rhcc-metadata-complete-uploader>
         <xmp:rhcc-file-last-modified>2024-07-12T18:54:31.232Z</xmp:rhcc-file-last-modified>
         <xmp:rhcc-audience>rhcc-audience:internal</xmp:rhcc-audience>
         <xmp:brand-content-subtype>Icon</xmp:brand-content-subtype>
         <xmp:rhcc-rights-restricted>no</xmp:rhcc-rights-restricted>
         <xmp:rhcc-derivative-id>DER41734d5c-23dd-4f19-bfd6-3211e3052def</xmp:rhcc-derivative-id>
         <xmp:rhcc-uploaded-by>pmeilleu@redhat.com</xmp:rhcc-uploaded-by>
         <xmp:brand-logo-color>Red</xmp:brand-logo-color>
         <xmp:rhcc-notify-portal-subscribers-on-change>yes</xmp:rhcc-notify-portal-subscribers-on-change>
         <dc:format>image/svg+xml</dc:format>
         <dc:modified>2024-02-09T20:31:13.634Z</dc:modified>
         <dc:title>
            <rdf:Alt>
               <rdf:li xml:lang="x-default">Headphones icon - Red</rdf:li>
            </rdf:Alt>
         </dc:title>
         <dc:description>
            <rdf:Alt>
               <rdf:li xml:lang="x-default">time, sand, glass, timer, stopwatch, clock, track, count, objects</rdf:li>
            </rdf:Alt>
         </dc:description>
         <cq:lastReplicationAction_scene7>Activate</cq:lastReplicationAction_scene7>
         <cq:lastReplicationAction_publish>Activate</cq:lastReplicationAction_publish>
         <cq:lastReplicated_publish>2024-10-02T19:37:09.032Z</cq:lastReplicated_publish>
         <cq:lastReplicatedBy>workflow-process-service</cq:lastReplicatedBy>
         <cq:lastReplicationAction>Activate</cq:lastReplicationAction>
         <cq:lastReplicatedBy_publish>workflow-process-service</cq:lastReplicatedBy_publish>
         <cq:isDelivered>false</cq:isDelivered>
         <cq:lastReplicated>2024-10-02T19:37:09.032Z</cq:lastReplicated>
         <cq:lastReplicatedBy_scene7>workflow-process-service</cq:lastReplicatedBy_scene7>
         <cq:lastReplicated_scene7>2024-10-02T19:37:09.032Z</cq:lastReplicated_scene7>
         <tiff:ImageLength>36</tiff:ImageLength>
         <tiff:ImageWidth>36</tiff:ImageWidth>
      </rdf:Description>
   </rdf:RDF>
</x:xmpmeta>
                                                                                                    
                                                                                                    
                                                                                                    
                                                                                                    
                                                                                                    
                                                                                                    
                                                                                                    
                                                                                                    
                                                                                                 
<?xpacket end="w"?></metadata>
<defs>
    <style>
      .f4fd510e-9c65-47f0-909f-eabcb43b0225 {
        fill: #e00;
      }
    </style>
  </defs>
  <g>
    <path class="f4fd510e-9c65-47f0-909f-eabcb43b0225" d="M9,20.38H8A2.62,2.62,0,0,0,5.38,23v6A2.62,2.62,0,0,0,8,31.62H9A2.62,2.62,0,0,0,11.62,29V23A2.62,2.62,0,0,0,9,20.38ZM10.38,29A1.38,1.38,0,0,1,9,30.38H8A1.38,1.38,0,0,1,6.62,29V23A1.38,1.38,0,0,1,8,21.62H9A1.38,1.38,0,0,1,10.38,23Z"/>
    <path class="f4fd510e-9c65-47f0-909f-eabcb43b0225" d="M28,20.38H27A2.62,2.62,0,0,0,24.38,23v6A2.62,2.62,0,0,0,27,31.62h1A2.62,2.62,0,0,0,30.62,29V23A2.62,2.62,0,0,0,28,20.38ZM29.38,29A1.38,1.38,0,0,1,28,30.38H27A1.38,1.38,0,0,1,25.62,29V23A1.38,1.38,0,0,1,27,21.62h1A1.38,1.38,0,0,1,29.38,23Z"/>
    <path class="f4fd510e-9c65-47f0-909f-eabcb43b0225" d="M18,3.38A14.64,14.64,0,0,0,3.38,18v8a.62.62,0,0,0,1.24,0V18a13.38,13.38,0,0,1,26.76,0v8a.62.62,0,1,0,1.24,0V18A14.64,14.64,0,0,0,18,3.38Z"/>
  </g>
</svg>
