<svg id="a4f95bc7-e724-436a-b301-12ba69ff0583" data-name="Icon" xmlns="http://www.w3.org/2000/svg" viewBox="0 0 36 36">
  <title>Unsecured virtual server icon - White</title>
<desc>host, datacenter, computer, virtualization, infrastructure, client, unsecure, hardware, security</desc>
<metadata><?xpacket begin="﻿" id="W5M0MpCehiHzreSzNTczkc9d"?>
<x:xmpmeta xmlns:x="adobe:ns:meta/" x:xmptk="Adobe XMP Core 8.0-c001 1.000000, 0000/00/00-00:00:00        ">
   <rdf:RDF xmlns:rdf="http://www.w3.org/1999/02/22-rdf-syntax-ns#">
      <rdf:Description rdf:about=""
            xmlns:xmp="http://ns.adobe.com/xap/1.0/"
            xmlns:dc="http://purl.org/dc/elements/1.1/"
            xmlns:cq="http://www.day.com/jcr/cq/1.0"
            xmlns:tiff="http://ns.adobe.com/tiff/1.0/">
         <xmp:rhcc-effective-on>2023-12-08T17:34:36.803Z</xmp:rhcc-effective-on>
         <xmp:rhcc-metadata-complete-moderator>pending</xmp:rhcc-metadata-complete-moderator>
         <xmp:rhcc-translation-id>TRA615aca59-6550-4ed6-be4d-41d3a3d6284f</xmp:rhcc-translation-id>
         <xmp:brand-content-type>Icon</xmp:brand-content-type>
         <xmp:CreateDate>2023-12-08T17:34:36.803Z</xmp:CreateDate>
         <xmp:rhcc-aspect-ratio>square</xmp:rhcc-aspect-ratio>
         <xmp:rhcc-effective-on-set-on-upload>true</xmp:rhcc-effective-on-set-on-upload>
         <xmp:rhcc-metadata-complete-uploader>pending</xmp:rhcc-metadata-complete-uploader>
         <xmp:rhcc-file-last-modified>2024-07-12T19:14:25.443Z</xmp:rhcc-file-last-modified>
         <xmp:rhcc-audience>rhcc-audience:internal</xmp:rhcc-audience>
         <xmp:brand-content-subtype>Icon</xmp:brand-content-subtype>
         <xmp:rhcc-rights-restricted>no</xmp:rhcc-rights-restricted>
         <xmp:rhcc-derivative-id>DER615aca59-6550-4ed6-be4d-41d3a3d6284f</xmp:rhcc-derivative-id>
         <xmp:rhcc-uploaded-by>pmeilleu@redhat.com</xmp:rhcc-uploaded-by>
         <xmp:brand-logo-color>White</xmp:brand-logo-color>
         <xmp:rhcc-notify-portal-subscribers-on-change>yes</xmp:rhcc-notify-portal-subscribers-on-change>
         <dc:format>image/svg+xml</dc:format>
         <dc:modified>2024-02-09T20:13:24.530Z</dc:modified>
         <dc:title>
            <rdf:Alt>
               <rdf:li xml:lang="x-default">Unsecured virtual server icon - White</rdf:li>
            </rdf:Alt>
         </dc:title>
         <dc:description>
            <rdf:Alt>
               <rdf:li xml:lang="x-default">host, datacenter, computer, virtualization, infrastructure, client, unsecure, hardware, security</rdf:li>
            </rdf:Alt>
         </dc:description>
         <cq:lastReplicationAction_scene7>Activate</cq:lastReplicationAction_scene7>
         <cq:lastReplicationAction_publish>Activate</cq:lastReplicationAction_publish>
         <cq:lastReplicated_publish>2024-10-02T19:47:32.898Z</cq:lastReplicated_publish>
         <cq:lastReplicatedBy>workflow-process-service</cq:lastReplicatedBy>
         <cq:lastReplicationAction>Activate</cq:lastReplicationAction>
         <cq:lastReplicatedBy_publish>workflow-process-service</cq:lastReplicatedBy_publish>
         <cq:isDelivered>false</cq:isDelivered>
         <cq:lastReplicated>2024-10-02T19:47:32.898Z</cq:lastReplicated>
         <cq:lastReplicatedBy_scene7>workflow-process-service</cq:lastReplicatedBy_scene7>
         <cq:lastReplicated_scene7>2024-10-02T19:47:32.898Z</cq:lastReplicated_scene7>
         <tiff:ImageLength>36</tiff:ImageLength>
         <tiff:ImageWidth>36</tiff:ImageWidth>
      </rdf:Description>
   </rdf:RDF>
</x:xmpmeta>
                                                                                                    
                                                                                                    
                                                                                                    
                                                                                                    
                                                                                                    
                                                                                                    
                                                                                                    
                                                                                                    
                                                                                                 
<?xpacket end="w"?></metadata>
<defs>
    <style>
      .beea1641-4c6c-4e8f-b2be-8f51f2697b04 {
        fill: #fff;
      }
    </style>
  </defs>
  <g>
    <path class="beea1641-4c6c-4e8f-b2be-8f51f2697b04" d="M25.37,24.45a3.61,3.61,0,0,0,4.91,3.39l-4.91-4.9Z"/>
    <path class="beea1641-4c6c-4e8f-b2be-8f51f2697b04" d="M32.16,26.19a3.56,3.56,0,0,0,.46-1.74V21a.62.62,0,0,0-.49-.61l-3-.64a.57.57,0,0,0-.26,0l-2.59.55-.38-.38a.64.64,0,0,0-.89,0,.63.63,0,0,0,0,.88l.36.37h0l6,6h0l.45.45a.6.6,0,0,0,.88,0,.61.61,0,0,0,0-.88Z"/>
    <path class="beea1641-4c6c-4e8f-b2be-8f51f2697b04" d="M23,22.38H5.62V13.62H30.37V18a.63.63,0,0,0,.63.62.62.62,0,0,0,.62-.62V13a.62.62,0,0,0-.62-.62H5a.63.63,0,0,0-.63.62V23a.63.63,0,0,0,.63.62H23a.62.62,0,0,0,0-1.24Z"/>
    <path class="beea1641-4c6c-4e8f-b2be-8f51f2697b04" d="M9,17.38a.62.62,0,1,0,0,1.24h6a.62.62,0,0,0,0-1.24Z"/>
    <path class="beea1641-4c6c-4e8f-b2be-8f51f2697b04" d="M17.14,24.89a.63.63,0,1,0,.63.62A.62.62,0,0,0,17.14,24.89Z"/>
    <path class="beea1641-4c6c-4e8f-b2be-8f51f2697b04" d="M14.21,24.89a.63.63,0,1,0,.63.62A.62.62,0,0,0,14.21,24.89Z"/>
    <path class="beea1641-4c6c-4e8f-b2be-8f51f2697b04" d="M8.35,24.89a.63.63,0,1,0,.63.62A.62.62,0,0,0,8.35,24.89Z"/>
    <path class="beea1641-4c6c-4e8f-b2be-8f51f2697b04" d="M11.28,24.89a.63.63,0,1,0,.63.62A.62.62,0,0,0,11.28,24.89Z"/>
    <path class="beea1641-4c6c-4e8f-b2be-8f51f2697b04" d="M5.42,24.89a.63.63,0,1,0,.63.62A.62.62,0,0,0,5.42,24.89Z"/>
    <path class="beea1641-4c6c-4e8f-b2be-8f51f2697b04" d="M20.07,24.89a.63.63,0,1,0,.63.62A.62.62,0,0,0,20.07,24.89Z"/>
    <path class="beea1641-4c6c-4e8f-b2be-8f51f2697b04" d="M2.5,15.87a.63.63,0,1,0,.62.63A.63.63,0,0,0,2.5,15.87Z"/>
    <path class="beea1641-4c6c-4e8f-b2be-8f51f2697b04" d="M2.5,18.88a.63.63,0,1,0,.62.62A.63.63,0,0,0,2.5,18.88Z"/>
    <path class="beea1641-4c6c-4e8f-b2be-8f51f2697b04" d="M2.5,12.87a.63.63,0,1,0,.62.62A.63.63,0,0,0,2.5,12.87Z"/>
    <path class="beea1641-4c6c-4e8f-b2be-8f51f2697b04" d="M2.5,21.88a.63.63,0,1,0,.62.63A.63.63,0,0,0,2.5,21.88Z"/>
    <path class="beea1641-4c6c-4e8f-b2be-8f51f2697b04" d="M21.1,11.11a.63.63,0,1,0,0-1.25.63.63,0,0,0,0,1.25Z"/>
    <path class="beea1641-4c6c-4e8f-b2be-8f51f2697b04" d="M30.4,11.11a.63.63,0,1,0-.62-.62A.63.63,0,0,0,30.4,11.11Z"/>
    <path class="beea1641-4c6c-4e8f-b2be-8f51f2697b04" d="M18,11.11a.63.63,0,1,0-.63-.62A.63.63,0,0,0,18,11.11Z"/>
    <path class="beea1641-4c6c-4e8f-b2be-8f51f2697b04" d="M27.3,11.11a.63.63,0,1,0-.62-.62A.63.63,0,0,0,27.3,11.11Z"/>
    <path class="beea1641-4c6c-4e8f-b2be-8f51f2697b04" d="M14.9,11.11a.63.63,0,1,0-.63-.62A.62.62,0,0,0,14.9,11.11Z"/>
    <path class="beea1641-4c6c-4e8f-b2be-8f51f2697b04" d="M24.2,11.11a.63.63,0,1,0-.62-.62A.63.63,0,0,0,24.2,11.11Z"/>
    <path class="beea1641-4c6c-4e8f-b2be-8f51f2697b04" d="M11.8,11.11a.63.63,0,1,0-.63-.62A.62.62,0,0,0,11.8,11.11Z"/>
    <path class="beea1641-4c6c-4e8f-b2be-8f51f2697b04" d="M5.6,11.11A.63.63,0,1,0,5,10.49.62.62,0,0,0,5.6,11.11Z"/>
    <path class="beea1641-4c6c-4e8f-b2be-8f51f2697b04" d="M8.7,11.11a.63.63,0,1,0-.63-.62A.62.62,0,0,0,8.7,11.11Z"/>
    <path class="beea1641-4c6c-4e8f-b2be-8f51f2697b04" d="M33.5,12.7a.63.63,0,1,0,.63.63A.63.63,0,0,0,33.5,12.7Z"/>
    <path class="beea1641-4c6c-4e8f-b2be-8f51f2697b04" d="M33.5,15.54a.63.63,0,1,0,.63.62A.62.62,0,0,0,33.5,15.54Z"/>
    <path class="beea1641-4c6c-4e8f-b2be-8f51f2697b04" d="M33.5,11.11a.63.63,0,1,0-.62-.63A.63.63,0,0,0,33.5,11.11Z"/>
    <path class="beea1641-4c6c-4e8f-b2be-8f51f2697b04" d="M2.49,9.86a.63.63,0,1,0,.63.62A.62.62,0,0,0,2.49,9.86Z"/>
    <path class="beea1641-4c6c-4e8f-b2be-8f51f2697b04" d="M2.49,24.89a.63.63,0,1,0,.63.62A.62.62,0,0,0,2.49,24.89Z"/>
    <path class="beea1641-4c6c-4e8f-b2be-8f51f2697b04" d="M23,24.89a.63.63,0,1,0,.63.62A.62.62,0,0,0,23,24.89Z"/>
    <path class="beea1641-4c6c-4e8f-b2be-8f51f2697b04" d="M33.5,18.38a.63.63,0,1,0,.63.62A.62.62,0,0,0,33.5,18.38Z"/>
    <path class="beea1641-4c6c-4e8f-b2be-8f51f2697b04" d="M26.38,18a.63.63,0,1,0,.62-.62A.63.63,0,0,0,26.38,18Z"/>
  </g>
</svg>
