<?xml version="1.0" encoding="UTF-8"?>
<svg id="uuid-8666fb4c-2743-4f4e-9c96-e66e07de36d4" data-name="Icon" xmlns="http://www.w3.org/2000/svg" viewBox="0 0 36 36">
  <title>Individual use workspace icon - Red</title>
<desc>GWS, seat, flex space, independent, single use, office and work</desc>
<metadata><?xpacket begin="﻿" id="W5M0MpCehiHzreSzNTczkc9d"?>
<x:xmpmeta xmlns:x="adobe:ns:meta/" x:xmptk="Adobe XMP Core 8.0-c001 1.000000, 0000/00/00-00:00:00        ">
   <rdf:RDF xmlns:rdf="http://www.w3.org/1999/02/22-rdf-syntax-ns#">
      <rdf:Description rdf:about=""
            xmlns:xmp="http://ns.adobe.com/xap/1.0/"
            xmlns:dc="http://purl.org/dc/elements/1.1/"
            xmlns:cq="http://www.day.com/jcr/cq/1.0"
            xmlns:tiff="http://ns.adobe.com/tiff/1.0/">
         <xmp:rhcc-effective-on>2023-12-08T17:47:20.283Z</xmp:rhcc-effective-on>
         <xmp:rhcc-metadata-complete-moderator>pending</xmp:rhcc-metadata-complete-moderator>
         <xmp:rhcc-translation-id>TRA1cfea695-e408-403f-b984-f86c419fd65b</xmp:rhcc-translation-id>
         <xmp:brand-content-type>Icon</xmp:brand-content-type>
         <xmp:CreateDate>2023-12-08T17:47:20.283Z</xmp:CreateDate>
         <xmp:rhcc-aspect-ratio>square</xmp:rhcc-aspect-ratio>
         <xmp:rhcc-effective-on-set-on-upload>true</xmp:rhcc-effective-on-set-on-upload>
         <xmp:rhcc-metadata-complete-uploader>pending</xmp:rhcc-metadata-complete-uploader>
         <xmp:rhcc-file-last-modified>2024-07-12T18:47:04.362Z</xmp:rhcc-file-last-modified>
         <xmp:rhcc-audience>rhcc-audience:internal</xmp:rhcc-audience>
         <xmp:brand-content-subtype>Icon</xmp:brand-content-subtype>
         <xmp:rhcc-rights-restricted>no</xmp:rhcc-rights-restricted>
         <xmp:rhcc-derivative-id>DER1cfea695-e408-403f-b984-f86c419fd65b</xmp:rhcc-derivative-id>
         <xmp:rhcc-uploaded-by>pmeilleu@redhat.com</xmp:rhcc-uploaded-by>
         <xmp:brand-logo-color>Red</xmp:brand-logo-color>
         <xmp:rhcc-notify-portal-subscribers-on-change>yes</xmp:rhcc-notify-portal-subscribers-on-change>
         <dc:format>image/svg+xml</dc:format>
         <dc:modified>2024-02-09T20:24:00.666Z</dc:modified>
         <dc:title>
            <rdf:Alt>
               <rdf:li xml:lang="x-default">Individual use workspace icon - Red</rdf:li>
            </rdf:Alt>
         </dc:title>
         <dc:description>
            <rdf:Alt>
               <rdf:li xml:lang="x-default">GWS, seat, flex space, independent, single use, office and work</rdf:li>
            </rdf:Alt>
         </dc:description>
         <cq:lastReplicationAction_scene7>Activate</cq:lastReplicationAction_scene7>
         <cq:lastReplicationAction_publish>Activate</cq:lastReplicationAction_publish>
         <cq:lastReplicated_publish>2024-10-02T19:48:47.818Z</cq:lastReplicated_publish>
         <cq:lastReplicatedBy>workflow-process-service</cq:lastReplicatedBy>
         <cq:lastReplicationAction>Activate</cq:lastReplicationAction>
         <cq:lastReplicatedBy_publish>workflow-process-service</cq:lastReplicatedBy_publish>
         <cq:isDelivered>false</cq:isDelivered>
         <cq:lastReplicated>2024-10-02T19:48:47.818Z</cq:lastReplicated>
         <cq:lastReplicatedBy_scene7>workflow-process-service</cq:lastReplicatedBy_scene7>
         <cq:lastReplicated_scene7>2024-10-02T19:48:47.818Z</cq:lastReplicated_scene7>
         <tiff:ImageLength>36</tiff:ImageLength>
         <tiff:ImageWidth>36</tiff:ImageWidth>
      </rdf:Description>
   </rdf:RDF>
</x:xmpmeta>
                                                                                                    
                                                                                                    
                                                                                                    
                                                                                                    
                                                                                                    
                                                                                                    
                                                                                                    
                                                                                                    
                                                                                                 
<?xpacket end="w"?></metadata>
<defs>
    <style>
      .uuid-7065bac4-102e-42ee-861b-5c4f53ee7099 {
        fill: #e00;
      }
    </style>
  </defs>
  <path class="uuid-7065bac4-102e-42ee-861b-5c4f53ee7099" d="M6.5,29.12h15c.35,0,.62-.28,.62-.62v-9c0-.34-.28-.62-.62-.62h-5c-.82,0-.82,1.25,0,1.25h4.38v7.75H7.12v-7.75h4.38c.82,0,.82-1.25,0-1.25H6.5c-.35,0-.62,.28-.62,.62v9c0,.34,.28,.62,.62,.62Z"/>
  <path class="uuid-7065bac4-102e-42ee-861b-5c4f53ee7099" d="M23,30.38H5c-.82,0-.82,1.25,0,1.25H23c.82,0,.82-1.25,0-1.25Z"/>
  <path class="uuid-7065bac4-102e-42ee-861b-5c4f53ee7099" d="M13.56,19.94c.06,.06,.12,.11,.2,.14,.16,.05,.32,.05,.48,0,.07-.03,.14-.08,.2-.14,.06-.06,.11-.13,.14-.2,.06-.16,.06-.32,0-.48-.03-.08-.08-.14-.14-.2-.17-.18-.45-.23-.68-.14-.08,.03-.14,.08-.2,.14-.06,.06-.11,.12-.14,.2-.07,.16-.07,.32,0,.48,.03,.07,.08,.14,.14,.2Z"/>
  <path class="uuid-7065bac4-102e-42ee-861b-5c4f53ee7099" d="M24.35,14.29c4.52-2.79,2.53-9.92-2.85-9.91-5.37,0-7.37,7.12-2.85,9.91-1.07,.31-2.09,.8-3.01,1.46-.28,.2-.35,.59-.15,.87,.2,.28,.59,.35,.87,.15,5.5-4.04,13.62-.15,13.99,6.61h-5.06c-.82,0-.82,1.25,0,1.25h5.7c.35,0,.62-.28,.62-.62,0-4.59-3.08-8.48-7.28-9.71Zm-6.97-4.54c.17-5.45,8.08-5.45,8.25,0-.17,5.45-8.08,5.45-8.25,0Z"/>
</svg>