<?xml version="1.0" encoding="UTF-8"?><svg id="uuid-6cb9ef9f-edf2-42cd-9eff-59452156d7d9" xmlns="http://www.w3.org/2000/svg" width="38" height="38" viewBox="0 0 38 38"><title>Red Hat build of OpenTelemetry icon</title>
<desc>component, tool, application services, runtimes, application foundations</desc>
<metadata><?xpacket begin="﻿" id="W5M0MpCehiHzreSzNTczkc9d"?>
<x:xmpmeta xmlns:x="adobe:ns:meta/" x:xmptk="Adobe XMP Core 8.0-c001 1.000000, 0000/00/00-00:00:00        ">
   <rdf:RDF xmlns:rdf="http://www.w3.org/1999/02/22-rdf-syntax-ns#">
      <rdf:Description rdf:about=""
            xmlns:xmp="http://ns.adobe.com/xap/1.0/"
            xmlns:dc="http://purl.org/dc/elements/1.1/"
            xmlns:cq="http://www.day.com/jcr/cq/1.0"
            xmlns:tiff="http://ns.adobe.com/tiff/1.0/"
            xmlns:xmpRights="http://ns.adobe.com/xap/1.0/rights/">
         <xmp:rhcc-effective-on>2024-03-01T15:27:53.966Z</xmp:rhcc-effective-on>
         <xmp:rhcc-metadata-complete-moderator>pending</xmp:rhcc-metadata-complete-moderator>
         <xmp:rhcc-translation-id>TRA4b634e2d-6619-4be2-b104-34a1983e4417</xmp:rhcc-translation-id>
         <xmp:brand-content-type>Icon</xmp:brand-content-type>
         <xmp:CreateDate>2024-03-01T15:27:53.966Z</xmp:CreateDate>
         <xmp:rhcc-aspect-ratio>square</xmp:rhcc-aspect-ratio>
         <xmp:rhcc-effective-on-set-on-upload>true</xmp:rhcc-effective-on-set-on-upload>
         <xmp:rhcc-metadata-complete-uploader>pending</xmp:rhcc-metadata-complete-uploader>
         <xmp:rhcc-file-last-modified>2024-07-12T23:52:31.354Z</xmp:rhcc-file-last-modified>
         <xmp:rhcc-audience>rhcc-audience:internal</xmp:rhcc-audience>
         <xmp:rhcc-rights-restricted>no</xmp:rhcc-rights-restricted>
         <xmp:brand-content-subtype>Technology icon</xmp:brand-content-subtype>
         <xmp:rhcc-derivative-id>DER4b634e2d-6619-4be2-b104-34a1983e4417</xmp:rhcc-derivative-id>
         <xmp:rhcc-uploaded-by>pmeilleu@redhat.com</xmp:rhcc-uploaded-by>
         <xmp:brand-logo-color>Black</xmp:brand-logo-color>
         <xmp:rhcc-notify-portal-subscribers-on-change>yes</xmp:rhcc-notify-portal-subscribers-on-change>
         <xmp:rhcc-product>
            <rdf:Bag>
               <rdf:li>rhcc-product:red-hat-runtimes</rdf:li>
            </rdf:Bag>
         </xmp:rhcc-product>
         <dc:format>image/svg+xml</dc:format>
         <dc:modified>2024-05-10T14:06:49.042Z</dc:modified>
         <dc:title>
            <rdf:Alt>
               <rdf:li xml:lang="x-default">Red Hat build of OpenTelemetry icon</rdf:li>
            </rdf:Alt>
         </dc:title>
         <dc:description>
            <rdf:Alt>
               <rdf:li xml:lang="x-default">component, tool, application services, runtimes, application foundations</rdf:li>
            </rdf:Alt>
         </dc:description>
         <cq:lastReplicationAction_scene7>Activate</cq:lastReplicationAction_scene7>
         <cq:lastReplicationAction_publish>Activate</cq:lastReplicationAction_publish>
         <cq:lastReplicated_publish>2024-10-02T19:52:18.101Z</cq:lastReplicated_publish>
         <cq:lastReplicatedBy>workflow-process-service</cq:lastReplicatedBy>
         <cq:lastReplicationAction>Activate</cq:lastReplicationAction>
         <cq:lastReplicatedBy_publish>workflow-process-service</cq:lastReplicatedBy_publish>
         <cq:isDelivered>false</cq:isDelivered>
         <cq:lastReplicated>2024-10-02T19:52:18.101Z</cq:lastReplicated>
         <cq:lastReplicatedBy_scene7>workflow-process-service</cq:lastReplicatedBy_scene7>
         <cq:lastReplicated_scene7>2024-10-02T19:52:18.101Z</cq:lastReplicated_scene7>
         <tiff:ImageLength>38</tiff:ImageLength>
         <tiff:ImageWidth>38</tiff:ImageWidth>
         <xmpRights:UsageTerms>
            <rdf:Alt>
               <rdf:li xml:lang="x-default">Use technology icons to represent Red Hat products and components. Do not remove the icon from the bounding shape.</rdf:li>
            </rdf:Alt>
         </xmpRights:UsageTerms>
      </rdf:Description>
   </rdf:RDF>
</x:xmpmeta>
                                                                                                    
                                                                                                    
                                                                                                    
                                                                                                    
                                                                                                    
                                                                                                    
                                                                                                    
                                                                                                    
                                                                                                    
                                                                                                    
                                                                                                    
                                                                                                    
                                                                                                    
                                                                                                    
                                                                                                    
                                                                                                    
                                                                                   
<?xpacket end="w"?></metadata>
<path d="m28,1H10C5.02942,1,1,5.02942,1,10v18c0,4.97058,4.02942,9,9,9h18c4.97058,0,9-4.02942,9-9V10c0-4.97058-4.02942-9-9-9Zm7.75,27c0,4.27338-3.47662,7.75-7.75,7.75H10c-4.27338,0-7.75-3.47662-7.75-7.75V10c0-4.27338,3.47662-7.75,7.75-7.75h18c4.27338,0,7.75,3.47662,7.75,7.75v18Z" stroke-width="0"/><path d="m13,14.625c1.23083,0,2.25922-.85498,2.5415-2h2.19971l.81641.81689c.12207.12207.28223.18311.44238.18311s.32031-.06104.44238-.18311c.24316-.24414.24316-.63965,0-.88379l-1-1c-.11719-.11719-.27637-.18311-.44238-.18311h-2.4585c-.28229-1.14502-1.31067-2-2.5415-2-1.44727,0-2.625,1.17773-2.625,2.625s1.17773,2.625,2.625,2.625Zm0-4c.75781,0,1.375.6167,1.375,1.375s-.61719,1.375-1.375,1.375-1.375-.6167-1.375-1.375.61719-1.375,1.375-1.375Z" stroke-width="0"/><path d="m18.55762,24.55811l-.81641.81689h-2.19971c-.28229-1.14502-1.31067-2-2.5415-2-1.44727,0-2.625,1.17773-2.625,2.625s1.17773,2.625,2.625,2.625c1.23083,0,2.25922-.85498,2.5415-2h2.4585c.16602,0,.3252-.06592.44238-.18311l1-1c.24316-.24414.24316-.63965,0-.88379-.24414-.24414-.64062-.24414-.88477,0Zm-5.55762,2.81689c-.75781,0-1.375-.6167-1.375-1.375s.61719-1.375,1.375-1.375,1.375.6167,1.375,1.375-.61719,1.375-1.375,1.375Z" stroke-width="0"/><path d="m13.625,21v-1.375h2.375c.34473,0,.625-.27979.625-.625s-.28027-.625-.625-.625h-2.375v-1.375c0-.34521-.28027-.625-.625-.625h-4c-.34473,0-.625.27979-.625.625v4c0,.34521.28027.625.625.625h4c.34473,0,.625-.27979.625-.625Zm-1.25-.625h-2.75v-2.75h2.75v2.75Z" stroke-width="0"/><path d="m25.66864,21.78436c.59143-.77704.95636-1.7348.95636-2.78436,0-2.55029-2.0752-4.625-4.625-4.625s-4.625,2.07471-4.625,4.625,2.0752,4.625,4.625,4.625c1.04944,0,2.00726-.36493,2.78436-.95636l3.77325,3.77325c.12207.12207.28223.18311.44238.18311s.32031-.06104.44238-.18311c.24316-.24414.24316-.63965,0-.88379l-3.77374-3.77374Zm-7.04364-2.78436c0-1.86084,1.51367-3.375,3.375-3.375s3.375,1.51416,3.375,3.375-1.51367,3.375-3.375,3.375-3.375-1.51416-3.375-3.375Z" stroke-width="0"/></svg>