<?xml version="1.0" encoding="UTF-8"?><svg id="uuid-80b2ca3e-c8de-4712-86b7-238f5489c29a" xmlns="http://www.w3.org/2000/svg" viewBox="0 0 36 36"><title>Storage classes</title>
<desc>provisioning, dynamic, type, cylinder, store, stack, PV, PVC, OpenShift, pipelines, AI, ML, parameters, server</desc>
<metadata><?xpacket begin="﻿" id="W5M0MpCehiHzreSzNTczkc9d"?>
<x:xmpmeta xmlns:x="adobe:ns:meta/" x:xmptk="Adobe XMP Core 8.0-c001 1.000000, 0000/00/00-00:00:00        ">
   <rdf:RDF xmlns:rdf="http://www.w3.org/1999/02/22-rdf-syntax-ns#">
      <rdf:Description rdf:about=""
            xmlns:xmp="http://ns.adobe.com/xap/1.0/"
            xmlns:tiff="http://ns.adobe.com/tiff/1.0/"
            xmlns:dc="http://purl.org/dc/elements/1.1/">
         <xmp:rhcc-effective-on>2024-08-09T21:23:53.207Z</xmp:rhcc-effective-on>
         <xmp:rhcc-rights-restricted>no</xmp:rhcc-rights-restricted>
         <xmp:brand-content-subtype>Icon</xmp:brand-content-subtype>
         <xmp:rhcc-metadata-complete-moderator>pending</xmp:rhcc-metadata-complete-moderator>
         <xmp:rhcc-translation-id>TRAeba43866-e34c-4eea-830a-d0bc72bdb482</xmp:rhcc-translation-id>
         <xmp:brand-content-type>Icon</xmp:brand-content-type>
         <xmp:CreateDate>2024-08-09T21:23:53.207Z</xmp:CreateDate>
         <xmp:rhcc-derivative-id>DEReba43866-e34c-4eea-830a-d0bc72bdb482</xmp:rhcc-derivative-id>
         <xmp:rhcc-effective-on-set-on-upload>true</xmp:rhcc-effective-on-set-on-upload>
         <xmp:rhcc-uploaded-by>ryawilli@redhat.com</xmp:rhcc-uploaded-by>
         <xmp:brand-logo-color>White</xmp:brand-logo-color>
         <xmp:rhcc-metadata-complete-uploader>pending</xmp:rhcc-metadata-complete-uploader>
         <xmp:rhcc-file-last-modified>2024-08-09T21:24:02.531Z</xmp:rhcc-file-last-modified>
         <xmp:rhcc-audience>rhcc-audience:internal</xmp:rhcc-audience>
         <xmp:rhcc-notify-portal-subscribers-on-change>yes</xmp:rhcc-notify-portal-subscribers-on-change>
         <tiff:ImageLength>36</tiff:ImageLength>
         <tiff:ImageWidth>36</tiff:ImageWidth>
         <dc:format>image/svg+xml</dc:format>
         <dc:modified>2024-08-09T21:24:11.224Z</dc:modified>
         <dc:description>
            <rdf:Alt>
               <rdf:li xml:lang="x-default">provisioning, dynamic, type, cylinder, store, stack, PV, PVC, OpenShift, pipelines, AI, ML, parameters, server</rdf:li>
            </rdf:Alt>
         </dc:description>
         <dc:title>
            <rdf:Alt>
               <rdf:li xml:lang="x-default">Storage classes</rdf:li>
            </rdf:Alt>
         </dc:title>
      </rdf:Description>
   </rdf:RDF>
</x:xmpmeta>
                                                                                                    
                                                                                                    
                                                                                                    
                                                                                                    
                                                                                                    
                                                                                                    
                                                                                                    
                                                                                                    
                                                                                                    
                                                                                                    
                                                                                                    
                                                                                                    
                                                                                                    
                                                                                                    
                                                                                                    
                                                                                                    
                                                                                                    
                                                                                                    
                  
<?xpacket end="w"?></metadata>
<defs><style>.uuid-d43027d2-16ad-4cdc-9e6a-5fe379486f96{fill:#fff;stroke-width:0px;}</style></defs><path class="uuid-d43027d2-16ad-4cdc-9e6a-5fe379486f96" d="M31,17.3516c-.3584,0-.6484.29-.6484.6484,0,3.4424-5.6562,6.3516-12.3516,6.3516s-12.3516-2.9092-12.3516-6.3516c0-.3584-.29-.6484-.6484-.6484s-.6484.29-.6484.6484v6c0,4.2891,5.9951,7.6484,13.6484,7.6484s13.6484-3.3594,13.6484-7.6484v-6c0-.3584-.29-.6484-.6484-.6484ZM18,30.3516c-6.6953,0-12.3516-2.9092-12.3516-6.3516v-2.7116c2.1587,2.5969,6.8143,4.36,12.3516,4.36s10.1929-1.7632,12.3516-4.36v2.7116c0,3.4424-5.6562,6.3516-12.3516,6.3516Z"/><path class="uuid-d43027d2-16ad-4cdc-9e6a-5fe379486f96" d="M31,12.8799c-.3452,0-.625.2803-.625.625v1.4951c0,.3447.2798.625.625.625s.625-.2803.625-.625v-1.4951c0-.3447-.2798-.625-.625-.625Z"/><path class="uuid-d43027d2-16ad-4cdc-9e6a-5fe379486f96" d="M13.7617,5.0054c.0376,0,.0757-.0034.1143-.0103.8911-.1655,1.8184-.2764,2.7554-.3306.3447-.02.6079-.3154.5879-.6602-.02-.3442-.3262-.605-.6602-.5879-.9888.0571-1.9683.1748-2.9106.3491-.3394.063-.5635.3892-.501.7285.0562.3013.3188.5112.6143.5112Z"/><path class="uuid-d43027d2-16ad-4cdc-9e6a-5fe379486f96" d="M19.4102,4.667c.9399.0562,1.8667.1689,2.7544.3354.0391.0073.0776.0107.1157.0107.2949,0,.5576-.2095.6138-.5098.0635-.3394-.1597-.666-.499-.7295-.939-.1763-1.918-.2954-2.9106-.355-.3589-.0137-.6406.2427-.6611.5869s.2422.6406.5869.6611Z"/><path class="uuid-d43027d2-16ad-4cdc-9e6a-5fe379486f96" d="M30.3618,10.71c.0298.3242.3022.5684.6221.5684.0186,0,.0376-.001.0571-.0029.3438-.0312.5972-.335.5659-.6787-.0928-1.0215-.5298-1.999-1.2988-2.9053-.2227-.2627-.6167-.2959-.8809-.0723-.2632.2236-.2954.6172-.0723.8809.5991.7061.938,1.4502,1.0068,2.21Z"/><path class="uuid-d43027d2-16ad-4cdc-9e6a-5fe379486f96" d="M24.834,5.7041c.9155.3184,1.7495.6992,2.4785,1.1318.1001.0591.21.0874.3184.0874.2134,0,.4214-.1094.5381-.3062.1763-.2969.0781-.6802-.2188-.8564-.8008-.4751-1.7114-.8916-2.7061-1.2373-.3276-.1138-.6821.0591-.7954.3853-.1133.3257.0591.6821.3853.7954Z"/><path class="uuid-d43027d2-16ad-4cdc-9e6a-5fe379486f96" d="M8.4058,6.9019c.1079,0,.2173-.0278.3169-.0864.7305-.4307,1.5659-.8086,2.4824-1.1245.3262-.1123.4995-.4678.3872-.7944-.1123-.3257-.4673-.5005-.7944-.3872-.9951.3428-1.9072.7563-2.71,1.229-.2974.1753-.3965.5586-.2212.856.1167.1978.3252.3076.5391.3076Z"/><path class="uuid-d43027d2-16ad-4cdc-9e6a-5fe379486f96" d="M4.9556,11.2324c.0215.002.043.0029.0645.0029.3164,0,.5879-.2393.6206-.5615.0776-.7578.4238-1.499,1.0293-2.2041.2251-.2617.1948-.6562-.0669-.8809-.2627-.2266-.6567-.1953-.8813.0664-.7749.9023-1.2202,1.875-1.3242,2.8916-.0352.3428.2144.6504.5581.6855Z"/><path class="uuid-d43027d2-16ad-4cdc-9e6a-5fe379486f96" d="M5,15.625c.3452,0,.625-.2803.625-.625v-1.4951c0-.3447-.2798-.625-.625-.625s-.625.2803-.625.625v1.4951c0,.3447.2798.625.625.625Z"/><path class="uuid-d43027d2-16ad-4cdc-9e6a-5fe379486f96" d="M27.6597,14.9482c-.3765.2451-.7925.4775-1.2358.6924-.311.1504-.4409.5244-.2905.835.1079.2227.3306.3525.563.3525.0913,0,.1841-.0195.2715-.0625.4907-.2373.9526-.4961,1.3726-.7686.2896-.1885.3716-.5752.1836-.8652-.188-.2881-.5747-.3711-.8643-.1836Z"/><path class="uuid-d43027d2-16ad-4cdc-9e6a-5fe379486f96" d="M11.1089,16.9473c-.0991.3301.0889.6787.4194.7773.8135.2432,1.6768.4414,2.5664.5879.0347.0049.0684.0078.1025.0078.3003,0,.5654-.2168.6157-.5234.0562-.3408-.1748-.6621-.5151-.7178-.8374-.1387-1.6489-.3242-2.4111-.5518-.3335-.0977-.6787.0889-.7778.4199Z"/><path class="uuid-d43027d2-16ad-4cdc-9e6a-5fe379486f96" d="M21.21,17.7939c.0508.3057.3159.5225.6157.5225.0342,0,.0684-.0029.103-.0088.8877-.1465,1.7505-.3447,2.5654-.5889.3306-.0986.5186-.4473.4194-.7773-.0991-.3311-.4487-.5166-.7778-.4199-.7646.2285-1.5757.415-2.4111.5537-.3408.0557-.5708.3779-.5146.7188Z"/><path class="uuid-d43027d2-16ad-4cdc-9e6a-5fe379486f96" d="M16.1108,17.9355c-.0181.3447.2471.6387.5918.6562.4272.0225.8599.0332,1.2988.0332.4458-.001.8857-.0127,1.3203-.0361.3447-.0186.6094-.3125.5908-.6572-.0181-.3447-.3154-.6182-.6572-.5908-.8203.042-1.6709.0439-2.4883.0029-.3545-.0293-.6387.2471-.6562.5918Z"/><path class="uuid-d43027d2-16ad-4cdc-9e6a-5fe379486f96" d="M7.6597,15.9971c.4199.2725.8818.5312,1.3726.7686.0874.043.1802.0625.2715.0625.2324,0,.4551-.1299.563-.3525.1504-.3105.0205-.6846-.2905-.835-.4434-.2148-.8594-.4473-1.2358-.6924-.2896-.1875-.6758-.1045-.8643.1836-.188.29-.106.6768.1836.8652Z"/></svg>