<?xml version="1.0" encoding="UTF-8"?><svg xmlns="http://www.w3.org/2000/svg" width="38" height="38" viewBox="0 0 38 38"><title>Red Hat In-Vehicle Operating System icon</title>
<desc>transportation, car, cars, automotive, transit, drive, driving, edge</desc>
<metadata><?xpacket begin="﻿" id="W5M0MpCehiHzreSzNTczkc9d"?>
<x:xmpmeta xmlns:x="adobe:ns:meta/" x:xmptk="Adobe XMP Core 8.0-c001 1.000000, 0000/00/00-00:00:00        ">
   <rdf:RDF xmlns:rdf="http://www.w3.org/1999/02/22-rdf-syntax-ns#">
      <rdf:Description rdf:about=""
            xmlns:xmp="http://ns.adobe.com/xap/1.0/"
            xmlns:tiff="http://ns.adobe.com/tiff/1.0/"
            xmlns:dc="http://purl.org/dc/elements/1.1/">
         <xmp:rhcc-rights-restricted>no</xmp:rhcc-rights-restricted>
         <xmp:brand-content-type>Icon</xmp:brand-content-type>
         <xmp:rhcc-file-last-modified>2025-07-18T15:33:05.196Z</xmp:rhcc-file-last-modified>
         <xmp:brand-content-subtype>Technology</xmp:brand-content-subtype>
         <xmp:brand-colorway>
            <rdf:Bag>
               <rdf:li>colorway:standard</rdf:li>
            </rdf:Bag>
         </xmp:brand-colorway>
         <xmp:rhcc-industry>
            <rdf:Bag>
               <rdf:li>rhcc-industry:automotive</rdf:li>
               <rdf:li>rhcc-industry:transportation</rdf:li>
            </rdf:Bag>
         </xmp:rhcc-industry>
         <xmp:rhcc-product>
            <rdf:Bag>
               <rdf:li>rhcc-product:red-hat-device-edge</rdf:li>
            </rdf:Bag>
         </xmp:rhcc-product>
         <tiff:ImageLength>38</tiff:ImageLength>
         <tiff:ImageWidth>38</tiff:ImageWidth>
         <dc:modified>2025-07-18T15:35:12.037Z</dc:modified>
         <dc:format>image/svg+xml</dc:format>
         <dc:title>
            <rdf:Alt>
               <rdf:li xml:lang="x-default">Red Hat In-Vehicle Operating System icon</rdf:li>
            </rdf:Alt>
         </dc:title>
         <dc:description>
            <rdf:Alt>
               <rdf:li xml:lang="x-default">transportation, car, cars, automotive, transit, drive, driving, edge</rdf:li>
            </rdf:Alt>
         </dc:description>
      </rdf:Description>
   </rdf:RDF>
</x:xmpmeta>
                                                                                                    
                                                                                                    
                                                                                                    
                                                                                                    
                                                                                                    
                                                                                                    
                                                                                                    
                                                                                                    
                                                                                                    
                                                                                                    
                                                                                                    
                                                                                                    
                                                                                                    
                                                                                                    
                                                                                                    
                                                                                                    
                                                                                                    
                       
<?xpacket end="w"?></metadata>
<defs><style>.uuid-35bcb953-2117-4546-a004-4bd05e5f3514{fill:#4d4d4d;}.uuid-658501b5-0e7e-4843-9224-4bcb4c9dfcf3{fill:#fff;}.uuid-a8cf4ac3-5583-4571-9d6c-312636bad413{fill:#e00;}</style></defs><g id="uuid-9d408199-c0e2-488f-9373-2208fc0960f4"><rect x="1" y="1" width="36" height="36" rx="9" ry="9"/><path class="uuid-35bcb953-2117-4546-a004-4bd05e5f3514" d="M28,2.25c4.27336,0,7.75,3.47664,7.75,7.75v18c0,4.27336-3.47664,7.75-7.75,7.75H10c-4.27336,0-7.75-3.47664-7.75-7.75V10c0-4.27336,3.47664-7.75,7.75-7.75h18M28,1H10C5.02944,1,1,5.02943,1,10v18c0,4.97057,4.02944,9,9,9h18c4.97056,0,9-4.02943,9-9V10c0-4.97057-4.02944-9-9-9h0Z"/></g><g id="uuid-c170fab9-680d-4a97-8550-fa995cc56d21"><path class="uuid-a8cf4ac3-5583-4571-9d6c-312636bad413" d="M16.3999,30.45996c-.3999-.09033-.66016-.49023-.57031-.89014h0c.09033-.41016.5-.66016.90039-.56982h0c.3999.08984.65967.48975.56982.8999h0c-.08008.33984-.39014.58008-.72998.58008h0c-.06006,0-.12012-.01025-.16992-.02002ZM20.72949,29.88965c-.09961-.3999.16016-.7998.56055-.8999v.01025c.39941-.1001.80957.1499.89941.56006h0c.09082.3999-.15918.7998-.56934.8999h0c-.05078.00977-.11035.02002-.16016.02002h0c-.35059,0-.66016-.24023-.73047-.59033ZM11.68994,28.19971h0c-.33008-.25977-.37988-.72998-.12012-1.06006h0c.25977-.31982.72998-.36963,1.0498-.11963h0c.32031.25977.38037.72998.12012,1.05957h0c-.1499.18018-.37012.28027-.58984.28027h0c-.16016,0-.32031-.0498-.45996-.16016ZM25.28027,28.06982c-.26074-.33008-.21094-.7998.11914-1.06006h0c.32031-.25977.79004-.19971,1.05078.12012h0c.25977.31982.19922.79004-.12012,1.0498h0c-.14062.11035-.2998.16992-.4707.16992h0c-.21973,0-.42969-.09961-.5791-.27979ZM8.41992,24.11963c-.18018-.36963-.02002-.81982.3501-1h0c.36963-.17969.81982-.02979,1,.34033h0c.17969.37988.02979.81982-.3501,1.00977h0c-.1001.05029-.20996.07031-.32031.07031h0c-.27979,0-.5498-.16016-.67969-.42041ZM28.58984,24.44971c-.37988-.17969-.53027-.62988-.34961-1h0c.17969-.37988.62988-.52979,1-.3501h0c.36914.18018.5293.62012.34961,1h0c-.12988.27002-.40039.42041-.66992.42041h0c-.11035,0-.23047-.02002-.33008-.07031ZM7.25,19.02002c0-.41016.32959-.75.75-.75h0c.40967,0,.75.33984.75.75h0c0,.41992-.33008.75-.75.75h0c-.41016,0-.75-.33008-.75-.75ZM29.25,19v-.02002h0v-.02002h0c0-.41992.33008-.75.75-.75h0c.41016-.01025.75.33008.75.73975h0v.03027h0v.02002h0c0,.41992-.33008.75-.75.75h0c-.41016,0-.75-.33008-.75-.75ZM8.75,14.91992c-.37012-.16992-.53027-.62012-.3501-.99023h0c.17969-.37988.62988-.52979,1-.35986h0c.37988.18018.52979.62988.3501,1h0c-.13037.27002-.39014.43018-.67041.43018h0c-.10986,0-.21973-.02002-.32959-.08008ZM28.21973,14.52002c-.17969-.38037-.03027-.82031.34961-1.01025h0c.37012-.18018.82031-.02002,1,.3501h0c.18066.37012.03027.81982-.34961,1h0c-.09961.0498-.20996.08008-.32031.08008h0c-.2793,0-.5498-.16016-.67969-.41992ZM11.54004,10.88965c-.26025-.32959-.21045-.7998.10986-1.06006h0c.31982-.25977.7998-.19971,1.06006.12012h0c.25.32031.19971.79004-.12012,1.05029h0c-.14014.10986-.2998.16992-.47021.16992h0c-.21973,0-.43994-.1001-.57959-.28027ZM25.35938,10.95996c-.31934-.25-.37988-.72998-.11914-1.05029h0c.25977-.31982.72949-.37988,1.05957-.11963h0c.32031.25977.37012.72998.12012,1.0498h0c-.15039.18994-.37012.29004-.58984.29004h0c-.16016,0-.33008-.06006-.4707-.16992ZM15.79004,8.44971c-.09033-.3999.15967-.81006.55957-.8999h0c.41016-.08984.81006.16016.90039.56006h0c.09961.41016-.16016.81006-.56006.8999h0c-.06006.01025-.11035.02002-.16992.02002h0c-.34033,0-.65039-.23975-.72998-.58008ZM21.25,9c-.40039-.09033-.66016-.49023-.57031-.90039h0c.08984-.3999.5-.65967.90039-.56982h0c.39941.08984.66016.5.56934.8999h0c-.08008.3501-.38965.59033-.72949.59033h0c-.06055,0-.11035-.01025-.16992-.02002Z"/><path class="uuid-658501b5-0e7e-4843-9224-4bcb4c9dfcf3" d="M24,23.125h-8.75c-2.13672,0-3.875-1.73828-3.875-3.875s1.73828-3.875,3.875-3.875c.08057,0,.16016.00293.23926.00781.854-1.5376,2.479-2.50781,4.26074-2.50781,2.61133,0,4.74902,2.06348,4.87012,4.64502,1.1748.36963,2.00488,1.4585,2.00488,2.72998,0,1.42773-1.0459,2.61572-2.41211,2.83789-.06641.02393-.1377.03711-.21289.03711ZM15.25,16.625c-1.44727,0-2.625,1.17773-2.625,2.625s1.17773,2.625,2.625,2.625h8.5c.89648,0,1.625-.729,1.625-1.625,0-.82715-.625-1.5166-1.4541-1.60449-.33398-.03516-.58008-.32715-.55859-.66162.00781-.1167.0127-.1748.0127-.23389,0-1.99902-1.62598-3.625-3.625-3.625-1.44336,0-2.74854.85645-3.32471,2.18213-.1167.26807-.40332.41895-.68848.36523-.15771-.02979-.32031-.04736-.48682-.04736Z"/><circle cx="22.5" cy="23" r="1.5"/><path class="uuid-a8cf4ac3-5583-4571-9d6c-312636bad413" d="M22.5,25.125c-1.17188,0-2.125-.95312-2.125-2.125s.95312-2.125,2.125-2.125,2.125.95312,2.125,2.125-.95312,2.125-2.125,2.125ZM22.5,22.125c-.48242,0-.875.39258-.875.875s.39258.875.875.875.875-.39258.875-.875-.39258-.875-.875-.875Z"/><circle cx="15.5" cy="23" r="1.5"/><path class="uuid-a8cf4ac3-5583-4571-9d6c-312636bad413" d="M15.5,25.125c-1.17188,0-2.125-.95312-2.125-2.125s.95312-2.125,2.125-2.125,2.125.95312,2.125,2.125-.95312,2.125-2.125,2.125ZM15.5,22.125c-.48242,0-.875.39258-.875.875s.39258.875.875.875.875-.39258.875-.875-.39258-.875-.875-.875Z"/></g></svg>