<?xml version="1.0" encoding="UTF-8"?><svg id="uuid-952f7e50-4720-4537-a207-e4f2898cbe69" xmlns="http://www.w3.org/2000/svg" width="38" height="38" viewBox="0 0 38 38"><title>Red Hat In-Vehicle Operating System icon</title>
<desc>transportation, car, cars, automotive, transit, drive, driving, edge</desc>
<metadata><?xpacket begin="﻿" id="W5M0MpCehiHzreSzNTczkc9d"?>
<x:xmpmeta xmlns:x="adobe:ns:meta/" x:xmptk="Adobe XMP Core 8.0-c001 1.000000, 0000/00/00-00:00:00        ">
   <rdf:RDF xmlns:rdf="http://www.w3.org/1999/02/22-rdf-syntax-ns#">
      <rdf:Description rdf:about=""
            xmlns:xmp="http://ns.adobe.com/xap/1.0/"
            xmlns:tiff="http://ns.adobe.com/tiff/1.0/"
            xmlns:dc="http://purl.org/dc/elements/1.1/">
         <xmp:rhcc-rights-restricted>no</xmp:rhcc-rights-restricted>
         <xmp:brand-content-type>Icon</xmp:brand-content-type>
         <xmp:rhcc-file-last-modified>2025-07-18T15:33:05.481Z</xmp:rhcc-file-last-modified>
         <xmp:brand-content-subtype>Technology</xmp:brand-content-subtype>
         <xmp:brand-colorway>
            <rdf:Bag>
               <rdf:li>colorway:red</rdf:li>
            </rdf:Bag>
         </xmp:brand-colorway>
         <xmp:rhcc-industry>
            <rdf:Bag>
               <rdf:li>rhcc-industry:automotive</rdf:li>
               <rdf:li>rhcc-industry:transportation</rdf:li>
            </rdf:Bag>
         </xmp:rhcc-industry>
         <xmp:rhcc-product>
            <rdf:Bag>
               <rdf:li>rhcc-product:red-hat-device-edge</rdf:li>
            </rdf:Bag>
         </xmp:rhcc-product>
         <tiff:ImageLength>38</tiff:ImageLength>
         <tiff:ImageWidth>38</tiff:ImageWidth>
         <dc:modified>2025-07-18T15:35:12.633Z</dc:modified>
         <dc:format>image/svg+xml</dc:format>
         <dc:title>
            <rdf:Alt>
               <rdf:li xml:lang="x-default">Red Hat In-Vehicle Operating System icon</rdf:li>
            </rdf:Alt>
         </dc:title>
         <dc:description>
            <rdf:Alt>
               <rdf:li xml:lang="x-default">transportation, car, cars, automotive, transit, drive, driving, edge</rdf:li>
            </rdf:Alt>
         </dc:description>
      </rdf:Description>
   </rdf:RDF>
</x:xmpmeta>
                                                                                                    
                                                                                                    
                                                                                                    
                                                                                                    
                                                                                                    
                                                                                                    
                                                                                                    
                                                                                                    
                                                                                                    
                                                                                                    
                                                                                                    
                                                                                                    
                                                                                                    
                                                                                                    
                                                                                                    
                                                                    
<?xpacket end="w"?></metadata>
<defs><style>.uuid-b81a9b4b-1651-4e33-b034-8e546ebada28{fill:#e00;}</style></defs><circle class="uuid-b81a9b4b-1651-4e33-b034-8e546ebada28" cx="15.5" cy="23" r=".875"/><path class="uuid-b81a9b4b-1651-4e33-b034-8e546ebada28" d="M23.9209,18.64551c-.33398-.03516-.58008-.32715-.55859-.66162.00781-.1167.0127-.1748.0127-.23389,0-1.99902-1.62598-3.625-3.625-3.625-1.44336,0-2.74854.85645-3.32471,2.18213-.1167.26807-.40332.41895-.68848.36523-.15771-.02979-.32031-.04736-.48682-.04736-1.44727,0-2.625,1.17773-2.625,2.625,0,.98193.54871,1.82764,1.35016,2.27582.3866-.39978.92596-.65082,1.52484-.65082.75775,0,1.41925.40155,1.79553,1h3.409c.37628-.59845,1.03772-1,1.79547-1,.72205,0,1.35907.3634,1.74323.91528.65417-.21027,1.13177-.81726,1.13177-1.54028,0-.82715-.625-1.5166-1.4541-1.60449Z"/><circle class="uuid-b81a9b4b-1651-4e33-b034-8e546ebada28" cx="22.5" cy="23" r=".875"/><path class="uuid-b81a9b4b-1651-4e33-b034-8e546ebada28" d="M28,1H10C5.02942,1,1,5.02942,1,10v18c0,4.97058,4.02942,9,9,9h18c4.97058,0,9-4.02942,9-9V10c0-4.97058-4.02942-9-9-9ZM8.3999,13.92969c.17969-.37988.62988-.52979,1-.35986.37988.18018.52979.62988.3501,1-.13037.27002-.39014.43018-.67041.43018-.10986,0-.21973-.02002-.32959-.08008-.37012-.16992-.53027-.62012-.3501-.99023ZM7.25,19.02002c0-.41016.32959-.75.75-.75.40967,0,.75.33984.75.75,0,.41992-.33008.75-.75.75-.41016,0-.75-.33008-.75-.75ZM9.41992,24.46973c-.1001.05029-.20996.07031-.32031.07031-.27979,0-.5498-.16016-.67969-.42041-.18018-.36963-.02002-.81982.3501-1,.36963-.17969.81982-.02979,1,.34033.17969.37988.02979.81982-.3501,1.00977ZM25.24023,9.90967c.25977-.31982.72949-.37988,1.05957-.11963.32031.25977.37012.72998.12012,1.0498-.15039.18994-.37012.29004-.58984.29004-.16016,0-.33008-.06006-.4707-.16992-.31934-.25-.37988-.72998-.11914-1.05029ZM20.67969,8.09961c.08984-.3999.5-.65967.90039-.56982.39941.08984.66016.5.56934.8999-.08008.3501-.38965.59033-.72949.59033-.06055,0-.11035-.01025-.16992-.02002-.40039-.09033-.66016-.49023-.57031-.90039ZM16.34961,7.5498c.41016-.08984.81006.16016.90039.56006.09961.41016-.16016.81006-.56006.8999-.06006.01025-.11035.02002-.16992.02002-.34033,0-.65039-.23975-.72998-.58008-.09033-.3999.15967-.81006.55957-.8999ZM11.6499,9.82959c.31982-.25977.7998-.19971,1.06006.12012.25.32031.19971.79004-.12012,1.05029-.14014.10986-.2998.16992-.47021.16992-.21973,0-.43994-.1001-.57959-.28027-.26025-.32959-.21045-.7998.10986-1.06006ZM12.73975,28.07959c-.1499.18018-.37012.28027-.58984.28027-.16016,0-.32031-.0498-.45996-.16016-.33008-.25977-.37988-.72998-.12012-1.06006.25977-.31982.72998-.36963,1.0498-.11963.32031.25977.38037.72998.12012,1.05957ZM17.2998,29.8999c-.08008.33984-.39014.58008-.72998.58008-.06006,0-.12012-.01025-.16992-.02002-.3999-.09033-.66016-.49023-.57031-.89014.09033-.41016.5-.66016.90039-.56982.3999.08984.65967.48975.56982.8999ZM21.62012,30.45996c-.05078.00977-.11035.02002-.16016.02002-.35059,0-.66016-.24023-.73047-.59033-.09961-.3999.16016-.7998.56055-.8999v.01025c.39941-.1001.80957.1499.89941.56006.09082.3999-.15918.7998-.56934.8999ZM26.33008,28.17969c-.14062.11035-.2998.16992-.4707.16992-.21973,0-.42969-.09961-.5791-.27979-.26074-.33008-.21094-.7998.11914-1.06006.32031-.25977.79004-.19971,1.05078.12012.25977.31982.19922.79004-.12012,1.0498ZM24.62323,22.98267c.00006.00592.00177.01141.00177.01733,0,1.17188-.95312,2.125-2.125,2.125-1.12909,0-2.04626-.88727-2.11237-2h-2.77527c-.0661,1.11273-.98328,2-2.11237,2-1.17188,0-2.125-.95312-2.125-2.125,0-.12421.01611-.24432.03668-.36273-1.20837-.65399-2.03668-1.91895-2.03668-3.38727,0-2.13672,1.73828-3.875,3.875-3.875.08057,0,.16016.00293.23926.00781.854-1.5376,2.479-2.50781,4.26074-2.50781,2.61133,0,4.74902,2.06348,4.87012,4.64502,1.1748.36963,2.00488,1.4585,2.00488,2.72998,0,1.28003-.84326,2.36139-2.00177,2.73267ZM28.56934,13.50977c.37012-.18018.82031-.02002,1,.3501.18066.37012.03027.81982-.34961,1-.09961.0498-.20996.08008-.32031.08008-.2793,0-.5498-.16016-.67969-.41992-.17969-.38037-.03027-.82031.34961-1.01025ZM29.58984,24.09961c-.12988.27002-.40039.42041-.66992.42041-.11035,0-.23047-.02002-.33008-.07031-.37988-.17969-.53027-.62988-.34961-1,.17969-.37988.62988-.52979,1-.3501.36914.18018.5293.62012.34961,1ZM30.75,18.97998v.02002c0,.41992-.33008.75-.75.75-.41016,0-.75-.33008-.75-.75v-.04004c0-.41992.33008-.75.75-.75.41016-.01025.75.33008.75.73975v.03027Z"/></svg>