<?xml version="1.0" encoding="UTF-8"?><svg id="uuid-e32a03b7-f2eb-4b16-92bd-dd20ded1ebe3" xmlns="http://www.w3.org/2000/svg" viewBox="0 0 38 38"><title>Red Hat Enterprise Linux for Workstations icon</title>
<desc>RHEL, Linux platforms</desc>
<metadata><?xpacket begin="﻿" id="W5M0MpCehiHzreSzNTczkc9d"?>
<x:xmpmeta xmlns:x="adobe:ns:meta/" x:xmptk="Adobe XMP Core 8.0-c001 1.000000, 0000/00/00-00:00:00        ">
   <rdf:RDF xmlns:rdf="http://www.w3.org/1999/02/22-rdf-syntax-ns#">
      <rdf:Description rdf:about=""
            xmlns:xmp="http://ns.adobe.com/xap/1.0/"
            xmlns:dc="http://purl.org/dc/elements/1.1/"
            xmlns:cq="http://www.day.com/jcr/cq/1.0"
            xmlns:tiff="http://ns.adobe.com/tiff/1.0/"
            xmlns:xmpRights="http://ns.adobe.com/xap/1.0/rights/">
         <xmp:rhcc-effective-on>2024-03-01T15:26:46.056Z</xmp:rhcc-effective-on>
         <xmp:rhcc-metadata-complete-moderator>pending</xmp:rhcc-metadata-complete-moderator>
         <xmp:rhcc-translation-id>TRA2958d406-9f02-409e-8caf-6549f2fe90e2</xmp:rhcc-translation-id>
         <xmp:brand-content-type>Icon</xmp:brand-content-type>
         <xmp:CreateDate>2024-03-01T15:26:46.056Z</xmp:CreateDate>
         <xmp:rhcc-aspect-ratio>square</xmp:rhcc-aspect-ratio>
         <xmp:rhcc-effective-on-set-on-upload>true</xmp:rhcc-effective-on-set-on-upload>
         <xmp:rhcc-metadata-complete-uploader>pending</xmp:rhcc-metadata-complete-uploader>
         <xmp:rhcc-file-last-modified>2024-07-12T23:53:42.475Z</xmp:rhcc-file-last-modified>
         <xmp:rhcc-audience>rhcc-audience:internal</xmp:rhcc-audience>
         <xmp:rhcc-rights-restricted>no</xmp:rhcc-rights-restricted>
         <xmp:brand-content-subtype>Technology icon</xmp:brand-content-subtype>
         <xmp:rhcc-derivative-id>DER2958d406-9f02-409e-8caf-6549f2fe90e2</xmp:rhcc-derivative-id>
         <xmp:rhcc-uploaded-by>pmeilleu@redhat.com</xmp:rhcc-uploaded-by>
         <xmp:brand-logo-color>White</xmp:brand-logo-color>
         <xmp:rhcc-notify-portal-subscribers-on-change>yes</xmp:rhcc-notify-portal-subscribers-on-change>
         <xmp:rhcc-product>
            <rdf:Bag>
               <rdf:li>rhcc-product:red-hat-enterprise-linux-for-workstations</rdf:li>
               <rdf:li>rhcc-product:red-hat-enterprise-linux</rdf:li>
            </rdf:Bag>
         </xmp:rhcc-product>
         <xmp:brand-subtype>
            <rdf:Bag>
               <rdf:li>Technology icon</rdf:li>
            </rdf:Bag>
         </xmp:brand-subtype>
         <dc:format>image/svg+xml</dc:format>
         <dc:modified>2024-05-10T14:12:24.090Z</dc:modified>
         <dc:title>
            <rdf:Alt>
               <rdf:li xml:lang="x-default">Red Hat Enterprise Linux for Workstations icon</rdf:li>
            </rdf:Alt>
         </dc:title>
         <dc:description>
            <rdf:Alt>
               <rdf:li xml:lang="x-default">RHEL, Linux platforms</rdf:li>
            </rdf:Alt>
         </dc:description>
         <cq:lastReplicationAction_scene7>Activate</cq:lastReplicationAction_scene7>
         <cq:lastReplicationAction_publish>Activate</cq:lastReplicationAction_publish>
         <cq:lastReplicated_publish>2024-10-02T19:52:42.106Z</cq:lastReplicated_publish>
         <cq:lastReplicatedBy>workflow-process-service</cq:lastReplicatedBy>
         <cq:lastReplicationAction>Activate</cq:lastReplicationAction>
         <cq:lastReplicatedBy_publish>workflow-process-service</cq:lastReplicatedBy_publish>
         <cq:isDelivered>false</cq:isDelivered>
         <cq:lastReplicated>2024-10-02T19:52:42.106Z</cq:lastReplicated>
         <cq:lastReplicatedBy_scene7>workflow-process-service</cq:lastReplicatedBy_scene7>
         <cq:lastReplicated_scene7>2024-10-02T19:52:42.106Z</cq:lastReplicated_scene7>
         <tiff:ImageLength>38</tiff:ImageLength>
         <tiff:ImageWidth>38</tiff:ImageWidth>
         <xmpRights:UsageTerms>
            <rdf:Alt>
               <rdf:li xml:lang="x-default">Use technology icons to represent Red Hat products and components. Do not remove the icon from the bounding shape.</rdf:li>
            </rdf:Alt>
         </xmpRights:UsageTerms>
      </rdf:Description>
   </rdf:RDF>
</x:xmpmeta>
                                                                                                    
                                                                                                    
                                                                                                    
                                                                                                    
                                                                                                    
                                                                                                    
                                                                                                    
                                                                                                    
                                                                                                    
                                                                                                    
                                                                                                    
                                                                                                    
                                                                                                    
                                                                                                    
                                                                                                    
                                                                                                    
                                                                                                    
                                          
<?xpacket end="w"?></metadata>
<defs><style>.uuid-970c713b-040e-4011-8e09-a8d86a0f2b0f{fill:#fff;}</style></defs><rect class="uuid-970c713b-040e-4011-8e09-a8d86a0f2b0f" x="18.625" y="25.625" width="1.64453" height="1.75"/><polygon class="uuid-970c713b-040e-4011-8e09-a8d86a0f2b0f" points="25.0791 11.19238 24.22559 10.79492 20.63379 16.25391 20.63379 16.86328 21.58789 16.49023 25.0791 11.19238"/><path class="uuid-970c713b-040e-4011-8e09-a8d86a0f2b0f" d="m28,1H10C5.02942,1,1,5.02942,1,10v18c0,4.97052,4.02942,9,9,9h18c4.97058,0,9-4.02948,9-9V10c0-4.97058-4.02942-9-9-9Zm-8.61621,15.06641c0-.12207.03613-.24121.10254-.34375l3.99121-6.06641c.1709-.25879.50586-.35547.78613-.22266l2,.93164c.16504.07617.28809.22168.33789.39648.04883.1748.02051.3623-.08008.51367l-4,6.06836c-.07031.1084-.17383.19141-.29395.23828l-1.99121.77832c-.00916.00366-.0191.0022-.02838.00537l-3.64154,1.63916,3.07031,1.31543,3.01562-1.29297-1.03906-.43164c-.31934-.13184-.4707-.49805-.33789-.81641.13184-.32031.49805-.46973.81641-.33789l2.4082,1c.23242.09668.38477.32227.38574.57324.00098.25195-.14746.47949-.37891.57812l-4.62402,1.98145c-.07812.03418-.16211.05078-.24609.05078s-.16797-.0166-.24609-.05078l-4.62402-1.98145c-.22754-.09766-.37695-.32031-.37891-.56836s.14258-.47363.36816-.57617l4.62793-2.08337v-1.29846Zm8.24121,8.85742c0,.34473-.28027.625-.625.625h-5.48047v1.82617h1.48047c.34473,0,.625.28027.625.625s-.28027.625-.625.625h-7c-.34473,0-.625-.28027-.625-.625s.28027-.625.625-.625h1.375v-1.82617h-6.375c-.34473,0-.625-.28027-.625-.625v-10c0-.34473.28027-.625.625-.625h6c.34473,0,.625.28027.625.625s-.28027.625-.625.625h-5.375v8.75h14.75v-9.29883c0-.34473.28027-.625.625-.625s.625.28027.625.625v9.92383Z"/></svg>