<?xml version="1.0" encoding="UTF-8"?><svg id="uuid-843a6429-5a15-4ff9-8902-311cca0bd6b1" xmlns="http://www.w3.org/2000/svg" viewBox="0 0 38 38"><title>Red Hat OpenShift icon</title>
<desc>Cloud, Containers, Kubernetes</desc>
<metadata><?xpacket begin="﻿" id="W5M0MpCehiHzreSzNTczkc9d"?>
<x:xmpmeta xmlns:x="adobe:ns:meta/" x:xmptk="Adobe XMP Core 8.0-c001 1.000000, 0000/00/00-00:00:00        ">
   <rdf:RDF xmlns:rdf="http://www.w3.org/1999/02/22-rdf-syntax-ns#">
      <rdf:Description rdf:about=""
            xmlns:xmp="http://ns.adobe.com/xap/1.0/"
            xmlns:dc="http://purl.org/dc/elements/1.1/"
            xmlns:cq="http://www.day.com/jcr/cq/1.0"
            xmlns:tiff="http://ns.adobe.com/tiff/1.0/"
            xmlns:xmpRights="http://ns.adobe.com/xap/1.0/rights/">
         <xmp:rhcc-effective-on>2024-03-01T15:26:54.208Z</xmp:rhcc-effective-on>
         <xmp:rhcc-metadata-complete-moderator>pending</xmp:rhcc-metadata-complete-moderator>
         <xmp:rhcc-translation-id>TRA34ed0540-cab9-4cab-8239-f32ff5a5cca2</xmp:rhcc-translation-id>
         <xmp:brand-content-type>Icon</xmp:brand-content-type>
         <xmp:CreateDate>2024-03-01T15:26:54.208Z</xmp:CreateDate>
         <xmp:rhcc-aspect-ratio>square</xmp:rhcc-aspect-ratio>
         <xmp:rhcc-effective-on-set-on-upload>true</xmp:rhcc-effective-on-set-on-upload>
         <xmp:rhcc-metadata-complete-uploader>pending</xmp:rhcc-metadata-complete-uploader>
         <xmp:rhcc-file-last-modified>2024-07-12T23:52:25.263Z</xmp:rhcc-file-last-modified>
         <xmp:rhcc-audience>rhcc-audience:internal</xmp:rhcc-audience>
         <xmp:rhcc-rights-restricted>no</xmp:rhcc-rights-restricted>
         <xmp:brand-content-subtype>Technology icon</xmp:brand-content-subtype>
         <xmp:rhcc-derivative-id>DER34ed0540-cab9-4cab-8239-f32ff5a5cca2</xmp:rhcc-derivative-id>
         <xmp:rhcc-uploaded-by>pmeilleu@redhat.com</xmp:rhcc-uploaded-by>
         <xmp:brand-logo-color>White</xmp:brand-logo-color>
         <xmp:rhcc-notify-portal-subscribers-on-change>yes</xmp:rhcc-notify-portal-subscribers-on-change>
         <xmp:rhcc-product>
            <rdf:Bag>
               <rdf:li>rhcc-product:red-hat-openshift</rdf:li>
               <rdf:li>rhcc-product:red-hat-openshift-on-ibm-cloud</rdf:li>
               <rdf:li>rhcc-product:microsoft-azure-red-hat-openshift</rdf:li>
               <rdf:li>rhcc-product:red-hat-openshift-service-on-aws</rdf:li>
               <rdf:li>rhcc-product:red-hat-openshift-container-platform</rdf:li>
               <rdf:li>rhcc-product:red-hat-openshift-platform-plus</rdf:li>
            </rdf:Bag>
         </xmp:rhcc-product>
         <xmp:brand-subtype>
            <rdf:Bag>
               <rdf:li>Technology icon</rdf:li>
            </rdf:Bag>
         </xmp:brand-subtype>
         <dc:format>image/svg+xml</dc:format>
         <dc:modified>2024-05-10T14:18:23.298Z</dc:modified>
         <dc:title>
            <rdf:Alt>
               <rdf:li xml:lang="x-default">Red Hat OpenShift icon</rdf:li>
            </rdf:Alt>
         </dc:title>
         <dc:description>
            <rdf:Alt>
               <rdf:li xml:lang="x-default">Cloud, Containers, Kubernetes</rdf:li>
            </rdf:Alt>
         </dc:description>
         <cq:lastReplicationAction_scene7>Activate</cq:lastReplicationAction_scene7>
         <cq:lastReplicationAction_publish>Activate</cq:lastReplicationAction_publish>
         <cq:lastReplicated_publish>2024-10-02T19:52:45.079Z</cq:lastReplicated_publish>
         <cq:lastReplicatedBy>workflow-process-service</cq:lastReplicatedBy>
         <cq:lastReplicationAction>Activate</cq:lastReplicationAction>
         <cq:lastReplicatedBy_publish>workflow-process-service</cq:lastReplicatedBy_publish>
         <cq:isDelivered>false</cq:isDelivered>
         <cq:lastReplicated>2024-10-02T19:52:45.079Z</cq:lastReplicated>
         <cq:lastReplicatedBy_scene7>workflow-process-service</cq:lastReplicatedBy_scene7>
         <cq:lastReplicated_scene7>2024-10-02T19:52:45.079Z</cq:lastReplicated_scene7>
         <tiff:ImageLength>38</tiff:ImageLength>
         <tiff:ImageWidth>38</tiff:ImageWidth>
         <xmpRights:UsageTerms>
            <rdf:Alt>
               <rdf:li xml:lang="x-default">Use technology icons to represent Red Hat products and components. Do not remove the icon from the bounding shape.</rdf:li>
            </rdf:Alt>
         </xmpRights:UsageTerms>
      </rdf:Description>
   </rdf:RDF>
</x:xmpmeta>
                                                                                                    
                                                                                                    
                                                                                                    
                                                                                                    
                                                                                                    
                                                                                                    
                                                                                                    
                                                                                                    
                                                                                                    
                                                                                                    
                                                                                                    
                                                                                                    
                                                                                                    
                                                                                                    
                                                                                                    
                                                                                                    
                                                                                                    
                                          
<?xpacket end="w"?></metadata>
<defs><style>.uuid-fd6e8024-936e-40f5-b08e-014e8886a57b{fill:#fff;}</style></defs><path class="uuid-fd6e8024-936e-40f5-b08e-014e8886a57b" d="m28,1H10C5.02942,1,1,5.02942,1,10v18c0,4.97052,4.02942,9,9,9h18c4.97058,0,9-4.02948,9-9V10c0-4.97058-4.02942-9-9-9Zm-12.94727,9.20703c3.36328-1.49609,7.21484-.96875,10.05273,1.37695.26562.21973.30273.61328.08301.87988s-.61328.30371-.87988.08301c-2.46973-2.04102-5.82227-2.5-8.74805-1.19727-2.91602,1.29785-4.81738,4.08789-4.96289,7.28027-.01465.33496-.29102.59668-.62402.59668-.00879,0-.01855,0-.02832-.00098-.34473-.01562-.61133-.30762-.5957-.65234.16602-3.66797,2.35156-6.87402,5.70312-8.36621Zm12.59473,5.59668c.31348-.1377.68359.00098.8252.31738.13965.31445-.00195.68457-.31738.8252l-2.74023,1.2207c-.08203.03613-.16895.05371-.25391.05371-.23926,0-.4668-.1377-.57129-.37109-.13965-.31445.00195-.68457.31738-.8252l2.74023-1.2207Zm-14.55469,5.1123l-2.74023,1.2207c-.08203.03613-.16895.05371-.25391.05371-.23926,0-.4668-.1377-.57129-.37109-.13965-.31445.00195-.68457.31738-.8252l2.74023-1.2207c.3125-.13867.68359.00098.8252.31738.13965.31445-.00195.68457-.31738.8252Zm-1.2666,3.30078l-2.74121,1.21973c-.08203.03613-.16895.05371-.25391.05371-.23926,0-.46777-.1377-.57129-.37109-.13965-.31543.00195-.68457.31738-.8252l2.74121-1.21973c.3125-.1377.68457.00098.8252.31738.13965.31543-.00195.68457-.31738.8252Zm11.05566,3.57617c-1.26758.56445-2.60449.84082-3.93066.84082-2.19141,0-4.35352-.75586-6.12207-2.21777-.26562-.21973-.30273-.61328-.08301-.87988s.6123-.30273.87988-.08301c2.46875,2.04102,5.82129,2.49902,8.74805,1.19727,2.9248-1.30273,4.82715-4.10059,4.96387-7.30273.01465-.34473.29297-.6543.65039-.59766.34473.01465.6123.30566.59766.65039-.15625,3.67969-2.3418,6.89551-5.7041,8.39258Zm6.54102-14.14746l-2.74121,1.2207c-.08203.03613-.16895.05371-.25391.05371-.23926,0-.46777-.1377-.57129-.37109-.13965-.31543.00195-.68457.31738-.8252l2.74121-1.2207c.3125-.13672.68457.00098.8252.31738.13965.31543-.00195.68457-.31738.8252Z"/></svg>