<?xml version="1.0" encoding="UTF-8"?><svg id="uuid-65179006-1a68-42e5-aa15-cee52b063079" xmlns="http://www.w3.org/2000/svg" width="38" height="38" viewBox="0 0 38 38"><title>Red Hat Trusted Profile Analyzer icon</title>
<desc>Cloud, RHTPA</desc>
<metadata><?xpacket begin="﻿" id="W5M0MpCehiHzreSzNTczkc9d"?>
<x:xmpmeta xmlns:x="adobe:ns:meta/" x:xmptk="Adobe XMP Core 8.0-c001 1.000000, 0000/00/00-00:00:00        ">
   <rdf:RDF xmlns:rdf="http://www.w3.org/1999/02/22-rdf-syntax-ns#">
      <rdf:Description rdf:about=""
            xmlns:xmp="http://ns.adobe.com/xap/1.0/"
            xmlns:dc="http://purl.org/dc/elements/1.1/"
            xmlns:cq="http://www.day.com/jcr/cq/1.0"
            xmlns:tiff="http://ns.adobe.com/tiff/1.0/"
            xmlns:xmpRights="http://ns.adobe.com/xap/1.0/rights/">
         <xmp:rhcc-effective-on>2024-03-01T15:27:50.944Z</xmp:rhcc-effective-on>
         <xmp:rhcc-metadata-complete-moderator>pending</xmp:rhcc-metadata-complete-moderator>
         <xmp:rhcc-translation-id>TRA2e766c25-34b6-495b-9131-0437802ca270</xmp:rhcc-translation-id>
         <xmp:brand-content-type>Icon</xmp:brand-content-type>
         <xmp:CreateDate>2024-03-01T15:27:50.944Z</xmp:CreateDate>
         <xmp:rhcc-aspect-ratio>square</xmp:rhcc-aspect-ratio>
         <xmp:rhcc-effective-on-set-on-upload>true</xmp:rhcc-effective-on-set-on-upload>
         <xmp:rhcc-metadata-complete-uploader>pending</xmp:rhcc-metadata-complete-uploader>
         <xmp:rhcc-file-last-modified>2024-07-12T23:54:08.263Z</xmp:rhcc-file-last-modified>
         <xmp:rhcc-audience>rhcc-audience:internal</xmp:rhcc-audience>
         <xmp:rhcc-rights-restricted>no</xmp:rhcc-rights-restricted>
         <xmp:brand-content-subtype>Technology icon</xmp:brand-content-subtype>
         <xmp:rhcc-derivative-id>DER2e766c25-34b6-495b-9131-0437802ca270</xmp:rhcc-derivative-id>
         <xmp:rhcc-uploaded-by>pmeilleu@redhat.com</xmp:rhcc-uploaded-by>
         <xmp:brand-logo-color>White</xmp:brand-logo-color>
         <xmp:rhcc-notify-portal-subscribers-on-change>yes</xmp:rhcc-notify-portal-subscribers-on-change>
         <xmp:rhcc-product>
            <rdf:Bag>
               <rdf:li>rhcc-product:red-hat-trusted-software-supply-chain</rdf:li>
            </rdf:Bag>
         </xmp:rhcc-product>
         <xmp:brand-subtype>
            <rdf:Bag>
               <rdf:li>Technology icon</rdf:li>
            </rdf:Bag>
         </xmp:brand-subtype>
         <dc:format>image/svg+xml</dc:format>
         <dc:modified>2024-05-10T00:34:27.020Z</dc:modified>
         <dc:title>
            <rdf:Alt>
               <rdf:li xml:lang="x-default">Red Hat Trusted Profile Analyzer icon</rdf:li>
            </rdf:Alt>
         </dc:title>
         <dc:description>
            <rdf:Alt>
               <rdf:li xml:lang="x-default">Cloud, RHTPA</rdf:li>
            </rdf:Alt>
         </dc:description>
         <cq:lastReplicationAction_scene7>Activate</cq:lastReplicationAction_scene7>
         <cq:lastReplicationAction_publish>Activate</cq:lastReplicationAction_publish>
         <cq:lastReplicated_publish>2024-10-02T19:54:01.885Z</cq:lastReplicated_publish>
         <cq:lastReplicatedBy>workflow-process-service</cq:lastReplicatedBy>
         <cq:lastReplicationAction>Activate</cq:lastReplicationAction>
         <cq:lastReplicatedBy_publish>workflow-process-service</cq:lastReplicatedBy_publish>
         <cq:isDelivered>false</cq:isDelivered>
         <cq:lastReplicated>2024-10-02T19:54:01.885Z</cq:lastReplicated>
         <cq:lastReplicatedBy_scene7>workflow-process-service</cq:lastReplicatedBy_scene7>
         <cq:lastReplicated_scene7>2024-10-02T19:54:01.885Z</cq:lastReplicated_scene7>
         <tiff:ImageLength>38</tiff:ImageLength>
         <tiff:ImageWidth>38</tiff:ImageWidth>
         <xmpRights:UsageTerms>
            <rdf:Alt>
               <rdf:li xml:lang="x-default">Use technology icons to represent Red Hat products and components. Do not remove the icon from the bounding shape.</rdf:li>
            </rdf:Alt>
         </xmpRights:UsageTerms>
      </rdf:Description>
   </rdf:RDF>
</x:xmpmeta>
                                                                                                    
                                                                                                    
                                                                                                    
                                                                                                    
                                                                                                    
                                                                                                    
                                                                                                    
                                                                                                    
                                                                                                    
                                                                                                    
                                                                                                    
                                                                                                    
                                                                                                    
                                                                                                    
                                                                                                    
                                                                                                    
                                                                                                    
                                          
<?xpacket end="w"?></metadata>
<path d="m28,1H10C5.02942,1,1,5.02942,1,10v18c0,4.97058,4.02942,9,9,9h18c4.97058,0,9-4.02942,9-9V10c0-4.97058-4.02942-9-9-9Zm-15,27.625h-1c-1.44727,0-2.625-1.17773-2.625-2.625v-5c0-.7583-.6167-1.375-1.375-1.375-.34521,0-.625-.27979-.625-.625s.27979-.625.625-.625c.7583,0,1.375-.6167,1.375-1.375v-5c0-1.44727,1.17773-2.625,2.625-2.625h1c.34521,0,.625.27979.625.625s-.27979.625-.625.625h-1c-.7583,0-1.375.6167-1.375,1.375v5c0,.80029-.35986,1.51807-.92676,2,.56689.48193.92676,1.19971.92676,2v5c0,.7583.6167,1.375,1.375,1.375h1c.34521,0,.625.27979.625.625s-.27979.625-.625.625Zm10.55762-4.18311l-2.77325-2.77325c-.7771.59143-1.73492.95636-2.78436.95636-2.55029,0-4.625-2.07471-4.625-4.625s2.07471-4.625,4.625-4.625c2.5498,0,4.625,2.07471,4.625,4.625,0,1.04956-.36493,2.00732-.95636,2.78436l2.77374,2.77374c.24316.24414.24316.63965,0,.88379-.12207.12207-.28223.18311-.44238.18311s-.32031-.06104-.44238-.18311Zm6.44238-4.81689c-.75781,0-1.375.6167-1.375,1.375v5c0,1.44727-1.17773,2.625-2.625,2.625h-1c-.34473,0-.625-.27979-.625-.625s.28027-.625.625-.625h1c.75781,0,1.375-.6167,1.375-1.375v-5c0-.80029.36035-1.51807.92676-2-.56641-.48193-.92676-1.19971-.92676-2v-5c0-.7583-.61719-1.375-1.375-1.375h-1c-.34473,0-.625-.27979-.625-.625s.28027-.625.625-.625h1c1.44727,0,2.625,1.17773,2.625,2.625v5c0,.7583.61719,1.375,1.375,1.375.34473,0,.625.27979.625.625s-.28027.625-.625.625Z" fill="#fff" stroke-width="0"/><circle cx="18" cy="18" r="3.375" fill="#fff" stroke-width="0"/></svg>