<?xml version="1.0" encoding="UTF-8"?><svg id="uuid-b679af8b-d4d7-4474-b139-52fc99a9cc7b" xmlns="http://www.w3.org/2000/svg" viewBox="0 0 38 38"><title>Red Hat Advanced Cluster Security for Kubernetes icon</title>
<desc>RHACS, management, edge</desc>
<metadata><?xpacket begin="﻿" id="W5M0MpCehiHzreSzNTczkc9d"?>
<x:xmpmeta xmlns:x="adobe:ns:meta/" x:xmptk="Adobe XMP Core 8.0-c001 1.000000, 0000/00/00-00:00:00        ">
   <rdf:RDF xmlns:rdf="http://www.w3.org/1999/02/22-rdf-syntax-ns#">
      <rdf:Description rdf:about=""
            xmlns:xmp="http://ns.adobe.com/xap/1.0/"
            xmlns:dc="http://purl.org/dc/elements/1.1/"
            xmlns:cq="http://www.day.com/jcr/cq/1.0"
            xmlns:tiff="http://ns.adobe.com/tiff/1.0/"
            xmlns:xmpRights="http://ns.adobe.com/xap/1.0/rights/">
         <xmp:rhcc-effective-on>2024-03-01T15:26:33.078Z</xmp:rhcc-effective-on>
         <xmp:rhcc-metadata-complete-moderator>pending</xmp:rhcc-metadata-complete-moderator>
         <xmp:rhcc-translation-id>TRA9f6b47f1-f9af-4130-b847-aa4d030240b9</xmp:rhcc-translation-id>
         <xmp:brand-content-type>Icon</xmp:brand-content-type>
         <xmp:CreateDate>2024-03-01T15:26:33.078Z</xmp:CreateDate>
         <xmp:rhcc-aspect-ratio>square</xmp:rhcc-aspect-ratio>
         <xmp:rhcc-effective-on-set-on-upload>true</xmp:rhcc-effective-on-set-on-upload>
         <xmp:rhcc-published-asset-email-sent>true</xmp:rhcc-published-asset-email-sent>
         <xmp:rhcc-metadata-complete-uploader>pending</xmp:rhcc-metadata-complete-uploader>
         <xmp:rhcc-file-last-modified>2024-07-13T00:09:40.463Z</xmp:rhcc-file-last-modified>
         <xmp:rhcc-audience>rhcc-audience:internal</xmp:rhcc-audience>
         <xmp:rhcc-rights-restricted>no</xmp:rhcc-rights-restricted>
         <xmp:brand-content-subtype>Technology icon</xmp:brand-content-subtype>
         <xmp:rhcc-derivative-id>DER9f6b47f1-f9af-4130-b847-aa4d030240b9</xmp:rhcc-derivative-id>
         <xmp:rhcc-uploaded-by>pmeilleu@redhat.com</xmp:rhcc-uploaded-by>
         <xmp:brand-logo-color>White</xmp:brand-logo-color>
         <xmp:rhcc-notify-portal-subscribers-on-change>yes</xmp:rhcc-notify-portal-subscribers-on-change>
         <xmp:rhcc-product>
            <rdf:Bag>
               <rdf:li>rhcc-product:red-hat-advanced-cluster-security-for-kubernetes</rdf:li>
            </rdf:Bag>
         </xmp:rhcc-product>
         <xmp:brand-subtype>
            <rdf:Bag>
               <rdf:li>Technology icon</rdf:li>
            </rdf:Bag>
         </xmp:brand-subtype>
         <dc:format>image/svg+xml</dc:format>
         <dc:modified>2024-05-10T14:02:36.786Z</dc:modified>
         <dc:title>
            <rdf:Alt>
               <rdf:li xml:lang="x-default">Red Hat Advanced Cluster Security for Kubernetes icon</rdf:li>
            </rdf:Alt>
         </dc:title>
         <dc:description>
            <rdf:Alt>
               <rdf:li xml:lang="x-default">RHACS, management, edge</rdf:li>
            </rdf:Alt>
         </dc:description>
         <cq:lastReplicationAction_scene7>Activate</cq:lastReplicationAction_scene7>
         <cq:lastReplicationAction_publish>Activate</cq:lastReplicationAction_publish>
         <cq:lastReplicated_publish>2024-10-02T19:52:10.098Z</cq:lastReplicated_publish>
         <cq:lastReplicatedBy>workflow-process-service</cq:lastReplicatedBy>
         <cq:lastReplicationAction>Activate</cq:lastReplicationAction>
         <cq:lastReplicatedBy_publish>workflow-process-service</cq:lastReplicatedBy_publish>
         <cq:isDelivered>false</cq:isDelivered>
         <cq:lastReplicated>2024-10-02T19:52:10.098Z</cq:lastReplicated>
         <cq:lastReplicatedBy_scene7>workflow-process-service</cq:lastReplicatedBy_scene7>
         <cq:lastReplicated_scene7>2024-10-02T19:52:10.098Z</cq:lastReplicated_scene7>
         <tiff:ImageLength>38</tiff:ImageLength>
         <tiff:ImageWidth>38</tiff:ImageWidth>
         <xmpRights:UsageTerms>
            <rdf:Alt>
               <rdf:li xml:lang="x-default">Use technology icons to represent Red Hat products and components. Do not remove the icon from the bounding shape.</rdf:li>
            </rdf:Alt>
         </xmpRights:UsageTerms>
      </rdf:Description>
   </rdf:RDF>
</x:xmpmeta>
                                                                                                    
                                                                                                    
                                                                                                    
                                                                                                    
                                                                                                    
                                                                                                    
                                                                                                    
                                                                                                    
                                                                                                    
                                                                                                    
                                                                                                    
                                                                                                    
                                                                                                    
                                                                                                    
                                                                                                    
                                                                                                    
                                                      
<?xpacket end="w"?></metadata>
<defs><style>.uuid-78bfb67c-941f-4f4a-8fd7-b858b3b888c7{fill:#fff;}</style></defs><polygon class="uuid-78bfb67c-941f-4f4a-8fd7-b858b3b888c7" points="17.625 20.9585 17.625 22.5459 19 23.33984 20.375 22.5459 20.375 20.9585 19 20.16455 17.625 20.9585"/><path class="uuid-78bfb67c-941f-4f4a-8fd7-b858b3b888c7" d="m28,1H10C5.02942,1,1,5.02942,1,10v18c0,4.97058,4.02942,9,9,9h18c4.97058,0,9-4.02942,9-9V10c0-4.97058-4.02942-9-9-9Zm-.375,20.03662c-.02832.8916-.15527,1.72559-.37598,2.49902-.09473.33154-.43848.52295-.77246.42969-.33105-.09473-.52344-.44043-.42871-.77246.19238-.67529.30273-1.40771.32715-2.17627v-8.81006l-7.375-1.56738-7.375,1.56738v8.83008c.1084,3.40625,1.90234,5.93506,4.92285,6.91846,2.56781.83472,5.39478.26477,7.32263-1.36084h-.69177c-.34473,0-.625-.27979-.625-.625s.28027-.625.625-.625h2.17676c.34473,0,.625.27979.625.625v2.25098c0,.34521-.28027.625-.625.625s-.625-.27979-.625-.625v-.71484c-1.56152,1.33759-3.62756,2.08301-5.75293,2.08301-.94238,0-1.89453-.14453-2.81738-.44482-3.49805-1.13867-5.66016-4.16211-5.78516-8.0874v-9.35596c0-.29492.20605-.5498.49512-.61133l8-1.7002c.08594-.01855.17383-.01855.25977,0l8,1.7002c.28906.06152.49512.31641.49512.61133v9.33643Zm-5.12891-2.64795c-.33301-.03516-.57812-.32568-.55859-.65918l.00879-.1582c0-1.3291-1.08105-2.41064-2.41016-2.41064-.95996,0-1.82812.56982-2.21094,1.45117-.11621.26709-.39844.41895-.68945.36523-.10156-.01953-.20703-.03076-.31445-.03076-.93555,0-1.69629.76123-1.69629,1.69678,0,.55566.27344,1.07764.73145,1.39502.2832.19678.35352.58643.15723.87012-.19531.28174-.58594.35449-.87012.15723-.79395-.55127-1.26855-1.45703-1.26855-2.42236,0-1.64844,1.36719-2.98779,3.0166-2.9458.6543-1.09863,1.84375-1.78662,3.14453-1.78662,1.91895,0,3.49805,1.48486,3.64844,3.3667.85059.31982,1.44043,1.13477,1.44043,2.07959,0,.91113-.54492,1.72266-1.38867,2.06738-.07715.03174-.15723.04639-.23633.04639-.24609,0-.47949-.14648-.57812-.38867-.13086-.31934.02246-.68457.3418-.81494.37109-.15186.61133-.50879.61133-.91016,0-.49902-.37793-.91553-.87891-.96826Zm-.87109,2.20898v2.30908c0,.22314-.11914.42969-.3125.54102l-2,1.15479c-.09668.05615-.2041.08398-.3125.08398s-.21582-.02783-.3125-.08398l-2-1.15479c-.19336-.11133-.3125-.31787-.3125-.54102v-2.30908c0-.22314.11914-.42969.3125-.54102l2-1.15479c.19336-.1123.43164-.1123.625,0l2,1.15479c.19336.11133.3125.31787.3125.54102Z"/></svg>