<?xml version="1.0" encoding="UTF-8"?><svg id="uuid-83543658-9b5f-4025-af62-413a75373f07" xmlns="http://www.w3.org/2000/svg" viewBox="0 0 36 36"><title>Subscription icon</title>
<metadata><?xpacket begin="﻿" id="W5M0MpCehiHzreSzNTczkc9d"?>
<x:xmpmeta xmlns:x="adobe:ns:meta/" x:xmptk="Adobe XMP Core 8.0-c001 1.000000, 0000/00/00-00:00:00        ">
   <rdf:RDF xmlns:rdf="http://www.w3.org/1999/02/22-rdf-syntax-ns#">
      <rdf:Description rdf:about=""
            xmlns:xmp="http://ns.adobe.com/xap/1.0/"
            xmlns:tiff="http://ns.adobe.com/tiff/1.0/"
            xmlns:dc="http://purl.org/dc/elements/1.1/">
         <xmp:rhcc-effective-on>2024-04-03T14:20:47.278Z</xmp:rhcc-effective-on>
         <xmp:rhcc-rights-restricted>no</xmp:rhcc-rights-restricted>
         <xmp:rhcc-metadata-complete-moderator>pending</xmp:rhcc-metadata-complete-moderator>
         <xmp:rhcc-translation-id>TRA11087e8d-b575-4145-898f-c01f8b8d50ac</xmp:rhcc-translation-id>
         <xmp:brand-content-type>Icon</xmp:brand-content-type>
         <xmp:CreateDate>2024-04-03T14:20:47.278Z</xmp:CreateDate>
         <xmp:rhcc-aspect-ratio>square</xmp:rhcc-aspect-ratio>
         <xmp:rhcc-derivative-id>DER11087e8d-b575-4145-898f-c01f8b8d50ac</xmp:rhcc-derivative-id>
         <xmp:rhcc-effective-on-set-on-upload>true</xmp:rhcc-effective-on-set-on-upload>
         <xmp:rhcc-uploaded-by>ryawilli@redhat.com</xmp:rhcc-uploaded-by>
         <xmp:brand-logo-color>Red</xmp:brand-logo-color>
         <xmp:rhcc-metadata-complete-uploader>pending</xmp:rhcc-metadata-complete-uploader>
         <xmp:rhcc-file-last-modified>2024-07-12T23:36:58.417Z</xmp:rhcc-file-last-modified>
         <xmp:rhcc-audience>rhcc-audience:internal</xmp:rhcc-audience>
         <xmp:rhcc-notify-portal-subscribers-on-change>yes</xmp:rhcc-notify-portal-subscribers-on-change>
         <tiff:ImageLength>36</tiff:ImageLength>
         <tiff:ImageWidth>36</tiff:ImageWidth>
         <dc:format>image/svg+xml</dc:format>
         <dc:modified>2024-04-09T17:49:46.643Z</dc:modified>
         <dc:title>
            <rdf:Alt>
               <rdf:li xml:lang="x-default">Subscription icon</rdf:li>
            </rdf:Alt>
         </dc:title>
      </rdf:Description>
   </rdf:RDF>
</x:xmpmeta>
                                                                                                    
                                                                                                    
                                                                                                    
                                                                                                    
                                                                                                    
                                                                                                    
                                                                                                    
                                                                                                    
                                                                                                    
                                                                                                    
                                                                                                    
                                                                                                    
                                                                                                    
                                                                                                    
                                                                                                    
                                                                                                    
                                                                                                    
                                          
<?xpacket end="w"?></metadata>
<defs><style>.uuid-271cf612-c04d-438b-98f8-9e1c14e897a3{fill:#e00;stroke-width:0px;}</style></defs><path class="uuid-271cf612-c04d-438b-98f8-9e1c14e897a3" d="M29,23.375c-.7583,0-1.375-.6172-1.375-1.375v-3.0289c1.782-.9449,3-2.8175,3-4.9711,0-3.1016-2.5234-5.625-5.625-5.625-1.1061,0-2.1357.3254-3.0066.8792-.6238-.2856-1.267-.5068-1.9297-.6516.3464-.4448.5613-.9965.5613-1.6026,0-1.4473-1.1777-2.625-2.625-2.625s-2.625,1.1777-2.625,2.625c0,.6064.2151,1.1583.5618,1.6033-4.3181.9477-7.5618,4.7979-7.5618,9.3967v4c0,.7578-.6167,1.375-1.375,1.375-.3452,0-.625.2803-.625.625v3c0,.3447.2798.625.625.625h7.4067c-.0129.1247-.0317.2485-.0317.375,0,1.999,1.626,3.625,3.625,3.625s3.625-1.626,3.625-3.625c0-.1265-.0188-.2503-.0317-.375h7.4067c.3452,0,.625-.2803.625-.625v-3c0-.3447-.2798-.625-.625-.625ZM29.375,14c0,2.4121-1.9624,4.375-4.375,4.375s-4.375-1.9629-4.375-4.375,1.9624-4.375,4.375-4.375,4.375,1.9629,4.375,4.375ZM16.625,7c0-.7578.6167-1.375,1.375-1.375s1.375.6172,1.375,1.375-.6167,1.375-1.375,1.375-1.375-.6172-1.375-1.375ZM20.375,28c0,1.3096-1.0654,2.375-2.375,2.375s-2.375-1.0654-2.375-2.375c0-.1267.012-.2517.0315-.375h4.687c.0195.1233.0315.2483.0315.375ZM28.375,26.375H7.625v-1.8252c1.1465-.2812,2-1.3174,2-2.5498v-4c0-4.6182,3.7568-8.375,8.375-8.375,1.0091,0,1.984.1787,2.9115.5236-.9497,1.0076-1.5365,2.3608-1.5365,3.8514,0,3.1016,2.5234,5.625,5.625,5.625.4751,0,.934-.0656,1.375-.1771v2.5521c0,1.2324.8535,2.2686,2,2.5498v1.8252Z"/><path class="uuid-271cf612-c04d-438b-98f8-9e1c14e897a3" d="M23,14.625h1.375v1.375c0,.3447.2798.625.625.625s.625-.2803.625-.625v-1.375h1.375c.3452,0,.625-.2803.625-.625s-.2798-.625-.625-.625h-1.375v-1.375c0-.3447-.2798-.625-.625-.625s-.625.2803-.625.625v1.375h-1.375c-.3452,0-.625.2803-.625.625s.2798.625.625.625Z"/></svg>