<svg id="fd0e4a57-2f38-4452-9ba5-1acc81852cdc" data-name="Layer 1" xmlns="http://www.w3.org/2000/svg" viewBox="0 0 36 36">
  <title>Fish icon - White</title>
<desc>nemo, sea creature, water, water animal, animal, ocean, swimming, catch, fishing, industry, tank, science and nature</desc>
<metadata><?xpacket begin="﻿" id="W5M0MpCehiHzreSzNTczkc9d"?>
<x:xmpmeta xmlns:x="adobe:ns:meta/" x:xmptk="Adobe XMP Core 8.0-c001 1.000000, 0000/00/00-00:00:00        ">
   <rdf:RDF xmlns:rdf="http://www.w3.org/1999/02/22-rdf-syntax-ns#">
      <rdf:Description rdf:about=""
            xmlns:xmp="http://ns.adobe.com/xap/1.0/"
            xmlns:dc="http://purl.org/dc/elements/1.1/"
            xmlns:cq="http://www.day.com/jcr/cq/1.0"
            xmlns:tiff="http://ns.adobe.com/tiff/1.0/">
         <xmp:rhcc-effective-on>2023-12-08T17:41:05.491Z</xmp:rhcc-effective-on>
         <xmp:rhcc-metadata-complete-moderator>pending</xmp:rhcc-metadata-complete-moderator>
         <xmp:rhcc-translation-id>TRA9f8c885f-09c6-4b3a-bf3c-0e9cc1f1e8a3</xmp:rhcc-translation-id>
         <xmp:brand-content-type>Icon</xmp:brand-content-type>
         <xmp:CreateDate>2023-12-08T17:41:05.491Z</xmp:CreateDate>
         <xmp:rhcc-aspect-ratio>square</xmp:rhcc-aspect-ratio>
         <xmp:rhcc-effective-on-set-on-upload>true</xmp:rhcc-effective-on-set-on-upload>
         <xmp:rhcc-published-asset-email-sent>true</xmp:rhcc-published-asset-email-sent>
         <xmp:rhcc-metadata-complete-uploader>pending</xmp:rhcc-metadata-complete-uploader>
         <xmp:rhcc-file-last-modified>2024-07-12T21:30:58.362Z</xmp:rhcc-file-last-modified>
         <xmp:rhcc-audience>rhcc-audience:internal</xmp:rhcc-audience>
         <xmp:brand-content-subtype>Icon</xmp:brand-content-subtype>
         <xmp:rhcc-rights-restricted>no</xmp:rhcc-rights-restricted>
         <xmp:rhcc-derivative-id>DER9f8c885f-09c6-4b3a-bf3c-0e9cc1f1e8a3</xmp:rhcc-derivative-id>
         <xmp:rhcc-uploaded-by>pmeilleu@redhat.com</xmp:rhcc-uploaded-by>
         <xmp:brand-logo-color>White</xmp:brand-logo-color>
         <xmp:rhcc-notify-portal-subscribers-on-change>yes</xmp:rhcc-notify-portal-subscribers-on-change>
         <dc:format>image/svg+xml</dc:format>
         <dc:modified>2024-02-09T20:26:23.680Z</dc:modified>
         <dc:title>
            <rdf:Alt>
               <rdf:li xml:lang="x-default">Fish icon - White</rdf:li>
            </rdf:Alt>
         </dc:title>
         <dc:description>
            <rdf:Alt>
               <rdf:li xml:lang="x-default">nemo, sea creature, water, water animal, animal, ocean, swimming, catch, fishing, industry, tank, science and nature</rdf:li>
            </rdf:Alt>
         </dc:description>
         <cq:lastReplicationAction_scene7>Activate</cq:lastReplicationAction_scene7>
         <cq:lastReplicationAction_publish>Activate</cq:lastReplicationAction_publish>
         <cq:lastReplicated_publish>2024-10-02T19:35:14.033Z</cq:lastReplicated_publish>
         <cq:lastReplicatedBy>workflow-process-service</cq:lastReplicatedBy>
         <cq:lastReplicationAction>Activate</cq:lastReplicationAction>
         <cq:lastReplicatedBy_publish>workflow-process-service</cq:lastReplicatedBy_publish>
         <cq:isDelivered>false</cq:isDelivered>
         <cq:lastReplicated>2024-10-02T19:35:14.033Z</cq:lastReplicated>
         <cq:lastReplicatedBy_scene7>workflow-process-service</cq:lastReplicatedBy_scene7>
         <cq:lastReplicated_scene7>2024-10-02T19:35:14.033Z</cq:lastReplicated_scene7>
         <tiff:ImageLength>36</tiff:ImageLength>
         <tiff:ImageWidth>36</tiff:ImageWidth>
      </rdf:Description>
   </rdf:RDF>
</x:xmpmeta>
                                                                                                    
                                                                                                    
                                                                                                    
                                                                                                    
                                                                                                    
                                                                                                    
                                                                                                    
                                                                                                    
        
<?xpacket end="w"?></metadata>
<defs>
    <style>
      .a7d0dec6-c5f4-4f78-b58a-a45c8f284149 {
        fill: #fff;
      }
    </style>
  </defs>
  <g>
    <path class="a7d0dec6-c5f4-4f78-b58a-a45c8f284149" d="M22.5,11.625A2.125,2.125,0,1,1,24.625,9.5,2.127,2.127,0,0,1,22.5,11.625Zm0-3a.875.875,0,1,0,.875.875A.877.877,0,0,0,22.5,8.625Z"/>
    <path class="a7d0dec6-c5f4-4f78-b58a-a45c8f284149" d="M30.622,5.913a1.62,1.62,0,0,0-1.771.352L27.625,7.491V6A1.627,1.627,0,0,0,26,4.375H23A12.639,12.639,0,0,0,10.375,17v4.375H5A.626.626,0,0,0,4.375,22,9.635,9.635,0,0,0,14,31.625.625.625,0,0,0,14.625,31V25.625H19A12.639,12.639,0,0,0,31.625,13V7.414A1.62,1.62,0,0,0,30.622,5.913ZM5.648,22.625h4.79a3.621,3.621,0,0,0,2.937,2.937v4.79A8.388,8.388,0,0,1,5.648,22.625ZM30.375,13A11.387,11.387,0,0,1,19,24.375H14A2.377,2.377,0,0,1,11.625,22V17A11.388,11.388,0,0,1,23,5.625h3A.375.375,0,0,1,26.375,6V9a.626.626,0,0,0,1.067.443L29.735,7.15a.374.374,0,0,1,.64.264Z"/>
    <path class="a7d0dec6-c5f4-4f78-b58a-a45c8f284149" d="M20.414,19.211a2.625,2.625,0,0,1-1.856-4.482.625.625,0,0,1,.884.885,1.374,1.374,0,0,0,0,1.944,1.408,1.408,0,0,0,1.944,0,.625.625,0,0,1,.885.883A2.61,2.61,0,0,1,20.414,19.211Z"/>
  </g>
</svg>
