<?xml version="1.0" encoding="UTF-8"?><svg id="uuid-4704e3dc-0f4b-49a5-903f-fd3abf205a07" xmlns="http://www.w3.org/2000/svg" viewBox="0 0 36 36"><title>Bucket icon - Red</title>
<desc>pail, sort, group, carry, hold, beach, handle, together, objects</desc>
<metadata><?xpacket begin="﻿" id="W5M0MpCehiHzreSzNTczkc9d"?>
<x:xmpmeta xmlns:x="adobe:ns:meta/" x:xmptk="Adobe XMP Core 8.0-c001 1.000000, 0000/00/00-00:00:00        ">
   <rdf:RDF xmlns:rdf="http://www.w3.org/1999/02/22-rdf-syntax-ns#">
      <rdf:Description rdf:about=""
            xmlns:xmp="http://ns.adobe.com/xap/1.0/"
            xmlns:dc="http://purl.org/dc/elements/1.1/"
            xmlns:cq="http://www.day.com/jcr/cq/1.0"
            xmlns:tiff="http://ns.adobe.com/tiff/1.0/">
         <xmp:rhcc-effective-on>2023-12-08T17:35:26.028Z</xmp:rhcc-effective-on>
         <xmp:rhcc-metadata-complete-moderator>pending</xmp:rhcc-metadata-complete-moderator>
         <xmp:rhcc-translation-id>TRA70c9e410-1dc9-4933-95d3-12c9184b5f24</xmp:rhcc-translation-id>
         <xmp:brand-content-type>Icon</xmp:brand-content-type>
         <xmp:CreateDate>2023-12-08T17:35:26.028Z</xmp:CreateDate>
         <xmp:rhcc-aspect-ratio>square</xmp:rhcc-aspect-ratio>
         <xmp:rhcc-effective-on-set-on-upload>true</xmp:rhcc-effective-on-set-on-upload>
         <xmp:rhcc-published-asset-email-sent>true</xmp:rhcc-published-asset-email-sent>
         <xmp:rhcc-metadata-complete-uploader>pending</xmp:rhcc-metadata-complete-uploader>
         <xmp:rhcc-file-last-modified>2024-07-12T22:07:28.385Z</xmp:rhcc-file-last-modified>
         <xmp:rhcc-audience>rhcc-audience:internal</xmp:rhcc-audience>
         <xmp:brand-content-subtype>Icon</xmp:brand-content-subtype>
         <xmp:rhcc-rights-restricted>no</xmp:rhcc-rights-restricted>
         <xmp:rhcc-derivative-id>DER70c9e410-1dc9-4933-95d3-12c9184b5f24</xmp:rhcc-derivative-id>
         <xmp:rhcc-uploaded-by>pmeilleu@redhat.com</xmp:rhcc-uploaded-by>
         <xmp:brand-logo-color>Red</xmp:brand-logo-color>
         <xmp:rhcc-notify-portal-subscribers-on-change>yes</xmp:rhcc-notify-portal-subscribers-on-change>
         <dc:format>image/svg+xml</dc:format>
         <dc:modified>2024-02-09T20:29:45.880Z</dc:modified>
         <dc:title>
            <rdf:Alt>
               <rdf:li xml:lang="x-default">Bucket icon - Red</rdf:li>
            </rdf:Alt>
         </dc:title>
         <dc:description>
            <rdf:Alt>
               <rdf:li xml:lang="x-default">pail, sort, group, carry, hold, beach, handle, together, objects</rdf:li>
            </rdf:Alt>
         </dc:description>
         <cq:lastReplicationAction_scene7>Activate</cq:lastReplicationAction_scene7>
         <cq:lastReplicationAction_publish>Activate</cq:lastReplicationAction_publish>
         <cq:lastReplicated_publish>2024-10-02T19:28:56.097Z</cq:lastReplicated_publish>
         <cq:lastReplicatedBy>workflow-process-service</cq:lastReplicatedBy>
         <cq:lastReplicationAction>Activate</cq:lastReplicationAction>
         <cq:lastReplicatedBy_publish>workflow-process-service</cq:lastReplicatedBy_publish>
         <cq:isDelivered>false</cq:isDelivered>
         <cq:lastReplicated>2024-10-02T19:28:56.097Z</cq:lastReplicated>
         <cq:lastReplicatedBy_scene7>workflow-process-service</cq:lastReplicatedBy_scene7>
         <cq:lastReplicated_scene7>2024-10-02T19:28:56.097Z</cq:lastReplicated_scene7>
         <tiff:ImageLength>36</tiff:ImageLength>
         <tiff:ImageWidth>36</tiff:ImageWidth>
      </rdf:Description>
   </rdf:RDF>
</x:xmpmeta>
                                                                                                    
                                                                                                    
                                                                                                    
                                                                                                    
                                                                                                    
                                                                                                    
                                                                                                    
                                                                                                    
        
<?xpacket end="w"?></metadata>
<defs><style>.uuid-a5d2bdd1-e4d9-468f-9280-009a876e0f0e{fill:#e00;}</style></defs><path class="uuid-a5d2bdd1-e4d9-468f-9280-009a876e0f0e" d="M10,13.62c.35,0,.62-.28,.62-.62,0-2.52,1.53-4.8,3.79-5.81,.08,.25,.31,.44,.59,.44h6c.28,0,.51-.19,.59-.44,2.26,1.01,3.79,3.29,3.79,5.81,0,.34,.28,.62,.62,.62s.62-.28,.62-.62c0-3.19-2.04-6.04-5-7.13v-.87c0-.34-.28-.62-.62-.62h-6c-.35,0-.62,.28-.62,.62v.87c-2.96,1.09-5,3.95-5,7.13,0,.34,.28,.62,.62,.62ZM15.62,5.62h4.75v.75h-4.75v-.75Z"/><path class="uuid-a5d2bdd1-e4d9-468f-9280-009a876e0f0e" d="M27.62,15s0-.04-.01-.06c0-.04-.01-.08-.03-.12-.01-.04-.02-.07-.04-.11-.02-.04-.04-.07-.07-.1-.02-.03-.05-.06-.08-.08-.03-.03-.06-.05-.1-.07-.04-.02-.07-.04-.11-.05-.02,0-.03-.02-.05-.02-.02,0-.04,0-.07,0-.02,0-.04-.01-.06-.01H9s-.04,.01-.06,.01c-.02,0-.05,0-.07,0-.02,0-.04,.02-.05,.02-.04,.01-.08,.03-.11,.05-.04,.02-.07,.04-.1,.07-.03,.03-.06,.05-.08,.08-.03,.03-.05,.06-.07,.1-.02,.03-.03,.07-.04,.11-.01,.04-.02,.08-.03,.12-.01,.04-.01,.08,0,.12,0,.02,0,.04,0,.07l3.4,16s.02,.04,.03,.06c.01,.03,.02,.06,.04,.09,.02,.04,.05,.08,.08,.11,.02,.02,.04,.04,.06,.06,.04,.03,.08,.06,.12,.08,.02,.01,.04,.03,.07,.04,.07,.03,.15,.05,.23,.05h11.2c.08,0,.16-.02,.23-.05,.02,0,.04-.02,.07-.04,.04-.02,.09-.05,.12-.08,.02-.02,.04-.04,.06-.06,.03-.04,.06-.07,.08-.11,.01-.03,.03-.06,.04-.09,0-.02,.02-.04,.03-.06l3.4-16s0-.04,0-.07c0-.02,.01-.04,.01-.06Zm-4.53,15.38H12.91l-3.14-14.75H26.23l-3.14,14.75Z"/></svg>