<svg id="ff01aa43-746b-4fd1-9740-a65995bd8f06" data-name="Icon" xmlns="http://www.w3.org/2000/svg" viewBox="0 0 36 36">
  <title>Beaker icon - White</title>
<desc>science, chemistry, measure, liquid measurement, science and nature</desc>
<metadata><?xpacket begin="﻿" id="W5M0MpCehiHzreSzNTczkc9d"?>
<x:xmpmeta xmlns:x="adobe:ns:meta/" x:xmptk="Adobe XMP Core 8.0-c001 1.000000, 0000/00/00-00:00:00        ">
   <rdf:RDF xmlns:rdf="http://www.w3.org/1999/02/22-rdf-syntax-ns#">
      <rdf:Description rdf:about=""
            xmlns:xmp="http://ns.adobe.com/xap/1.0/"
            xmlns:dc="http://purl.org/dc/elements/1.1/"
            xmlns:cq="http://www.day.com/jcr/cq/1.0"
            xmlns:tiff="http://ns.adobe.com/tiff/1.0/">
         <xmp:rhcc-effective-on>2023-12-08T17:40:55.705Z</xmp:rhcc-effective-on>
         <xmp:rhcc-metadata-complete-moderator>pending</xmp:rhcc-metadata-complete-moderator>
         <xmp:rhcc-translation-id>TRA474a3d7d-3b78-4a30-ab5c-3df245b01269</xmp:rhcc-translation-id>
         <xmp:brand-content-type>Icon</xmp:brand-content-type>
         <xmp:CreateDate>2023-12-08T17:40:55.705Z</xmp:CreateDate>
         <xmp:rhcc-aspect-ratio>square</xmp:rhcc-aspect-ratio>
         <xmp:rhcc-effective-on-set-on-upload>true</xmp:rhcc-effective-on-set-on-upload>
         <xmp:rhcc-published-asset-email-sent>true</xmp:rhcc-published-asset-email-sent>
         <xmp:rhcc-metadata-complete-uploader>pending</xmp:rhcc-metadata-complete-uploader>
         <xmp:rhcc-file-last-modified>2024-07-12T21:28:58.402Z</xmp:rhcc-file-last-modified>
         <xmp:rhcc-audience>rhcc-audience:internal</xmp:rhcc-audience>
         <xmp:brand-content-subtype>Icon</xmp:brand-content-subtype>
         <xmp:rhcc-rights-restricted>no</xmp:rhcc-rights-restricted>
         <xmp:rhcc-derivative-id>DER474a3d7d-3b78-4a30-ab5c-3df245b01269</xmp:rhcc-derivative-id>
         <xmp:rhcc-uploaded-by>pmeilleu@redhat.com</xmp:rhcc-uploaded-by>
         <xmp:brand-logo-color>White</xmp:brand-logo-color>
         <xmp:rhcc-notify-portal-subscribers-on-change>yes</xmp:rhcc-notify-portal-subscribers-on-change>
         <dc:format>image/svg+xml</dc:format>
         <dc:modified>2024-02-09T20:25:51.129Z</dc:modified>
         <dc:title>
            <rdf:Alt>
               <rdf:li xml:lang="x-default">Beaker icon - White</rdf:li>
            </rdf:Alt>
         </dc:title>
         <dc:description>
            <rdf:Alt>
               <rdf:li xml:lang="x-default">science, chemistry, measure, liquid measurement, science and nature</rdf:li>
            </rdf:Alt>
         </dc:description>
         <cq:lastReplicationAction_scene7>Activate</cq:lastReplicationAction_scene7>
         <cq:lastReplicationAction_publish>Activate</cq:lastReplicationAction_publish>
         <cq:lastReplicated_publish>2024-10-02T19:28:25.642Z</cq:lastReplicated_publish>
         <cq:lastReplicatedBy>workflow-process-service</cq:lastReplicatedBy>
         <cq:lastReplicationAction>Activate</cq:lastReplicationAction>
         <cq:lastReplicatedBy_publish>workflow-process-service</cq:lastReplicatedBy_publish>
         <cq:isDelivered>false</cq:isDelivered>
         <cq:lastReplicated>2024-10-02T19:28:25.642Z</cq:lastReplicated>
         <cq:lastReplicatedBy_scene7>workflow-process-service</cq:lastReplicatedBy_scene7>
         <cq:lastReplicated_scene7>2024-10-02T19:28:25.642Z</cq:lastReplicated_scene7>
         <tiff:ImageLength>36</tiff:ImageLength>
         <tiff:ImageWidth>36</tiff:ImageWidth>
      </rdf:Description>
   </rdf:RDF>
</x:xmpmeta>
                                                                                                    
                                                                                                    
                                                                                                    
                                                                                                    
                                                                                                    
                                                                                                    
                                                                                                    
                                                                                                    
        
<?xpacket end="w"?></metadata>
<defs>
    <style>
      .e475139c-61dd-40de-be90-606c1394b5eb {
        fill: #fff;
      }
    </style>
  </defs>
  <g>
    <circle class="e475139c-61dd-40de-be90-606c1394b5eb" cx="13" cy="15" r="0.62"/>
    <path class="e475139c-61dd-40de-be90-606c1394b5eb" d="M27,8.38a.62.62,0,0,0-.62.62V20.71a5.74,5.74,0,0,1-7.94-.15,7,7,0,0,0-8.82-.88V12a.59.59,0,0,0-.18-.44l-3-3C5.88,8,5,8.88,5.56,9.44l2.82,2.82V28A3.62,3.62,0,0,0,12,31.62H24A3.62,3.62,0,0,0,27.62,28V9A.62.62,0,0,0,27,8.38Zm-3,22H12A2.39,2.39,0,0,1,9.62,28V21.29a5.74,5.74,0,0,1,7.94.15,7,7,0,0,0,8.82.88V28A2.39,2.39,0,0,1,24,30.38Z"/>
    <path class="e475139c-61dd-40de-be90-606c1394b5eb" d="M21,16.62a3.62,3.62,0,0,0,0-7.24A3.62,3.62,0,0,0,21,16.62Zm0-6a2.38,2.38,0,0,1,0,4.75A2.38,2.38,0,0,1,21,10.62Z"/>
    <path class="e475139c-61dd-40de-be90-606c1394b5eb" d="M13,9.62a2.62,2.62,0,0,0,0-5.24A2.62,2.62,0,0,0,13,9.62Zm0-4a1.38,1.38,0,0,1,0,2.75A1.38,1.38,0,0,1,13,5.62Z"/>
    <circle class="e475139c-61dd-40de-be90-606c1394b5eb" cx="21" cy="5" r="0.62"/>
  </g>
</svg>
