<svg id="abfd2867-6935-482d-a7bf-3a71da9522a6" data-name="Icon" xmlns="http://www.w3.org/2000/svg" viewBox="0 0 36 36">
  <title>Calculator icon - Red</title>
<desc>math, average, division, subtraction, addition, multiplication, formula, numbers, growth, objects</desc>
<metadata><?xpacket begin="﻿" id="W5M0MpCehiHzreSzNTczkc9d"?>
<x:xmpmeta xmlns:x="adobe:ns:meta/" x:xmptk="Adobe XMP Core 8.0-c001 1.000000, 0000/00/00-00:00:00        ">
   <rdf:RDF xmlns:rdf="http://www.w3.org/1999/02/22-rdf-syntax-ns#">
      <rdf:Description rdf:about=""
            xmlns:xmp="http://ns.adobe.com/xap/1.0/"
            xmlns:dc="http://purl.org/dc/elements/1.1/"
            xmlns:cq="http://www.day.com/jcr/cq/1.0"
            xmlns:tiff="http://ns.adobe.com/tiff/1.0/">
         <xmp:rhcc-effective-on>2023-12-08T17:35:27.113Z</xmp:rhcc-effective-on>
         <xmp:rhcc-metadata-complete-moderator>pending</xmp:rhcc-metadata-complete-moderator>
         <xmp:rhcc-translation-id>TRAf3515123-df9f-4734-9c70-f4c8731bf46e</xmp:rhcc-translation-id>
         <xmp:brand-content-type>Icon</xmp:brand-content-type>
         <xmp:CreateDate>2023-12-08T17:35:27.113Z</xmp:CreateDate>
         <xmp:rhcc-aspect-ratio>square</xmp:rhcc-aspect-ratio>
         <xmp:rhcc-effective-on-set-on-upload>true</xmp:rhcc-effective-on-set-on-upload>
         <xmp:rhcc-published-asset-email-sent>true</xmp:rhcc-published-asset-email-sent>
         <xmp:rhcc-metadata-complete-uploader>pending</xmp:rhcc-metadata-complete-uploader>
         <xmp:rhcc-file-last-modified>2024-07-12T21:58:10.415Z</xmp:rhcc-file-last-modified>
         <xmp:rhcc-audience>rhcc-audience:internal</xmp:rhcc-audience>
         <xmp:brand-content-subtype>Icon</xmp:brand-content-subtype>
         <xmp:rhcc-rights-restricted>no</xmp:rhcc-rights-restricted>
         <xmp:rhcc-derivative-id>DERf3515123-df9f-4734-9c70-f4c8731bf46e</xmp:rhcc-derivative-id>
         <xmp:rhcc-uploaded-by>pmeilleu@redhat.com</xmp:rhcc-uploaded-by>
         <xmp:brand-logo-color>Red</xmp:brand-logo-color>
         <xmp:rhcc-notify-portal-subscribers-on-change>yes</xmp:rhcc-notify-portal-subscribers-on-change>
         <dc:format>image/svg+xml</dc:format>
         <dc:modified>2024-02-09T20:29:35.938Z</dc:modified>
         <dc:title>
            <rdf:Alt>
               <rdf:li xml:lang="x-default">Calculator icon - Red</rdf:li>
            </rdf:Alt>
         </dc:title>
         <dc:description>
            <rdf:Alt>
               <rdf:li xml:lang="x-default">math, average, division, subtraction, addition, multiplication, formula, numbers, growth, objects</rdf:li>
            </rdf:Alt>
         </dc:description>
         <cq:lastReplicationAction_scene7>Activate</cq:lastReplicationAction_scene7>
         <cq:lastReplicationAction_publish>Activate</cq:lastReplicationAction_publish>
         <cq:lastReplicated_publish>2024-10-02T19:29:41.060Z</cq:lastReplicated_publish>
         <cq:lastReplicatedBy>workflow-process-service</cq:lastReplicatedBy>
         <cq:lastReplicationAction>Activate</cq:lastReplicationAction>
         <cq:lastReplicatedBy_publish>workflow-process-service</cq:lastReplicatedBy_publish>
         <cq:isDelivered>false</cq:isDelivered>
         <cq:lastReplicated>2024-10-02T19:29:41.060Z</cq:lastReplicated>
         <cq:lastReplicatedBy_scene7>workflow-process-service</cq:lastReplicatedBy_scene7>
         <cq:lastReplicated_scene7>2024-10-02T19:29:41.060Z</cq:lastReplicated_scene7>
         <tiff:ImageLength>36</tiff:ImageLength>
         <tiff:ImageWidth>36</tiff:ImageWidth>
      </rdf:Description>
   </rdf:RDF>
</x:xmpmeta>
                                                                                                    
                                                                                                    
                                                                                                    
                                                                                                    
                                                                                                    
                                                                                                    
                                                                                                    
                                                                                                    
        
<?xpacket end="w"?></metadata>
<defs>
    <style>
      .add126a9-e562-44f7-aa9c-3025e49fb167 {
        fill: #e00;
      }
    </style>
  </defs>
  <g>
    <path class="add126a9-e562-44f7-aa9c-3025e49fb167" d="M27,4.38H9A.62.62,0,0,0,8.38,5V31a.62.62,0,0,0,.62.62H27a.62.62,0,0,0,.62-.62V5A.62.62,0,0,0,27,4.38Zm-.62,26H9.62V5.62H26.38Z"/>
    <path class="add126a9-e562-44f7-aa9c-3025e49fb167" d="M12,12.62H24a.62.62,0,0,0,.62-.62V8A.62.62,0,0,0,24,7.38H12a.62.62,0,0,0-.62.62v4A.62.62,0,0,0,12,12.62Zm.62-4H23.38v2.76H12.62Z"/>
    <path class="add126a9-e562-44f7-aa9c-3025e49fb167" d="M12,28.62h7a.62.62,0,0,0,0-1.24H12a.62.62,0,1,0,0,1.24Z"/>
    <path class="add126a9-e562-44f7-aa9c-3025e49fb167" d="M24,27.38H22a.62.62,0,0,0,0,1.24h2a.62.62,0,0,0,0-1.24Z"/>
    <path class="add126a9-e562-44f7-aa9c-3025e49fb167" d="M24,23.38H22a.62.62,0,0,0,0,1.24h2a.62.62,0,0,0,0-1.24Z"/>
    <path class="add126a9-e562-44f7-aa9c-3025e49fb167" d="M24,19.38H22a.62.62,0,0,0,0,1.24h2a.62.62,0,0,0,0-1.24Z"/>
    <path class="add126a9-e562-44f7-aa9c-3025e49fb167" d="M24,15.38H22a.62.62,0,0,0,0,1.24h2a.62.62,0,1,0,0-1.24Z"/>
    <path class="add126a9-e562-44f7-aa9c-3025e49fb167" d="M19,23.38H17a.62.62,0,0,0,0,1.24h2a.62.62,0,0,0,0-1.24Z"/>
    <path class="add126a9-e562-44f7-aa9c-3025e49fb167" d="M19,19.38H17a.62.62,0,0,0,0,1.24h2a.62.62,0,0,0,0-1.24Z"/>
    <path class="add126a9-e562-44f7-aa9c-3025e49fb167" d="M19,15.38H17a.62.62,0,0,0,0,1.24h2a.62.62,0,1,0,0-1.24Z"/>
    <path class="add126a9-e562-44f7-aa9c-3025e49fb167" d="M12,24.62h2a.62.62,0,0,0,0-1.24H12a.62.62,0,1,0,0,1.24Z"/>
    <path class="add126a9-e562-44f7-aa9c-3025e49fb167" d="M12,20.62h2a.62.62,0,0,0,0-1.24H12a.62.62,0,0,0,0,1.24Z"/>
    <path class="add126a9-e562-44f7-aa9c-3025e49fb167" d="M12,16.62h2a.62.62,0,0,0,0-1.24H12a.62.62,0,0,0,0,1.24Z"/>
  </g>
</svg>
