<svg id="a6882603-abcb-4b7e-b47d-aeb776542cb8" data-name="Icon" xmlns="http://www.w3.org/2000/svg" viewBox="0 0 36 36">
  <title>Optimization icon - White</title>
<desc>laptop, management, gear, graph, computer, optimize, hardware</desc>
<metadata><?xpacket begin="﻿" id="W5M0MpCehiHzreSzNTczkc9d"?>
<x:xmpmeta xmlns:x="adobe:ns:meta/" x:xmptk="Adobe XMP Core 8.0-c001 1.000000, 0000/00/00-00:00:00        ">
   <rdf:RDF xmlns:rdf="http://www.w3.org/1999/02/22-rdf-syntax-ns#">
      <rdf:Description rdf:about=""
            xmlns:xmp="http://ns.adobe.com/xap/1.0/"
            xmlns:dc="http://purl.org/dc/elements/1.1/"
            xmlns:cq="http://www.day.com/jcr/cq/1.0"
            xmlns:tiff="http://ns.adobe.com/tiff/1.0/">
         <xmp:rhcc-effective-on>2023-12-08T17:34:14.617Z</xmp:rhcc-effective-on>
         <xmp:rhcc-metadata-complete-moderator>pending</xmp:rhcc-metadata-complete-moderator>
         <xmp:rhcc-translation-id>TRAb399d532-a5f6-477b-860d-6f7830bdeae7</xmp:rhcc-translation-id>
         <xmp:brand-content-type>Icon</xmp:brand-content-type>
         <xmp:CreateDate>2023-12-08T17:34:14.617Z</xmp:CreateDate>
         <xmp:rhcc-aspect-ratio>square</xmp:rhcc-aspect-ratio>
         <xmp:rhcc-effective-on-set-on-upload>true</xmp:rhcc-effective-on-set-on-upload>
         <xmp:rhcc-published-asset-email-sent>true</xmp:rhcc-published-asset-email-sent>
         <xmp:rhcc-metadata-complete-uploader>pending</xmp:rhcc-metadata-complete-uploader>
         <xmp:rhcc-file-last-modified>2024-07-12T19:24:19.438Z</xmp:rhcc-file-last-modified>
         <xmp:rhcc-audience>rhcc-audience:internal</xmp:rhcc-audience>
         <xmp:brand-content-subtype>Icon</xmp:brand-content-subtype>
         <xmp:rhcc-rights-restricted>no</xmp:rhcc-rights-restricted>
         <xmp:rhcc-derivative-id>DERb399d532-a5f6-477b-860d-6f7830bdeae7</xmp:rhcc-derivative-id>
         <xmp:rhcc-uploaded-by>pmeilleu@redhat.com</xmp:rhcc-uploaded-by>
         <xmp:brand-logo-color>White</xmp:brand-logo-color>
         <xmp:rhcc-notify-portal-subscribers-on-change>yes</xmp:rhcc-notify-portal-subscribers-on-change>
         <dc:format>image/svg+xml</dc:format>
         <dc:modified>2024-02-09T20:11:43.936Z</dc:modified>
         <dc:title>
            <rdf:Alt>
               <rdf:li xml:lang="x-default">Optimization icon - White</rdf:li>
            </rdf:Alt>
         </dc:title>
         <dc:description>
            <rdf:Alt>
               <rdf:li xml:lang="x-default">laptop, management, gear, graph, computer, optimize, hardware</rdf:li>
            </rdf:Alt>
         </dc:description>
         <cq:lastReplicationAction_scene7>Activate</cq:lastReplicationAction_scene7>
         <cq:lastReplicationAction_publish>Activate</cq:lastReplicationAction_publish>
         <cq:lastReplicated_publish>2024-10-02T19:37:44.588Z</cq:lastReplicated_publish>
         <cq:lastReplicatedBy>workflow-process-service</cq:lastReplicatedBy>
         <cq:lastReplicationAction>Activate</cq:lastReplicationAction>
         <cq:lastReplicatedBy_publish>workflow-process-service</cq:lastReplicatedBy_publish>
         <cq:isDelivered>false</cq:isDelivered>
         <cq:lastReplicated>2024-10-02T19:37:44.588Z</cq:lastReplicated>
         <cq:lastReplicatedBy_scene7>workflow-process-service</cq:lastReplicatedBy_scene7>
         <cq:lastReplicated_scene7>2024-10-02T19:37:44.588Z</cq:lastReplicated_scene7>
         <tiff:ImageLength>36</tiff:ImageLength>
         <tiff:ImageWidth>36</tiff:ImageWidth>
      </rdf:Description>
   </rdf:RDF>
</x:xmpmeta>
                                                                                                    
                                                                                                    
                                                                                                    
                                                                                                    
                                                                                                    
                                                                                                    
                                                                                                    
                                                                                                    
        
<?xpacket end="w"?></metadata>
<defs>
    <style>
      .b62bba09-2f62-4760-8866-873554df8fc6 {
        fill: #fff;
      }
    </style>
  </defs>
  <path class="b62bba09-2f62-4760-8866-873554df8fc6" d="M18,9.62A.62.62,0,1,0,17.38,9,.61.61,0,0,0,18,9.62Z"/>
  <g>
    <path class="b62bba09-2f62-4760-8866-873554df8fc6" d="M6,24.62H30a.61.61,0,0,0,.62-.62V9A.61.61,0,0,0,30,8.38H21a.62.62,0,1,0,0,1.24h8.38V23.38H6.62V9.62H15a.62.62,0,0,0,0-1.24H6A.61.61,0,0,0,5.38,9V24A.61.61,0,0,0,6,24.62Z"/>
    <path class="b62bba09-2f62-4760-8866-873554df8fc6" d="M32,26.38H4a.62.62,0,1,0,0,1.24H32a.62.62,0,1,0,0-1.24Z"/>
    <path class="b62bba09-2f62-4760-8866-873554df8fc6" d="M15.12,14v4.38H13.88v-2.5a.63.63,0,0,0-1.26,0v2.5H11.38V17.12a.63.63,0,0,0-1.26,0v1.26H9.5a.62.62,0,0,0,0,1.24H17a.62.62,0,0,0,0-1.24h-.62V14a.63.63,0,0,0-1.26,0Z"/>
    <path class="b62bba09-2f62-4760-8866-873554df8fc6" d="M20.5,17.12H21a2.49,2.49,0,0,0,.3.73l-.32.33a.62.62,0,0,0,.88.88l.33-.32a2.49,2.49,0,0,0,.73.3v.46a.62.62,0,0,0,1.24,0V19a2.49,2.49,0,0,0,.73-.3l.33.32a.62.62,0,0,0,.88-.88l-.32-.33a2.49,2.49,0,0,0,.3-.73h.46a.62.62,0,0,0,0-1.24H26a2.49,2.49,0,0,0-.3-.73l.32-.33c.58-.56-.32-1.46-.88-.88l-.33.32a2.49,2.49,0,0,0-.73-.3V13.5a.62.62,0,0,0-1.24,0V14a2.49,2.49,0,0,0-.73.3l-.33-.32c-.56-.58-1.46.32-.88.88l.32.33a2.49,2.49,0,0,0-.3.73H20.5A.62.62,0,0,0,20.5,17.12Zm3-2a1.38,1.38,0,0,1,0,2.75A1.38,1.38,0,0,1,23.5,15.12Z"/>
  </g>
</svg>
