<?xml version="1.0" encoding="UTF-8"?>
<svg id="uuid-42c9ae33-ef21-48d6-a3e0-beea32410ebf" data-name="Icon" xmlns="http://www.w3.org/2000/svg" viewBox="0 0 36 36">
  <title>Air filter icon - White</title>
<desc>clean, purify, air quality, GWS, office and work</desc>
<metadata><?xpacket begin="﻿" id="W5M0MpCehiHzreSzNTczkc9d"?>
<x:xmpmeta xmlns:x="adobe:ns:meta/" x:xmptk="Adobe XMP Core 8.0-c001 1.000000, 0000/00/00-00:00:00        ">
   <rdf:RDF xmlns:rdf="http://www.w3.org/1999/02/22-rdf-syntax-ns#">
      <rdf:Description rdf:about=""
            xmlns:xmp="http://ns.adobe.com/xap/1.0/"
            xmlns:dc="http://purl.org/dc/elements/1.1/"
            xmlns:cq="http://www.day.com/jcr/cq/1.0"
            xmlns:tiff="http://ns.adobe.com/tiff/1.0/">
         <xmp:rhcc-effective-on>2023-12-08T17:46:38.459Z</xmp:rhcc-effective-on>
         <xmp:rhcc-metadata-complete-moderator>pending</xmp:rhcc-metadata-complete-moderator>
         <xmp:rhcc-translation-id>TRA0dfaf514-ce55-4f39-992e-d7e035f57e06</xmp:rhcc-translation-id>
         <xmp:brand-content-type>Icon</xmp:brand-content-type>
         <xmp:CreateDate>2023-12-08T17:46:38.459Z</xmp:CreateDate>
         <xmp:rhcc-aspect-ratio>square</xmp:rhcc-aspect-ratio>
         <xmp:rhcc-effective-on-set-on-upload>true</xmp:rhcc-effective-on-set-on-upload>
         <xmp:rhcc-metadata-complete-uploader>pending</xmp:rhcc-metadata-complete-uploader>
         <xmp:rhcc-file-last-modified>2024-07-12T20:56:25.345Z</xmp:rhcc-file-last-modified>
         <xmp:rhcc-audience>rhcc-audience:internal</xmp:rhcc-audience>
         <xmp:brand-content-subtype>Icon</xmp:brand-content-subtype>
         <xmp:rhcc-rights-restricted>no</xmp:rhcc-rights-restricted>
         <xmp:rhcc-derivative-id>DER0dfaf514-ce55-4f39-992e-d7e035f57e06</xmp:rhcc-derivative-id>
         <xmp:rhcc-uploaded-by>pmeilleu@redhat.com</xmp:rhcc-uploaded-by>
         <xmp:brand-logo-color>White</xmp:brand-logo-color>
         <xmp:rhcc-notify-portal-subscribers-on-change>yes</xmp:rhcc-notify-portal-subscribers-on-change>
         <dc:format>image/svg+xml</dc:format>
         <dc:modified>2024-02-09T20:23:13.948Z</dc:modified>
         <dc:title>
            <rdf:Alt>
               <rdf:li xml:lang="x-default">Air filter icon - White</rdf:li>
            </rdf:Alt>
         </dc:title>
         <dc:description>
            <rdf:Alt>
               <rdf:li xml:lang="x-default">clean, purify, air quality, GWS, office and work</rdf:li>
            </rdf:Alt>
         </dc:description>
         <cq:lastReplicationAction_scene7>Activate</cq:lastReplicationAction_scene7>
         <cq:lastReplicationAction_publish>Activate</cq:lastReplicationAction_publish>
         <cq:lastReplicated_publish>2024-10-02T19:26:10.791Z</cq:lastReplicated_publish>
         <cq:lastReplicatedBy>workflow-process-service</cq:lastReplicatedBy>
         <cq:lastReplicationAction>Activate</cq:lastReplicationAction>
         <cq:lastReplicatedBy_publish>workflow-process-service</cq:lastReplicatedBy_publish>
         <cq:isDelivered>false</cq:isDelivered>
         <cq:lastReplicated>2024-10-02T19:26:10.791Z</cq:lastReplicated>
         <cq:lastReplicatedBy_scene7>workflow-process-service</cq:lastReplicatedBy_scene7>
         <cq:lastReplicated_scene7>2024-10-02T19:26:10.791Z</cq:lastReplicated_scene7>
         <tiff:ImageLength>36</tiff:ImageLength>
         <tiff:ImageWidth>36</tiff:ImageWidth>
      </rdf:Description>
   </rdf:RDF>
</x:xmpmeta>
                                                                                                    
                                                                                                    
                                                                                                    
                                                                                                    
                                                                                                    
                                                                                                    
                                                                                                    
                                                                                                    
                                                                                                 
<?xpacket end="w"?></metadata>
<defs>
    <style>
      .uuid-a9e40e15-e9c7-4748-a729-5e59385eb009 {
        fill: #fff;
      }
    </style>
  </defs>
  <path class="uuid-a9e40e15-e9c7-4748-a729-5e59385eb009" d="M31.58,18.24c.06-.15,.06-.33,0-.48-.03-.06-.07-.12-.11-.17,0-.01-.01-.02-.02-.03l-2-2c-.58-.58-1.46,.3-.88,.88l.93,.93h-7.49c-.82,0-.82,1.25,0,1.25h7.49l-.93,.93c-.58,.58,.3,1.46,.88,.88l2-2s.01-.02,.02-.03c.04-.05,.09-.11,.11-.17Z"/>
  <path class="uuid-a9e40e15-e9c7-4748-a729-5e59385eb009" d="M22,12.62h4.49l-.93,.93c-.58,.58,.3,1.46,.88,.88l2-2s.01-.02,.02-.03c.04-.05,.09-.11,.11-.17,.06-.15,.06-.33,0-.48-.03-.06-.07-.12-.11-.17,0-.01-.01-.02-.02-.03l-2-2c-.58-.58-1.46,.3-.88,.88l.93,.93h-4.49c-.82,0-.82,1.25,0,1.25Z"/>
  <path class="uuid-a9e40e15-e9c7-4748-a729-5e59385eb009" d="M28.58,23.76c-.03-.06-.07-.12-.11-.17,0-.01-.01-.02-.02-.03l-2-2c-.58-.58-1.46,.3-.88,.88l.93,.93h-4.49c-.82,0-.82,1.25,0,1.25h4.49l-.93,.93c-.58,.58,.3,1.46,.88,.88l2-2s.01-.02,.02-.03c.04-.05,.09-.11,.11-.17,.06-.15,.06-.33,0-.48Z"/>
  <path class="uuid-a9e40e15-e9c7-4748-a729-5e59385eb009" d="M18,4.38c-.35,0-.62,.28-.62,.62V31c0,.82,1.25,.82,1.25,0V5c0-.35-.28-.62-.62-.62Z"/>
  <path class="uuid-a9e40e15-e9c7-4748-a729-5e59385eb009" d="M13.56,18.44c.06,.06,.12,.11,.2,.14,.24,.08,.5,.04,.68-.14,.06-.06,.11-.13,.14-.2,.06-.16,.06-.32,0-.48-.03-.08-.08-.14-.14-.2-.17-.18-.45-.23-.68-.14-.07,.03-.14,.08-.2,.14-.06,.06-.11,.13-.14,.2-.07,.16-.07,.32,0,.48,.03,.07,.08,.14,.14,.2Z"/>
  <path class="uuid-a9e40e15-e9c7-4748-a729-5e59385eb009" d="M14,12.62c.54,.03,.83-.71,.44-1.06-.23-.24-.65-.23-.88,0-.25,.22-.25,.64,0,.88,.12,.12,.27,.18,.44,.18Z"/>
  <path class="uuid-a9e40e15-e9c7-4748-a729-5e59385eb009" d="M14.44,23.56c-.18-.18-.45-.23-.68-.14-.07,.03-.14,.08-.2,.14-.06,.06-.11,.13-.14,.2-.07,.16-.07,.32,0,.48,.03,.07,.08,.14,.14,.2,.06,.06,.12,.11,.2,.14,.24,.1,.5,.04,.68-.14,.06-.06,.11-.13,.14-.2,.07-.16,.07-.32,0-.48-.03-.07-.08-.14-.14-.2Z"/>
  <path class="uuid-a9e40e15-e9c7-4748-a729-5e59385eb009" d="M9.56,14.56c-.06,.05-.11,.12-.14,.2-.08,.24-.04,.5,.14,.68,.57,.57,1.47-.31,.88-.88-.23-.24-.65-.24-.88,0Z"/>
  <path class="uuid-a9e40e15-e9c7-4748-a729-5e59385eb009" d="M9.56,8.56c-.25,.24-.25,.64,0,.88,.57,.59,1.47-.31,.88-.88-.23-.24-.65-.24-.88,0Z"/>
  <path class="uuid-a9e40e15-e9c7-4748-a729-5e59385eb009" d="M9.76,20.42c-.31,.13-.48,.51-.34,.82,.03,.07,.08,.14,.14,.2,.23,.25,.65,.25,.88,0,.06-.06,.11-.13,.14-.2,.1-.24,.04-.5-.14-.68-.17-.18-.45-.23-.68-.14Z"/>
  <path class="uuid-a9e40e15-e9c7-4748-a729-5e59385eb009" d="M9.76,26.42c-.08,.03-.14,.08-.2,.14-.18,.17-.22,.45-.14,.68,.03,.07,.08,.14,.14,.2,.23,.24,.65,.24,.88,0,.06-.06,.11-.13,.14-.2,.1-.24,.04-.5-.14-.68-.17-.18-.45-.23-.68-.14Z"/>
  <path class="uuid-a9e40e15-e9c7-4748-a729-5e59385eb009" d="M5.56,11.56c-.18,.17-.22,.45-.14,.68,.03,.07,.08,.14,.14,.2,.06,.06,.13,.11,.2,.14,.61,.25,1.18-.56,.68-1.02-.23-.24-.65-.24-.88,0Z"/>
  <path class="uuid-a9e40e15-e9c7-4748-a729-5e59385eb009" d="M6.44,5.56c-.17-.18-.45-.23-.68-.14-.08,.04-.14,.08-.2,.14-.06,.06-.11,.13-.14,.2-.07,.16-.07,.32,0,.48,.03,.07,.08,.14,.14,.2,.06,.06,.12,.1,.2,.14,.23,.08,.51,.04,.68-.14,.06-.06,.11-.13,.14-.2,.07-.16,.07-.32,0-.48-.03-.07-.08-.14-.14-.2Z"/>
  <path class="uuid-a9e40e15-e9c7-4748-a729-5e59385eb009" d="M5.56,18.44c.23,.24,.65,.24,.88,0,.06-.06,.11-.13,.14-.2,.06-.16,.06-.32,0-.48-.03-.08-.08-.14-.14-.2-.17-.17-.45-.23-.68-.14-.08,.03-.14,.08-.2,.14-.06,.06-.11,.13-.14,.2-.06,.16-.06,.32,0,.48,.03,.07,.08,.14,.14,.2Z"/>
  <path class="uuid-a9e40e15-e9c7-4748-a729-5e59385eb009" d="M6.44,23.56c-.23-.24-.65-.24-.88,0-.06,.06-.11,.12-.14,.2-.06,.16-.06,.32,0,.48,.03,.07,.08,.14,.14,.2,.23,.25,.65,.25,.88,0,.06-.06,.11-.13,.14-.2,.07-.16,.07-.32,0-.48-.03-.07-.08-.14-.14-.2Z"/>
  <path class="uuid-a9e40e15-e9c7-4748-a729-5e59385eb009" d="M5.76,29.42c-.08,.03-.14,.08-.2,.14-.24,.23-.24,.65,0,.88,.06,.06,.13,.11,.2,.14,.61,.26,1.16-.56,.68-1.02-.17-.18-.45-.23-.68-.14Z"/>
</svg>