<svg id="aad86a47-1509-4725-8bd9-0ec78290a4c0" data-name="Icon" xmlns="http://www.w3.org/2000/svg" viewBox="0 0 36 36">
  <title>Racecar icon - White</title>
<desc>auto, mobile, engine, speed, fast, drag, formula, NASCAR, ride, drive, track, transportation</desc>
<metadata><?xpacket begin="﻿" id="W5M0MpCehiHzreSzNTczkc9d"?>
<x:xmpmeta xmlns:x="adobe:ns:meta/" x:xmptk="Adobe XMP Core 8.0-c001 1.000000, 0000/00/00-00:00:00        ">
   <rdf:RDF xmlns:rdf="http://www.w3.org/1999/02/22-rdf-syntax-ns#">
      <rdf:Description rdf:about=""
            xmlns:xmp="http://ns.adobe.com/xap/1.0/"
            xmlns:dc="http://purl.org/dc/elements/1.1/"
            xmlns:cq="http://www.day.com/jcr/cq/1.0"
            xmlns:tiff="http://ns.adobe.com/tiff/1.0/">
         <xmp:rhcc-effective-on>2023-12-08T17:46:19.099Z</xmp:rhcc-effective-on>
         <xmp:rhcc-metadata-complete-moderator>pending</xmp:rhcc-metadata-complete-moderator>
         <xmp:rhcc-translation-id>TRA216d4030-a560-46f8-ae2d-84ec738c6ff2</xmp:rhcc-translation-id>
         <xmp:brand-content-type>Icon</xmp:brand-content-type>
         <xmp:CreateDate>2023-12-08T17:46:19.099Z</xmp:CreateDate>
         <xmp:rhcc-aspect-ratio>square</xmp:rhcc-aspect-ratio>
         <xmp:rhcc-effective-on-set-on-upload>true</xmp:rhcc-effective-on-set-on-upload>
         <xmp:rhcc-published-asset-email-sent>true</xmp:rhcc-published-asset-email-sent>
         <xmp:rhcc-metadata-complete-uploader>pending</xmp:rhcc-metadata-complete-uploader>
         <xmp:rhcc-file-last-modified>2024-07-12T22:18:43.371Z</xmp:rhcc-file-last-modified>
         <xmp:rhcc-audience>rhcc-audience:internal</xmp:rhcc-audience>
         <xmp:brand-content-subtype>Icon</xmp:brand-content-subtype>
         <xmp:rhcc-rights-restricted>no</xmp:rhcc-rights-restricted>
         <xmp:rhcc-derivative-id>DER216d4030-a560-46f8-ae2d-84ec738c6ff2</xmp:rhcc-derivative-id>
         <xmp:rhcc-uploaded-by>pmeilleu@redhat.com</xmp:rhcc-uploaded-by>
         <xmp:brand-logo-color>White</xmp:brand-logo-color>
         <xmp:rhcc-notify-portal-subscribers-on-change>yes</xmp:rhcc-notify-portal-subscribers-on-change>
         <dc:format>image/svg+xml</dc:format>
         <dc:modified>2024-02-09T20:25:11.884Z</dc:modified>
         <dc:title>
            <rdf:Alt>
               <rdf:li xml:lang="x-default">Racecar icon - White</rdf:li>
            </rdf:Alt>
         </dc:title>
         <dc:description>
            <rdf:Alt>
               <rdf:li xml:lang="x-default">auto, mobile, engine, speed, fast, drag, formula, NASCAR, ride, drive, track, transportation</rdf:li>
            </rdf:Alt>
         </dc:description>
         <cq:lastReplicationAction_scene7>Activate</cq:lastReplicationAction_scene7>
         <cq:lastReplicationAction_publish>Activate</cq:lastReplicationAction_publish>
         <cq:lastReplicated_publish>2024-10-02T19:46:40.107Z</cq:lastReplicated_publish>
         <cq:lastReplicatedBy>workflow-process-service</cq:lastReplicatedBy>
         <cq:lastReplicationAction>Activate</cq:lastReplicationAction>
         <cq:lastReplicatedBy_publish>workflow-process-service</cq:lastReplicatedBy_publish>
         <cq:isDelivered>false</cq:isDelivered>
         <cq:lastReplicated>2024-10-02T19:46:40.107Z</cq:lastReplicated>
         <cq:lastReplicatedBy_scene7>workflow-process-service</cq:lastReplicatedBy_scene7>
         <cq:lastReplicated_scene7>2024-10-02T19:46:40.107Z</cq:lastReplicated_scene7>
         <tiff:ImageLength>36</tiff:ImageLength>
         <tiff:ImageWidth>36</tiff:ImageWidth>
      </rdf:Description>
   </rdf:RDF>
</x:xmpmeta>
                                                                                                    
                                                                                                    
                                                                                                    
                                                                                                    
                                                                                                    
                                                                                                    
                                                                                                    
                                                                                                    
        
<?xpacket end="w"?></metadata>
<defs>
    <style>
      .be76cc91-fce7-4bcd-8f5f-dc29c59ae320 {
        fill: #fff;
      }
    </style>
  </defs>
  <g>
    <path class="be76cc91-fce7-4bcd-8f5f-dc29c59ae320" d="M10.17,14.62H22.83a.63.63,0,0,0,.56-.89,7.66,7.66,0,0,0-13.78,0A.63.63,0,0,0,10.17,14.62Zm11.57-1.24H17.12V10.66A6.41,6.41,0,0,1,21.74,13.38Zm-5.86-2.72v2.72H11.26A6.41,6.41,0,0,1,15.88,10.66Z"/>
    <path class="be76cc91-fce7-4bcd-8f5f-dc29c59ae320" d="M31,27.38H5a.62.62,0,0,0,0,1.24H31A.62.62,0,0,0,31,27.38Z"/>
    <path class="be76cc91-fce7-4bcd-8f5f-dc29c59ae320" d="M31,17.59a5.67,5.67,0,0,0-4.47-2.22H8l-.59-2.76a.63.63,0,1,0,.08-1.25h-3a.62.62,0,0,0,0,1.24H6.14l.59,2.76c-.61,0-2-.3-1.84.75l1.06,5a.62.62,0,0,0,.61.49H8c-1.12,4.6,5.85,5.61,6.11.88a3.14,3.14,0,0,0-5.41-2.12H7.07l-.8-3.76H26.5a4.29,4.29,0,0,1,2.42.76H27.5a.62.62,0,0,0,0,1.24h2.65a4.34,4.34,0,0,1,.68,1.76H28.28a3.12,3.12,0,0,0-4.56,0H15.5a.62.62,0,0,0,0,1.24H23a3.11,3.11,0,1,0,6,0H31.5C33,21.44,31.52,18.2,31,17.59Zm-20,3a1.88,1.88,0,0,1,0,3.75A1.88,1.88,0,0,1,11,20.62Zm15,3.76a1.88,1.88,0,0,1,0-3.75A1.88,1.88,0,0,1,26,24.38Z"/>
  </g>
</svg>
