<svg id="a0e169a6-928a-4219-9166-c2818a58dea8" data-name="Icon" xmlns="http://www.w3.org/2000/svg" viewBox="0 0 36 36">
  <title>GPU icon - White</title>
<desc>CPU, processor, core, graphics, PC, process, computer, hardware</desc>
<metadata><?xpacket begin="﻿" id="W5M0MpCehiHzreSzNTczkc9d"?>
<x:xmpmeta xmlns:x="adobe:ns:meta/" x:xmptk="Adobe XMP Core 8.0-c001 1.000000, 0000/00/00-00:00:00        ">
   <rdf:RDF xmlns:rdf="http://www.w3.org/1999/02/22-rdf-syntax-ns#">
      <rdf:Description rdf:about=""
            xmlns:xmp="http://ns.adobe.com/xap/1.0/"
            xmlns:dc="http://purl.org/dc/elements/1.1/"
            xmlns:cq="http://www.day.com/jcr/cq/1.0"
            xmlns:tiff="http://ns.adobe.com/tiff/1.0/">
         <xmp:rhcc-effective-on>2023-12-08T17:34:12.135Z</xmp:rhcc-effective-on>
         <xmp:rhcc-metadata-complete-moderator>pending</xmp:rhcc-metadata-complete-moderator>
         <xmp:rhcc-translation-id>TRA4658714b-f291-4d02-ac4a-2267ad109a94</xmp:rhcc-translation-id>
         <xmp:brand-content-type>Icon</xmp:brand-content-type>
         <xmp:CreateDate>2023-12-08T17:34:12.135Z</xmp:CreateDate>
         <xmp:rhcc-aspect-ratio>square</xmp:rhcc-aspect-ratio>
         <xmp:rhcc-effective-on-set-on-upload>true</xmp:rhcc-effective-on-set-on-upload>
         <xmp:rhcc-published-asset-email-sent>true</xmp:rhcc-published-asset-email-sent>
         <xmp:rhcc-metadata-complete-uploader>pending</xmp:rhcc-metadata-complete-uploader>
         <xmp:rhcc-file-last-modified>2024-07-12T19:23:19.348Z</xmp:rhcc-file-last-modified>
         <xmp:rhcc-audience>rhcc-audience:internal</xmp:rhcc-audience>
         <xmp:brand-content-subtype>Icon</xmp:brand-content-subtype>
         <xmp:rhcc-rights-restricted>no</xmp:rhcc-rights-restricted>
         <xmp:rhcc-derivative-id>DER4658714b-f291-4d02-ac4a-2267ad109a94</xmp:rhcc-derivative-id>
         <xmp:rhcc-uploaded-by>pmeilleu@redhat.com</xmp:rhcc-uploaded-by>
         <xmp:brand-logo-color>White</xmp:brand-logo-color>
         <xmp:rhcc-notify-portal-subscribers-on-change>yes</xmp:rhcc-notify-portal-subscribers-on-change>
         <dc:format>image/svg+xml</dc:format>
         <dc:modified>2024-02-09T20:11:45.426Z</dc:modified>
         <dc:title>
            <rdf:Alt>
               <rdf:li xml:lang="x-default">GPU icon - White</rdf:li>
            </rdf:Alt>
         </dc:title>
         <dc:description>
            <rdf:Alt>
               <rdf:li xml:lang="x-default">CPU, processor, core, graphics, PC, process, computer, hardware</rdf:li>
            </rdf:Alt>
         </dc:description>
         <cq:lastReplicationAction_scene7>Activate</cq:lastReplicationAction_scene7>
         <cq:lastReplicationAction_publish>Activate</cq:lastReplicationAction_publish>
         <cq:lastReplicated_publish>2024-10-02T19:34:43.477Z</cq:lastReplicated_publish>
         <cq:lastReplicatedBy>workflow-process-service</cq:lastReplicatedBy>
         <cq:lastReplicationAction>Activate</cq:lastReplicationAction>
         <cq:lastReplicatedBy_publish>workflow-process-service</cq:lastReplicatedBy_publish>
         <cq:isDelivered>false</cq:isDelivered>
         <cq:lastReplicated>2024-10-02T19:34:43.477Z</cq:lastReplicated>
         <cq:lastReplicatedBy_scene7>workflow-process-service</cq:lastReplicatedBy_scene7>
         <cq:lastReplicated_scene7>2024-10-02T19:34:43.477Z</cq:lastReplicated_scene7>
         <tiff:ImageLength>36</tiff:ImageLength>
         <tiff:ImageWidth>36</tiff:ImageWidth>
      </rdf:Description>
   </rdf:RDF>
</x:xmpmeta>
                                                                                                    
                                                                                                    
                                                                                                    
                                                                                                    
                                                                                                    
                                                                                                    
                                                                                                    
                                                                                                    
        
<?xpacket end="w"?></metadata>
<defs>
    <style>
      .bcba7dfa-fafb-47ee-980d-c0883598753e {
        fill: #fff;
      }
    </style>
  </defs>
  <g>
    <path class="bcba7dfa-fafb-47ee-980d-c0883598753e" d="M26,9.38H10a.61.61,0,0,0-.62.62V26a.61.61,0,0,0,.62.62H26a.61.61,0,0,0,.62-.62V10A.61.61,0,0,0,26,9.38Zm-.62,16H10.62V10.62H25.38Z"/>
    <path class="bcba7dfa-fafb-47ee-980d-c0883598753e" d="M29,10.62h2a.62.62,0,1,0,0-1.24H29a.62.62,0,0,0,0,1.24Z"/>
    <path class="bcba7dfa-fafb-47ee-980d-c0883598753e" d="M31,17.38H29a.62.62,0,0,0,0,1.24h2a.62.62,0,0,0,0-1.24Z"/>
    <path class="bcba7dfa-fafb-47ee-980d-c0883598753e" d="M31,13.38H29a.62.62,0,0,0,0,1.24h2a.62.62,0,1,0,0-1.24Z"/>
    <path class="bcba7dfa-fafb-47ee-980d-c0883598753e" d="M31,25.38H29a.62.62,0,0,0,0,1.24h2a.62.62,0,0,0,0-1.24Z"/>
    <path class="bcba7dfa-fafb-47ee-980d-c0883598753e" d="M31,21.38H29a.62.62,0,0,0,0,1.24h2a.62.62,0,0,0,0-1.24Z"/>
    <path class="bcba7dfa-fafb-47ee-980d-c0883598753e" d="M7,9.38H5a.62.62,0,1,0,0,1.24H7A.62.62,0,1,0,7,9.38Z"/>
    <path class="bcba7dfa-fafb-47ee-980d-c0883598753e" d="M7,17.38H5a.62.62,0,1,0,0,1.24H7a.62.62,0,0,0,0-1.24Z"/>
    <path class="bcba7dfa-fafb-47ee-980d-c0883598753e" d="M7,13.38H5a.62.62,0,1,0,0,1.24H7a.62.62,0,1,0,0-1.24Z"/>
    <path class="bcba7dfa-fafb-47ee-980d-c0883598753e" d="M7,25.38H5a.62.62,0,1,0,0,1.24H7a.62.62,0,0,0,0-1.24Z"/>
    <path class="bcba7dfa-fafb-47ee-980d-c0883598753e" d="M7,21.38H5a.62.62,0,1,0,0,1.24H7a.62.62,0,0,0,0-1.24Z"/>
    <path class="bcba7dfa-fafb-47ee-980d-c0883598753e" d="M26,28.38a.61.61,0,0,0-.62.62v2a.62.62,0,0,0,1.24,0V29A.61.61,0,0,0,26,28.38Z"/>
    <path class="bcba7dfa-fafb-47ee-980d-c0883598753e" d="M18,28.38a.61.61,0,0,0-.62.62v2a.62.62,0,0,0,1.24,0V29A.61.61,0,0,0,18,28.38Z"/>
    <path class="bcba7dfa-fafb-47ee-980d-c0883598753e" d="M22,28.38a.61.61,0,0,0-.62.62v2a.62.62,0,0,0,1.24,0V29A.61.61,0,0,0,22,28.38Z"/>
    <path class="bcba7dfa-fafb-47ee-980d-c0883598753e" d="M10,28.38a.61.61,0,0,0-.62.62v2a.62.62,0,0,0,1.24,0V29A.61.61,0,0,0,10,28.38Z"/>
    <path class="bcba7dfa-fafb-47ee-980d-c0883598753e" d="M14,28.38a.61.61,0,0,0-.62.62v2a.62.62,0,0,0,1.24,0V29A.61.61,0,0,0,14,28.38Z"/>
    <path class="bcba7dfa-fafb-47ee-980d-c0883598753e" d="M26,4.38a.61.61,0,0,0-.62.62V7a.62.62,0,0,0,1.24,0V5A.61.61,0,0,0,26,4.38Z"/>
    <path class="bcba7dfa-fafb-47ee-980d-c0883598753e" d="M18,7.62A.61.61,0,0,0,18.62,7V5a.62.62,0,0,0-1.24,0V7A.61.61,0,0,0,18,7.62Z"/>
    <path class="bcba7dfa-fafb-47ee-980d-c0883598753e" d="M22,7.62A.61.61,0,0,0,22.62,7V5a.62.62,0,0,0-1.24,0V7A.61.61,0,0,0,22,7.62Z"/>
    <path class="bcba7dfa-fafb-47ee-980d-c0883598753e" d="M10,7.62A.61.61,0,0,0,10.62,7V5A.62.62,0,0,0,9.38,5V7A.61.61,0,0,0,10,7.62Z"/>
    <path class="bcba7dfa-fafb-47ee-980d-c0883598753e" d="M14,7.62A.61.61,0,0,0,14.62,7V5a.62.62,0,1,0-1.24,0V7A.61.61,0,0,0,14,7.62Z"/>
  </g>
</svg>
