<?xml version="1.0" encoding="UTF-8"?><svg id="uuid-105cf71a-ee31-4bdd-8ed1-7d63c6df105d" xmlns="http://www.w3.org/2000/svg" width="36" height="36" viewBox="0 0 36 36"><title>Stethoscope icon</title>
<desc>doctor, medical, health, nurse, physician, hospital, clinic, diagnose, listen, heartbeat, instrument, equipment, tool, heart, pulse, medicine, checkup, auscultation, cardiology, examination</desc>
<metadata><?xpacket begin="﻿" id="W5M0MpCehiHzreSzNTczkc9d"?>
<x:xmpmeta xmlns:x="adobe:ns:meta/" x:xmptk="Adobe XMP Core 8.0-c001 1.000000, 0000/00/00-00:00:00        ">
   <rdf:RDF xmlns:rdf="http://www.w3.org/1999/02/22-rdf-syntax-ns#">
      <rdf:Description rdf:about=""
            xmlns:xmp="http://ns.adobe.com/xap/1.0/"
            xmlns:tiff="http://ns.adobe.com/tiff/1.0/"
            xmlns:dc="http://purl.org/dc/elements/1.1/">
         <xmp:rhcc-file-last-modified>2025-09-25T18:02:36.380Z</xmp:rhcc-file-last-modified>
         <xmp:brand-content-subtype>Icon</xmp:brand-content-subtype>
         <xmp:rhcc-rights-restricted>no</xmp:rhcc-rights-restricted>
         <xmp:brand-content-type>Icon</xmp:brand-content-type>
         <xmp:brand-colorway>
            <rdf:Bag>
               <rdf:li>colorway:black</rdf:li>
            </rdf:Bag>
         </xmp:brand-colorway>
         <tiff:ImageLength>36</tiff:ImageLength>
         <tiff:ImageWidth>36</tiff:ImageWidth>
         <dc:modified>2025-09-25T18:05:20.345Z</dc:modified>
         <dc:format>image/svg+xml</dc:format>
         <dc:title>
            <rdf:Alt>
               <rdf:li xml:lang="x-default">Stethoscope icon</rdf:li>
            </rdf:Alt>
         </dc:title>
         <dc:description>
            <rdf:Alt>
               <rdf:li xml:lang="x-default">doctor, medical, health, nurse, physician, hospital, clinic, diagnose, listen, heartbeat, instrument, equipment, tool, heart, pulse, medicine, checkup, auscultation, cardiology, examination</rdf:li>
            </rdf:Alt>
         </dc:description>
      </rdf:Description>
   </rdf:RDF>
</x:xmpmeta>
                                                                                                    
                                                                                                    
                                                                                                    
                                                                                                    
                                                                                                    
                                                                                                    
                                                                                                    
                                                                                                    
                                                                                                    
                                                                                                    
                                                                                                    
                                                                                                    
                                                                                                    
                                                                                                    
                                                                                                    
                                                                  
<?xpacket end="w"?></metadata>
<path d="M9.78076,5.59082c.07227.02734.146.04004.21924.04004.25293,0,.49121-.1543.58545-.40527.12109-.32324-.04297-.68359-.36621-.80469l-.01562-.00586c-.32129-.12402-.67529.04492-.79688.36816-.12109.32324.05078.68652.37402.80762Z"/><path d="M13.79639,5.59082c.07227.02734.146.04004.21924.04004.25293,0,.49121-.1543.58545-.40527.12109-.32324-.04297-.68359-.36621-.80469l-.01562-.00586c-.32178-.12402-.67529.04492-.79688.36816-.12109.32324.05078.68652.37402.80762Z"/><path d="M32.625,16c0-2.5498-2.07471-4.625-4.625-4.625s-4.625,2.0752-4.625,4.625c0,2.33582,1.74713,4.25299,4,4.56177v3.43823c0,4.06641-3.30859,7.375-7.375,7.375s-7.375-3.30859-7.375-7.375v-3.40668c3.9126-.31976,7-3.60016,7-7.59332V5c0-.34473-.27979-.625-.625-.625h-3c-.34521,0-.625.28027-.625.625s.27979.625.625.625h2.375v7.375c0,3.51562-2.85986,6.375-6.375,6.375s-6.375-2.85938-6.375-6.375v-7.375h2.375c.34521,0,.625-.28027.625-.625s-.27979-.625-.625-.625h-3c-.34521,0-.625.28027-.625.625v8c0,3.99316,3.0874,7.27356,7,7.59332v3.40668c0,4.75586,3.86914,8.625,8.625,8.625s8.625-3.86914,8.625-8.625v-3.43823c2.25287-.30878,4-2.22595,4-4.56177ZM28,19.375c-1.86084,0-3.375-1.51367-3.375-3.375s1.51416-3.375,3.375-3.375,3.375,1.51367,3.375,3.375-1.51416,3.375-3.375,3.375Z"/><circle cx="28" cy="16" r="1.625"/></svg>