<svg id="ac37dbed-1afc-476e-b142-e1e9b44534cc" data-name="Icon" xmlns="http://www.w3.org/2000/svg" viewBox="0 0 36 36">
  <title>Collaboration icon - Red</title>
<desc>people, talk, conversation, idea, think, communicate, connect, people and audiences</desc>
<metadata><?xpacket begin="﻿" id="W5M0MpCehiHzreSzNTczkc9d"?>
<x:xmpmeta xmlns:x="adobe:ns:meta/" x:xmptk="Adobe XMP Core 8.0-c001 1.000000, 0000/00/00-00:00:00        ">
   <rdf:RDF xmlns:rdf="http://www.w3.org/1999/02/22-rdf-syntax-ns#">
      <rdf:Description rdf:about=""
            xmlns:xmp="http://ns.adobe.com/xap/1.0/"
            xmlns:dc="http://purl.org/dc/elements/1.1/"
            xmlns:cq="http://www.day.com/jcr/cq/1.0"
            xmlns:tiff="http://ns.adobe.com/tiff/1.0/">
         <xmp:rhcc-effective-on>2023-12-08T17:33:48.013Z</xmp:rhcc-effective-on>
         <xmp:rhcc-metadata-complete-moderator>pending</xmp:rhcc-metadata-complete-moderator>
         <xmp:rhcc-translation-id>TRA3c53761f-ad04-4ad6-8e01-a02f83ae3386</xmp:rhcc-translation-id>
         <xmp:brand-content-type>Icon</xmp:brand-content-type>
         <xmp:CreateDate>2023-12-08T17:33:48.013Z</xmp:CreateDate>
         <xmp:rhcc-aspect-ratio>square</xmp:rhcc-aspect-ratio>
         <xmp:rhcc-effective-on-set-on-upload>true</xmp:rhcc-effective-on-set-on-upload>
         <xmp:rhcc-published-asset-email-sent>true</xmp:rhcc-published-asset-email-sent>
         <xmp:rhcc-metadata-complete-uploader>pending</xmp:rhcc-metadata-complete-uploader>
         <xmp:rhcc-file-last-modified>2024-07-12T20:40:58.351Z</xmp:rhcc-file-last-modified>
         <xmp:rhcc-audience>rhcc-audience:internal</xmp:rhcc-audience>
         <xmp:brand-content-subtype>Icon</xmp:brand-content-subtype>
         <xmp:rhcc-rights-restricted>no</xmp:rhcc-rights-restricted>
         <xmp:rhcc-derivative-id>DER3c53761f-ad04-4ad6-8e01-a02f83ae3386</xmp:rhcc-derivative-id>
         <xmp:rhcc-uploaded-by>pmeilleu@redhat.com</xmp:rhcc-uploaded-by>
         <xmp:brand-logo-color>Red</xmp:brand-logo-color>
         <xmp:rhcc-notify-portal-subscribers-on-change>yes</xmp:rhcc-notify-portal-subscribers-on-change>
         <dc:format>image/svg+xml</dc:format>
         <dc:modified>2024-02-09T20:21:46.771Z</dc:modified>
         <dc:title>
            <rdf:Alt>
               <rdf:li xml:lang="x-default">Collaboration icon - Red</rdf:li>
            </rdf:Alt>
         </dc:title>
         <dc:description>
            <rdf:Alt>
               <rdf:li xml:lang="x-default">people, talk, conversation, idea, think, communicate, connect, people and audiences</rdf:li>
            </rdf:Alt>
         </dc:description>
         <cq:lastReplicationAction_scene7>Activate</cq:lastReplicationAction_scene7>
         <cq:lastReplicationAction_publish>Activate</cq:lastReplicationAction_publish>
         <cq:lastReplicated_publish>2024-10-02T19:31:04.001Z</cq:lastReplicated_publish>
         <cq:lastReplicatedBy>workflow-process-service</cq:lastReplicatedBy>
         <cq:lastReplicationAction>Activate</cq:lastReplicationAction>
         <cq:lastReplicatedBy_publish>workflow-process-service</cq:lastReplicatedBy_publish>
         <cq:isDelivered>false</cq:isDelivered>
         <cq:lastReplicated>2024-10-02T19:31:04.001Z</cq:lastReplicated>
         <cq:lastReplicatedBy_scene7>workflow-process-service</cq:lastReplicatedBy_scene7>
         <cq:lastReplicated_scene7>2024-10-02T19:31:04.001Z</cq:lastReplicated_scene7>
         <tiff:ImageLength>36</tiff:ImageLength>
         <tiff:ImageWidth>36</tiff:ImageWidth>
      </rdf:Description>
   </rdf:RDF>
</x:xmpmeta>
                                                                                                    
                                                                                                    
                                                                                                    
                                                                                                    
                                                                                                    
                                                                                                    
                                                                                                    
                                                                                                    
        
<?xpacket end="w"?></metadata>
<defs>
    <style>
      .fa046270-0f09-4f56-b5ba-c0a366d8dbeb {
        fill: #e00;
      }
    </style>
  </defs>
  <g>
    <path class="fa046270-0f09-4f56-b5ba-c0a366d8dbeb" d="M13.29,22.79a3.61,3.61,0,1,0-4.58,0A6.64,6.64,0,0,0,4.37,29a.63.63,0,0,0,.63.62H17a.62.62,0,0,0,.62-.62A6.63,6.63,0,0,0,13.29,22.79ZM8.62,20a2.38,2.38,0,0,1,4.75,0A2.38,2.38,0,0,1,8.62,20Zm-3,8.38a5.38,5.38,0,0,1,10.68,0Z"/>
    <path class="fa046270-0f09-4f56-b5ba-c0a366d8dbeb" d="M27.29,22.79a3.61,3.61,0,1,0-4.58,0A6.64,6.64,0,0,0,18.37,29a.63.63,0,0,0,.63.62H31a.62.62,0,0,0,.62-.62A6.63,6.63,0,0,0,27.29,22.79ZM22.62,20a2.38,2.38,0,0,1,4.75,0A2.38,2.38,0,0,1,22.62,20Zm-3,8.38a5.38,5.38,0,0,1,10.68,0Z"/>
    <path class="fa046270-0f09-4f56-b5ba-c0a366d8dbeb" d="M31,6.38H5A.63.63,0,0,0,4.37,7v6a.63.63,0,0,0,.63.62H8.74c2.73,2.67,1.79,2.66,4.52,0h9.48c2.73,2.67,1.8,2.66,4.52,0H31a.62.62,0,0,0,.62-.62V7A.62.62,0,0,0,31,6.38Zm-.63,6H27a.6.6,0,0,0-.44.18L25,14.12c-.55-.48-1.63-1.84-2-1.75H13c-.4-.08-1.38,1.19-2,1.74L9.44,12.56A.6.6,0,0,0,9,12.38H5.62V7.62H30.37Z"/>
  </g>
</svg>
