<svg id="bc99bd2d-f128-4b89-baa4-197e4a5acbc8" data-name="Layer 1" xmlns="http://www.w3.org/2000/svg" viewBox="0 0 36 36">
  <title>Secured cloud with OS icon (2 color) - Standard</title>
<desc>SaaS, service, access, drive, storage, connection, open, code, development, private, public, upload, download, internet, online, software and technologies, RHEL, Linux, operating system, OS, security</desc>
<metadata><?xpacket begin="﻿" id="W5M0MpCehiHzreSzNTczkc9d"?>
<x:xmpmeta xmlns:x="adobe:ns:meta/" x:xmptk="Adobe XMP Core 8.0-c001 1.000000, 0000/00/00-00:00:00        ">
   <rdf:RDF xmlns:rdf="http://www.w3.org/1999/02/22-rdf-syntax-ns#">
      <rdf:Description rdf:about=""
            xmlns:xmp="http://ns.adobe.com/xap/1.0/"
            xmlns:dc="http://purl.org/dc/elements/1.1/"
            xmlns:cq="http://www.day.com/jcr/cq/1.0"
            xmlns:tiff="http://ns.adobe.com/tiff/1.0/">
         <xmp:rhcc-effective-on>2023-12-08T17:42:29.306Z</xmp:rhcc-effective-on>
         <xmp:rhcc-metadata-complete-moderator>pending</xmp:rhcc-metadata-complete-moderator>
         <xmp:rhcc-translation-id>TRA9773b1ba-1345-4157-b909-8780a7ac4faf</xmp:rhcc-translation-id>
         <xmp:brand-content-type>Icon</xmp:brand-content-type>
         <xmp:CreateDate>2023-12-08T17:42:29.306Z</xmp:CreateDate>
         <xmp:rhcc-effective-on-set-on-upload>true</xmp:rhcc-effective-on-set-on-upload>
         <xmp:rhcc-metadata-complete-uploader>pending</xmp:rhcc-metadata-complete-uploader>
         <xmp:rhcc-file-last-modified>2023-12-08T17:42:42.669Z</xmp:rhcc-file-last-modified>
         <xmp:rhcc-audience>rhcc-audience:internal</xmp:rhcc-audience>
         <xmp:rhcc-rights-restricted>no</xmp:rhcc-rights-restricted>
         <xmp:brand-content-subtype>Icon</xmp:brand-content-subtype>
         <xmp:rhcc-derivative-id>DER9773b1ba-1345-4157-b909-8780a7ac4faf</xmp:rhcc-derivative-id>
         <xmp:brand-logo-color>Standard</xmp:brand-logo-color>
         <xmp:rhcc-notify-portal-subscribers-on-change>yes</xmp:rhcc-notify-portal-subscribers-on-change>
         <dc:format>image/svg+xml</dc:format>
         <dc:modified>2024-02-09T20:15:29.156Z</dc:modified>
         <dc:title>
            <rdf:Alt>
               <rdf:li xml:lang="x-default">Secured cloud with OS icon (2 color) - Standard</rdf:li>
            </rdf:Alt>
         </dc:title>
         <dc:description>
            <rdf:Alt>
               <rdf:li xml:lang="x-default">SaaS, service, access, drive, storage, connection, open, code, development, private, public, upload, download, internet, online, software and technologies, RHEL, Linux, operating system, OS, security</rdf:li>
            </rdf:Alt>
         </dc:description>
         <cq:lastReplicationAction_scene7>Activate</cq:lastReplicationAction_scene7>
         <cq:lastReplicationAction_publish>Activate</cq:lastReplicationAction_publish>
         <cq:lastReplicated_publish>2024-02-09T21:52:18.665Z</cq:lastReplicated_publish>
         <cq:lastReplicatedBy>workflow-process-service</cq:lastReplicatedBy>
         <cq:lastReplicationAction>Activate</cq:lastReplicationAction>
         <cq:lastReplicatedBy_publish>workflow-process-service</cq:lastReplicatedBy_publish>
         <cq:isDelivered>true</cq:isDelivered>
         <cq:lastReplicated>2024-02-09T21:52:18.665Z</cq:lastReplicated>
         <cq:lastReplicatedBy_scene7>workflow-process-service</cq:lastReplicatedBy_scene7>
         <cq:lastReplicated_scene7>2024-02-09T21:52:18.665Z</cq:lastReplicated_scene7>
         <tiff:ImageLength>36</tiff:ImageLength>
         <tiff:ImageWidth>36</tiff:ImageWidth>
      </rdf:Description>
   </rdf:RDF>
</x:xmpmeta>
                                                                                                    
                                                                                                    
                                                                                                    
                                                                                                    
                                                                                                    
                                                                                                    
                                                                                                    
                                                                                                    
                                                                                                    
                                                                                                    
                                 
<?xpacket end="w"?></metadata>
<defs>
    <style>
      .a0e29a61-ab5b-493f-8a74-b61402522456 {
        fill: #e00;
      }
    </style>
  </defs>
  <g>
    <path d="M23,25.625H10.5a7.124,7.124,0,1,1,.836-14.2A9.124,9.124,0,0,1,28.625,15.5v.022a5.1,5.1,0,0,1,4,4.978.625.625,0,0,1-1.25,0,3.855,3.855,0,0,0-3.468-3.831.624.624,0,0,1-.558-.661l.007-.112c.009-.132.019-.263.019-.4a7.874,7.874,0,0,0-15.1-3.135.623.623,0,0,1-.689.365,5.959,5.959,0,0,0-1.088-.105,5.875,5.875,0,0,0,0,11.75H23a.625.625,0,0,1,0,1.25Z"/>
    <path class="a0e29a61-ab5b-493f-8a74-b61402522456" d="M24,29.625H5a.625.625,0,0,1,0-1.25H24a.625.625,0,0,1,0,1.25Z"/>
    <path d="M32.13,21.936l-3-.638a.6.6,0,0,0-.26,0l-3,.638a.624.624,0,0,0-.5.611V26a3.625,3.625,0,0,0,7.25,0V22.547A.624.624,0,0,0,32.13,21.936Z"/>
  </g>
</svg>
