<svg id="b441e471-239d-45ef-b766-3248d7acf8de" data-name="Icon" xmlns="http://www.w3.org/2000/svg" viewBox="0 0 36 36">
  <title>Mainframe icon - Red</title>
<desc>IBM Z, server, room, rack, cloud, host, CPU, terminal, network, database, hardware, legacy</desc>
<metadata><?xpacket begin="﻿" id="W5M0MpCehiHzreSzNTczkc9d"?>
<x:xmpmeta xmlns:x="adobe:ns:meta/" x:xmptk="Adobe XMP Core 8.0-c001 1.000000, 0000/00/00-00:00:00        ">
   <rdf:RDF xmlns:rdf="http://www.w3.org/1999/02/22-rdf-syntax-ns#">
      <rdf:Description rdf:about=""
            xmlns:xmp="http://ns.adobe.com/xap/1.0/"
            xmlns:dc="http://purl.org/dc/elements/1.1/"
            xmlns:cq="http://www.day.com/jcr/cq/1.0"
            xmlns:tiff="http://ns.adobe.com/tiff/1.0/">
         <xmp:rhcc-effective-on>2023-12-08T17:34:19.837Z</xmp:rhcc-effective-on>
         <xmp:rhcc-metadata-complete-moderator>pending</xmp:rhcc-metadata-complete-moderator>
         <xmp:rhcc-translation-id>TRA6a801c73-acfb-438d-8a2b-59e47a4d38eb</xmp:rhcc-translation-id>
         <xmp:brand-content-type>Icon</xmp:brand-content-type>
         <xmp:CreateDate>2023-12-08T17:34:19.837Z</xmp:CreateDate>
         <xmp:rhcc-aspect-ratio>square</xmp:rhcc-aspect-ratio>
         <xmp:rhcc-effective-on-set-on-upload>true</xmp:rhcc-effective-on-set-on-upload>
         <xmp:rhcc-published-asset-email-sent>true</xmp:rhcc-published-asset-email-sent>
         <xmp:rhcc-metadata-complete-uploader>pending</xmp:rhcc-metadata-complete-uploader>
         <xmp:rhcc-file-last-modified>2024-07-12T19:26:19.343Z</xmp:rhcc-file-last-modified>
         <xmp:rhcc-audience>rhcc-audience:internal</xmp:rhcc-audience>
         <xmp:brand-content-subtype>Icon</xmp:brand-content-subtype>
         <xmp:rhcc-rights-restricted>no</xmp:rhcc-rights-restricted>
         <xmp:rhcc-derivative-id>DER6a801c73-acfb-438d-8a2b-59e47a4d38eb</xmp:rhcc-derivative-id>
         <xmp:rhcc-uploaded-by>pmeilleu@redhat.com</xmp:rhcc-uploaded-by>
         <xmp:brand-logo-color>Red</xmp:brand-logo-color>
         <xmp:rhcc-notify-portal-subscribers-on-change>yes</xmp:rhcc-notify-portal-subscribers-on-change>
         <dc:format>image/svg+xml</dc:format>
         <dc:modified>2024-02-09T20:11:56.303Z</dc:modified>
         <dc:title>
            <rdf:Alt>
               <rdf:li xml:lang="x-default">Mainframe icon - Red</rdf:li>
            </rdf:Alt>
         </dc:title>
         <dc:description>
            <rdf:Alt>
               <rdf:li xml:lang="x-default">IBM Z, server, room, rack, cloud, host, CPU, terminal, network, database, hardware, legacy</rdf:li>
            </rdf:Alt>
         </dc:description>
         <cq:lastReplicationAction_scene7>Activate</cq:lastReplicationAction_scene7>
         <cq:lastReplicationAction_publish>Activate</cq:lastReplicationAction_publish>
         <cq:lastReplicated_publish>2024-10-02T19:39:07.407Z</cq:lastReplicated_publish>
         <cq:lastReplicatedBy>workflow-process-service</cq:lastReplicatedBy>
         <cq:lastReplicationAction>Activate</cq:lastReplicationAction>
         <cq:lastReplicatedBy_publish>workflow-process-service</cq:lastReplicatedBy_publish>
         <cq:isDelivered>false</cq:isDelivered>
         <cq:lastReplicated>2024-10-02T19:39:07.407Z</cq:lastReplicated>
         <cq:lastReplicatedBy_scene7>workflow-process-service</cq:lastReplicatedBy_scene7>
         <cq:lastReplicated_scene7>2024-10-02T19:39:07.407Z</cq:lastReplicated_scene7>
         <tiff:ImageLength>36</tiff:ImageLength>
         <tiff:ImageWidth>36</tiff:ImageWidth>
      </rdf:Description>
   </rdf:RDF>
</x:xmpmeta>
                                                                                                    
                                                                                                    
                                                                                                    
                                                                                                    
                                                                                                    
                                                                                                    
                                                                                                    
                                                                                                    
        
<?xpacket end="w"?></metadata>
<defs>
    <style>
      .b03ed14b-fcd8-483b-b650-78a82b0f9fc6 {
        fill: #e00;
      }
    </style>
  </defs>
  <path class="b03ed14b-fcd8-483b-b650-78a82b0f9fc6" d="M25,22.62a.62.62,0,1,0-.62-.62A.61.61,0,0,0,25,22.62Z"/>
  <path class="b03ed14b-fcd8-483b-b650-78a82b0f9fc6" d="M11,22.62a.62.62,0,1,0-.62-.62A.61.61,0,0,0,11,22.62Z"/>
  <g>
    <path class="b03ed14b-fcd8-483b-b650-78a82b0f9fc6" d="M31,30.38H5a.62.62,0,1,0,0,1.24H31a.62.62,0,0,0,0-1.24Z"/>
    <path class="b03ed14b-fcd8-483b-b650-78a82b0f9fc6" d="M6,27.62H16a.62.62,0,0,0,.62-.62V5A.62.62,0,0,0,16,4.38H6A.62.62,0,0,0,5.38,5V27A.62.62,0,0,0,6,27.62Zm.62-22h8.76V26.38H6.62Z"/>
    <path class="b03ed14b-fcd8-483b-b650-78a82b0f9fc6" d="M20,27.62H30a.62.62,0,0,0,.62-.62V5A.62.62,0,0,0,30,4.38H20a.62.62,0,0,0-.62.62V27A.62.62,0,0,0,20,27.62Zm.62-22h8.76V26.38H20.62Z"/>
    <path class="b03ed14b-fcd8-483b-b650-78a82b0f9fc6" d="M13,11.38H9a.62.62,0,0,0,0,1.24h4a.62.62,0,0,0,0-1.24Z"/>
    <path class="b03ed14b-fcd8-483b-b650-78a82b0f9fc6" d="M13,8.38H9A.62.62,0,0,0,9,9.62h4a.62.62,0,0,0,0-1.24Z"/>
    <path class="b03ed14b-fcd8-483b-b650-78a82b0f9fc6" d="M27,11.38H23a.62.62,0,0,0,0,1.24h4a.62.62,0,1,0,0-1.24Z"/>
    <path class="b03ed14b-fcd8-483b-b650-78a82b0f9fc6" d="M27,8.38H23a.62.62,0,1,0,0,1.24h4a.62.62,0,1,0,0-1.24Z"/>
  </g>
</svg>
