<svg id="aa08ee97-cade-4112-b001-058716eeef86" data-name="Icon" xmlns="http://www.w3.org/2000/svg" viewBox="0 0 36 36">
  <title>Fighter jet icon</title>
<desc>fly, plane, trip, travel, airport, speed, airline, defense, fast, transportation, NAPS, DOD, IC, government, north america public sector, department of defense, intelligence community, jet</desc>
<metadata><?xpacket begin="﻿" id="W5M0MpCehiHzreSzNTczkc9d"?>
<x:xmpmeta xmlns:x="adobe:ns:meta/" x:xmptk="Adobe XMP Core 8.0-c001 1.000000, 0000/00/00-00:00:00        ">
   <rdf:RDF xmlns:rdf="http://www.w3.org/1999/02/22-rdf-syntax-ns#">
      <rdf:Description rdf:about=""
            xmlns:xmp="http://ns.adobe.com/xap/1.0/"
            xmlns:dc="http://purl.org/dc/elements/1.1/"
            xmlns:cq="http://www.day.com/jcr/cq/1.0"
            xmlns:tiff="http://ns.adobe.com/tiff/1.0/">
         <xmp:rhcc-effective-on>2023-12-08T17:46:11.434Z</xmp:rhcc-effective-on>
         <xmp:rhcc-metadata-complete-moderator>pending</xmp:rhcc-metadata-complete-moderator>
         <xmp:rhcc-translation-id>TRA886a7cd1-459a-43fd-a8bc-9008f23a680c</xmp:rhcc-translation-id>
         <xmp:brand-content-type>Icon</xmp:brand-content-type>
         <xmp:CreateDate>2023-12-08T17:46:11.434Z</xmp:CreateDate>
         <xmp:rhcc-aspect-ratio>square</xmp:rhcc-aspect-ratio>
         <xmp:rhcc-effective-on-set-on-upload>true</xmp:rhcc-effective-on-set-on-upload>
         <xmp:rhcc-published-asset-email-sent>true</xmp:rhcc-published-asset-email-sent>
         <xmp:rhcc-metadata-complete-uploader>pending</xmp:rhcc-metadata-complete-uploader>
         <xmp:rhcc-file-last-modified>2024-07-12T21:18:10.370Z</xmp:rhcc-file-last-modified>
         <xmp:rhcc-audience>rhcc-audience:internal</xmp:rhcc-audience>
         <xmp:brand-content-subtype>Icon</xmp:brand-content-subtype>
         <xmp:rhcc-rights-restricted>no</xmp:rhcc-rights-restricted>
         <xmp:rhcc-derivative-id>DER886a7cd1-459a-43fd-a8bc-9008f23a680c</xmp:rhcc-derivative-id>
         <xmp:rhcc-uploaded-by>pmeilleu@redhat.com</xmp:rhcc-uploaded-by>
         <xmp:brand-logo-color>White</xmp:brand-logo-color>
         <xmp:rhcc-notify-portal-subscribers-on-change>yes</xmp:rhcc-notify-portal-subscribers-on-change>
         <dc:format>image/svg+xml</dc:format>
         <dc:modified>2024-02-09T20:25:28.766Z</dc:modified>
         <dc:title>
            <rdf:Alt>
               <rdf:li xml:lang="x-default">Fighter jet icon</rdf:li>
            </rdf:Alt>
         </dc:title>
         <dc:description>
            <rdf:Alt>
               <rdf:li xml:lang="x-default">fly, plane, trip, travel, airport, speed, airline, defense, fast, transportation, NAPS, DOD, IC, government, north america public sector, department of defense, intelligence community, jet</rdf:li>
            </rdf:Alt>
         </dc:description>
         <cq:lastReplicationAction_scene7>Activate</cq:lastReplicationAction_scene7>
         <cq:lastReplicationAction_publish>Activate</cq:lastReplicationAction_publish>
         <cq:lastReplicated_publish>2024-10-02T19:46:06.212Z</cq:lastReplicated_publish>
         <cq:lastReplicatedBy>workflow-process-service</cq:lastReplicatedBy>
         <cq:lastReplicationAction>Activate</cq:lastReplicationAction>
         <cq:lastReplicatedBy_publish>workflow-process-service</cq:lastReplicatedBy_publish>
         <cq:isDelivered>false</cq:isDelivered>
         <cq:lastReplicated>2024-10-02T19:46:06.212Z</cq:lastReplicated>
         <cq:lastReplicatedBy_scene7>workflow-process-service</cq:lastReplicatedBy_scene7>
         <cq:lastReplicated_scene7>2024-10-02T19:46:06.212Z</cq:lastReplicated_scene7>
         <tiff:ImageLength>36</tiff:ImageLength>
         <tiff:ImageWidth>36</tiff:ImageWidth>
      </rdf:Description>
   </rdf:RDF>
</x:xmpmeta>
                                                                                                    
                                                                                                    
                                                                                                    
                                                                                                    
                                                                                                    
                                                                                                    
                                                                                                    
         
<?xpacket end="w"?></metadata>
<defs>
    <style>
      .a2a31d49-167a-43d4-88a8-6642fabbdf29 {
        fill: #fff;
      }
    </style>
  </defs>
  <g>
    <path class="a2a31d49-167a-43d4-88a8-6642fabbdf29" d="M5,19.38a.61.61,0,0,0-.62.62v7a.62.62,0,0,0,1.24,0V20A.61.61,0,0,0,5,19.38Z"/>
    <path class="a2a31d49-167a-43d4-88a8-6642fabbdf29" d="M31,19.38a.61.61,0,0,0-.62.62v7a.62.62,0,0,0,1.24,0V20A.61.61,0,0,0,31,19.38Z"/>
    <path class="a2a31d49-167a-43d4-88a8-6642fabbdf29" d="M21.62,15.21V11.69A9.46,9.46,0,0,0,18.83,5c-.33-.37-.79-.85-1.27-.39a9.57,9.57,0,0,0-3.18,7.13v3.52l-7.77,6.3a.62.62,0,0,0-.23.49v4a.62.62,0,0,0,.79.6l6.21-1.77v1l-1.9,2.84a.62.62,0,0,0,.08.79l2,2a.62.62,0,0,0,.72.12l2-1a.63.63,0,0,0-.56-1.12l-1.6.8L12.8,28.92c.09-.2,2-2.74,1.83-2.92V24a.62.62,0,0,0-.79-.6L7.62,25.17V22.3L15.39,16a.59.59,0,0,0,.23-.48V11.69A8.25,8.25,0,0,1,18,5.88a8.25,8.25,0,0,1,2.38,5.81v3.82a.59.59,0,0,0,.23.48l7.77,6.31v2.87L22.17,23.4a.62.62,0,0,0-.79.6v2c-.14.17,1.74,2.74,1.82,2.92l-1.32,1.32-1.6-.8a.63.63,0,0,0-.56,1.12l2,1a.62.62,0,0,0,.72-.12l2-2a.62.62,0,0,0,.08-.79l-1.9-2.84v-1l6.21,1.77a.62.62,0,0,0,.79-.6V22a.62.62,0,0,0-.23-.49Z"/>
    <path class="a2a31d49-167a-43d4-88a8-6642fabbdf29" d="M18,10.38a.61.61,0,0,0-.62.62v4a.62.62,0,1,0,1.24,0V11A.61.61,0,0,0,18,10.38Z"/>
    <path class="a2a31d49-167a-43d4-88a8-6642fabbdf29" d="M18,25.38a.61.61,0,0,0-.62.62v5a.62.62,0,0,0,1.24,0V26A.61.61,0,0,0,18,25.38Z"/>
  </g>
</svg>
