<svg id="b0447a25-2d0b-4349-a639-2f3e65afc818" data-name="Icon" xmlns="http://www.w3.org/2000/svg" viewBox="0 0 36 36">
  <title>Government icon</title>
<desc>capital, laws, columns, legal, congress, parliament, buildings and industries, NAPS, DOD, SLED, CIV, IC, government, north america public sector, state, local, and education, department of defense, civilian, intelligence community</desc>
<metadata><?xpacket begin="﻿" id="W5M0MpCehiHzreSzNTczkc9d"?>
<x:xmpmeta xmlns:x="adobe:ns:meta/" x:xmptk="Adobe XMP Core 8.0-c001 1.000000, 0000/00/00-00:00:00        ">
   <rdf:RDF xmlns:rdf="http://www.w3.org/1999/02/22-rdf-syntax-ns#">
      <rdf:Description rdf:about=""
            xmlns:xmp="http://ns.adobe.com/xap/1.0/"
            xmlns:dc="http://purl.org/dc/elements/1.1/"
            xmlns:cq="http://www.day.com/jcr/cq/1.0"
            xmlns:tiff="http://ns.adobe.com/tiff/1.0/">
         <xmp:rhcc-effective-on>2023-12-08T17:47:28.079Z</xmp:rhcc-effective-on>
         <xmp:rhcc-metadata-complete-moderator>pending</xmp:rhcc-metadata-complete-moderator>
         <xmp:rhcc-translation-id>TRA1ac1953e-a1d1-4558-8f2e-16682eacf109</xmp:rhcc-translation-id>
         <xmp:brand-content-type>Icon</xmp:brand-content-type>
         <xmp:CreateDate>2023-12-08T17:47:28.079Z</xmp:CreateDate>
         <xmp:rhcc-aspect-ratio>square</xmp:rhcc-aspect-ratio>
         <xmp:rhcc-effective-on-set-on-upload>true</xmp:rhcc-effective-on-set-on-upload>
         <xmp:rhcc-published-asset-email-sent>true</xmp:rhcc-published-asset-email-sent>
         <xmp:rhcc-metadata-complete-uploader>pending</xmp:rhcc-metadata-complete-uploader>
         <xmp:rhcc-file-last-modified>2024-07-12T21:14:49.407Z</xmp:rhcc-file-last-modified>
         <xmp:rhcc-audience>rhcc-audience:internal</xmp:rhcc-audience>
         <xmp:brand-content-subtype>Icon</xmp:brand-content-subtype>
         <xmp:rhcc-rights-restricted>no</xmp:rhcc-rights-restricted>
         <xmp:rhcc-derivative-id>DER1ac1953e-a1d1-4558-8f2e-16682eacf109</xmp:rhcc-derivative-id>
         <xmp:rhcc-uploaded-by>pmeilleu@redhat.com</xmp:rhcc-uploaded-by>
         <xmp:brand-logo-color>Red</xmp:brand-logo-color>
         <xmp:rhcc-notify-portal-subscribers-on-change>yes</xmp:rhcc-notify-portal-subscribers-on-change>
         <dc:format>image/svg+xml</dc:format>
         <dc:modified>2024-02-09T20:24:26.993Z</dc:modified>
         <dc:title>
            <rdf:Alt>
               <rdf:li xml:lang="x-default">Government icon</rdf:li>
            </rdf:Alt>
         </dc:title>
         <dc:description>
            <rdf:Alt>
               <rdf:li xml:lang="x-default">capital, laws, columns, legal, congress, parliament, buildings and industries, NAPS, DOD, SLED, CIV, IC, government, north america public sector, state, local, and education, department of defense, civilian, intelligence community</rdf:li>
            </rdf:Alt>
         </dc:description>
         <cq:lastReplicationAction_scene7>Activate</cq:lastReplicationAction_scene7>
         <cq:lastReplicationAction_publish>Activate</cq:lastReplicationAction_publish>
         <cq:lastReplicated_publish>2024-10-02T19:34:43.291Z</cq:lastReplicated_publish>
         <cq:lastReplicatedBy>workflow-process-service</cq:lastReplicatedBy>
         <cq:lastReplicationAction>Activate</cq:lastReplicationAction>
         <cq:lastReplicatedBy_publish>workflow-process-service</cq:lastReplicatedBy_publish>
         <cq:isDelivered>false</cq:isDelivered>
         <cq:lastReplicated>2024-10-02T19:34:43.291Z</cq:lastReplicated>
         <cq:lastReplicatedBy_scene7>workflow-process-service</cq:lastReplicatedBy_scene7>
         <cq:lastReplicated_scene7>2024-10-02T19:34:43.291Z</cq:lastReplicated_scene7>
         <tiff:ImageLength>36</tiff:ImageLength>
         <tiff:ImageWidth>36</tiff:ImageWidth>
      </rdf:Description>
   </rdf:RDF>
</x:xmpmeta>
                                                                                                    
                                                                                                    
                                                                                                    
                                                                                                    
                                                                                                    
                                                                                                    
                                                               
<?xpacket end="w"?></metadata>
<defs>
    <style>
      .b0c6d3bd-ec46-4acd-8c9f-99e00945dba9 {
        fill: #e00;
      }
    </style>
  </defs>
  <g>
    <path class="b0c6d3bd-ec46-4acd-8c9f-99e00945dba9" d="M5,12.62H31a.62.62,0,0,0,.61-.47.63.63,0,0,0-.31-.7l-13-7a.64.64,0,0,0-.6,0l-13,7a.63.63,0,0,0-.31.7A.62.62,0,0,0,5,12.62ZM18,5.71l10.52,5.67h-21Z"/>
    <path class="b0c6d3bd-ec46-4acd-8c9f-99e00945dba9" d="M29.14,13.38H6.86a.62.62,0,1,0,0,1.24H29.14a.62.62,0,1,0,0-1.24Z"/>
    <path class="b0c6d3bd-ec46-4acd-8c9f-99e00945dba9" d="M6.23,29a.62.62,0,0,0,.63.62H29.14a.62.62,0,1,0,0-1.24H6.86A.62.62,0,0,0,6.23,29Z"/>
    <path class="b0c6d3bd-ec46-4acd-8c9f-99e00945dba9" d="M31.62,30.38H4.38a.62.62,0,1,0,0,1.24H31.62a.62.62,0,0,0,0-1.24Z"/>
    <path class="b0c6d3bd-ec46-4acd-8c9f-99e00945dba9" d="M8.62,27V16a.62.62,0,0,0-1.24,0V27a.62.62,0,0,0,1.24,0Z"/>
    <path class="b0c6d3bd-ec46-4acd-8c9f-99e00945dba9" d="M18.62,27V16a.62.62,0,0,0-1.24,0V27a.62.62,0,0,0,1.24,0Z"/>
    <path class="b0c6d3bd-ec46-4acd-8c9f-99e00945dba9" d="M23.62,27V16a.62.62,0,0,0-1.24,0V27a.62.62,0,0,0,1.24,0Z"/>
    <path class="b0c6d3bd-ec46-4acd-8c9f-99e00945dba9" d="M13.62,27V16a.62.62,0,0,0-1.24,0V27a.62.62,0,0,0,1.24,0Z"/>
    <path class="b0c6d3bd-ec46-4acd-8c9f-99e00945dba9" d="M28.62,27V16a.62.62,0,0,0-1.24,0V27a.62.62,0,0,0,1.24,0Z"/>
  </g>
</svg>
