<svg id="a386de06-2cf9-4155-bd0c-4946e1ccd1ab" data-name="Icon" xmlns="http://www.w3.org/2000/svg" viewBox="0 0 36 36">
  <title>Face mask icon - White</title>
<desc>covid, protection, sick, healthy, cover, face, nose, mouth, cough, sneeze, safety, objects</desc>
<metadata><?xpacket begin="﻿" id="W5M0MpCehiHzreSzNTczkc9d"?>
<x:xmpmeta xmlns:x="adobe:ns:meta/" x:xmptk="Adobe XMP Core 8.0-c001 1.000000, 0000/00/00-00:00:00        ">
   <rdf:RDF xmlns:rdf="http://www.w3.org/1999/02/22-rdf-syntax-ns#">
      <rdf:Description rdf:about=""
            xmlns:xmp="http://ns.adobe.com/xap/1.0/"
            xmlns:dc="http://purl.org/dc/elements/1.1/"
            xmlns:cq="http://www.day.com/jcr/cq/1.0"
            xmlns:tiff="http://ns.adobe.com/tiff/1.0/">
         <xmp:rhcc-effective-on>2023-12-08T17:35:36.347Z</xmp:rhcc-effective-on>
         <xmp:rhcc-metadata-complete-moderator>pending</xmp:rhcc-metadata-complete-moderator>
         <xmp:rhcc-translation-id>TRAc24fe845-185a-44fe-aac0-1e2a6faddf27</xmp:rhcc-translation-id>
         <xmp:brand-content-type>Icon</xmp:brand-content-type>
         <xmp:CreateDate>2023-12-08T17:35:36.347Z</xmp:CreateDate>
         <xmp:rhcc-aspect-ratio>square</xmp:rhcc-aspect-ratio>
         <xmp:rhcc-effective-on-set-on-upload>true</xmp:rhcc-effective-on-set-on-upload>
         <xmp:rhcc-published-asset-email-sent>true</xmp:rhcc-published-asset-email-sent>
         <xmp:rhcc-metadata-complete-uploader>pending</xmp:rhcc-metadata-complete-uploader>
         <xmp:rhcc-file-last-modified>2024-07-12T22:00:43.387Z</xmp:rhcc-file-last-modified>
         <xmp:rhcc-audience>rhcc-audience:internal</xmp:rhcc-audience>
         <xmp:brand-content-subtype>Icon</xmp:brand-content-subtype>
         <xmp:rhcc-rights-restricted>no</xmp:rhcc-rights-restricted>
         <xmp:rhcc-derivative-id>DERc24fe845-185a-44fe-aac0-1e2a6faddf27</xmp:rhcc-derivative-id>
         <xmp:rhcc-uploaded-by>pmeilleu@redhat.com</xmp:rhcc-uploaded-by>
         <xmp:brand-logo-color>White</xmp:brand-logo-color>
         <xmp:rhcc-notify-portal-subscribers-on-change>yes</xmp:rhcc-notify-portal-subscribers-on-change>
         <dc:format>image/svg+xml</dc:format>
         <dc:modified>2024-02-09T20:30:17.156Z</dc:modified>
         <dc:title>
            <rdf:Alt>
               <rdf:li xml:lang="x-default">Face mask icon - White</rdf:li>
            </rdf:Alt>
         </dc:title>
         <dc:description>
            <rdf:Alt>
               <rdf:li xml:lang="x-default">covid, protection, sick, healthy, cover, face, nose, mouth, cough, sneeze, safety, objects</rdf:li>
            </rdf:Alt>
         </dc:description>
         <cq:lastReplicationAction_scene7>Activate</cq:lastReplicationAction_scene7>
         <cq:lastReplicationAction_publish>Activate</cq:lastReplicationAction_publish>
         <cq:lastReplicated_publish>2024-10-02T19:34:28.326Z</cq:lastReplicated_publish>
         <cq:lastReplicatedBy>workflow-process-service</cq:lastReplicatedBy>
         <cq:lastReplicationAction>Activate</cq:lastReplicationAction>
         <cq:lastReplicatedBy_publish>workflow-process-service</cq:lastReplicatedBy_publish>
         <cq:isDelivered>false</cq:isDelivered>
         <cq:lastReplicated>2024-10-02T19:34:28.326Z</cq:lastReplicated>
         <cq:lastReplicatedBy_scene7>workflow-process-service</cq:lastReplicatedBy_scene7>
         <cq:lastReplicated_scene7>2024-10-02T19:34:28.326Z</cq:lastReplicated_scene7>
         <tiff:ImageLength>36</tiff:ImageLength>
         <tiff:ImageWidth>36</tiff:ImageWidth>
      </rdf:Description>
   </rdf:RDF>
</x:xmpmeta>
                                                                                                    
                                                                                                    
                                                                                                    
                                                                                                    
                                                                                                    
                                                                                                    
                                                                                                    
                                                                                                    
        
<?xpacket end="w"?></metadata>
<defs>
    <style>
      .be911908-baa4-4cf3-9cfb-e217cfcd2066 {
        fill: #fff;
      }
    </style>
  </defs>
  <path class="be911908-baa4-4cf3-9cfb-e217cfcd2066" d="M32.62,18a4.61,4.61,0,0,0-4-4.57,3.62,3.62,0,0,0-3.57-3h-.25a8.44,8.44,0,0,1-3.14-.61,9.69,9.69,0,0,0-7.22,0,8.44,8.44,0,0,1-3.14.61H11a3.62,3.62,0,0,0-3.57,3,4.61,4.61,0,0,0,0,9.14A3.62,3.62,0,0,0,11,25.62H25a3.62,3.62,0,0,0,3.57-3.05A4.61,4.61,0,0,0,32.62,18Zm-28,0a3.37,3.37,0,0,1,2.76-3.31v6.62A3.37,3.37,0,0,1,4.62,18ZM25,24.38H11A2.39,2.39,0,0,1,8.62,22V20.73l4.14.88A.62.62,0,1,0,13,20.39l-4.4-.94v-3l4.4-.94a.62.62,0,0,0-.26-1.22l-4.14.88V14A2.39,2.39,0,0,1,11,11.62h.25a9.73,9.73,0,0,0,3.61-.69,8.42,8.42,0,0,1,6.28,0,9.73,9.73,0,0,0,3.61.69H25A2.39,2.39,0,0,1,27.38,14v1.21l-4.25-.9a.62.62,0,0,0-.26,1.22l4.51,1v2.94l-4.51,1a.62.62,0,1,0,.26,1.22l4.25-.9V22A2.39,2.39,0,0,1,25,24.38Zm3.62-3.07V14.69A3.37,3.37,0,0,1,28.62,21.31Z"/>
</svg>
