<?xml version="1.0" encoding="UTF-8"?>
<svg id="Icon" xmlns="http://www.w3.org/2000/svg" viewBox="0 0 36 36">
  <title>Wrap icon</title>
<desc>ui, wrap, flow, layout, spacing, formatting</desc>
<metadata><?xpacket begin="﻿" id="W5M0MpCehiHzreSzNTczkc9d"?>
<x:xmpmeta xmlns:x="adobe:ns:meta/" x:xmptk="Adobe XMP Core 8.0-c001 1.000000, 0000/00/00-00:00:00        ">
   <rdf:RDF xmlns:rdf="http://www.w3.org/1999/02/22-rdf-syntax-ns#">
      <rdf:Description rdf:about=""
            xmlns:xmp="http://ns.adobe.com/xap/1.0/"
            xmlns:tiff="http://ns.adobe.com/tiff/1.0/"
            xmlns:dc="http://purl.org/dc/elements/1.1/">
         <xmp:brand-content-subtype>Icon</xmp:brand-content-subtype>
         <xmp:rhcc-rights-restricted>no</xmp:rhcc-rights-restricted>
         <xmp:brand-content-type>Icon</xmp:brand-content-type>
         <xmp:rhcc-file-last-modified>2025-08-13T14:51:20.858Z</xmp:rhcc-file-last-modified>
         <xmp:brand-colorway>
            <rdf:Bag>
               <rdf:li>colorway:red</rdf:li>
            </rdf:Bag>
         </xmp:brand-colorway>
         <tiff:ImageLength>36</tiff:ImageLength>
         <tiff:ImageWidth>36</tiff:ImageWidth>
         <dc:modified>2025-08-13T14:52:41.019Z</dc:modified>
         <dc:format>image/svg+xml</dc:format>
         <dc:description>
            <rdf:Alt>
               <rdf:li xml:lang="x-default">ui, wrap, flow, layout, spacing, formatting</rdf:li>
            </rdf:Alt>
         </dc:description>
         <dc:title>
            <rdf:Alt>
               <rdf:li xml:lang="x-default">Wrap icon</rdf:li>
            </rdf:Alt>
         </dc:title>
      </rdf:Description>
   </rdf:RDF>
</x:xmpmeta>
                                                                                                    
                                                                                                    
                                                                                                    
                                                                                                    
                                                                                                    
                                                                                                    
                                                                                                    
                                                                                                    
                                                                                                    
                                                                                                    
                                                                                                    
                                                                                                    
                                                                                                    
                                                                                                    
                                                                                                    
                                                                                                    
                                                                                                    
                 
<?xpacket end="w"?></metadata>
<defs>
    <style>
      .cls-1 {
        fill: #e00;
      }
    </style>
  </defs>
  <path class="cls-1" d="M5,4.38c-.35,0-.62.28-.62.62v26c0,.81,1.25.82,1.25,0,0,0,0-26,0-26,0-.35-.28-.62-.62-.62Z"/>
  <path class="cls-1" d="M31,4.38c-.35,0-.62.28-.62.62v26c0,.81,1.25.82,1.25,0,0,0,0-26,0-26,0-.35-.28-.62-.62-.62Z"/>
  <path class="cls-1" d="M21,9.38h-12c-.81,0-.82,1.24,0,1.25,0,0,12,0,12,0,7.11.25,7.11,10.5,0,10.75-1.26,0-9.05,0-10.49,0l4.93-4.93c.57-.58-.3-1.46-.88-.88,0,0-6,6-6,6-.17.18-.24.45-.13.68.03.08.09.14.13.2,0,0,6,6,6,6,.12.12.28.18.44.18.53.02.84-.69.44-1.07,0,0-4.93-4.93-4.93-4.93,1.5,0,9.18,0,10.49,0,8.78-.33,8.77-12.92,0-13.25Z"/>
</svg>