<?xml version="1.0" encoding="UTF-8"?>
<svg id="technical-sovereignty1" data-name="technical-sovereignty" xmlns="http://www.w3.org/2000/svg" width="36" height="36" version="1.1" viewBox="0 0 36 36">
  <!-- Generator: Adobe Illustrator 30.2.1, SVG Export Plug-In . SVG Version: 2.1.1 Build 1)  -->
  <defs>
    <style>
      .st0 {
        fill: none;
      }
    </style>
  </defs>
  <path id="icon" d="M31,4.37494H5c-.34521,0-.625.28027-.625.625v26c0,.34473.27979.625.625.625h26c.34521,0,.625-.28027.625-.625V4.99994c0-.34473-.27979-.625-.625-.625ZM30.375,30.37494H5.625V5.62494h24.75v24.75ZM8.15771,16.04095l9.52979,5.5c.09668.05566.20459.08398.3125.08398s.21582-.02832.3125-.08398l9.53027-5.5c.19336-.11133.3125-.31738.3125-.54102s-.11914-.42969-.3125-.54102l-9.53027-5.5c-.19336-.11133-.43164-.11133-.625,0l-9.52979,5.5c-.19336.11133-.3125.31738-.3125.54102s.11914.42969.3125.54102ZM18,10.72162l8.27979,4.77832-8.27979,4.77832-8.2793-4.77832,8.2793-4.77832ZM28.07178,20.18744c.17236.29883.06982.68164-.229.85352l-9.53027,5.5c-.09668.05566-.20459.08398-.3125.08398s-.21582-.02832-.3125-.08398l-9.52979-5.5c-.29883-.17188-.40137-.55469-.229-.85352.17188-.29883.5542-.40039.854-.22852l9.21729,5.31934,9.21777-5.31934c.29883-.17188.68164-.07031.854.22852Z"/>
  <rect id="transparent_rectangle" class="st0" width="36" height="36"/>
</svg>