<svg xmlns="http://www.w3.org/2000/svg" viewBox="0 0 30 30">
  <title>Github sharing icon - White</title>
<metadata><?xpacket begin="﻿" id="W5M0MpCehiHzreSzNTczkc9d"?>
<x:xmpmeta xmlns:x="adobe:ns:meta/" x:xmptk="Adobe XMP Core 8.0-c001 1.000000, 0000/00/00-00:00:00        ">
   <rdf:RDF xmlns:rdf="http://www.w3.org/1999/02/22-rdf-syntax-ns#">
      <rdf:Description rdf:about=""
            xmlns:xmp="http://ns.adobe.com/xap/1.0/"
            xmlns:dc="http://purl.org/dc/elements/1.1/"
            xmlns:cq="http://www.day.com/jcr/cq/1.0"
            xmlns:tiff="http://ns.adobe.com/tiff/1.0/">
         <xmp:rhcc-effective-on>2023-12-07T22:16:55.151Z</xmp:rhcc-effective-on>
         <xmp:rhcc-metadata-complete-moderator>pending</xmp:rhcc-metadata-complete-moderator>
         <xmp:rhcc-translation-id>TRA9ba7e246-f1d4-452f-b1a4-bfd61842e77c</xmp:rhcc-translation-id>
         <xmp:brand-content-type>Icon</xmp:brand-content-type>
         <xmp:CreateDate>2023-12-07T22:16:55.151Z</xmp:CreateDate>
         <xmp:rhcc-aspect-ratio>square</xmp:rhcc-aspect-ratio>
         <xmp:rhcc-effective-on-set-on-upload>true</xmp:rhcc-effective-on-set-on-upload>
         <xmp:rhcc-metadata-complete-uploader>pending</xmp:rhcc-metadata-complete-uploader>
         <xmp:rhcc-file-last-modified>2024-07-12T23:29:40.371Z</xmp:rhcc-file-last-modified>
         <xmp:rhcc-audience>rhcc-audience:internal</xmp:rhcc-audience>
         <xmp:rhcc-rights-restricted>no</xmp:rhcc-rights-restricted>
         <xmp:brand-content-subtype>Social sharing</xmp:brand-content-subtype>
         <xmp:rhcc-derivative-id>DER9ba7e246-f1d4-452f-b1a4-bfd61842e77c</xmp:rhcc-derivative-id>
         <xmp:rhcc-uploaded-by>pmeilleu@redhat.com</xmp:rhcc-uploaded-by>
         <xmp:brand-logo-color>White</xmp:brand-logo-color>
         <xmp:rhcc-notify-portal-subscribers-on-change>yes</xmp:rhcc-notify-portal-subscribers-on-change>
         <dc:format>image/svg+xml</dc:format>
         <dc:modified>2024-02-09T20:37:46.090Z</dc:modified>
         <dc:title>
            <rdf:Alt>
               <rdf:li xml:lang="x-default">Github sharing icon - White</rdf:li>
            </rdf:Alt>
         </dc:title>
         <cq:lastReplicationAction_scene7>Activate</cq:lastReplicationAction_scene7>
         <cq:lastReplicationAction_publish>Activate</cq:lastReplicationAction_publish>
         <cq:lastReplicated_publish>2024-10-02T19:49:04.261Z</cq:lastReplicated_publish>
         <cq:lastReplicatedBy>workflow-process-service</cq:lastReplicatedBy>
         <cq:lastReplicationAction>Activate</cq:lastReplicationAction>
         <cq:lastReplicatedBy_publish>workflow-process-service</cq:lastReplicatedBy_publish>
         <cq:isDelivered>false</cq:isDelivered>
         <cq:lastReplicated>2024-10-02T19:49:04.261Z</cq:lastReplicated>
         <cq:lastReplicatedBy_scene7>workflow-process-service</cq:lastReplicatedBy_scene7>
         <cq:lastReplicated_scene7>2024-10-02T19:49:04.261Z</cq:lastReplicated_scene7>
         <tiff:ImageLength>30</tiff:ImageLength>
         <tiff:ImageWidth>30</tiff:ImageWidth>
      </rdf:Description>
   </rdf:RDF>
</x:xmpmeta>
                                                                                                    
                                                                                                    
                                                                                                    
                                                                                                    
                                                                                                    
                                                                                                    
                                                                                                    
                                                                                                    
                                                                                                 
<?xpacket end="w"?></metadata>
<defs>
    <style>
      .aba87a79-6f05-4587-8f4b-fa8618986772 {
        fill: none;
      }

      .e2a207ea-e0ac-44df-9c77-1fa685661288 {
        fill: #fff;
        fill-rule: evenodd;
      }
    </style>
  </defs>
  <g id="e2c124b7-f743-4b2c-94ef-f23bac7ab6d0" data-name="Twitter">
    <rect class="aba87a79-6f05-4587-8f4b-fa8618986772" width="30" height="30"/>
  </g>
  <g id="a206555f-a904-46be-b591-b8c88c50d418" data-name="GitHub">
    <path class="e2a207ea-e0ac-44df-9c77-1fa685661288" d="M15,4.22a11.05,11.05,0,0,0-3.5,21.54c.56.11.76-.24.76-.53s0-1,0-1.88c-3.07.67-3.72-1.48-3.72-1.48a2.91,2.91,0,0,0-1.23-1.62c-1-.68.08-.67.08-.67a2.32,2.32,0,0,1,1.69,1.14,2.36,2.36,0,0,0,3.22.92,2.39,2.39,0,0,1,.7-1.48c-2.45-.28-5-1.23-5-5.46a4.3,4.3,0,0,1,1.13-3A4,4,0,0,1,9.19,8.8s.93-.3,3,1.14a10.29,10.29,0,0,1,5.54,0c2.11-1.44,3-1.14,3-1.14a4,4,0,0,1,.11,2.93,4.25,4.25,0,0,1,1.13,3c0,4.24-2.58,5.18-5.05,5.45a2.63,2.63,0,0,1,.75,2.05c0,1.48,0,2.67,0,3s.2.64.76.53A11.05,11.05,0,0,0,15,4.22Z"/>
  </g>
</svg>
