<svg xmlns="http://www.w3.org/2000/svg" viewBox="0 0 32 32">
  <title>Github sharing icon (square) - White</title>
<metadata><?xpacket begin="﻿" id="W5M0MpCehiHzreSzNTczkc9d"?>
<x:xmpmeta xmlns:x="adobe:ns:meta/" x:xmptk="Adobe XMP Core 8.0-c001 1.000000, 0000/00/00-00:00:00        ">
   <rdf:RDF xmlns:rdf="http://www.w3.org/1999/02/22-rdf-syntax-ns#">
      <rdf:Description rdf:about=""
            xmlns:xmp="http://ns.adobe.com/xap/1.0/"
            xmlns:dc="http://purl.org/dc/elements/1.1/"
            xmlns:cq="http://www.day.com/jcr/cq/1.0"
            xmlns:tiff="http://ns.adobe.com/tiff/1.0/">
         <xmp:rhcc-effective-on>2023-12-07T22:16:54.693Z</xmp:rhcc-effective-on>
         <xmp:rhcc-metadata-complete-moderator>pending</xmp:rhcc-metadata-complete-moderator>
         <xmp:rhcc-translation-id>TRAc255e4f0-e071-41f1-934f-a0a229b3eaa8</xmp:rhcc-translation-id>
         <xmp:brand-content-type>Icon</xmp:brand-content-type>
         <xmp:CreateDate>2023-12-07T22:16:54.693Z</xmp:CreateDate>
         <xmp:rhcc-aspect-ratio>square</xmp:rhcc-aspect-ratio>
         <xmp:rhcc-effective-on-set-on-upload>true</xmp:rhcc-effective-on-set-on-upload>
         <xmp:rhcc-published-asset-email-sent>true</xmp:rhcc-published-asset-email-sent>
         <xmp:rhcc-metadata-complete-uploader>pending</xmp:rhcc-metadata-complete-uploader>
         <xmp:rhcc-file-last-modified>2024-07-12T23:24:10.370Z</xmp:rhcc-file-last-modified>
         <xmp:rhcc-audience>rhcc-audience:internal</xmp:rhcc-audience>
         <xmp:rhcc-rights-restricted>no</xmp:rhcc-rights-restricted>
         <xmp:brand-content-subtype>Social sharing</xmp:brand-content-subtype>
         <xmp:rhcc-derivative-id>DERc255e4f0-e071-41f1-934f-a0a229b3eaa8</xmp:rhcc-derivative-id>
         <xmp:rhcc-uploaded-by>pmeilleu@redhat.com</xmp:rhcc-uploaded-by>
         <xmp:brand-logo-color>White</xmp:brand-logo-color>
         <xmp:rhcc-notify-portal-subscribers-on-change>yes</xmp:rhcc-notify-portal-subscribers-on-change>
         <dc:format>image/svg+xml</dc:format>
         <dc:modified>2024-02-09T20:37:39.857Z</dc:modified>
         <dc:title>
            <rdf:Alt>
               <rdf:li xml:lang="x-default">Github sharing icon (square) - White</rdf:li>
            </rdf:Alt>
         </dc:title>
         <cq:lastReplicationAction_scene7>Activate</cq:lastReplicationAction_scene7>
         <cq:lastReplicationAction_publish>Activate</cq:lastReplicationAction_publish>
         <cq:lastReplicated_publish>2024-10-02T19:48:57.196Z</cq:lastReplicated_publish>
         <cq:lastReplicatedBy>workflow-process-service</cq:lastReplicatedBy>
         <cq:lastReplicationAction>Activate</cq:lastReplicationAction>
         <cq:lastReplicatedBy_publish>workflow-process-service</cq:lastReplicatedBy_publish>
         <cq:isDelivered>false</cq:isDelivered>
         <cq:lastReplicated>2024-10-02T19:48:57.196Z</cq:lastReplicated>
         <cq:lastReplicatedBy_scene7>workflow-process-service</cq:lastReplicatedBy_scene7>
         <cq:lastReplicated_scene7>2024-10-02T19:48:57.196Z</cq:lastReplicated_scene7>
         <tiff:ImageLength>32</tiff:ImageLength>
         <tiff:ImageWidth>32</tiff:ImageWidth>
      </rdf:Description>
   </rdf:RDF>
</x:xmpmeta>
                                                                                                    
                                                                                                    
                                                                                                    
                                                                                                    
                                                                                                    
                                                                                                    
                                                                                                    
                                                                                                    
        
<?xpacket end="w"?></metadata>
<defs>
    <style>
      .bfd440d0-d161-43dc-a651-1f0b9f431163 {
        fill: #fff;
        fill-rule: evenodd;
      }
    </style>
  </defs>
  <g id="a1d07959-5ac7-4810-afc3-45bc853fd32f" data-name="Microsoft">
    <path class="bfd440d0-d161-43dc-a651-1f0b9f431163" d="M30.81,0H1.19A1.19,1.19,0,0,0,0,1.19V30.81A1.19,1.19,0,0,0,1.19,32H30.81A1.19,1.19,0,0,0,32,30.81V1.19A1.19,1.19,0,0,0,30.81,0ZM19.5,26.68c-.56.11-.76-.24-.76-.53s0-1.56,0-3A2.62,2.62,0,0,0,18,21.07c2.47-.28,5.05-1.21,5.05-5.46a4.25,4.25,0,0,0-1.13-3,4,4,0,0,0-.11-2.93s-.93-.3-3,1.13a10.55,10.55,0,0,0-5.54,0c-2.11-1.43-3-1.13-3-1.13a4,4,0,0,0-.11,2.93,4.29,4.29,0,0,0-1.13,3c0,4.24,2.58,5.19,5,5.47a2.36,2.36,0,0,0-.7,1.48,2.36,2.36,0,0,1-3.22-.92A2.32,2.32,0,0,0,8.37,20.5s-1.08,0-.08.67a2.91,2.91,0,0,1,1.23,1.62s.65,2.15,3.72,1.48c0,.92,0,1.62,0,1.88s-.2.63-.76.53a11.06,11.06,0,1,1,7,0Z"/>
  </g>
</svg>
