<?xml version="1.0" encoding="UTF-8"?><svg xmlns="http://www.w3.org/2000/svg" width="38" height="38" viewBox="0 0 38 38"><title>Trusted content icon</title>
<desc>Application services</desc>
<metadata><?xpacket begin="﻿" id="W5M0MpCehiHzreSzNTczkc9d"?>
<x:xmpmeta xmlns:x="adobe:ns:meta/" x:xmptk="Adobe XMP Core 8.0-c001 1.000000, 0000/00/00-00:00:00        ">
   <rdf:RDF xmlns:rdf="http://www.w3.org/1999/02/22-rdf-syntax-ns#">
      <rdf:Description rdf:about=""
            xmlns:xmp="http://ns.adobe.com/xap/1.0/"
            xmlns:dc="http://purl.org/dc/elements/1.1/"
            xmlns:cq="http://www.day.com/jcr/cq/1.0"
            xmlns:tiff="http://ns.adobe.com/tiff/1.0/"
            xmlns:xmpRights="http://ns.adobe.com/xap/1.0/rights/">
         <xmp:rhcc-effective-on>2024-03-01T15:28:08.816Z</xmp:rhcc-effective-on>
         <xmp:rhcc-metadata-complete-moderator>pending</xmp:rhcc-metadata-complete-moderator>
         <xmp:rhcc-translation-id>TRA4c6d97fc-af3d-48fb-8f03-084d9ac80379</xmp:rhcc-translation-id>
         <xmp:brand-content-type>Icon</xmp:brand-content-type>
         <xmp:CreateDate>2024-03-01T15:28:08.816Z</xmp:CreateDate>
         <xmp:rhcc-aspect-ratio>square</xmp:rhcc-aspect-ratio>
         <xmp:rhcc-effective-on-set-on-upload>true</xmp:rhcc-effective-on-set-on-upload>
         <xmp:rhcc-metadata-complete-uploader>pending</xmp:rhcc-metadata-complete-uploader>
         <xmp:rhcc-file-last-modified>2024-07-12T23:51:54.070Z</xmp:rhcc-file-last-modified>
         <xmp:rhcc-audience>rhcc-audience:internal</xmp:rhcc-audience>
         <xmp:rhcc-rights-restricted>no</xmp:rhcc-rights-restricted>
         <xmp:brand-content-subtype>Technology icon</xmp:brand-content-subtype>
         <xmp:rhcc-derivative-id>DER4c6d97fc-af3d-48fb-8f03-084d9ac80379</xmp:rhcc-derivative-id>
         <xmp:rhcc-uploaded-by>pmeilleu@redhat.com</xmp:rhcc-uploaded-by>
         <xmp:brand-logo-color>Standard</xmp:brand-logo-color>
         <xmp:rhcc-notify-portal-subscribers-on-change>yes</xmp:rhcc-notify-portal-subscribers-on-change>
         <xmp:rhcc-product>
            <rdf:Bag>
               <rdf:li>rhcc-product:red-hat-trusted-software-supply-chain</rdf:li>
            </rdf:Bag>
         </xmp:rhcc-product>
         <xmp:brand-subtype>
            <rdf:Bag>
               <rdf:li>Technology icon</rdf:li>
            </rdf:Bag>
         </xmp:brand-subtype>
         <dc:format>image/svg+xml</dc:format>
         <dc:modified>2024-05-10T00:35:50.669Z</dc:modified>
         <dc:title>
            <rdf:Alt>
               <rdf:li xml:lang="x-default">Trusted content icon</rdf:li>
            </rdf:Alt>
         </dc:title>
         <dc:description>
            <rdf:Alt>
               <rdf:li xml:lang="x-default">Application services</rdf:li>
            </rdf:Alt>
         </dc:description>
         <cq:lastReplicationAction_scene7>Activate</cq:lastReplicationAction_scene7>
         <cq:lastReplicationAction_publish>Activate</cq:lastReplicationAction_publish>
         <cq:lastReplicated_publish>2024-10-02T19:53:37.632Z</cq:lastReplicated_publish>
         <cq:lastReplicatedBy>workflow-process-service</cq:lastReplicatedBy>
         <cq:lastReplicationAction>Activate</cq:lastReplicationAction>
         <cq:lastReplicatedBy_publish>workflow-process-service</cq:lastReplicatedBy_publish>
         <cq:isDelivered>false</cq:isDelivered>
         <cq:lastReplicated>2024-10-02T19:53:37.632Z</cq:lastReplicated>
         <cq:lastReplicatedBy_scene7>workflow-process-service</cq:lastReplicatedBy_scene7>
         <cq:lastReplicated_scene7>2024-10-02T19:53:37.632Z</cq:lastReplicated_scene7>
         <tiff:ImageLength>38</tiff:ImageLength>
         <tiff:ImageWidth>38</tiff:ImageWidth>
         <xmpRights:UsageTerms>
            <rdf:Alt>
               <rdf:li xml:lang="x-default">Use technology icons to represent Red Hat products and components. Do not remove the icon from the bounding shape.</rdf:li>
            </rdf:Alt>
         </xmpRights:UsageTerms>
      </rdf:Description>
   </rdf:RDF>
</x:xmpmeta>
                                                                                                    
                                                                                                    
                                                                                                    
                                                                                                    
                                                                                                    
                                                                                                    
                                                                                                    
                                                                                                    
                                                                                                    
                                                                                                    
                                                                                                    
                                                                                                    
                                                                                                    
                                                                                                    
                                                                                                    
                                                                                                    
                                                                                                    
                                          
<?xpacket end="w"?></metadata>
<defs><style>.d{fill:#e00;}.e{fill:#fff;}.f{fill:#e0e0e0;}</style></defs><g id="a"><rect class="e" x="1" y="1" width="36" height="36" rx="9" ry="9"/><path class="f" d="m28,2.25c4.2734,0,7.75,3.4766,7.75,7.75v18c0,4.2734-3.4766,7.75-7.75,7.75H10c-4.2734,0-7.75-3.4766-7.75-7.75V10c0-4.2734,3.4766-7.75,7.75-7.75h18m0-1.25H10C5.0294,1,1,5.0294,1,10v18c0,4.9706,4.0294,9,9,9h18c4.9706,0,9-4.0294,9-9V10c0-4.9706-4.0294-9-9-9h0Z"/></g><g id="b"><path class="d" d="m28.4424,27.5581l-4.8185-4.8185c.7135-.6946,1.2776-1.5527,1.6232-2.5316.1152-.3252-.0557-.6821-.3809-.7974-.3223-.1162-.6826.0552-.7969.3813-.7578,2.1431-2.7949,3.583-5.0693,3.583-2.9639,0-5.375-2.4111-5.375-5.375s2.4111-5.375,5.375-5.375c.3447,0,.625-.2798.625-.625s-.2803-.625-.625-.625c-3.6533,0-6.625,2.9722-6.625,6.625s2.9717,6.625,6.625,6.625c1.3251,0,2.5777-.4074,3.6362-1.1045l4.9214,4.9214c.1221.1221.2822.1831.4424.1831s.3203-.061.4424-.1831c.2432-.2441.2432-.6396,0-.8838Z"/><path d="m20.4424,27.5581l-2-2c-.2441-.2441-.6406-.2441-.8848,0-.2432.2441-.2432.6396,0,.8838l.9062.9059c-4.9191-.2804-8.8388-4.3594-8.8388-9.3478,0-5.1694,4.2061-9.375,9.375-9.375.3447,0,.625-.2798.625-.625s-.2803-.625-.625-.625c-5.8584,0-10.625,4.7666-10.625,10.625,0,5.6949,4.5077,10.3445,10.1406,10.6005l-.9579.9576c-.2432.2441-.2432.6396,0,.8838.1221.1221.2822.1831.4424.1831s.3203-.061.4424-.1831l2-2c.2432-.2441.2432-.6396,0-.8838Z"/><path d="m25.5,17.625c-2.2744,0-4.125-1.8506-4.125-4.125v-4.0288c0-.2949.2061-.5498.4951-.6113l3.5-.7441c.0859-.0186.1738-.0186.2598,0l3.5.7441c.2891.061.4951.3164.4951.6113v4.0288c0,2.2744-1.8506,4.125-4.125,4.125Zm-2.875-7.6479v3.5229c0,1.5854,1.29,2.875,2.875,2.875s2.875-1.2896,2.875-2.875v-3.5229l-2.875-.6108-2.875.6108Z"/><path class="d" d="m25,14.3521c-.1602,0-.3203-.061-.4424-.1831l-1-1c-.2432-.2441-.2432-.6396,0-.8838.2441-.2441.6406-.2441.8848,0l.5576.5581,1.5576-1.5581c.2441-.2441.6406-.2441.8848,0,.2432.2441.2432.6396,0,.8838l-2,2c-.1221.1221-.2822.1831-.4424.1831Z"/></g></svg>