<?xml version="1.0" encoding="UTF-8"?><svg id="uuid-aff63056-1c93-4311-a58e-6137486fcde1" xmlns="http://www.w3.org/2000/svg" viewBox="0 0 38 38"><title>Red Hat Quay icon</title>
<desc>Cloud</desc>
<metadata><?xpacket begin="﻿" id="W5M0MpCehiHzreSzNTczkc9d"?>
<x:xmpmeta xmlns:x="adobe:ns:meta/" x:xmptk="Adobe XMP Core 8.0-c001 1.000000, 0000/00/00-00:00:00        ">
   <rdf:RDF xmlns:rdf="http://www.w3.org/1999/02/22-rdf-syntax-ns#">
      <rdf:Description rdf:about=""
            xmlns:xmp="http://ns.adobe.com/xap/1.0/"
            xmlns:dc="http://purl.org/dc/elements/1.1/"
            xmlns:cq="http://www.day.com/jcr/cq/1.0"
            xmlns:tiff="http://ns.adobe.com/tiff/1.0/"
            xmlns:xmpRights="http://ns.adobe.com/xap/1.0/rights/">
         <xmp:rhcc-effective-on>2024-03-01T15:27:34.153Z</xmp:rhcc-effective-on>
         <xmp:rhcc-metadata-complete-moderator>pending</xmp:rhcc-metadata-complete-moderator>
         <xmp:rhcc-translation-id>TRA8315fb2f-39b2-43d8-9b2b-c23c36a80985</xmp:rhcc-translation-id>
         <xmp:brand-content-type>Icon</xmp:brand-content-type>
         <xmp:CreateDate>2024-03-01T15:27:34.153Z</xmp:CreateDate>
         <xmp:rhcc-aspect-ratio>square</xmp:rhcc-aspect-ratio>
         <xmp:rhcc-effective-on-set-on-upload>true</xmp:rhcc-effective-on-set-on-upload>
         <xmp:rhcc-published-asset-email-sent>true</xmp:rhcc-published-asset-email-sent>
         <xmp:rhcc-metadata-complete-uploader>pending</xmp:rhcc-metadata-complete-uploader>
         <xmp:rhcc-file-last-modified>2024-07-13T00:10:10.714Z</xmp:rhcc-file-last-modified>
         <xmp:rhcc-audience>rhcc-audience:internal</xmp:rhcc-audience>
         <xmp:rhcc-rights-restricted>no</xmp:rhcc-rights-restricted>
         <xmp:brand-content-subtype>Technology icon</xmp:brand-content-subtype>
         <xmp:rhcc-derivative-id>DER8315fb2f-39b2-43d8-9b2b-c23c36a80985</xmp:rhcc-derivative-id>
         <xmp:rhcc-uploaded-by>pmeilleu@redhat.com</xmp:rhcc-uploaded-by>
         <xmp:brand-logo-color>Black</xmp:brand-logo-color>
         <xmp:rhcc-notify-portal-subscribers-on-change>yes</xmp:rhcc-notify-portal-subscribers-on-change>
         <xmp:rhcc-product>
            <rdf:Bag>
               <rdf:li>rhcc-product:red-hat-openshift-platform-plus</rdf:li>
               <rdf:li>rhcc-product:red-hat-quay</rdf:li>
            </rdf:Bag>
         </xmp:rhcc-product>
         <xmp:brand-subtype>
            <rdf:Bag>
               <rdf:li>Technology icon</rdf:li>
            </rdf:Bag>
         </xmp:brand-subtype>
         <dc:format>image/svg+xml</dc:format>
         <dc:modified>2024-05-10T00:30:48.216Z</dc:modified>
         <dc:title>
            <rdf:Alt>
               <rdf:li xml:lang="x-default">Red Hat Quay icon</rdf:li>
            </rdf:Alt>
         </dc:title>
         <dc:description>
            <rdf:Alt>
               <rdf:li xml:lang="x-default">Cloud</rdf:li>
            </rdf:Alt>
         </dc:description>
         <cq:lastReplicationAction_scene7>Activate</cq:lastReplicationAction_scene7>
         <cq:lastReplicationAction_publish>Activate</cq:lastReplicationAction_publish>
         <cq:lastReplicated_publish>2024-10-02T19:53:22.147Z</cq:lastReplicated_publish>
         <cq:lastReplicatedBy>workflow-process-service</cq:lastReplicatedBy>
         <cq:lastReplicationAction>Activate</cq:lastReplicationAction>
         <cq:lastReplicatedBy_publish>workflow-process-service</cq:lastReplicatedBy_publish>
         <cq:isDelivered>false</cq:isDelivered>
         <cq:lastReplicated>2024-10-02T19:53:22.147Z</cq:lastReplicated>
         <cq:lastReplicatedBy_scene7>workflow-process-service</cq:lastReplicatedBy_scene7>
         <cq:lastReplicated_scene7>2024-10-02T19:53:22.147Z</cq:lastReplicated_scene7>
         <tiff:ImageLength>38</tiff:ImageLength>
         <tiff:ImageWidth>38</tiff:ImageWidth>
         <xmpRights:UsageTerms>
            <rdf:Alt>
               <rdf:li xml:lang="x-default">Use technology icons to represent Red Hat products and components. Do not remove the icon from the bounding shape.</rdf:li>
            </rdf:Alt>
         </xmpRights:UsageTerms>
      </rdf:Description>
   </rdf:RDF>
</x:xmpmeta>
                                                                                                    
                                                                                                    
                                                                                                    
                                                                                                    
                                                                                                    
                                                                                                    
                                                                                                    
                                                                                                    
                                                                                                    
                                                                                                    
                                                                                                    
                                                                                                    
                                                                                                    
                                                                                                    
                                                                                                    
                                                                                                    
                                                      
<?xpacket end="w"?></metadata>
<polygon points="17.71484 19 22.5 27.61359 27.2854 19 22.5 10.38641 17.71484 19"/><path d="m28,1H10C5.02942,1,1,5.02942,1,10v18c0,4.97058,4.02942,9,9,9h18c4.97058,0,9-4.02942,9-9V10c0-4.97058-4.02942-9-9-9Zm.60571,18.11621c-.00836.04352-.02234.08325-.03961.12408-.00879.02081-.00897.04321-.0202.06342l-5.5,9.8999c-.00598.01093-.01819.01483-.02478.02521-.04883.07782-.11139.146-.19385.19739-.00714.00446-.01166.01208-.01904.01624-.00177.00104-.00275.00287-.00452.00385-.09668.05322-.2002.07861-.30273.07861-.00037,0-.00061-.00024-.00098-.00024s-.00061.00024-.00098.00024c-.10254,0-.20605-.02539-.30273-.07861-.00183-.00104-.00281-.00293-.00464-.00397-.00641-.00366-.01044-.01044-.01678-.01428-.08362-.05164-.14679-.12073-.19604-.19928-.00659-.01038-.01868-.01428-.02472-.02515l-2.95416-5.31696-2.95355,5.31696c-.00629.01129-.01886.01538-.0257.02612-.04852.07709-.11084.14453-.19257.19568-.00757.0047-.01221.0127-.01996.01709-.00177.00098-.00269.00281-.00446.00378-.09619.05322-.20068.07861-.30322.07861-.00018,0-.00031-.00012-.00049-.00012s-.00031.00012-.00049.00012c-.10303,0-.20703-.02539-.30322-.07861-.00177-.00098-.00269-.00281-.00446-.00378-.00775-.00439-.01239-.01239-.01996-.01709-.08173-.05115-.14404-.11859-.19257-.19568-.00684-.01074-.01941-.01483-.0257-.02612l-5.5-9.8999c-.10498-.18896-.10498-.41846,0-.60742l5.5-9.8999c.00793-.01422.02167-.02222.03052-.03558.0235-.03601.05225-.06622.08331-.09711.02911-.02875.05737-.05554.09088-.07764.01416-.00946.02283-.02393.03796-.03235.02216-.01233.04657-.01276.06946-.02209.03784-.01556.07446-.02844.11462-.03644.04144-.00812.08118-.01093.12274-.01062.03821.00006.07458.0025.11273.0097.04291.00824.08215.02185.1225.03876.02148.00891.04456.00916.06537.02069.01453.00806.02271.02191.03632.03094.03479.02277.06415.05048.09418.08038.0304.0304.05841.06012.08148.0954.00891.01349.02271.02161.0307.03595l2.95355,5.31696,2.95416-5.31696c.00775-.01404.02124-.02197.02985-.03516.02289-.03516.05054-.06488.08069-.09521.03064-.03076.06079-.05902.0965-.08234.01318-.00867.02112-.02216.03516-.02997.02008-.01111.04211-.01123.06281-.0199.04102-.0174.08112-.03131.125-.03961.03912-.00745.07654-.01001.11572-.00995.03925-.00006.07678.0025.11603.01001.04315.00824.08264.02191.12317.039.0213.00885.04401.00903.0647.02045.01453.00806.02271.02197.03632.03094.03442.02264.06354.05005.09332.07965.03101.03088.05945.06134.08295.09735.00861.01306.02185.02081.0296.03473l5.5,9.8999c.01123.0202.01141.0426.0202.06342.01727.04083.03125.08057.03961.12408.00757.03931.00995.07684.00989.11621.00006.03937-.00232.0769-.00989.11621Z"/><path d="m16.45361,18.69629l1.83136-3.29614-2.78497-5.01288-4.78516,8.61273,4.78516,8.61273,2.78497-5.01288-1.83136-3.29614c-.10498-.18896-.10498-.41846,0-.60742Z"/></svg>