<?xml version="1.0" encoding="UTF-8"?><svg id="uuid-e8a8679a-9379-4636-96d5-17da997a784d" xmlns="http://www.w3.org/2000/svg" width="36" height="36" viewBox="0 0 36 36"><title>Sovereign cloud icon</title>
<desc>data residency, local, governance, compliance, regulation, security, national, regional, private cloud, public cloud, hybrid cloud, control, independence, trust, privacy, encryption, ownership, gdp, isolated, jurisdiction</desc>
<metadata><?xpacket begin="﻿" id="W5M0MpCehiHzreSzNTczkc9d"?>
<x:xmpmeta xmlns:x="adobe:ns:meta/" x:xmptk="Adobe XMP Core 8.0-c001 1.000000, 0000/00/00-00:00:00        ">
   <rdf:RDF xmlns:rdf="http://www.w3.org/1999/02/22-rdf-syntax-ns#">
      <rdf:Description rdf:about=""
            xmlns:tiff="http://ns.adobe.com/tiff/1.0/"
            xmlns:xmp="http://ns.adobe.com/xap/1.0/"
            xmlns:dc="http://purl.org/dc/elements/1.1/">
         <tiff:ImageLength>36</tiff:ImageLength>
         <tiff:ImageWidth>36</tiff:ImageWidth>
         <xmp:rhcc-file-last-modified>2025-10-21T17:03:59.300Z</xmp:rhcc-file-last-modified>
         <xmp:brand-content-type>Icon</xmp:brand-content-type>
         <xmp:rhcc-rights-restricted>no</xmp:rhcc-rights-restricted>
         <xmp:brand-content-subtype>Icon</xmp:brand-content-subtype>
         <xmp:brand-colorway>
            <rdf:Bag>
               <rdf:li>colorway:red</rdf:li>
            </rdf:Bag>
         </xmp:brand-colorway>
         <dc:format>image/svg+xml</dc:format>
         <dc:modified>2025-10-21T17:04:59.783Z</dc:modified>
         <dc:title>
            <rdf:Alt>
               <rdf:li xml:lang="x-default">Sovereign cloud icon</rdf:li>
            </rdf:Alt>
         </dc:title>
         <dc:description>
            <rdf:Alt>
               <rdf:li xml:lang="x-default">data residency, local, governance, compliance, regulation, security, national, regional, private cloud, public cloud, hybrid cloud, control, independence, trust, privacy, encryption, ownership, gdp, isolated, jurisdiction</rdf:li>
            </rdf:Alt>
         </dc:description>
      </rdf:Description>
   </rdf:RDF>
</x:xmpmeta>
                                                                                                    
                                                                                                    
                                                                                                    
                                                                                                    
                                                                                                    
                                                                                                    
                                                                                                    
                                                                                                    
                                                                                                    
                                                                                                    
                                                                                                    
                                                                                                    
                                                                                                    
                                                                                                    
                                                                                                    
                                                                    
<?xpacket end="w"?></metadata>
<defs><style>.uuid-84e71c17-3187-4125-a690-36d3a627e48d{fill:#e00;}</style></defs><path class="uuid-84e71c17-3187-4125-a690-36d3a627e48d" d="M31,25.375h-.375v-1.375c0-1.44727-1.17773-2.625-2.625-2.625s-2.625,1.17773-2.625,2.625v1.375h-.375c-.34521,0-.625.28027-.625.625v5c0,.34473.27979.625.625.625h6c.34521,0,.625-.28027.625-.625v-5c0-.34473-.27979-.625-.625-.625ZM26.625,24c0-.75781.6167-1.375,1.375-1.375s1.375.61719,1.375,1.375v1.375h-2.75v-1.375Z"/><path class="uuid-84e71c17-3187-4125-a690-36d3a627e48d" d="M31,4.375H5c-.34521,0-.625.27979-.625.625v26c0,.34473.27979.625.625.625h17c.34521,0,.625-.28027.625-.625s-.27979-.625-.625-.625H5.625V5.625h24.75v14.375c0,.34473.27979.625.625.625s.625-.28027.625-.625V5c0-.34521-.27979-.625-.625-.625Z"/><path class="uuid-84e71c17-3187-4125-a690-36d3a627e48d" d="M25.8667,18.44824c.23047.22461.40771.48828.52686.78418.12793.32031.4917.47363.8125.34766.3208-.12891.47607-.49219.34766-.8125-.18457-.46094-.45947-.87012-.81641-1.21582-.42871-.41602-.9585-.71777-1.53076-.87598-.0835-3.31641-2.80664-5.98828-6.14209-5.98828-2.28613,0-4.36719,1.2666-5.42676,3.26562-2.9043-.26562-5.2627,2.01758-5.2627,4.82617,0,2.67188,2.17383,4.8457,4.8457,4.8457h9.7793c.34521,0,.625-.28027.625-.625s-.27979-.625-.625-.625h-9.7793c-1.98291,0-3.5957-1.61328-3.5957-3.5957s1.61279-3.5957,3.5957-3.5957c.2124,0,.43604.02246.66602.06543.28467.05078.57275-.09766.68896-.36523.77783-1.79004,2.53955-2.94629,4.48877-2.94629,2.69873,0,4.89404,2.19531,4.89404,4.89453,0,.07617-.00586.15137-.01709.31641-.02051.33496.22607.62598.55908.66113.51123.05273.99658.28027,1.36621.63867Z"/></svg>