<svg id="ae0790a9-cecd-426c-88c3-d9fa87c76572" data-name="Icon" xmlns="http://www.w3.org/2000/svg" viewBox="0 0 36 36">
  <title>Car icon - Red</title>
<desc>drive, ride, commute, auto, mobile, gas, electric, highway, road, engine, transportation</desc>
<metadata><?xpacket begin="﻿" id="W5M0MpCehiHzreSzNTczkc9d"?>
<x:xmpmeta xmlns:x="adobe:ns:meta/" x:xmptk="Adobe XMP Core 8.0-c001 1.000000, 0000/00/00-00:00:00        ">
   <rdf:RDF xmlns:rdf="http://www.w3.org/1999/02/22-rdf-syntax-ns#">
      <rdf:Description rdf:about=""
            xmlns:xmp="http://ns.adobe.com/xap/1.0/"
            xmlns:dc="http://purl.org/dc/elements/1.1/"
            xmlns:cq="http://www.day.com/jcr/cq/1.0"
            xmlns:tiff="http://ns.adobe.com/tiff/1.0/">
         <xmp:rhcc-effective-on>2023-12-08T17:46:05.346Z</xmp:rhcc-effective-on>
         <xmp:rhcc-metadata-complete-moderator>pending</xmp:rhcc-metadata-complete-moderator>
         <xmp:rhcc-translation-id>TRAc7234fa4-e7e6-456d-84e9-041711a06c6d</xmp:rhcc-translation-id>
         <xmp:brand-content-type>Icon</xmp:brand-content-type>
         <xmp:CreateDate>2023-12-08T17:46:05.346Z</xmp:CreateDate>
         <xmp:rhcc-aspect-ratio>square</xmp:rhcc-aspect-ratio>
         <xmp:rhcc-effective-on-set-on-upload>true</xmp:rhcc-effective-on-set-on-upload>
         <xmp:rhcc-published-asset-email-sent>true</xmp:rhcc-published-asset-email-sent>
         <xmp:rhcc-metadata-complete-uploader>pending</xmp:rhcc-metadata-complete-uploader>
         <xmp:rhcc-file-last-modified>2024-07-12T21:17:34.376Z</xmp:rhcc-file-last-modified>
         <xmp:rhcc-audience>rhcc-audience:internal</xmp:rhcc-audience>
         <xmp:brand-content-subtype>Icon</xmp:brand-content-subtype>
         <xmp:rhcc-rights-restricted>no</xmp:rhcc-rights-restricted>
         <xmp:rhcc-derivative-id>DERc7234fa4-e7e6-456d-84e9-041711a06c6d</xmp:rhcc-derivative-id>
         <xmp:rhcc-uploaded-by>pmeilleu@redhat.com</xmp:rhcc-uploaded-by>
         <xmp:brand-logo-color>Red</xmp:brand-logo-color>
         <xmp:rhcc-notify-portal-subscribers-on-change>yes</xmp:rhcc-notify-portal-subscribers-on-change>
         <dc:format>image/svg+xml</dc:format>
         <dc:modified>2024-02-09T20:24:56.249Z</dc:modified>
         <dc:title>
            <rdf:Alt>
               <rdf:li xml:lang="x-default">Car icon - Red</rdf:li>
            </rdf:Alt>
         </dc:title>
         <dc:description>
            <rdf:Alt>
               <rdf:li xml:lang="x-default">drive, ride, commute, auto, mobile, gas, electric, highway, road, engine, transportation</rdf:li>
            </rdf:Alt>
         </dc:description>
         <cq:lastReplicationAction_scene7>Activate</cq:lastReplicationAction_scene7>
         <cq:lastReplicationAction_publish>Activate</cq:lastReplicationAction_publish>
         <cq:lastReplicated_publish>2024-10-02T19:46:09.167Z</cq:lastReplicated_publish>
         <cq:lastReplicatedBy>workflow-process-service</cq:lastReplicatedBy>
         <cq:lastReplicationAction>Activate</cq:lastReplicationAction>
         <cq:lastReplicatedBy_publish>workflow-process-service</cq:lastReplicatedBy_publish>
         <cq:isDelivered>false</cq:isDelivered>
         <cq:lastReplicated>2024-10-02T19:46:09.167Z</cq:lastReplicated>
         <cq:lastReplicatedBy_scene7>workflow-process-service</cq:lastReplicatedBy_scene7>
         <cq:lastReplicated_scene7>2024-10-02T19:46:09.167Z</cq:lastReplicated_scene7>
         <tiff:ImageLength>36</tiff:ImageLength>
         <tiff:ImageWidth>36</tiff:ImageWidth>
      </rdf:Description>
   </rdf:RDF>
</x:xmpmeta>
                                                                                                    
                                                                                                    
                                                                                                    
                                                                                                    
                                                                                                    
                                                                                                    
                                                                                                    
                                                                                                    
        
<?xpacket end="w"?></metadata>
<defs>
    <style>
      .a995ad26-f37e-4ed6-bf3e-05127b9cc1d3 {
        fill: #e00;
      }
    </style>
  </defs>
  <g>
    <path class="a995ad26-f37e-4ed6-bf3e-05127b9cc1d3" d="M29,13.38h-.55L25.59,4.8A.62.62,0,0,0,25,4.38H11a.62.62,0,0,0-.59.42L7.55,13.38A2.71,2.71,0,0,0,4.38,16v8a.61.61,0,0,0,.62.62H31a.61.61,0,0,0,.62-.62V16A2.62,2.62,0,0,0,29,13.38ZM11.45,5.62h13.1l2.58,7.76H8.87ZM30.38,23.38H5.62V16A1.38,1.38,0,0,1,7,14.62H29A1.38,1.38,0,0,1,30.38,16Z"/>
    <path class="a995ad26-f37e-4ed6-bf3e-05127b9cc1d3" d="M9,17.38a.62.62,0,0,0-.62.62v2a.62.62,0,1,0,1.24,0V18A.62.62,0,0,0,9,17.38Z"/>
    <path class="a995ad26-f37e-4ed6-bf3e-05127b9cc1d3" d="M27,17.38a.62.62,0,0,0-.62.62v2a.62.62,0,1,0,1.24,0V18A.62.62,0,0,0,27,17.38Z"/>
    <path class="a995ad26-f37e-4ed6-bf3e-05127b9cc1d3" d="M23,16.38H13a.62.62,0,0,0-.62.62v4a.62.62,0,0,0,.62.63H23a.62.62,0,0,0,.62-.63V17A.62.62,0,0,0,23,16.38Zm-.62,4H13.62V17.63h8.76Z"/>
    <path class="a995ad26-f37e-4ed6-bf3e-05127b9cc1d3" d="M6,12.62c.84,0,.59-1.08.62-1.62A.61.61,0,0,0,6,10.38c-.84,0-.59,1.08-.62,1.62A.61.61,0,0,0,6,12.62Z"/>
    <path class="a995ad26-f37e-4ed6-bf3e-05127b9cc1d3" d="M30,12.62c.84,0,.59-1.08.62-1.62a.61.61,0,0,0-.62-.62c-.84,0-.59,1.08-.62,1.62A.61.61,0,0,0,30,12.62Z"/>
    <path class="a995ad26-f37e-4ed6-bf3e-05127b9cc1d3" d="M31,26.38H5a.63.63,0,0,0,0,1.25H6.38V30A1.61,1.61,0,0,0,8,31.62h2A1.61,1.61,0,0,0,11.62,30V27.62H24.38V30A1.61,1.61,0,0,0,26,31.62h2A1.61,1.61,0,0,0,29.62,30V27.62H31A.62.62,0,0,0,31,26.38ZM10.38,30a.38.38,0,0,1-.38.38H8A.38.38,0,0,1,7.62,30V27.62h2.76Zm18,0a.38.38,0,0,1-.38.38H26a.38.38,0,0,1-.38-.38V27.62h2.76Z"/>
  </g>
</svg>
