<?xml version="1.0" encoding="UTF-8"?><svg id="uuid-2171161c-cef5-48d9-98a3-1d7e7d4d7ddf" xmlns="http://www.w3.org/2000/svg" width="36" height="36" viewBox="0 0 36 36"><defs><style>.uuid-ae97f0bf-5ac2-4de8-a7e5-8f9a110baaa0{fill:none;}.uuid-c50deaf3-a89e-4bcc-888c-47f62e774ea6{fill:#fff;}</style></defs><path id="uuid-e987f606-c24f-436a-bfa2-1e01205c1f54" class="uuid-c50deaf3-a89e-4bcc-888c-47f62e774ea6" d="M29,12.99923h-10.375v-3.75h.375c.896,0,1.625-.72852,1.625-1.625v-2c0-.89648-.729-1.625-1.625-1.625h-2c-.896,0-1.625.72852-1.625,1.625v2c0,.89648.729,1.625,1.625,1.625h.375v3.75H7c-1.44727,0-2.625,1.17773-2.625,2.625v11c0,1.44727,1.17773,2.625,2.625,2.625h22c1.44727,0,2.625-1.17773,2.625-2.625v-11c0-1.44727-1.17773-2.625-2.625-2.625ZM16.625,7.62423v-2c0-.20703.16846-.375.375-.375h2c.20654,0,.375.16797.375.375v2c0,.20703-.16846.375-.375.375h-2c-.20654,0-.375-.16797-.375-.375ZM30.375,26.62423c0,.75781-.6167,1.375-1.375,1.375H7c-.7583,0-1.375-.61719-1.375-1.375v-11c0-.75781.6167-1.375,1.375-1.375h22c.7583,0,1.375.61719,1.375,1.375v11ZM11,17.99923h-2c-.34521,0-.625.28027-.625.625v2c0,.34473.27979.625.625.625h2c.34521,0,.625-.28027.625-.625v-2c0-.34473-.27979-.625-.625-.625ZM27,17.99923h-2c-.34521,0-.625.28027-.625.625v2c0,.34473.27979.625.625.625h2c.34521,0,.625-.28027.625-.625v-2c0-.34473-.27979-.625-.625-.625ZM14.94092,24.15548c-.25879.22852-.28369.62305-.05518.88184.22803.25977.62305.28223.88232.05566,1.2334-1.08789,3.23047-1.08789,4.46387,0,.11914.10449.2666.15625.41357.15625.17285,0,.34521-.07129.46875-.21191.22852-.25879.20361-.65332-.05518-.88184-1.69043-1.49023-4.42773-1.49023-6.11816,0Z"/><rect id="uuid-988ec811-23ad-4e7a-999b-63c66bebcb40" class="uuid-ae97f0bf-5ac2-4de8-a7e5-8f9a110baaa0" width="36" height="36"/></svg>