<?xml version="1.0" encoding="UTF-8"?>
<svg id="happy" xmlns="http://www.w3.org/2000/svg" width="36" height="36" version="1.1" viewBox="0 0 36 36">
  <!-- Generator: Adobe Illustrator 30.2.1, SVG Export Plug-In . SVG Version: 2.1.1 Build 1)  -->
  <defs>
    <style>
      .st0 {
        fill: none;
      }

      .st1 {
        fill: #e00;
      }
    </style>
  </defs>
  <path id="icon" class="st1" d="M29,13h-10.375v-3.75h.375c.896,0,1.625-.72852,1.625-1.625v-2c0-.896-.729-1.625-1.625-1.625h-2c-.896,0-1.625.729-1.625,1.625v2c0,.89648.729,1.625,1.625,1.625h.375v3.75H7c-1.44727,0-2.625,1.17773-2.625,2.625v11c0,1.44727,1.17773,2.625,2.625,2.625h22c1.44727,0,2.625-1.17773,2.625-2.625v-11c0-1.44727-1.17773-2.625-2.625-2.625ZM16.625,7.625v-2c0-.20654.16846-.375.375-.375h2c.20654,0,.375.16846.375.375v2c0,.20703-.16846.375-.375.375h-2c-.20654,0-.375-.16797-.375-.375ZM30.375,26.625c0,.75781-.6167,1.375-1.375,1.375H7c-.7583,0-1.375-.61719-1.375-1.375v-11c0-.75781.6167-1.375,1.375-1.375h22c.7583,0,1.375.61719,1.375,1.375v11ZM11.625,17.625v2c0,.34473-.27979.625-.625.625h-2c-.34521,0-.625-.28027-.625-.625v-2c0-.34473.27979-.625.625-.625h2c.34521,0,.625.28027.625.625ZM27.625,17.625v2c0,.34473-.27979.625-.625.625h-2c-.34521,0-.625-.28027-.625-.625v-2c0-.34473.27979-.625.625-.625h2c.34521,0,.625.28027.625.625ZM21.11426,23.21191c.22852.25879.20361.65332-.05518.88184-.84521.74512-1.93164,1.15625-3.05908,1.15625s-2.21387-.41113-3.05908-1.15625c-.25879-.22852-.28369-.62305-.05518-.88184.22852-.26172.62305-.28418.88232-.05566,1.2334,1.08789,3.23047,1.08789,4.46387,0,.25977-.22754.65381-.20508.88232.05566Z"/>
  <rect id="transparent_rectangle" class="st0" width="36" height="36"/>
</svg>