<?xml version="1.0" encoding="UTF-8"?><svg id="uuid-dd66c369-e57a-4800-8306-e557f8b9fa6b" xmlns="http://www.w3.org/2000/svg" width="36" height="36" viewBox="0 0 36 36"><defs><style>.uuid-4200e65f-82e7-4cf5-9fae-13f82be76937{fill:none;}</style></defs><path id="uuid-d5d215f1-bc7a-4c3d-8564-8e023c60ecd4" d="M29,13h-10.375v-3.75h.375c.896,0,1.625-.72852,1.625-1.625v-2c0-.896-.729-1.625-1.625-1.625h-2c-.896,0-1.625.729-1.625,1.625v2c0,.89648.729,1.625,1.625,1.625h.375v3.75H7c-1.44727,0-2.625,1.17773-2.625,2.625v11c0,1.44727,1.17773,2.625,2.625,2.625h22c1.44727,0,2.625-1.17773,2.625-2.625v-11c0-1.44727-1.17773-2.625-2.625-2.625ZM16.625,7.625v-2c0-.20654.16846-.375.375-.375h2c.20654,0,.375.16846.375.375v2c0,.20703-.16846.375-.375.375h-2c-.20654,0-.375-.16797-.375-.375ZM30.375,26.625c0,.75781-.6167,1.375-1.375,1.375H7c-.7583,0-1.375-.61719-1.375-1.375v-11c0-.75781.6167-1.375,1.375-1.375h22c.7583,0,1.375.61719,1.375,1.375v11ZM11,17h-2c-.34521,0-.625.28027-.625.625v2c0,.34473.27979.625.625.625h2c.34521,0,.625-.28027.625-.625v-2c0-.34473-.27979-.625-.625-.625ZM27,17h-2c-.34521,0-.625.28027-.625.625v2c0,.34473.27979.625.625.625h2c.34521,0,.625-.28027.625-.625v-2c0-.34473-.27979-.625-.625-.625ZM20.23193,23.15625c-1.2334,1.08789-3.23047,1.08789-4.46387,0-.25928-.22852-.65381-.20605-.88232.05566-.22852.25879-.20361.65332.05518.88184.84521.74512,1.93164,1.15625,3.05908,1.15625s2.21387-.41113,3.05908-1.15625c.25879-.22852.28369-.62305.05518-.88184-.22852-.26074-.62256-.2832-.88232-.05566Z"/><rect id="uuid-07a74117-cd0f-45d4-8b80-a0ad40548065" class="uuid-4200e65f-82e7-4cf5-9fae-13f82be76937" width="36" height="36"/></svg>