<?xml version="1.0" encoding="UTF-8"?><svg id="uuid-eb9acc0a-fb01-4491-a8d2-e4f90a8ef0b7" xmlns="http://www.w3.org/2000/svg" width="36" height="36" viewBox="0 0 36 36"><defs><style>.uuid-467da433-91f8-44c6-b043-78561fef0185{fill:none;}</style></defs><path id="uuid-0051008e-40d2-42d4-bb34-0ba3e3efa1a5" d="M29,13h-10.375v-3.75h.375c.896,0,1.625-.72852,1.625-1.625v-2c0-.896-.729-1.625-1.625-1.625h-2c-.896,0-1.625.729-1.625,1.625v2c0,.89648.729,1.625,1.625,1.625h.375v3.75H7c-1.44727,0-2.625,1.17773-2.625,2.625v11c0,1.44727,1.17773,2.625,2.625,2.625h22c1.44727,0,2.625-1.17773,2.625-2.625v-11c0-1.44727-1.17773-2.625-2.625-2.625ZM16.625,7.625v-2c0-.20654.16846-.375.375-.375h2c.20654,0,.375.16846.375.375v2c0,.20703-.16846.375-.375.375h-2c-.20654,0-.375-.16797-.375-.375ZM30.375,26.625c0,.75781-.6167,1.375-1.375,1.375H7c-.7583,0-1.375-.61719-1.375-1.375v-11c0-.75781.6167-1.375,1.375-1.375h22c.7583,0,1.375.61719,1.375,1.375v11ZM21,23h-6c-.34521,0-.625.28027-.625.625s.27979.625.625.625h6c.34521,0,.625-.28027.625-.625s-.27979-.625-.625-.625ZM11,19h-2c-.34521,0-.625.28027-.625.625v1c0,.34473.27979.625.625.625h2c.34521,0,.625-.28027.625-.625v-1c0-.34473-.27979-.625-.625-.625ZM27,19h-2c-.34521,0-.625.28027-.625.625v1c0,.34473.27979.625.625.625h2c.34521,0,.625-.28027.625-.625v-1c0-.34473-.27979-.625-.625-.625Z"/><rect id="uuid-2d00f9b2-37a8-4603-b20e-acd89bff03b9" class="uuid-467da433-91f8-44c6-b043-78561fef0185" width="36" height="36"/></svg>