<?xml version="1.0" encoding="UTF-8"?><svg id="uuid-217583ca-bb89-4f1b-8137-cbd854e1606e" xmlns="http://www.w3.org/2000/svg" width="36" height="36" viewBox="0 0 36 36"><defs><style>.uuid-5a294d45-31d2-472a-ae62-6809c34ef460{fill:none;}.uuid-f5d9066b-5845-44e5-bdfa-cf24fca190f5{fill:#fff;}</style></defs><path id="uuid-5397212b-b388-4f55-81fb-8d932bce79ab" class="uuid-f5d9066b-5845-44e5-bdfa-cf24fca190f5" d="M29,12.99923h-10.375v-3.75h.375c.896,0,1.625-.72852,1.625-1.625v-2c0-.89648-.729-1.625-1.625-1.625h-2c-.896,0-1.625.72852-1.625,1.625v2c0,.89648.729,1.625,1.625,1.625h.375v3.75H7c-1.44727,0-2.625,1.17773-2.625,2.625v11c0,1.44727,1.17773,2.625,2.625,2.625h22c1.44727,0,2.625-1.17773,2.625-2.625v-11c0-1.44727-1.17773-2.625-2.625-2.625ZM16.625,7.62423v-2c0-.20703.16846-.375.375-.375h2c.20654,0,.375.16797.375.375v2c0,.20703-.16846.375-.375.375h-2c-.20654,0-.375-.16797-.375-.375ZM30.375,26.62423c0,.75781-.6167,1.375-1.375,1.375H7c-.7583,0-1.375-.61719-1.375-1.375v-11c0-.75781.6167-1.375,1.375-1.375h22c.7583,0,1.375.61719,1.375,1.375v11ZM21,22.99923h-6c-.34521,0-.625.28027-.625.625s.27979.625.625.625h6c.34521,0,.625-.28027.625-.625s-.27979-.625-.625-.625ZM11,18.99923h-2c-.34521,0-.625.28027-.625.625v1c0,.34473.27979.625.625.625h2c.34521,0,.625-.28027.625-.625v-1c0-.34473-.27979-.625-.625-.625ZM27,16.99825h-2c-.34521,0-.625.28027-.625.625v2c0,.34473.27979.625.625.625h2c.34521,0,.625-.28027.625-.625v-2c0-.34473-.27979-.625-.625-.625Z"/><rect id="uuid-d355c310-6983-4127-b5f3-52c920d3923a" class="uuid-5a294d45-31d2-472a-ae62-6809c34ef460" width="36" height="36"/></svg>