<?xml version="1.0" encoding="UTF-8"?><svg id="uuid-60c3bf69-8898-4149-afa0-295b97ec3b60" xmlns="http://www.w3.org/2000/svg" width="36" height="36" viewBox="0 0 36 36"><defs><style>.uuid-d7a28a8e-430f-422b-8d74-7cb15a4f2c98{fill:none;}</style></defs><path id="uuid-4056f3f0-6b0c-4bc0-a4f4-214850c6326f" d="M29,12.99923h-10.375v-3.75h.375c.896,0,1.625-.72852,1.625-1.625v-2c0-.89648-.729-1.625-1.625-1.625h-2c-.896,0-1.625.72852-1.625,1.625v2c0,.89648.729,1.625,1.625,1.625h.375v3.75H7c-1.44727,0-2.625,1.17773-2.625,2.625v11c0,1.44727,1.17773,2.625,2.625,2.625h22c1.44727,0,2.625-1.17773,2.625-2.625v-11c0-1.44727-1.17773-2.625-2.625-2.625ZM16.625,7.62423v-2c0-.20703.16846-.375.375-.375h2c.20654,0,.375.16797.375.375v2c0,.20703-.16846.375-.375.375h-2c-.20654,0-.375-.16797-.375-.375ZM30.375,26.62423c0,.75781-.6167,1.375-1.375,1.375H7c-.7583,0-1.375-.61719-1.375-1.375v-11c0-.75781.6167-1.375,1.375-1.375h22c.7583,0,1.375.61719,1.375,1.375v11ZM21,22.99923h-6c-.34521,0-.625.28027-.625.625s.27979.625.625.625h6c.34521,0,.625-.28027.625-.625s-.27979-.625-.625-.625ZM11,18.99923h-2c-.34521,0-.625.28027-.625.625v1c0,.34473.27979.625.625.625h2c.34521,0,.625-.28027.625-.625v-1c0-.34473-.27979-.625-.625-.625ZM27,16.99825h-2c-.34521,0-.625.28027-.625.625v2c0,.34473.27979.625.625.625h2c.34521,0,.625-.28027.625-.625v-2c0-.34473-.27979-.625-.625-.625Z"/><rect id="uuid-cfb8934d-727b-48bc-a3c2-8ef1c7588096" class="uuid-d7a28a8e-430f-422b-8d74-7cb15a4f2c98" width="36" height="36"/></svg>