<?xml version="1.0" encoding="UTF-8"?><svg id="uuid-c768c069-888a-4929-83dd-539febe1cf8d" xmlns="http://www.w3.org/2000/svg" width="36" height="36" viewBox="0 0 36 36"><metadata><?xpacket begin="﻿" id="W5M0MpCehiHzreSzNTczkc9d"?>
<x:xmpmeta xmlns:x="adobe:ns:meta/" x:xmptk="Adobe XMP Core 8.0-c001 1.000000, 0000/00/00-00:00:00        ">
   <rdf:RDF xmlns:rdf="http://www.w3.org/1999/02/22-rdf-syntax-ns#">
      <rdf:Description rdf:about=""
            xmlns:xmp="http://ns.adobe.com/xap/1.0/"
            xmlns:dc="http://purl.org/dc/elements/1.1/"
            xmlns:cq="http://www.day.com/jcr/cq/1.0"
            xmlns:tiff="http://ns.adobe.com/tiff/1.0/">
         <xmp:rhcc-effective-on>2023-12-08T17:45:54.162Z</xmp:rhcc-effective-on>
         <xmp:rhcc-metadata-complete-moderator>pending</xmp:rhcc-metadata-complete-moderator>
         <xmp:rhcc-translation-id>TRA89172f34-d90b-4790-ae7b-0a6ebfab4a3e</xmp:rhcc-translation-id>
         <xmp:CreateDate>2023-12-08T17:45:54.162Z</xmp:CreateDate>
         <xmp:rhcc-aspect-ratio>square</xmp:rhcc-aspect-ratio>
         <xmp:rhcc-effective-on-set-on-upload>true</xmp:rhcc-effective-on-set-on-upload>
         <xmp:rhcc-published-asset-email-sent>true</xmp:rhcc-published-asset-email-sent>
         <xmp:rhcc-metadata-complete-uploader>pending</xmp:rhcc-metadata-complete-uploader>
         <xmp:rhcc-file-last-modified>2024-07-12T21:21:58.350Z</xmp:rhcc-file-last-modified>
         <xmp:rhcc-audience>rhcc-audience:internal</xmp:rhcc-audience>
         <xmp:rhcc-rights-restricted>no</xmp:rhcc-rights-restricted>
         <xmp:rhcc-derivative-id>DER89172f34-d90b-4790-ae7b-0a6ebfab4a3e</xmp:rhcc-derivative-id>
         <xmp:rhcc-uploaded-by>pmeilleu@redhat.com</xmp:rhcc-uploaded-by>
         <xmp:rhcc-notify-portal-subscribers-on-change>yes</xmp:rhcc-notify-portal-subscribers-on-change>
         <dc:format>image/svg+xml</dc:format>
         <dc:modified>2024-02-09T20:24:34.775Z</dc:modified>
         <cq:lastReplicationAction_scene7>Activate</cq:lastReplicationAction_scene7>
         <cq:lastReplicationAction_publish>Activate</cq:lastReplicationAction_publish>
         <cq:lastReplicated_publish>2024-10-02T19:45:45.214Z</cq:lastReplicated_publish>
         <cq:lastReplicatedBy>workflow-process-service</cq:lastReplicatedBy>
         <cq:lastReplicationAction>Activate</cq:lastReplicationAction>
         <cq:lastReplicatedBy_publish>workflow-process-service</cq:lastReplicatedBy_publish>
         <cq:isDelivered>false</cq:isDelivered>
         <cq:lastReplicated>2024-10-02T19:45:45.214Z</cq:lastReplicated>
         <cq:lastReplicatedBy_scene7>workflow-process-service</cq:lastReplicatedBy_scene7>
         <cq:lastReplicated_scene7>2024-10-02T19:45:45.214Z</cq:lastReplicated_scene7>
         <tiff:ImageLength>36</tiff:ImageLength>
         <tiff:ImageWidth>36</tiff:ImageWidth>
      </rdf:Description>
   </rdf:RDF>
</x:xmpmeta>
                                                                                                    
                                                                                                    
                                                                                                    
                                                                                                    
                                                                                                    
                                                                                                    
                                                                                                    
                                                                                                    
        
<?xpacket end="w"?></metadata>
<path d="m20.23975,15.41992c-.22998-.08984-.5-.04004-.67969.13965-.12012.11035-.19043.28027-.19043.44043,0,.16992.07031.33008.19043.43945.11963.12012.27979.19043.43994.19043.07959,0,.15967-.02051.23975-.0498.08008-.03027.1499-.08008.2002-.14062.12012-.10938.18994-.26953.18994-.43945,0-.16016-.06982-.33008-.18994-.44043-.05029-.05957-.12012-.10938-.2002-.13965Z" fill="#e00" stroke-width="0"/><path d="m26.43994,15.55957c-.16992-.17969-.4502-.24023-.68018-.13965-.06982.03027-.14014.08008-.19971.13965-.06006.06055-.11035.12012-.14014.2002-.03027.08008-.05029.16016-.05029.24023,0,.16992.07031.33008.19043.43945.05957.06055.12988.11035.19971.14062.08008.0293.16016.0498.24023.0498.15967,0,.32959-.07031.43994-.19043.12012-.10938.17969-.26953.17969-.43945,0-.16016-.05957-.33008-.17969-.44043Z" fill="#e00" stroke-width="0"/><path d="m31,19.375h-2.375v-5.375c0-.34473-.27979-.625-.625-.625h-4.375v-1.75h.375c.34521,0,.625-.28027.625-.625s-.27979-.625-.625-.625h-.375v-1.75h1.375c.34521,0,.625-.28027.625-.625s-.27979-.625-.625-.625h-1.375v-1.375c0-.34473-.27979-.625-.625-.625s-.625.28027-.625.625v1.375h-1.375c-.34521,0-.625.28027-.625.625s.27979.625.625.625h1.375v1.75h-.375c-.34521,0-.625.28027-.625.625s.27979.625.625.625h.375v1.75h-4.375c-.34521,0-.625.28027-.625.625v5.375H5c-.34521,0-.625.28027-.625.625s.27979.625.625.625h1.74072l5.81738,5.81738c.12207.12207.28174.18262.44189.18262s.31982-.06055.44189-.18262c.24414-.24414.24414-.64062,0-.88477l-4.93262-4.93262h21.86572v2.11621l-2.81689,2.81641c-.24414.24414-.24414.64062,0,.88477.12207.12207.28174.18262.44189.18262s.31982-.06055.44189-.18262l3-3c.11719-.11719.18311-.27637.18311-.44238v-3c0-.34473-.27979-.625-.625-.625Zm-12.375-4.75h8.75v4.75h-8.75v-4.75Z" fill="#e00" stroke-width="0"/><path d="m31.31836,28.91504c-.31689-.1875-.60205-.4248-.84766-.70605-.11865-.13574-.29004-.21387-.4707-.21387-.18018,0-.35205.07812-.4707.21387-.64795.74121-1.56982,1.16602-2.5293,1.16602s-1.88135-.4248-2.5293-1.16602c-.2373-.27148-.7041-.27148-.94141,0-.64795.74121-1.56982,1.16602-2.5293,1.16602s-1.88135-.4248-2.5293-1.16602c-.2373-.27148-.7041-.27148-.94141,0-.64795.74121-1.56982,1.16602-2.5293,1.16602s-1.88135-.4248-2.5293-1.16602c-.2373-.27148-.7041-.27148-.94141,0-.64795.74121-1.56982,1.16602-2.5293,1.16602s-1.88135-.4248-2.5293-1.16602c-.2373-.27051-.7041-.27051-.94141,0-.24561.28125-.53076.51855-.84766.70605-.29688.17578-.39551.55957-.21973.85645.17627.29785.56006.39355.85645.21973.2417-.14355.46973-.30762.68213-.49121,1.67188,1.44141,4.32764,1.44238,5.99951-.00098,1.67188,1.44336,4.32812,1.44336,6,0,1.67188,1.44336,4.32812,1.44336,6,0,.83594.72168,1.89893,1.12598,3,1.12598s2.16357-.4043,2.99951-1.125c.2124.18359.44043.34766.68213.49121.29688.17383.68066.07812.85645-.21973.17578-.29688.07715-.68066-.21973-.85645Z" fill="#e00" stroke-width="0"/></svg>