<?xml version="1.0" encoding="UTF-8"?><svg id="uuid-087d29ef-d91d-4ce2-8b4c-db8035ede08e" xmlns="http://www.w3.org/2000/svg" width="32" height="32" viewBox="0 0 32 32"><title>Social and external email icon - Black and white</title>
<metadata><?xpacket begin="﻿" id="W5M0MpCehiHzreSzNTczkc9d"?>
<x:xmpmeta xmlns:x="adobe:ns:meta/" x:xmptk="Adobe XMP Core 8.0-c001 1.000000, 0000/00/00-00:00:00        ">
   <rdf:RDF xmlns:rdf="http://www.w3.org/1999/02/22-rdf-syntax-ns#">
      <rdf:Description rdf:about=""
            xmlns:xmp="http://ns.adobe.com/xap/1.0/"
            xmlns:tiff="http://ns.adobe.com/tiff/1.0/"
            xmlns:cq="http://www.day.com/jcr/cq/1.0"
            xmlns:dc="http://purl.org/dc/elements/1.1/">
         <xmp:CreateDate>2023-12-07T22:16:53.601Z</xmp:CreateDate>
         <xmp:rhcc-uploaded-by>pmeilleu@redhat.com</xmp:rhcc-uploaded-by>
         <xmp:rhcc-metadata-complete-uploader>pending</xmp:rhcc-metadata-complete-uploader>
         <xmp:rhcc-metadata-complete-moderator>pending</xmp:rhcc-metadata-complete-moderator>
         <xmp:rhcc-file-last-modified>2024-12-19T21:47:44.822Z</xmp:rhcc-file-last-modified>
         <xmp:rhcc-effective-on-set-on-upload>true</xmp:rhcc-effective-on-set-on-upload>
         <xmp:rhcc-rights-restricted>no</xmp:rhcc-rights-restricted>
         <xmp:brand-content-type>Icon</xmp:brand-content-type>
         <xmp:brand-content-subtype>Social sharing</xmp:brand-content-subtype>
         <xmp:rhcc-translation-id>TRA3abee75b-4669-495d-8b3b-4cf0ba5c5bfc</xmp:rhcc-translation-id>
         <xmp:brand-logo-color>Black,white</xmp:brand-logo-color>
         <xmp:rhcc-derivative-id>DER3abee75b-4669-495d-8b3b-4cf0ba5c5bfc</xmp:rhcc-derivative-id>
         <xmp:rhcc-published-asset-email-sent>true</xmp:rhcc-published-asset-email-sent>
         <xmp:rhcc-audience>rhcc-audience:internal</xmp:rhcc-audience>
         <xmp:rhcc-publish-url>https://content.redhat.com/content/dam/brand/icons/social-media-icons/email/Icon-Social_and_external-Email-Square-Black_and_white-RGB.svg</xmp:rhcc-publish-url>
         <xmp:rhcc-notify-portal-subscribers-on-change>yes</xmp:rhcc-notify-portal-subscribers-on-change>
         <xmp:rhcc-effective-on>2023-12-07T22:16:53.601Z</xmp:rhcc-effective-on>
         <xmp:rhcc-aspect-ratio>square</xmp:rhcc-aspect-ratio>
         <xmp:brand-colorway>
            <rdf:Bag>
               <rdf:li>colorway:black</rdf:li>
               <rdf:li>colorway:white</rdf:li>
            </rdf:Bag>
         </xmp:brand-colorway>
         <tiff:ImageLength>32</tiff:ImageLength>
         <tiff:ImageWidth>32</tiff:ImageWidth>
         <cq:lastReplicated_scene7>2025-06-05T15:50:29.238Z</cq:lastReplicated_scene7>
         <cq:lastReplicated_publish>2025-06-05T15:50:29.238Z</cq:lastReplicated_publish>
         <cq:lastReplicatedBy_scene7>workflow-process-service</cq:lastReplicatedBy_scene7>
         <cq:lastReplicationAction_scene7>Activate</cq:lastReplicationAction_scene7>
         <cq:lastReplicatedBy>workflow-process-service</cq:lastReplicatedBy>
         <cq:lastReplicationAction>Activate</cq:lastReplicationAction>
         <cq:isDelivered>false</cq:isDelivered>
         <cq:lastReplicationAction_publish>Activate</cq:lastReplicationAction_publish>
         <cq:lastReplicated>2025-06-05T15:50:29.238Z</cq:lastReplicated>
         <cq:lastReplicatedBy_publish>workflow-process-service</cq:lastReplicatedBy_publish>
         <dc:format>image/svg+xml</dc:format>
         <dc:modified>2024-02-09T20:37:32.152Z</dc:modified>
         <dc:title>
            <rdf:Alt>
               <rdf:li xml:lang="x-default">Social and external email icon - Black and white</rdf:li>
            </rdf:Alt>
         </dc:title>
      </rdf:Description>
   </rdf:RDF>
</x:xmpmeta>
                            
<?xpacket end="w"?></metadata>
<rect width="32" height="32" rx="1.19" ry="1.19" stroke-width="0"/><g id="uuid-21db7b1d-f590-473b-a106-3de4c3b07df5"><path d="m25.5,9.47c0-.08-.02-.15-.05-.23-.06-.14-.18-.26-.32-.32-.07-.03-.15-.05-.23-.05H7.09c-.08,0-.15.02-.23.05-.14.06-.26.18-.32.32-.03.07-.05.15-.05.23v13.06c0,.08.02.15.05.23.06.14.18.26.32.32.07.03.15.05.23.05h17.81c.08,0,.15-.02.23-.05.14-.06.26-.18.32-.32.03-.07.05-.15.05-.23,0,0,0-13.06,0-13.06Zm-9.5,8.07l-7.48-7.48h14.95l-7.48,7.48h0Zm-3.21-1.54l-5.1,5.1v-10.2l5.1,5.1Zm.84.84l1.95,1.95c.12.12.27.17.42.17s.3-.06.42-.17l1.95-1.95,5.1,5.1h-14.95l5.1-5.1Zm5.59-.84l5.1-5.1v10.2l-5.1-5.1h0Z" fill="#fff" stroke-width="0"/></g></svg>