<?xml version="1.0" encoding="UTF-8"?><svg id="uuid-dd8da594-7e81-41a7-bf4b-b9d88e89caea" xmlns="http://www.w3.org/2000/svg" width="32" height="32" viewBox="0 0 32 32"><metadata><?xpacket begin="﻿" id="W5M0MpCehiHzreSzNTczkc9d"?>
<x:xmpmeta xmlns:x="adobe:ns:meta/" x:xmptk="Adobe XMP Core 8.0-c001 1.000000, 0000/00/00-00:00:00        ">
   <rdf:RDF xmlns:rdf="http://www.w3.org/1999/02/22-rdf-syntax-ns#">
      <rdf:Description rdf:about=""
            xmlns:xmp="http://ns.adobe.com/xap/1.0/"
            xmlns:dc="http://purl.org/dc/elements/1.1/"
            xmlns:cq="http://www.day.com/jcr/cq/1.0"
            xmlns:tiff="http://ns.adobe.com/tiff/1.0/">
         <xmp:rhcc-effective-on>2023-12-07T22:16:54.165Z</xmp:rhcc-effective-on>
         <xmp:rhcc-metadata-complete-moderator>pending</xmp:rhcc-metadata-complete-moderator>
         <xmp:rhcc-translation-id>TRA166de6d0-a31d-471f-bc10-6c80698fadcd</xmp:rhcc-translation-id>
         <xmp:CreateDate>2023-12-07T22:16:54.165Z</xmp:CreateDate>
         <xmp:rhcc-aspect-ratio>square</xmp:rhcc-aspect-ratio>
         <xmp:rhcc-effective-on-set-on-upload>true</xmp:rhcc-effective-on-set-on-upload>
         <xmp:rhcc-published-asset-email-sent>true</xmp:rhcc-published-asset-email-sent>
         <xmp:rhcc-metadata-complete-uploader>pending</xmp:rhcc-metadata-complete-uploader>
         <xmp:rhcc-file-last-modified>2024-07-12T23:11:13.373Z</xmp:rhcc-file-last-modified>
         <xmp:rhcc-audience>rhcc-audience:internal</xmp:rhcc-audience>
         <xmp:rhcc-rights-restricted>no</xmp:rhcc-rights-restricted>
         <xmp:rhcc-derivative-id>DER166de6d0-a31d-471f-bc10-6c80698fadcd</xmp:rhcc-derivative-id>
         <xmp:rhcc-uploaded-by>pmeilleu@redhat.com</xmp:rhcc-uploaded-by>
         <xmp:rhcc-notify-portal-subscribers-on-change>yes</xmp:rhcc-notify-portal-subscribers-on-change>
         <dc:format>image/svg+xml</dc:format>
         <dc:modified>2024-02-09T20:37:30.317Z</dc:modified>
         <cq:lastReplicationAction_scene7>Activate</cq:lastReplicationAction_scene7>
         <cq:lastReplicationAction_publish>Activate</cq:lastReplicationAction_publish>
         <cq:lastReplicated_publish>2024-10-02T19:48:44.881Z</cq:lastReplicated_publish>
         <cq:lastReplicatedBy>workflow-process-service</cq:lastReplicatedBy>
         <cq:lastReplicationAction>Activate</cq:lastReplicationAction>
         <cq:lastReplicatedBy_publish>workflow-process-service</cq:lastReplicatedBy_publish>
         <cq:isDelivered>false</cq:isDelivered>
         <cq:lastReplicated>2024-10-02T19:48:44.881Z</cq:lastReplicated>
         <cq:lastReplicatedBy_scene7>workflow-process-service</cq:lastReplicatedBy_scene7>
         <cq:lastReplicated_scene7>2024-10-02T19:48:44.881Z</cq:lastReplicated_scene7>
         <tiff:ImageLength>32</tiff:ImageLength>
         <tiff:ImageWidth>32</tiff:ImageWidth>
      </rdf:Description>
   </rdf:RDF>
</x:xmpmeta>
                                                                                                    
                                                                                                    
                                                                                                    
                                                                                                    
                                                                                                    
                                                                                                    
                                                                                                    
                                                                                                    
        
<?xpacket end="w"?></metadata>
<polygon points="7.69 10.9 7.69 21.1 12.79 16 7.69 10.9" fill="#fff" stroke-width="0"/><path d="m16.42,18.79c-.12.11-.27.17-.42.17s-.3-.05-.42-.17l-1.95-1.95-5.1,5.1h14.95l-5.1-5.1-1.95,1.95Z" fill="#fff" stroke-width="0"/><polygon points="23.47 10.06 8.52 10.06 16 17.54 23.47 10.06" fill="#fff" stroke-width="0"/><path d="m30.81,0H1.19C.53,0,0,.53,0,1.19v29.63C0,31.47.53,32,1.19,32h29.63c.65,0,1.19-.53,1.19-1.19V1.19C32,.53,31.47,0,30.81,0Zm-5.31,22.53c0,.08-.02.15-.05.23-.06.14-.18.26-.32.32-.07.03-.15.05-.23.05H7.09c-.08,0-.15-.02-.23-.05-.14-.06-.26-.18-.32-.32-.03-.07-.05-.15-.05-.23v-13.06c0-.08.02-.15.05-.23.06-.14.18-.26.32-.32.07-.03.15-.05.23-.05h17.81c.08,0,.15.02.23.05.14.06.26.18.32.32.03.07.05.15.05.23v13.06Z" fill="#fff" stroke-width="0"/><polygon points="24.31 21.1 24.31 10.9 19.22 16 24.31 21.1" fill="#fff" stroke-width="0"/></svg>