<?xml version="1.0" encoding="UTF-8"?><svg id="uuid-a7665aa2-ca68-4fc9-af7c-7c80a3d05196" xmlns="http://www.w3.org/2000/svg" width="32" height="32" viewBox="0 0 32 32"><metadata><?xpacket begin="﻿" id="W5M0MpCehiHzreSzNTczkc9d"?>
<x:xmpmeta xmlns:x="adobe:ns:meta/" x:xmptk="Adobe XMP Core 8.0-c001 1.000000, 0000/00/00-00:00:00        ">
   <rdf:RDF xmlns:rdf="http://www.w3.org/1999/02/22-rdf-syntax-ns#">
      <rdf:Description rdf:about=""
            xmlns:xmp="http://ns.adobe.com/xap/1.0/"
            xmlns:dc="http://purl.org/dc/elements/1.1/"
            xmlns:cq="http://www.day.com/jcr/cq/1.0"
            xmlns:tiff="http://ns.adobe.com/tiff/1.0/">
         <xmp:rhcc-effective-on>2023-12-07T22:16:53.879Z</xmp:rhcc-effective-on>
         <xmp:rhcc-metadata-complete-moderator>pending</xmp:rhcc-metadata-complete-moderator>
         <xmp:rhcc-translation-id>TRAc60892f4-476e-4664-80c7-1ae6131cd7fe</xmp:rhcc-translation-id>
         <xmp:CreateDate>2023-12-07T22:16:53.879Z</xmp:CreateDate>
         <xmp:rhcc-aspect-ratio>square</xmp:rhcc-aspect-ratio>
         <xmp:rhcc-effective-on-set-on-upload>true</xmp:rhcc-effective-on-set-on-upload>
         <xmp:rhcc-published-asset-email-sent>true</xmp:rhcc-published-asset-email-sent>
         <xmp:rhcc-metadata-complete-uploader>pending</xmp:rhcc-metadata-complete-uploader>
         <xmp:rhcc-file-last-modified>2024-07-12T23:09:40.366Z</xmp:rhcc-file-last-modified>
         <xmp:rhcc-audience>rhcc-audience:internal</xmp:rhcc-audience>
         <xmp:rhcc-rights-restricted>no</xmp:rhcc-rights-restricted>
         <xmp:rhcc-derivative-id>DERc60892f4-476e-4664-80c7-1ae6131cd7fe</xmp:rhcc-derivative-id>
         <xmp:rhcc-uploaded-by>pmeilleu@redhat.com</xmp:rhcc-uploaded-by>
         <xmp:rhcc-notify-portal-subscribers-on-change>yes</xmp:rhcc-notify-portal-subscribers-on-change>
         <dc:format>image/svg+xml</dc:format>
         <dc:modified>2024-02-09T20:37:28.102Z</dc:modified>
         <cq:lastReplicationAction_scene7>Activate</cq:lastReplicationAction_scene7>
         <cq:lastReplicationAction_publish>Activate</cq:lastReplicationAction_publish>
         <cq:lastReplicated_publish>2024-10-02T19:48:43.742Z</cq:lastReplicated_publish>
         <cq:lastReplicatedBy>workflow-process-service</cq:lastReplicatedBy>
         <cq:lastReplicationAction>Activate</cq:lastReplicationAction>
         <cq:lastReplicatedBy_publish>workflow-process-service</cq:lastReplicatedBy_publish>
         <cq:isDelivered>false</cq:isDelivered>
         <cq:lastReplicated>2024-10-02T19:48:43.742Z</cq:lastReplicated>
         <cq:lastReplicatedBy_scene7>workflow-process-service</cq:lastReplicatedBy_scene7>
         <cq:lastReplicated_scene7>2024-10-02T19:48:43.742Z</cq:lastReplicated_scene7>
         <tiff:ImageLength>32</tiff:ImageLength>
         <tiff:ImageWidth>32</tiff:ImageWidth>
      </rdf:Description>
   </rdf:RDF>
</x:xmpmeta>
                                                                                                    
                                                                                                    
                                                                                                    
                                                                                                    
                                                                                                    
                                                                                                    
                                                                                                    
                                                                                                    
        
<?xpacket end="w"?></metadata>
<rect width="32" height="32" rx="1.19" ry="1.19" fill="#e00" stroke-width="0"/><g id="uuid-2d8c31b8-909c-44ee-9c81-bfa32256c55b"><path d="m25.5,9.47c0-.08-.02-.15-.05-.23-.06-.14-.18-.26-.32-.32-.07-.03-.15-.05-.23-.05H7.09c-.08,0-.15.02-.23.05-.14.06-.26.18-.32.32-.03.07-.05.15-.05.23v13.06c0,.08.02.15.05.23.06.14.18.26.32.32.07.03.15.05.23.05h17.81c.08,0,.15-.02.23-.05.14-.06.26-.18.32-.32.03-.07.05-.15.05-.23,0,0,0-13.06,0-13.06Zm-9.5,8.07l-7.48-7.48h14.95l-7.48,7.48h0Zm-3.21-1.54l-5.1,5.1v-10.2l5.1,5.1Zm.84.84l1.95,1.95c.12.12.27.17.42.17s.3-.06.42-.17l1.95-1.95,5.1,5.1h-14.95l5.1-5.1Zm5.59-.84l5.1-5.1v10.2l-5.1-5.1h0Z" fill="#fff" stroke-width="0"/></g></svg>