<svg id="a00293ec-048b-4cee-9ebc-64474a5a6de5" data-name="Icon" xmlns="http://www.w3.org/2000/svg" viewBox="0 0 36 36">
  <title>Side view car icon - White</title>
<desc>drive, ride, commute, auto, mobile, gas, electric, highway, road, engine, transportation</desc>
<metadata><?xpacket begin="﻿" id="W5M0MpCehiHzreSzNTczkc9d"?>
<x:xmpmeta xmlns:x="adobe:ns:meta/" x:xmptk="Adobe XMP Core 8.0-c001 1.000000, 0000/00/00-00:00:00        ">
   <rdf:RDF xmlns:rdf="http://www.w3.org/1999/02/22-rdf-syntax-ns#">
      <rdf:Description rdf:about=""
            xmlns:xmp="http://ns.adobe.com/xap/1.0/"
            xmlns:dc="http://purl.org/dc/elements/1.1/"
            xmlns:cq="http://www.day.com/jcr/cq/1.0"
            xmlns:tiff="http://ns.adobe.com/tiff/1.0/">
         <xmp:rhcc-effective-on>2023-12-08T17:46:08.150Z</xmp:rhcc-effective-on>
         <xmp:rhcc-metadata-complete-moderator>pending</xmp:rhcc-metadata-complete-moderator>
         <xmp:rhcc-translation-id>TRAfcd3fe8b-bff0-4a23-8bc3-e6b39c7ae384</xmp:rhcc-translation-id>
         <xmp:brand-content-type>Icon</xmp:brand-content-type>
         <xmp:CreateDate>2023-12-08T17:46:08.150Z</xmp:CreateDate>
         <xmp:rhcc-aspect-ratio>square</xmp:rhcc-aspect-ratio>
         <xmp:rhcc-effective-on-set-on-upload>true</xmp:rhcc-effective-on-set-on-upload>
         <xmp:rhcc-published-asset-email-sent>true</xmp:rhcc-published-asset-email-sent>
         <xmp:rhcc-metadata-complete-uploader>pending</xmp:rhcc-metadata-complete-uploader>
         <xmp:rhcc-file-last-modified>2024-07-12T21:18:49.344Z</xmp:rhcc-file-last-modified>
         <xmp:rhcc-audience>rhcc-audience:internal</xmp:rhcc-audience>
         <xmp:brand-content-subtype>Icon</xmp:brand-content-subtype>
         <xmp:rhcc-rights-restricted>no</xmp:rhcc-rights-restricted>
         <xmp:rhcc-derivative-id>DERfcd3fe8b-bff0-4a23-8bc3-e6b39c7ae384</xmp:rhcc-derivative-id>
         <xmp:rhcc-uploaded-by>pmeilleu@redhat.com</xmp:rhcc-uploaded-by>
         <xmp:brand-logo-color>White</xmp:brand-logo-color>
         <xmp:rhcc-notify-portal-subscribers-on-change>yes</xmp:rhcc-notify-portal-subscribers-on-change>
         <dc:format>image/svg+xml</dc:format>
         <dc:modified>2024-02-09T20:25:08.127Z</dc:modified>
         <dc:title>
            <rdf:Alt>
               <rdf:li xml:lang="x-default">Side view car icon - White</rdf:li>
            </rdf:Alt>
         </dc:title>
         <dc:description>
            <rdf:Alt>
               <rdf:li xml:lang="x-default">drive, ride, commute, auto, mobile, gas, electric, highway, road, engine, transportation</rdf:li>
            </rdf:Alt>
         </dc:description>
         <cq:lastReplicationAction_scene7>Activate</cq:lastReplicationAction_scene7>
         <cq:lastReplicationAction_publish>Activate</cq:lastReplicationAction_publish>
         <cq:lastReplicated_publish>2024-10-02T19:46:12.254Z</cq:lastReplicated_publish>
         <cq:lastReplicatedBy>workflow-process-service</cq:lastReplicatedBy>
         <cq:lastReplicationAction>Activate</cq:lastReplicationAction>
         <cq:lastReplicatedBy_publish>workflow-process-service</cq:lastReplicatedBy_publish>
         <cq:isDelivered>false</cq:isDelivered>
         <cq:lastReplicated>2024-10-02T19:46:12.254Z</cq:lastReplicated>
         <cq:lastReplicatedBy_scene7>workflow-process-service</cq:lastReplicatedBy_scene7>
         <cq:lastReplicated_scene7>2024-10-02T19:46:12.254Z</cq:lastReplicated_scene7>
         <tiff:ImageLength>36</tiff:ImageLength>
         <tiff:ImageWidth>36</tiff:ImageWidth>
      </rdf:Description>
   </rdf:RDF>
</x:xmpmeta>
                                                                                                    
                                                                                                    
                                                                                                    
                                                                                                    
                                                                                                    
                                                                                                    
                                                                                                    
                                                                                                    
        
<?xpacket end="w"?></metadata>
<defs>
    <style>
      .f37dfe07-1e32-485e-b5bc-17ddf0090c21 {
        fill: #fff;
      }
    </style>
  </defs>
  <g>
    <path class="f37dfe07-1e32-485e-b5bc-17ddf0090c21" d="M29,18.62a.63.63,0,0,0,.24-1.2A.63.63,0,1,0,29,18.62Z"/>
    <path class="f37dfe07-1e32-485e-b5bc-17ddf0090c21" d="M9,13.62H24a.63.63,0,0,0,.44-1.07l-4-4A.6.6,0,0,0,20,8.38H9.85a.62.62,0,0,0-.61.49l-.85,4A.62.62,0,0,0,9,13.62Zm13.49-1.24H15.62V9.62h4.12ZM10.36,9.62h4v2.76H9.77Z"/>
    <path class="f37dfe07-1e32-485e-b5bc-17ddf0090c21" d="M31,27.38H5a.62.62,0,0,0,0,1.24H31A.62.62,0,0,0,31,27.38Z"/>
    <path class="f37dfe07-1e32-485e-b5bc-17ddf0090c21" d="M28,14.38H8A3.62,3.62,0,0,0,4.38,18v3a.61.61,0,0,0,.62.62H7.52c-1.12,4.6,5.85,5.61,6.11.88a3.13,3.13,0,0,0-5.41-2.12H5.62V18A2.39,2.39,0,0,1,8,15.62H28A2.39,2.39,0,0,1,30.38,18v2.38h-2.6a3.12,3.12,0,0,0-4.56,0H15a.62.62,0,0,0,0,1.24h7.52a3.11,3.11,0,1,0,6,0H31a.61.61,0,0,0,.62-.62V18A3.62,3.62,0,0,0,28,14.38ZM10.5,20.62a1.88,1.88,0,0,1,0,3.75A1.88,1.88,0,0,1,10.5,20.62Zm15,3.76a1.88,1.88,0,0,1,0-3.75A1.88,1.88,0,0,1,25.5,24.38Z"/>
  </g>
</svg>
