<svg id="a6115b41-727f-4ee4-ae66-8eaae7daae31" data-name="Icon" xmlns="http://www.w3.org/2000/svg" viewBox="0 0 36 36">
  <title>Tractor icon - Red</title>
<desc>industry, farm, rural, work, field, harvest, season, food, transportation</desc>
<metadata><?xpacket begin="﻿" id="W5M0MpCehiHzreSzNTczkc9d"?>
<x:xmpmeta xmlns:x="adobe:ns:meta/" x:xmptk="Adobe XMP Core 8.0-c001 1.000000, 0000/00/00-00:00:00        ">
   <rdf:RDF xmlns:rdf="http://www.w3.org/1999/02/22-rdf-syntax-ns#">
      <rdf:Description rdf:about=""
            xmlns:xmp="http://ns.adobe.com/xap/1.0/"
            xmlns:dc="http://purl.org/dc/elements/1.1/"
            xmlns:cq="http://www.day.com/jcr/cq/1.0"
            xmlns:tiff="http://ns.adobe.com/tiff/1.0/">
         <xmp:rhcc-effective-on>2023-12-08T17:46:25.829Z</xmp:rhcc-effective-on>
         <xmp:rhcc-metadata-complete-moderator>pending</xmp:rhcc-metadata-complete-moderator>
         <xmp:rhcc-translation-id>TRAf6d281e5-1481-4c4a-82ee-b30e3a32081b</xmp:rhcc-translation-id>
         <xmp:brand-content-type>Icon</xmp:brand-content-type>
         <xmp:CreateDate>2023-12-08T17:46:25.829Z</xmp:CreateDate>
         <xmp:rhcc-aspect-ratio>square</xmp:rhcc-aspect-ratio>
         <xmp:rhcc-effective-on-set-on-upload>true</xmp:rhcc-effective-on-set-on-upload>
         <xmp:rhcc-published-asset-email-sent>true</xmp:rhcc-published-asset-email-sent>
         <xmp:rhcc-metadata-complete-uploader>pending</xmp:rhcc-metadata-complete-uploader>
         <xmp:rhcc-file-last-modified>2024-07-12T21:26:43.345Z</xmp:rhcc-file-last-modified>
         <xmp:rhcc-audience>rhcc-audience:internal</xmp:rhcc-audience>
         <xmp:brand-content-subtype>Icon</xmp:brand-content-subtype>
         <xmp:rhcc-rights-restricted>no</xmp:rhcc-rights-restricted>
         <xmp:rhcc-derivative-id>DERf6d281e5-1481-4c4a-82ee-b30e3a32081b</xmp:rhcc-derivative-id>
         <xmp:rhcc-uploaded-by>pmeilleu@redhat.com</xmp:rhcc-uploaded-by>
         <xmp:brand-logo-color>Red</xmp:brand-logo-color>
         <xmp:rhcc-notify-portal-subscribers-on-change>yes</xmp:rhcc-notify-portal-subscribers-on-change>
         <dc:format>image/svg+xml</dc:format>
         <dc:modified>2024-02-09T20:25:42.617Z</dc:modified>
         <dc:title>
            <rdf:Alt>
               <rdf:li xml:lang="x-default">Tractor icon - Red</rdf:li>
            </rdf:Alt>
         </dc:title>
         <dc:description>
            <rdf:Alt>
               <rdf:li xml:lang="x-default">industry, farm, rural, work, field, harvest, season, food, transportation</rdf:li>
            </rdf:Alt>
         </dc:description>
         <cq:lastReplicationAction_scene7>Activate</cq:lastReplicationAction_scene7>
         <cq:lastReplicationAction_publish>Activate</cq:lastReplicationAction_publish>
         <cq:lastReplicated_publish>2024-10-02T19:46:39.004Z</cq:lastReplicated_publish>
         <cq:lastReplicatedBy>workflow-process-service</cq:lastReplicatedBy>
         <cq:lastReplicationAction>Activate</cq:lastReplicationAction>
         <cq:lastReplicatedBy_publish>workflow-process-service</cq:lastReplicatedBy_publish>
         <cq:isDelivered>false</cq:isDelivered>
         <cq:lastReplicated>2024-10-02T19:46:39.004Z</cq:lastReplicated>
         <cq:lastReplicatedBy_scene7>workflow-process-service</cq:lastReplicatedBy_scene7>
         <cq:lastReplicated_scene7>2024-10-02T19:46:39.004Z</cq:lastReplicated_scene7>
         <tiff:ImageLength>36</tiff:ImageLength>
         <tiff:ImageWidth>36</tiff:ImageWidth>
      </rdf:Description>
   </rdf:RDF>
</x:xmpmeta>
                                                                                                    
                                                                                                    
                                                                                                    
                                                                                                    
                                                                                                    
                                                                                                    
                                                                                                    
                                                                                                    
        
<?xpacket end="w"?></metadata>
<defs>
    <style>
      .b21e8ff1-7d99-4f41-8963-279570b2621e {
        fill: #e00;
      }
    </style>
  </defs>
  <g>
    <path class="b21e8ff1-7d99-4f41-8963-279570b2621e" d="M9,15.62h7a.62.62,0,0,0,.61-.75L15.28,8.62H16a.62.62,0,0,0,0-1.24H9A.62.62,0,0,0,8.38,8v7A.62.62,0,0,0,9,15.62Zm5-7,1.22,5.76H9.62V8.62Z"/>
    <path class="b21e8ff1-7d99-4f41-8963-279570b2621e" d="M10.5,24.62a2.12,2.12,0,0,0,0-4.24A2.12,2.12,0,0,0,10.5,24.62Zm0-3a.88.88,0,0,1,0,1.75A.88.88,0,0,1,10.5,21.62Z"/>
    <path class="b21e8ff1-7d99-4f41-8963-279570b2621e" d="M31.49,16.61a.62.62,0,0,0-.49-.23H27.62V12a.62.62,0,0,0-1.24,0v4.38H10a.61.61,0,0,0-.24,0c-7.53,1.1-6.91,12,.74,12.2a6.13,6.13,0,0,0,3.69-11h16L29,23.38H27.78a3.12,3.12,0,0,0-4.56,0H18a.62.62,0,0,0,0,1.24h4.52a3.11,3.11,0,1,0,6,0c.49,0,1.52.22,1.64-.49l1.49-7A.64.64,0,0,0,31.49,16.61ZM15.38,22.5c-.21,6.44-9.55,6.44-9.76,0C5.83,16.06,15.17,16.06,15.38,22.5ZM25.5,27.38a1.88,1.88,0,0,1,0-3.75A1.88,1.88,0,0,1,25.5,27.38Z"/>
  </g>
</svg>
