<svg id="b55a85da-4d01-4e27-8c91-33b98d5e2a22" data-name="Icon" xmlns="http://www.w3.org/2000/svg" viewBox="0 0 36 36">
  <title>Circuit icon - Red</title>
<desc>wiring, nodes, computer, machine, electric, motherboard, hardware</desc>
<metadata><?xpacket begin="﻿" id="W5M0MpCehiHzreSzNTczkc9d"?>
<x:xmpmeta xmlns:x="adobe:ns:meta/" x:xmptk="Adobe XMP Core 8.0-c001 1.000000, 0000/00/00-00:00:00        ">
   <rdf:RDF xmlns:rdf="http://www.w3.org/1999/02/22-rdf-syntax-ns#">
      <rdf:Description rdf:about=""
            xmlns:xmp="http://ns.adobe.com/xap/1.0/"
            xmlns:dc="http://purl.org/dc/elements/1.1/"
            xmlns:cq="http://www.day.com/jcr/cq/1.0"
            xmlns:tiff="http://ns.adobe.com/tiff/1.0/">
         <xmp:rhcc-effective-on>2023-12-08T17:34:10.959Z</xmp:rhcc-effective-on>
         <xmp:rhcc-metadata-complete-moderator>pending</xmp:rhcc-metadata-complete-moderator>
         <xmp:rhcc-translation-id>TRA6d579640-12dd-43da-ae7b-5253a72b4329</xmp:rhcc-translation-id>
         <xmp:brand-content-type>Icon</xmp:brand-content-type>
         <xmp:CreateDate>2023-12-08T17:34:10.959Z</xmp:CreateDate>
         <xmp:rhcc-aspect-ratio>square</xmp:rhcc-aspect-ratio>
         <xmp:rhcc-effective-on-set-on-upload>true</xmp:rhcc-effective-on-set-on-upload>
         <xmp:rhcc-metadata-complete-uploader>pending</xmp:rhcc-metadata-complete-uploader>
         <xmp:rhcc-file-last-modified>2024-07-12T19:06:55.371Z</xmp:rhcc-file-last-modified>
         <xmp:rhcc-audience>rhcc-audience:internal</xmp:rhcc-audience>
         <xmp:brand-content-subtype>Icon</xmp:brand-content-subtype>
         <xmp:rhcc-rights-restricted>no</xmp:rhcc-rights-restricted>
         <xmp:rhcc-derivative-id>DER6d579640-12dd-43da-ae7b-5253a72b4329</xmp:rhcc-derivative-id>
         <xmp:rhcc-uploaded-by>pmeilleu@redhat.com</xmp:rhcc-uploaded-by>
         <xmp:brand-logo-color>Red</xmp:brand-logo-color>
         <xmp:rhcc-notify-portal-subscribers-on-change>yes</xmp:rhcc-notify-portal-subscribers-on-change>
         <dc:format>image/svg+xml</dc:format>
         <dc:modified>2024-02-09T20:11:10.342Z</dc:modified>
         <dc:title>
            <rdf:Alt>
               <rdf:li xml:lang="x-default">Circuit icon - Red</rdf:li>
            </rdf:Alt>
         </dc:title>
         <dc:description>
            <rdf:Alt>
               <rdf:li xml:lang="x-default">wiring, nodes, computer, machine, electric, motherboard, hardware</rdf:li>
            </rdf:Alt>
         </dc:description>
         <cq:lastReplicationAction_scene7>Activate</cq:lastReplicationAction_scene7>
         <cq:lastReplicationAction_publish>Activate</cq:lastReplicationAction_publish>
         <cq:lastReplicated_publish>2024-10-02T19:30:33.833Z</cq:lastReplicated_publish>
         <cq:lastReplicatedBy>workflow-process-service</cq:lastReplicatedBy>
         <cq:lastReplicationAction>Activate</cq:lastReplicationAction>
         <cq:lastReplicatedBy_publish>workflow-process-service</cq:lastReplicatedBy_publish>
         <cq:isDelivered>false</cq:isDelivered>
         <cq:lastReplicated>2024-10-02T19:30:33.833Z</cq:lastReplicated>
         <cq:lastReplicatedBy_scene7>workflow-process-service</cq:lastReplicatedBy_scene7>
         <cq:lastReplicated_scene7>2024-10-02T19:30:33.833Z</cq:lastReplicated_scene7>
         <tiff:ImageLength>36</tiff:ImageLength>
         <tiff:ImageWidth>36</tiff:ImageWidth>
      </rdf:Description>
   </rdf:RDF>
</x:xmpmeta>
                                                                                                    
                                                                                                    
                                                                                                    
                                                                                                    
                                                                                                    
                                                                                                    
                                                                                                    
                                                                                                    
                                                                                                 
<?xpacket end="w"?></metadata>
<defs>
    <style>
      .b1cb3969-acf3-4539-a000-4dd1bcdc086e {
        fill: #e00;
      }
    </style>
  </defs>
  <g>
    <path class="b1cb3969-acf3-4539-a000-4dd1bcdc086e" d="M30,29.38a.61.61,0,0,0-.62.62v.38H22.62V24.54a2.62,2.62,0,1,0-1.24,0v5.84H13.62V27.26l2.82-2.82a.6.6,0,0,0,.18-.44V19.54a2.62,2.62,0,1,0-1.24,0v4.2l-2.82,2.82a.6.6,0,0,0-.18.44v3.38H5.62V5.62h6.76V9.74L9.56,12.56a.6.6,0,0,0-.18.44v6.46a2.62,2.62,0,1,0,1.24,0v-6.2l2.82-2.82a.6.6,0,0,0,.18-.44V5.62h7.76V9.46a2.62,2.62,0,1,0,1.24,0V5.62h6.76V8.38H28a.61.61,0,0,0-.62.62v6a.61.61,0,0,0,.62.62h1.38V17a.62.62,0,0,0,1.24,0V15a.61.61,0,0,0-.62-.62H28.62V9.62H30A.61.61,0,0,0,30.62,9V5A.61.61,0,0,0,30,4.38H5A.61.61,0,0,0,4.38,5V31a.61.61,0,0,0,.62.62H30a.61.61,0,0,0,.62-.62V30A.61.61,0,0,0,30,29.38ZM20.62,22A1.38,1.38,0,1,1,22,23.38,1.38,1.38,0,0,1,20.62,22Zm-6-5A1.38,1.38,0,1,1,16,18.38,1.38,1.38,0,0,1,14.62,17Zm-3.24,5A1.38,1.38,0,1,1,10,20.62,1.38,1.38,0,0,1,11.38,22Zm12-10A1.38,1.38,0,1,1,22,10.62,1.38,1.38,0,0,1,23.38,12Z"/>
    <path class="b1cb3969-acf3-4539-a000-4dd1bcdc086e" d="M32,19.38H28a.61.61,0,0,0-.62.62v7a.61.61,0,0,0,.62.62h4a.61.61,0,0,0,.62-.62V20A.61.61,0,0,0,32,19.38Zm-.62,7H28.62V20.62h2.76Z"/>
  </g>
</svg>
