<?xml version="1.0" encoding="UTF-8"?><svg id="uuid-cdc06e08-7c6c-4b8c-923e-262efc4c8e14" xmlns="http://www.w3.org/2000/svg" width="36" height="36" viewBox="0 0 36 36"><metadata><?xpacket begin="﻿" id="W5M0MpCehiHzreSzNTczkc9d"?>
<x:xmpmeta xmlns:x="adobe:ns:meta/" x:xmptk="Adobe XMP Core 8.0-c001 1.000000, 0000/00/00-00:00:00        ">
   <rdf:RDF xmlns:rdf="http://www.w3.org/1999/02/22-rdf-syntax-ns#">
      <rdf:Description rdf:about=""
            xmlns:xmp="http://ns.adobe.com/xap/1.0/"
            xmlns:dc="http://purl.org/dc/elements/1.1/"
            xmlns:cq="http://www.day.com/jcr/cq/1.0"
            xmlns:tiff="http://ns.adobe.com/tiff/1.0/">
         <xmp:rhcc-effective-on>2023-12-08T17:45:07.407Z</xmp:rhcc-effective-on>
         <xmp:rhcc-metadata-complete-moderator>pending</xmp:rhcc-metadata-complete-moderator>
         <xmp:rhcc-translation-id>TRA892ea97e-56ce-4227-8f64-20bb8ee80453</xmp:rhcc-translation-id>
         <xmp:CreateDate>2023-12-08T17:45:07.407Z</xmp:CreateDate>
         <xmp:rhcc-aspect-ratio>square</xmp:rhcc-aspect-ratio>
         <xmp:rhcc-effective-on-set-on-upload>true</xmp:rhcc-effective-on-set-on-upload>
         <xmp:rhcc-published-asset-email-sent>true</xmp:rhcc-published-asset-email-sent>
         <xmp:rhcc-metadata-complete-uploader>pending</xmp:rhcc-metadata-complete-uploader>
         <xmp:rhcc-file-last-modified>2024-07-12T23:20:25.375Z</xmp:rhcc-file-last-modified>
         <xmp:rhcc-audience>rhcc-audience:internal</xmp:rhcc-audience>
         <xmp:rhcc-rights-restricted>no</xmp:rhcc-rights-restricted>
         <xmp:rhcc-derivative-id>DER892ea97e-56ce-4227-8f64-20bb8ee80453</xmp:rhcc-derivative-id>
         <xmp:rhcc-uploaded-by>pmeilleu@redhat.com</xmp:rhcc-uploaded-by>
         <xmp:rhcc-notify-portal-subscribers-on-change>yes</xmp:rhcc-notify-portal-subscribers-on-change>
         <dc:format>image/svg+xml</dc:format>
         <dc:modified>2024-02-09T20:37:28.559Z</dc:modified>
         <cq:lastReplicationAction_scene7>Activate</cq:lastReplicationAction_scene7>
         <cq:lastReplicationAction_publish>Activate</cq:lastReplicationAction_publish>
         <cq:lastReplicated_publish>2024-10-02T19:41:49.686Z</cq:lastReplicated_publish>
         <cq:lastReplicatedBy>workflow-process-service</cq:lastReplicatedBy>
         <cq:lastReplicationAction>Activate</cq:lastReplicationAction>
         <cq:lastReplicatedBy_publish>workflow-process-service</cq:lastReplicatedBy_publish>
         <cq:isDelivered>false</cq:isDelivered>
         <cq:lastReplicated>2024-10-02T19:41:49.686Z</cq:lastReplicated>
         <cq:lastReplicatedBy_scene7>workflow-process-service</cq:lastReplicatedBy_scene7>
         <cq:lastReplicated_scene7>2024-10-02T19:41:49.686Z</cq:lastReplicated_scene7>
         <tiff:ImageLength>36</tiff:ImageLength>
         <tiff:ImageWidth>36</tiff:ImageWidth>
      </rdf:Description>
   </rdf:RDF>
</x:xmpmeta>
                                                                                                    
                                                                                                    
                                                                                                    
                                                                                                    
                                                                                                    
                                                                                                    
                                                                                                    
                                                                                                    
        
<?xpacket end="w"?></metadata>
<path d="m31,14.375h-3c-.34521,0-.625.28027-.625.625s.27979.625.625.625h2.375v11.75H5.625v-11.75h10.375c.34521,0,.625-.28027.625-.625s-.27979-.625-.625-.625H5c-.34521,0-.625.28027-.625.625v13c0,.34473.27979.625.625.625h26c.34521,0,.625-.28027.625-.625v-13c0-.34473-.27979-.625-.625-.625Z" fill="#e00" stroke-width="0"/><path d="m30.88428,7l.55762-.55762c.24414-.24414.24414-.64062,0-.88477s-.63965-.24414-.88379,0l-.55811.55811-.55811-.55811c-.24414-.24414-.63965-.24414-.88379,0l-1.05811,1.05811-1.05811-1.05811c-.24414-.24414-.63965-.24414-.88379,0l-4,4c-.24414.24414-.24414.64062,0,.88477.12207.12207.28174.18262.44189.18262s.31982-.06055.44189-.18262l3.55811-3.55859.61584.61609-11.05774,11.05774c-.03058.03058-.0459.06891-.06879.10364-.01935.02911-.04547.0517-.06012.08484l-.00775.01746c-.00024.00067-.00061.00122-.00085.00183l-1.59637,3.58618c-.10547.23633-.0542.5127.12891.69629.11963.11914.27979.18262.44189.18262.08594,0,.17236-.01758.25439-.05371l3.60498-1.60547c.03668-.01636.06226-.0448.09406-.06689.03101-.0213.06586-.03442.09344-.06201l13-13c.24414-.24414.24414-.64062,0-.88477l-.55762-.55762Zm-13.24432,13.47577l-2.01154.8963.89465-2.01086,11.41748-11.41797c.00037-.00037.00098-.00049.00134-.00085s.00049-.00098.00085-.00134l1.05725-1.05725.55713.55713c.00043.00043.00055.00104.00098.00146s.00104.00055.00146.00098l.55664.55664-12.47626,12.47577Z" fill="#e00" stroke-width="0"/><path d="m12,17.375h-4c-.34521,0-.625.28027-.625.625s.27979.625.625.625h4c.34521,0,.625-.28027.625-.625s-.27979-.625-.625-.625Z" fill="#e00" stroke-width="0"/><path d="m28,18.625c.34521,0,.625-.28027.625-.625s-.27979-.625-.625-.625h-2c-.34521,0-.625.28027-.625.625s.27979.625.625.625h2Z" fill="#e00" stroke-width="0"/><path d="m20.375,25c0,.34473.27979.625.625.625h7c.34521,0,.625-.28027.625-.625s-.27979-.625-.625-.625h-7c-.34521,0-.625.28027-.625.625Z" fill="#e00" stroke-width="0"/><path d="m8,25.625h7c.34521,0,.625-.28027.625-.625s-.27979-.625-.625-.625h-7c-.34521,0-.625.28027-.625.625s.27979.625.625.625Z" fill="#e00" stroke-width="0"/><path d="m8,20.625h2c.34521,0,.625-.28027.625-.625s-.27979-.625-.625-.625h-2c-.34521,0-.625.28027-.625.625s.27979.625.625.625Z" fill="#e00" stroke-width="0"/><path d="m23.375,20c0,.34473.27979.625.625.625h4c.34521,0,.625-.28027.625-.625s-.27979-.625-.625-.625h-4c-.34521,0-.625.28027-.625.625Z" fill="#e00" stroke-width="0"/></svg>