<?xml version="1.0" encoding="UTF-8"?><svg id="Icons" xmlns="http://www.w3.org/2000/svg" viewBox="0 0 38 38"><title>image mode icon</title>
<desc>RHEL, edge, CentOS</desc>
<metadata><?xpacket begin="﻿" id="W5M0MpCehiHzreSzNTczkc9d"?>
<x:xmpmeta xmlns:x="adobe:ns:meta/" x:xmptk="Adobe XMP Core 8.0-c001 1.000000, 0000/00/00-00:00:00        ">
   <rdf:RDF xmlns:rdf="http://www.w3.org/1999/02/22-rdf-syntax-ns#">
      <rdf:Description rdf:about=""
            xmlns:xmp="http://ns.adobe.com/xap/1.0/"
            xmlns:tiff="http://ns.adobe.com/tiff/1.0/"
            xmlns:dc="http://purl.org/dc/elements/1.1/"
            xmlns:xmpRights="http://ns.adobe.com/xap/1.0/rights/">
         <xmp:brand-content-subtype>Technology</xmp:brand-content-subtype>
         <xmp:rhcc-file-last-modified>2025-03-05T17:06:13.233Z</xmp:rhcc-file-last-modified>
         <xmp:brand-logo-color>Red</xmp:brand-logo-color>
         <xmp:rhcc-rights-restricted>no</xmp:rhcc-rights-restricted>
         <xmp:brand-content-type>Icon</xmp:brand-content-type>
         <xmp:rhcc-audience>rhcc-audience:internal</xmp:rhcc-audience>
         <xmp:rhcc-notify-portal-subscribers-on-change>yes</xmp:rhcc-notify-portal-subscribers-on-change>
         <xmp:rhcc-product>
            <rdf:Bag>
               <rdf:li>rhcc-product:red-hat-enterprise-linux</rdf:li>
            </rdf:Bag>
         </xmp:rhcc-product>
         <xmp:rhcc-topics>
            <rdf:Bag>
               <rdf:li>rhcc-topics:Linux</rdf:li>
            </rdf:Bag>
         </xmp:rhcc-topics>
         <xmp:brand-colorway>
            <rdf:Bag>
               <rdf:li>colorway:red</rdf:li>
            </rdf:Bag>
         </xmp:brand-colorway>
         <xmp:brand-subtype>
            <rdf:Bag>
               <rdf:li>Technology icon</rdf:li>
            </rdf:Bag>
         </xmp:brand-subtype>
         <tiff:ImageWidth>38</tiff:ImageWidth>
         <tiff:ImageLength>38</tiff:ImageLength>
         <dc:modified>2025-03-05T17:07:49.550Z</dc:modified>
         <dc:format>image/svg+xml</dc:format>
         <dc:description>
            <rdf:Alt>
               <rdf:li xml:lang="x-default">RHEL, edge, CentOS</rdf:li>
            </rdf:Alt>
         </dc:description>
         <dc:title>
            <rdf:Alt>
               <rdf:li xml:lang="x-default">image mode icon</rdf:li>
            </rdf:Alt>
         </dc:title>
         <xmpRights:UsageTerms>
            <rdf:Alt>
               <rdf:li xml:lang="x-default">Use technology icons to represent Red Hat products and components. Do not remove the icon from the bounding shape.</rdf:li>
            </rdf:Alt>
         </xmpRights:UsageTerms>
      </rdf:Description>
   </rdf:RDF>
</x:xmpmeta>
                                                                                                    
                                                                                                    
                                                                                                    
                                                                                                    
                                                                                                    
                                                                                                    
                                                                                                    
                                                                                                    
                                                                                                    
                                                                                                    
                                                                                           
<?xpacket end="w"?></metadata>
<defs><style>.cls-1{fill:#e00;stroke-width:0px;}</style></defs><path class="cls-1" d="M28,1H10C5.03,1,1,5.03,1,10v18c0,4.97,4.03,9,9,9h18c4.97,0,9-4.03,9-9V10c0-4.97-4.03-9-9-9ZM35.75,28c0,4.27-3.48,7.75-7.75,7.75H10c-4.27,0-7.75-3.48-7.75-7.75V10c0-4.27,3.48-7.75,7.75-7.75h18c4.27,0,7.75,3.48,7.75,7.75v18Z"/><path class="cls-1" d="M19.31,7.46c-.19-.11-.43-.11-.62,0l-9.53,5.5c-.19.11-.31.32-.31.54v11c0,.22.12.43.31.54l9.53,5.5c.1.06.21.08.31.08s.22-.03.31-.08l9.53-5.5c.19-.11.31-.32.31-.54v-11c0-.22-.12-.43-.31-.54l-9.53-5.5ZM27.9,24.14l-8.9,5.14-8.9-5.14v-10.28l8.9-5.14,8.9,5.14v10.28Z"/><path class="cls-1" d="M25,20.37h-12c-.34,0-.62.28-.62.62v3c0,.35.28.62.62.62h12c.34,0,.62-.28.62-.62v-3c0-.35-.28-.62-.62-.62ZM24.38,23.37h-10.75v-1.75h10.75v1.75Z"/><path class="cls-1" d="M18.38,14v4c0,.35.28.62.62.62h6c.34,0,.62-.28.62-.62v-4c0-.35-.28-.62-.62-.62h-6c-.34,0-.62.28-.62.62ZM19.62,14.62h4.75v2.75h-4.75v-2.75Z"/><path class="cls-1" d="M13,18.62h3c.34,0,.62-.28.62-.62v-4c0-.35-.28-.62-.62-.62h-3c-.34,0-.62.28-.62.62v4c0,.35.28.62.62.62ZM13.62,14.62h1.75v2.75h-1.75v-2.75Z"/></svg>