<?xml version="1.0" encoding="UTF-8"?><svg id="uuid-7289ea61-67ae-4203-b1db-04a264f65b66" xmlns="http://www.w3.org/2000/svg" viewBox="0 0 36 36"><title>5G icon - White</title>
<desc>internet, connection, call, text, message, data, phone, mobile, wireless, edge, TME, iPhone, android, bars, signal, software and technologies</desc>
<metadata><?xpacket begin="﻿" id="W5M0MpCehiHzreSzNTczkc9d"?>
<x:xmpmeta xmlns:x="adobe:ns:meta/" x:xmptk="Adobe XMP Core 8.0-c001 1.000000, 0000/00/00-00:00:00        ">
   <rdf:RDF xmlns:rdf="http://www.w3.org/1999/02/22-rdf-syntax-ns#">
      <rdf:Description rdf:about=""
            xmlns:xmp="http://ns.adobe.com/xap/1.0/"
            xmlns:dc="http://purl.org/dc/elements/1.1/"
            xmlns:cq="http://www.day.com/jcr/cq/1.0"
            xmlns:tiff="http://ns.adobe.com/tiff/1.0/">
         <xmp:rhcc-effective-on>2023-12-08T17:41:44.722Z</xmp:rhcc-effective-on>
         <xmp:rhcc-metadata-complete-moderator>pending</xmp:rhcc-metadata-complete-moderator>
         <xmp:rhcc-translation-id>TRAbb28d660-bfbe-4928-9c2b-25078406899e</xmp:rhcc-translation-id>
         <xmp:brand-content-type>Icon</xmp:brand-content-type>
         <xmp:CreateDate>2023-12-08T17:41:44.722Z</xmp:CreateDate>
         <xmp:rhcc-effective-on-set-on-upload>true</xmp:rhcc-effective-on-set-on-upload>
         <xmp:rhcc-metadata-complete-uploader>pending</xmp:rhcc-metadata-complete-uploader>
         <xmp:rhcc-file-last-modified>2023-12-08T17:42:22.601Z</xmp:rhcc-file-last-modified>
         <xmp:rhcc-audience>rhcc-audience:internal</xmp:rhcc-audience>
         <xmp:rhcc-rights-restricted>no</xmp:rhcc-rights-restricted>
         <xmp:brand-content-subtype>Icon</xmp:brand-content-subtype>
         <xmp:rhcc-derivative-id>DERbb28d660-bfbe-4928-9c2b-25078406899e</xmp:rhcc-derivative-id>
         <xmp:brand-logo-color>White</xmp:brand-logo-color>
         <xmp:rhcc-notify-portal-subscribers-on-change>yes</xmp:rhcc-notify-portal-subscribers-on-change>
         <dc:format>image/svg+xml</dc:format>
         <dc:modified>2024-02-09T20:13:37.577Z</dc:modified>
         <dc:title>
            <rdf:Alt>
               <rdf:li xml:lang="x-default">5G icon - White</rdf:li>
            </rdf:Alt>
         </dc:title>
         <dc:description>
            <rdf:Alt>
               <rdf:li xml:lang="x-default">internet, connection, call, text, message, data, phone, mobile, wireless, edge, TME, iPhone, android, bars, signal, software and technologies</rdf:li>
            </rdf:Alt>
         </dc:description>
         <cq:lastReplicationAction_scene7>Activate</cq:lastReplicationAction_scene7>
         <cq:lastReplicationAction_publish>Activate</cq:lastReplicationAction_publish>
         <cq:lastReplicated_publish>2024-02-09T21:49:59.043Z</cq:lastReplicated_publish>
         <cq:lastReplicatedBy>workflow-process-service</cq:lastReplicatedBy>
         <cq:lastReplicationAction>Activate</cq:lastReplicationAction>
         <cq:lastReplicatedBy_publish>workflow-process-service</cq:lastReplicatedBy_publish>
         <cq:isDelivered>true</cq:isDelivered>
         <cq:lastReplicated>2024-02-09T21:49:59.043Z</cq:lastReplicated>
         <cq:lastReplicatedBy_scene7>workflow-process-service</cq:lastReplicatedBy_scene7>
         <cq:lastReplicated_scene7>2024-02-09T21:49:59.043Z</cq:lastReplicated_scene7>
         <tiff:ImageLength>36</tiff:ImageLength>
         <tiff:ImageWidth>36</tiff:ImageWidth>
      </rdf:Description>
   </rdf:RDF>
</x:xmpmeta>
                                                                                                    
                                                                                                    
                                                                                                    
                                                                                                    
                                                                                                    
                                                                                                    
                                                                                                    
                                                                                                    
                                                                                                    
                                                                                                    
                                 
<?xpacket end="w"?></metadata>
<defs><style>.uuid-ac8bead6-25ef-4774-ae08-c28f7298d0a8{fill:#fff;}</style></defs><path class="uuid-ac8bead6-25ef-4774-ae08-c28f7298d0a8" d="M7.5,22.38h-3c-.35,0-.62,.28-.62,.62v6c0,.34,.28,.62,.62,.62h3c.35,0,.62-.28,.62-.62v-6c0-.34-.28-.62-.62-.62Zm-.62,6h-1.75v-4.75h1.75v4.75Z"/><path class="uuid-ac8bead6-25ef-4774-ae08-c28f7298d0a8" d="M13.5,18.38h-3c-.35,0-.62,.28-.62,.62v10c0,.34,.28,.62,.62,.62h3c.35,0,.62-.28,.62-.62v-10c0-.34-.28-.62-.62-.62Zm-.62,10h-1.75v-8.75h1.75v8.75Z"/><path class="uuid-ac8bead6-25ef-4774-ae08-c28f7298d0a8" d="M19.5,14.38h-3c-.35,0-.62,.28-.62,.62v14c0,.34,.28,.62,.62,.62h3c.35,0,.62-.28,.62-.62V15c0-.34-.28-.62-.62-.62Zm-.62,14h-1.75V15.62h1.75v12.75Z"/><path class="uuid-ac8bead6-25ef-4774-ae08-c28f7298d0a8" d="M25.5,10.38h-3c-.35,0-.62,.28-.62,.62V29c0,.34,.28,.62,.62,.62h3c.35,0,.62-.28,.62-.62V11c0-.34-.28-.62-.62-.62Zm-.62,18h-1.75V11.62h1.75V28.38Z"/><path class="uuid-ac8bead6-25ef-4774-ae08-c28f7298d0a8" d="M31.5,6.38h-3c-.35,0-.62,.28-.62,.62V29c0,.34,.28,.62,.62,.62h3c.35,0,.62-.28,.62-.62V7c0-.34-.28-.62-.62-.62Zm-.62,22h-1.75V7.62h1.75V28.38Z"/></svg>