<?xml version="1.0" encoding="UTF-8"?><svg id="uuid-91302af6-6e2b-45dc-8515-b9790dc95bde" xmlns="http://www.w3.org/2000/svg" viewBox="0 0 38 38"><title>Red Hat Connectivity Link icon</title>
<desc>Application services</desc>
<metadata><?xpacket begin="﻿" id="W5M0MpCehiHzreSzNTczkc9d"?>
<x:xmpmeta xmlns:x="adobe:ns:meta/" x:xmptk="Adobe XMP Core 8.0-c001 1.000000, 0000/00/00-00:00:00        ">
   <rdf:RDF xmlns:rdf="http://www.w3.org/1999/02/22-rdf-syntax-ns#">
      <rdf:Description rdf:about=""
            xmlns:xmp="http://ns.adobe.com/xap/1.0/"
            xmlns:dc="http://purl.org/dc/elements/1.1/"
            xmlns:cq="http://www.day.com/jcr/cq/1.0"
            xmlns:tiff="http://ns.adobe.com/tiff/1.0/"
            xmlns:xmpRights="http://ns.adobe.com/xap/1.0/rights/">
         <xmp:rhcc-effective-on>2024-04-01T15:39:57.239Z</xmp:rhcc-effective-on>
         <xmp:rhcc-metadata-complete-moderator>pending</xmp:rhcc-metadata-complete-moderator>
         <xmp:rhcc-translation-id>TRA80631c6e-029f-42a3-819f-1827377f76c1</xmp:rhcc-translation-id>
         <xmp:brand-content-type>Icon</xmp:brand-content-type>
         <xmp:CreateDate>2024-04-01T15:39:57.239Z</xmp:CreateDate>
         <xmp:rhcc-aspect-ratio>square</xmp:rhcc-aspect-ratio>
         <xmp:rhcc-effective-on-set-on-upload>true</xmp:rhcc-effective-on-set-on-upload>
         <xmp:rhcc-metadata-complete-uploader>pending</xmp:rhcc-metadata-complete-uploader>
         <xmp:rhcc-file-last-modified>2024-07-12T23:52:25.058Z</xmp:rhcc-file-last-modified>
         <xmp:rhcc-audience>rhcc-audience:internal</xmp:rhcc-audience>
         <xmp:rhcc-rights-restricted>no</xmp:rhcc-rights-restricted>
         <xmp:brand-content-subtype>Technology icon</xmp:brand-content-subtype>
         <xmp:rhcc-derivative-id>DER80631c6e-029f-42a3-819f-1827377f76c1</xmp:rhcc-derivative-id>
         <xmp:rhcc-uploaded-by>ryawilli@redhat.com</xmp:rhcc-uploaded-by>
         <xmp:brand-logo-color>Red</xmp:brand-logo-color>
         <xmp:rhcc-notify-portal-subscribers-on-change>yes</xmp:rhcc-notify-portal-subscribers-on-change>
         <dc:format>image/svg+xml</dc:format>
         <dc:modified>2024-04-01T15:54:17.211Z</dc:modified>
         <dc:title>
            <rdf:Alt>
               <rdf:li xml:lang="x-default">Red Hat Connectivity Link icon</rdf:li>
            </rdf:Alt>
         </dc:title>
         <dc:description>
            <rdf:Alt>
               <rdf:li xml:lang="x-default">Application services</rdf:li>
            </rdf:Alt>
         </dc:description>
         <cq:lastReplicationAction_scene7>Activate</cq:lastReplicationAction_scene7>
         <cq:lastReplicationAction_publish>Activate</cq:lastReplicationAction_publish>
         <cq:lastReplicated_publish>2024-10-02T19:52:18.736Z</cq:lastReplicated_publish>
         <cq:lastReplicatedBy>workflow-process-service</cq:lastReplicatedBy>
         <cq:lastReplicationAction>Activate</cq:lastReplicationAction>
         <cq:lastReplicatedBy_publish>workflow-process-service</cq:lastReplicatedBy_publish>
         <cq:isDelivered>false</cq:isDelivered>
         <cq:lastReplicated>2024-10-02T19:52:18.736Z</cq:lastReplicated>
         <cq:lastReplicatedBy_scene7>workflow-process-service</cq:lastReplicatedBy_scene7>
         <cq:lastReplicated_scene7>2024-10-02T19:52:18.736Z</cq:lastReplicated_scene7>
         <tiff:ImageLength>38</tiff:ImageLength>
         <tiff:ImageWidth>38</tiff:ImageWidth>
         <xmpRights:UsageTerms>
            <rdf:Alt>
               <rdf:li xml:lang="x-default">Use technology icons to represent Red Hat products and components. Do not remove the icon from the bounding shape.</rdf:li>
            </rdf:Alt>
         </xmpRights:UsageTerms>
      </rdf:Description>
   </rdf:RDF>
</x:xmpmeta>
                                                                                                    
                                                                                                    
                                                                                                    
                                                                                                    
                                                                                                    
                                                                                                    
                                                                                                    
                                                                                        
<?xpacket end="w"?></metadata>
<defs><style>.uuid-2f34ee29-3140-4c26-8670-4e1412230eab{fill:#e00;stroke-width:0px;}</style></defs><path class="uuid-2f34ee29-3140-4c26-8670-4e1412230eab" d="M28,1H10C5.0294,1,1,5.0294,1,10v18c0,4.9706,4.0294,9,9,9h18c4.9706,0,9-4.0294,9-9V10c0-4.9706-4.0294-9-9-9ZM18.3921,25.625h-6.9282c-.2231,0-.4297-.1191-.5415-.3125l-3.4639-6c-.1113-.1934-.1113-.4316,0-.625l3.4639-6c.1118-.1934.3184-.3125.5415-.3125h4.5361c.3452,0,.625.2798.625.625s-.2798.625-.625.625h-4.1753l-3.103,5.375,3.103,5.375h6.2065l3.2842-5.6875c.1709-.2988.5518-.4028.8535-.229.2988.1729.4014.5552.2285.854l-3.4644,6c-.1113.1934-.3179.3125-.541.3125ZM30.541,19.3125l-3.4639,6c-.1113.1934-.3174.3125-.541.3125h-4.5361c-.3447,0-.625-.2798-.625-.625s.2803-.625.625-.625h4.1748l3.1035-5.375-3.1035-5.375h-6.2061l-3.2837,5.6875c-.1733.2998-.5542.4009-.854.229-.2988-.1729-.4014-.5552-.229-.854l3.4644-6c.1113-.1934.3174-.3125.541-.3125h6.9287c.2236,0,.4297.1191.541.3125l3.4639,6c.1123.1934.1123.4316,0,.625Z"/></svg>