<?xml version="1.0" encoding="UTF-8"?><svg id="uuid-889b120c-b6c0-453e-b878-9c9aaa91d563" xmlns="http://www.w3.org/2000/svg" width="36" height="36" viewBox="0 0 36 36"><title>Monitor (back) icon</title>
<desc>monitor, back, base, electronics, computer, recycle, e-waste, GWS, signage</desc>
<metadata><?xpacket begin="﻿" id="W5M0MpCehiHzreSzNTczkc9d"?>
<x:xmpmeta xmlns:x="adobe:ns:meta/" x:xmptk="Adobe XMP Core 8.0-c001 1.000000, 0000/00/00-00:00:00        ">
   <rdf:RDF xmlns:rdf="http://www.w3.org/1999/02/22-rdf-syntax-ns#">
      <rdf:Description rdf:about=""
            xmlns:xmp="http://ns.adobe.com/xap/1.0/"
            xmlns:tiff="http://ns.adobe.com/tiff/1.0/"
            xmlns:dc="http://purl.org/dc/elements/1.1/">
         <xmp:brand-content-subtype>Icon</xmp:brand-content-subtype>
         <xmp:rhcc-rights-restricted>no</xmp:rhcc-rights-restricted>
         <xmp:brand-content-type>Icon</xmp:brand-content-type>
         <xmp:rhcc-file-last-modified>2025-09-09T20:29:59.590Z</xmp:rhcc-file-last-modified>
         <xmp:brand-colorway>
            <rdf:Bag>
               <rdf:li>colorway:white</rdf:li>
            </rdf:Bag>
         </xmp:brand-colorway>
         <tiff:ImageWidth>36</tiff:ImageWidth>
         <tiff:ImageLength>36</tiff:ImageLength>
         <dc:modified>2025-09-09T20:33:41.636Z</dc:modified>
         <dc:format>image/svg+xml</dc:format>
         <dc:description>
            <rdf:Alt>
               <rdf:li xml:lang="x-default">monitor, back, base, electronics, computer, recycle, e-waste, GWS, signage</rdf:li>
            </rdf:Alt>
         </dc:description>
         <dc:title>
            <rdf:Alt>
               <rdf:li xml:lang="x-default">Monitor (back) icon</rdf:li>
            </rdf:Alt>
         </dc:title>
      </rdf:Description>
   </rdf:RDF>
</x:xmpmeta>
                                                                                                    
                                                                                                    
                                                                                                    
                                                                                                    
                                                                                                    
                                                                                                    
                                                                                                    
                                                                                                    
                                                                                                    
                                                                                                    
                                                                                                    
                                                                                                    
                                                                                                    
                                                                                                    
                                                                                                    
                                                                  
<?xpacket end="w"?></metadata>
<defs><style>.uuid-9a019a98-008d-4e2f-89e3-949ef3077e68{fill:#fff;}</style></defs><path class="uuid-9a019a98-008d-4e2f-89e3-949ef3077e68" d="M8,14.625c.34521,0,.625-.28027.625-.625v-3.375h19.375c.8093-.00199.82339-1.24632-.00005-1.25.00005,0-19.99995,0-19.99995,0-.34521,0-.625.28027-.625.625v4c0,.34473.27979.625.625.625Z"/><path class="uuid-9a019a98-008d-4e2f-89e3-949ef3077e68" d="M31,6.375H5c-.34521,0-.625.27979-.625.625v17c0,.34473.27979.625.625.625h10.375v3.75h-6.375c-.81128.00275-.82193,1.24607.00005,1.25-.00005,0,17.99995,0,17.99995,0,.81131-.00286.82193-1.24601-.00005-1.25.00005,0-6.37495,0-6.37495,0v-3.75h10.375c.34521,0,.625-.28027.625-.625V7c0-.34521-.27979-.625-.625-.625ZM16.625,28.375v-12.75h2.75v12.75h-2.75ZM30.375,23.375h-9.75v-8.375c0-.34473-.27979-.625-.625-.625h-4c-.34521,0-.625.28027-.625.625v8.375H5.625V7.625h24.75v15.75Z"/></svg>