<?xml version="1.0" encoding="UTF-8"?><svg id="uuid-53e65812-65bb-41a7-981f-6fd7b66f8e5b" xmlns="http://www.w3.org/2000/svg" width="36" height="36" viewBox="0 0 36 36"><title>Pizza box icon</title>
<desc>pizza, box, take out, carry out, packaging, compost, waste, GWS, signage</desc>
<metadata><?xpacket begin="﻿" id="W5M0MpCehiHzreSzNTczkc9d"?>
<x:xmpmeta xmlns:x="adobe:ns:meta/" x:xmptk="Adobe XMP Core 8.0-c001 1.000000, 0000/00/00-00:00:00        ">
   <rdf:RDF xmlns:rdf="http://www.w3.org/1999/02/22-rdf-syntax-ns#">
      <rdf:Description rdf:about=""
            xmlns:dc="http://purl.org/dc/elements/1.1/"
            xmlns:tiff="http://ns.adobe.com/tiff/1.0/"
            xmlns:xmp="http://ns.adobe.com/xap/1.0/">
         <dc:modified>2025-09-09T20:31:37.873Z</dc:modified>
         <dc:format>image/svg+xml</dc:format>
         <dc:description>
            <rdf:Alt>
               <rdf:li xml:lang="x-default">pizza, box, take out, carry out, packaging, compost, waste, GWS, signage</rdf:li>
            </rdf:Alt>
         </dc:description>
         <dc:title>
            <rdf:Alt>
               <rdf:li xml:lang="x-default">Pizza box icon</rdf:li>
            </rdf:Alt>
         </dc:title>
         <tiff:ImageLength>36</tiff:ImageLength>
         <tiff:ImageWidth>36</tiff:ImageWidth>
         <xmp:rhcc-rights-restricted>no</xmp:rhcc-rights-restricted>
         <xmp:brand-content-subtype>Icon</xmp:brand-content-subtype>
         <xmp:rhcc-file-last-modified>2025-09-09T20:28:56.614Z</xmp:rhcc-file-last-modified>
         <xmp:brand-content-type>Icon</xmp:brand-content-type>
         <xmp:brand-colorway>
            <rdf:Bag>
               <rdf:li>colorway:black</rdf:li>
            </rdf:Bag>
         </xmp:brand-colorway>
      </rdf:Description>
   </rdf:RDF>
</x:xmpmeta>
                                                                                                    
                                                                                                    
                                                                                                    
                                                                                                    
                                                                                                    
                                                                                                    
                                                                                                    
                                                                                                    
                                                                                                    
                                                                                                    
                                                                                                    
                                                                                                    
                                                                                                    
                                                                                                    
                                                                                                    
                                                                                                    
                                                                                                    
                                                                                                    
                                                                              
<?xpacket end="w"?></metadata>
<path d="M31,4.375H5c-.34521,0-.625.27979-.625.625v20c-.00354.16742.07697.31915.18317.44238-.00006,0,5.99994,6,5.99994,6,.11719.11719.27637.18262.44189.18262h14c.16553,0,.32471-.06543.44189-.18262l6-6c.04492-.06659.10474-.12494.13464-.20264.03571-.08258.06238-.17535.04846-.26276V5c0-.34521-.27979-.625-.625-.625ZM30.375,24.74072l-5.63379,5.63428h-13.48242l-5.63379-5.63428V5.625h24.75v19.11572Z"/><path d="M11.00006,10.625c-.00006,0,13.99994,0,13.99994,0,.81274-.00305.8208-1.24609,0-1.25h-14c-.81274.00305-.8208,1.24603.00006,1.25Z"/><path d="M15.41992,15.24023c.32629.75543,1.46808.27673,1.15967-.48053-.34015-.73895-1.44623-.29639-1.15967.48053Z"/><path d="M18.43994,18.55951c-.56287-.58179-1.47021.30762-.87988.87994.56635.59387,1.4718-.31439.87988-.87994Z"/><path d="M20.43994,14.55951c-.56628-.58618-1.45996.30493-.87988.87994.57306.59216,1.45807-.31525.87988-.87994Z"/><path d="M24,11.375h-12c-.20996,0-.40625.10547-.52197.28125-.11523.1748-.13525.39648-.05273.58984l6,14c.19409.49426.95538.4986,1.14941-.00006,0,.00006,6-13.99994,6-13.99994.18152-.39453-.13928-.88416-.57471-.87109ZM18,24.41309l-5.05225-11.78809h10.10449l-5.05225,11.78809Z"/></svg>