<?xml version="1.0" encoding="UTF-8"?><svg id="uuid-468022e0-64b4-475c-8eb5-fcd74b66f475" xmlns="http://www.w3.org/2000/svg" width="36" height="36" viewBox="0 0 36 36"><defs><style>.uuid-bcee6d10-21d0-498d-aaaa-1c3ac14d1906{fill:#e00;}</style></defs><path class="uuid-bcee6d10-21d0-498d-aaaa-1c3ac14d1906" d="M18,3.375c-8.06445,0-14.625,6.56055-14.625,14.625s6.56055,14.625,14.625,14.625,14.625-6.56055,14.625-14.625S26.06445,3.375,18,3.375ZM31.27618,16.44073c-.42352-.03918-.84943-.06573-1.27618-.06573-3.53168,0-6.74329,1.36218-9.1665,3.57416l-1.94916-1.94922,8.98987-8.98987c1.83624,2.01508,3.0694,4.58392,3.40198,7.43066ZM19.94922,20.83344c-2.21204,2.42322-3.57422,5.63489-3.57422,9.16656,0,.42584.02649.85187.06592,1.27618-2.8468-.33252-5.41571-1.56567-7.43085-3.40198l8.98999-8.98999,1.94916,1.94922ZM18.00006,17.11566l-1.94922-1.94916c2.21198-2.42322,3.57416-5.63483,3.57416-9.1665,0-.42596-.02655-.85199-.06598-1.27625,2.84692.33252,5.41577,1.56573,7.43091,3.40204l-8.98987,8.98987ZM18.29205,4.63977c.04932.45123.08295.90558.08295,1.36023,0,3.18701-1.22144,6.08704-3.20758,8.28308l-6.15729-6.15729c2.37781-2.16681,5.52704-3.50079,8.98987-3.50079.09857,0,.19397.01263.29205.01477ZM8.12585,9.01007l6.15729,6.15729c-2.19598,1.98615-5.09601,3.20764-8.28314,3.20764-.45569,0-.90985-.03345-1.36017-.08264-.00214-.09814-.01483-.19366-.01483-.29236,0-3.46283,1.33405-6.61212,3.50085-8.98993ZM4.72388,19.55927c.42352.03918.84937.06573,1.27612.06573,3.53168,0,6.74335-1.36218,9.16656-3.57422l1.94922,1.94916-8.98999,8.98999c-1.83624-2.01508-3.06934-4.58392-3.40192-7.43066ZM17.70795,31.36017c-.04932-.45123-.08295-.90552-.08295-1.36017,0-3.18701,1.22144-6.0871,3.20764-8.28314l6.15729,6.15729c-2.37781,2.16681-5.5271,3.50085-8.98993,3.50085-.09857,0-.19397-.0127-.29205-.01483ZM27.87421,26.98987l-6.15729-6.15729c2.19598-1.98608,5.09595-3.20758,8.28308-3.20758.45569,0,.90985.03345,1.36017.08264.00214.09814.01483.19366.01483.29236,0,3.46283-1.33398,6.61206-3.50079,8.98987Z"/></svg>