<?xml version="1.0" encoding="UTF-8"?><svg id="uuid-f892cc06-da39-456c-8c56-2f5fd2bf5c68" xmlns="http://www.w3.org/2000/svg" viewBox="0 0 38 38"><title>Automation execution environment icon</title>
<desc>Management, Ansible</desc>
<metadata><?xpacket begin="﻿" id="W5M0MpCehiHzreSzNTczkc9d"?>
<x:xmpmeta xmlns:x="adobe:ns:meta/" x:xmptk="Adobe XMP Core 8.0-c001 1.000000, 0000/00/00-00:00:00        ">
   <rdf:RDF xmlns:rdf="http://www.w3.org/1999/02/22-rdf-syntax-ns#">
      <rdf:Description rdf:about=""
            xmlns:xmp="http://ns.adobe.com/xap/1.0/"
            xmlns:dc="http://purl.org/dc/elements/1.1/"
            xmlns:cq="http://www.day.com/jcr/cq/1.0"
            xmlns:tiff="http://ns.adobe.com/tiff/1.0/"
            xmlns:xmpRights="http://ns.adobe.com/xap/1.0/rights/">
         <xmp:rhcc-effective-on>2024-03-01T15:25:55.896Z</xmp:rhcc-effective-on>
         <xmp:rhcc-metadata-complete-moderator>pending</xmp:rhcc-metadata-complete-moderator>
         <xmp:rhcc-translation-id>TRA9e294ffc-4aac-4df9-ac2f-5513c77c20e2</xmp:rhcc-translation-id>
         <xmp:brand-content-type>Icon</xmp:brand-content-type>
         <xmp:CreateDate>2024-03-01T15:25:55.896Z</xmp:CreateDate>
         <xmp:rhcc-aspect-ratio>square</xmp:rhcc-aspect-ratio>
         <xmp:rhcc-effective-on-set-on-upload>true</xmp:rhcc-effective-on-set-on-upload>
         <xmp:rhcc-published-asset-email-sent>true</xmp:rhcc-published-asset-email-sent>
         <xmp:rhcc-metadata-complete-uploader>pending</xmp:rhcc-metadata-complete-uploader>
         <xmp:rhcc-file-last-modified>2024-07-13T00:09:41.454Z</xmp:rhcc-file-last-modified>
         <xmp:rhcc-audience>rhcc-audience:internal</xmp:rhcc-audience>
         <xmp:rhcc-rights-restricted>no</xmp:rhcc-rights-restricted>
         <xmp:brand-content-subtype>Technology icon</xmp:brand-content-subtype>
         <xmp:rhcc-derivative-id>DER9e294ffc-4aac-4df9-ac2f-5513c77c20e2</xmp:rhcc-derivative-id>
         <xmp:rhcc-uploaded-by>pmeilleu@redhat.com</xmp:rhcc-uploaded-by>
         <xmp:brand-logo-color>Black</xmp:brand-logo-color>
         <xmp:rhcc-notify-portal-subscribers-on-change>yes</xmp:rhcc-notify-portal-subscribers-on-change>
         <xmp:rhcc-product>
            <rdf:Bag>
               <rdf:li>rhcc-product:red-hat-ansible-automation-platform</rdf:li>
            </rdf:Bag>
         </xmp:rhcc-product>
         <xmp:brand-subtype>
            <rdf:Bag>
               <rdf:li>Technology icon</rdf:li>
            </rdf:Bag>
         </xmp:brand-subtype>
         <dc:format>image/svg+xml</dc:format>
         <dc:modified>2024-05-10T12:32:21.628Z</dc:modified>
         <dc:title>
            <rdf:Alt>
               <rdf:li xml:lang="x-default">Automation execution environment icon</rdf:li>
            </rdf:Alt>
         </dc:title>
         <dc:description>
            <rdf:Alt>
               <rdf:li xml:lang="x-default">Management, Ansible</rdf:li>
            </rdf:Alt>
         </dc:description>
         <cq:lastReplicationAction_scene7>Activate</cq:lastReplicationAction_scene7>
         <cq:lastReplicationAction_publish>Activate</cq:lastReplicationAction_publish>
         <cq:lastReplicated_publish>2024-10-02T19:50:43.557Z</cq:lastReplicated_publish>
         <cq:lastReplicatedBy>workflow-process-service</cq:lastReplicatedBy>
         <cq:lastReplicationAction>Activate</cq:lastReplicationAction>
         <cq:lastReplicatedBy_publish>workflow-process-service</cq:lastReplicatedBy_publish>
         <cq:isDelivered>false</cq:isDelivered>
         <cq:lastReplicated>2024-10-02T19:50:43.557Z</cq:lastReplicated>
         <cq:lastReplicatedBy_scene7>workflow-process-service</cq:lastReplicatedBy_scene7>
         <cq:lastReplicated_scene7>2024-10-02T19:50:43.557Z</cq:lastReplicated_scene7>
         <tiff:ImageLength>38</tiff:ImageLength>
         <tiff:ImageWidth>38</tiff:ImageWidth>
         <xmpRights:UsageTerms>
            <rdf:Alt>
               <rdf:li xml:lang="x-default">Use technology icons to represent Red Hat products and components. Do not remove the icon from the bounding shape.</rdf:li>
            </rdf:Alt>
         </xmpRights:UsageTerms>
      </rdf:Description>
   </rdf:RDF>
</x:xmpmeta>
                                                                                                    
                                                                                                    
                                                                                                    
                                                                                                    
                                                                                                    
                                                                                                    
                                                                                                    
                                                                                                    
                                                                                                    
                                                                                                    
                                                                                                    
                                                                                                    
                                                                                                    
                                                                                                    
                                                                                                    
                                                                                                    
                                                      
<?xpacket end="w"?></metadata>
<path d="m28,.89948H10C5.02942.89948,1,4.92889,1,9.89948v18c0,4.97058,4.02942,9,9,9h18c4.97058,0,9-4.02942,9-9V9.89948c0-4.97058-4.02942-9-9-9Zm7.75,27c0,4.27338-3.47668,7.75-7.75,7.75H10c-4.27332,0-7.75-3.47662-7.75-7.75V9.89948c0-4.27332,3.47668-7.75,7.75-7.75h18c4.27332,0,7.75,3.47668,7.75,7.75v18Z"/><path d="m26,12.27441h-4.375c-.34473,0-.625.28027-.625.625s.28027.625.625.625h3.75v12.75h-12.75v-12.75h3.75c.34473,0,.625-.28027.625-.625s-.28027-.625-.625-.625h-4.375c-.34473,0-.625.28027-.625.625v14c0,.34473.28027.625.625.625h14c.34473,0,.625-.28027.625-.625v-14c0-.34473-.28027-.625-.625-.625Z"/><path d="m19,14.52441c.34473,0,.625-.28027.625-.625v-5c0-.34473-.28027-.625-.625-.625s-.625.28027-.625.625v5c0,.34473.28027.625.625.625Z"/><path d="m18.4082,22.64355c.04395.00977.08789.01367.13086.01367.28809,0,.54785-.20117.61035-.49512l.90625-4.26562c.07129-.33789-.14355-.66992-.48145-.74121-.33887-.07422-.66895.14355-.74121.48145l-.90625,4.26562c-.07129.33789.14355.66992.48145.74121Z"/><path d="m21.06348,22.20605c.12207.12207.28223.18262.44238.18262s.32031-.06055.44238-.18262l1.86914-1.86914c.24316-.24414.24316-.64062,0-.88477l-1.86914-1.86914c-.24414-.24414-.64062-.24414-.88477,0-.24316.24414-.24316.64062,0,.88477l1.42773,1.42676-1.42773,1.42676c-.24316.24414-.24316.64062,0,.88477Z"/><path d="m16.93652,17.58301c-.24414-.24414-.64062-.24414-.88477,0l-1.86914,1.86914c-.24316.24414-.24316.64062,0,.88477l1.86914,1.86914c.12207.12207.28223.18262.44238.18262s.32031-.06055.44238-.18262c.24316-.24414.24316-.64062,0-.88477l-1.42773-1.42676,1.42773-1.42676c.24316-.24414.24316-.64062,0-.88477Z"/></svg>