<?xml version="1.0" encoding="UTF-8"?><svg id="uuid-d5c4b123-037d-4d58-a833-5a041ae4795c" xmlns="http://www.w3.org/2000/svg" viewBox="0 0 38 38"><title>Red Hat JBoss Enterprise Application Platform icon</title>
<desc>EAP, Application services</desc>
<metadata><?xpacket begin="﻿" id="W5M0MpCehiHzreSzNTczkc9d"?>
<x:xmpmeta xmlns:x="adobe:ns:meta/" x:xmptk="Adobe XMP Core 8.0-c001 1.000000, 0000/00/00-00:00:00        ">
   <rdf:RDF xmlns:rdf="http://www.w3.org/1999/02/22-rdf-syntax-ns#">
      <rdf:Description rdf:about=""
            xmlns:xmp="http://ns.adobe.com/xap/1.0/"
            xmlns:dc="http://purl.org/dc/elements/1.1/"
            xmlns:cq="http://www.day.com/jcr/cq/1.0"
            xmlns:tiff="http://ns.adobe.com/tiff/1.0/"
            xmlns:xmpRights="http://ns.adobe.com/xap/1.0/rights/">
         <xmp:rhcc-effective-on>2024-03-01T15:26:48.729Z</xmp:rhcc-effective-on>
         <xmp:rhcc-metadata-complete-moderator>pending</xmp:rhcc-metadata-complete-moderator>
         <xmp:rhcc-translation-id>TRA0e95730e-df75-4347-99fe-98cc2424b84b</xmp:rhcc-translation-id>
         <xmp:brand-content-type>Icon</xmp:brand-content-type>
         <xmp:CreateDate>2024-03-01T15:26:48.729Z</xmp:CreateDate>
         <xmp:rhcc-aspect-ratio>square</xmp:rhcc-aspect-ratio>
         <xmp:rhcc-effective-on-set-on-upload>true</xmp:rhcc-effective-on-set-on-upload>
         <xmp:rhcc-metadata-complete-uploader>pending</xmp:rhcc-metadata-complete-uploader>
         <xmp:rhcc-file-last-modified>2024-07-12T23:53:38.968Z</xmp:rhcc-file-last-modified>
         <xmp:rhcc-audience>rhcc-audience:internal</xmp:rhcc-audience>
         <xmp:rhcc-rights-restricted>no</xmp:rhcc-rights-restricted>
         <xmp:brand-content-subtype>Technology icon</xmp:brand-content-subtype>
         <xmp:rhcc-derivative-id>DER0e95730e-df75-4347-99fe-98cc2424b84b</xmp:rhcc-derivative-id>
         <xmp:rhcc-uploaded-by>pmeilleu@redhat.com</xmp:rhcc-uploaded-by>
         <xmp:brand-logo-color>Black</xmp:brand-logo-color>
         <xmp:rhcc-notify-portal-subscribers-on-change>yes</xmp:rhcc-notify-portal-subscribers-on-change>
         <xmp:rhcc-product>
            <rdf:Bag>
               <rdf:li>rhcc-product:red-hat-jboss-enterprise-application-platform</rdf:li>
            </rdf:Bag>
         </xmp:rhcc-product>
         <xmp:brand-subtype>
            <rdf:Bag>
               <rdf:li>Technology icon</rdf:li>
            </rdf:Bag>
         </xmp:brand-subtype>
         <dc:format>image/svg+xml</dc:format>
         <dc:modified>2024-05-10T14:16:07.730Z</dc:modified>
         <dc:title>
            <rdf:Alt>
               <rdf:li xml:lang="x-default">Red Hat JBoss Enterprise Application Platform icon</rdf:li>
            </rdf:Alt>
         </dc:title>
         <dc:description>
            <rdf:Alt>
               <rdf:li xml:lang="x-default">EAP, Application services</rdf:li>
            </rdf:Alt>
         </dc:description>
         <cq:lastReplicationAction_scene7>Activate</cq:lastReplicationAction_scene7>
         <cq:lastReplicationAction_publish>Activate</cq:lastReplicationAction_publish>
         <cq:lastReplicated_publish>2024-10-02T19:52:51.524Z</cq:lastReplicated_publish>
         <cq:lastReplicatedBy>workflow-process-service</cq:lastReplicatedBy>
         <cq:lastReplicationAction>Activate</cq:lastReplicationAction>
         <cq:lastReplicatedBy_publish>workflow-process-service</cq:lastReplicatedBy_publish>
         <cq:isDelivered>false</cq:isDelivered>
         <cq:lastReplicated>2024-10-02T19:52:51.524Z</cq:lastReplicated>
         <cq:lastReplicatedBy_scene7>workflow-process-service</cq:lastReplicatedBy_scene7>
         <cq:lastReplicated_scene7>2024-10-02T19:52:51.524Z</cq:lastReplicated_scene7>
         <tiff:ImageLength>38</tiff:ImageLength>
         <tiff:ImageWidth>38</tiff:ImageWidth>
         <xmpRights:UsageTerms>
            <rdf:Alt>
               <rdf:li xml:lang="x-default">Use technology icons to represent Red Hat products and components. Do not remove the icon from the bounding shape.</rdf:li>
            </rdf:Alt>
         </xmpRights:UsageTerms>
      </rdf:Description>
   </rdf:RDF>
</x:xmpmeta>
                                                                                                    
                                                                                                    
                                                                                                    
                                                                                                    
                                                                                                    
                                                                                                    
                                                                                                    
                                                                                                    
                                                                                                    
                                                                                                    
                                                                                                    
                                                                                                    
                                                                                                    
                                                                                                    
                                                                                                    
                                                                                                    
                                                                                                    
                                          
<?xpacket end="w"?></metadata>
<path d="m28,1H10C5.02942,1,1,5.02942,1,10v18c0,4.97052,4.02942,9,9,9h18c4.97058,0,9-4.02948,9-9V10c0-4.97058-4.02942-9-9-9Zm-10.55762,24.44238l-2,2c-.0249.0249-.05664.03613-.08435.05591-.03845.02771-.07373.05963-.11798.07812-.07678.03174-.1582.04858-.24005.04858s-.16327-.01685-.24005-.04858c-.04425-.01849-.07953-.05042-.11798-.07812-.02771-.01978-.05945-.03101-.08435-.05591l-2-2c-.24316-.24414-.24316-.64062,0-.88477.24414-.24414.64062-.24414.88477,0l.93262.93323v-7.86584h-4.75v2.75h3.375c.34473,0,.625.28027.625.625s-.28027.625-.625.625h-4c-.34473,0-.625-.28027-.625-.625v-4c0-.34473.28027-.625.625-.625h5.375v-4.375c0-.34473.28027-.625.625-.625s.625.28027.625.625v4.375h5.375c.34473,0,.625.28027.625.625s-.28027.625-.625.625h-5.375v7.86584l.93262-.93323c.24414-.24414.64062-.24414.88477,0,.24316.24414.24316.64062,0,.88477Zm12.18262-4.44238c0,.34473-.28027.625-.625.625h-5.375v4.375c0,.34473-.28027.625-.625.625s-.625-.28027-.625-.625v-4.375h-5.375c-.34473,0-.625-.28027-.625-.625s.28027-.625.625-.625h5.375v-7.86584l-.93262.93323c-.24414.24414-.64062.24414-.88477,0-.24316-.24414-.24316-.64062,0-.88477l2-2c.02759-.02759.06244-.04065.09344-.06201.03577-.0249.06769-.05487.10834-.0719.15381-.06403.32739-.06403.4812,0,.04065.01703.07257.047.10834.0719.03101.02136.06586.03442.09344.06201l2,2c.24316.24414.24316.64062,0,.88477-.12207.12207-.28223.18262-.44238.18262s-.32031-.06055-.44238-.18262l-.93262-.93323v7.86584h4.75v-2.75h-3.375c-.34473,0-.625-.28027-.625-.625s.28027-.625.625-.625h4c.34473,0,.625.28027.625.625v4Z"/></svg>