<svg xmlns="http://www.w3.org/2000/svg" viewBox="0 0 32 32">
  <title>YouTube sharing icon (square) - White</title>
<metadata><?xpacket begin="﻿" id="W5M0MpCehiHzreSzNTczkc9d"?>
<x:xmpmeta xmlns:x="adobe:ns:meta/" x:xmptk="Adobe XMP Core 8.0-c001 1.000000, 0000/00/00-00:00:00        ">
   <rdf:RDF xmlns:rdf="http://www.w3.org/1999/02/22-rdf-syntax-ns#">
      <rdf:Description rdf:about=""
            xmlns:xmp="http://ns.adobe.com/xap/1.0/"
            xmlns:dc="http://purl.org/dc/elements/1.1/"
            xmlns:cq="http://www.day.com/jcr/cq/1.0"
            xmlns:tiff="http://ns.adobe.com/tiff/1.0/">
         <xmp:rhcc-effective-on>2023-12-07T22:16:35.658Z</xmp:rhcc-effective-on>
         <xmp:rhcc-metadata-complete-moderator>pending</xmp:rhcc-metadata-complete-moderator>
         <xmp:rhcc-translation-id>TRA0c5dd2fc-e830-4fbd-af42-6cde992c1ae5</xmp:rhcc-translation-id>
         <xmp:brand-content-type>Icon</xmp:brand-content-type>
         <xmp:CreateDate>2023-12-07T22:16:35.658Z</xmp:CreateDate>
         <xmp:rhcc-aspect-ratio>square</xmp:rhcc-aspect-ratio>
         <xmp:rhcc-effective-on-set-on-upload>true</xmp:rhcc-effective-on-set-on-upload>
         <xmp:rhcc-metadata-complete-uploader>pending</xmp:rhcc-metadata-complete-uploader>
         <xmp:rhcc-file-last-modified>2024-07-12T23:34:25.368Z</xmp:rhcc-file-last-modified>
         <xmp:rhcc-audience>rhcc-audience:internal</xmp:rhcc-audience>
         <xmp:rhcc-rights-restricted>no</xmp:rhcc-rights-restricted>
         <xmp:brand-content-subtype>Social sharing</xmp:brand-content-subtype>
         <xmp:rhcc-derivative-id>DER0c5dd2fc-e830-4fbd-af42-6cde992c1ae5</xmp:rhcc-derivative-id>
         <xmp:rhcc-uploaded-by>pmeilleu@redhat.com</xmp:rhcc-uploaded-by>
         <xmp:brand-logo-color>White</xmp:brand-logo-color>
         <xmp:rhcc-notify-portal-subscribers-on-change>yes</xmp:rhcc-notify-portal-subscribers-on-change>
         <dc:format>image/svg+xml</dc:format>
         <dc:modified>2024-02-09T20:39:01.671Z</dc:modified>
         <dc:title>
            <rdf:Alt>
               <rdf:li xml:lang="x-default">YouTube sharing icon (square) - White</rdf:li>
            </rdf:Alt>
         </dc:title>
         <cq:lastReplicationAction_scene7>Activate</cq:lastReplicationAction_scene7>
         <cq:lastReplicationAction_publish>Activate</cq:lastReplicationAction_publish>
         <cq:lastReplicated_publish>2024-10-02T19:50:02.083Z</cq:lastReplicated_publish>
         <cq:lastReplicatedBy>workflow-process-service</cq:lastReplicatedBy>
         <cq:lastReplicationAction>Activate</cq:lastReplicationAction>
         <cq:lastReplicatedBy_publish>workflow-process-service</cq:lastReplicatedBy_publish>
         <cq:isDelivered>false</cq:isDelivered>
         <cq:lastReplicated>2024-10-02T19:50:02.083Z</cq:lastReplicated>
         <cq:lastReplicatedBy_scene7>workflow-process-service</cq:lastReplicatedBy_scene7>
         <cq:lastReplicated_scene7>2024-10-02T19:50:02.083Z</cq:lastReplicated_scene7>
         <tiff:ImageLength>32</tiff:ImageLength>
         <tiff:ImageWidth>32</tiff:ImageWidth>
      </rdf:Description>
   </rdf:RDF>
</x:xmpmeta>
                                                                                                    
                                                                                                    
                                                                                                    
                                                                                                    
                                                                                                    
                                                                                                    
                                                                                                    
                                                                                                    
                                                                                                 
<?xpacket end="w"?></metadata>
<defs>
    <style>
      .b2a235ca-0933-44fb-b524-c7da6cfbe835 {
        fill: #fff;
      }
    </style>
  </defs>
  <g id="f01dc648-dd6c-471b-beca-d6fad227b179" data-name="YouTube">
    <g>
      <path class="b2a235ca-0933-44fb-b524-c7da6cfbe835" d="M30.81,0H1.19A1.19,1.19,0,0,0,0,1.19V30.81A1.19,1.19,0,0,0,1.19,32H30.81A1.19,1.19,0,0,0,32,30.81V1.19A1.19,1.19,0,0,0,30.81,0ZM26.18,16.77a31.12,31.12,0,0,1-.2,3.29,4.44,4.44,0,0,1-.81,2,2.93,2.93,0,0,1-2,.86c-2.85.2-7.13.21-7.13.21s-5.29-.05-6.92-.2a3.49,3.49,0,0,1-2.25-.87,4.44,4.44,0,0,1-.81-2,31.12,31.12,0,0,1-.2-3.29V15.22A31.37,31.37,0,0,1,6,11.93a4.42,4.42,0,0,1,.81-2,2.88,2.88,0,0,1,2-.86C11.72,8.84,16,8.84,16,8.84h0s4.28,0,7.13.21a2.88,2.88,0,0,1,2,.86,4.42,4.42,0,0,1,.81,2,31.37,31.37,0,0,1,.2,3.29Z"/>
      <polygon class="b2a235ca-0933-44fb-b524-c7da6cfbe835" points="13.9 18.64 19.4 15.79 13.9 12.92 13.9 18.64"/>
    </g>
  </g>
</svg>
