<svg id="ef043d7a-c040-4741-8637-e600c6cb866a" data-name="WeChat" xmlns="http://www.w3.org/2000/svg" viewBox="0 0 30 30">
  <title>WeChat sharing icon - White</title>
<metadata><?xpacket begin="﻿" id="W5M0MpCehiHzreSzNTczkc9d"?>
<x:xmpmeta xmlns:x="adobe:ns:meta/" x:xmptk="Adobe XMP Core 8.0-c001 1.000000, 0000/00/00-00:00:00        ">
   <rdf:RDF xmlns:rdf="http://www.w3.org/1999/02/22-rdf-syntax-ns#">
      <rdf:Description rdf:about=""
            xmlns:xmp="http://ns.adobe.com/xap/1.0/"
            xmlns:dc="http://purl.org/dc/elements/1.1/"
            xmlns:cq="http://www.day.com/jcr/cq/1.0"
            xmlns:tiff="http://ns.adobe.com/tiff/1.0/">
         <xmp:rhcc-effective-on>2023-12-07T22:16:36.890Z</xmp:rhcc-effective-on>
         <xmp:rhcc-metadata-complete-moderator>pending</xmp:rhcc-metadata-complete-moderator>
         <xmp:rhcc-translation-id>TRAc197b4bc-2606-463f-8eb6-80dc70d48308</xmp:rhcc-translation-id>
         <xmp:brand-content-type>Icon</xmp:brand-content-type>
         <xmp:CreateDate>2023-12-07T22:16:36.890Z</xmp:CreateDate>
         <xmp:rhcc-aspect-ratio>square</xmp:rhcc-aspect-ratio>
         <xmp:rhcc-effective-on-set-on-upload>true</xmp:rhcc-effective-on-set-on-upload>
         <xmp:rhcc-published-asset-email-sent>true</xmp:rhcc-published-asset-email-sent>
         <xmp:rhcc-metadata-complete-uploader>pending</xmp:rhcc-metadata-complete-uploader>
         <xmp:rhcc-file-last-modified>2024-07-12T23:41:18.518Z</xmp:rhcc-file-last-modified>
         <xmp:rhcc-audience>rhcc-audience:internal</xmp:rhcc-audience>
         <xmp:rhcc-rights-restricted>no</xmp:rhcc-rights-restricted>
         <xmp:brand-content-subtype>Social sharing</xmp:brand-content-subtype>
         <xmp:rhcc-derivative-id>DERc197b4bc-2606-463f-8eb6-80dc70d48308</xmp:rhcc-derivative-id>
         <xmp:rhcc-uploaded-by>pmeilleu@redhat.com</xmp:rhcc-uploaded-by>
         <xmp:brand-logo-color>White</xmp:brand-logo-color>
         <xmp:rhcc-notify-portal-subscribers-on-change>yes</xmp:rhcc-notify-portal-subscribers-on-change>
         <dc:format>image/svg+xml</dc:format>
         <dc:modified>2024-02-09T20:38:38.716Z</dc:modified>
         <dc:title>
            <rdf:Alt>
               <rdf:li xml:lang="x-default">WeChat sharing icon - White</rdf:li>
            </rdf:Alt>
         </dc:title>
         <cq:lastReplicationAction_scene7>Activate</cq:lastReplicationAction_scene7>
         <cq:lastReplicationAction_publish>Activate</cq:lastReplicationAction_publish>
         <cq:lastReplicated_publish>2024-10-02T19:49:40.870Z</cq:lastReplicated_publish>
         <cq:lastReplicatedBy>workflow-process-service</cq:lastReplicatedBy>
         <cq:lastReplicationAction>Activate</cq:lastReplicationAction>
         <cq:lastReplicatedBy_publish>workflow-process-service</cq:lastReplicatedBy_publish>
         <cq:isDelivered>false</cq:isDelivered>
         <cq:lastReplicated>2024-10-02T19:49:40.870Z</cq:lastReplicated>
         <cq:lastReplicatedBy_scene7>workflow-process-service</cq:lastReplicatedBy_scene7>
         <cq:lastReplicated_scene7>2024-10-02T19:49:40.870Z</cq:lastReplicated_scene7>
         <tiff:ImageLength>30</tiff:ImageLength>
         <tiff:ImageWidth>30</tiff:ImageWidth>
      </rdf:Description>
   </rdf:RDF>
</x:xmpmeta>
                                                                                                    
                                                                                                    
                                                                                                    
                                                                                                    
                                                                                                    
                                                                                                    
                                                                                                    
                                                                                                    
        
<?xpacket end="w"?></metadata>
<defs>
    <style>
      .b674075e-f1f1-48ec-9f2c-b650488c9113 {
        fill: none;
      }

      .f3dcc0de-ea64-4d60-b6a6-b86a8a4decb4 {
        fill: #fff;
      }
    </style>
  </defs>
  <rect class="b674075e-f1f1-48ec-9f2c-b650488c9113" width="30" height="30"/>
  <g>
    <path class="f3dcc0de-ea64-4d60-b6a6-b86a8a4decb4" d="M11.7,20.51c-.49,0-1,0-1.46,0a11,11,0,0,1-2.48-.45.82.82,0,0,0-.7.09L5,21.39l-.22.1c-.3.1-.49-.06-.45-.37a5.63,5.63,0,0,1,.14-.59l.35-1.28a.62.62,0,0,0-.28-.79,8.34,8.34,0,0,1-3-3.76,7,7,0,0,1,.6-6.38,9.23,9.23,0,0,1,4.64-3.8,11.75,11.75,0,0,1,6.45-.67,10.69,10.69,0,0,1,5.1,2.27,8,8,0,0,1,2.79,4.25c0,.14.06.27.09.42h-.9A10.07,10.07,0,0,0,14,13.09a7.06,7.06,0,0,0-2.55,4.26,6.31,6.31,0,0,0,.17,3ZM7.78,8.06a1.35,1.35,0,0,0,0,2.69A1.37,1.37,0,0,0,9.11,9.44,1.34,1.34,0,0,0,7.78,8.06Zm8.1,1.34a1.35,1.35,0,1,0-2.69,0,1.35,1.35,0,1,0,2.69,0Z"/>
    <path class="f3dcc0de-ea64-4d60-b6a6-b86a8a4decb4" d="M20.72,11.45a9.22,9.22,0,0,1,5.53,1.85,6.58,6.58,0,0,1,2.63,4.08,6,6,0,0,1-1.07,4.69,7.54,7.54,0,0,1-1.71,1.72c-.27.19-.31.3-.22.63l.36,1.36c0,.17.11.37-.07.5s-.33,0-.48-.08l-1.72-1a.72.72,0,0,0-.64-.08,9.79,9.79,0,0,1-7.17-.63A7.1,7.1,0,0,1,12.68,21a5.94,5.94,0,0,1,1.06-6.69,8.33,8.33,0,0,1,4.32-2.57A10.39,10.39,0,0,1,20.72,11.45Zm-1.85,4.78a1.14,1.14,0,1,0-2.28,0,1.14,1.14,0,1,0,2.28,0Zm5.6,0a1.15,1.15,0,0,0-2.29,0,1.15,1.15,0,1,0,2.29,0Z"/>
  </g>
</svg>
