<svg id="f0cf4854-02c9-4b39-974d-7bbcc818b865" data-name="Layer 1" xmlns="http://www.w3.org/2000/svg" viewBox="0 0 36 36">
  <title>Virtual server with OS (2 color) - Standard</title>
<desc>host, datacenter, computer, virtualization, infrastructure, client, hardware, RHEL, Linux, operating system, OS</desc>
<metadata><?xpacket begin="﻿" id="W5M0MpCehiHzreSzNTczkc9d"?>
<x:xmpmeta xmlns:x="adobe:ns:meta/" x:xmptk="Adobe XMP Core 8.0-c001 1.000000, 0000/00/00-00:00:00        ">
   <rdf:RDF xmlns:rdf="http://www.w3.org/1999/02/22-rdf-syntax-ns#">
      <rdf:Description rdf:about=""
            xmlns:xmp="http://ns.adobe.com/xap/1.0/"
            xmlns:dc="http://purl.org/dc/elements/1.1/"
            xmlns:cq="http://www.day.com/jcr/cq/1.0"
            xmlns:tiff="http://ns.adobe.com/tiff/1.0/">
         <xmp:rhcc-effective-on>2023-12-08T17:34:34.095Z</xmp:rhcc-effective-on>
         <xmp:rhcc-metadata-complete-moderator>pending</xmp:rhcc-metadata-complete-moderator>
         <xmp:rhcc-translation-id>TRAd92d90e4-5825-4e56-b283-32b92675754e</xmp:rhcc-translation-id>
         <xmp:brand-content-type>Icon</xmp:brand-content-type>
         <xmp:CreateDate>2023-12-08T17:34:34.095Z</xmp:CreateDate>
         <xmp:rhcc-aspect-ratio>square</xmp:rhcc-aspect-ratio>
         <xmp:rhcc-effective-on-set-on-upload>true</xmp:rhcc-effective-on-set-on-upload>
         <xmp:rhcc-metadata-complete-uploader>pending</xmp:rhcc-metadata-complete-uploader>
         <xmp:rhcc-file-last-modified>2024-07-12T19:15:04.419Z</xmp:rhcc-file-last-modified>
         <xmp:rhcc-audience>rhcc-audience:internal</xmp:rhcc-audience>
         <xmp:brand-content-subtype>Icon</xmp:brand-content-subtype>
         <xmp:rhcc-rights-restricted>no</xmp:rhcc-rights-restricted>
         <xmp:rhcc-derivative-id>DERd92d90e4-5825-4e56-b283-32b92675754e</xmp:rhcc-derivative-id>
         <xmp:rhcc-uploaded-by>pmeilleu@redhat.com</xmp:rhcc-uploaded-by>
         <xmp:brand-logo-color>Standard</xmp:brand-logo-color>
         <xmp:rhcc-notify-portal-subscribers-on-change>yes</xmp:rhcc-notify-portal-subscribers-on-change>
         <dc:format>image/svg+xml</dc:format>
         <dc:modified>2024-02-09T20:13:28.239Z</dc:modified>
         <dc:title>
            <rdf:Alt>
               <rdf:li xml:lang="x-default">Virtual server with OS (2 color) - Standard</rdf:li>
            </rdf:Alt>
         </dc:title>
         <dc:description>
            <rdf:Alt>
               <rdf:li xml:lang="x-default">host, datacenter, computer, virtualization, infrastructure, client, hardware, RHEL, Linux, operating system, OS</rdf:li>
            </rdf:Alt>
         </dc:description>
         <cq:lastReplicationAction_scene7>Activate</cq:lastReplicationAction_scene7>
         <cq:lastReplicationAction_publish>Activate</cq:lastReplicationAction_publish>
         <cq:lastReplicated_publish>2024-10-02T19:47:49.150Z</cq:lastReplicated_publish>
         <cq:lastReplicatedBy>workflow-process-service</cq:lastReplicatedBy>
         <cq:lastReplicationAction>Activate</cq:lastReplicationAction>
         <cq:lastReplicatedBy_publish>workflow-process-service</cq:lastReplicatedBy_publish>
         <cq:isDelivered>false</cq:isDelivered>
         <cq:lastReplicated>2024-10-02T19:47:49.150Z</cq:lastReplicated>
         <cq:lastReplicatedBy_scene7>workflow-process-service</cq:lastReplicatedBy_scene7>
         <cq:lastReplicated_scene7>2024-10-02T19:47:49.150Z</cq:lastReplicated_scene7>
         <tiff:ImageLength>36</tiff:ImageLength>
         <tiff:ImageWidth>36</tiff:ImageWidth>
      </rdf:Description>
   </rdf:RDF>
</x:xmpmeta>
                                                                                                    
                                                                                                    
                                                                                                    
                                                                                                    
                                                                                                    
                                                                                                    
                                                                                                    
                                                                                                    
                                                                                                 
<?xpacket end="w"?></metadata>
<defs>
    <style>
      .e6afcde9-e359-4422-ad96-ac7ec6890071 {
        fill: #e00;
      }
    </style>
  </defs>
  <g>
    <circle cx="2.495" cy="7.995" r="0.625"/>
    <circle cx="2.495" cy="27.514" r="0.625"/>
    <circle cx="33.505" cy="27.514" r="0.625"/>
    <g>
      <path d="M31,25.625H5A.625.625,0,0,1,4.375,25V15A.625.625,0,0,1,5,14.375H31a.625.625,0,0,1,.625.625V25A.625.625,0,0,1,31,25.625ZM5.625,24.375h24.75v-8.75H5.625Z"/>
      <path d="M15,20.625H9a.625.625,0,0,1,0-1.25h6a.625.625,0,0,1,0,1.25Z"/>
      <path class="e6afcde9-e359-4422-ad96-ac7ec6890071" d="M31,11.625H5a.625.625,0,0,1,0-1.25H31a.625.625,0,0,1,0,1.25Z"/>
    </g>
    <g>
      <path d="M29.78,27.51a.623.623,0,0,1,.619-.62h0a.626.626,0,0,1,.631.62h0a.634.634,0,0,1-.631.63h0A.632.632,0,0,1,29.78,27.51Zm-3.1,0a.623.623,0,0,1,.62-.62h0a.626.626,0,0,1,.63.62h0a.634.634,0,0,1-.63.63h0A.632.632,0,0,1,26.68,27.51Zm-3.111,0a.626.626,0,0,1,.631-.62h0a.622.622,0,0,1,.619.62h0a.631.631,0,0,1-.619.63h0A.635.635,0,0,1,23.569,27.51Zm-3.09,0a.618.618,0,0,1,.621-.62h0a.632.632,0,0,1,.629.62h0a.64.64,0,0,1-.629.63h0A.626.626,0,0,1,20.479,27.51Zm-3.1,0a.616.616,0,0,1,.62-.62h0a.623.623,0,0,1,.62.62h0a.632.632,0,0,1-.62.63h0A.625.625,0,0,1,17.38,27.51Zm-3.11,0a.625.625,0,0,1,.629-.62h0a.623.623,0,0,1,.621.62h0a.632.632,0,0,1-.621.63h0A.634.634,0,0,1,14.27,27.51Zm-3.1,0a.625.625,0,0,1,.63-.62h0a.623.623,0,0,1,.62.62h0a.632.632,0,0,1-.62.63h0A.634.634,0,0,1,11.17,27.51Zm-3.1,0a.626.626,0,0,1,.631-.62h0a.622.622,0,0,1,.619.62h0a.631.631,0,0,1-.619.63h0A.635.635,0,0,1,8.069,27.51Zm-3.1,0a.625.625,0,0,1,.63-.62h0a.624.624,0,0,1,.62.62h0a.632.632,0,0,1-.62.63h0A.634.634,0,0,1,4.97,27.51Z"/>
      <path d="M1.87,24.72a.625.625,0,0,1,.63-.62h0a.623.623,0,0,1,.62.62h0a.625.625,0,0,1-.62.63h0A.627.627,0,0,1,1.87,24.72Zm0-2.79a.625.625,0,0,1,.63-.62h0a.623.623,0,0,1,.62.62h0a.625.625,0,0,1-.62.63h0A.627.627,0,0,1,1.87,21.93Zm0-2.78a.627.627,0,0,1,.63-.63h0a.625.625,0,0,1,.62.63h0a.623.623,0,0,1-.62.62h0A.625.625,0,0,1,1.87,19.15Zm0-2.79a.625.625,0,0,1,.63-.62h0a.623.623,0,0,1,.62.62h0a.617.617,0,0,1-.62.62h0A.618.618,0,0,1,1.87,16.36Zm0-2.79a.625.625,0,0,1,.63-.62h0a.623.623,0,0,1,.62.62h0a.625.625,0,0,1-.62.63h0A.627.627,0,0,1,1.87,13.57Zm0-2.78a.627.627,0,0,1,.63-.63h0a.625.625,0,0,1,.62.63h0a.623.623,0,0,1-.62.62h0A.625.625,0,0,1,1.87,10.79Z"/>
      <path d="M29.78,8a.625.625,0,0,1,.619-.63h0A.628.628,0,0,1,31.03,8h0a.626.626,0,0,1-.631.62h0A.623.623,0,0,1,29.78,8Zm-3.1,0a.619.619,0,0,1,.62-.63h0a.628.628,0,0,1,.63.63h0a.626.626,0,0,1-.63.62h0A.617.617,0,0,1,26.68,8Zm-3.1,0a.625.625,0,0,1,.62-.63h0a.627.627,0,0,1,.63.63h0a.625.625,0,0,1-.63.62h0A.622.622,0,0,1,23.58,8Zm-3.1,0a.626.626,0,0,1,.621-.63h0a.627.627,0,0,1,.629.63h0a.624.624,0,0,1-.629.62h0A.624.624,0,0,1,20.479,8ZM17.37,8A.627.627,0,0,1,18,7.37h0a.625.625,0,0,1,.62.63h0a.623.623,0,0,1-.62.62h0A.625.625,0,0,1,17.37,8Zm-3.1,0a.627.627,0,0,1,.629-.63h0A.625.625,0,0,1,15.52,8h0a.623.623,0,0,1-.621.62h0A.625.625,0,0,1,14.27,8Zm-3.1,0a.627.627,0,0,1,.63-.63h0a.625.625,0,0,1,.62.63h0a.623.623,0,0,1-.62.62h0A.625.625,0,0,1,11.17,8Zm-3.1,0A.628.628,0,0,1,8.7,7.37h0A.624.624,0,0,1,9.319,8h0a.622.622,0,0,1-.619.62h0A.626.626,0,0,1,8.069,8ZM4.97,8a.627.627,0,0,1,.63-.63h0A.626.626,0,0,1,6.22,8h0a.624.624,0,0,1-.62.62h0A.625.625,0,0,1,4.97,8Z"/>
      <path d="M32.88,24.72a.623.623,0,0,1,.62-.62h0a.625.625,0,0,1,.63.62h0a.627.627,0,0,1-.63.63h0A.625.625,0,0,1,32.88,24.72Zm0-2.78a.625.625,0,0,1,.62-.63h0a.627.627,0,0,1,.63.63h0a.625.625,0,0,1-.63.62h0A.623.623,0,0,1,32.88,21.94Zm0-2.79a.625.625,0,0,1,.62-.63h0a.627.627,0,0,1,.63.63h0a.625.625,0,0,1-.63.62h0A.623.623,0,0,1,32.88,19.15Zm0-2.79a.625.625,0,0,1,.62-.63h0a.627.627,0,0,1,.63.63h0a.619.619,0,0,1-.63.62h0A.617.617,0,0,1,32.88,16.36Zm0-2.79a.623.623,0,0,1,.62-.62h0a.625.625,0,0,1,.63.62h0a.627.627,0,0,1-.63.63h0A.625.625,0,0,1,32.88,13.57Zm0-2.78a.625.625,0,0,1,.62-.63h0a.627.627,0,0,1,.63.63h0a.625.625,0,0,1-.63.62h0A.623.623,0,0,1,32.88,10.79Z"/>
    </g>
    <circle cx="33.505" cy="7.998" r="0.625"/>
    <circle cx="26.995" cy="20.009" r="0.625"/>
  </g>
</svg>
