<?xml version="1.0" encoding="UTF-8"?><svg id="uuid-1acd5d98-962c-4c06-abc0-d0d492ea001d" xmlns="http://www.w3.org/2000/svg" width="36" height="36" viewBox="0 0 36 36"><title>Paper towels icon</title>
<desc>paper, towels, clean, wipe, absorb, compost, waste, GWS, signage</desc>
<metadata><?xpacket begin="﻿" id="W5M0MpCehiHzreSzNTczkc9d"?>
<x:xmpmeta xmlns:x="adobe:ns:meta/" x:xmptk="Adobe XMP Core 8.0-c001 1.000000, 0000/00/00-00:00:00        ">
   <rdf:RDF xmlns:rdf="http://www.w3.org/1999/02/22-rdf-syntax-ns#">
      <rdf:Description rdf:about=""
            xmlns:dc="http://purl.org/dc/elements/1.1/"
            xmlns:tiff="http://ns.adobe.com/tiff/1.0/"
            xmlns:xmp="http://ns.adobe.com/xap/1.0/">
         <dc:modified>2025-09-11T00:37:18.822Z</dc:modified>
         <dc:format>image/svg+xml</dc:format>
         <dc:description>
            <rdf:Alt>
               <rdf:li xml:lang="x-default">paper, towels, clean, wipe, absorb, compost, waste, GWS, signage</rdf:li>
            </rdf:Alt>
         </dc:description>
         <dc:title>
            <rdf:Alt>
               <rdf:li xml:lang="x-default">Paper towels icon</rdf:li>
            </rdf:Alt>
         </dc:title>
         <tiff:ImageLength>36</tiff:ImageLength>
         <tiff:ImageWidth>36</tiff:ImageWidth>
         <xmp:rhcc-rights-restricted>no</xmp:rhcc-rights-restricted>
         <xmp:brand-content-subtype>Icon</xmp:brand-content-subtype>
         <xmp:rhcc-file-last-modified>2025-09-11T00:32:14.780Z</xmp:rhcc-file-last-modified>
         <xmp:brand-content-type>Icon</xmp:brand-content-type>
         <xmp:brand-colorway>
            <rdf:Bag>
               <rdf:li>colorway:black</rdf:li>
            </rdf:Bag>
         </xmp:brand-colorway>
      </rdf:Description>
   </rdf:RDF>
</x:xmpmeta>
                                                                                                    
                                                                                                    
                                                                                                    
                                                                                                    
                                                                                                    
                                                                                                    
                                                                                                    
                                                                                                    
                                                                                                    
                                                                                                    
                                                                                                    
                                                                                                    
                                                                                                    
                                                                                                    
                                                                                                    
                                                                                                    
                                                                                                    
                                                                                                    
                                                                              
<?xpacket end="w"?></metadata>
<path d="M31,4.35156H12c-.02191,0-.04041.01031-.06177.01245-.14569-.00494-.29004-.01245-.43823-.01245-4.00879,0-7.14844,1.82227-7.14844,4.14844v20c0,2.32617,3.13965,4.14844,7.14844,4.14844s7.14844-1.82227,7.14844-4.14844V8.5c0-1.11597-.72797-2.1131-1.92255-2.85156h13.62567v21.70312h-9.35156c-.3584,0-.64844.29004-.64844.64844s.29004.64844.64844.64844h10c.3584,0,.64844-.29004.64844-.64844V5c0-.3584-.29004-.64844-.64844-.64844ZM11.5,31.35156c-3.44824,0-5.85156-1.50293-5.85156-2.85156V10.90668c1.28259,1.05957,3.40259,1.74176,5.85156,1.74176s4.56897-.68219,5.85156-1.74176v17.59332c0,1.34863-2.40332,2.85156-5.85156,2.85156ZM17.35156,8.5c0,1.34863-2.40332,2.85156-5.85156,2.85156s-5.85156-1.50293-5.85156-2.85156,2.40332-2.85156,5.85156-2.85156,5.85156,1.50293,5.85156,2.85156Z"/><path d="M11.5,23.87988c-.3501,0-.62012.26953-.62012.62012,0,.34961.27002.62012.62012.62012.34961,0,.62988-.27051.62988-.62012,0-.35059-.28027-.62012-.62988-.62012Z"/><path d="M11.5,26.37988c-.3501,0-.62012.28027-.62012.62012,0,.34961.27002.62012.62012.62012.34961,0,.62988-.27051.62988-.62012,0-.33984-.28027-.62012-.62988-.62012Z"/><path d="M11.5,28.87988c-.3501,0-.62012.28027-.62012.62012,0,.34961.27002.62988.62012.62988.34961,0,.62988-.28027.62988-.62988,0-.33984-.28027-.62012-.62988-.62012Z"/><path d="M11.5,18.87012c-.3501,0-.62012.29004-.62012.62988s.27002.62988.62012.62988c.34961,0,.62988-.29004.62988-.62988s-.28027-.62988-.62988-.62988Z"/><path d="M11.5,13.87988c-.3501,0-.62012.28027-.62012.62012,0,.34961.27002.62988.62012.62988.34961,0,.62988-.28027.62988-.62988,0-.33984-.28027-.62012-.62988-.62012Z"/><path d="M11.5,16.37988c-.3501,0-.62012.28027-.62012.62012,0,.34961.27002.62988.62012.62988.34961,0,.62988-.28027.62988-.62988,0-.33984-.28027-.62012-.62988-.62012Z"/><path d="M11.5,21.37988c-.3501,0-.62012.28027-.62012.62012s.27002.62988.62012.62988c.34961,0,.62988-.29004.62988-.62988s-.28027-.62012-.62988-.62012Z"/></svg>