<?xml version="1.0" encoding="UTF-8"?><svg id="uuid-9b2e142a-9d79-4168-94db-6337b9a9c73a" xmlns="http://www.w3.org/2000/svg" viewBox="0 0 38 38"><title>File integrity operator icon</title>
<desc>Cloud, operator</desc>
<metadata><?xpacket begin="﻿" id="W5M0MpCehiHzreSzNTczkc9d"?>
<x:xmpmeta xmlns:x="adobe:ns:meta/" x:xmptk="Adobe XMP Core 8.0-c001 1.000000, 0000/00/00-00:00:00        ">
   <rdf:RDF xmlns:rdf="http://www.w3.org/1999/02/22-rdf-syntax-ns#">
      <rdf:Description rdf:about=""
            xmlns:xmp="http://ns.adobe.com/xap/1.0/"
            xmlns:dc="http://purl.org/dc/elements/1.1/"
            xmlns:cq="http://www.day.com/jcr/cq/1.0"
            xmlns:tiff="http://ns.adobe.com/tiff/1.0/"
            xmlns:xmpRights="http://ns.adobe.com/xap/1.0/rights/">
         <xmp:rhcc-effective-on>2024-03-01T15:26:14.377Z</xmp:rhcc-effective-on>
         <xmp:rhcc-metadata-complete-moderator>pending</xmp:rhcc-metadata-complete-moderator>
         <xmp:rhcc-translation-id>TRAd501b092-ab33-42b0-bb25-2c407d96e029</xmp:rhcc-translation-id>
         <xmp:brand-content-type>Icon</xmp:brand-content-type>
         <xmp:CreateDate>2024-03-01T15:26:14.377Z</xmp:CreateDate>
         <xmp:rhcc-aspect-ratio>square</xmp:rhcc-aspect-ratio>
         <xmp:rhcc-effective-on-set-on-upload>true</xmp:rhcc-effective-on-set-on-upload>
         <xmp:rhcc-metadata-complete-uploader>pending</xmp:rhcc-metadata-complete-uploader>
         <xmp:rhcc-file-last-modified>2024-07-12T23:51:53.565Z</xmp:rhcc-file-last-modified>
         <xmp:rhcc-audience>rhcc-audience:internal</xmp:rhcc-audience>
         <xmp:rhcc-rights-restricted>no</xmp:rhcc-rights-restricted>
         <xmp:brand-content-subtype>Technology icon</xmp:brand-content-subtype>
         <xmp:rhcc-derivative-id>DERd501b092-ab33-42b0-bb25-2c407d96e029</xmp:rhcc-derivative-id>
         <xmp:rhcc-uploaded-by>pmeilleu@redhat.com</xmp:rhcc-uploaded-by>
         <xmp:brand-logo-color>Black</xmp:brand-logo-color>
         <xmp:rhcc-notify-portal-subscribers-on-change>yes</xmp:rhcc-notify-portal-subscribers-on-change>
         <xmp:rhcc-product>
            <rdf:Bag>
               <rdf:li>rhcc-product:red-hat-openshift</rdf:li>
            </rdf:Bag>
         </xmp:rhcc-product>
         <xmp:brand-subtype>
            <rdf:Bag>
               <rdf:li>Technology icon</rdf:li>
            </rdf:Bag>
         </xmp:brand-subtype>
         <dc:format>image/svg+xml</dc:format>
         <dc:modified>2024-05-10T13:24:17.610Z</dc:modified>
         <dc:title>
            <rdf:Alt>
               <rdf:li xml:lang="x-default">File integrity operator icon</rdf:li>
            </rdf:Alt>
         </dc:title>
         <dc:description>
            <rdf:Alt>
               <rdf:li xml:lang="x-default">Cloud, operator</rdf:li>
            </rdf:Alt>
         </dc:description>
         <cq:lastReplicationAction_scene7>Activate</cq:lastReplicationAction_scene7>
         <cq:lastReplicationAction_publish>Activate</cq:lastReplicationAction_publish>
         <cq:lastReplicated_publish>2024-10-02T19:51:58.027Z</cq:lastReplicated_publish>
         <cq:lastReplicatedBy>workflow-process-service</cq:lastReplicatedBy>
         <cq:lastReplicationAction>Activate</cq:lastReplicationAction>
         <cq:lastReplicatedBy_publish>workflow-process-service</cq:lastReplicatedBy_publish>
         <cq:isDelivered>false</cq:isDelivered>
         <cq:lastReplicated>2024-10-02T19:51:58.027Z</cq:lastReplicated>
         <cq:lastReplicatedBy_scene7>workflow-process-service</cq:lastReplicatedBy_scene7>
         <cq:lastReplicated_scene7>2024-10-02T19:51:58.027Z</cq:lastReplicated_scene7>
         <tiff:ImageLength>38</tiff:ImageLength>
         <tiff:ImageWidth>38</tiff:ImageWidth>
         <xmpRights:UsageTerms>
            <rdf:Alt>
               <rdf:li xml:lang="x-default">Use technology icons to represent Red Hat products and components. Do not remove the icon from the bounding shape.</rdf:li>
            </rdf:Alt>
         </xmpRights:UsageTerms>
      </rdf:Description>
   </rdf:RDF>
</x:xmpmeta>
                                                                                                    
                                                                                                    
                                                                                                    
                                                                                                    
                                                                                                    
                                                                                                    
                                                                                                    
                                                                                                    
                                                                                                    
                                                                                                    
                                                                                                    
                                                                                                    
                                                                                                    
                                                                                                    
                                                                                                    
                                                                                                    
                                                                                                    
                                          
<?xpacket end="w"?></metadata>
<path d="m28,1H10C5.02942,1,1,5.02942,1,10v18c0,4.97058,4.02942,9,9,9h18c4.97058,0,9-4.02942,9-9V10c0-4.97058-4.02942-9-9-9Zm7.75,27c0,4.27338-3.47668,7.75-7.75,7.75H10c-4.27332,0-7.75-3.47662-7.75-7.75V10c0-4.27338,3.47668-7.75,7.75-7.75h18c4.27332,0,7.75,3.47662,7.75,7.75v18Z"/><path d="m29,18.375c-.34473,0-.625.28027-.625.625,0,5.16895-4.20605,9.375-9.375,9.375-2.97656,0-5.71094-1.36621-7.5-3.74902-.20801-.27734-.60059-.33105-.875-.125-.27637.20801-.33203.59961-.125.875,2.02832,2.7002,5.12598,4.24902,8.5,4.24902,5.8584,0,10.625-4.7666,10.625-10.625,0-.34473-.28027-.625-.625-.625Z"/><path d="m9,19.625c.34473,0,.625-.28027.625-.625,0-5.16895,4.20605-9.375,9.375-9.375,2.97656,0,5.71094,1.36621,7.5,3.74902.20703.27734.59863.3291.875.125.27637-.20801.33203-.59961.125-.875-2.02832-2.7002-5.12598-4.24902-8.5-4.24902-5.8584,0-10.625,4.7666-10.625,10.625,0,.34473.28027.625.625.625Z"/><path d="m21.55762,24.44238c.12207.12207.28223.18262.44238.18262s.32031-.06055.44238-.18262l2-2c.02209-.02216.03162-.05072.04968-.0752.03064-.04108.06445-.07983.08447-.12775.02795-.06769.03955-.13947.04285-.21149.00049-.00983.00562-.01807.00562-.02795s-.00513-.01813-.00562-.02795c-.0033-.07202-.01489-.1438-.04285-.21149-.02002-.04791-.05383-.08667-.08447-.12775-.01807-.02448-.02759-.05304-.04968-.0752l-2-2c-.24414-.24414-.64062-.24414-.88477,0-.24316.24414-.24316.64062,0,.88477l.93323.93262h-8.49084c-.34473,0-.625.28027-.625.625s.28027.625.625.625h8.49084l-.93323.93262c-.24316.24414-.24316.64062,0,.88477Z"/><path d="m12.625,22c0-.34473-.28027-.625-.625-.625h-3c-.34473,0-.625.28027-.625.625s.28027.625.625.625h3c.34473,0,.625-.28027.625-.625Z"/><path d="m29,15.375h-3c-.34473,0-.625.28027-.625.625s.28027.625.625.625h3c.34473,0,.625-.28027.625-.625s-.28027-.625-.625-.625Z"/><path d="m24,15.375h-8.49084l.93323-.93262c.24316-.24414.24316-.64062,0-.88477-.24414-.24414-.64062-.24414-.88477,0l-2,2c-.02209.02216-.03162.05072-.04968.0752-.03064.04108-.06445.07983-.08447.12775-.02795.06769-.03955.13947-.04285.21149-.00049.00983-.00562.01807-.00562.02795s.00513.01813.00562.02795c.0033.07202.01489.1438.04285.21149.02002.04791.05383.08667.08447.12775.01807.02448.02759.05304.04968.0752l2,2c.12207.12207.28223.18262.44238.18262s.32031-.06055.44238-.18262c.24316-.24414.24316-.64062,0-.88477l-.93323-.93262h8.49084c.34473,0,.625-.28027.625-.625s-.28027-.625-.625-.625Z"/></svg>