<svg id="f19a89e5-ec60-409d-945b-67e3802b7e0d" data-name="Icon" xmlns="http://www.w3.org/2000/svg" viewBox="0 0 36 36">
  <title>Multiple unsecured apps icon - Red</title>
<desc>application, develop, development, code, square, button, program, software, run, box, stack, secured, software and technologies</desc>
<metadata><?xpacket begin="﻿" id="W5M0MpCehiHzreSzNTczkc9d"?>
<x:xmpmeta xmlns:x="adobe:ns:meta/" x:xmptk="Adobe XMP Core 8.0-c001 1.000000, 0000/00/00-00:00:00        ">
   <rdf:RDF xmlns:rdf="http://www.w3.org/1999/02/22-rdf-syntax-ns#">
      <rdf:Description rdf:about=""
            xmlns:xmp="http://ns.adobe.com/xap/1.0/"
            xmlns:dc="http://purl.org/dc/elements/1.1/"
            xmlns:cq="http://www.day.com/jcr/cq/1.0"
            xmlns:tiff="http://ns.adobe.com/tiff/1.0/">
         <xmp:rhcc-effective-on>2023-12-08T17:42:07.725Z</xmp:rhcc-effective-on>
         <xmp:rhcc-metadata-complete-moderator>pending</xmp:rhcc-metadata-complete-moderator>
         <xmp:rhcc-translation-id>TRA6a52022c-14fd-488f-8e02-476c450acb4e</xmp:rhcc-translation-id>
         <xmp:brand-content-type>Icon</xmp:brand-content-type>
         <xmp:CreateDate>2023-12-08T17:42:07.725Z</xmp:CreateDate>
         <xmp:rhcc-effective-on-set-on-upload>true</xmp:rhcc-effective-on-set-on-upload>
         <xmp:rhcc-metadata-complete-uploader>pending</xmp:rhcc-metadata-complete-uploader>
         <xmp:rhcc-file-last-modified>2023-12-08T17:42:25.214Z</xmp:rhcc-file-last-modified>
         <xmp:rhcc-audience>rhcc-audience:internal</xmp:rhcc-audience>
         <xmp:rhcc-rights-restricted>no</xmp:rhcc-rights-restricted>
         <xmp:brand-content-subtype>Icon</xmp:brand-content-subtype>
         <xmp:rhcc-derivative-id>DER6a52022c-14fd-488f-8e02-476c450acb4e</xmp:rhcc-derivative-id>
         <xmp:brand-logo-color>Red</xmp:brand-logo-color>
         <xmp:rhcc-notify-portal-subscribers-on-change>yes</xmp:rhcc-notify-portal-subscribers-on-change>
         <dc:format>image/svg+xml</dc:format>
         <dc:modified>2024-02-09T20:14:37.365Z</dc:modified>
         <dc:title>
            <rdf:Alt>
               <rdf:li xml:lang="x-default">Multiple unsecured apps icon - Red</rdf:li>
            </rdf:Alt>
         </dc:title>
         <dc:description>
            <rdf:Alt>
               <rdf:li xml:lang="x-default">application, develop, development, code, square, button, program, software, run, box, stack, secured, software and technologies</rdf:li>
            </rdf:Alt>
         </dc:description>
         <cq:lastReplicationAction_scene7>Activate</cq:lastReplicationAction_scene7>
         <cq:lastReplicationAction_publish>Activate</cq:lastReplicationAction_publish>
         <cq:lastReplicated_publish>2024-02-09T21:51:20.094Z</cq:lastReplicated_publish>
         <cq:lastReplicatedBy>workflow-process-service</cq:lastReplicatedBy>
         <cq:lastReplicationAction>Activate</cq:lastReplicationAction>
         <cq:lastReplicatedBy_publish>workflow-process-service</cq:lastReplicatedBy_publish>
         <cq:isDelivered>true</cq:isDelivered>
         <cq:lastReplicated>2024-02-09T21:51:20.094Z</cq:lastReplicated>
         <cq:lastReplicatedBy_scene7>workflow-process-service</cq:lastReplicatedBy_scene7>
         <cq:lastReplicated_scene7>2024-02-09T21:51:20.094Z</cq:lastReplicated_scene7>
         <tiff:ImageLength>36</tiff:ImageLength>
         <tiff:ImageWidth>36</tiff:ImageWidth>
      </rdf:Description>
   </rdf:RDF>
</x:xmpmeta>
                                                                                                    
                                                                                                    
                                                                                                    
                                                                                                    
                                                                                                    
                                                                                                    
                                                                                                    
                                                                                                    
                                                                                                    
                                                                                                    
                                 
<?xpacket end="w"?></metadata>
<defs>
    <style>
      .e82d468c-b01a-4b1e-9bc7-79acd4f20332 {
        fill: #e00;
      }
    </style>
  </defs>
  <g>
    <g>
      <path class="e82d468c-b01a-4b1e-9bc7-79acd4f20332" d="M11,25.62H23a.62.62,0,0,0,0-1.24H11.62V5.62H30.38V21a.62.62,0,0,0,1.24,0V5A.62.62,0,0,0,31,4.38H11a.62.62,0,0,0-.62.62V25A.62.62,0,0,0,11,25.62Z"/>
      <path class="e82d468c-b01a-4b1e-9bc7-79acd4f20332" d="M8,28.62H23a.62.62,0,0,0,0-1.24H8.62V8A.62.62,0,0,0,7.38,8V28A.62.62,0,0,0,8,28.62Z"/>
      <path class="e82d468c-b01a-4b1e-9bc7-79acd4f20332" d="M24,30.38H5.62V11a.62.62,0,0,0-1.24,0V31a.62.62,0,0,0,.62.62H24a.62.62,0,0,0,0-1.24Z"/>
      <path class="e82d468c-b01a-4b1e-9bc7-79acd4f20332" d="M25.37,28.05A3.63,3.63,0,0,0,29,31.67a3.54,3.54,0,0,0,1.27-.24l-4.9-4.9Z"/>
      <path class="e82d468c-b01a-4b1e-9bc7-79acd4f20332" d="M32.71,30.33l-.55-.55a3.63,3.63,0,0,0,.46-1.73V24.59a.63.63,0,0,0-.49-.61l-3-.64a.57.57,0,0,0-.26,0l-2.6.55-.38-.38a.63.63,0,0,0-.88.89l.36.36h0l6,6h0l.46.45a.6.6,0,0,0,.88,0A.63.63,0,0,0,32.71,30.33Z"/>
    </g>
    <path class="e82d468c-b01a-4b1e-9bc7-79acd4f20332" d="M26,7.38a.63.63,0,0,0-.62.63.63.63,0,0,0,1.25,0A.63.63,0,0,0,26,7.38Z"/>
    <path class="e82d468c-b01a-4b1e-9bc7-79acd4f20332" d="M28,7.38a.63.63,0,0,0-.62.63.63.63,0,0,0,1.25,0A.63.63,0,0,0,28,7.38Z"/>
  </g>
</svg>
