<?xml version="1.0" encoding="UTF-8"?><svg id="uuid-ab83cbeb-b60e-4565-aa40-eb161d082175" xmlns="http://www.w3.org/2000/svg" viewBox="0 0 38 38"><title>Red Hat Advanced Cluster Management for Kubernetes icon</title>
<desc>RHACM, management, edge</desc>
<metadata><?xpacket begin="﻿" id="W5M0MpCehiHzreSzNTczkc9d"?>
<x:xmpmeta xmlns:x="adobe:ns:meta/" x:xmptk="Adobe XMP Core 8.0-c001 1.000000, 0000/00/00-00:00:00        ">
   <rdf:RDF xmlns:rdf="http://www.w3.org/1999/02/22-rdf-syntax-ns#">
      <rdf:Description rdf:about=""
            xmlns:xmp="http://ns.adobe.com/xap/1.0/"
            xmlns:dc="http://purl.org/dc/elements/1.1/"
            xmlns:cq="http://www.day.com/jcr/cq/1.0"
            xmlns:tiff="http://ns.adobe.com/tiff/1.0/"
            xmlns:xmpRights="http://ns.adobe.com/xap/1.0/rights/">
         <xmp:rhcc-effective-on>2024-03-01T15:26:30.740Z</xmp:rhcc-effective-on>
         <xmp:rhcc-metadata-complete-moderator>pending</xmp:rhcc-metadata-complete-moderator>
         <xmp:rhcc-translation-id>TRA6f96f9e5-f1df-4dc0-92f8-2e3f7fcc1669</xmp:rhcc-translation-id>
         <xmp:brand-content-type>Icon</xmp:brand-content-type>
         <xmp:CreateDate>2024-03-01T15:26:30.740Z</xmp:CreateDate>
         <xmp:rhcc-aspect-ratio>square</xmp:rhcc-aspect-ratio>
         <xmp:rhcc-effective-on-set-on-upload>true</xmp:rhcc-effective-on-set-on-upload>
         <xmp:rhcc-metadata-complete-uploader>pending</xmp:rhcc-metadata-complete-uploader>
         <xmp:rhcc-file-last-modified>2024-07-12T23:53:41.762Z</xmp:rhcc-file-last-modified>
         <xmp:rhcc-audience>rhcc-audience:internal</xmp:rhcc-audience>
         <xmp:rhcc-rights-restricted>no</xmp:rhcc-rights-restricted>
         <xmp:brand-content-subtype>Technology icon</xmp:brand-content-subtype>
         <xmp:rhcc-derivative-id>DER6f96f9e5-f1df-4dc0-92f8-2e3f7fcc1669</xmp:rhcc-derivative-id>
         <xmp:rhcc-uploaded-by>pmeilleu@redhat.com</xmp:rhcc-uploaded-by>
         <xmp:brand-logo-color>White</xmp:brand-logo-color>
         <xmp:rhcc-notify-portal-subscribers-on-change>yes</xmp:rhcc-notify-portal-subscribers-on-change>
         <xmp:rhcc-product>
            <rdf:Bag>
               <rdf:li>rhcc-product:red-hat-advanced-cluster-management-for-kubernetes</rdf:li>
            </rdf:Bag>
         </xmp:rhcc-product>
         <xmp:brand-subtype>
            <rdf:Bag>
               <rdf:li>Technology icon</rdf:li>
            </rdf:Bag>
         </xmp:brand-subtype>
         <dc:format>image/svg+xml</dc:format>
         <dc:modified>2024-05-10T14:01:13.263Z</dc:modified>
         <dc:title>
            <rdf:Alt>
               <rdf:li xml:lang="x-default">Red Hat Advanced Cluster Management for Kubernetes icon</rdf:li>
            </rdf:Alt>
         </dc:title>
         <dc:description>
            <rdf:Alt>
               <rdf:li xml:lang="x-default">RHACM, management, edge</rdf:li>
            </rdf:Alt>
         </dc:description>
         <cq:lastReplicationAction_scene7>Activate</cq:lastReplicationAction_scene7>
         <cq:lastReplicationAction_publish>Activate</cq:lastReplicationAction_publish>
         <cq:lastReplicated_publish>2024-10-02T19:51:42.911Z</cq:lastReplicated_publish>
         <cq:lastReplicatedBy>workflow-process-service</cq:lastReplicatedBy>
         <cq:lastReplicationAction>Activate</cq:lastReplicationAction>
         <cq:lastReplicatedBy_publish>workflow-process-service</cq:lastReplicatedBy_publish>
         <cq:isDelivered>false</cq:isDelivered>
         <cq:lastReplicated>2024-10-02T19:51:42.911Z</cq:lastReplicated>
         <cq:lastReplicatedBy_scene7>workflow-process-service</cq:lastReplicatedBy_scene7>
         <cq:lastReplicated_scene7>2024-10-02T19:51:42.911Z</cq:lastReplicated_scene7>
         <tiff:ImageLength>38</tiff:ImageLength>
         <tiff:ImageWidth>38</tiff:ImageWidth>
         <xmpRights:UsageTerms>
            <rdf:Alt>
               <rdf:li xml:lang="x-default">Use technology icons to represent Red Hat products and components. Do not remove the icon from the bounding shape.</rdf:li>
            </rdf:Alt>
         </xmpRights:UsageTerms>
      </rdf:Description>
   </rdf:RDF>
</x:xmpmeta>
                                                                                                    
                                                                                                    
                                                                                                    
                                                                                                    
                                                                                                    
                                                                                                    
                                                                                                    
                                                                                                    
                                                                                                    
                                                                                                    
                                                                                                    
                                                                                                    
                                                                                                    
                                                                                                    
                                                                                                    
                                                                                                    
                                                                                                    
                                          
<?xpacket end="w"?></metadata>
<defs><style>.uuid-2f4d0ca5-3216-463c-a1ad-535abb160eaf{fill:#fff;}</style></defs><path class="uuid-2f4d0ca5-3216-463c-a1ad-535abb160eaf" d="m22.4873,20.46729c-.57715,0-1.12793.12695-1.63867.37744-.11035.05273-.21387.10938-.31348.17139-.10156.06201-.19922.12842-.29297.19873-.95117.71533-1.49707,1.80664-1.49707,2.99463,0,2.06348,1.67871,3.74219,3.74219,3.74219s3.74219-1.67871,3.74219-3.74219-1.67871-3.74219-3.74219-3.74219Z"/><path class="uuid-2f4d0ca5-3216-463c-a1ad-535abb160eaf" d="m12.5127,16.02637c-.5752,0-1.12695.12695-1.63965.37744-.10645.05225-.21094.10938-.31152.17139-.10352.0625-.2002.12891-.29395.19971-.95117.71436-1.49707,1.80566-1.49707,2.99365,0,2.06348,1.67871,3.74219,3.74219,3.74219s3.74219-1.67871,3.74219-3.74219-1.67871-3.74219-3.74219-3.74219Z"/><path class="uuid-2f4d0ca5-3216-463c-a1ad-535abb160eaf" d="m28,1H10C5.02942,1,1,5.02942,1,10v18c0,4.97058,4.02942,9,9,9h18c4.97058,0,9-4.02942,9-9V10c0-4.97058-4.02942-9-9-9Zm-9.64746,8.35156c.12305-.09326.25488-.18262.39062-.26562.13379-.08252.27344-.15918.41699-.229.68555-.33496,1.42188-.50439,2.18848-.50439,2.75293,0,4.99219,2.23926,4.99219,4.99219s-2.23926,4.99219-4.99219,4.99219-4.99219-2.23926-4.99219-4.99219c0-1.58496.72754-3.04053,1.99609-3.99316Zm-2.5625-1.5918c.33008-.08984.66992.10986.76953.43994.08984.33008-.10938.68018-.43945.77002-.06055.01025-.11035.02002-.16992.02002-.27051,0-.52051-.17969-.60059-.45996-.08984-.33008.10059-.68018.44043-.77002Zm-1.98047.74023c.31055-.15039.69043-.02002.83984.29004.14062.30957.01074.68994-.2998.83984-.08008.04004-.17969.06006-.26953.06006-.23047,0-.4502-.12988-.56055-.3501-.14941-.31006-.01953-.68994.29004-.83984Zm-1.80957,1.08984c.28027-.20996.66992-.1499.87988.12988.2002.28027.13965.66992-.13965.87988v-.00977c-.11035.08984-.24023.12988-.37012.12988-.19043,0-.37988-.08984-.5-.25977-.20996-.28027-.15039-.66992.12988-.87012Zm-1.58008,1.39014c.22949-.25.62988-.26025.87988-.02002.25.23975.25977.62988.01953.87988h.01074c-.12988.12988-.29004.2002-.45996.2002-.15039,0-.31055-.06006-.43066-.18018-.25-.22998-.25977-.62988-.01953-.87988Zm-1.31055,1.65967c.19043-.29004.57031-.36963.86035-.18994.29004.18994.37012.58008.19043.87012-.12012.18018-.32031.27979-.53027.27979-.11035,0-.23047-.02979-.33984-.09961-.29004-.18994-.37012-.58008-.18066-.86035Zm2.90039,14.97021c-.12012.14014-.2998.20996-.46973.20996-.15039,0-.2998-.0498-.41016-.16016-.25977-.22998-.28027-.61963-.0498-.87988.22949-.25977.62012-.27979.87988-.0498s.28027.61963.0498.87988Zm1.66992,1.1001c-.12012.18994-.32031.2998-.53027.2998-.10938,0-.22949-.02979-.33008-.08984-.28906-.18018-.37988-.57031-.20996-.85986.18066-.29004.57031-.39014.86035-.21045.2998.18018.38965.56006.20996.86035Zm1.85059.77002c-.10059.25-.34082.40967-.59082.40967-.06934,0-.14941-.02002-.21973-.0498-.32031-.12012-.47949-.47998-.36035-.7998.12012-.32031.48047-.47998.80078-.36035.33008.12012.48926.47998.37012.80029Zm-3.01758-4.71924c-2.75293,0-4.99219-2.23926-4.99219-4.99219,0-1.58496.72754-3.04053,1.99609-3.99316.12598-.09473.25586-.18262.39062-.26562.13379-.08252.27344-.15918.41699-.229.68555-.33496,1.42188-.50439,2.18848-.50439,2.75293,0,4.99219,2.23926,4.99219,4.99219s-2.23926,4.99219-4.99219,4.99219Zm4.35742,5.65918c-.04004,0-.08008,0-.12012-.01025-.33984-.06006-.56055-.37988-.5-.71973.05957-.34033.38965-.57031.72949-.51025.33984.07031.56055.39014.5.72998-.0498.30029-.31934.51025-.60938.51025Zm1.97949.17969c-.33984,0-.62012-.27979-.62012-.61963,0-.3501.28027-.63037.62012-.63037.35059,0,.62988.28027.62988.63037,0,.33984-.2793.61963-.62988.61963Zm3.6377-1.39795c-2.75293,0-4.99219-2.23926-4.99219-4.99219,0-1.58496.72754-3.04053,1.99609-3.99316.12402-.09424.25488-.18311.38965-.26562s.27539-.15967.41992-.22998c.68066-.3335,1.41797-.50342,2.18652-.50342,2.75293,0,4.99219,2.23926,4.99219,4.99219s-2.23926,4.99219-4.99219,4.99219Zm5.0625-15.88184c-.19043-.29004-.11035-.68018.17969-.87012.29004-.17969.68066-.1001.87012.18994.19043.29004.11035.67041-.17969.86035-.11035.06982-.23047.09961-.33984.09961-.20996,0-.41016-.09961-.53027-.27979Zm.87988,1.66016h.00977c-.13965-.32031.01074-.68018.33008-.81006.32031-.14014.68066.00977.82031.33008.12988.31982-.02051.68994-.33984.81982-.08008.02979-.16016.0498-.24023.0498-.24023,0-.47949-.1499-.58008-.38965Zm1.0498,1.06006c.33008-.08008.66992.13965.74023.47998.07031.32959-.13965.66992-.47949.73975-.05078.01025-.09082.01025-.13086.01025-.29004,0-.5498-.2002-.60938-.49023-.08008-.33984.13965-.66992.47949-.73975Zm.26074,5.20996c-.04004,0-.07031,0-.10059-.01025-.33984-.0498-.58008-.37012-.53027-.70996h.01074c.0498-.33984.35938-.56982.70996-.52002.33984.05029.56934.37012.51953.70996-.0498.31006-.30957.53027-.60938.53027Zm.12988-2h-.02051c-.33984,0-.62012-.26025-.62988-.6001-.00977-.3501.25977-.62988.61035-.6499.34961,0,.62988.27002.63965.60986.00977.3501-.25977.64014-.59961.64014Z"/><path class="uuid-2f4d0ca5-3216-463c-a1ad-535abb160eaf" d="m21.34863,17.08691c2.06348,0,3.74219-1.67871,3.74219-3.74219s-1.67871-3.74219-3.74219-3.74219c-.5752,0-1.12695.12695-1.63965.37744-.10645.05225-.21094.10938-.31152.17139-.10254.0625-.19922.12744-.29199.19824-.95312.71582-1.49902,1.80713-1.49902,2.99512,0,2.06348,1.67871,3.74219,3.74219,3.74219Z"/></svg>