<svg id="a851a2c8-d100-43db-93bc-1b54c1d08de0" data-name="Icon" xmlns="http://www.w3.org/2000/svg" viewBox="0 0 36 36">
  <title>No food icon - White</title>
<desc>eat, danger, GWS, sign, do not, avoid, shapes and signage</desc>
<metadata><?xpacket begin="﻿" id="W5M0MpCehiHzreSzNTczkc9d"?>
<x:xmpmeta xmlns:x="adobe:ns:meta/" x:xmptk="Adobe XMP Core 8.0-c001 1.000000, 0000/00/00-00:00:00        ">
   <rdf:RDF xmlns:rdf="http://www.w3.org/1999/02/22-rdf-syntax-ns#">
      <rdf:Description rdf:about=""
            xmlns:xmp="http://ns.adobe.com/xap/1.0/"
            xmlns:dc="http://purl.org/dc/elements/1.1/"
            xmlns:cq="http://www.day.com/jcr/cq/1.0"
            xmlns:tiff="http://ns.adobe.com/tiff/1.0/">
         <xmp:rhcc-effective-on>2023-12-08T17:38:07.802Z</xmp:rhcc-effective-on>
         <xmp:rhcc-metadata-complete-moderator>pending</xmp:rhcc-metadata-complete-moderator>
         <xmp:rhcc-translation-id>TRAadd1930a-f6aa-45f8-b247-c8af111778cc</xmp:rhcc-translation-id>
         <xmp:brand-content-type>Icon</xmp:brand-content-type>
         <xmp:CreateDate>2023-12-08T17:38:07.802Z</xmp:CreateDate>
         <xmp:rhcc-aspect-ratio>square</xmp:rhcc-aspect-ratio>
         <xmp:rhcc-effective-on-set-on-upload>true</xmp:rhcc-effective-on-set-on-upload>
         <xmp:rhcc-published-asset-email-sent>true</xmp:rhcc-published-asset-email-sent>
         <xmp:rhcc-metadata-complete-uploader>pending</xmp:rhcc-metadata-complete-uploader>
         <xmp:rhcc-file-last-modified>2024-07-12T22:12:04.359Z</xmp:rhcc-file-last-modified>
         <xmp:rhcc-audience>rhcc-audience:internal</xmp:rhcc-audience>
         <xmp:brand-content-subtype>Icon</xmp:brand-content-subtype>
         <xmp:rhcc-rights-restricted>no</xmp:rhcc-rights-restricted>
         <xmp:rhcc-derivative-id>DERadd1930a-f6aa-45f8-b247-c8af111778cc</xmp:rhcc-derivative-id>
         <xmp:rhcc-uploaded-by>pmeilleu@redhat.com</xmp:rhcc-uploaded-by>
         <xmp:brand-logo-color>White</xmp:brand-logo-color>
         <xmp:rhcc-notify-portal-subscribers-on-change>yes</xmp:rhcc-notify-portal-subscribers-on-change>
         <dc:format>image/svg+xml</dc:format>
         <dc:modified>2024-02-09T20:28:25.158Z</dc:modified>
         <dc:title>
            <rdf:Alt>
               <rdf:li xml:lang="x-default">No food icon - White</rdf:li>
            </rdf:Alt>
         </dc:title>
         <dc:description>
            <rdf:Alt>
               <rdf:li xml:lang="x-default">eat, danger, GWS, sign, do not, avoid, shapes and signage</rdf:li>
            </rdf:Alt>
         </dc:description>
         <cq:lastReplicationAction_scene7>Activate</cq:lastReplicationAction_scene7>
         <cq:lastReplicationAction_publish>Activate</cq:lastReplicationAction_publish>
         <cq:lastReplicated_publish>2024-10-02T19:40:05.844Z</cq:lastReplicated_publish>
         <cq:lastReplicatedBy>workflow-process-service</cq:lastReplicatedBy>
         <cq:lastReplicationAction>Activate</cq:lastReplicationAction>
         <cq:lastReplicatedBy_publish>workflow-process-service</cq:lastReplicatedBy_publish>
         <cq:isDelivered>false</cq:isDelivered>
         <cq:lastReplicated>2024-10-02T19:40:05.844Z</cq:lastReplicated>
         <cq:lastReplicatedBy_scene7>workflow-process-service</cq:lastReplicatedBy_scene7>
         <cq:lastReplicated_scene7>2024-10-02T19:40:05.844Z</cq:lastReplicated_scene7>
         <tiff:ImageLength>36</tiff:ImageLength>
         <tiff:ImageWidth>36</tiff:ImageWidth>
      </rdf:Description>
   </rdf:RDF>
</x:xmpmeta>
                                                                                                    
                                                                                                    
                                                                                                    
                                                                                                    
                                                                                                    
                                                                                                    
                                                                                                    
                                                                                                    
        
<?xpacket end="w"?></metadata>
<defs>
    <style>
      .a7b5fb63-885d-4cb6-b929-449c2c5ad5ae {
        fill: #fff;
      }
    </style>
  </defs>
  <g>
    <path class="a7b5fb63-885d-4cb6-b929-449c2c5ad5ae" d="M25.64,29A13.38,13.38,0,0,1,7,10.36a.62.62,0,1,0-1-.72A14.63,14.63,0,0,0,26.36,30a.62.62,0,0,0-.72-1Z"/>
    <path class="a7b5fb63-885d-4cb6-b929-449c2c5ad5ae" d="M28.34,7.66a14.7,14.7,0,0,0-20.68,0,.63.63,0,0,0,0,.88l4.81,4.82c-.49.64-2,4.11-.47,4.26h4.74L18,18.88a2.19,2.19,0,0,0-1.56.65,1,1,0,0,1-1.52,0,2.25,2.25,0,0,0-3.15,0,1,1,0,0,1-.76.35.62.62,0,0,0,0,1.24,2.19,2.19,0,0,0,1.57-.65,1,1,0,0,1,1.53,0,2.25,2.25,0,0,0,3.15,0,1,1,0,0,1,1.52,0,2.22,2.22,0,0,0,1.46.64l1.26,1.27H12a.62.62,0,0,0-.62.62v2a.62.62,0,0,0,.62.62H24a.63.63,0,0,0,.49-.25l3,3a.61.61,0,0,0,.88,0A14.7,14.7,0,0,0,28.34,7.66ZM12.66,16.38a5.31,5.31,0,0,1,.73-2.11l2.1,2.11Zm1.5-3.11a5.38,5.38,0,0,1,9.18,3.11H17.26Zm9.22,11.11H12.62v-.76H22.74l.64.64ZM27.89,27l-3.27-3.27V23a.62.62,0,0,0-.62-.62h-.74L21.6,20.72a2.81,2.81,0,0,0,.31-.25,1,1,0,0,1,1.52,0,2.19,2.19,0,0,0,1.57.65.62.62,0,0,0,0-1.24,1,1,0,0,1-.76-.35,2.24,2.24,0,0,0-3.14,0,1.76,1.76,0,0,1-.41.28l-2.18-2.19H24a.62.62,0,0,0,.62-.62,6.64,6.64,0,0,0-11.36-4.62L9,8.11A13.38,13.38,0,0,1,27.89,27Z"/>
  </g>
</svg>
