<?xml version="1.0" encoding="UTF-8"?><svg id="uuid-f682dfb9-f9c0-4601-95c1-85e5d04db6a9" xmlns="http://www.w3.org/2000/svg" viewBox="0 0 38 38"><title>Red Hat build of MicroShift icon</title>
<desc>Cloud, MicroShift, tool</desc>
<metadata><?xpacket begin="﻿" id="W5M0MpCehiHzreSzNTczkc9d"?>
<x:xmpmeta xmlns:x="adobe:ns:meta/" x:xmptk="Adobe XMP Core 8.0-c001 1.000000, 0000/00/00-00:00:00        ">
   <rdf:RDF xmlns:rdf="http://www.w3.org/1999/02/22-rdf-syntax-ns#">
      <rdf:Description rdf:about=""
            xmlns:xmp="http://ns.adobe.com/xap/1.0/"
            xmlns:tiff="http://ns.adobe.com/tiff/1.0/"
            xmlns:dc="http://purl.org/dc/elements/1.1/"
            xmlns:xmpRights="http://ns.adobe.com/xap/1.0/rights/">
         <xmp:rhcc-effective-on>2024-07-10T21:14:23.781Z</xmp:rhcc-effective-on>
         <xmp:rhcc-rights-restricted>no</xmp:rhcc-rights-restricted>
         <xmp:brand-content-subtype>Technology icon</xmp:brand-content-subtype>
         <xmp:rhcc-metadata-complete-moderator>pending</xmp:rhcc-metadata-complete-moderator>
         <xmp:rhcc-translation-id>TRAdbcacc4c-5201-4928-82e4-ed47818c0d31</xmp:rhcc-translation-id>
         <xmp:brand-content-type>Icon</xmp:brand-content-type>
         <xmp:CreateDate>2024-07-10T21:14:23.781Z</xmp:CreateDate>
         <xmp:rhcc-aspect-ratio>square</xmp:rhcc-aspect-ratio>
         <xmp:rhcc-derivative-id>DERdbcacc4c-5201-4928-82e4-ed47818c0d31</xmp:rhcc-derivative-id>
         <xmp:rhcc-effective-on-set-on-upload>true</xmp:rhcc-effective-on-set-on-upload>
         <xmp:rhcc-uploaded-by>ryawilli@redhat.com</xmp:rhcc-uploaded-by>
         <xmp:brand-logo-color>Black</xmp:brand-logo-color>
         <xmp:rhcc-metadata-complete-uploader>pending</xmp:rhcc-metadata-complete-uploader>
         <xmp:rhcc-file-last-modified>2024-07-13T00:27:05.463Z</xmp:rhcc-file-last-modified>
         <xmp:rhcc-audience>rhcc-audience:internal</xmp:rhcc-audience>
         <xmp:rhcc-notify-portal-subscribers-on-change>yes</xmp:rhcc-notify-portal-subscribers-on-change>
         <xmp:rhcc-product>
            <rdf:Bag>
               <rdf:li>rhcc-product:red-hat-device-edge</rdf:li>
            </rdf:Bag>
         </xmp:rhcc-product>
         <tiff:ImageLength>38</tiff:ImageLength>
         <tiff:ImageWidth>38</tiff:ImageWidth>
         <dc:format>image/svg+xml</dc:format>
         <dc:modified>2024-07-10T21:16:23.147Z</dc:modified>
         <dc:description>
            <rdf:Alt>
               <rdf:li xml:lang="x-default">Cloud, MicroShift, tool</rdf:li>
            </rdf:Alt>
         </dc:description>
         <dc:title>
            <rdf:Alt>
               <rdf:li xml:lang="x-default">Red Hat build of MicroShift icon</rdf:li>
            </rdf:Alt>
         </dc:title>
         <xmpRights:UsageTerms>
            <rdf:Alt>
               <rdf:li xml:lang="x-default">Use technology icons to represent Red Hat products and components. Do not remove the icon from the bounding shape.</rdf:li>
            </rdf:Alt>
         </xmpRights:UsageTerms>
      </rdf:Description>
   </rdf:RDF>
</x:xmpmeta>
                                                                                                    
                                                                                                    
                                                                                                    
                                                                                                    
                                                                                                    
                                                                                                    
                                                                                                    
                                                                                                    
                                                                                                    
                                                                                                    
                                                                                                    
                                                                                                    
                                                                                                    
                                                                                                    
                                                                                                    
                                                                                                    
                                                                                                    
                                                        
<?xpacket end="w"?></metadata>
<defs><style>.uuid-006c48db-5ccc-4eae-9308-e9c0e6a5a3a4{fill:#000;stroke-width:0px;}</style></defs><path class="uuid-006c48db-5ccc-4eae-9308-e9c0e6a5a3a4" d="M28,1H10C5.0294,1,1,5.0294,1,10v18c0,4.9706,4.0294,9,9,9h18c4.9706,0,9-4.0294,9-9V10c0-4.9706-4.0294-9-9-9ZM35.75,28c0,4.2734-3.4766,7.75-7.75,7.75H10c-4.2734,0-7.75-3.4766-7.75-7.75V10c0-4.2734,3.4766-7.75,7.75-7.75h18c4.2734,0,7.75,3.4766,7.75,7.75v18Z"/><path class="uuid-006c48db-5ccc-4eae-9308-e9c0e6a5a3a4" d="M18.9697,15.75c.4199,0,.75-.3403.75-.7603-.0098-.4102-.3496-.7397-.7598-.7397s-.75.3398-.75.7598c.0098.4102.3496.7402.7598.7402Z"/><path class="uuid-006c48db-5ccc-4eae-9308-e9c0e6a5a3a4" d="M16.1494,16.9399c.2002,0,.3906-.0703.54-.2202.29-.2998.2803-.77-.0098-1.0601-.2998-.29-.7695-.29-1.0596.0103-.29.29-.29.77.0098,1.0601.1396.1396.3301.21.5195.21Z"/><path class="uuid-006c48db-5ccc-4eae-9308-e9c0e6a5a3a4" d="M19.0098,22.25c-.4102,0-.75.3398-.75.75,0,.4199.3398.75.7598.75.4102,0,.7402-.3403.7402-.75,0-.4204-.3398-.75-.75-.75Z"/><path class="uuid-006c48db-5ccc-4eae-9308-e9c0e6a5a3a4" d="M15.75,19.02c0-.4204-.3398-.75-.75-.75-.4199.0098-.75.3496-.75.7598s.3398.7402.75.7402c.4199,0,.75-.3403.75-.75Z"/><path class="uuid-006c48db-5ccc-4eae-9308-e9c0e6a5a3a4" d="M15.6494,21.3101c-.29.2998-.29.7695,0,1.0596h.0107c.1396.1504.3301.2202.5195.2202.2002,0,.3896-.0698.54-.2202.29-.2998.29-.77-.0098-1.0596-.29-.29-.7705-.29-1.0605,0Z"/><path class="uuid-006c48db-5ccc-4eae-9308-e9c0e6a5a3a4" d="M22.9902,18.1997c-.4102.0103-.7402.3501-.7402.7603v.04c0,.4199.3398.75.75.75s.75-.3301.75-.75v-.0503c0-.4199-.3398-.75-.7598-.75Z"/><path class="uuid-006c48db-5ccc-4eae-9308-e9c0e6a5a3a4" d="M21.2998,21.29c-.29.2998-.29.77,0,1.0698.1504.1401.3398.21.5303.21.1895,0,.3896-.0698.5293-.2202.3008-.2896.3008-.7598,0-1.0596-.29-.29-.7598-.29-1.0596,0Z"/><path class="uuid-006c48db-5ccc-4eae-9308-e9c0e6a5a3a4" d="M21.2695,16.6797c.1504.1401.3398.21.5303.21.2002,0,.3896-.0698.54-.2197.29-.3003.2803-.77-.0205-1.0601-.2891-.29-.7695-.29-1.0596.0098-.2803.3003-.2803.77.0205,1.0601h-.0107Z"/><path class="uuid-006c48db-5ccc-4eae-9308-e9c0e6a5a3a4" d="M29.0686,13.191c-.0011-.0019-.0019-.0037-.003-.0056-.0515-.0885-.1243-.1535-.2051-.2053-.0088-.0057-.0125-.0164-.0217-.0217l-9.5264-5.5c-.1934-.1113-.4316-.1113-.625,0l-9.5264,5.5c-.0086.005-.0121.015-.0204.0204-.0814.0521-.1548.1174-.2064.2067-.0011.0018-.0018.0036-.0029.0055-.0505.0886-.0703.1836-.0747.2789-.0005.0106-.0081.0193-.0081.03v11c0,.0107.0075.0194.0081.03.0044.0953.0242.1903.0747.2789.054.0949.132.176.2297.2325l9.5264,5.5c.0967.0557.2051.0835.3125.0835s.2158-.0278.3125-.0835l9.5264-5.5c.0978-.0565.1757-.1376.2297-.2325.0505-.0886.0703-.1836.0747-.2789.0005-.0106.0081-.0193.0081-.03v-11c0-.0107-.0075-.0194-.0081-.03-.0044-.0953-.0242-.1903-.0747-.2789ZM27.9014,23.4177l-2.5889-1.4948c-.3018-.1753-.6826-.0703-.8535.2285-.1729.2988-.0703.6812.2285.8535l2.5891,1.495-7.6516,4.4176v-2.9175c0-.3452-.2803-.625-.625-.625s-.625.2798-.625.625v2.9175l-7.6516-4.4176,2.5891-1.495c.2988-.1724.4014-.5547.2285-.8535-.1719-.2983-.5518-.4033-.8535-.2285l-2.5889,1.4948v-8.8353l2.5889,1.4948c.0986.0571.2061.084.3115.084.2168,0,.4268-.1118.542-.3125.1729-.2988.0703-.6812-.2285-.8535l-2.5891-1.495,7.6516-4.4176v2.9175c0,.3452.2803.625.625.625s.625-.2798.625-.625v-2.9175l7.6516,4.4176-2.5891,1.495c-.2988.1724-.4014.5547-.2285.8535.1152.2007.3252.3125.542.3125.1055,0,.2129-.0269.3115-.084l2.5889-1.4948v8.8353Z"/></svg>