<?xml version="1.0" encoding="UTF-8"?><svg xmlns="http://www.w3.org/2000/svg" viewBox="0 0 38 38"><title>Red Hat build of MicroShift icon</title>
<desc>Cloud, MicroShift, tool</desc>
<metadata><?xpacket begin="﻿" id="W5M0MpCehiHzreSzNTczkc9d"?>
<x:xmpmeta xmlns:x="adobe:ns:meta/" x:xmptk="Adobe XMP Core 8.0-c001 1.000000, 0000/00/00-00:00:00        ">
   <rdf:RDF xmlns:rdf="http://www.w3.org/1999/02/22-rdf-syntax-ns#">
      <rdf:Description rdf:about=""
            xmlns:xmp="http://ns.adobe.com/xap/1.0/"
            xmlns:tiff="http://ns.adobe.com/tiff/1.0/"
            xmlns:dc="http://purl.org/dc/elements/1.1/"
            xmlns:xmpRights="http://ns.adobe.com/xap/1.0/rights/">
         <xmp:rhcc-effective-on>2024-07-10T21:14:23.818Z</xmp:rhcc-effective-on>
         <xmp:rhcc-rights-restricted>no</xmp:rhcc-rights-restricted>
         <xmp:brand-content-subtype>Technology icon</xmp:brand-content-subtype>
         <xmp:rhcc-metadata-complete-moderator>pending</xmp:rhcc-metadata-complete-moderator>
         <xmp:rhcc-translation-id>TRA5a9db8d6-0437-4caa-9464-98980ac3987c</xmp:rhcc-translation-id>
         <xmp:brand-content-type>Icon</xmp:brand-content-type>
         <xmp:CreateDate>2024-07-10T21:14:23.818Z</xmp:CreateDate>
         <xmp:rhcc-aspect-ratio>square</xmp:rhcc-aspect-ratio>
         <xmp:rhcc-derivative-id>DER5a9db8d6-0437-4caa-9464-98980ac3987c</xmp:rhcc-derivative-id>
         <xmp:rhcc-effective-on-set-on-upload>true</xmp:rhcc-effective-on-set-on-upload>
         <xmp:rhcc-uploaded-by>ryawilli@redhat.com</xmp:rhcc-uploaded-by>
         <xmp:brand-logo-color>Standard</xmp:brand-logo-color>
         <xmp:rhcc-metadata-complete-uploader>pending</xmp:rhcc-metadata-complete-uploader>
         <xmp:rhcc-file-last-modified>2024-07-13T00:26:50.269Z</xmp:rhcc-file-last-modified>
         <xmp:rhcc-audience>rhcc-audience:internal</xmp:rhcc-audience>
         <xmp:rhcc-notify-portal-subscribers-on-change>yes</xmp:rhcc-notify-portal-subscribers-on-change>
         <xmp:rhcc-product>
            <rdf:Bag>
               <rdf:li>rhcc-product:red-hat-device-edge</rdf:li>
            </rdf:Bag>
         </xmp:rhcc-product>
         <tiff:ImageLength>38</tiff:ImageLength>
         <tiff:ImageWidth>38</tiff:ImageWidth>
         <dc:format>image/svg+xml</dc:format>
         <dc:modified>2024-07-10T21:16:23.307Z</dc:modified>
         <dc:description>
            <rdf:Alt>
               <rdf:li xml:lang="x-default">Cloud, MicroShift, tool</rdf:li>
            </rdf:Alt>
         </dc:description>
         <dc:title>
            <rdf:Alt>
               <rdf:li xml:lang="x-default">Red Hat build of MicroShift icon</rdf:li>
            </rdf:Alt>
         </dc:title>
         <xmpRights:UsageTerms>
            <rdf:Alt>
               <rdf:li xml:lang="x-default">Use technology icons to represent Red Hat products and components. Do not remove the icon from the bounding shape.</rdf:li>
            </rdf:Alt>
         </xmpRights:UsageTerms>
      </rdf:Description>
   </rdf:RDF>
</x:xmpmeta>
                                                                                                    
                                                                                                    
                                                                                                    
                                                                                                    
                                                                                                    
                                                                                                    
                                                                                                    
                                                                                                    
                                                                                                    
                                                                                                    
                                                                                                    
                                                                                                    
                                                                                                    
                                                                                                    
                                                                                                    
                                                                                                    
                                                                                                    
                                                     
<?xpacket end="w"?></metadata>
<defs><style>.uuid-c3f25ac9-75da-49f1-a1a5-e73d106a9db3{fill:#e0e0e0;}.uuid-c3f25ac9-75da-49f1-a1a5-e73d106a9db3,.uuid-0e3b8ee7-d31a-4297-9ecd-641e96e1ce6c,.uuid-0725f769-b7a3-4b25-97ee-115ededf835c,.uuid-1be03999-4b4f-4c5d-80cc-548289d8013c{stroke-width:0px;}.uuid-0e3b8ee7-d31a-4297-9ecd-641e96e1ce6c{fill:#000;}.uuid-0725f769-b7a3-4b25-97ee-115ededf835c{fill:#e00;}.uuid-1be03999-4b4f-4c5d-80cc-548289d8013c{fill:#fff;}</style></defs><g id="uuid-12f262a9-34cd-4b8b-86e8-181778e72f95"><rect class="uuid-1be03999-4b4f-4c5d-80cc-548289d8013c" x="1" y="1" width="36" height="36" rx="9" ry="9"/><path class="uuid-c3f25ac9-75da-49f1-a1a5-e73d106a9db3" d="M28,2.25c4.2734,0,7.75,3.4766,7.75,7.75v18c0,4.2734-3.4766,7.75-7.75,7.75H10c-4.2734,0-7.75-3.4766-7.75-7.75V10c0-4.2734,3.4766-7.75,7.75-7.75h18M28,1H10C5.0294,1,1,5.0294,1,10v18c0,4.9706,4.0294,9,9,9h18c4.9706,0,9-4.0294,9-9V10c0-4.9706-4.0294-9-9-9h0Z"/></g><g id="uuid-b3382886-9a64-4b29-934f-51f2e670eefa"><path class="uuid-0725f769-b7a3-4b25-97ee-115ededf835c" d="M18.2598,23c0-.4102.3398-.75.75-.75h0c.4102,0,.75.3296.75.75h0c0,.4097-.3301.75-.7402.75h0c-.4199,0-.7598-.3301-.7598-.75ZM15.6602,22.3696h-.0107c-.29-.29-.29-.7598,0-1.0596h0c.29-.29.7705-.29,1.0605,0h0c.2998.2896.2998.7598.0098,1.0596h0c-.1504.1504-.3398.2202-.54.2202h0c-.1895,0-.3799-.0698-.5195-.2202ZM21.2998,22.3599c-.29-.2998-.29-.77,0-1.0698h0c.2998-.29.7695-.29,1.0596,0h0c.3008.2998.3008.77,0,1.0596h0c-.1396.1504-.3398.2202-.5293.2202h0c-.1904,0-.3799-.0698-.5303-.21ZM14.25,19.0298c0-.4102.3301-.75.75-.7598h0c.4102,0,.75.3296.75.75h0c0,.4097-.3301.75-.75.75h0c-.4102,0-.75-.3301-.75-.7402ZM22.25,19v-.02h0v-.02h0c0-.4102.3301-.75.7402-.7603h0c.4199,0,.7598.3301.7598.75h0v.0303h0v.02h0c0,.4199-.3398.75-.75.75h0c-.4102,0-.75-.3301-.75-.75ZM15.6299,16.73c-.2998-.29-.2998-.77-.0098-1.0601h0c.29-.3003.7598-.3003,1.0596-.0103h0c.29.29.2998.7603.0098,1.0601h0c-.1494.1499-.3398.2202-.54.2202h0c-.1895,0-.3799-.0703-.5195-.21ZM21.2695,16.6797h.0107c-.3008-.29-.3008-.7598-.0205-1.0601h0c.29-.2998.7705-.2998,1.0596-.0098h0c.3008.29.3105.7598.0205,1.0601h0c-.1504.1499-.3398.2197-.54.2197h0c-.1904,0-.3799-.0698-.5303-.21ZM18.21,15.0098c0-.4199.3398-.7598.75-.7598h0c.4102,0,.75.3296.7598.7397h0c0,.4199-.3301.7603-.75.7603h0c-.4102,0-.75-.3301-.7598-.7402Z"/><path class="uuid-0e3b8ee7-d31a-4297-9ecd-641e96e1ce6c" d="M29.1514,13.5c0-.0107-.0075-.0194-.0081-.03-.0044-.0953-.0242-.1903-.0747-.2789-.0011-.0019-.0019-.0037-.003-.0056-.0515-.0885-.1243-.1535-.2051-.2053-.0088-.0057-.0125-.0164-.0217-.0217l-9.5264-5.5c-.1934-.1113-.4316-.1113-.625,0l-9.5264,5.5c-.0086.005-.0121.015-.0204.0204-.0814.0521-.1548.1174-.2064.2067-.0011.0018-.0018.0036-.0029.0055-.0505.0886-.0703.1836-.0747.2789-.0005.0106-.0081.0193-.0081.03v11c0,.0107.0075.0194.0081.03.0044.0953.0242.1903.0747.2789.054.0949.132.176.2297.2325l9.5264,5.5c.0967.0557.2051.0835.3125.0835s.2158-.0278.3125-.0835l9.5264-5.5c.0978-.0565.1757-.1376.2297-.2325.0505-.0886.0703-.1836.0747-.2789.0005-.0106.0081-.0193.0081-.03v-11ZM25.3125,21.9229c-.3018-.1753-.6826-.0703-.8535.2285-.1729.2988-.0703.6812.2285.8535l2.5891,1.495-7.6516,4.4176v-2.9175c0-.3452-.2803-.625-.625-.625s-.625.2798-.625.625v2.9175l-7.6516-4.4176,2.5891-1.495c.2988-.1724.4014-.5547.2285-.8535-.1719-.2983-.5518-.4033-.8535-.2285l-2.5889,1.4948v-8.8353l2.5889,1.4948c.0986.0571.2061.084.3115.084.2168,0,.4268-.1118.542-.3125.1729-.2988.0703-.6812-.2285-.8535l-2.5891-1.495,7.6516-4.4176v2.9175c0,.3452.2803.625.625.625s.625-.2798.625-.625v-2.9175l7.6516,4.4176-2.5891,1.495c-.2988.1724-.4014.5547-.2285.8535.1152.2007.3252.3125.542.3125.1055,0,.2129-.0269.3115-.084l2.5889-1.4948v8.8353l-2.5889-1.4948Z"/></g></svg>