<?xml version="1.0" encoding="UTF-8"?>
<svg xmlns="http://www.w3.org/2000/svg" xmlns:xlink="http://www.w3.org/1999/xlink" viewBox="0 0 38 38">
  <title>operator icon</title>
<metadata><?xpacket begin="﻿" id="W5M0MpCehiHzreSzNTczkc9d"?>
<x:xmpmeta xmlns:x="adobe:ns:meta/" x:xmptk="Adobe XMP Core 8.0-c001 1.000000, 0000/00/00-00:00:00        ">
   <rdf:RDF xmlns:rdf="http://www.w3.org/1999/02/22-rdf-syntax-ns#">
      <rdf:Description rdf:about=""
            xmlns:tiff="http://ns.adobe.com/tiff/1.0/"
            xmlns:xmp="http://ns.adobe.com/xap/1.0/"
            xmlns:dc="http://purl.org/dc/elements/1.1/"
            xmlns:ns1="http://ns.adobe.com/aem/metadata-unspecified/repo"
            xmlns:xmpRights="http://ns.adobe.com/xap/1.0/rights/">
         <tiff:ImageWidth>38</tiff:ImageWidth>
         <tiff:ImageLength>38</tiff:ImageLength>
         <xmp:rhcc-audience>rhcc-audience:internal</xmp:rhcc-audience>
         <xmp:brand-content-subtype>Technology</xmp:brand-content-subtype>
         <xmp:brand-logo-color>Standard</xmp:brand-logo-color>
         <xmp:rhcc-file-last-modified>2025-04-10T15:31:27.282Z</xmp:rhcc-file-last-modified>
         <xmp:rhcc-notify-portal-subscribers-on-change>yes</xmp:rhcc-notify-portal-subscribers-on-change>
         <xmp:rhcc-aspect-ratio>square</xmp:rhcc-aspect-ratio>
         <xmp:brand-content-type>Icon</xmp:brand-content-type>
         <xmp:rhcc-rights-restricted>no</xmp:rhcc-rights-restricted>
         <xmp:brand-colorway>
            <rdf:Bag>
               <rdf:li>colorway:standard</rdf:li>
            </rdf:Bag>
         </xmp:brand-colorway>
         <xmp:brand-subtype>
            <rdf:Bag>
               <rdf:li>Technology icon</rdf:li>
            </rdf:Bag>
         </xmp:brand-subtype>
         <dc:format>image/svg+xml</dc:format>
         <dc:modified>2025-04-10T15:31:45.315Z</dc:modified>
         <dc:title>
            <rdf:Alt>
               <rdf:li xml:lang="x-default">operator icon</rdf:li>
            </rdf:Alt>
         </dc:title>
         <ns1:encoding>utf-8</ns1:encoding>
         <xmpRights:UsageTerms>
            <rdf:Alt>
               <rdf:li xml:lang="x-default">Use this operator icon to represent operators of an existing Red Hat offering.</rdf:li>
            </rdf:Alt>
         </xmpRights:UsageTerms>
      </rdf:Description>
   </rdf:RDF>
</x:xmpmeta>
                                                                                                    
                                                                                                    
                                                                                                    
                                                                                                    
                                                                                                    
                                                                                                    
                                                                                                    
                                                                                                    
                                                                                                    
                                                                                                    
                                                       
<?xpacket end="w"?></metadata>
<defs>
    <style>
      .uuid-9a384eaf-4e55-4596-acc3-b957892aafc6 {
        fill: none;
      }

      .uuid-31684155-c60d-419a-a313-4c14a9d6a9e4 {
        fill: #e0e0e0;
      }

      .uuid-0f60219e-c16f-47b4-bc03-ca4b27e843db {
        clip-path: url(#uuid-f3b14973-28be-4614-bc76-0e5533c530a3);
      }

      .uuid-77dea15f-34c2-4aeb-96d6-4a13086b8d7f {
        fill: #fff;
      }

      .uuid-035d80d9-cf20-4a77-bc96-8a8e6c99ffbd {
        fill: #e00;
      }
    </style>
    <clipPath id="uuid-f3b14973-28be-4614-bc76-0e5533c530a3">
      <path class="uuid-9a384eaf-4e55-4596-acc3-b957892aafc6" d="M11.375,5.3749v27.2501h11.2058V5.3749h-11.2058ZM19.6694,27.9827l-1.0581,2.28c-.106.2285-.3315.3623-.5674.3623-.0879,0-.1772-.0186-.2627-.0576-.313-.1455-.4492-.5176-.3037-.8301l2.1498-4.6325.0421.0495v2.8284Z"/>
    </clipPath>
  </defs>
  <g id="uuid-059f1ce5-3c03-411c-a9c0-185e8fc8d635" data-name="Bounding shape">
    <rect class="uuid-77dea15f-34c2-4aeb-96d6-4a13086b8d7f" x="1" y="1" width="36" height="36" rx="9" ry="9"/>
    <path class="uuid-31684155-c60d-419a-a313-4c14a9d6a9e4" d="M28,2.25c4.2734,0,7.75,3.4766,7.75,7.75v18c0,4.2734-3.4766,7.75-7.75,7.75H10c-4.2734,0-7.75-3.4766-7.75-7.75V10c0-4.2734,3.4766-7.75,7.75-7.75h18M28,1H10C5.0294,1,1,5.0294,1,10v18c0,4.9706,4.0294,9,9,9h18c4.9706,0,9-4.0294,9-9V10c0-4.9706-4.0294-9-9-9h0Z"/>
  </g>
  <g id="uuid-61520082-3bc1-41b8-bdd3-a14836096db8" data-name="Icons">
    <g>
      <path class="uuid-035d80d9-cf20-4a77-bc96-8a8e6c99ffbd" d="M18.0444,30.625c-.3452,0-.625-.2803-.625-.625v-8.542h-3.4194c-.2134,0-.4121-.1084-.5269-.2891-.1147-.1797-.1299-.4053-.04-.5986l5.9556-12.8335c.1455-.3135.5156-.4487.8301-.3037.313.1455.4492.5171.3037.8301l-5.5435,11.9448h3.0654c.3452,0,.625.2803.625.625v9.167c0,.3447-.2798.625-.625.625Z"/>
      <path d="M18.0439,30.625c-.0879,0-.1772-.0186-.2627-.0576-.313-.1455-.4492-.5176-.3037-.8301l5.5435-11.9453h-3.0654c-.3452,0-.625-.2803-.625-.625v-9.167c0-.3452.2798-.625.625-.625s.625.2798.625.625v8.542h3.4194c.2134,0,.4121.1084.5269.2891.1147.1797.1299.4053.04.5986l-5.9556,12.833c-.106.2285-.3315.3623-.5674.3623Z"/>
      <g class="uuid-0f60219e-c16f-47b4-bc03-ca4b27e843db">
        <path class="uuid-035d80d9-cf20-4a77-bc96-8a8e6c99ffbd" d="M18.0444,30.625c-.3452,0-.625-.2803-.625-.625v-8.542h-3.4194c-.2134,0-.4121-.1084-.5269-.2891-.1147-.1797-.1299-.4053-.04-.5986l5.9556-12.8335c.1455-.3135.5156-.4487.8301-.3037.313.1455.4492.5171.3037.8301l-5.5435,11.9448h3.0654c.3452,0,.625.2803.625.625v9.167c0,.3447-.2798.625-.625.625Z"/>
      </g>
    </g>
  </g>
</svg>