<?xml version="1.0" encoding="UTF-8"?><svg id="uuid-c59df23e-b0e8-4b64-8f92-2c428f9c00d4" xmlns="http://www.w3.org/2000/svg" viewBox="0 0 38 38"><title>Red Hat AI icon</title>
<desc>artificial intelligence, Red Hat Enterprise Linux AI, Red Hat OpenShift AI, RHEL AI, machine learning</desc>
<metadata><?xpacket begin="﻿" id="W5M0MpCehiHzreSzNTczkc9d"?>
<x:xmpmeta xmlns:x="adobe:ns:meta/" x:xmptk="Adobe XMP Core 8.0-c001 1.000000, 0000/00/00-00:00:00        ">
   <rdf:RDF xmlns:rdf="http://www.w3.org/1999/02/22-rdf-syntax-ns#">
      <rdf:Description rdf:about=""
            xmlns:xmp="http://ns.adobe.com/xap/1.0/"
            xmlns:tiff="http://ns.adobe.com/tiff/1.0/"
            xmlns:dc="http://purl.org/dc/elements/1.1/"
            xmlns:xmpRights="http://ns.adobe.com/xap/1.0/rights/">
         <xmp:brand-content-subtype>Technology</xmp:brand-content-subtype>
         <xmp:rhcc-file-last-modified>2025-03-12T19:39:59.681Z</xmp:rhcc-file-last-modified>
         <xmp:brand-logo-color>Black</xmp:brand-logo-color>
         <xmp:rhcc-aspect-ratio>square</xmp:rhcc-aspect-ratio>
         <xmp:rhcc-rights-restricted>no</xmp:rhcc-rights-restricted>
         <xmp:brand-content-type>Icon</xmp:brand-content-type>
         <xmp:rhcc-audience>rhcc-audience:internal</xmp:rhcc-audience>
         <xmp:rhcc-notify-portal-subscribers-on-change>yes</xmp:rhcc-notify-portal-subscribers-on-change>
         <xmp:rhcc-product>
            <rdf:Bag>
               <rdf:li>rhcc-product:red-hat-ai</rdf:li>
               <rdf:li>rhcc-product:red-hat-enterprise-linux-ai</rdf:li>
               <rdf:li>rhcc-product:red-hat-openshift-ai</rdf:li>
            </rdf:Bag>
         </xmp:rhcc-product>
         <xmp:rhcc-topics>
            <rdf:Bag>
               <rdf:li>rhcc-topics:artificial-intelligence</rdf:li>
            </rdf:Bag>
         </xmp:rhcc-topics>
         <xmp:brand-colorway>
            <rdf:Bag>
               <rdf:li>colorway:black</rdf:li>
            </rdf:Bag>
         </xmp:brand-colorway>
         <xmp:brand-subtype>
            <rdf:Bag>
               <rdf:li>Technology icon</rdf:li>
            </rdf:Bag>
         </xmp:brand-subtype>
         <tiff:ImageWidth>38</tiff:ImageWidth>
         <tiff:ImageLength>38</tiff:ImageLength>
         <dc:modified>2025-03-12T19:43:41.787Z</dc:modified>
         <dc:format>image/svg+xml</dc:format>
         <dc:description>
            <rdf:Alt>
               <rdf:li xml:lang="x-default">artificial intelligence, Red Hat Enterprise Linux AI, Red Hat OpenShift AI, RHEL AI, machine learning</rdf:li>
            </rdf:Alt>
         </dc:description>
         <dc:title>
            <rdf:Alt>
               <rdf:li xml:lang="x-default">Red Hat AI icon</rdf:li>
            </rdf:Alt>
         </dc:title>
         <xmpRights:UsageTerms>
            <rdf:Alt>
               <rdf:li xml:lang="x-default">Use technology icons to represent Red Hat products and components. Do not remove the icon from the bounding shape.</rdf:li>
            </rdf:Alt>
         </xmpRights:UsageTerms>
      </rdf:Description>
   </rdf:RDF>
</x:xmpmeta>
                                                                                                    
                                                                                                    
                                                                                                    
                                                                                                    
                                                                                                    
                                          
<?xpacket end="w"?></metadata>
<path d="M28,1H10C5.0294,1,1,5.0294,1,10v18c0,4.9706,4.0294,9,9,9h18c4.9706,0,9-4.0294,9-9V10c0-4.9706-4.0294-9-9-9ZM10.9336,16.3237c3.8545-.4277,6.9629-3.5356,7.3896-7.3901.0352-.3164.3584-.6108.6768-.6108.3438,0,.6348.2603.6758.6045.4277,3.8608,3.5361,6.9688,7.3906,7.3965.3164.0352.6104.3579.6104.6763,0,.3486-.2637.6392-.6133.6768-3.8516.4272-6.96,3.5352-7.3867,7.3896-.0352.3164-.3584.6108-.6768.6108-.3438,0-.6348-.2603-.6758-.6045-.2275-2.0508-1.2002-3.936-2.7412-5.3145-.2568-.2305-.2793-.6255-.0488-.8828.2295-.2563.627-.2783.8828-.0488,1.1621,1.04,2.043,2.3315,2.585,3.7612.9795-2.5576,3.0322-4.6094,5.5938-5.5879-2.5625-.98-4.6162-3.0332-5.5957-5.5947-1.2607,3.2998-4.3076,5.7593-7.9277,6.1606-.3359.0479-.6523-.2085-.6904-.5522-.0381-.3433.209-.6519.5518-.6899ZM29.2041,24.0464l-9.9004,5.5c-.0947.0522-.1992.0786-.3037.0786s-.209-.0264-.3037-.0786l-9.9004-5.5c-.1982-.1104-.3213-.3193-.3213-.5464s.123-.436.3213-.5464l3.9004-2.1665c.3037-.1675.6836-.0586.8496.2427.168.3018.0596.6826-.2422.8501l-2.917,1.6201,8.6133,4.7852,8.6133-4.7852-2.917-1.6201c-.3018-.1675-.4102-.5483-.2422-.8501.166-.3013.5449-.4102.8496-.2427l3.9004,2.1665c.1982.1104.3213.3193.3213.5464s-.123.436-.3213.5464Z"/></svg>