<?xml version="1.0" encoding="UTF-8"?><svg id="uuid-852c9f05-f42f-4615-a858-544f406b9a5a" xmlns="http://www.w3.org/2000/svg" width="36" height="36" viewBox="0 0 36 36"><title>Frozen food packaging icon</title>
<desc>frozen, food, packaging, freezer, recycle, waste, GWS, signage</desc>
<metadata><?xpacket begin="﻿" id="W5M0MpCehiHzreSzNTczkc9d"?>
<x:xmpmeta xmlns:x="adobe:ns:meta/" x:xmptk="Adobe XMP Core 8.0-c001 1.000000, 0000/00/00-00:00:00        ">
   <rdf:RDF xmlns:rdf="http://www.w3.org/1999/02/22-rdf-syntax-ns#">
      <rdf:Description rdf:about=""
            xmlns:dc="http://purl.org/dc/elements/1.1/"
            xmlns:tiff="http://ns.adobe.com/tiff/1.0/"
            xmlns:xmp="http://ns.adobe.com/xap/1.0/">
         <dc:modified>2025-09-09T20:35:11.739Z</dc:modified>
         <dc:format>image/svg+xml</dc:format>
         <dc:description>
            <rdf:Alt>
               <rdf:li xml:lang="x-default">frozen, food, packaging, freezer, recycle, waste, GWS, signage</rdf:li>
            </rdf:Alt>
         </dc:description>
         <dc:title>
            <rdf:Alt>
               <rdf:li xml:lang="x-default">Frozen food packaging icon</rdf:li>
            </rdf:Alt>
         </dc:title>
         <tiff:ImageLength>36</tiff:ImageLength>
         <tiff:ImageWidth>36</tiff:ImageWidth>
         <xmp:rhcc-rights-restricted>no</xmp:rhcc-rights-restricted>
         <xmp:brand-content-subtype>Icon</xmp:brand-content-subtype>
         <xmp:rhcc-file-last-modified>2025-09-09T20:30:14.691Z</xmp:rhcc-file-last-modified>
         <xmp:brand-content-type>Icon</xmp:brand-content-type>
         <xmp:brand-colorway>
            <rdf:Bag>
               <rdf:li>colorway:red</rdf:li>
            </rdf:Bag>
         </xmp:brand-colorway>
      </rdf:Description>
   </rdf:RDF>
</x:xmpmeta>
                                                                                                    
                                                                                                    
                                                                                                    
                                                                                                    
                                                                                                    
                                                                                                    
                                                                                                    
                                                                                                    
                                                                                                    
                                                                                                    
                                                                                                    
                                                                                                    
                                                                                                    
                                                                                                    
                                                                                                    
                                                                                                    
                                                                                                    
                                                                                                    
                                                                              
<?xpacket end="w"?></metadata>
<defs><style>.uuid-a2856370-1743-4b8e-9b65-2c0ddcd9ee09{fill:#e00;}</style></defs><path class="uuid-a2856370-1743-4b8e-9b65-2c0ddcd9ee09" d="M8,25.625h7c.34521,0,.625-.28027.625-.625v-5c0-.34473-.27979-.625-.625-.625h-7c-.34521,0-.625.28027-.625.625v5c0,.34473.27979.625.625.625ZM8.625,20.625h5.75v3.75h-5.75v-3.75Z"/><path class="uuid-a2856370-1743-4b8e-9b65-2c0ddcd9ee09" d="M18,25.625h6c.81654-.00378.8178-1.24616-.00004-1.25.00004,0-5.37496,0-5.37496,0v-11.75h8.75v8.375c.00116.81427,1.24764.819,1.25-.00004,0,.00004,0-8.99996,0-8.99996,0-.34473-.27979-.625-.625-.625h-10c-.34521,0-.625.28027-.625.625v13c0,.34473.27979.625.625.625Z"/><path class="uuid-a2856370-1743-4b8e-9b65-2c0ddcd9ee09" d="M8,17.625h7c.34521,0,.625-.28027.625-.625v-5c0-.34473-.27979-.625-.625-.625h-7c-.34521,0-.625.28027-.625.625v5c0,.34473.27979.625.625.625ZM8.625,12.625h5.75v3.75h-5.75v-3.75Z"/><path class="uuid-a2856370-1743-4b8e-9b65-2c0ddcd9ee09" d="M29,8.375H7c-1.44727,0-2.625,1.17773-2.625,2.625v15c0,1.44727,1.17773,2.625,2.625,2.625h22c1.44727,0,2.625-1.17773,2.625-2.625v-15c0-1.44727-1.17773-2.625-2.625-2.625ZM5.625,26v-15c0-.75781.6167-1.375,1.375-1.375h22c.7583,0,1.375.61719,1.375,1.375v9.74072l-6.63428,6.63428H7c-.7583,0-1.375-.61719-1.375-1.375ZM29,27.375h-3.49072l4.86572-4.86572v3.49072c0,.75781-.6167,1.375-1.375,1.375Z"/></svg>