<?xml version="1.0" encoding="UTF-8"?><svg id="uuid-3232f8ca-25ed-4ca9-b1a9-c8a3e03ab0ad" xmlns="http://www.w3.org/2000/svg" width="36" height="36" viewBox="0 0 36 36"><title>Coffee pot icon</title>
<desc>coffee, pot, hot liquids, boil, recycle, waste, GWS, signage</desc>
<metadata><?xpacket begin="﻿" id="W5M0MpCehiHzreSzNTczkc9d"?>
<x:xmpmeta xmlns:x="adobe:ns:meta/" x:xmptk="Adobe XMP Core 8.0-c001 1.000000, 0000/00/00-00:00:00        ">
   <rdf:RDF xmlns:rdf="http://www.w3.org/1999/02/22-rdf-syntax-ns#">
      <rdf:Description rdf:about=""
            xmlns:dc="http://purl.org/dc/elements/1.1/"
            xmlns:tiff="http://ns.adobe.com/tiff/1.0/"
            xmlns:xmp="http://ns.adobe.com/xap/1.0/">
         <dc:modified>2025-09-11T00:35:22.207Z</dc:modified>
         <dc:format>image/svg+xml</dc:format>
         <dc:description>
            <rdf:Alt>
               <rdf:li xml:lang="x-default">coffee, pot, hot liquids, boil, recycle, waste, GWS, signage</rdf:li>
            </rdf:Alt>
         </dc:description>
         <dc:title>
            <rdf:Alt>
               <rdf:li xml:lang="x-default">Coffee pot icon</rdf:li>
            </rdf:Alt>
         </dc:title>
         <tiff:ImageLength>36</tiff:ImageLength>
         <tiff:ImageWidth>36</tiff:ImageWidth>
         <xmp:rhcc-rights-restricted>no</xmp:rhcc-rights-restricted>
         <xmp:brand-content-subtype>Icon</xmp:brand-content-subtype>
         <xmp:rhcc-file-last-modified>2025-09-11T00:31:59.561Z</xmp:rhcc-file-last-modified>
         <xmp:brand-content-type>Icon</xmp:brand-content-type>
         <xmp:brand-colorway>
            <rdf:Bag>
               <rdf:li>colorway:red</rdf:li>
            </rdf:Bag>
         </xmp:brand-colorway>
      </rdf:Description>
   </rdf:RDF>
</x:xmpmeta>
                                                                                                    
                                                                                                    
                                                                                                    
                                                                                                    
                                                                                                    
                                                                                                    
                                                                                                    
                                                                                                    
                                                                                                    
                                                                                                    
                                                                                                    
                                                                                                    
                                                                                                    
                                                                                                    
                                                                                                    
                                                                                                    
                                                                                                    
                                                                                                    
                                                                              
<?xpacket end="w"?></metadata>
<defs><style>.uuid-e6f75555-1ad8-42fc-8f41-e76cfc470b41{fill:#e00;}</style></defs><path class="uuid-e6f75555-1ad8-42fc-8f41-e76cfc470b41" d="M22.97363,13.47949c-.10254-.06836-.22266-.10449-.3457-.10449h-13.25586c-.12305,0-.24316.03613-.3457.10449-3.53857,2.34961-5.65137,6.2832-5.65137,10.52051,0,2.20703.58887,4.39062,1.70264,6.31348.11182.19238.31787.31152.54102.31152h20.7627c.22314,0,.4292-.11914.54102-.31152,1.11377-1.92285,1.70264-4.10645,1.70264-6.31348,0-4.2373-2.11279-8.1709-5.65137-10.52051ZM26.01465,29.375H5.98535c-.89111-1.65527-1.36035-3.50586-1.36035-5.375,0-.48846.0343-.97168.09534-1.44873.08508.04346.17755.07373.27966.07373h6c.34521,0,.625-.28027.625-.625s-.27979-.625-.625-.625h-6c-.02283,0-.04218.01062-.06433.013.6416-2.7215,2.2663-5.13922,4.62781-6.763h12.87305c2.36151,1.62378,3.98621,4.0415,4.62781,6.763-.02216-.00238-.0415-.013-.06433-.013h-4c-.34521,0-.625.28027-.625.625s.27979.625.625.625h4c.10211,0,.19458-.03027.27966-.07373.06104.47705.09534.96027.09534,1.44873,0,1.86914-.46924,3.71973-1.36035,5.375Z"/><path class="uuid-e6f75555-1ad8-42fc-8f41-e76cfc470b41" d="M27,7.375h-3.375v-1.375c0-.34473-.27979-.625-.625-.625H5c-.34521,0-.625.28027-.625.625v1c0,.16602.06592.3252.18311.44238l4,4c.11719.11719.27637.18262.44189.18262h14c.34521,0,.625-.28027.625-.625v-2.375h3.375c1.86084,0,3.375,1.51367,3.375,3.375v4c0,.34473.27979.625.625.625s.625-.28027.625-.625v-4c0-2.5498-2.07471-4.625-4.625-4.625ZM22.375,10.375h-13.11621l-3.63379-3.63379v-.11621h16.75v3.75Z"/><path class="uuid-e6f75555-1ad8-42fc-8f41-e76cfc470b41" d="M19,25.375h-4c-.34521,0-.625.28027-.625.625s.27979.625.625.625h4c.34521,0,.625-.28027.625-.625s-.27979-.625-.625-.625Z"/><path class="uuid-e6f75555-1ad8-42fc-8f41-e76cfc470b41" d="M19,21.375h-4c-.34521,0-.625.28027-.625.625s.27979.625.625.625h4c.34521,0,.625-.28027.625-.625s-.27979-.625-.625-.625Z"/><path class="uuid-e6f75555-1ad8-42fc-8f41-e76cfc470b41" d="M19,17.375h-4c-.34521,0-.625.28027-.625.625s.27979.625.625.625h4c.34521,0,.625-.28027.625-.625s-.27979-.625-.625-.625Z"/></svg>