<?xml version="1.0" encoding="UTF-8"?><svg id="uuid-eb723d22-643b-4053-9e4a-23559aef6f07" xmlns="http://www.w3.org/2000/svg" viewBox="0 0 38 38"><title>Automation content navigator icon</title>
<desc>Management, Ansible</desc>
<metadata><?xpacket begin="﻿" id="W5M0MpCehiHzreSzNTczkc9d"?>
<x:xmpmeta xmlns:x="adobe:ns:meta/" x:xmptk="Adobe XMP Core 8.0-c001 1.000000, 0000/00/00-00:00:00        ">
   <rdf:RDF xmlns:rdf="http://www.w3.org/1999/02/22-rdf-syntax-ns#">
      <rdf:Description rdf:about=""
            xmlns:xmp="http://ns.adobe.com/xap/1.0/"
            xmlns:dc="http://purl.org/dc/elements/1.1/"
            xmlns:cq="http://www.day.com/jcr/cq/1.0"
            xmlns:tiff="http://ns.adobe.com/tiff/1.0/"
            xmlns:xmpRights="http://ns.adobe.com/xap/1.0/rights/">
         <xmp:rhcc-effective-on>2024-03-01T15:25:53.321Z</xmp:rhcc-effective-on>
         <xmp:rhcc-metadata-complete-moderator>pending</xmp:rhcc-metadata-complete-moderator>
         <xmp:rhcc-translation-id>TRAe08edf68-e014-4432-9f83-ec85454c9243</xmp:rhcc-translation-id>
         <xmp:brand-content-type>Icon</xmp:brand-content-type>
         <xmp:CreateDate>2024-03-01T15:25:53.321Z</xmp:CreateDate>
         <xmp:rhcc-aspect-ratio>square</xmp:rhcc-aspect-ratio>
         <xmp:rhcc-effective-on-set-on-upload>true</xmp:rhcc-effective-on-set-on-upload>
         <xmp:rhcc-published-asset-email-sent>true</xmp:rhcc-published-asset-email-sent>
         <xmp:rhcc-metadata-complete-uploader>pending</xmp:rhcc-metadata-complete-uploader>
         <xmp:rhcc-file-last-modified>2024-07-13T00:01:05.662Z</xmp:rhcc-file-last-modified>
         <xmp:rhcc-audience>rhcc-audience:internal</xmp:rhcc-audience>
         <xmp:rhcc-rights-restricted>no</xmp:rhcc-rights-restricted>
         <xmp:brand-content-subtype>Technology icon</xmp:brand-content-subtype>
         <xmp:rhcc-derivative-id>DERe08edf68-e014-4432-9f83-ec85454c9243</xmp:rhcc-derivative-id>
         <xmp:rhcc-uploaded-by>pmeilleu@redhat.com</xmp:rhcc-uploaded-by>
         <xmp:brand-logo-color>White</xmp:brand-logo-color>
         <xmp:rhcc-notify-portal-subscribers-on-change>yes</xmp:rhcc-notify-portal-subscribers-on-change>
         <xmp:rhcc-product>
            <rdf:Bag>
               <rdf:li>rhcc-product:red-hat-ansible-automation-platform</rdf:li>
            </rdf:Bag>
         </xmp:rhcc-product>
         <xmp:brand-subtype>
            <rdf:Bag>
               <rdf:li>Technology icon</rdf:li>
            </rdf:Bag>
         </xmp:brand-subtype>
         <dc:format>image/svg+xml</dc:format>
         <dc:modified>2024-05-10T12:31:17.992Z</dc:modified>
         <dc:title>
            <rdf:Alt>
               <rdf:li xml:lang="x-default">Automation content navigator icon</rdf:li>
            </rdf:Alt>
         </dc:title>
         <dc:description>
            <rdf:Alt>
               <rdf:li xml:lang="x-default">Management, Ansible</rdf:li>
            </rdf:Alt>
         </dc:description>
         <cq:lastReplicationAction_scene7>Activate</cq:lastReplicationAction_scene7>
         <cq:lastReplicationAction_publish>Activate</cq:lastReplicationAction_publish>
         <cq:lastReplicated_publish>2024-10-02T19:50:40.777Z</cq:lastReplicated_publish>
         <cq:lastReplicatedBy>workflow-process-service</cq:lastReplicatedBy>
         <cq:lastReplicationAction>Activate</cq:lastReplicationAction>
         <cq:lastReplicatedBy_publish>workflow-process-service</cq:lastReplicatedBy_publish>
         <cq:isDelivered>false</cq:isDelivered>
         <cq:lastReplicated>2024-10-02T19:50:40.777Z</cq:lastReplicated>
         <cq:lastReplicatedBy_scene7>workflow-process-service</cq:lastReplicatedBy_scene7>
         <cq:lastReplicated_scene7>2024-10-02T19:50:40.777Z</cq:lastReplicated_scene7>
         <tiff:ImageLength>38</tiff:ImageLength>
         <tiff:ImageWidth>38</tiff:ImageWidth>
         <xmpRights:UsageTerms>
            <rdf:Alt>
               <rdf:li xml:lang="x-default">Use technology icons to represent Red Hat products and components. Do not remove the icon from the bounding shape.</rdf:li>
            </rdf:Alt>
         </xmpRights:UsageTerms>
      </rdf:Description>
   </rdf:RDF>
</x:xmpmeta>
                                                                                                    
                                                                                                    
                                                                                                    
                                                                                                    
                                                                                                    
                                                                                                    
                                                                                                    
                                                                                                    
                                                                                                    
                                                                                                    
                                                                                                    
                                                                                                    
                                                                                                    
                                                                                                    
                                                                                                    
                                                                                                    
                                                      
<?xpacket end="w"?></metadata>
<defs><style>.uuid-6efc8131-415d-4049-9a17-dc5fab48fe7a{fill:#fff;}</style></defs><path class="uuid-6efc8131-415d-4049-9a17-dc5fab48fe7a" d="m28,.89948H10C5.02942.89948,1,4.92896,1,9.89948v18c0,4.97058,4.02942,9,9,9h18c4.97058,0,9-4.02942,9-9V9.89948c0-4.97052-4.02942-9-9-9Zm7.75,27c0,4.27338-3.47668,7.75-7.75,7.75H10c-4.27332,0-7.75-3.47662-7.75-7.75V9.89948c0-4.27338,3.47668-7.75,7.75-7.75h18c4.27332,0,7.75,3.47662,7.75,7.75v18Z"/><path class="uuid-6efc8131-415d-4049-9a17-dc5fab48fe7a" d="m28,12.27441h-11c-.34473,0-.625.28027-.625.625s.28027.625.625.625h10.375v10.75h-15.75v-3.375c0-.34473-.28027-.625-.625-.625s-.625.28027-.625.625v4c0,.34473.28027.625.625.625h17c.34473,0,.625-.28027.625-.625v-12c0-.34473-.28027-.625-.625-.625Z"/><path class="uuid-6efc8131-415d-4049-9a17-dc5fab48fe7a" d="m25,16.52441c.34473,0,.625-.28027.625-.625s-.28027-.625-.625-.625h-1c-.34473,0-.625.28027-.625.625s.28027.625.625.625h1Z"/><path class="uuid-6efc8131-415d-4049-9a17-dc5fab48fe7a" d="m21,15.27441h-3c-.34473,0-.625.28027-.625.625s.28027.625.625.625h3c.34473,0,.625-.28027.625-.625s-.28027-.625-.625-.625Z"/><path class="uuid-6efc8131-415d-4049-9a17-dc5fab48fe7a" d="m20.375,18.89941c0,.34473.28027.625.625.625h4c.34473,0,.625-.28027.625-.625s-.28027-.625-.625-.625h-4c-.34473,0-.625.28027-.625.625Z"/><path class="uuid-6efc8131-415d-4049-9a17-dc5fab48fe7a" d="m16.375,18.89941c0,.34473.28027.625.625.625h1c.34473,0,.625-.28027.625-.625s-.28027-.625-.625-.625h-1c-.34473,0-.625.28027-.625.625Z"/><path class="uuid-6efc8131-415d-4049-9a17-dc5fab48fe7a" d="m25,21.27441h-1c-.34473,0-.625.28027-.625.625s.28027.625.625.625h1c.34473,0,.625-.28027.625-.625s-.28027-.625-.625-.625Z"/><path class="uuid-6efc8131-415d-4049-9a17-dc5fab48fe7a" d="m18,21.27441c-.34473,0-.625.28027-.625.625s.28027.625.625.625h3c.34473,0,.625-.28027.625-.625s-.28027-.625-.625-.625h-3Z"/><path class="uuid-6efc8131-415d-4049-9a17-dc5fab48fe7a" d="m15,21.27441h-1c-.34473,0-.625.28027-.625.625s.28027.625.625.625h1c.34473,0,.625-.28027.625-.625s-.28027-.625-.625-.625Z"/><path class="uuid-6efc8131-415d-4049-9a17-dc5fab48fe7a" d="m11.375,18.89941c0,.34473.28027.625.625.625s.625-.28027.625-.625v-.77124c.44336-.08569.8562-.25732,1.21704-.50189l.5437.54364c.12207.12207.28223.18262.44238.18262s.32031-.06055.44238-.18262c.24316-.24414.24316-.64062,0-.88477l-.5437-.54364c.24463-.36096.41626-.7738.50195-1.2171h.77124c.34473,0,.625-.28027.625-.625s-.28027-.625-.625-.625h-.77124c-.08569-.4433-.25732-.85614-.50195-1.2171l.5437-.54364c.24316-.24414.24316-.64062,0-.88477-.24414-.24414-.64062-.24414-.88477,0l-.5437.54364c-.36084-.24457-.77368-.4162-1.21704-.50189v-.77124c0-.34473-.28027-.625-.625-.625s-.625.28027-.625.625v.77124c-.44336.08569-.8562.25732-1.21704.50189l-.5437-.54364c-.24414-.24414-.64062-.24414-.88477,0-.24316.24414-.24316.64062,0,.88477l.5437.54364c-.24463.36096-.41626.7738-.50195,1.2171h-.77124c-.34473,0-.625.28027-.625.625s.28027.625.625.625h.77124c.08569.4433.25732.85614.50195,1.2171l-.5437.54364c-.24316.24414-.24316.64062,0,.88477.12207.12207.28223.18262.44238.18262s.32031-.06055.44238-.18262l.5437-.54364c.36084.24457.77368.4162,1.21704.50189v.77124Zm-1.41699-4c0-1.12598.91602-2.04199,2.04199-2.04199s2.04199.91602,2.04199,2.04199-.91602,2.04199-2.04199,2.04199-2.04199-.91602-2.04199-2.04199Z"/></svg>