<?xml version="1.0" encoding="UTF-8"?><svg id="uuid-2ad24b9f-0d9f-4ddd-8709-09ccacfc8f5d" xmlns="http://www.w3.org/2000/svg" viewBox="0 0 38 38"><title>Automation content navigator icon</title>
<desc>Management, Ansible</desc>
<metadata><?xpacket begin="﻿" id="W5M0MpCehiHzreSzNTczkc9d"?>
<x:xmpmeta xmlns:x="adobe:ns:meta/" x:xmptk="Adobe XMP Core 8.0-c001 1.000000, 0000/00/00-00:00:00        ">
   <rdf:RDF xmlns:rdf="http://www.w3.org/1999/02/22-rdf-syntax-ns#">
      <rdf:Description rdf:about=""
            xmlns:xmp="http://ns.adobe.com/xap/1.0/"
            xmlns:dc="http://purl.org/dc/elements/1.1/"
            xmlns:cq="http://www.day.com/jcr/cq/1.0"
            xmlns:tiff="http://ns.adobe.com/tiff/1.0/"
            xmlns:xmpRights="http://ns.adobe.com/xap/1.0/rights/">
         <xmp:rhcc-effective-on>2024-03-01T15:25:52.716Z</xmp:rhcc-effective-on>
         <xmp:rhcc-metadata-complete-moderator>pending</xmp:rhcc-metadata-complete-moderator>
         <xmp:rhcc-translation-id>TRA1b6439e7-a6c4-439f-a96b-af217a584b85</xmp:rhcc-translation-id>
         <xmp:brand-content-type>Icon</xmp:brand-content-type>
         <xmp:CreateDate>2024-03-01T15:25:52.716Z</xmp:CreateDate>
         <xmp:rhcc-aspect-ratio>square</xmp:rhcc-aspect-ratio>
         <xmp:rhcc-effective-on-set-on-upload>true</xmp:rhcc-effective-on-set-on-upload>
         <xmp:rhcc-published-asset-email-sent>true</xmp:rhcc-published-asset-email-sent>
         <xmp:rhcc-metadata-complete-uploader>pending</xmp:rhcc-metadata-complete-uploader>
         <xmp:rhcc-file-last-modified>2024-07-13T00:01:25.655Z</xmp:rhcc-file-last-modified>
         <xmp:rhcc-audience>rhcc-audience:internal</xmp:rhcc-audience>
         <xmp:rhcc-rights-restricted>no</xmp:rhcc-rights-restricted>
         <xmp:brand-content-subtype>Technology icon</xmp:brand-content-subtype>
         <xmp:rhcc-derivative-id>DER1b6439e7-a6c4-439f-a96b-af217a584b85</xmp:rhcc-derivative-id>
         <xmp:rhcc-uploaded-by>pmeilleu@redhat.com</xmp:rhcc-uploaded-by>
         <xmp:brand-logo-color>Standard</xmp:brand-logo-color>
         <xmp:rhcc-notify-portal-subscribers-on-change>yes</xmp:rhcc-notify-portal-subscribers-on-change>
         <xmp:rhcc-product>
            <rdf:Bag>
               <rdf:li>rhcc-product:red-hat-ansible-automation-platform</rdf:li>
            </rdf:Bag>
         </xmp:rhcc-product>
         <xmp:brand-subtype>
            <rdf:Bag>
               <rdf:li>Technology icon</rdf:li>
            </rdf:Bag>
         </xmp:brand-subtype>
         <dc:format>image/svg+xml</dc:format>
         <dc:modified>2024-05-10T12:31:18.584Z</dc:modified>
         <dc:title>
            <rdf:Alt>
               <rdf:li xml:lang="x-default">Automation content navigator icon</rdf:li>
            </rdf:Alt>
         </dc:title>
         <dc:description>
            <rdf:Alt>
               <rdf:li xml:lang="x-default">Management, Ansible</rdf:li>
            </rdf:Alt>
         </dc:description>
         <cq:lastReplicationAction_scene7>Activate</cq:lastReplicationAction_scene7>
         <cq:lastReplicationAction_publish>Activate</cq:lastReplicationAction_publish>
         <cq:lastReplicated_publish>2024-10-02T19:50:34.649Z</cq:lastReplicated_publish>
         <cq:lastReplicatedBy>workflow-process-service</cq:lastReplicatedBy>
         <cq:lastReplicationAction>Activate</cq:lastReplicationAction>
         <cq:lastReplicatedBy_publish>workflow-process-service</cq:lastReplicatedBy_publish>
         <cq:isDelivered>false</cq:isDelivered>
         <cq:lastReplicated>2024-10-02T19:50:34.649Z</cq:lastReplicated>
         <cq:lastReplicatedBy_scene7>workflow-process-service</cq:lastReplicatedBy_scene7>
         <cq:lastReplicated_scene7>2024-10-02T19:50:34.649Z</cq:lastReplicated_scene7>
         <tiff:ImageLength>38</tiff:ImageLength>
         <tiff:ImageWidth>38</tiff:ImageWidth>
         <xmpRights:UsageTerms>
            <rdf:Alt>
               <rdf:li xml:lang="x-default">Use technology icons to represent Red Hat products and components. Do not remove the icon from the bounding shape.</rdf:li>
            </rdf:Alt>
         </xmpRights:UsageTerms>
      </rdf:Description>
   </rdf:RDF>
</x:xmpmeta>
                                                                                                    
                                                                                                    
                                                                                                    
                                                                                                    
                                                                                                    
                                                                                                    
                                                                                                    
                                                                                                    
                                                                                                    
                                                                                                    
                                                                                                    
                                                                                                    
                                                                                                    
                                                                                                    
                                                                                                    
                                                                                                    
                                                      
<?xpacket end="w"?></metadata>
<defs><style>.uuid-c9888a9b-3c63-4d29-9c84-ba6121467206{fill:#e00;}.uuid-9f6969eb-8631-4377-96dd-35377bbfd90e{fill:#fff;}.uuid-1c2b2532-2d79-4cf6-8634-38cb109c159c{fill:#e0e0e0;}</style></defs><path class="uuid-9f6969eb-8631-4377-96dd-35377bbfd90e" d="m10,.89949c-4.97056,0-9,4.02944-9,9v18c0,4.97057,4.02944,9,9,9h18c4.97056,0,9-4.02943,9-9V9.89949c0-4.97056-4.02944-9-9-9H10Z"/><path class="uuid-1c2b2532-2d79-4cf6-8634-38cb109c159c" d="m28,2.14949c4.27332,0,7.75,3.47664,7.75,7.75v18c0,4.27336-3.47668,7.75-7.75,7.75H10c-4.27332,0-7.75-3.47664-7.75-7.75V9.89949c0-4.27336,3.47668-7.75,7.75-7.75h18m0-1.25H10C5.02942.89949,1,4.92894,1,9.89949v18c0,4.97058,4.02942,9,9,9h18c4.97058,0,9-4.02942,9-9V9.89949c0-4.97055-4.02942-9-9-9h0Z"/><path d="m28,25.52441H11c-.34473,0-.625-.28027-.625-.625v-4c0-.34473.28027-.625.625-.625s.625.28027.625.625v3.375h15.75v-10.75h-10.375c-.34473,0-.625-.28027-.625-.625s.28027-.625.625-.625h11c.34473,0,.625.28027.625.625v12c0,.34473-.28027.625-.625.625Z"/><path d="m25,16.52441h-1c-.34473,0-.625-.28027-.625-.625s.28027-.625.625-.625h1c.34473,0,.625.28027.625.625s-.28027.625-.625.625Z"/><path class="uuid-c9888a9b-3c63-4d29-9c84-ba6121467206" d="m21,16.52441h-3c-.34473,0-.625-.28027-.625-.625s.28027-.625.625-.625h3c.34473,0,.625.28027.625.625s-.28027.625-.625.625Z"/><path class="uuid-c9888a9b-3c63-4d29-9c84-ba6121467206" d="m25,19.52441h-4c-.34473,0-.625-.28027-.625-.625s.28027-.625.625-.625h4c.34473,0,.625.28027.625.625s-.28027.625-.625.625Z"/><path d="m18,19.52441h-1c-.34473,0-.625-.28027-.625-.625s.28027-.625.625-.625h1c.34473,0,.625.28027.625.625s-.28027.625-.625.625Z"/><path d="m25,22.52441h-1c-.34473,0-.625-.28027-.625-.625s.28027-.625.625-.625h1c.34473,0,.625.28027.625.625s-.28027.625-.625.625Z"/><path class="uuid-c9888a9b-3c63-4d29-9c84-ba6121467206" d="m21,22.52441h-3c-.34473,0-.625-.28027-.625-.625s.28027-.625.625-.625h3c.34473,0,.625.28027.625.625s-.28027.625-.625.625Z"/><path d="m15,22.52441h-1c-.34473,0-.625-.28027-.625-.625s.28027-.625.625-.625h1c.34473,0,.625.28027.625.625s-.28027.625-.625.625Z"/><path class="uuid-c9888a9b-3c63-4d29-9c84-ba6121467206" d="m12,19.52441c-.34473,0-.625-.28027-.625-.625v-8c0-.34473.28027-.625.625-.625s.625.28027.625.625v8c0,.34473-.28027.625-.625.625Z"/><path class="uuid-c9888a9b-3c63-4d29-9c84-ba6121467206" d="m16,15.52441h-8c-.34473,0-.625-.28027-.625-.625s.28027-.625.625-.625h8c.34473,0,.625.28027.625.625s-.28027.625-.625.625Z"/><path class="uuid-c9888a9b-3c63-4d29-9c84-ba6121467206" d="m14.82812,18.35254c-.16016,0-.32031-.06055-.44238-.18262l-5.65625-5.65625c-.24316-.24414-.24316-.64062,0-.88477.24414-.24414.64062-.24414.88477,0l5.65625,5.65625c.24316.24414.24316.64062,0,.88477-.12207.12207-.28223.18262-.44238.18262Z"/><path class="uuid-c9888a9b-3c63-4d29-9c84-ba6121467206" d="m9.17188,18.35254c-.16016,0-.32031-.06055-.44238-.18262-.24316-.24414-.24316-.64062,0-.88477l5.65625-5.65625c.24414-.24414.64062-.24414.88477,0,.24316.24414.24316.64062,0,.88477l-5.65625,5.65625c-.12207.12207-.28223.18262-.44238.18262Z"/><circle class="uuid-9f6969eb-8631-4377-96dd-35377bbfd90e" cx="12" cy="14.8995" r="2.66667"/><path class="uuid-c9888a9b-3c63-4d29-9c84-ba6121467206" d="m12,18.19141c-1.81543,0-3.29199-1.47656-3.29199-3.29199s1.47656-3.29199,3.29199-3.29199,3.29199,1.47656,3.29199,3.29199-1.47656,3.29199-3.29199,3.29199Zm0-5.33398c-1.12598,0-2.04199.91602-2.04199,2.04199s.91602,2.04199,2.04199,2.04199,2.04199-.91602,2.04199-2.04199-.91602-2.04199-2.04199-2.04199Z"/></svg>