<?xml version="1.0" encoding="UTF-8"?><svg id="uuid-ed1306a4-ceb4-48b0-afc0-8aae2653182d" xmlns="http://www.w3.org/2000/svg" viewBox="0 0 38 38"><title>Red Hat OpenShift sandboxed containers icons</title>
<desc>Cloud</desc>
<metadata><?xpacket begin="﻿" id="W5M0MpCehiHzreSzNTczkc9d"?>
<x:xmpmeta xmlns:x="adobe:ns:meta/" x:xmptk="Adobe XMP Core 8.0-c001 1.000000, 0000/00/00-00:00:00        ">
   <rdf:RDF xmlns:rdf="http://www.w3.org/1999/02/22-rdf-syntax-ns#">
      <rdf:Description rdf:about=""
            xmlns:xmp="http://ns.adobe.com/xap/1.0/"
            xmlns:dc="http://purl.org/dc/elements/1.1/"
            xmlns:cq="http://www.day.com/jcr/cq/1.0"
            xmlns:tiff="http://ns.adobe.com/tiff/1.0/"
            xmlns:xmpRights="http://ns.adobe.com/xap/1.0/rights/">
         <xmp:rhcc-effective-on>2024-03-01T15:27:30.058Z</xmp:rhcc-effective-on>
         <xmp:rhcc-metadata-complete-moderator>pending</xmp:rhcc-metadata-complete-moderator>
         <xmp:rhcc-translation-id>TRAd5537f98-a714-4bae-8bc3-bfc2e321f16b</xmp:rhcc-translation-id>
         <xmp:brand-content-type>Icon</xmp:brand-content-type>
         <xmp:CreateDate>2024-03-01T15:27:30.058Z</xmp:CreateDate>
         <xmp:rhcc-aspect-ratio>square</xmp:rhcc-aspect-ratio>
         <xmp:rhcc-effective-on-set-on-upload>true</xmp:rhcc-effective-on-set-on-upload>
         <xmp:rhcc-published-asset-email-sent>true</xmp:rhcc-published-asset-email-sent>
         <xmp:rhcc-metadata-complete-uploader>pending</xmp:rhcc-metadata-complete-uploader>
         <xmp:rhcc-file-last-modified>2024-07-13T00:09:41.465Z</xmp:rhcc-file-last-modified>
         <xmp:rhcc-audience>rhcc-audience:internal</xmp:rhcc-audience>
         <xmp:rhcc-rights-restricted>no</xmp:rhcc-rights-restricted>
         <xmp:brand-content-subtype>Technology icon</xmp:brand-content-subtype>
         <xmp:rhcc-derivative-id>DERd5537f98-a714-4bae-8bc3-bfc2e321f16b</xmp:rhcc-derivative-id>
         <xmp:rhcc-uploaded-by>pmeilleu@redhat.com</xmp:rhcc-uploaded-by>
         <xmp:brand-logo-color>Red</xmp:brand-logo-color>
         <xmp:rhcc-notify-portal-subscribers-on-change>yes</xmp:rhcc-notify-portal-subscribers-on-change>
         <xmp:rhcc-product>
            <rdf:Bag>
               <rdf:li>rhcc-product:red-hat-openshift-container-platform</rdf:li>
            </rdf:Bag>
         </xmp:rhcc-product>
         <xmp:brand-subtype>
            <rdf:Bag>
               <rdf:li>Technology icon</rdf:li>
            </rdf:Bag>
         </xmp:brand-subtype>
         <dc:format>image/svg+xml</dc:format>
         <dc:modified>2024-05-10T00:26:31.028Z</dc:modified>
         <dc:title>
            <rdf:Alt>
               <rdf:li xml:lang="x-default">Red Hat OpenShift sandboxed containers icons</rdf:li>
            </rdf:Alt>
         </dc:title>
         <dc:description>
            <rdf:Alt>
               <rdf:li xml:lang="x-default">Cloud</rdf:li>
            </rdf:Alt>
         </dc:description>
         <cq:lastReplicationAction_scene7>Activate</cq:lastReplicationAction_scene7>
         <cq:lastReplicationAction_publish>Activate</cq:lastReplicationAction_publish>
         <cq:lastReplicated_publish>2024-10-02T19:52:58.492Z</cq:lastReplicated_publish>
         <cq:lastReplicatedBy>workflow-process-service</cq:lastReplicatedBy>
         <cq:lastReplicationAction>Activate</cq:lastReplicationAction>
         <cq:lastReplicatedBy_publish>workflow-process-service</cq:lastReplicatedBy_publish>
         <cq:isDelivered>false</cq:isDelivered>
         <cq:lastReplicated>2024-10-02T19:52:58.492Z</cq:lastReplicated>
         <cq:lastReplicatedBy_scene7>workflow-process-service</cq:lastReplicatedBy_scene7>
         <cq:lastReplicated_scene7>2024-10-02T19:52:58.492Z</cq:lastReplicated_scene7>
         <tiff:ImageLength>38</tiff:ImageLength>
         <tiff:ImageWidth>38</tiff:ImageWidth>
         <xmpRights:UsageTerms>
            <rdf:Alt>
               <rdf:li xml:lang="x-default">Use technology icons to represent Red Hat products and components. Do not remove the icon from the bounding shape.</rdf:li>
            </rdf:Alt>
         </xmpRights:UsageTerms>
      </rdf:Description>
   </rdf:RDF>
</x:xmpmeta>
                                                                                                    
                                                                                                    
                                                                                                    
                                                                                                    
                                                                                                    
                                                                                                    
                                                                                                    
                                                                                                    
                                                                                                    
                                                                                                    
                                                                                                    
                                                                                                    
                                                                                                    
                                                                                                    
                                                                                                    
                                                                                                    
                                                      
<?xpacket end="w"?></metadata>
<defs><style>.uuid-8503824a-f6e7-43ef-a69f-82f37db69c9d{fill:#e00;}</style></defs><path class="uuid-8503824a-f6e7-43ef-a69f-82f37db69c9d" d="m28,1H10C5.02942,1,1,5.02942,1,10v18c0,4.97058,4.02942,9,9,9h18c4.97058,0,9-4.02942,9-9V10c0-4.97058-4.02942-9-9-9Zm7.75,27c0,4.27332-3.47668,7.75-7.75,7.75H10c-4.27332,0-7.75-3.47668-7.75-7.75V10c0-4.27332,3.47668-7.75,7.75-7.75h18c4.27332,0,7.75,3.47668,7.75,7.75v18Z"/><path class="uuid-8503824a-f6e7-43ef-a69f-82f37db69c9d" d="m26.77148,20.45898l-3.46387-2c-.19336-.11133-.43164-.11133-.625,0l-3.46387,2c-.19336.11133-.3125.31738-.3125.54102v4c0,.22363.11914.42969.3125.54102l3.46387,2c.09668.05566.2041.08398.3125.08398s.21582-.02832.3125-.08398l3.46387-2c.19336-.11133.3125-.31738.3125-.54102v-4c0-.22363-.11914-.42969-.3125-.54102Zm-.9375,4.18066l-2.83887,1.63867-2.83887-1.63867v-3.2793l2.83887-1.63867,2.83887,1.63867v3.2793Z"/><path class="uuid-8503824a-f6e7-43ef-a69f-82f37db69c9d" d="m23.625,14.40845v-4.40845c0-.34473-.28027-.625-.625-.625h-13c-.34473,0-.625.28027-.625.625v13c0,.34473.28027.625.625.625h4.41675c.20825,2.82837,1.79297,5.41309,4.27075,6.8457.09863.05664.20605.08398.31152.08398.21582,0,.42578-.1123.54199-.3125.17285-.29883.07031-.68066-.22852-.85352-2.27441-1.31543-3.6875-3.76367-3.6875-6.38867,0-4.06641,3.30859-7.375,7.375-7.375,2.11426,0,4.13086.91016,5.53125,2.49707.22949.26074.625.28223.88184.05566.25879-.22852.28418-.62305.05566-.88184-1.49878-1.69897-3.60266-2.72388-5.84375-2.88745Zm-9.21826,7.96655h-3.78174v-11.75h11.75v3.78174c-4.25684.30737-7.66089,3.71143-7.96826,7.96826Z"/></svg>