<?xml version="1.0" encoding="UTF-8"?><svg id="uuid-046f20c3-7aa4-4b37-aa95-8b3064a8228c" xmlns="http://www.w3.org/2000/svg" width="36" height="36" viewBox="0 0 36 36"><title>Sovereign cloud icon (2 color)</title>
<desc>data residency, local, governance, compliance, regulation, security, national, regional, private cloud, public cloud, hybrid cloud, control, independence, trust, privacy, encryption, ownership, gdp, isolated, jurisdiction</desc>
<metadata><?xpacket begin="﻿" id="W5M0MpCehiHzreSzNTczkc9d"?>
<x:xmpmeta xmlns:x="adobe:ns:meta/" x:xmptk="Adobe XMP Core 8.0-c001 1.000000, 0000/00/00-00:00:00        ">
   <rdf:RDF xmlns:rdf="http://www.w3.org/1999/02/22-rdf-syntax-ns#">
      <rdf:Description rdf:about=""
            xmlns:dc="http://purl.org/dc/elements/1.1/"
            xmlns:xmp="http://ns.adobe.com/xap/1.0/"
            xmlns:tiff="http://ns.adobe.com/tiff/1.0/">
         <dc:format>image/svg+xml</dc:format>
         <dc:modified>2025-11-07T18:47:27.501Z</dc:modified>
         <dc:description>
            <rdf:Alt>
               <rdf:li xml:lang="x-default">data residency, local, governance, compliance, regulation, security, national, regional, private cloud, public cloud, hybrid cloud, control, independence, trust, privacy, encryption, ownership, gdp, isolated, jurisdiction</rdf:li>
            </rdf:Alt>
         </dc:description>
         <dc:title>
            <rdf:Alt>
               <rdf:li xml:lang="x-default">Sovereign cloud icon (2 color)</rdf:li>
            </rdf:Alt>
         </dc:title>
         <xmp:brand-content-type>Icon</xmp:brand-content-type>
         <xmp:rhcc-file-last-modified>2025-11-07T18:46:40.343Z</xmp:rhcc-file-last-modified>
         <xmp:rhcc-rights-restricted>no</xmp:rhcc-rights-restricted>
         <xmp:brand-colorway>
            <rdf:Bag>
               <rdf:li>colorway:black</rdf:li>
               <rdf:li>colorway:red</rdf:li>
            </rdf:Bag>
         </xmp:brand-colorway>
         <tiff:ImageWidth>36</tiff:ImageWidth>
         <tiff:ImageLength>36</tiff:ImageLength>
      </rdf:Description>
   </rdf:RDF>
</x:xmpmeta>
                                                                                                    
                                                                                                    
                                                                                                    
                                                                                                    
                                                                                                    
                                                                                                    
                                                                                                    
                                                                                                    
                                                                                                    
                                                                                                    
                                                                                                    
                                                                                                    
                                                                                                    
                                                                                                    
                                                                                                    
                                                                                                    
                                                                                                    
                 
<?xpacket end="w"?></metadata>
<defs><style>.uuid-f889ac6f-c420-409a-988d-7fd983cf4365{fill:#e00;}</style></defs><path d="M31,25.375h-.375v-1.375c0-1.44727-1.17773-2.625-2.625-2.625s-2.625,1.17773-2.625,2.625v1.375h-.375c-.34521,0-.625.28027-.625.625v5c0,.34473.27979.625.625.625h6c.34521,0,.625-.28027.625-.625v-5c0-.34473-.27979-.625-.625-.625ZM26.625,24c0-.75781.6167-1.375,1.375-1.375s1.375.61719,1.375,1.375v1.375h-2.75v-1.375Z"/><path d="M31,4.375H5c-.34521,0-.625.27979-.625.625v26c0,.34473.27979.625.625.625h17c.34521,0,.625-.28027.625-.625s-.27979-.625-.625-.625H5.625V5.625h24.75v14.375c0,.34473.27979.625.625.625s.625-.28027.625-.625V5c0-.34521-.27979-.625-.625-.625Z"/><path d="M24.02881,17.15039c1.08398.11426,1.90186,1.01758,1.90186,2.09961,0,.34473.27979.625.625.625s.625-.28027.625-.625c0-1.52637-1.01855-2.82812-2.44727-3.23242-.09375-3.12695-2.66699-5.64258-5.81689-5.64258-2.15723,0-4.12158,1.19141-5.12842,3.07129-2.69434-.22949-4.96826,1.92383-4.96875,4.58105,0,2.53516,2.0625,4.59766,4.59717,4.59766h9.5835c.34521,0,.625-.28027.625-.625s-.27979-.625-.625-.625h-9.5835c-1.8457,0-3.34717-1.50195-3.34717-3.34766s1.50146-3.34668,3.34717-3.34668c.2002,0,.40381.01953.62305.05957.28516.05957.5708-.09863.68652-.36523.72607-1.6709,2.37109-2.75,4.19043-2.75,2.51953,0,4.56934,2.0498,4.56934,4.56934,0,.07324-.00537.14453-.01562.29688-.02051.33398.22559.625.55859.65918Z"/><path class="uuid-f889ac6f-c420-409a-988d-7fd983cf4365" d="M22,25.625h-12c-.34521,0-.625-.28027-.625-.625s.27979-.625.625-.625h12c.34521,0,.625.28027.625.625s-.27979.625-.625.625Z"/></svg>