<svg id="a5d54ea9-46f1-4764-a825-7fe64a072088" data-name="Icon" xmlns="http://www.w3.org/2000/svg" viewBox="0 0 36 36">
  <title>Orchestration icon - Red</title>
<desc>control, gear, spin, orchestrate, perform, move, automation, automate, arrows, square, software and technologies</desc>
<metadata><?xpacket begin="﻿" id="W5M0MpCehiHzreSzNTczkc9d"?>
<x:xmpmeta xmlns:x="adobe:ns:meta/" x:xmptk="Adobe XMP Core 8.0-c001 1.000000, 0000/00/00-00:00:00        ">
   <rdf:RDF xmlns:rdf="http://www.w3.org/1999/02/22-rdf-syntax-ns#">
      <rdf:Description rdf:about=""
            xmlns:xmp="http://ns.adobe.com/xap/1.0/"
            xmlns:dc="http://purl.org/dc/elements/1.1/"
            xmlns:cq="http://www.day.com/jcr/cq/1.0"
            xmlns:tiff="http://ns.adobe.com/tiff/1.0/">
         <xmp:rhcc-effective-on>2023-12-08T17:43:58.155Z</xmp:rhcc-effective-on>
         <xmp:rhcc-metadata-complete-moderator>pending</xmp:rhcc-metadata-complete-moderator>
         <xmp:rhcc-translation-id>TRAfaa7db59-f3fa-4afa-9b47-1619eb4d08e1</xmp:rhcc-translation-id>
         <xmp:brand-content-type>Icon</xmp:brand-content-type>
         <xmp:CreateDate>2023-12-08T17:43:58.155Z</xmp:CreateDate>
         <xmp:rhcc-aspect-ratio>square</xmp:rhcc-aspect-ratio>
         <xmp:rhcc-effective-on-set-on-upload>true</xmp:rhcc-effective-on-set-on-upload>
         <xmp:rhcc-metadata-complete-uploader>pending</xmp:rhcc-metadata-complete-uploader>
         <xmp:rhcc-file-last-modified>2024-07-12T19:59:13.426Z</xmp:rhcc-file-last-modified>
         <xmp:rhcc-audience>rhcc-audience:internal</xmp:rhcc-audience>
         <xmp:brand-content-subtype>Icon</xmp:brand-content-subtype>
         <xmp:rhcc-rights-restricted>no</xmp:rhcc-rights-restricted>
         <xmp:rhcc-derivative-id>DERfaa7db59-f3fa-4afa-9b47-1619eb4d08e1</xmp:rhcc-derivative-id>
         <xmp:rhcc-uploaded-by>pmeilleu@redhat.com</xmp:rhcc-uploaded-by>
         <xmp:brand-logo-color>Red</xmp:brand-logo-color>
         <xmp:rhcc-notify-portal-subscribers-on-change>yes</xmp:rhcc-notify-portal-subscribers-on-change>
         <dc:format>image/svg+xml</dc:format>
         <dc:modified>2024-02-09T20:18:01.531Z</dc:modified>
         <dc:title>
            <rdf:Alt>
               <rdf:li xml:lang="x-default">Orchestration icon - Red</rdf:li>
            </rdf:Alt>
         </dc:title>
         <dc:description>
            <rdf:Alt>
               <rdf:li xml:lang="x-default">control, gear, spin, orchestrate, perform, move, automation, automate, arrows, square, software and technologies</rdf:li>
            </rdf:Alt>
         </dc:description>
         <cq:lastReplicationAction_scene7>Activate</cq:lastReplicationAction_scene7>
         <cq:lastReplicationAction_publish>Activate</cq:lastReplicationAction_publish>
         <cq:lastReplicated_publish>2024-10-02T19:40:46.599Z</cq:lastReplicated_publish>
         <cq:lastReplicatedBy>workflow-process-service</cq:lastReplicatedBy>
         <cq:lastReplicationAction>Activate</cq:lastReplicationAction>
         <cq:lastReplicatedBy_publish>workflow-process-service</cq:lastReplicatedBy_publish>
         <cq:isDelivered>false</cq:isDelivered>
         <cq:lastReplicated>2024-10-02T19:40:46.599Z</cq:lastReplicated>
         <cq:lastReplicatedBy_scene7>workflow-process-service</cq:lastReplicatedBy_scene7>
         <cq:lastReplicated_scene7>2024-10-02T19:40:46.599Z</cq:lastReplicated_scene7>
         <tiff:ImageLength>36</tiff:ImageLength>
         <tiff:ImageWidth>36</tiff:ImageWidth>
      </rdf:Description>
   </rdf:RDF>
</x:xmpmeta>
                                                                                                    
                                                                                                    
                                                                                                    
                                                                                                    
                                                                                                    
                                                                                                    
                                                                                                    
                                                                                                    
                                                                                                 
<?xpacket end="w"?></metadata>
<defs>
    <style>
      .ada2b3a4-511a-4b65-b67e-5f6a460d6aba {
        fill: #e00;
      }
    </style>
  </defs>
  <g>
    <path class="ada2b3a4-511a-4b65-b67e-5f6a460d6aba" d="M16,11.62h6a.61.61,0,0,0,.62-.62V5A.61.61,0,0,0,22,4.38H16a.61.61,0,0,0-.62.62v6A.61.61,0,0,0,16,11.62Zm.62-6h4.76v4.76H16.62Z"/>
    <path class="ada2b3a4-511a-4b65-b67e-5f6a460d6aba" d="M28.44,20.56a.62.62,0,0,0-.88,0l-2,2a.61.61,0,0,0,0,.88.67.67,0,0,0,.88,0l.94-.93V24A3.39,3.39,0,0,1,24,27.38H14a.62.62,0,1,0,0,1.24H24A4.62,4.62,0,0,0,28.62,24V22.51l.94.93a.62.62,0,0,0,.88-.88Z"/>
    <path class="ada2b3a4-511a-4b65-b67e-5f6a460d6aba" d="M13.62,8A.61.61,0,0,0,13,7.38H12A4.62,4.62,0,0,0,7.38,12v8.49l-.94-.93a.62.62,0,0,0-.88.88l2,2a.61.61,0,0,0,.86,0l2-2a.62.62,0,1,0-.88-.88l-.94.93V12A3.39,3.39,0,0,1,12,8.62h1A.61.61,0,0,0,13.62,8Z"/>
    <path class="ada2b3a4-511a-4b65-b67e-5f6a460d6aba" d="M31,4.38H25a.61.61,0,0,0-.62.62v6a.61.61,0,0,0,.62.62h6a.61.61,0,0,0,.62-.62V5A.61.61,0,0,0,31,4.38Zm-.62,6H25.62V5.62h4.76Z"/>
    <rect class="ada2b3a4-511a-4b65-b67e-5f6a460d6aba" x="15.38" y="13.38" width="7.25" height="7.25" rx="0.63"/>
    <rect class="ada2b3a4-511a-4b65-b67e-5f6a460d6aba" x="4.38" y="24.38" width="7.25" height="7.25" rx="0.63"/>
  </g>
</svg>
