<?xml version="1.0" encoding="UTF-8"?><svg id="uuid-94335386-6e94-4411-bcad-f6c7e6a74fd1" xmlns="http://www.w3.org/2000/svg" viewBox="0 0 36 36"><title>AI-ML icon - Black</title>
<desc>artificial intelligence, machine learning, automation, automated, bot, computer vision, intelligent, neural network, software and technologies, telco</desc>
<metadata><?xpacket begin="﻿" id="W5M0MpCehiHzreSzNTczkc9d"?>
<x:xmpmeta xmlns:x="adobe:ns:meta/" x:xmptk="Adobe XMP Core 8.0-c001 1.000000, 0000/00/00-00:00:00        ">
   <rdf:RDF xmlns:rdf="http://www.w3.org/1999/02/22-rdf-syntax-ns#">
      <rdf:Description rdf:about=""
            xmlns:xmp="http://ns.adobe.com/xap/1.0/"
            xmlns:dc="http://purl.org/dc/elements/1.1/"
            xmlns:cq="http://www.day.com/jcr/cq/1.0"
            xmlns:tiff="http://ns.adobe.com/tiff/1.0/">
         <xmp:rhcc-effective-on>2023-12-08T17:41:45.866Z</xmp:rhcc-effective-on>
         <xmp:rhcc-metadata-complete-moderator>pending</xmp:rhcc-metadata-complete-moderator>
         <xmp:rhcc-translation-id>TRAf2680851-d0cf-4a98-9f06-2b9fcfe09a3b</xmp:rhcc-translation-id>
         <xmp:brand-content-type>Icon</xmp:brand-content-type>
         <xmp:CreateDate>2023-12-08T17:41:45.866Z</xmp:CreateDate>
         <xmp:rhcc-aspect-ratio>square</xmp:rhcc-aspect-ratio>
         <xmp:rhcc-effective-on-set-on-upload>true</xmp:rhcc-effective-on-set-on-upload>
         <xmp:rhcc-published-asset-email-sent>true</xmp:rhcc-published-asset-email-sent>
         <xmp:rhcc-metadata-complete-uploader>pending</xmp:rhcc-metadata-complete-uploader>
         <xmp:rhcc-file-last-modified>2024-12-19T17:03:35.882Z</xmp:rhcc-file-last-modified>
         <xmp:rhcc-audience>rhcc-audience:internal</xmp:rhcc-audience>
         <xmp:brand-content-subtype>Icon</xmp:brand-content-subtype>
         <xmp:rhcc-rights-restricted>no</xmp:rhcc-rights-restricted>
         <xmp:rhcc-derivative-id>DERf2680851-d0cf-4a98-9f06-2b9fcfe09a3b</xmp:rhcc-derivative-id>
         <xmp:rhcc-uploaded-by>pmeilleu@redhat.com</xmp:rhcc-uploaded-by>
         <xmp:brand-logo-color>Black</xmp:brand-logo-color>
         <xmp:rhcc-notify-portal-subscribers-on-change>yes</xmp:rhcc-notify-portal-subscribers-on-change>
         <dc:format>image/svg+xml</dc:format>
         <dc:modified>2024-02-09T20:13:43.620Z</dc:modified>
         <dc:title>
            <rdf:Alt>
               <rdf:li xml:lang="x-default">AI-ML icon - Black</rdf:li>
            </rdf:Alt>
         </dc:title>
         <dc:description>
            <rdf:Alt>
               <rdf:li xml:lang="x-default">artificial intelligence, machine learning, automation, automated, bot, computer vision, intelligent, neural network, software and technologies, telco</rdf:li>
            </rdf:Alt>
         </dc:description>
         <cq:lastReplicationAction_scene7>Activate</cq:lastReplicationAction_scene7>
         <cq:lastReplicationAction_publish>Activate</cq:lastReplicationAction_publish>
         <cq:lastReplicated_publish>2025-01-31T18:13:37.552Z</cq:lastReplicated_publish>
         <cq:lastReplicatedBy>workflow-process-service</cq:lastReplicatedBy>
         <cq:lastReplicationAction>Activate</cq:lastReplicationAction>
         <cq:lastReplicatedBy_publish>workflow-process-service</cq:lastReplicatedBy_publish>
         <cq:isDelivered>false</cq:isDelivered>
         <cq:lastReplicated>2025-01-31T18:13:37.552Z</cq:lastReplicated>
         <cq:lastReplicatedBy_scene7>workflow-process-service</cq:lastReplicatedBy_scene7>
         <cq:lastReplicated_scene7>2025-01-31T18:13:37.552Z</cq:lastReplicated_scene7>
         <tiff:ImageLength>36</tiff:ImageLength>
         <tiff:ImageWidth>36</tiff:ImageWidth>
      </rdf:Description>
   </rdf:RDF>
</x:xmpmeta>
                                                                                                    
                                                                                                    
                                                                                                    
                                                                                                    
                                                                                                    
                                                                                                    
                                                                                                    
                                                                                                    
                                                                                                    
                                                                                                    
                                                                                                    
                                                                                                    
                                                                                                    
                                                                                                    
                                                                                                    
                                                                                                    
                                                                                                    
                                                                                                    
                                                                                                    
                                              
<?xpacket end="w"?></metadata>
<defs><style>.uuid-6f6f1d8a-48a1-4c44-99c5-1be824e77c86{fill:#000;stroke-width:0px;}</style></defs><path class="uuid-6f6f1d8a-48a1-4c44-99c5-1be824e77c86" d="M18,26.375c-.3452,0-.625.2803-.625.625v3.8781c-.5743.3195-1.2134.4969-1.875.4969-1.6603,0-3.1138-1.0615-3.6475-2.6465v-2.7285c0-.7578.6167-1.375,1.375-1.375.3452,0,.625-.2803.625-.625s-.2798-.625-.625-.625c-1.4473,0-2.625,1.1777-2.625,2.625v1.985c-1.7863-.7483-2.9775-2.4927-2.9775-4.485,0-.7266.1616-1.4326.4805-2.0986.1367-.2842.0391-.626-.2266-.7959-1.3754-.8805-2.2047-2.3625-2.246-3.9805h2.3671c1.3096,0,2.375,1.0654,2.375,2.375,0,.3447.2798.625.625.625s.625-.2803.625-.625c0-.9425-.3702-1.7943-.9618-2.4396,1.694-.3038,2.9857-1.7803,2.9857-3.5604,0-.3447-.2798-.625-.625-.625s-.625.2803-.625.625c0,1.3096-1.0654,2.375-2.375,2.375h-4.2544c.3491-1.462,1.3525-2.7123,2.769-3.3359.3076-.1357.4526-.4902.3291-.8027-.1611-.4062-.2427-.8223-.2427-1.2363,0-1.8613,1.5142-3.375,3.375-3.375.042,0,.0815.0073.1221.0127l.1577.0186c.2607.0288.5088-.1216.6187-.3599.4712-1.0151,1.4927-1.6714,2.6016-1.6714.699,0,1.3514.2608,1.875.7179v4.938c-1.0052-.2764-1.75-1.1891-1.75-2.2809,0-.3447-.2798-.625-.625-.625s-.625.2803-.625.625c0,1.785,1.2992,3.2637,3,3.5618v1.4382c0,.3447.2798.625.625.625s.625-.2803.625-.625v-7.6571c.5236-.4571,1.176-.7179,1.875-.7179,1.0711,0,2.0558.6158,2.5466,1.5724-.4208.7166-1.1953,1.1776-2.0466,1.1776-.3452,0-.625.2803-.625.625s.2798.625.625.625c1.3694,0,2.6089-.7803,3.2226-1.9775,1.7556.117,3.1524,1.5674,3.1524,3.3525,0,.3447.2798.625.625.625s.625-.2803.625-.625c0-2.542-2.061-4.6113-4.5996-4.625-.7412-1.2275-2.0811-2-3.5254-2-.916,0-1.7847.2974-2.5.8467-.7153-.5493-1.584-.8467-2.5-.8467-1.4443,0-2.7842.7725-3.5254,2-2.5386.0137-4.5996,2.083-4.5996,4.625,0,.3848.0503.7695.1499,1.1484-1.7631.9801-2.9211,2.7722-3.1109,4.777-.0032.0256-.0151.0481-.0151.0745,0,.0131.0067.0241.0075.037-.0118.1541-.0314.3067-.0314.463,0,1.917.8857,3.6943,2.3936,4.8516-.2612.6904-.3936,1.4102-.3936,2.1484,0,2.7324,1.7812,5.0967,4.373,5.8643.7661,1.9639,2.6343,3.2607,4.752,3.2607,1.0166,0,2.0015-.2988,2.8477-.8652.0173-.0117.0265-.0297.0423-.0427.0331-.0271.0616-.0561.0886-.0894.0253-.0312.047-.0623.0655-.0972.0186-.0346.0323-.0698.0441-.108.0128-.0413.0211-.0814.0251-.1244.002-.0201.0117-.0374.0117-.058v-4.2402c0-.3447-.2798-.625-.625-.625Z"/><path class="uuid-6f6f1d8a-48a1-4c44-99c5-1be824e77c86" d="M29,19.375c-1.2308,0-2.2592.855-2.5415,2h-2.4585c-.3452,0-.625.2803-.625.625v4.4585c-1.145.2823-2,1.3107-2,2.5415,0,1.4473,1.1777,2.625,2.625,2.625s2.625-1.1777,2.625-2.625c0-1.2308-.855-2.2592-2-2.5415v-3.8335h1.8335c.2823,1.145,1.3107,2,2.5415,2,1.4473,0,2.625-1.1777,2.625-2.625s-1.1777-2.625-2.625-2.625ZM25.375,29c0,.7578-.6167,1.375-1.375,1.375s-1.375-.6172-1.375-1.375.6167-1.375,1.375-1.375,1.375.6172,1.375,1.375ZM29,23.375c-.7583,0-1.375-.6172-1.375-1.375s.6167-1.375,1.375-1.375,1.375.6172,1.375,1.375-.6167,1.375-1.375,1.375Z"/><path class="uuid-6f6f1d8a-48a1-4c44-99c5-1be824e77c86" d="M19.8432,19.1348c.4556-1.0236,1.5624-3.5098,1.5624-3.5098h4.0529c.2823,1.145,1.3107,2,2.5415,2,1.4473,0,2.625-1.1777,2.625-2.625s-1.1777-2.625-2.625-2.625c-1.2308,0-2.2592.855-2.5415,2h-4.4585c-.2089.0208-.4269.1096-.5259.3079-.0163.0255-.0398.0452-.0501.0751,0,0-1.2868,2.8907-1.6658,3.742-.2416-.0736-.4928-.1249-.7582-.1249-1.4473,0-2.625,1.1777-2.625,2.625s1.1777,2.625,2.625,2.625,2.625-1.1777,2.625-2.625c0-.7292-.2999-1.389-.7818-1.8652ZM28,13.625c.7583,0,1.375.6172,1.375,1.375s-.6167,1.375-1.375,1.375-1.375-.6172-1.375-1.375.6167-1.375,1.375-1.375ZM18,22.375c-.7583,0-1.375-.6172-1.375-1.375s.6167-1.375,1.375-1.375,1.375.6172,1.375,1.375-.6167,1.375-1.375,1.375Z"/></svg>