<?xml version="1.0" encoding="UTF-8"?><svg id="uuid-60243aa0-a095-4a0a-baaa-5670b6bf5d8f" xmlns="http://www.w3.org/2000/svg" viewBox="0 0 36 36"><title>Webhooks icon</title>
<metadata><?xpacket begin="﻿" id="W5M0MpCehiHzreSzNTczkc9d"?>
<x:xmpmeta xmlns:x="adobe:ns:meta/" x:xmptk="Adobe XMP Core 8.0-c001 1.000000, 0000/00/00-00:00:00        ">
   <rdf:RDF xmlns:rdf="http://www.w3.org/1999/02/22-rdf-syntax-ns#">
      <rdf:Description rdf:about=""
            xmlns:xmp="http://ns.adobe.com/xap/1.0/"
            xmlns:tiff="http://ns.adobe.com/tiff/1.0/"
            xmlns:dc="http://purl.org/dc/elements/1.1/">
         <xmp:rhcc-effective-on>2024-06-07T14:29:19.665Z</xmp:rhcc-effective-on>
         <xmp:rhcc-rights-restricted>no</xmp:rhcc-rights-restricted>
         <xmp:brand-content-subtype>Icon</xmp:brand-content-subtype>
         <xmp:rhcc-metadata-complete-moderator>pending</xmp:rhcc-metadata-complete-moderator>
         <xmp:rhcc-translation-id>TRAafe0399c-9bbe-4688-9f30-15ed32bdd135</xmp:rhcc-translation-id>
         <xmp:brand-content-type>Icon</xmp:brand-content-type>
         <xmp:CreateDate>2024-06-07T14:29:19.665Z</xmp:CreateDate>
         <xmp:rhcc-aspect-ratio>square</xmp:rhcc-aspect-ratio>
         <xmp:rhcc-derivative-id>DERafe0399c-9bbe-4688-9f30-15ed32bdd135</xmp:rhcc-derivative-id>
         <xmp:rhcc-effective-on-set-on-upload>true</xmp:rhcc-effective-on-set-on-upload>
         <xmp:rhcc-uploaded-by>ryawilli@redhat.com</xmp:rhcc-uploaded-by>
         <xmp:brand-logo-color>Black</xmp:brand-logo-color>
         <xmp:rhcc-metadata-complete-uploader>pending</xmp:rhcc-metadata-complete-uploader>
         <xmp:rhcc-file-last-modified>2024-07-12T23:56:49.979Z</xmp:rhcc-file-last-modified>
         <xmp:rhcc-audience>rhcc-audience:internal</xmp:rhcc-audience>
         <xmp:rhcc-notify-portal-subscribers-on-change>yes</xmp:rhcc-notify-portal-subscribers-on-change>
         <tiff:ImageLength>36</tiff:ImageLength>
         <tiff:ImageWidth>36</tiff:ImageWidth>
         <dc:format>image/svg+xml</dc:format>
         <dc:modified>2024-06-07T14:30:04.179Z</dc:modified>
         <dc:title>
            <rdf:Alt>
               <rdf:li xml:lang="x-default">Webhooks icon</rdf:li>
            </rdf:Alt>
         </dc:title>
      </rdf:Description>
   </rdf:RDF>
</x:xmpmeta>
                                                                                                    
                                                                                                    
                                                                                                    
                                                                                                    
                                                                                                    
                                                                                                    
                                                                                                    
                                                                                                    
                                                                                                    
                                                                                                    
                                                                                                    
                                                                                                    
                                                                                                    
                                                                                                    
                                                                                                    
                                                                                                    
                                                                                   
<?xpacket end="w"?></metadata>
<defs><style>.uuid-6b087cc9-120d-404c-beae-0a3cad2a433e{fill:#000;stroke-width:0px;}</style></defs><path class="uuid-6b087cc9-120d-404c-beae-0a3cad2a433e" d="M27,23.375c-1.2308,0-2.2592.855-2.5415,2h-10.4585c-.3452,0-.625.2803-.625.625,0,2.4121-1.9624,4.375-4.375,4.375s-4.375-1.9629-4.375-4.375c0-2.0723,1.4717-3.876,3.4995-4.2881.3384-.0684.5566-.3984.4878-.7363-.0684-.3379-.3936-.5586-.7368-.4883-2.6079.5303-4.5005,2.8486-4.5005,5.5127,0,3.1016,2.5234,5.625,5.625,5.625,2.8901,0,5.2759-2.1918,5.5881-5h9.8704c.2823,1.145,1.3107,2,2.5415,2,1.4473,0,2.625-1.1777,2.625-2.625s-1.1777-2.625-2.625-2.625ZM27,27.375c-.7583,0-1.375-.6172-1.375-1.375s.6167-1.375,1.375-1.375,1.375.6172,1.375,1.375-.6167,1.375-1.375,1.375Z"/><path class="uuid-6b087cc9-120d-404c-beae-0a3cad2a433e" d="M20.7666,5.103c-1.3086-.7397-2.8262-.9253-4.2739-.522-1.4473.4023-2.6514,1.3442-3.3901,2.6523-.7393,1.3086-.9248,2.8262-.522,4.2734.3454,1.2433,1.1068,2.2867,2.1382,3.0298l-5.049,8.9358c-.2151-.0572-.437-.0974-.6699-.0974-1.4473,0-2.625,1.1777-2.625,2.625s1.1777,2.625,2.625,2.625,2.625-1.1777,2.625-2.625c0-.7648-.3345-1.448-.8582-1.9282l5.3153-9.4072c.0009-.0015.0025-.002.0034-.0034.1694-.3008.0635-.6826-.2373-.8516-1.0176-.5752-1.7505-1.5107-2.0635-2.6367s-.1689-2.3066.4062-3.3242c.5742-1.0176,1.5107-1.7505,2.6367-2.0635s2.3066-.1685,3.3242.4062c1.8042,1.0186,2.6504,3.1865,2.0122,5.1543-.1069.3291.0732.6816.4014.7881.3271.1045.6807-.0742.7871-.4014.8218-2.5312-.2661-5.3193-2.5859-6.6294ZM9,27.375c-.7583,0-1.375-.6172-1.375-1.375s.6167-1.375,1.375-1.375,1.375.6172,1.375,1.375-.6167,1.375-1.375,1.375Z"/><path class="uuid-6b087cc9-120d-404c-beae-0a3cad2a433e" d="M31.9185,23.2715c-1.403-2.5317-4.4828-3.5547-7.0916-2.4599l-5.0324-8.9062c.5085-.4791.8306-1.1534.8306-1.9054,0-1.4473-1.1777-2.625-2.625-2.625s-2.625,1.1777-2.625,2.625,1.1777,2.625,2.625,2.625c.2455,0,.4787-.0449.7043-.1082l5.322,9.4188c.0129.0229.0374.0323.0526.0529.0428.0586.0904.1099.1481.1489.0324.0219.0647.0356.1003.051.0567.0248.1142.0395.1758.0467.0234.0027.0439.0179.0676.0179.0117,0,.0228-.0084.0345-.0091.0928-.0044.1856-.0236.2726-.071,2.1089-1.1719,4.7769-.4062,5.9478,1.7041,1.1694,2.1094.4043,4.7783-1.7051,5.9482-1.8115,1.0049-4.103.5918-5.4463-.9814-.2241-.2637-.6187-.2959-.8813-.0703-.2627.2246-.2939.6191-.0698.8809,1.0947,1.2832,2.6777,1.9668,4.2842,1.9668.9287-.001,1.8657-.2295,2.7197-.7021,2.7119-1.5049,3.6953-4.9355,2.1914-7.6475ZM16.625,10c0-.7578.6167-1.375,1.375-1.375s1.375.6172,1.375,1.375-.6167,1.375-1.375,1.375-1.375-.6172-1.375-1.375Z"/></svg>