<svg id="b079f9b2-56b8-45b9-9b32-165d60ed8afb" data-name="Icon" xmlns="http://www.w3.org/2000/svg" viewBox="0 0 36 36">
  <title>Virtual server icon - White</title>
<desc>host, datacenter, computer, virtualization, infrastructure, client, hardware</desc>
<metadata><?xpacket begin="﻿" id="W5M0MpCehiHzreSzNTczkc9d"?>
<x:xmpmeta xmlns:x="adobe:ns:meta/" x:xmptk="Adobe XMP Core 8.0-c001 1.000000, 0000/00/00-00:00:00        ">
   <rdf:RDF xmlns:rdf="http://www.w3.org/1999/02/22-rdf-syntax-ns#">
      <rdf:Description rdf:about=""
            xmlns:xmp="http://ns.adobe.com/xap/1.0/"
            xmlns:dc="http://purl.org/dc/elements/1.1/"
            xmlns:cq="http://www.day.com/jcr/cq/1.0"
            xmlns:tiff="http://ns.adobe.com/tiff/1.0/">
         <xmp:rhcc-effective-on>2023-12-08T17:34:35.860Z</xmp:rhcc-effective-on>
         <xmp:rhcc-metadata-complete-moderator>pending</xmp:rhcc-metadata-complete-moderator>
         <xmp:rhcc-translation-id>TRA90986112-4b0a-4961-b4d9-76a462c68a26</xmp:rhcc-translation-id>
         <xmp:brand-content-type>Icon</xmp:brand-content-type>
         <xmp:CreateDate>2023-12-08T17:34:35.860Z</xmp:CreateDate>
         <xmp:rhcc-aspect-ratio>square</xmp:rhcc-aspect-ratio>
         <xmp:rhcc-effective-on-set-on-upload>true</xmp:rhcc-effective-on-set-on-upload>
         <xmp:rhcc-metadata-complete-uploader>pending</xmp:rhcc-metadata-complete-uploader>
         <xmp:rhcc-file-last-modified>2024-07-12T19:15:25.367Z</xmp:rhcc-file-last-modified>
         <xmp:rhcc-audience>rhcc-audience:internal</xmp:rhcc-audience>
         <xmp:brand-content-subtype>Icon</xmp:brand-content-subtype>
         <xmp:rhcc-rights-restricted>no</xmp:rhcc-rights-restricted>
         <xmp:rhcc-derivative-id>DER90986112-4b0a-4961-b4d9-76a462c68a26</xmp:rhcc-derivative-id>
         <xmp:rhcc-uploaded-by>pmeilleu@redhat.com</xmp:rhcc-uploaded-by>
         <xmp:brand-logo-color>White</xmp:brand-logo-color>
         <xmp:rhcc-notify-portal-subscribers-on-change>yes</xmp:rhcc-notify-portal-subscribers-on-change>
         <dc:format>image/svg+xml</dc:format>
         <dc:modified>2024-02-09T20:13:13.880Z</dc:modified>
         <dc:title>
            <rdf:Alt>
               <rdf:li xml:lang="x-default">Virtual server icon - White</rdf:li>
            </rdf:Alt>
         </dc:title>
         <dc:description>
            <rdf:Alt>
               <rdf:li xml:lang="x-default">host, datacenter, computer, virtualization, infrastructure, client, hardware</rdf:li>
            </rdf:Alt>
         </dc:description>
         <cq:lastReplicationAction_scene7>Activate</cq:lastReplicationAction_scene7>
         <cq:lastReplicationAction_publish>Activate</cq:lastReplicationAction_publish>
         <cq:lastReplicated_publish>2024-10-02T19:47:42.762Z</cq:lastReplicated_publish>
         <cq:lastReplicatedBy>workflow-process-service</cq:lastReplicatedBy>
         <cq:lastReplicationAction>Activate</cq:lastReplicationAction>
         <cq:lastReplicatedBy_publish>workflow-process-service</cq:lastReplicatedBy_publish>
         <cq:isDelivered>false</cq:isDelivered>
         <cq:lastReplicated>2024-10-02T19:47:42.762Z</cq:lastReplicated>
         <cq:lastReplicatedBy_scene7>workflow-process-service</cq:lastReplicatedBy_scene7>
         <cq:lastReplicated_scene7>2024-10-02T19:47:42.762Z</cq:lastReplicated_scene7>
         <tiff:ImageLength>36</tiff:ImageLength>
         <tiff:ImageWidth>36</tiff:ImageWidth>
      </rdf:Description>
   </rdf:RDF>
</x:xmpmeta>
                                                                                                    
                                                                                                    
                                                                                                    
                                                                                                    
                                                                                                    
                                                                                                    
                                                                                                    
                                                                                                    
                                                                                                 
<?xpacket end="w"?></metadata>
<defs>
    <style>
      .ad9751f7-123e-4ce4-a949-059354785195 {
        fill: #fff;
      }
    </style>
  </defs>
  <g>
    <path class="ad9751f7-123e-4ce4-a949-059354785195" d="M31,12.38H5a.63.63,0,0,0-.63.62V23a.63.63,0,0,0,.63.62H31a.62.62,0,0,0,.62-.62V13A.62.62,0,0,0,31,12.38Zm-.63,10H5.62V13.62H30.37Z"/>
    <path class="ad9751f7-123e-4ce4-a949-059354785195" d="M9,18.62h6a.62.62,0,0,0,0-1.24H9a.62.62,0,1,0,0,1.24Z"/>
    <path class="ad9751f7-123e-4ce4-a949-059354785195" d="M24.2,24.89a.63.63,0,1,0,.63.62A.62.62,0,0,0,24.2,24.89Z"/>
    <path class="ad9751f7-123e-4ce4-a949-059354785195" d="M8.7,24.89a.63.63,0,1,0,.62.62A.63.63,0,0,0,8.7,24.89Z"/>
    <path class="ad9751f7-123e-4ce4-a949-059354785195" d="M18,24.89a.63.63,0,0,0,0,1.25.63.63,0,0,0,0-1.25Z"/>
    <path class="ad9751f7-123e-4ce4-a949-059354785195" d="M27.3,24.89a.63.63,0,1,0,.63.62A.62.62,0,0,0,27.3,24.89Z"/>
    <path class="ad9751f7-123e-4ce4-a949-059354785195" d="M21.1,24.89a.63.63,0,1,0,.63.62A.63.63,0,0,0,21.1,24.89Z"/>
    <path class="ad9751f7-123e-4ce4-a949-059354785195" d="M5.6,24.89a.63.63,0,1,0,.62.62A.63.63,0,0,0,5.6,24.89Z"/>
    <path class="ad9751f7-123e-4ce4-a949-059354785195" d="M30.4,24.89a.63.63,0,1,0,.63.62A.62.62,0,0,0,30.4,24.89Z"/>
    <path class="ad9751f7-123e-4ce4-a949-059354785195" d="M11.8,24.89a.63.63,0,1,0,.62.62A.63.63,0,0,0,11.8,24.89Z"/>
    <path class="ad9751f7-123e-4ce4-a949-059354785195" d="M14.9,24.89a.63.63,0,1,0,.62.62A.63.63,0,0,0,14.9,24.89Z"/>
    <path class="ad9751f7-123e-4ce4-a949-059354785195" d="M2.5,12.87a.63.63,0,1,0,.62.62A.63.63,0,0,0,2.5,12.87Z"/>
    <path class="ad9751f7-123e-4ce4-a949-059354785195" d="M2.5,21.88a.63.63,0,1,0,.62.63A.63.63,0,0,0,2.5,21.88Z"/>
    <path class="ad9751f7-123e-4ce4-a949-059354785195" d="M2.5,15.87a.63.63,0,1,0,.62.63A.63.63,0,0,0,2.5,15.87Z"/>
    <path class="ad9751f7-123e-4ce4-a949-059354785195" d="M2.5,18.88a.63.63,0,1,0,.62.62A.63.63,0,0,0,2.5,18.88Z"/>
    <path class="ad9751f7-123e-4ce4-a949-059354785195" d="M8.7,11.11a.63.63,0,1,0-.63-.62A.62.62,0,0,0,8.7,11.11Z"/>
    <path class="ad9751f7-123e-4ce4-a949-059354785195" d="M11.8,11.11a.63.63,0,1,0-.63-.62A.62.62,0,0,0,11.8,11.11Z"/>
    <path class="ad9751f7-123e-4ce4-a949-059354785195" d="M14.9,11.11a.63.63,0,1,0-.63-.62A.62.62,0,0,0,14.9,11.11Z"/>
    <path class="ad9751f7-123e-4ce4-a949-059354785195" d="M24.2,11.11a.63.63,0,1,0-.62-.62A.63.63,0,0,0,24.2,11.11Z"/>
    <path class="ad9751f7-123e-4ce4-a949-059354785195" d="M21.1,11.11a.63.63,0,1,0-.62-.62A.63.63,0,0,0,21.1,11.11Z"/>
    <path class="ad9751f7-123e-4ce4-a949-059354785195" d="M18,11.11a.63.63,0,1,0-.63-.62A.63.63,0,0,0,18,11.11Z"/>
    <path class="ad9751f7-123e-4ce4-a949-059354785195" d="M27.3,11.11a.63.63,0,1,0-.62-.62A.63.63,0,0,0,27.3,11.11Z"/>
    <path class="ad9751f7-123e-4ce4-a949-059354785195" d="M30.4,11.11a.63.63,0,1,0-.62-.62A.63.63,0,0,0,30.4,11.11Z"/>
    <path class="ad9751f7-123e-4ce4-a949-059354785195" d="M5.6,11.11A.63.63,0,1,0,5,10.49.62.62,0,0,0,5.6,11.11Z"/>
    <path class="ad9751f7-123e-4ce4-a949-059354785195" d="M33.5,18.88a.62.62,0,0,0-.62.62.63.63,0,1,0,1.25,0A.62.62,0,0,0,33.5,18.88Z"/>
    <path class="ad9751f7-123e-4ce4-a949-059354785195" d="M33.5,21.88a.63.63,0,1,0,.63.63A.63.63,0,0,0,33.5,21.88Z"/>
    <path class="ad9751f7-123e-4ce4-a949-059354785195" d="M33.5,12.87a.63.63,0,1,0,.63.62A.62.62,0,0,0,33.5,12.87Z"/>
    <path class="ad9751f7-123e-4ce4-a949-059354785195" d="M33.5,15.87a.63.63,0,1,0,.63.63A.63.63,0,0,0,33.5,15.87Z"/>
    <path class="ad9751f7-123e-4ce4-a949-059354785195" d="M33.5,9.86a.63.63,0,1,0,.63.62A.62.62,0,0,0,33.5,9.86Z"/>
    <path class="ad9751f7-123e-4ce4-a949-059354785195" d="M2.49,9.86a.63.63,0,1,0,.63.62A.62.62,0,0,0,2.49,9.86Z"/>
    <path class="ad9751f7-123e-4ce4-a949-059354785195" d="M2.49,24.89a.63.63,0,1,0,.63.62A.62.62,0,0,0,2.49,24.89Z"/>
    <path class="ad9751f7-123e-4ce4-a949-059354785195" d="M33.5,24.89a.63.63,0,1,0,.63.62A.62.62,0,0,0,33.5,24.89Z"/>
    <path class="ad9751f7-123e-4ce4-a949-059354785195" d="M27,17.37a.63.63,0,1,0,.63.62A.62.62,0,0,0,27,17.37Z"/>
  </g>
</svg>
