<?xml version="1.0" encoding="UTF-8"?><svg id="uuid-aa277169-7fff-4701-8c91-02147068b0e2" xmlns="http://www.w3.org/2000/svg" viewBox="0 0 38 38"><title>Red Hat 3scale API Management icon</title>
<desc>application programming interface, application services</desc>
<metadata><?xpacket begin="﻿" id="W5M0MpCehiHzreSzNTczkc9d"?>
<x:xmpmeta xmlns:x="adobe:ns:meta/" x:xmptk="Adobe XMP Core 8.0-c001 1.000000, 0000/00/00-00:00:00        ">
   <rdf:RDF xmlns:rdf="http://www.w3.org/1999/02/22-rdf-syntax-ns#">
      <rdf:Description rdf:about=""
            xmlns:xmp="http://ns.adobe.com/xap/1.0/"
            xmlns:dc="http://purl.org/dc/elements/1.1/"
            xmlns:cq="http://www.day.com/jcr/cq/1.0"
            xmlns:tiff="http://ns.adobe.com/tiff/1.0/"
            xmlns:xmpRights="http://ns.adobe.com/xap/1.0/rights/">
         <xmp:rhcc-effective-on>2024-03-01T15:26:25.836Z</xmp:rhcc-effective-on>
         <xmp:rhcc-metadata-complete-moderator>pending</xmp:rhcc-metadata-complete-moderator>
         <xmp:rhcc-translation-id>TRA2aa58955-dd88-41f3-80a1-49bc176575c1</xmp:rhcc-translation-id>
         <xmp:brand-content-type>Icon</xmp:brand-content-type>
         <xmp:CreateDate>2024-03-01T15:26:25.836Z</xmp:CreateDate>
         <xmp:rhcc-aspect-ratio>square</xmp:rhcc-aspect-ratio>
         <xmp:rhcc-effective-on-set-on-upload>true</xmp:rhcc-effective-on-set-on-upload>
         <xmp:rhcc-published-asset-email-sent>true</xmp:rhcc-published-asset-email-sent>
         <xmp:rhcc-metadata-complete-uploader>pending</xmp:rhcc-metadata-complete-uploader>
         <xmp:rhcc-file-last-modified>2024-07-13T00:09:40.973Z</xmp:rhcc-file-last-modified>
         <xmp:rhcc-audience>rhcc-audience:internal</xmp:rhcc-audience>
         <xmp:rhcc-rights-restricted>no</xmp:rhcc-rights-restricted>
         <xmp:brand-content-subtype>Technology icon</xmp:brand-content-subtype>
         <xmp:rhcc-derivative-id>DER2aa58955-dd88-41f3-80a1-49bc176575c1</xmp:rhcc-derivative-id>
         <xmp:rhcc-uploaded-by>pmeilleu@redhat.com</xmp:rhcc-uploaded-by>
         <xmp:brand-logo-color>Red</xmp:brand-logo-color>
         <xmp:rhcc-notify-portal-subscribers-on-change>yes</xmp:rhcc-notify-portal-subscribers-on-change>
         <xmp:rhcc-product>
            <rdf:Bag>
               <rdf:li>rhcc-product:red-hat-3scale-api-management</rdf:li>
            </rdf:Bag>
         </xmp:rhcc-product>
         <xmp:brand-subtype>
            <rdf:Bag>
               <rdf:li>Technology icon</rdf:li>
            </rdf:Bag>
         </xmp:brand-subtype>
         <dc:format>image/svg+xml</dc:format>
         <dc:modified>2024-05-10T13:41:53.327Z</dc:modified>
         <dc:title>
            <rdf:Alt>
               <rdf:li xml:lang="x-default">Red Hat 3scale API Management icon</rdf:li>
            </rdf:Alt>
         </dc:title>
         <dc:description>
            <rdf:Alt>
               <rdf:li xml:lang="x-default">application programming interface, application services</rdf:li>
            </rdf:Alt>
         </dc:description>
         <cq:lastReplicationAction_scene7>Activate</cq:lastReplicationAction_scene7>
         <cq:lastReplicationAction_publish>Activate</cq:lastReplicationAction_publish>
         <cq:lastReplicated_publish>2024-10-02T19:51:54.458Z</cq:lastReplicated_publish>
         <cq:lastReplicatedBy>workflow-process-service</cq:lastReplicatedBy>
         <cq:lastReplicationAction>Activate</cq:lastReplicationAction>
         <cq:lastReplicatedBy_publish>workflow-process-service</cq:lastReplicatedBy_publish>
         <cq:isDelivered>false</cq:isDelivered>
         <cq:lastReplicated>2024-10-02T19:51:54.458Z</cq:lastReplicated>
         <cq:lastReplicatedBy_scene7>workflow-process-service</cq:lastReplicatedBy_scene7>
         <cq:lastReplicated_scene7>2024-10-02T19:51:54.458Z</cq:lastReplicated_scene7>
         <tiff:ImageLength>38</tiff:ImageLength>
         <tiff:ImageWidth>38</tiff:ImageWidth>
         <xmpRights:UsageTerms>
            <rdf:Alt>
               <rdf:li xml:lang="x-default">Use technology icons to represent Red Hat products and components. Do not remove the icon from the bounding shape.</rdf:li>
            </rdf:Alt>
         </xmpRights:UsageTerms>
      </rdf:Description>
   </rdf:RDF>
</x:xmpmeta>
                                                                                                    
                                                                                                    
                                                                                                    
                                                                                                    
                                                                                                    
                                                                                                    
                                                                                                    
                                                                                                    
                                                                                                    
                                                                                                    
                                                                                                    
                                                                                                    
                                                                                                    
                                                                                                    
                                                                                                    
                                                                                                    
                                                 
<?xpacket end="w"?></metadata>
<defs><style>.uuid-8ba1f071-220b-43ba-bff5-1f7b6f80e4a7{fill:#e00;}</style></defs><rect class="uuid-8ba1f071-220b-43ba-bff5-1f7b6f80e4a7" x="9.625" y="18.08643" width="1.75" height="1.75"/><circle class="uuid-8ba1f071-220b-43ba-bff5-1f7b6f80e4a7" cx="12.5" cy="25" r=".875"/><circle class="uuid-8ba1f071-220b-43ba-bff5-1f7b6f80e4a7" cx="12.5" cy="12.80762" r=".875"/><circle class="uuid-8ba1f071-220b-43ba-bff5-1f7b6f80e4a7" cx="25.5" cy="12.80762" r=".875"/><circle class="uuid-8ba1f071-220b-43ba-bff5-1f7b6f80e4a7" cx="19" cy="19" r="2.875"/><path class="uuid-8ba1f071-220b-43ba-bff5-1f7b6f80e4a7" d="m28,1H10C5.02942,1,1,5.02942,1,10v18c0,4.97058,4.02942,9,9,9h18c4.97058,0,9-4.02942,9-9V10c0-4.97058-4.02942-9-9-9Zm1.625,19.46143c0,.34521-.28027.625-.625.625h-3c-.34473,0-.625-.27979-.625-.625v-.83643h-2.31323c-.15619,1.01544-.68103,1.90021-1.43677,2.53009v2.21991h1.85461c.2688-.8656,1.06744-1.5,2.02039-1.5,1.17188,0,2.125.95312,2.125,2.125s-.95312,2.125-2.125,2.125c-.95288,0-1.75159-.6344-2.02039-1.5h-2.47961c-.34473,0-.625-.27979-.625-.625v-2.12842c-.43219.15411-.89056.25342-1.375.25342s-.94281-.0993-1.375-.25342v2.12842c0,.34521-.28027.625-.625.625h-2.47955c-.2688.8656-1.06757,1.5-2.02045,1.5-1.17188,0-2.125-.95312-2.125-2.125s.95312-2.125,2.125-2.125c.95294,0,1.75165.6344,2.02045,1.5h1.85455v-2.21991c-.75574-.62988-1.28058-1.51465-1.43677-2.53009h-2.31323v.83643c0,.34521-.28027.625-.625.625h-3c-.34473,0-.625-.27979-.625-.625v-3c0-.34521.28027-.625.625-.625h3c.34473,0,.625.27979.625.625v.91357h2.31323c.15619-1.01544.68103-1.90021,1.43677-2.53009v-2.21991h-1.91443c-.32098.76703-1.07837,1.30762-1.96057,1.30762-1.17188,0-2.125-.95312-2.125-2.125s.95312-2.125,2.125-2.125c1.02362,0,1.87988.72736,2.08026,1.69238h2.41974c.34473,0,.625.27979.625.625v2.12842c.43219-.15411.89056-.25342,1.375-.25342s.94281.0993,1.375.25342v-2.12842c0-.34521.28027-.625.625-.625h2.4198c.20038-.96503,1.05658-1.69238,2.0802-1.69238,1.17188,0,2.125.95312,2.125,2.125s-.95312,2.125-2.125,2.125c-.8822,0-1.63959-.54059-1.96057-1.30762h-1.91443v2.21991c.75574.62988,1.28058,1.51465,1.43677,2.53009h2.31323v-.91357c0-.34521.28027-.625.625-.625h3c.34473,0,.625.27979.625.625v3Z"/><circle class="uuid-8ba1f071-220b-43ba-bff5-1f7b6f80e4a7" cx="25.5" cy="25" r=".875"/><rect class="uuid-8ba1f071-220b-43ba-bff5-1f7b6f80e4a7" x="26.625" y="18.08643" width="1.75" height="1.75"/></svg>