<?xml version="1.0" encoding="UTF-8"?><svg id="uuid-569e1848-c99e-46ca-b5d3-ab139da09a0e" xmlns="http://www.w3.org/2000/svg" width="36" height="36" viewBox="0 0 36 36"><title>AI model (validated) icon</title>
<desc>AI, artificial intelligence, machine learning, neural network, data, algorithm, robot, automation, digital brain, futuristic, technology, innovation, smart, intelligence, validation, validate</desc>
<metadata><?xpacket begin="﻿" id="W5M0MpCehiHzreSzNTczkc9d"?>
<x:xmpmeta xmlns:x="adobe:ns:meta/" x:xmptk="Adobe XMP Core 8.0-c001 1.000000, 0000/00/00-00:00:00        ">
   <rdf:RDF xmlns:rdf="http://www.w3.org/1999/02/22-rdf-syntax-ns#">
      <rdf:Description rdf:about=""
            xmlns:xmp="http://ns.adobe.com/xap/1.0/"
            xmlns:tiff="http://ns.adobe.com/tiff/1.0/"
            xmlns:dc="http://purl.org/dc/elements/1.1/">
         <xmp:rhcc-file-last-modified>2025-05-12T17:42:33.019Z</xmp:rhcc-file-last-modified>
         <xmp:rhcc-rights-restricted>no</xmp:rhcc-rights-restricted>
         <xmp:rhcc-aspect-ratio>square</xmp:rhcc-aspect-ratio>
         <xmp:brand-content-subtype>Icon</xmp:brand-content-subtype>
         <xmp:brand-content-type>Icon</xmp:brand-content-type>
         <xmp:brand-logo-color>White</xmp:brand-logo-color>
         <xmp:brand-colorway>
            <rdf:Bag>
               <rdf:li>colorway:white</rdf:li>
            </rdf:Bag>
         </xmp:brand-colorway>
         <xmp:rhcc-topics>
            <rdf:Bag>
               <rdf:li>rhcc-topics:artificial-intelligence</rdf:li>
            </rdf:Bag>
         </xmp:rhcc-topics>
         <tiff:ImageWidth>36</tiff:ImageWidth>
         <tiff:ImageLength>36</tiff:ImageLength>
         <dc:format>image/svg+xml</dc:format>
         <dc:modified>2025-05-12T17:43:17.959Z</dc:modified>
         <dc:description>
            <rdf:Alt>
               <rdf:li xml:lang="x-default">AI, artificial intelligence, machine learning, neural network, data, algorithm, robot, automation, digital brain, futuristic, technology, innovation, smart, intelligence, validation, validate</rdf:li>
            </rdf:Alt>
         </dc:description>
         <dc:title>
            <rdf:Alt>
               <rdf:li xml:lang="x-default">AI model (validated) icon</rdf:li>
            </rdf:Alt>
         </dc:title>
      </rdf:Description>
   </rdf:RDF>
</x:xmpmeta>
                                                                                                    
                                                                                                    
                                                                                                    
                                                                                                    
                                                                                                    
                                                                                                    
                                                                                                    
                                                                                                    
                                                                                                    
                                                                                                    
                                                                                                    
                                                                                                    
                                                                                                    
                                                                                                    
                                            
<?xpacket end="w"?></metadata>
<defs><style>.uuid-09954ab8-9696-4d32-b2d2-a59b2b87b58f{fill:#fff;}</style></defs><path class="uuid-09954ab8-9696-4d32-b2d2-a59b2b87b58f" d="M28.22461,25.44727l-1.78027,1.78027-.66895-.66895c-.24365-.24316-.63916-.24609-.88379-.00098-.24414.24414-.24414.63965,0,.88379l1.11084,1.11133c.11719.11816.27588.18359.44189.18359s.32471-.06543.44189-.18359l2.22217-2.22168c.24414-.24414.24414-.64062,0-.88477s-.63965-.24316-.88379.00098Z"/><path class="uuid-09954ab8-9696-4d32-b2d2-a59b2b87b58f" d="M27,21.375c-3.10156,0-5.625,2.52344-5.625,5.625s2.52344,5.625,5.625,5.625,5.625-2.52344,5.625-5.625-2.52344-5.625-5.625-5.625ZM27,31.375c-2.4126,0-4.375-1.96289-4.375-4.375s1.9624-4.375,4.375-4.375,4.375,1.96289,4.375,4.375-1.9624,4.375-4.375,4.375Z"/><path class="uuid-09954ab8-9696-4d32-b2d2-a59b2b87b58f" d="M21.44189,20.55762l-.81689-.81683v-1.11578h5.75v.375c0,.34473.27979.625.625.625s.625-.28027.625-.625v-2.375h2.75v3.375c0,.34473.27979.625.625.625s.625-.28027.625-.625v-4c0-.34473-.27979-.625-.625-.625h-4c-.34521,0-.625.28027-.625.625v1.375h-5.75v-1.11572l6.63428-6.63428h3.74072c.34521,0,.625-.28027.625-.625v-4c0-.34521-.27979-.625-.625-.625h-4c-.34521,0-.625.27979-.625.625v1.375H9.625v-1.375c0-.34521-.27979-.625-.625-.625h-4c-.34521,0-.625.27979-.625.625v4c0,.34473.27979.625.625.625h3.74072l6.63428,6.63428v1.11572h-5.75v-1.375c0-.34473-.27979-.625-.625-.625h-4c-.34521,0-.625.28027-.625.625v4c0,.34473.27979.625.625.625h4c.34521,0,.625-.28027.625-.625v-1.375h5.75v1.11597l-6.63422,6.63403h-3.74078c-.34521,0-.625.28027-.625.625v4c0,.34473.27979.625.625.625h4c.34521,0,.625-.28027.625-.625v-1.375h9.375c.34521,0,.625-.28027.625-.625s-.27979-.625-.625-.625h-9.375v-1.11572l6.63428-6.63428h3.48145l.81738.81738c.12207.12207.28174.18262.44189.18262s.31982-.06055.44189-.18262c.24414-.24414.24414-.64062,0-.88477ZM8.375,19.375h-2.75v-2.75h2.75v2.75ZM16.625,16.625h2.75v2.75h-2.75v-2.75ZM27.625,5.625h2.75v2.75h-2.75v-2.75ZM26.375,7.625v1.11621l-6.63403,6.63379h-3.48187l-6.63409-6.63385v-1.11615h16.75ZM5.625,5.625h2.75v2.75h-2.75v-2.75ZM8.375,30.375h-2.75v-2.75h2.75v2.75Z"/></svg>