<?xml version="1.0" encoding="UTF-8"?><svg id="uuid-4eeb6f30-79bf-42a4-8fda-53ef87b80aed" xmlns="http://www.w3.org/2000/svg" width="38" height="38" viewBox="0 0 38 38"><title>Red Hat Developer Hub icon</title>
<desc>RHDH, cloud, OpenShift Developer Services</desc>
<metadata><?xpacket begin="﻿" id="W5M0MpCehiHzreSzNTczkc9d"?>
<x:xmpmeta xmlns:x="adobe:ns:meta/" x:xmptk="Adobe XMP Core 8.0-c001 1.000000, 0000/00/00-00:00:00        ">
   <rdf:RDF xmlns:rdf="http://www.w3.org/1999/02/22-rdf-syntax-ns#">
      <rdf:Description rdf:about=""
            xmlns:xmp="http://ns.adobe.com/xap/1.0/"
            xmlns:dc="http://purl.org/dc/elements/1.1/"
            xmlns:cq="http://www.day.com/jcr/cq/1.0"
            xmlns:tiff="http://ns.adobe.com/tiff/1.0/"
            xmlns:xmpRights="http://ns.adobe.com/xap/1.0/rights/">
         <xmp:rhcc-effective-on>2024-03-01T15:26:38.140Z</xmp:rhcc-effective-on>
         <xmp:rhcc-metadata-complete-moderator>pending</xmp:rhcc-metadata-complete-moderator>
         <xmp:rhcc-translation-id>TRA8f398d6f-a4dc-4f21-b3d4-7f9a678d3622</xmp:rhcc-translation-id>
         <xmp:brand-content-type>Icon</xmp:brand-content-type>
         <xmp:CreateDate>2024-03-01T15:26:38.140Z</xmp:CreateDate>
         <xmp:rhcc-aspect-ratio>square</xmp:rhcc-aspect-ratio>
         <xmp:rhcc-effective-on-set-on-upload>true</xmp:rhcc-effective-on-set-on-upload>
         <xmp:rhcc-metadata-complete-uploader>pending</xmp:rhcc-metadata-complete-uploader>
         <xmp:rhcc-file-last-modified>2024-07-12T23:52:25.870Z</xmp:rhcc-file-last-modified>
         <xmp:rhcc-audience>rhcc-audience:internal</xmp:rhcc-audience>
         <xmp:rhcc-rights-restricted>no</xmp:rhcc-rights-restricted>
         <xmp:brand-content-subtype>Technology icon</xmp:brand-content-subtype>
         <xmp:rhcc-derivative-id>DER8f398d6f-a4dc-4f21-b3d4-7f9a678d3622</xmp:rhcc-derivative-id>
         <xmp:rhcc-uploaded-by>pmeilleu@redhat.com</xmp:rhcc-uploaded-by>
         <xmp:rhcc-notify-portal-subscribers-on-change>yes</xmp:rhcc-notify-portal-subscribers-on-change>
         <xmp:rhcc-product>
            <rdf:Bag>
               <rdf:li>rhcc-product:red-hat-developer-hub</rdf:li>
            </rdf:Bag>
         </xmp:rhcc-product>
         <dc:format>image/svg+xml</dc:format>
         <dc:modified>2024-05-10T14:10:03.604Z</dc:modified>
         <dc:title>
            <rdf:Alt>
               <rdf:li xml:lang="x-default">Red Hat Developer Hub icon</rdf:li>
            </rdf:Alt>
         </dc:title>
         <dc:description>
            <rdf:Alt>
               <rdf:li xml:lang="x-default">RHDH, cloud, OpenShift Developer Services</rdf:li>
            </rdf:Alt>
         </dc:description>
         <cq:lastReplicationAction_scene7>Activate</cq:lastReplicationAction_scene7>
         <cq:lastReplicationAction_publish>Activate</cq:lastReplicationAction_publish>
         <cq:lastReplicated_publish>2024-10-02T19:52:29.988Z</cq:lastReplicated_publish>
         <cq:lastReplicatedBy>workflow-process-service</cq:lastReplicatedBy>
         <cq:lastReplicationAction>Activate</cq:lastReplicationAction>
         <cq:lastReplicatedBy_publish>workflow-process-service</cq:lastReplicatedBy_publish>
         <cq:isDelivered>false</cq:isDelivered>
         <cq:lastReplicated>2024-10-02T19:52:29.988Z</cq:lastReplicated>
         <cq:lastReplicatedBy_scene7>workflow-process-service</cq:lastReplicatedBy_scene7>
         <cq:lastReplicated_scene7>2024-10-02T19:52:29.988Z</cq:lastReplicated_scene7>
         <tiff:ImageLength>38</tiff:ImageLength>
         <tiff:ImageWidth>38</tiff:ImageWidth>
         <xmpRights:UsageTerms>
            <rdf:Alt>
               <rdf:li xml:lang="x-default">Use technology icons to represent Red Hat products and components. Do not remove the icon from the bounding shape.</rdf:li>
            </rdf:Alt>
         </xmpRights:UsageTerms>
      </rdf:Description>
   </rdf:RDF>
</x:xmpmeta>
                                                                                                    
                                                                                                    
                                                                                                    
                                                                                                    
                                                                                                    
                                                                                                    
                                                                                                    
                                                                                                    
                                                                                                    
                                                                                                    
                                                                                                    
                                                                                                    
                                                                                                    
                                                                                                    
                                                                                                    
                                                                                                    
                                                                                                    
                                          
<?xpacket end="w"?></metadata>
<circle cx="10.5" cy="19" r=".875" stroke-width="0"/><circle cx="19" cy="27.5" r=".875" stroke-width="0"/><circle cx="19" cy="19" r="3.375" stroke-width="0"/><path d="m28,1H10C5.02942,1,1,5.02942,1,10v18c0,4.97058,4.02942,9,9,9h18c4.97058,0,9-4.02942,9-9V10c0-4.97058-4.02942-9-9-9Zm-9,7.375c1.17188,0,2.125.95312,2.125,2.125s-.95312,2.125-2.125,2.125-2.125-.95312-2.125-2.125.95312-2.125,2.125-2.125Zm-8,0c1.44727,0,2.625,1.17773,2.625,2.625,0,.49689-.14667.95703-.38757,1.35364l1.20447,1.20447c.24414.24414.24414.63965,0,.88379-.12207.12207-.28174.18311-.44189.18311s-.31982-.06104-.44189-.18311l-1.20447-1.20447c-.39661.24091-.85675.38757-1.35364.38757-1.44727,0-2.625-1.17773-2.625-2.625s1.17773-2.625,2.625-2.625Zm-.5,8.5c1.17188,0,2.125.95312,2.125,2.125s-.95312,2.125-2.125,2.125-2.125-.95312-2.125-2.125.95312-2.125,2.125-2.125Zm3.94189,7.56689l-1.20447,1.20447c.24091.39661.38757.85675.38757,1.35364,0,1.44727-1.17773,2.625-2.625,2.625s-2.625-1.17773-2.625-2.625,1.17773-2.625,2.625-2.625c.49689,0,.95703.14667,1.35364.38757l1.20447-1.20447c.24414-.24414.63965-.24414.88379,0s.24414.63965,0,.88379Zm4.55811,5.18311c-1.17188,0-2.125-.95312-2.125-2.125s.95312-2.125,2.125-2.125,2.125.95312,2.125,2.125-.95312,2.125-2.125,2.125Zm7.44238-3.18311c-.12207.12207-.28223.18311-.44238.18311s-.32031-.06104-.44238-.18311l-3.77325-3.77325c-.7771.59143-1.73492.95636-2.78436.95636-2.55029,0-4.625-2.07471-4.625-4.625s2.07471-4.625,4.625-4.625c2.5498,0,4.625,2.07471,4.625,4.625,0,1.04956-.36493,2.00732-.95636,2.78436l3.77374,3.77374c.24316.24414.24316.63965,0,.88379Zm1.05762-5.31689c-1.17188,0-2.125-.95312-2.125-2.125s.95312-2.125,2.125-2.125,2.125.95312,2.125,2.125-.95312,2.125-2.125,2.125Zm-.5-7.5c-.49689,0-.95691-.14667-1.35352-.38757l-1.2041,1.20447c-.12207.12207-.28223.18311-.44238.18311s-.32031-.06104-.44141-.18311c-.24414-.24414-.24512-.63965-.00098-.88379l1.20465-1.20508c-.24066-.39648-.38727-.85632-.38727-1.35303,0-1.44727,1.17773-2.625,2.625-2.625s2.625,1.17773,2.625,2.625-1.17773,2.625-2.625,2.625Z" stroke-width="0"/><path d="m11,12.375c.37799,0,.72058-.1535.96936-.40112.00079-.00079.00104-.00189.00183-.00269s.00189-.00104.00269-.00183c.24762-.24878.40112-.59137.40112-.96936,0-.7583-.6167-1.375-1.375-1.375s-1.375.6167-1.375,1.375.6167,1.375,1.375,1.375Z" stroke-width="0"/><path d="m11.97168,26.02832c-.00024-.00024-.00024-.00049-.00049-.00073-.2489-.2486-.59235-.40259-.97119-.40259-.7583,0-1.375.6167-1.375,1.375s.6167,1.375,1.375,1.375,1.375-.6167,1.375-1.375c0-.37885-.15399-.72229-.40259-.97119-.00024-.00024-.00049-.00024-.00073-.00049Z" stroke-width="0"/><circle cx="19" cy="10.5" r=".875" stroke-width="0"/><path d="m27,9.625c-.75781,0-1.375.6167-1.375,1.375,0,.37793.15356.72052.40118.9693.00061.00061.00153.00079.00214.0014.00073.00073.00098.00183.00171.00256.2489.24805.59186.40173.96997.40173.75781,0,1.375-.6167,1.375-1.375s-.61719-1.375-1.375-1.375Z" stroke-width="0"/><circle cx="27.5" cy="19" r=".875" stroke-width="0"/></svg>