<?xml version="1.0" encoding="UTF-8"?><svg id="uuid-9c64ab4b-8b2c-4fea-a766-3a9e8612b835" xmlns="http://www.w3.org/2000/svg" viewBox="0 0 38 38"><title>Ansible core icon</title>
<desc>Management</desc>
<metadata><?xpacket begin="﻿" id="W5M0MpCehiHzreSzNTczkc9d"?>
<x:xmpmeta xmlns:x="adobe:ns:meta/" x:xmptk="Adobe XMP Core 8.0-c001 1.000000, 0000/00/00-00:00:00        ">
   <rdf:RDF xmlns:rdf="http://www.w3.org/1999/02/22-rdf-syntax-ns#">
      <rdf:Description rdf:about=""
            xmlns:xmp="http://ns.adobe.com/xap/1.0/"
            xmlns:dc="http://purl.org/dc/elements/1.1/"
            xmlns:cq="http://www.day.com/jcr/cq/1.0"
            xmlns:tiff="http://ns.adobe.com/tiff/1.0/"
            xmlns:xmpRights="http://ns.adobe.com/xap/1.0/rights/">
         <xmp:rhcc-effective-on>2024-03-01T15:25:49.163Z</xmp:rhcc-effective-on>
         <xmp:rhcc-metadata-complete-moderator>pending</xmp:rhcc-metadata-complete-moderator>
         <xmp:rhcc-translation-id>TRA44bcaee4-2866-4cd7-837a-d4c24c6de55b</xmp:rhcc-translation-id>
         <xmp:brand-content-type>Icon</xmp:brand-content-type>
         <xmp:CreateDate>2024-03-01T15:25:49.163Z</xmp:CreateDate>
         <xmp:rhcc-aspect-ratio>square</xmp:rhcc-aspect-ratio>
         <xmp:rhcc-effective-on-set-on-upload>true</xmp:rhcc-effective-on-set-on-upload>
         <xmp:rhcc-published-asset-email-sent>true</xmp:rhcc-published-asset-email-sent>
         <xmp:rhcc-metadata-complete-uploader>pending</xmp:rhcc-metadata-complete-uploader>
         <xmp:rhcc-file-last-modified>2024-07-13T00:09:58.397Z</xmp:rhcc-file-last-modified>
         <xmp:rhcc-audience>rhcc-audience:internal</xmp:rhcc-audience>
         <xmp:rhcc-rights-restricted>no</xmp:rhcc-rights-restricted>
         <xmp:brand-content-subtype>Technology icon</xmp:brand-content-subtype>
         <xmp:rhcc-derivative-id>DER44bcaee4-2866-4cd7-837a-d4c24c6de55b</xmp:rhcc-derivative-id>
         <xmp:rhcc-uploaded-by>pmeilleu@redhat.com</xmp:rhcc-uploaded-by>
         <xmp:brand-logo-color>Black</xmp:brand-logo-color>
         <xmp:rhcc-notify-portal-subscribers-on-change>yes</xmp:rhcc-notify-portal-subscribers-on-change>
         <xmp:rhcc-product>
            <rdf:Bag>
               <rdf:li>rhcc-product:red-hat-ansible-automation-platform</rdf:li>
            </rdf:Bag>
         </xmp:rhcc-product>
         <xmp:brand-subtype>
            <rdf:Bag>
               <rdf:li>Technology icon</rdf:li>
            </rdf:Bag>
         </xmp:brand-subtype>
         <dc:format>image/svg+xml</dc:format>
         <dc:modified>2024-05-10T12:20:09.919Z</dc:modified>
         <dc:title>
            <rdf:Alt>
               <rdf:li xml:lang="x-default">Ansible core icon</rdf:li>
            </rdf:Alt>
         </dc:title>
         <dc:description>
            <rdf:Alt>
               <rdf:li xml:lang="x-default">Management</rdf:li>
            </rdf:Alt>
         </dc:description>
         <cq:lastReplicationAction_scene7>Activate</cq:lastReplicationAction_scene7>
         <cq:lastReplicationAction_publish>Activate</cq:lastReplicationAction_publish>
         <cq:lastReplicated_publish>2024-10-02T19:50:22.948Z</cq:lastReplicated_publish>
         <cq:lastReplicatedBy>workflow-process-service</cq:lastReplicatedBy>
         <cq:lastReplicationAction>Activate</cq:lastReplicationAction>
         <cq:lastReplicatedBy_publish>workflow-process-service</cq:lastReplicatedBy_publish>
         <cq:isDelivered>false</cq:isDelivered>
         <cq:lastReplicated>2024-10-02T19:50:22.948Z</cq:lastReplicated>
         <cq:lastReplicatedBy_scene7>workflow-process-service</cq:lastReplicatedBy_scene7>
         <cq:lastReplicated_scene7>2024-10-02T19:50:22.948Z</cq:lastReplicated_scene7>
         <tiff:ImageLength>38</tiff:ImageLength>
         <tiff:ImageWidth>38</tiff:ImageWidth>
         <xmpRights:UsageTerms>
            <rdf:Alt>
               <rdf:li xml:lang="x-default">Use technology icons to represent Red Hat products and components. Do not remove the icon from the bounding shape.</rdf:li>
            </rdf:Alt>
         </xmpRights:UsageTerms>
      </rdf:Description>
   </rdf:RDF>
</x:xmpmeta>
                                                                                                    
                                                                                                    
                                                                                                    
                                                                                                    
                                                                                                    
                                                                                                    
                                                                                                    
                                                                                                    
                                                                                                    
                                                                                                    
                                                                                                    
                                                                                                    
                                                                                                    
                                                                                                    
                                                                                                    
                                                                                                    
                                                      
<?xpacket end="w"?></metadata>
<path d="m28,1H10C5.02942,1,1,5.02942,1,10v18c0,4.97058,4.02942,9,9,9h18c4.97058,0,9-4.02942,9-9V10c0-4.97058-4.02942-9-9-9Zm7.75,27c0,4.27338-3.47668,7.75-7.75,7.75H10c-4.27332,0-7.75-3.47662-7.75-7.75V10c0-4.27338,3.47668-7.75,7.75-7.75h18c4.27332,0,7.75,3.47662,7.75,7.75v18Z"/><path d="m15.72949,22.27051c.12207.12207.28223.18262.44238.18262s.32031-.06055.44238-.18262l.5437-.54364c.36084.24457.77368.4162,1.21704.50189v.77124c0,.34473.28027.625.625.625s.625-.28027.625-.625v-.77124c.44336-.08569.8562-.25732,1.21704-.50189l.5437.54364c.12207.12207.28223.18262.44238.18262s.32031-.06055.44238-.18262c.24316-.24414.24316-.64062,0-.88477l-.5437-.54364c.24463-.36096.41626-.7738.50195-1.2171h.77124c.34473,0,.625-.28027.625-.625s-.28027-.625-.625-.625h-.77124c-.08569-.4433-.25732-.85614-.50195-1.2171l.5437-.54364c.24316-.24414.24316-.64062,0-.88477-.24414-.24414-.64062-.24414-.88477,0l-.5437.54364c-.36084-.24457-.77368-.4162-1.21704-.50189v-.77124c0-.34473-.28027-.625-.625-.625s-.625.28027-.625.625v.77124c-.44336.08569-.8562.25732-1.21704.50189l-.5437-.54364c-.24414-.24414-.64062-.24414-.88477,0-.24316.24414-.24316.64062,0,.88477l.5437.54364c-.24463.36096-.41626.7738-.50195,1.2171h-.77124c-.34473,0-.625.28027-.625.625s.28027.625.625.625h.77124c.08569.4433.25732.85614.50195,1.2171l-.5437.54364c-.24316.24414-.24316.64062,0,.88477Zm3.27051-5.3125c1.12598,0,2.04199.91602,2.04199,2.04199s-.91602,2.04199-2.04199,2.04199-2.04199-.91602-2.04199-2.04199.91602-2.04199,2.04199-2.04199Z"/><path d="m13.51367,25.6582c.11621.0957.25684.14258.39746.14258.17969,0,.35938-.07812.48242-.22754.21973-.2666.18164-.66016-.08496-.87988-2.59668-2.1377-3.41602-5.76074-1.99121-8.81152,1.42383-3.05225,4.72559-4.75,8.03125-4.13428.33887.06348.66602-.15967.72949-.49951.06348-.33936-.16016-.66553-.49902-.729-3.87109-.72217-7.72949,1.26562-9.39453,4.8335-1.66602,3.56738-.70801,7.80566,2.3291,10.30566Z"/><path d="m17.4209,27.48145c.53125.09961,1.06055.14746,1.58594.14746,3.29883,0,6.37207-1.90234,7.80859-4.98145,1.66602-3.56836.70801-7.80566-2.3291-10.30518-.26465-.21729-.66113-.18311-.87988.08545-.21973.26611-.18164.66016.08496.87939,2.59668,2.13721,3.41602,5.76025,1.99121,8.81104-1.42383,3.05176-4.73242,4.75293-8.03125,4.13477-.33594-.06738-.66699.16016-.72949.49902-.06348.33984.16016.66602.49902.72949Z"/><path d="m11.4541,11.87939c1.98145-2.09863,4.66113-3.25439,7.5459-3.25439s5.56445,1.15576,7.5459,3.25439c.12305.12988.28809.1958.4541.1958.1543,0,.30859-.05664.42871-.17041.25098-.2373.2627-.63281.02539-.88379-2.21973-2.35107-5.22168-3.646-8.4541-3.646s-6.23438,1.29492-8.4541,3.646c-.2373.25098-.22559.64648.02539.88379.24902.23682.64551.22607.88281-.02539Z"/><path d="m19,29.375c-5.7207,0-10.375-4.6543-10.375-10.375,0-1.30273.23828-2.57227.70703-3.77246.12598-.32129-.0332-.68359-.35449-.80957s-.68359.03223-.80957.35449c-.52637,1.3457-.79297,2.76855-.79297,4.22754,0,6.41016,5.21484,11.625,11.625,11.625.34473,0,.625-.28027.625-.625s-.28027-.625-.625-.625Z"/><path d="m28.73926,13.84326c-.31348.14404-.45117.51514-.30762.82861.62598,1.3623.94336,2.81836.94336,4.32812,0,3.10645-1.375,6.02344-3.77344,8.00391-.85352.70508-1.80469,1.26465-2.8291,1.66406-.32129.125-.48047.4873-.35449.80957.0957.24609.33203.39746.58203.39746.0752,0,.15234-.01367.22754-.04297,1.14746-.44727,2.21387-1.0752,3.1709-1.86426,2.68555-2.21875,4.22656-5.4873,4.22656-8.96777,0-1.69141-.35547-3.32324-1.05664-4.84961-.14453-.31494-.52051-.45215-.8291-.30713Z"/></svg>