<svg id="b9f65da2-4ea0-48dc-9be2-c78ac4bddf7f" data-name="Icon" xmlns="http://www.w3.org/2000/svg" viewBox="0 0 36 36">
  <title>Running shoe icon - White</title>
<desc>foot, footwear, wear, clothes, tennis shoe, sneaker, step, walk, run, exercise, athletic, sports, objects</desc>
<metadata><?xpacket begin="﻿" id="W5M0MpCehiHzreSzNTczkc9d"?>
<x:xmpmeta xmlns:x="adobe:ns:meta/" x:xmptk="Adobe XMP Core 8.0-c001 1.000000, 0000/00/00-00:00:00        ">
   <rdf:RDF xmlns:rdf="http://www.w3.org/1999/02/22-rdf-syntax-ns#">
      <rdf:Description rdf:about=""
            xmlns:xmp="http://ns.adobe.com/xap/1.0/"
            xmlns:dc="http://purl.org/dc/elements/1.1/"
            xmlns:cq="http://www.day.com/jcr/cq/1.0"
            xmlns:tiff="http://ns.adobe.com/tiff/1.0/">
         <xmp:rhcc-effective-on>2023-12-08T17:36:28.124Z</xmp:rhcc-effective-on>
         <xmp:rhcc-metadata-complete-moderator>pending</xmp:rhcc-metadata-complete-moderator>
         <xmp:rhcc-translation-id>TRA98f47ec3-0c86-4fc0-a2a4-71b7967d3642</xmp:rhcc-translation-id>
         <xmp:brand-content-type>Icon</xmp:brand-content-type>
         <xmp:CreateDate>2023-12-08T17:36:28.124Z</xmp:CreateDate>
         <xmp:rhcc-aspect-ratio>square</xmp:rhcc-aspect-ratio>
         <xmp:rhcc-effective-on-set-on-upload>true</xmp:rhcc-effective-on-set-on-upload>
         <xmp:rhcc-published-asset-email-sent>true</xmp:rhcc-published-asset-email-sent>
         <xmp:rhcc-metadata-complete-uploader>pending</xmp:rhcc-metadata-complete-uploader>
         <xmp:rhcc-file-last-modified>2024-07-12T22:40:34.362Z</xmp:rhcc-file-last-modified>
         <xmp:rhcc-audience>rhcc-audience:internal</xmp:rhcc-audience>
         <xmp:brand-content-subtype>Icon</xmp:brand-content-subtype>
         <xmp:rhcc-rights-restricted>no</xmp:rhcc-rights-restricted>
         <xmp:rhcc-derivative-id>DER98f47ec3-0c86-4fc0-a2a4-71b7967d3642</xmp:rhcc-derivative-id>
         <xmp:rhcc-uploaded-by>pmeilleu@redhat.com</xmp:rhcc-uploaded-by>
         <xmp:brand-logo-color>White</xmp:brand-logo-color>
         <xmp:rhcc-notify-portal-subscribers-on-change>yes</xmp:rhcc-notify-portal-subscribers-on-change>
         <dc:format>image/svg+xml</dc:format>
         <dc:modified>2024-02-09T20:32:56.747Z</dc:modified>
         <dc:title>
            <rdf:Alt>
               <rdf:li xml:lang="x-default">Running shoe icon - White</rdf:li>
            </rdf:Alt>
         </dc:title>
         <dc:description>
            <rdf:Alt>
               <rdf:li xml:lang="x-default">foot, footwear, wear, clothes, tennis shoe, sneaker, step, walk, run, exercise, athletic, sports, objects</rdf:li>
            </rdf:Alt>
         </dc:description>
         <cq:lastReplicationAction_scene7>Activate</cq:lastReplicationAction_scene7>
         <cq:lastReplicationAction_publish>Activate</cq:lastReplicationAction_publish>
         <cq:lastReplicated_publish>2024-10-02T19:44:20.609Z</cq:lastReplicated_publish>
         <cq:lastReplicatedBy>workflow-process-service</cq:lastReplicatedBy>
         <cq:lastReplicationAction>Activate</cq:lastReplicationAction>
         <cq:lastReplicatedBy_publish>workflow-process-service</cq:lastReplicatedBy_publish>
         <cq:isDelivered>false</cq:isDelivered>
         <cq:lastReplicated>2024-10-02T19:44:20.609Z</cq:lastReplicated>
         <cq:lastReplicatedBy_scene7>workflow-process-service</cq:lastReplicatedBy_scene7>
         <cq:lastReplicated_scene7>2024-10-02T19:44:20.609Z</cq:lastReplicated_scene7>
         <tiff:ImageLength>36</tiff:ImageLength>
         <tiff:ImageWidth>36</tiff:ImageWidth>
      </rdf:Description>
   </rdf:RDF>
</x:xmpmeta>
                                                                                                    
                                                                                                    
                                                                                                    
                                                                                                    
                                                                                                    
                                                                                                    
                                                                                                    
                                                                                                    
        
<?xpacket end="w"?></metadata>
<defs>
    <style>
      .af3b248f-5e22-446a-90d2-4107fa3d315f {
        fill: #fff;
      }
    </style>
  </defs>
  <g>
    <path class="af3b248f-5e22-446a-90d2-4107fa3d315f" d="M30.37,22.86c-.56-.58-1.46.32-.88.88a3,3,0,0,1,.35,3.84,4.22,4.22,0,0,0-5,0l-2.43-2.43c2.92-3.88-2.08-8.87-6-6l-5-5L18.77,7a1.2,1.2,0,0,1,2,.84c.06.61-.63,1.11-1,1.5-3.88,4.09,1.95,9.92,6,6l1.93-1.94c.58-.56-.31-1.46-.88-.88L25,14.47a3.1,3.1,0,0,1-4.28,0,3,3,0,0,1,0-4.28l.65-.64a2.45,2.45,0,0,0-3.47-3.47l-7.74,7.74a.63.63,0,0,0,0,.88L26.27,30.84a1.55,1.55,0,0,0,2.17,0l1.93-1.94A4.27,4.27,0,0,0,30.37,22.86Zm-9.26-2.34a3,3,0,0,1,.39,3.78l-4.17-4.17A3.11,3.11,0,0,1,21.11,20.52ZM27.56,30a.3.3,0,0,1-.41,0l-1.44-1.44a3.12,3.12,0,0,1,3.28,0Z"/>
    <path class="af3b248f-5e22-446a-90d2-4107fa3d315f" d="M26.91,20.28a.62.62,0,0,0,.88.88l1.29-1.29a.61.61,0,0,0,0-.88.62.62,0,0,0-.88,0Z"/>
    <path class="af3b248f-5e22-446a-90d2-4107fa3d315f" d="M25.62,17.7a.62.62,0,0,0,.88.88l1.94-1.93a.63.63,0,0,0-.89-.89Z"/>
    <path class="af3b248f-5e22-446a-90d2-4107fa3d315f" d="M9,7.62h3a.62.62,0,0,0,0-1.24H9A.62.62,0,0,0,9,7.62Z"/>
    <path class="af3b248f-5e22-446a-90d2-4107fa3d315f" d="M8,11.62h2a.62.62,0,0,0,0-1.24H8A.62.62,0,0,0,8,11.62Z"/>
    <path class="af3b248f-5e22-446a-90d2-4107fa3d315f" d="M15,27.38H11a.62.62,0,0,0,0,1.24h4A.62.62,0,0,0,15,27.38Z"/>
    <path class="af3b248f-5e22-446a-90d2-4107fa3d315f" d="M15,23.38H7a.62.62,0,0,0,0,1.24h8A.62.62,0,0,0,15,23.38Z"/>
    <path class="af3b248f-5e22-446a-90d2-4107fa3d315f" d="M5,23.38a.63.63,0,0,0,0,1.25A.63.63,0,0,0,5,23.38Z"/>
    <path class="af3b248f-5e22-446a-90d2-4107fa3d315f" d="M18,27.38a.63.63,0,0,0,0,1.25A.63.63,0,0,0,18,27.38Z"/>
  </g>
</svg>
