<?xml version="1.0" encoding="UTF-8"?><svg id="uuid-9ee9b53a-a01b-42b2-bea6-da51c331cb7a" xmlns="http://www.w3.org/2000/svg" viewBox="0 0 38 38"><title>Red Hat Quay.io icon</title>
<desc>Cloud</desc>
<metadata><?xpacket begin="﻿" id="W5M0MpCehiHzreSzNTczkc9d"?>
<x:xmpmeta xmlns:x="adobe:ns:meta/" x:xmptk="Adobe XMP Core 8.0-c001 1.000000, 0000/00/00-00:00:00        ">
   <rdf:RDF xmlns:rdf="http://www.w3.org/1999/02/22-rdf-syntax-ns#">
      <rdf:Description rdf:about=""
            xmlns:xmp="http://ns.adobe.com/xap/1.0/"
            xmlns:dc="http://purl.org/dc/elements/1.1/"
            xmlns:cq="http://www.day.com/jcr/cq/1.0"
            xmlns:tiff="http://ns.adobe.com/tiff/1.0/"
            xmlns:xmpRights="http://ns.adobe.com/xap/1.0/rights/">
         <xmp:rhcc-effective-on>2024-03-01T15:27:37.207Z</xmp:rhcc-effective-on>
         <xmp:rhcc-metadata-complete-moderator>pending</xmp:rhcc-metadata-complete-moderator>
         <xmp:rhcc-translation-id>TRA351274e6-ca0a-423e-b741-464fa29b9d44</xmp:rhcc-translation-id>
         <xmp:brand-content-type>Icon</xmp:brand-content-type>
         <xmp:CreateDate>2024-03-01T15:27:37.207Z</xmp:CreateDate>
         <xmp:rhcc-aspect-ratio>square</xmp:rhcc-aspect-ratio>
         <xmp:rhcc-effective-on-set-on-upload>true</xmp:rhcc-effective-on-set-on-upload>
         <xmp:rhcc-published-asset-email-sent>true</xmp:rhcc-published-asset-email-sent>
         <xmp:rhcc-metadata-complete-uploader>pending</xmp:rhcc-metadata-complete-uploader>
         <xmp:rhcc-file-last-modified>2024-07-13T00:01:04.496Z</xmp:rhcc-file-last-modified>
         <xmp:rhcc-audience>rhcc-audience:internal</xmp:rhcc-audience>
         <xmp:rhcc-rights-restricted>no</xmp:rhcc-rights-restricted>
         <xmp:brand-content-subtype>Technology icon</xmp:brand-content-subtype>
         <xmp:rhcc-derivative-id>DER351274e6-ca0a-423e-b741-464fa29b9d44</xmp:rhcc-derivative-id>
         <xmp:rhcc-uploaded-by>pmeilleu@redhat.com</xmp:rhcc-uploaded-by>
         <xmp:rhcc-notify-portal-subscribers-on-change>yes</xmp:rhcc-notify-portal-subscribers-on-change>
         <xmp:rhcc-product>
            <rdf:Bag>
               <rdf:li>rhcc-product:red-hat-quay</rdf:li>
            </rdf:Bag>
         </xmp:rhcc-product>
         <dc:format>image/svg+xml</dc:format>
         <dc:modified>2024-05-10T00:31:20.528Z</dc:modified>
         <dc:title>
            <rdf:Alt>
               <rdf:li xml:lang="x-default">Red Hat Quay.io icon</rdf:li>
            </rdf:Alt>
         </dc:title>
         <dc:description>
            <rdf:Alt>
               <rdf:li xml:lang="x-default">Cloud</rdf:li>
            </rdf:Alt>
         </dc:description>
         <cq:lastReplicationAction_scene7>Activate</cq:lastReplicationAction_scene7>
         <cq:lastReplicationAction_publish>Activate</cq:lastReplicationAction_publish>
         <cq:lastReplicated_publish>2024-10-02T19:53:21.714Z</cq:lastReplicated_publish>
         <cq:lastReplicatedBy>workflow-process-service</cq:lastReplicatedBy>
         <cq:lastReplicationAction>Activate</cq:lastReplicationAction>
         <cq:lastReplicatedBy_publish>workflow-process-service</cq:lastReplicatedBy_publish>
         <cq:isDelivered>false</cq:isDelivered>
         <cq:lastReplicated>2024-10-02T19:53:21.714Z</cq:lastReplicated>
         <cq:lastReplicatedBy_scene7>workflow-process-service</cq:lastReplicatedBy_scene7>
         <cq:lastReplicated_scene7>2024-10-02T19:53:21.714Z</cq:lastReplicated_scene7>
         <tiff:ImageLength>38</tiff:ImageLength>
         <tiff:ImageWidth>38</tiff:ImageWidth>
         <xmpRights:UsageTerms>
            <rdf:Alt>
               <rdf:li xml:lang="x-default">Use technology icons to represent Red Hat products and components. Do not remove the icon from the bounding shape.</rdf:li>
            </rdf:Alt>
         </xmpRights:UsageTerms>
      </rdf:Description>
   </rdf:RDF>
</x:xmpmeta>
                                                                                                    
                                                                                                    
                                                                                                    
                                                                                                    
                                                                                                    
                                                                                                    
                                                                                                    
                                                                                                    
                                                                                                    
                                                                                                    
                                                                                                    
                                                                                                    
                                                                                                    
                                                                                                    
                                                                                                    
                                                                                                    
                                                      
<?xpacket end="w"?></metadata>
<defs><style>.uuid-2a68c940-be6c-464b-a2e0-ff99e7e6ea43{fill:#e00;}.uuid-412ecd45-6880-43b1-8d63-05685b490467{fill:#fff;}.uuid-5a57482c-9872-41a5-9b05-978c74817051{fill:#4d4d4d;}</style></defs><rect x="1" y="1" width="36" height="36" rx="9" ry="9"/><path class="uuid-5a57482c-9872-41a5-9b05-978c74817051" d="m28,2.25c4.27338,0,7.75,3.47662,7.75,7.75v18c0,4.27338-3.47662,7.75-7.75,7.75H10c-4.27338,0-7.75-3.47662-7.75-7.75V10c0-4.27338,3.47662-7.75,7.75-7.75h18m0-1.25H10C5.02942,1,1,5.02942,1,10v18c0,4.97058,4.02942,9,9,9h18c4.97058,0,9-4.02942,9-9V10c0-4.97058-4.02942-9-9-9h0Z"/><path class="uuid-2a68c940-be6c-464b-a2e0-ff99e7e6ea43" d="m15.49902,29.52539c-.10254,0-.20605-.02539-.30273-.0791-.30176-.16699-.41016-.54785-.24219-.84961l3.5-6.30078c.16602-.30176.5459-.41211.84961-.24219.30176.16699.41016.54785.24219.84961l-3.5,6.30078c-.11328.20508-.32715.32129-.54688.32129Z"/><path class="uuid-412ecd45-6880-43b1-8d63-05685b490467" d="m15.50098,29.52539c-.21973,0-.43262-.11621-.54688-.32129l-5.5-9.90039c-.10547-.18848-.10547-.41895,0-.60742l5.5-9.90039c.16699-.30078.5459-.41113.84961-.24219.30176.16699.41016.54785.24219.84961l-5.33105,9.59668,5.33105,9.59668c.16797.30176.05957.68262-.24219.84961-.09668.05371-.2002.0791-.30273.0791Z"/><path class="uuid-2a68c940-be6c-464b-a2e0-ff99e7e6ea43" d="m22.49902,29.52539c-.10254,0-.20605-.02539-.30273-.0791-.30176-.16699-.41016-.54785-.24219-.84961l5.5-9.90039c.16602-.30078.5459-.41113.84961-.24219.30176.16699.41016.54785.24219.84961l-5.5,9.90039c-.11328.20508-.32715.32129-.54688.32129Z"/><path class="uuid-2a68c940-be6c-464b-a2e0-ff99e7e6ea43" d="m19.00098,16.02539c-.21973,0-.43359-.11621-.54688-.32129l-3.5-6.30078c-.16797-.30176-.05957-.68262.24219-.84961.30371-.16895.68359-.05859.84961.24219l3.5,6.30078c.16797.30176.05957.68262-.24219.84961-.09668.05371-.2002.0791-.30273.0791Z"/><path class="uuid-412ecd45-6880-43b1-8d63-05685b490467" d="m22.50098,29.52539c-.21973,0-.43262-.11621-.54688-.32129l-5.5-9.90039c-.10547-.18848-.10547-.41895,0-.60742l5.5-9.90039c.16602-.30078.5459-.41113.84961-.24219.30176.16699.41016.54785.24219.84961l-5.33105,9.59668,5.33105,9.59668c.16797.30176.05957.68262-.24219.84961-.09668.05371-.2002.0791-.30273.0791Z"/><path class="uuid-2a68c940-be6c-464b-a2e0-ff99e7e6ea43" d="m28.00098,19.625c-.21973,0-.43262-.11621-.54688-.32129l-5.5-9.90039c-.16797-.30176-.05957-.68262.24219-.84961.30371-.16895.68164-.05859.84961.24219l5.5,9.90039c.16797.30176.05957.68262-.24219.84961-.09668.05371-.2002.0791-.30273.0791Z"/></svg>