<?xml version="1.0" encoding="UTF-8"?><svg id="uuid-5321dbe4-c722-4611-95e0-3e1aba5e615d" xmlns="http://www.w3.org/2000/svg" viewBox="0 0 38 38"><title>Red Hat Quay.io icon</title>
<desc>Cloud</desc>
<metadata><?xpacket begin="﻿" id="W5M0MpCehiHzreSzNTczkc9d"?>
<x:xmpmeta xmlns:x="adobe:ns:meta/" x:xmptk="Adobe XMP Core 8.0-c001 1.000000, 0000/00/00-00:00:00        ">
   <rdf:RDF xmlns:rdf="http://www.w3.org/1999/02/22-rdf-syntax-ns#">
      <rdf:Description rdf:about=""
            xmlns:xmp="http://ns.adobe.com/xap/1.0/"
            xmlns:dc="http://purl.org/dc/elements/1.1/"
            xmlns:cq="http://www.day.com/jcr/cq/1.0"
            xmlns:tiff="http://ns.adobe.com/tiff/1.0/"
            xmlns:xmpRights="http://ns.adobe.com/xap/1.0/rights/">
         <xmp:rhcc-effective-on>2024-03-01T15:27:36.759Z</xmp:rhcc-effective-on>
         <xmp:rhcc-metadata-complete-moderator>pending</xmp:rhcc-metadata-complete-moderator>
         <xmp:rhcc-translation-id>TRAac9a558f-11a8-467f-9092-522d270c2e5e</xmp:rhcc-translation-id>
         <xmp:brand-content-type>Icon</xmp:brand-content-type>
         <xmp:CreateDate>2024-03-01T15:27:36.759Z</xmp:CreateDate>
         <xmp:rhcc-aspect-ratio>square</xmp:rhcc-aspect-ratio>
         <xmp:rhcc-effective-on-set-on-upload>true</xmp:rhcc-effective-on-set-on-upload>
         <xmp:rhcc-published-asset-email-sent>true</xmp:rhcc-published-asset-email-sent>
         <xmp:rhcc-metadata-complete-uploader>pending</xmp:rhcc-metadata-complete-uploader>
         <xmp:rhcc-file-last-modified>2024-07-13T00:09:40.762Z</xmp:rhcc-file-last-modified>
         <xmp:rhcc-audience>rhcc-audience:internal</xmp:rhcc-audience>
         <xmp:rhcc-rights-restricted>no</xmp:rhcc-rights-restricted>
         <xmp:brand-content-subtype>Technology icon</xmp:brand-content-subtype>
         <xmp:rhcc-derivative-id>DERac9a558f-11a8-467f-9092-522d270c2e5e</xmp:rhcc-derivative-id>
         <xmp:rhcc-uploaded-by>pmeilleu@redhat.com</xmp:rhcc-uploaded-by>
         <xmp:rhcc-notify-portal-subscribers-on-change>yes</xmp:rhcc-notify-portal-subscribers-on-change>
         <xmp:rhcc-product>
            <rdf:Bag>
               <rdf:li>rhcc-product:red-hat-quay</rdf:li>
            </rdf:Bag>
         </xmp:rhcc-product>
         <dc:format>image/svg+xml</dc:format>
         <dc:modified>2024-05-10T00:31:20.754Z</dc:modified>
         <dc:title>
            <rdf:Alt>
               <rdf:li xml:lang="x-default">Red Hat Quay.io icon</rdf:li>
            </rdf:Alt>
         </dc:title>
         <dc:description>
            <rdf:Alt>
               <rdf:li xml:lang="x-default">Cloud</rdf:li>
            </rdf:Alt>
         </dc:description>
         <cq:lastReplicationAction_scene7>Activate</cq:lastReplicationAction_scene7>
         <cq:lastReplicationAction_publish>Activate</cq:lastReplicationAction_publish>
         <cq:lastReplicated_publish>2024-10-02T19:53:11.741Z</cq:lastReplicated_publish>
         <cq:lastReplicatedBy>workflow-process-service</cq:lastReplicatedBy>
         <cq:lastReplicationAction>Activate</cq:lastReplicationAction>
         <cq:lastReplicatedBy_publish>workflow-process-service</cq:lastReplicatedBy_publish>
         <cq:isDelivered>false</cq:isDelivered>
         <cq:lastReplicated>2024-10-02T19:53:11.741Z</cq:lastReplicated>
         <cq:lastReplicatedBy_scene7>workflow-process-service</cq:lastReplicatedBy_scene7>
         <cq:lastReplicated_scene7>2024-10-02T19:53:11.741Z</cq:lastReplicated_scene7>
         <tiff:ImageLength>38</tiff:ImageLength>
         <tiff:ImageWidth>38</tiff:ImageWidth>
         <xmpRights:UsageTerms>
            <rdf:Alt>
               <rdf:li xml:lang="x-default">Use technology icons to represent Red Hat products and components. Do not remove the icon from the bounding shape.</rdf:li>
            </rdf:Alt>
         </xmpRights:UsageTerms>
      </rdf:Description>
   </rdf:RDF>
</x:xmpmeta>
                                                                                                    
                                                                                                    
                                                                                                    
                                                                                                    
                                                                                                    
                                                                                                    
                                                                                                    
                                                                                                    
                                                                                                    
                                                                                                    
                                                                                                    
                                                                                                    
                                                                                                    
                                                                                                    
                                                                                                    
                                                                                                    
                                                      
<?xpacket end="w"?></metadata>
<defs><style>.uuid-c23c7ebe-c809-4276-8be4-c42f6b53c5d4{fill:#e00;}</style></defs><path class="uuid-c23c7ebe-c809-4276-8be4-c42f6b53c5d4" d="m16.4541,18.69629l1.83112-3.2962-2.78522-5.01404-4.78516,8.61395,4.78516,8.61395,2.78522-5.01404-1.83112-3.2962c-.10547-.18848-.10547-.41895,0-.60742Z"/><polygon class="uuid-c23c7ebe-c809-4276-8be4-c42f6b53c5d4" points="17.71484 19 22.5 27.61401 27.2854 19 22.5 10.38599 17.71484 19"/><path class="uuid-c23c7ebe-c809-4276-8be4-c42f6b53c5d4" d="m28,1H10C5.02942,1,1,5.02942,1,10v18c0,4.97052,4.02942,9,9,9h18c4.97058,0,9-4.02948,9-9V10c0-4.97058-4.02942-9-9-9Zm.60565,18.11621c-.0083.0434-.02222.08313-.03943.12384-.00885.02094-.00903.04333-.02032.06366l-5.5,9.90039c-.00604.01093-.01831.01489-.0249.02533-.04834.07703-.1106.14429-.19208.19537-.008.005-.01306.01349-.02124.01813-.00159.00092-.00238.0025-.00397.00336-.09668.05371-.2002.0791-.30273.0791-.00037,0-.00061-.00024-.00098-.00024s-.00061.00024-.00098.00024c-.10254,0-.20605-.02539-.30273-.0791-.00165-.00092-.0025-.00262-.00415-.00354-.00732-.00415-.01184-.01172-.01898-.01617-.08264-.05127-.14526-.11945-.19415-.1972-.00665-.01038-.0188-.01434-.0249-.02527l-2.95422-5.31781-2.95398,5.31781c-.00604.01093-.01831.01489-.0249.02533-.04834.07703-.1106.14429-.19208.19537-.008.005-.01306.01349-.02124.01813-.00159.00092-.00238.0025-.00397.00336-.09668.05371-.2002.0791-.30273.0791-.00037,0-.00061-.00024-.00098-.00024s-.00061.00024-.00098.00024c-.10254,0-.20605-.02539-.30273-.0791-.00165-.00092-.0025-.00262-.00415-.00354-.00732-.00415-.01184-.01172-.01898-.01617-.08264-.05127-.14526-.11945-.19415-.1972-.00665-.01038-.0188-.01434-.0249-.02527l-5.5-9.90039c-.10547-.18848-.10547-.41895,0-.60742l5.5-9.90039c.00775-.01398.02118-.02191.02985-.03503.02313-.0354.05115-.06537.0816-.09583.0304-.0304.06024-.05817.09552-.0813.01324-.00867.02112-.02222.03522-.03003.02002-.01117.04199-.01123.06262-.01996.0412-.01758.08148-.03168.12549-.04004.03918-.00751.07654-.01007.11572-.01001.03912-.00006.07648.0025.1156.01001.04437.00842.08478.02258.12628.04028.02026.00867.04199.00873.06171.01971.01385.00763.02161.02094.03461.02948.03601.0235.06641.05176.09723.08276.02997.03009.05756.05975.08038.09467.00867.01324.02222.02118.02997.03528l2.95398,5.31781,2.95422-5.31781c.00775-.0141.0213-.02203.02997-.03528.02283-.03491.05042-.06458.08038-.09467.03082-.03101.06122-.05927.09723-.08276.013-.00854.02075-.02185.03461-.02948.01978-.01099.04144-.01105.06177-.01971.04144-.0177.08185-.03186.1261-.04028.03912-.00751.07654-.01007.11566-.01001.03925-.00006.07666.00256.11591.01007.04358.00836.0835.02228.12439.03967.02094.00885.04327.00897.0636.02026.01428.00793.02234.02161.03577.03046.03467.02283.06409.05023.09406.08008.03088.03076.05927.06097.08264.0968.00861.01306.02197.02094.02972.03485l5.5,9.90039c.01129.02032.01147.04272.02032.06366.01721.04071.03113.08044.03943.12384.00757.03931.01001.07678.00995.11621.00006.03943-.00238.0769-.00995.11621Z"/></svg>