<?xml version="1.0" encoding="UTF-8"?><svg id="uuid-eecbb8d3-7efd-4cf3-adf2-0431bf331805" xmlns="http://www.w3.org/2000/svg" width="36" height="36" viewBox="0 0 36 36"><title>Humvee icon</title>
<desc>NAPS, DOD, SLED, CIV, IC, north america public sector, department of defense, state, local, and education, civilian, intelligence community</desc>
<metadata><?xpacket begin="﻿" id="W5M0MpCehiHzreSzNTczkc9d"?>
<x:xmpmeta xmlns:x="adobe:ns:meta/" x:xmptk="Adobe XMP Core 8.0-c001 1.000000, 0000/00/00-00:00:00        ">
   <rdf:RDF xmlns:rdf="http://www.w3.org/1999/02/22-rdf-syntax-ns#">
      <rdf:Description rdf:about=""
            xmlns:xmp="http://ns.adobe.com/xap/1.0/"
            xmlns:dc="http://purl.org/dc/elements/1.1/"
            xmlns:cq="http://www.day.com/jcr/cq/1.0"
            xmlns:tiff="http://ns.adobe.com/tiff/1.0/">
         <xmp:rhcc-effective-on>2023-12-08T17:46:13.497Z</xmp:rhcc-effective-on>
         <xmp:rhcc-metadata-complete-moderator>pending</xmp:rhcc-metadata-complete-moderator>
         <xmp:rhcc-translation-id>TRA65d89ae4-39eb-431b-a62b-07d12d03e0f3</xmp:rhcc-translation-id>
         <xmp:brand-content-type>Icon</xmp:brand-content-type>
         <xmp:CreateDate>2023-12-08T17:46:13.497Z</xmp:CreateDate>
         <xmp:rhcc-aspect-ratio>square</xmp:rhcc-aspect-ratio>
         <xmp:rhcc-effective-on-set-on-upload>true</xmp:rhcc-effective-on-set-on-upload>
         <xmp:rhcc-published-asset-email-sent>true</xmp:rhcc-published-asset-email-sent>
         <xmp:rhcc-metadata-complete-uploader>pending</xmp:rhcc-metadata-complete-uploader>
         <xmp:rhcc-file-last-modified>2024-07-12T21:20:10.372Z</xmp:rhcc-file-last-modified>
         <xmp:rhcc-audience>rhcc-audience:internal</xmp:rhcc-audience>
         <xmp:rhcc-rights-restricted>no</xmp:rhcc-rights-restricted>
         <xmp:brand-content-subtype>Icon</xmp:brand-content-subtype>
         <xmp:rhcc-derivative-id>DER65d89ae4-39eb-431b-a62b-07d12d03e0f3</xmp:rhcc-derivative-id>
         <xmp:rhcc-uploaded-by>pmeilleu@redhat.com</xmp:rhcc-uploaded-by>
         <xmp:brand-logo-color>Black</xmp:brand-logo-color>
         <xmp:rhcc-notify-portal-subscribers-on-change>yes</xmp:rhcc-notify-portal-subscribers-on-change>
         <dc:format>image/svg+xml</dc:format>
         <dc:modified>2024-02-09T20:25:26.998Z</dc:modified>
         <dc:title>
            <rdf:Alt>
               <rdf:li xml:lang="x-default">Humvee icon</rdf:li>
            </rdf:Alt>
         </dc:title>
         <dc:description>
            <rdf:Alt>
               <rdf:li xml:lang="x-default">NAPS, DOD, SLED, CIV, IC, north america public sector, department of defense, state, local, and education, civilian, intelligence community</rdf:li>
            </rdf:Alt>
         </dc:description>
         <cq:lastReplicationAction_scene7>Activate</cq:lastReplicationAction_scene7>
         <cq:lastReplicationAction_publish>Activate</cq:lastReplicationAction_publish>
         <cq:lastReplicated_publish>2024-10-02T19:46:42.024Z</cq:lastReplicated_publish>
         <cq:lastReplicatedBy>workflow-process-service</cq:lastReplicatedBy>
         <cq:lastReplicationAction>Activate</cq:lastReplicationAction>
         <cq:lastReplicatedBy_publish>workflow-process-service</cq:lastReplicatedBy_publish>
         <cq:isDelivered>false</cq:isDelivered>
         <cq:lastReplicated>2024-10-02T19:46:42.024Z</cq:lastReplicated>
         <cq:lastReplicatedBy_scene7>workflow-process-service</cq:lastReplicatedBy_scene7>
         <cq:lastReplicated_scene7>2024-10-02T19:46:42.024Z</cq:lastReplicated_scene7>
         <tiff:ImageLength>36</tiff:ImageLength>
         <tiff:ImageWidth>36</tiff:ImageWidth>
      </rdf:Description>
   </rdf:RDF>
</x:xmpmeta>
                                                                                                    
                                                                                 
<?xpacket end="w"?></metadata>
<path d="m31,25.375H5c-.34521,0-.625.28027-.625.625s.27979.625.625.625h1.375v2.375c0,.89648.729,1.625,1.625,1.625h2c.896,0,1.625-.72852,1.625-1.625v-2.375h12.75v2.375c0,.89648.729,1.625,1.625,1.625h2c.896,0,1.625-.72852,1.625-1.625v-2.375h1.375c.34521,0,.625-.28027.625-.625s-.27979-.625-.625-.625Zm-20.625,3.625c0,.20703-.16846.375-.375.375h-2c-.20654,0-.375-.16797-.375-.375v-2.375h2.75v2.375Zm18,0c0,.20703-.16846.375-.375.375h-2c-.20654,0-.375-.16797-.375-.375v-2.375h2.75v2.375Z" stroke-width="0"/><path d="m18,19.375c-.34521,0-.625.28027-.625.625v2c0,.34473.27979.625.625.625s.625-.28027.625-.625v-2c0-.34473-.27979-.625-.625-.625Z" stroke-width="0"/><path d="m20,19.375c-.34521,0-.625.28027-.625.625v2c0,.34473.27979.625.625.625s.625-.28027.625-.625v-2c0-.34473-.27979-.625-.625-.625Z" stroke-width="0"/><path d="m16,19.375c-.34521,0-.625.28027-.625.625v2c0,.34473.27979.625.625.625s.625-.28027.625-.625v-2c0-.34473-.27979-.625-.625-.625Z" stroke-width="0"/><path d="m23.5,18.375c-1.17188,0-2.125.95312-2.125,2.125s.95312,2.125,2.125,2.125,2.125-.95312,2.125-2.125-.95312-2.125-2.125-2.125Zm0,3c-.48242,0-.875-.39258-.875-.875s.39258-.875.875-.875.875.39258.875.875-.39258.875-.875.875Z" stroke-width="0"/><path d="m12.5,18.375c-1.17188,0-2.125.95312-2.125,2.125s.95312,2.125,2.125,2.125,2.125-.95312,2.125-2.125-.95312-2.125-2.125-2.125Zm0,3c-.48242,0-.875-.39258-.875-.875s.39258-.875.875-.875.875.39258.875.875-.39258.875-.875.875Z" stroke-width="0"/><path d="m29.625,12.4585v-6.4585c0-.34521-.27979-.625-.625-.625H7c-.34521,0-.625.27979-.625.625v6.4585c-1.14502.28229-2,1.31067-2,2.5415v8c0,.34473.27979.625.625.625h3.375v.375c0,.34473.27979.625.625.625h18c.34521,0,.625-.28027.625-.625v-.375h3.375c.34521,0,.625-.28027.625-.625v-8c0-1.23083-.85498-2.25922-2-2.5415Zm-1.25-5.8335v5.75H7.625v-5.75h20.75Zm-2,16.75H9.625v-5.75h16.75v5.75Zm4-1h-2.75v-5.375c0-.34473-.27979-.625-.625-.625H9c-.34521,0-.625.28027-.625.625v5.375h-2.75v-7.375c0-.75781.6167-1.375,1.375-1.375h22c.7583,0,1.375.61719,1.375,1.375v7.375Z" stroke-width="0"/><path d="m18,11.625c.34521,0,.625-.28027.625-.625v-3c0-.34473-.27979-.625-.625-.625s-.625.28027-.625.625v3c0,.34473.27979.625.625.625Z" stroke-width="0"/><path d="m31,9.375c-.34521,0-.625.28027-.625.625v1c0,.34473.27979.625.625.625s.625-.28027.625-.625v-1c0-.34473-.27979-.625-.625-.625Z" stroke-width="0"/><path d="m5,11.625c.34521,0,.625-.28027.625-.625v-1c0-.34473-.27979-.625-.625-.625s-.625.28027-.625.625v1c0,.34473.27979.625.625.625Z" stroke-width="0"/><path d="m29.43994,19.55957c-.06006-.05957-.12012-.10938-.2002-.13965-.22998-.08984-.50977-.03027-.67969.13965-.06006.0498-.11035.12988-.14014.2002-.03027.08008-.04004.16016-.04004.24023,0,.16992.06006.33008.18018.43945.11963.12012.27979.19043.43994.19043.15967,0,.31982-.07031.43994-.19043s.18994-.2793.18994-.43945c0-.08008-.02002-.16016-.05029-.24023-.02979-.07031-.07959-.13965-.13965-.2002Z" stroke-width="0"/><path d="m7.43994,19.55957c-.06006-.05957-.12012-.10938-.2002-.13965-.22998-.08984-.50977-.03027-.67969.13965-.06006.0498-.11035.12988-.14014.2002-.03027.08008-.04004.16016-.04004.24023,0,.16992.06006.33008.18018.43945.11963.12012.27979.19043.43994.19043.15967,0,.31982-.07031.43994-.19043s.18994-.2793.18994-.43945c0-.08008-.02002-.16016-.05029-.24023-.02979-.07031-.07959-.13965-.13965-.2002Z" stroke-width="0"/></svg>