<svg id="eeab1654-dbaa-4a4c-9ca2-3735b2d9e748" data-name="Icon" xmlns="http://www.w3.org/2000/svg" viewBox="0 0 36 36">
  <title>Exponential graph up icon - Red</title>
<desc>increase, grow, finance, chart, plot, gain, fast, diagrams and graphs</desc>
<metadata><?xpacket begin="﻿" id="W5M0MpCehiHzreSzNTczkc9d"?>
<x:xmpmeta xmlns:x="adobe:ns:meta/" x:xmptk="Adobe XMP Core 8.0-c001 1.000000, 0000/00/00-00:00:00        ">
   <rdf:RDF xmlns:rdf="http://www.w3.org/1999/02/22-rdf-syntax-ns#">
      <rdf:Description rdf:about=""
            xmlns:xmp="http://ns.adobe.com/xap/1.0/"
            xmlns:dc="http://purl.org/dc/elements/1.1/"
            xmlns:cq="http://www.day.com/jcr/cq/1.0"
            xmlns:tiff="http://ns.adobe.com/tiff/1.0/">
         <xmp:rhcc-effective-on>2023-12-08T17:34:54.676Z</xmp:rhcc-effective-on>
         <xmp:rhcc-metadata-complete-moderator>pending</xmp:rhcc-metadata-complete-moderator>
         <xmp:rhcc-translation-id>TRA41ff56b5-9239-4906-b49c-9c402402c1e0</xmp:rhcc-translation-id>
         <xmp:brand-content-type>Icon</xmp:brand-content-type>
         <xmp:CreateDate>2023-12-08T17:34:54.676Z</xmp:CreateDate>
         <xmp:rhcc-aspect-ratio>square</xmp:rhcc-aspect-ratio>
         <xmp:rhcc-effective-on-set-on-upload>true</xmp:rhcc-effective-on-set-on-upload>
         <xmp:rhcc-published-asset-email-sent>true</xmp:rhcc-published-asset-email-sent>
         <xmp:rhcc-metadata-complete-uploader>pending</xmp:rhcc-metadata-complete-uploader>
         <xmp:rhcc-file-last-modified>2024-07-12T22:48:19.372Z</xmp:rhcc-file-last-modified>
         <xmp:rhcc-audience>rhcc-audience:internal</xmp:rhcc-audience>
         <xmp:brand-content-subtype>Icon</xmp:brand-content-subtype>
         <xmp:rhcc-rights-restricted>no</xmp:rhcc-rights-restricted>
         <xmp:rhcc-derivative-id>DER41ff56b5-9239-4906-b49c-9c402402c1e0</xmp:rhcc-derivative-id>
         <xmp:rhcc-uploaded-by>pmeilleu@redhat.com</xmp:rhcc-uploaded-by>
         <xmp:brand-logo-color>Red</xmp:brand-logo-color>
         <xmp:rhcc-notify-portal-subscribers-on-change>yes</xmp:rhcc-notify-portal-subscribers-on-change>
         <dc:format>image/svg+xml</dc:format>
         <dc:modified>2024-02-09T20:34:26.282Z</dc:modified>
         <dc:title>
            <rdf:Alt>
               <rdf:li xml:lang="x-default">Exponential graph up icon - Red</rdf:li>
            </rdf:Alt>
         </dc:title>
         <dc:description>
            <rdf:Alt>
               <rdf:li xml:lang="x-default">increase, grow, finance, chart, plot, gain, fast, diagrams and graphs</rdf:li>
            </rdf:Alt>
         </dc:description>
         <cq:lastReplicationAction_scene7>Activate</cq:lastReplicationAction_scene7>
         <cq:lastReplicationAction_publish>Activate</cq:lastReplicationAction_publish>
         <cq:lastReplicated_publish>2024-10-02T19:35:35.114Z</cq:lastReplicated_publish>
         <cq:lastReplicatedBy>workflow-process-service</cq:lastReplicatedBy>
         <cq:lastReplicationAction>Activate</cq:lastReplicationAction>
         <cq:lastReplicatedBy_publish>workflow-process-service</cq:lastReplicatedBy_publish>
         <cq:isDelivered>false</cq:isDelivered>
         <cq:lastReplicated>2024-10-02T19:35:35.114Z</cq:lastReplicated>
         <cq:lastReplicatedBy_scene7>workflow-process-service</cq:lastReplicatedBy_scene7>
         <cq:lastReplicated_scene7>2024-10-02T19:35:35.114Z</cq:lastReplicated_scene7>
         <tiff:ImageLength>36</tiff:ImageLength>
         <tiff:ImageWidth>36</tiff:ImageWidth>
      </rdf:Description>
   </rdf:RDF>
</x:xmpmeta>
                                                                                                    
                                                                                                    
                                                                                                    
                                                                                                    
                                                                                                    
                                                                                                    
                                                                                                    
                                                                                                    
        
<?xpacket end="w"?></metadata>
<defs>
    <style>
      .a4e93f14-b53d-4d9c-9c57-49b56c25b142 {
        fill: #e00;
      }
    </style>
  </defs>
  <g>
    <path class="a4e93f14-b53d-4d9c-9c57-49b56c25b142" d="M17.37,8V18a.63.63,0,0,0,1.25,0V8A.63.63,0,0,0,17.37,8Z"/>
    <path class="a4e93f14-b53d-4d9c-9c57-49b56c25b142" d="M24.37,8v7a.63.63,0,0,0,1.25,0V8A.63.63,0,0,0,24.37,8Z"/>
    <path class="a4e93f14-b53d-4d9c-9c57-49b56c25b142" d="M10.37,8V20a.63.63,0,0,0,1.25,0V8A.63.63,0,0,0,10.37,8Z"/>
    <path class="a4e93f14-b53d-4d9c-9c57-49b56c25b142" d="M31,17.89a.63.63,0,0,0-.63.62V30.38H5.62V27.45a.63.63,0,0,0-1.25,0V31a.63.63,0,0,0,.63.62H31a.62.62,0,0,0,.62-.62V18.51A.62.62,0,0,0,31,17.89Z"/>
    <path class="a4e93f14-b53d-4d9c-9c57-49b56c25b142" d="M5,21a.63.63,0,0,0,.62-.63V5.62H30.37V9a.63.63,0,0,0,1.25,0V5A.62.62,0,0,0,31,4.38H5A.63.63,0,0,0,4.37,5V20.36A.63.63,0,0,0,5,21Z"/>
    <path class="a4e93f14-b53d-4d9c-9c57-49b56c25b142" d="M32.35,11.76a.62.62,0,0,0-.87.17C28.73,16,21.5,22.93,4,23.27a.63.63,0,0,0,0,1.25c18.07-.34,25.64-7.61,28.52-11.9A.62.62,0,0,0,32.35,11.76Z"/>
  </g>
</svg>
