<?xml version="1.0" encoding="UTF-8"?><svg id="uuid-856725b3-a132-4630-ac82-3a6c7c8b22bf" xmlns="http://www.w3.org/2000/svg" viewBox="0 0 38 38"><title>Custom metrics autoscaler icon</title>
<desc>Cloud, operator</desc>
<metadata><?xpacket begin="﻿" id="W5M0MpCehiHzreSzNTczkc9d"?>
<x:xmpmeta xmlns:x="adobe:ns:meta/" x:xmptk="Adobe XMP Core 8.0-c001 1.000000, 0000/00/00-00:00:00        ">
   <rdf:RDF xmlns:rdf="http://www.w3.org/1999/02/22-rdf-syntax-ns#">
      <rdf:Description rdf:about=""
            xmlns:xmp="http://ns.adobe.com/xap/1.0/"
            xmlns:dc="http://purl.org/dc/elements/1.1/"
            xmlns:cq="http://www.day.com/jcr/cq/1.0"
            xmlns:tiff="http://ns.adobe.com/tiff/1.0/"
            xmlns:xmpRights="http://ns.adobe.com/xap/1.0/rights/">
         <xmp:rhcc-effective-on>2024-03-01T15:26:05.063Z</xmp:rhcc-effective-on>
         <xmp:rhcc-metadata-complete-moderator>pending</xmp:rhcc-metadata-complete-moderator>
         <xmp:rhcc-translation-id>TRA571df6d8-e528-49b3-bce0-b30ddd638be7</xmp:rhcc-translation-id>
         <xmp:brand-content-type>Icon</xmp:brand-content-type>
         <xmp:CreateDate>2024-03-01T15:26:05.063Z</xmp:CreateDate>
         <xmp:rhcc-aspect-ratio>square</xmp:rhcc-aspect-ratio>
         <xmp:rhcc-effective-on-set-on-upload>true</xmp:rhcc-effective-on-set-on-upload>
         <xmp:rhcc-metadata-complete-uploader>pending</xmp:rhcc-metadata-complete-uploader>
         <xmp:rhcc-file-last-modified>2024-07-12T23:52:25.458Z</xmp:rhcc-file-last-modified>
         <xmp:rhcc-audience>rhcc-audience:internal</xmp:rhcc-audience>
         <xmp:rhcc-product>Red Hat OpenShift</xmp:rhcc-product>
         <xmp:rhcc-rights-restricted>no</xmp:rhcc-rights-restricted>
         <xmp:brand-content-subtype>Technology icon</xmp:brand-content-subtype>
         <xmp:rhcc-derivative-id>DER571df6d8-e528-49b3-bce0-b30ddd638be7</xmp:rhcc-derivative-id>
         <xmp:rhcc-uploaded-by>pmeilleu@redhat.com</xmp:rhcc-uploaded-by>
         <xmp:brand-logo-color>White</xmp:brand-logo-color>
         <xmp:rhcc-notify-portal-subscribers-on-change>yes</xmp:rhcc-notify-portal-subscribers-on-change>
         <xmp:brand-subtype>
            <rdf:Bag>
               <rdf:li>Technology icon</rdf:li>
            </rdf:Bag>
         </xmp:brand-subtype>
         <dc:format>image/svg+xml</dc:format>
         <dc:modified>2024-05-10T12:41:47.780Z</dc:modified>
         <dc:title>
            <rdf:Alt>
               <rdf:li xml:lang="x-default">Custom metrics autoscaler icon</rdf:li>
            </rdf:Alt>
         </dc:title>
         <dc:description>
            <rdf:Alt>
               <rdf:li xml:lang="x-default">Cloud, operator</rdf:li>
            </rdf:Alt>
         </dc:description>
         <cq:lastReplicationAction_scene7>Activate</cq:lastReplicationAction_scene7>
         <cq:lastReplicationAction_publish>Activate</cq:lastReplicationAction_publish>
         <cq:lastReplicated_publish>2024-10-02T19:51:12.643Z</cq:lastReplicated_publish>
         <cq:lastReplicatedBy>workflow-process-service</cq:lastReplicatedBy>
         <cq:lastReplicationAction>Activate</cq:lastReplicationAction>
         <cq:lastReplicatedBy_publish>workflow-process-service</cq:lastReplicatedBy_publish>
         <cq:isDelivered>false</cq:isDelivered>
         <cq:lastReplicated>2024-10-02T19:51:12.643Z</cq:lastReplicated>
         <cq:lastReplicatedBy_scene7>workflow-process-service</cq:lastReplicatedBy_scene7>
         <cq:lastReplicated_scene7>2024-10-02T19:51:12.643Z</cq:lastReplicated_scene7>
         <tiff:ImageLength>38</tiff:ImageLength>
         <tiff:ImageWidth>38</tiff:ImageWidth>
         <xmpRights:UsageTerms>
            <rdf:Alt>
               <rdf:li xml:lang="x-default">Use technology icons to represent Red Hat products and components. Do not remove the icon from the bounding shape.</rdf:li>
            </rdf:Alt>
         </xmpRights:UsageTerms>
      </rdf:Description>
   </rdf:RDF>
</x:xmpmeta>
                                                                                                    
                                                                                                    
                                                                                                    
                                                                                                    
                                                                                                    
                                                                                                    
                                                                                                    
                                                                                                    
                                                                                                    
                                                                                                    
                                                                                                    
                                                                                                    
                                                                                                    
                                                                                                    
                                                                                                    
                                                                                                    
                                                                                                    
                                          
<?xpacket end="w"?></metadata>
<defs><style>.uuid-ea97a75b-131b-4905-b3e6-6b50ee599d90{fill:#fff;}</style></defs><path class="uuid-ea97a75b-131b-4905-b3e6-6b50ee599d90" d="m28,1H10C5.02942,1,1,5.02942,1,10v18c0,4.97058,4.02942,9,9,9h18c4.97058,0,9-4.02942,9-9V10c0-4.97058-4.02942-9-9-9Zm7.75,27c0,4.27332-3.47668,7.75-7.75,7.75H10c-4.27332,0-7.75-3.47668-7.75-7.75V10c0-4.27338,3.47668-7.75,7.75-7.75h18c4.27332,0,7.75,3.47662,7.75,7.75v18Z"/><path class="uuid-ea97a75b-131b-4905-b3e6-6b50ee599d90" d="m28.85645,21.375c-.34473,0-.625.28027-.625.625v.63867l-.55371.32031c-.29883.17188-.40137.55469-.22852.85352.11523.2002.3252.3125.54199.3125.10547,0,.21289-.02734.31152-.08398l.86621-.5c.19336-.11133.3125-.31738.3125-.54102v-1c0-.34473-.28027-.625-.625-.625Z"/><path class="uuid-ea97a75b-131b-4905-b3e6-6b50ee599d90" d="m28.85645,17.77441c-.34473,0-.625.28027-.625.625v1.2002c0,.34473.28027.625.625.625s.625-.28027.625-.625v-1.2002c0-.34473-.28027-.625-.625-.625Z"/><path class="uuid-ea97a75b-131b-4905-b3e6-6b50ee599d90" d="m29.16895,14.45898l-.86621-.5c-.30273-.17383-.68262-.07031-.85352.22852-.17285.29883-.07031.68164.22852.85352l.55371.32031v.63867c0,.34473.28027.625.625.625s.625-.28027.625-.625v-1c0-.22363-.11914-.42969-.3125-.54102Z"/><path class="uuid-ea97a75b-131b-4905-b3e6-6b50ee599d90" d="m26.22461,12.75879l-1.03906-.60059c-.2998-.17285-.68164-.06934-.85352.22852-.17285.29883-.07031.68066.22852.85352l1.03906.60059c.09863.05664.20605.08398.31152.08398.21582,0,.42676-.1123.54199-.3125.17285-.29883.07031-.68066-.22852-.85352Z"/><path class="uuid-ea97a75b-131b-4905-b3e6-6b50ee599d90" d="m21.375,12.04102l.55273-.31934.55371.31934c.09863.05664.20605.08398.31152.08398.2168,0,.42676-.1123.54199-.3125.17285-.29883.07031-.68164-.22852-.85352l-.86621-.5c-.19434-.1123-.43262-.11133-.625,0l-.86523.5c-.29883.17285-.40137.55469-.22852.85352.1709.29785.55176.40137.85352.22852Z"/><path class="uuid-ea97a75b-131b-4905-b3e6-6b50ee599d90" d="m22.48145,25.95898l-.55371.31934-.55273-.31934c-.2998-.17285-.68164-.06934-.85352.22852-.17285.29883-.07031.68066.22852.85352l.86523.5c.09668.05566.2041.08398.3125.08398.10742,0,.21582-.02832.3125-.08398l.86621-.5c.29883-.17188.40137-.55469.22852-.85352-.17188-.29785-.55176-.40137-.85352-.22852Z"/><path class="uuid-ea97a75b-131b-4905-b3e6-6b50ee599d90" d="m25.59961,24.1582l-1.03906.60059c-.29883.17285-.40137.55469-.22852.85352.11523.2002.32617.3125.54199.3125.10547,0,.21289-.02734.31152-.08398l1.03906-.60059c.29883-.17285.40137-.55469.22852-.85352s-.55371-.40137-.85352-.22852Z"/><path class="uuid-ea97a75b-131b-4905-b3e6-6b50ee599d90" d="m23.3125,14.45898l-6.92773-4c-.19336-.11133-.43164-.1123-.625,0l-6.92871,4c-.19336.11133-.3125.31738-.3125.54102v8c0,.22363.11914.42969.3125.54102l6.92871,4c.09668.05566.20508.08398.3125.08398.1084,0,.21582-.02832.3125-.08398l6.92773-4c.19336-.11133.3125-.31738.3125-.54102v-8c0-.22363-.11914-.42969-.3125-.54102Zm-.9375,8.18066l-6.30273,3.63867-6.30371-3.63965v-7.27734l6.30371-3.63965,6.30273,3.63867v7.2793Z"/><path class="uuid-ea97a75b-131b-4905-b3e6-6b50ee599d90" d="m15.87598,14.24609l-2.33789,5.25c-.08594.19336-.06836.41699.04688.59473.11523.17676.3125.28418.52441.28418h.96289v3.125c0,.29492.20605.5498.49512.61133.04395.00879.08691.01367.12988.01367.24316,0,.46875-.1416.57129-.37109l2.33691-5.25c.08594-.19336.06836-.41699-.04688-.59473-.11523-.17676-.3125-.28418-.52441-.28418h-.96191v-3.125c0-.29492-.20605-.5498-.49512-.61133-.28613-.06055-.58008.08691-.70117.35742Z"/></svg>