<?xml version="1.0" encoding="UTF-8"?><svg id="uuid-75d872c2-6371-4a3d-94c8-2b6ef84ea56c" xmlns="http://www.w3.org/2000/svg" width="38" height="38" viewBox="0 0 38 38"><title>AI model icon</title>
<desc>Use this icon to represent an AI model uploaded by Red Hat in a catalog or marketplace.</desc>
<metadata><?xpacket begin="﻿" id="W5M0MpCehiHzreSzNTczkc9d"?>
<x:xmpmeta xmlns:x="adobe:ns:meta/" x:xmptk="Adobe XMP Core 8.0-c001 1.000000, 0000/00/00-00:00:00        ">
   <rdf:RDF xmlns:rdf="http://www.w3.org/1999/02/22-rdf-syntax-ns#">
      <rdf:Description rdf:about=""
            xmlns:xmp="http://ns.adobe.com/xap/1.0/"
            xmlns:tiff="http://ns.adobe.com/tiff/1.0/"
            xmlns:dc="http://purl.org/dc/elements/1.1/"
            xmlns:xmpRights="http://ns.adobe.com/xap/1.0/rights/">
         <xmp:rhcc-notify-portal-subscribers-on-change>yes</xmp:rhcc-notify-portal-subscribers-on-change>
         <xmp:rhcc-aspect-ratio>square</xmp:rhcc-aspect-ratio>
         <xmp:rhcc-file-last-modified>2025-05-12T21:50:24.034Z</xmp:rhcc-file-last-modified>
         <xmp:brand-content-type>Icon</xmp:brand-content-type>
         <xmp:rhcc-audience>rhcc-audience:internal</xmp:rhcc-audience>
         <xmp:rhcc-rights-restricted>no</xmp:rhcc-rights-restricted>
         <xmp:brand-content-subtype>Technology</xmp:brand-content-subtype>
         <xmp:brand-logo-color>White</xmp:brand-logo-color>
         <xmp:brand-subtype>
            <rdf:Bag>
               <rdf:li>Technology icon</rdf:li>
            </rdf:Bag>
         </xmp:brand-subtype>
         <xmp:rhcc-topics>
            <rdf:Bag>
               <rdf:li>rhcc-topics:artificial-intelligence</rdf:li>
            </rdf:Bag>
         </xmp:rhcc-topics>
         <xmp:brand-colorway>
            <rdf:Bag>
               <rdf:li>colorway:white</rdf:li>
            </rdf:Bag>
         </xmp:brand-colorway>
         <xmp:rhcc-product>
            <rdf:Bag>
               <rdf:li>rhcc-product:red-hat-ai</rdf:li>
            </rdf:Bag>
         </xmp:rhcc-product>
         <tiff:ImageWidth>38</tiff:ImageWidth>
         <tiff:ImageLength>38</tiff:ImageLength>
         <dc:format>image/svg+xml</dc:format>
         <dc:modified>2025-05-12T21:51:04.491Z</dc:modified>
         <dc:description>
            <rdf:Alt>
               <rdf:li xml:lang="x-default">Use this icon to represent an AI model uploaded by Red Hat in a catalog or marketplace.</rdf:li>
            </rdf:Alt>
         </dc:description>
         <dc:title>
            <rdf:Alt>
               <rdf:li xml:lang="x-default">AI model icon</rdf:li>
            </rdf:Alt>
         </dc:title>
         <xmpRights:UsageTerms>
            <rdf:Alt>
               <rdf:li xml:lang="x-default">Use technology icons to represent Red Hat products and components. Do not remove the icon from the bounding shape.</rdf:li>
            </rdf:Alt>
         </xmpRights:UsageTerms>
      </rdf:Description>
   </rdf:RDF>
</x:xmpmeta>
                                                                                                    
                                                                                                    
                                                                                                    
                                                                                                    
                                                       
<?xpacket end="w"?></metadata>
<defs><style>.uuid-4cb65a11-c7b1-4f7a-bd9f-8e2b4cfd8b17{fill:#fff;}</style></defs><path class="uuid-4cb65a11-c7b1-4f7a-bd9f-8e2b4cfd8b17" d="M28,2.25c4.27336,0,7.75,3.47664,7.75,7.75v18c0,4.27336-3.47664,7.75-7.75,7.75H10c-4.27336,0-7.75-3.47664-7.75-7.75V10c0-4.27336,3.47664-7.75,7.75-7.75h18M28,1H10C5.02944,1,1,5.02943,1,10v18c0,4.97057,4.02944,9,9,9h18c4.97056,0,9-4.02943,9-9V10c0-4.97057-4.02944-9-9-9h0Z"/><path class="uuid-4cb65a11-c7b1-4f7a-bd9f-8e2b4cfd8b17" d="M21.125,17.75891l4.13416-4.13391h2.74084c.34473,0,.625-.27979.625-.625v-3c0-.34521-.28027-.625-.625-.625h-3c-.34473,0-.625.27979-.625.625v1.375h-10.75v-1.375c0-.34521-.27979-.625-.625-.625h-3c-.34521,0-.625.27979-.625.625v3c0,.34521.27979.625.625.625h2.74121l4.13379,4.13379v.61621h-3.25v-.875c0-.34521-.27979-.625-.625-.625h-3c-.34521,0-.625.27979-.625.625v3c0,.34521.27979.625.625.625h3c.34521,0,.625-.27979.625-.625v-.875h3.25v.61621l-4.13379,4.13379h-2.74121c-.34521,0-.625.27979-.625.625v3c0,.34521.27979.625.625.625h3c.34521,0,.625-.27979.625-.625v-1.375h10.75v1.375c0,.34521.28027.625.625.625h3c.34473,0,.625-.27979.625-.625v-3c0-.34521-.28027-.625-.625-.625h-2.74084l-4.13416-4.13391v-.61609h3.25v.875c0,.34521.28027.625.625.625h3c.34473,0,.625-.27979.625-.625v-3c0-.34521-.28027-.625-.625-.625h-3c-.34473,0-.625.27979-.625.625v.875h-3.25s0-.61609,0-.61609ZM12.375,19.875h-1.75v-1.75h1.75v1.75ZM25.625,18.125h1.75v1.75h-1.75v-1.75ZM18.125,19.875v-1.75h1.75v1.75h-1.75ZM25.625,10.625h1.75v1.75h-1.75v-1.75ZM24.375,12.625v.11621l-4.13379,4.13379h-2.48242l-4.13379-4.13379v-.11621h10.75ZM10.625,10.625h1.75v1.75h-1.75v-1.75ZM12.375,27.375h-1.75v-1.75h1.75v1.75ZM13.625,25.375v-.11621l4.13379-4.13379h2.48242l4.13379,4.13379v.11621h-10.75ZM27.375,27.375h-1.75v-1.75h1.75v1.75Z"/></svg>