<?xml version="1.0" encoding="UTF-8"?><svg id="uuid-fbaf9fb8-e072-4f6f-84cd-1ecb3065471f" xmlns="http://www.w3.org/2000/svg" width="38" height="38" viewBox="0 0 38 38"><title>AI model icon</title>
<desc>Use this icon to represent an AI model uploaded by Red Hat in a catalog or marketplace.</desc>
<metadata><?xpacket begin="﻿" id="W5M0MpCehiHzreSzNTczkc9d"?>
<x:xmpmeta xmlns:x="adobe:ns:meta/" x:xmptk="Adobe XMP Core 8.0-c001 1.000000, 0000/00/00-00:00:00        ">
   <rdf:RDF xmlns:rdf="http://www.w3.org/1999/02/22-rdf-syntax-ns#">
      <rdf:Description rdf:about=""
            xmlns:xmp="http://ns.adobe.com/xap/1.0/"
            xmlns:tiff="http://ns.adobe.com/tiff/1.0/"
            xmlns:dc="http://purl.org/dc/elements/1.1/"
            xmlns:xmpRights="http://ns.adobe.com/xap/1.0/rights/">
         <xmp:rhcc-audience>rhcc-audience:internal</xmp:rhcc-audience>
         <xmp:brand-content-type>Icon</xmp:brand-content-type>
         <xmp:rhcc-rights-restricted>no</xmp:rhcc-rights-restricted>
         <xmp:rhcc-aspect-ratio>square</xmp:rhcc-aspect-ratio>
         <xmp:brand-logo-color>Standard</xmp:brand-logo-color>
         <xmp:rhcc-file-last-modified>2025-05-12T21:50:23.941Z</xmp:rhcc-file-last-modified>
         <xmp:brand-content-subtype>Technology</xmp:brand-content-subtype>
         <xmp:rhcc-notify-portal-subscribers-on-change>yes</xmp:rhcc-notify-portal-subscribers-on-change>
         <xmp:brand-subtype>
            <rdf:Bag>
               <rdf:li>Technology icon</rdf:li>
            </rdf:Bag>
         </xmp:brand-subtype>
         <xmp:brand-colorway>
            <rdf:Bag>
               <rdf:li>colorway:standard</rdf:li>
            </rdf:Bag>
         </xmp:brand-colorway>
         <xmp:rhcc-topics>
            <rdf:Bag>
               <rdf:li>rhcc-topics:artificial-intelligence</rdf:li>
            </rdf:Bag>
         </xmp:rhcc-topics>
         <xmp:rhcc-product>
            <rdf:Bag>
               <rdf:li>rhcc-product:red-hat-ai</rdf:li>
            </rdf:Bag>
         </xmp:rhcc-product>
         <tiff:ImageLength>38</tiff:ImageLength>
         <tiff:ImageWidth>38</tiff:ImageWidth>
         <dc:format>image/svg+xml</dc:format>
         <dc:modified>2025-05-12T21:51:05.129Z</dc:modified>
         <dc:title>
            <rdf:Alt>
               <rdf:li xml:lang="x-default">AI model icon</rdf:li>
            </rdf:Alt>
         </dc:title>
         <dc:description>
            <rdf:Alt>
               <rdf:li xml:lang="x-default">Use this icon to represent an AI model uploaded by Red Hat in a catalog or marketplace.</rdf:li>
            </rdf:Alt>
         </dc:description>
         <xmpRights:UsageTerms>
            <rdf:Alt>
               <rdf:li xml:lang="x-default">Use technology icons to represent Red Hat products and components. Do not remove the icon from the bounding shape.</rdf:li>
            </rdf:Alt>
         </xmpRights:UsageTerms>
      </rdf:Description>
   </rdf:RDF>
</x:xmpmeta>
                                                                                                    
                                                                                                    
                                                                                                    
                                                                                                    
                                                 
<?xpacket end="w"?></metadata>
<defs><style>.uuid-226ed085-d51e-46cc-b04e-acf3e0e94457{fill:#e0e0e0;}.uuid-d28cadb6-6344-4831-a6c9-7c0affca04c9{fill:#fff;}.uuid-53e44f3e-df1c-48d6-bd70-b7d473c78d49{fill:#e00;}</style></defs><rect class="uuid-d28cadb6-6344-4831-a6c9-7c0affca04c9" x="1" y="1" width="36" height="36" rx="9" ry="9"/><path class="uuid-226ed085-d51e-46cc-b04e-acf3e0e94457" d="M28,2.25c4.27336,0,7.75,3.47664,7.75,7.75v18c0,4.27336-3.47664,7.75-7.75,7.75H10c-4.27336,0-7.75-3.47664-7.75-7.75V10c0-4.27336,3.47664-7.75,7.75-7.75h18M28,1H10C5.02944,1,1,5.02943,1,10v18c0,4.97057,4.02944,9,9,9h18c4.97056,0,9-4.02943,9-9V10c0-4.97057-4.02944-9-9-9h0Z"/><path class="uuid-53e44f3e-df1c-48d6-bd70-b7d473c78d49" d="M25,19.625v-1.25h-4.49115l5.37537-5.375h-.88422v-1.625h-12v1.625h-.88379l5.375,5.375h-4.49121v1.25h4.49121l-5.375,5.375h.88379v1.625h12v-1.625h.88422l-5.37537-5.375h4.49115ZM24.49121,25.375h-10.98242l4.875-4.875h-.88379v-3h.88379l-4.875-4.875h10.98242l-4.875,4.875h.88379v3h-.88379l4.875,4.875Z"/><path d="M28,28.625h-3c-.34473,0-.625-.27979-.625-.625v-3c0-.34521.28027-.625.625-.625h3c.34473,0,.625.27979.625.625v3c0,.34521-.28027.625-.625.625ZM25.625,27.375h1.75v-1.75h-1.75v1.75Z"/><path d="M13,28.625h-3c-.34521,0-.625-.27979-.625-.625v-3c0-.34521.27979-.625.625-.625h3c.34521,0,.625.27979.625.625v3c0,.34521-.27979.625-.625.625ZM10.625,27.375h1.75v-1.75h-1.75v1.75Z"/><path d="M28,13.625h-3c-.34473,0-.625-.27979-.625-.625v-3c0-.34521.28027-.625.625-.625h3c.34473,0,.625.27979.625.625v3c0,.34521-.28027.625-.625.625ZM25.625,12.375h1.75v-1.75h-1.75v1.75Z"/><path d="M13,13.625h-3c-.34521,0-.625-.27979-.625-.625v-3c0-.34521.27979-.625.625-.625h3c.34521,0,.625.27979.625.625v3c0,.34521-.27979.625-.625.625ZM10.625,12.375h1.75v-1.75h-1.75v1.75Z"/><path d="M13,21.125h-3c-.34521,0-.625-.27979-.625-.625v-3c0-.34521.27979-.625.625-.625h3c.34521,0,.625.27979.625.625v3c0,.34521-.27979.625-.625.625ZM10.625,19.875h1.75v-1.75h-1.75v1.75Z"/><path d="M28,21.125h-3c-.34473,0-.625-.27979-.625-.625v-3c0-.34521.28027-.625.625-.625h3c.34473,0,.625.27979.625.625v3c0,.34521-.28027.625-.625.625ZM25.625,19.875h1.75v-1.75h-1.75v1.75Z"/><path d="M20.5,21.125h-3c-.34521,0-.625-.27979-.625-.625v-3c0-.34521.27979-.625.625-.625h3c.34473,0,.625.27979.625.625v3c0,.34521-.28027.625-.625.625ZM18.125,19.875h1.75v-1.75h-1.75v1.75Z"/></svg>