<?xml version="1.0" encoding="UTF-8"?><svg id="uuid-9c37bd3f-311f-42bb-b549-97f3501d8f4f" xmlns="http://www.w3.org/2000/svg" viewBox="0 0 36 36"><title>Mobius loop icon - Red</title>
<desc>innovation, development, developer, process, evaluate, evaluation, labs, open source, diagrams and graphs</desc>
<metadata><?xpacket begin="﻿" id="W5M0MpCehiHzreSzNTczkc9d"?>
<x:xmpmeta xmlns:x="adobe:ns:meta/" x:xmptk="Adobe XMP Core 8.0-c001 1.000000, 0000/00/00-00:00:00        ">
   <rdf:RDF xmlns:rdf="http://www.w3.org/1999/02/22-rdf-syntax-ns#">
      <rdf:Description rdf:about=""
            xmlns:xmp="http://ns.adobe.com/xap/1.0/"
            xmlns:dc="http://purl.org/dc/elements/1.1/"
            xmlns:cq="http://www.day.com/jcr/cq/1.0"
            xmlns:tiff="http://ns.adobe.com/tiff/1.0/">
         <xmp:rhcc-effective-on>2023-12-08T17:35:06.553Z</xmp:rhcc-effective-on>
         <xmp:rhcc-metadata-complete-moderator>pending</xmp:rhcc-metadata-complete-moderator>
         <xmp:rhcc-translation-id>TRA344e7ab1-976f-4bc9-9e04-67976102853e</xmp:rhcc-translation-id>
         <xmp:brand-content-type>Icon</xmp:brand-content-type>
         <xmp:CreateDate>2023-12-08T17:35:06.553Z</xmp:CreateDate>
         <xmp:rhcc-aspect-ratio>square</xmp:rhcc-aspect-ratio>
         <xmp:rhcc-effective-on-set-on-upload>true</xmp:rhcc-effective-on-set-on-upload>
         <xmp:rhcc-published-asset-email-sent>true</xmp:rhcc-published-asset-email-sent>
         <xmp:rhcc-metadata-complete-uploader>pending</xmp:rhcc-metadata-complete-uploader>
         <xmp:rhcc-file-last-modified>2024-07-12T22:55:04.390Z</xmp:rhcc-file-last-modified>
         <xmp:rhcc-audience>rhcc-audience:internal</xmp:rhcc-audience>
         <xmp:brand-content-subtype>Icon</xmp:brand-content-subtype>
         <xmp:rhcc-rights-restricted>no</xmp:rhcc-rights-restricted>
         <xmp:rhcc-derivative-id>DER344e7ab1-976f-4bc9-9e04-67976102853e</xmp:rhcc-derivative-id>
         <xmp:rhcc-uploaded-by>pmeilleu@redhat.com</xmp:rhcc-uploaded-by>
         <xmp:brand-logo-color>Red</xmp:brand-logo-color>
         <xmp:rhcc-notify-portal-subscribers-on-change>yes</xmp:rhcc-notify-portal-subscribers-on-change>
         <dc:format>image/svg+xml</dc:format>
         <dc:modified>2024-02-09T20:35:16.855Z</dc:modified>
         <dc:title>
            <rdf:Alt>
               <rdf:li xml:lang="x-default">Mobius loop icon - Red</rdf:li>
            </rdf:Alt>
         </dc:title>
         <dc:description>
            <rdf:Alt>
               <rdf:li xml:lang="x-default">innovation, development, developer, process, evaluate, evaluation, labs, open source, diagrams and graphs</rdf:li>
            </rdf:Alt>
         </dc:description>
         <cq:lastReplicationAction_scene7>Activate</cq:lastReplicationAction_scene7>
         <cq:lastReplicationAction_publish>Activate</cq:lastReplicationAction_publish>
         <cq:lastReplicated_publish>2024-10-02T19:39:38.062Z</cq:lastReplicated_publish>
         <cq:lastReplicatedBy>workflow-process-service</cq:lastReplicatedBy>
         <cq:lastReplicationAction>Activate</cq:lastReplicationAction>
         <cq:lastReplicatedBy_publish>workflow-process-service</cq:lastReplicatedBy_publish>
         <cq:isDelivered>false</cq:isDelivered>
         <cq:lastReplicated>2024-10-02T19:39:38.062Z</cq:lastReplicated>
         <cq:lastReplicatedBy_scene7>workflow-process-service</cq:lastReplicatedBy_scene7>
         <cq:lastReplicated_scene7>2024-10-02T19:39:38.062Z</cq:lastReplicated_scene7>
         <tiff:ImageLength>36</tiff:ImageLength>
         <tiff:ImageWidth>36</tiff:ImageWidth>
      </rdf:Description>
   </rdf:RDF>
</x:xmpmeta>
                                                                                                    
                                                                                                    
                                                                                                    
                                                                                                    
                                                                                                    
                                                                                                    
                                                                                                    
                                                                                                    
        
<?xpacket end="w"?></metadata>
<defs><style>.uuid-3b33ab6d-41db-496f-8e0f-56538b4be333{fill:#e00;}</style></defs><path class="uuid-3b33ab6d-41db-496f-8e0f-56538b4be333" d="M31,24.88H5c-.82,0-.82,1.25,0,1.25H31c.82,0,.82-1.25,0-1.25Z"/><path class="uuid-3b33ab6d-41db-496f-8e0f-56538b4be333" d="M13,15.13c.35,0,.62-.28,.62-.62v-1.68l3.93,3.92h0s3.19,3.18,4.11,4.11c2.39,2.49,6.69,2.49,9.09,0,2.49-2.39,2.49-6.69,0-9.09-2.39-2.49-6.69-2.49-9.09,0l-2.31,2.3c-.24,.24-.25,.64,0,.88,.24,.24,.64,.25,.88,0l2.31-2.3c2.02-2.02,5.3-2.02,7.32,0,2.01,1.93,2.01,5.39,0,7.32-1.49,1.49-3.67,1.87-5.52,1.16-.02-.02-.02-.04-.04-.06-1.28-1.19-.6-3.51,1.08-3.86v1.3c0,.82,1.25,.82,1.25,0v-3c0-.34-.28-.62-.62-.62h-3c-.82,0-.82,1.25,0,1.25h1.64c-1.43,.55-2.47,2.1-2.23,3.71-1.04-1.04-3.91-3.9-3.98-3.97h0s-3.74-3.74-3.74-3.74h1.3c.82,0,.82-1.25,0-1.25h-3s-.03,0-.05,.01c-.01,0-.03,0-.04,0-.3,.05-.53,.29-.53,.61v3c0,.34,.28,.62,.62,.62Z"/><path class="uuid-3b33ab6d-41db-496f-8e0f-56538b4be333" d="M9.79,22.72c1.65,0,3.29-.63,4.54-1.88l2.11-2.11c.24-.24,.25-.64,0-.88-.25-.24-.64-.25-.88,0l-2.11,2.11c-2.02,2.02-5.3,2.02-7.32,0-2.02-2.02-2.02-5.3,0-7.32,1.24-1.25,3.02-1.77,4.74-1.4,.8,.17,1.06-1.05,.26-1.22-2.14-.45-4.34,.2-5.89,1.74-2.5,2.5-2.5,6.58,0,9.09,1.25,1.25,2.9,1.88,4.54,1.88Z"/></svg>