<svg id="ee912013-337a-4e42-afd8-4684598a8603" data-name="Icon" xmlns="http://www.w3.org/2000/svg" viewBox="0 0 36 36">
  <title>Telecommunications icon - White</title>
<desc>media, broadcasting, news, communications, tv, internet, radio, buildings and industries, radio tower, RAN, telco, 5g</desc>
<metadata><?xpacket begin="﻿" id="W5M0MpCehiHzreSzNTczkc9d"?>
<x:xmpmeta xmlns:x="adobe:ns:meta/" x:xmptk="Adobe XMP Core 8.0-c001 1.000000, 0000/00/00-00:00:00        ">
   <rdf:RDF xmlns:rdf="http://www.w3.org/1999/02/22-rdf-syntax-ns#">
      <rdf:Description rdf:about=""
            xmlns:xmp="http://ns.adobe.com/xap/1.0/"
            xmlns:dc="http://purl.org/dc/elements/1.1/"
            xmlns:cq="http://www.day.com/jcr/cq/1.0"
            xmlns:tiff="http://ns.adobe.com/tiff/1.0/">
         <xmp:rhcc-effective-on>2023-12-08T17:47:46.248Z</xmp:rhcc-effective-on>
         <xmp:rhcc-metadata-complete-moderator>pending</xmp:rhcc-metadata-complete-moderator>
         <xmp:rhcc-translation-id>TRA0667f6fb-636d-4fe5-969d-80d556e14f05</xmp:rhcc-translation-id>
         <xmp:brand-content-type>Icon</xmp:brand-content-type>
         <xmp:CreateDate>2023-12-08T17:47:46.248Z</xmp:CreateDate>
         <xmp:rhcc-aspect-ratio>square</xmp:rhcc-aspect-ratio>
         <xmp:rhcc-effective-on-set-on-upload>true</xmp:rhcc-effective-on-set-on-upload>
         <xmp:rhcc-metadata-complete-uploader>pending</xmp:rhcc-metadata-complete-uploader>
         <xmp:rhcc-file-last-modified>2024-12-19T21:12:11.845Z</xmp:rhcc-file-last-modified>
         <xmp:rhcc-audience>rhcc-audience:internal</xmp:rhcc-audience>
         <xmp:brand-content-subtype>Icon</xmp:brand-content-subtype>
         <xmp:rhcc-rights-restricted>no</xmp:rhcc-rights-restricted>
         <xmp:rhcc-derivative-id>DER0667f6fb-636d-4fe5-969d-80d556e14f05</xmp:rhcc-derivative-id>
         <xmp:rhcc-uploaded-by>pmeilleu@redhat.com</xmp:rhcc-uploaded-by>
         <xmp:brand-logo-color>White</xmp:brand-logo-color>
         <xmp:rhcc-notify-portal-subscribers-on-change>yes</xmp:rhcc-notify-portal-subscribers-on-change>
         <dc:format>image/svg+xml</dc:format>
         <dc:modified>2024-02-09T20:24:45.499Z</dc:modified>
         <dc:title>
            <rdf:Alt>
               <rdf:li xml:lang="x-default">Telecommunications icon - White</rdf:li>
            </rdf:Alt>
         </dc:title>
         <dc:description>
            <rdf:Alt>
               <rdf:li xml:lang="x-default">media, broadcasting, news, communications, tv, internet, radio, buildings and industries, radio tower, RAN, telco, 5g</rdf:li>
            </rdf:Alt>
         </dc:description>
         <cq:lastReplicationAction_scene7>Activate</cq:lastReplicationAction_scene7>
         <cq:lastReplicationAction_publish>Activate</cq:lastReplicationAction_publish>
         <cq:lastReplicated_publish>2024-10-02T19:45:55.999Z</cq:lastReplicated_publish>
         <cq:lastReplicatedBy>workflow-process-service</cq:lastReplicatedBy>
         <cq:lastReplicationAction>Activate</cq:lastReplicationAction>
         <cq:lastReplicatedBy_publish>workflow-process-service</cq:lastReplicatedBy_publish>
         <cq:isDelivered>false</cq:isDelivered>
         <cq:lastReplicated>2024-10-02T19:45:55.999Z</cq:lastReplicated>
         <cq:lastReplicatedBy_scene7>workflow-process-service</cq:lastReplicatedBy_scene7>
         <cq:lastReplicated_scene7>2024-10-02T19:45:55.999Z</cq:lastReplicated_scene7>
         <tiff:ImageLength>36</tiff:ImageLength>
         <tiff:ImageWidth>36</tiff:ImageWidth>
      </rdf:Description>
   </rdf:RDF>
</x:xmpmeta>
                                                                                                    
                                                                                                    
                                                                                                    
                                                                                                    
                                                                                                    
                                                                                                    
                                                                                                    
                                                                                                    
                                                                    
<?xpacket end="w"?></metadata>
<defs>
    <style>
      .aacbab88-00c3-4198-9f74-7ed23935a773 {
        fill: #fff;
      }
    </style>
  </defs>
  <g>
    <path class="aacbab88-00c3-4198-9f74-7ed23935a773" d="M19.59,13.11l0,0a2.61,2.61,0,1,0-3.18,0L9.94,30.79a.62.62,0,1,0,1.17.42L12.28,28,18,23.72,23.66,28l1.18,3.24A.63.63,0,1,0,26,30.79ZM18,9.62a1.38,1.38,0,0,1,0,2.75A1.38,1.38,0,0,1,18,9.62Zm0,4a3,3,0,0,0,.43,0l2.36,6.49L18,22.16,15.18,20l2.35-6.46A2.42,2.42,0,0,0,18,13.62ZM13.06,25.87l1.67-4.6L17,22.94Zm6-2.93,2.2-1.65,1.64,4.53Z"/>
    <path class="aacbab88-00c3-4198-9f74-7ed23935a773" d="M13.32,15.68a.62.62,0,0,0,.88-.88,5.39,5.39,0,0,1,0-7.6c.58-.57-.32-1.47-.88-.88A6.65,6.65,0,0,0,13.32,15.68Z"/>
    <path class="aacbab88-00c3-4198-9f74-7ed23935a773" d="M21.8,15.68a.61.61,0,0,0,.88,0,6.65,6.65,0,0,0,0-9.36c-.56-.59-1.46.31-.88.88a5.39,5.39,0,0,1,0,7.6A.63.63,0,0,0,21.8,15.68Z"/>
    <path class="aacbab88-00c3-4198-9f74-7ed23935a773" d="M11.64,18a.62.62,0,0,0,.44-.18.64.64,0,0,0,0-.89,8.37,8.37,0,0,1,0-11.84.63.63,0,1,0-.89-.89,9.65,9.65,0,0,0,0,13.62A.66.66,0,0,0,11.64,18Z"/>
    <path class="aacbab88-00c3-4198-9f74-7ed23935a773" d="M23.92,16.92a.63.63,0,0,0,.89.89,9.65,9.65,0,0,0,0-13.62.63.63,0,0,0-.89.89A8.37,8.37,0,0,1,23.92,16.92Z"/>
  </g>
</svg>
