<?xml version="1.0" encoding="UTF-8"?><svg id="Ryan_tweaks" xmlns="http://www.w3.org/2000/svg" viewBox="0 0 36 36"><title>Yoga mat icon - Red </title>
<desc>yoga, health, wellness, fitness, balance, stretching</desc>
<metadata><?xpacket begin="﻿" id="W5M0MpCehiHzreSzNTczkc9d"?>
<x:xmpmeta xmlns:x="adobe:ns:meta/" x:xmptk="Adobe XMP Core 8.0-c001 1.000000, 0000/00/00-00:00:00        ">
   <rdf:RDF xmlns:rdf="http://www.w3.org/1999/02/22-rdf-syntax-ns#">
      <rdf:Description rdf:about=""
            xmlns:xmp="http://ns.adobe.com/xap/1.0/"
            xmlns:tiff="http://ns.adobe.com/tiff/1.0/"
            xmlns:dc="http://purl.org/dc/elements/1.1/">
         <xmp:brand-content-subtype>Icon</xmp:brand-content-subtype>
         <xmp:rhcc-rights-restricted>no</xmp:rhcc-rights-restricted>
         <xmp:brand-content-type>Icon</xmp:brand-content-type>
         <xmp:rhcc-file-last-modified>2025-06-03T18:46:50.421Z</xmp:rhcc-file-last-modified>
         <xmp:brand-colorway>
            <rdf:Bag>
               <rdf:li>colorway:red</rdf:li>
            </rdf:Bag>
         </xmp:brand-colorway>
         <tiff:ImageLength>36</tiff:ImageLength>
         <tiff:ImageWidth>36</tiff:ImageWidth>
         <dc:modified>2025-06-03T18:49:24.967Z</dc:modified>
         <dc:format>image/svg+xml</dc:format>
         <dc:description>
            <rdf:Alt>
               <rdf:li xml:lang="x-default">yoga, health, wellness, fitness, balance, stretching</rdf:li>
            </rdf:Alt>
         </dc:description>
         <dc:title>
            <rdf:Alt>
               <rdf:li xml:lang="x-default">Yoga mat icon - Red </rdf:li>
            </rdf:Alt>
         </dc:title>
      </rdf:Description>
   </rdf:RDF>
</x:xmpmeta>
                                                                                                    
                                                                                                    
                                                                                                    
                                                                                                    
                                                                                                    
                                                                                                    
                                                                                                    
                                                                                                    
                                                                                                    
                                                                                                    
                                                                                                    
                                                                                                    
                                                                                                    
                                                                                                    
                                                                                                    
                                                                                                    
                                                                                                    
                                                                                                    
                                                                              
<?xpacket end="w"?></metadata>
<defs><style>.cls-1{fill:none;}.cls-1,.cls-2{stroke-width:0px;}.cls-2{fill:#e00;}</style></defs><path class="cls-1" d="M27,22.38c1.49.05,2.61.62,3.37,1.44v-14.82c-.14-4.46-6.61-4.46-6.75,0,0,0,0,9.65,0,14.82.76-.83,1.88-1.4,3.38-1.44Z"/><path class="cls-1" d="M22.44,27.27c-.04-.08-.06-.17-.06-.27V10.62H5.62v19.71l18.2.03c-.86-.82-1.33-1.95-1.39-3.1ZM9.62,23c0,.82-1.25.82-1.25,0,0,0,0-5,0-5,0-.34.28-.62.62-.62s.62.28.62.62v5Z"/><path class="cls-1" d="M27,23.62c-4.46.14-4.46,6.61,0,6.75,4.46-.14,4.46-6.61,0-6.75ZM28,27.62h-.38c.04.47-.05.98-.63,1-.57-.02-.67-.53-.62-1h-.38c-.82,0-.82-1.25,0-1.25h.37c-.04-.47.05-.98.63-1,.57.02.67.53.62,1h.38c.82,0,.82,1.25,0,1.25Z"/><path class="cls-2" d="M31.62,9c-.25-6.35-9.47-5.98-9.25.38H5c-.35,0-.62.28-.62.62v20.96c0,.34.28.62.62.62,0,0,22,.04,22,.04,3.11-.1,4.45-2.34,4.62-4.63,0,0,0-18,0-18ZM23.62,9c.14-4.46,6.61-4.46,6.75,0v14.82c-1.49-1.86-5.26-1.86-6.75,0,0-5.17,0-14.82,0-14.82ZM5.62,30.34V10.62h16.75v16.38c.14,1.24.48,2.48,1.45,3.37l-18.2-.03ZM27,30.38c-4.5-.13-4.46-6.76.13-6.74,4.33.26,4.28,6.6-.13,6.74Z"/><path class="cls-2" d="M9,17.38c-.35,0-.62.28-.62.62v5c0,.34.28.62.62.62s.62-.28.62-.62v-5c0-.34-.28-.62-.62-.62Z"/><path class="cls-2" d="M28,26.38h-.38c.04-.47-.05-.98-.63-1-.57.02-.67.53-.62,1h-.37c-.82,0-.82,1.25,0,1.25h.38c-.04.47.05.98.63,1,.57-.02.67-.53.62-1h.38c.82,0,.82-1.25,0-1.25Z"/></svg>