<svg id="f44a35c5-2b05-4676-a4c1-7881e89ef967" data-name="Icon" xmlns="http://www.w3.org/2000/svg" viewBox="0 0 36 36">
  <title>Multiple secured apps icon - Red</title>
<desc>application, develop, development, code, square, button, program, software, run, box, stack, unsecured, software and technologies</desc>
<metadata><?xpacket begin="﻿" id="W5M0MpCehiHzreSzNTczkc9d"?>
<x:xmpmeta xmlns:x="adobe:ns:meta/" x:xmptk="Adobe XMP Core 8.0-c001 1.000000, 0000/00/00-00:00:00        ">
   <rdf:RDF xmlns:rdf="http://www.w3.org/1999/02/22-rdf-syntax-ns#">
      <rdf:Description rdf:about=""
            xmlns:xmp="http://ns.adobe.com/xap/1.0/"
            xmlns:dc="http://purl.org/dc/elements/1.1/"
            xmlns:cq="http://www.day.com/jcr/cq/1.0"
            xmlns:tiff="http://ns.adobe.com/tiff/1.0/">
         <xmp:rhcc-effective-on>2023-12-08T17:42:06.033Z</xmp:rhcc-effective-on>
         <xmp:rhcc-metadata-complete-moderator>pending</xmp:rhcc-metadata-complete-moderator>
         <xmp:rhcc-translation-id>TRA1ac46d45-2f20-4fa3-aa1e-8e07d9c601f4</xmp:rhcc-translation-id>
         <xmp:brand-content-type>Icon</xmp:brand-content-type>
         <xmp:CreateDate>2023-12-08T17:42:06.033Z</xmp:CreateDate>
         <xmp:rhcc-effective-on-set-on-upload>true</xmp:rhcc-effective-on-set-on-upload>
         <xmp:rhcc-metadata-complete-uploader>pending</xmp:rhcc-metadata-complete-uploader>
         <xmp:rhcc-file-last-modified>2023-12-08T17:42:21.299Z</xmp:rhcc-file-last-modified>
         <xmp:rhcc-audience>rhcc-audience:internal</xmp:rhcc-audience>
         <xmp:rhcc-rights-restricted>no</xmp:rhcc-rights-restricted>
         <xmp:brand-content-subtype>Icon</xmp:brand-content-subtype>
         <xmp:rhcc-derivative-id>DER1ac46d45-2f20-4fa3-aa1e-8e07d9c601f4</xmp:rhcc-derivative-id>
         <xmp:brand-logo-color>Red</xmp:brand-logo-color>
         <xmp:rhcc-notify-portal-subscribers-on-change>yes</xmp:rhcc-notify-portal-subscribers-on-change>
         <dc:format>image/svg+xml</dc:format>
         <dc:modified>2024-02-09T20:14:24.810Z</dc:modified>
         <dc:title>
            <rdf:Alt>
               <rdf:li xml:lang="x-default">Multiple secured apps icon - Red</rdf:li>
            </rdf:Alt>
         </dc:title>
         <dc:description>
            <rdf:Alt>
               <rdf:li xml:lang="x-default">application, develop, development, code, square, button, program, software, run, box, stack, unsecured, software and technologies</rdf:li>
            </rdf:Alt>
         </dc:description>
         <cq:lastReplicationAction_scene7>Activate</cq:lastReplicationAction_scene7>
         <cq:lastReplicationAction_publish>Activate</cq:lastReplicationAction_publish>
         <cq:lastReplicated_publish>2024-02-09T21:51:07.900Z</cq:lastReplicated_publish>
         <cq:lastReplicatedBy>workflow-process-service</cq:lastReplicatedBy>
         <cq:lastReplicationAction>Activate</cq:lastReplicationAction>
         <cq:lastReplicatedBy_publish>workflow-process-service</cq:lastReplicatedBy_publish>
         <cq:isDelivered>true</cq:isDelivered>
         <cq:lastReplicated>2024-02-09T21:51:07.900Z</cq:lastReplicated>
         <cq:lastReplicatedBy_scene7>workflow-process-service</cq:lastReplicatedBy_scene7>
         <cq:lastReplicated_scene7>2024-02-09T21:51:07.900Z</cq:lastReplicated_scene7>
         <tiff:ImageLength>36</tiff:ImageLength>
         <tiff:ImageWidth>36</tiff:ImageWidth>
      </rdf:Description>
   </rdf:RDF>
</x:xmpmeta>
                                                                                                    
                                                                                                    
                                                                                                    
                                                                                                    
                                                                                                    
                                                                                                    
                                                                                                    
                                                                                                    
                                                                                                    
                                                                                                    
                                 
<?xpacket end="w"?></metadata>
<defs>
    <style>
      .ed0e17ca-1ef9-4f8d-a521-08db50ce2eef {
        fill: #e00;
      }
    </style>
  </defs>
  <g>
    <g>
      <path class="ed0e17ca-1ef9-4f8d-a521-08db50ce2eef" d="M11,25.62H23a.62.62,0,0,0,0-1.24H11.62V5.62H30.38V21a.62.62,0,0,0,1.24,0V5A.61.61,0,0,0,31,4.38H11a.61.61,0,0,0-.62.62V25A.61.61,0,0,0,11,25.62Z"/>
      <path class="ed0e17ca-1ef9-4f8d-a521-08db50ce2eef" d="M8,28.62H23a.62.62,0,0,0,0-1.24H8.62V8A.62.62,0,0,0,7.38,8V28A.61.61,0,0,0,8,28.62Z"/>
      <path class="ed0e17ca-1ef9-4f8d-a521-08db50ce2eef" d="M24,30.38H5.62V11a.62.62,0,0,0-1.24,0V31a.61.61,0,0,0,.62.62H24a.62.62,0,0,0,0-1.24Z"/>
      <path class="ed0e17ca-1ef9-4f8d-a521-08db50ce2eef" d="M32.13,24l-3-.64a.57.57,0,0,0-.26,0l-3,.64a.62.62,0,0,0-.49.61v3.46a3.62,3.62,0,0,0,7.24,0V24.59A.62.62,0,0,0,32.13,24Z"/>
    </g>
    <path class="ed0e17ca-1ef9-4f8d-a521-08db50ce2eef" d="M26,7.38a.63.63,0,0,0-.62.63.63.63,0,0,0,1.25,0A.63.63,0,0,0,26,7.38Z"/>
    <path class="ed0e17ca-1ef9-4f8d-a521-08db50ce2eef" d="M28,7.38a.63.63,0,0,0-.62.63.63.63,0,0,0,1.25,0A.63.63,0,0,0,28,7.38Z"/>
  </g>
</svg>
