<svg id="aefc034e-bdbe-4f45-bdcf-342b8e8a10b8" data-name="Icon" xmlns="http://www.w3.org/2000/svg" viewBox="0 0 36 36">
  <title>Bug icon - White</title>
<desc>error, fault, alert, mistake, code, developer, development, flaw, insect, software and technologies</desc>
<metadata><?xpacket begin="﻿" id="W5M0MpCehiHzreSzNTczkc9d"?>
<x:xmpmeta xmlns:x="adobe:ns:meta/" x:xmptk="Adobe XMP Core 8.0-c001 1.000000, 0000/00/00-00:00:00        ">
   <rdf:RDF xmlns:rdf="http://www.w3.org/1999/02/22-rdf-syntax-ns#">
      <rdf:Description rdf:about=""
            xmlns:xmp="http://ns.adobe.com/xap/1.0/"
            xmlns:dc="http://purl.org/dc/elements/1.1/"
            xmlns:cq="http://www.day.com/jcr/cq/1.0"
            xmlns:tiff="http://ns.adobe.com/tiff/1.0/">
         <xmp:rhcc-effective-on>2023-12-08T17:42:11.240Z</xmp:rhcc-effective-on>
         <xmp:rhcc-metadata-complete-moderator>pending</xmp:rhcc-metadata-complete-moderator>
         <xmp:rhcc-translation-id>TRAa9d4a0e8-c1c6-4a5b-9977-74dc1c185559</xmp:rhcc-translation-id>
         <xmp:brand-content-type>Icon</xmp:brand-content-type>
         <xmp:CreateDate>2023-12-08T17:42:11.240Z</xmp:CreateDate>
         <xmp:rhcc-aspect-ratio>square</xmp:rhcc-aspect-ratio>
         <xmp:rhcc-effective-on-set-on-upload>true</xmp:rhcc-effective-on-set-on-upload>
         <xmp:rhcc-metadata-complete-uploader>pending</xmp:rhcc-metadata-complete-uploader>
         <xmp:rhcc-file-last-modified>2024-07-12T19:39:40.400Z</xmp:rhcc-file-last-modified>
         <xmp:rhcc-audience>rhcc-audience:internal</xmp:rhcc-audience>
         <xmp:brand-content-subtype>Icon</xmp:brand-content-subtype>
         <xmp:rhcc-rights-restricted>no</xmp:rhcc-rights-restricted>
         <xmp:rhcc-derivative-id>DERa9d4a0e8-c1c6-4a5b-9977-74dc1c185559</xmp:rhcc-derivative-id>
         <xmp:rhcc-uploaded-by>pmeilleu@redhat.com</xmp:rhcc-uploaded-by>
         <xmp:brand-logo-color>White</xmp:brand-logo-color>
         <xmp:rhcc-notify-portal-subscribers-on-change>yes</xmp:rhcc-notify-portal-subscribers-on-change>
         <dc:format>image/svg+xml</dc:format>
         <dc:modified>2024-02-09T20:15:07.847Z</dc:modified>
         <dc:title>
            <rdf:Alt>
               <rdf:li xml:lang="x-default">Bug icon - White</rdf:li>
            </rdf:Alt>
         </dc:title>
         <dc:description>
            <rdf:Alt>
               <rdf:li xml:lang="x-default">error, fault, alert, mistake, code, developer, development, flaw, insect, software and technologies</rdf:li>
            </rdf:Alt>
         </dc:description>
         <cq:lastReplicationAction_scene7>Activate</cq:lastReplicationAction_scene7>
         <cq:lastReplicationAction_publish>Activate</cq:lastReplicationAction_publish>
         <cq:lastReplicated_publish>2024-10-02T19:29:06.264Z</cq:lastReplicated_publish>
         <cq:lastReplicatedBy>workflow-process-service</cq:lastReplicatedBy>
         <cq:lastReplicationAction>Activate</cq:lastReplicationAction>
         <cq:lastReplicatedBy_publish>workflow-process-service</cq:lastReplicatedBy_publish>
         <cq:isDelivered>false</cq:isDelivered>
         <cq:lastReplicated>2024-10-02T19:29:06.264Z</cq:lastReplicated>
         <cq:lastReplicatedBy_scene7>workflow-process-service</cq:lastReplicatedBy_scene7>
         <cq:lastReplicated_scene7>2024-10-02T19:29:06.264Z</cq:lastReplicated_scene7>
         <tiff:ImageLength>36</tiff:ImageLength>
         <tiff:ImageWidth>36</tiff:ImageWidth>
      </rdf:Description>
   </rdf:RDF>
</x:xmpmeta>
                                                                                                    
                                                                                                    
                                                                                                    
                                                                                                    
                                                                                                    
                                                                                                    
                                                                                                    
                                                                                                    
                                                                                                 
<?xpacket end="w"?></metadata>
<defs>
    <style>
      .b9083965-cf2c-4cc4-9906-bad10f176b60 {
        fill: #fff;
      }
    </style>
  </defs>
  <path class="b9083965-cf2c-4cc4-9906-bad10f176b60" d="M32.18,20.65H27.32a9.33,9.33,0,0,0-.75-3.12h2.34a.6.6,0,0,0,.44-.18l2.18-2.18a.62.62,0,0,0-.88-.88l-2,2H25.9a9.41,9.41,0,0,0-5.43-4,3.9,3.9,0,1,0-4.94,0,9.41,9.41,0,0,0-5.43,4H7.35l-2-2a.62.62,0,0,0-.88.88l2.18,2.18a.6.6,0,0,0,.44.18H9.43a9.33,9.33,0,0,0-.75,3.12H3.82a.63.63,0,1,0,0,1.25H8.68A9.21,9.21,0,0,0,9.43,25H7.09a.65.65,0,0,0-.44.18L4.47,27.38a.61.61,0,0,0,0,.88.63.63,0,0,0,.88,0l2-2H10.1a9.34,9.34,0,0,0,15.8,0h2.75l2,2a.63.63,0,0,0,.88,0,.61.61,0,0,0,0-.88l-2.18-2.19a.65.65,0,0,0-.44-.18H26.57a9.21,9.21,0,0,0,.75-3.11h4.86a.63.63,0,1,0,0-1.25ZM15.35,9.27A2.65,2.65,0,1,1,18,11.92,2.65,2.65,0,0,1,15.35,9.27ZM18,29.38a8.11,8.11,0,1,1,8.1-8.11A8.11,8.11,0,0,1,18,29.38Z"/>
</svg>
