<svg id="b3b0505e-17ac-47bf-82d3-0edb8abe64eb" data-name="Icon" xmlns="http://www.w3.org/2000/svg" viewBox="0 0 36 36">
  <title>Traffic light icon - White</title>
<desc>stop, go, slow, yellow, red, green, traffic, drive, road, highway, car, transportation</desc>
<metadata><?xpacket begin="﻿" id="W5M0MpCehiHzreSzNTczkc9d"?>
<x:xmpmeta xmlns:x="adobe:ns:meta/" x:xmptk="Adobe XMP Core 8.0-c001 1.000000, 0000/00/00-00:00:00        ">
   <rdf:RDF xmlns:rdf="http://www.w3.org/1999/02/22-rdf-syntax-ns#">
      <rdf:Description rdf:about=""
            xmlns:xmp="http://ns.adobe.com/xap/1.0/"
            xmlns:dc="http://purl.org/dc/elements/1.1/"
            xmlns:cq="http://www.day.com/jcr/cq/1.0"
            xmlns:tiff="http://ns.adobe.com/tiff/1.0/">
         <xmp:rhcc-effective-on>2023-12-08T17:46:28.143Z</xmp:rhcc-effective-on>
         <xmp:rhcc-metadata-complete-moderator>pending</xmp:rhcc-metadata-complete-moderator>
         <xmp:rhcc-translation-id>TRAd3db71cf-db83-4ff3-8003-cdf54cb7392e</xmp:rhcc-translation-id>
         <xmp:brand-content-type>Icon</xmp:brand-content-type>
         <xmp:CreateDate>2023-12-08T17:46:28.143Z</xmp:CreateDate>
         <xmp:rhcc-aspect-ratio>square</xmp:rhcc-aspect-ratio>
         <xmp:rhcc-effective-on-set-on-upload>true</xmp:rhcc-effective-on-set-on-upload>
         <xmp:rhcc-published-asset-email-sent>true</xmp:rhcc-published-asset-email-sent>
         <xmp:rhcc-metadata-complete-uploader>pending</xmp:rhcc-metadata-complete-uploader>
         <xmp:rhcc-file-last-modified>2024-07-12T21:20:49.363Z</xmp:rhcc-file-last-modified>
         <xmp:rhcc-audience>rhcc-audience:internal</xmp:rhcc-audience>
         <xmp:brand-content-subtype>Icon</xmp:brand-content-subtype>
         <xmp:rhcc-rights-restricted>no</xmp:rhcc-rights-restricted>
         <xmp:rhcc-derivative-id>DERd3db71cf-db83-4ff3-8003-cdf54cb7392e</xmp:rhcc-derivative-id>
         <xmp:rhcc-uploaded-by>pmeilleu@redhat.com</xmp:rhcc-uploaded-by>
         <xmp:brand-logo-color>White</xmp:brand-logo-color>
         <xmp:rhcc-notify-portal-subscribers-on-change>yes</xmp:rhcc-notify-portal-subscribers-on-change>
         <dc:format>image/svg+xml</dc:format>
         <dc:modified>2024-02-09T20:25:45.851Z</dc:modified>
         <dc:title>
            <rdf:Alt>
               <rdf:li xml:lang="x-default">Traffic light icon - White</rdf:li>
            </rdf:Alt>
         </dc:title>
         <dc:description>
            <rdf:Alt>
               <rdf:li xml:lang="x-default">stop, go, slow, yellow, red, green, traffic, drive, road, highway, car, transportation</rdf:li>
            </rdf:Alt>
         </dc:description>
         <cq:lastReplicationAction_scene7>Activate</cq:lastReplicationAction_scene7>
         <cq:lastReplicationAction_publish>Activate</cq:lastReplicationAction_publish>
         <cq:lastReplicated_publish>2024-10-02T19:46:35.289Z</cq:lastReplicated_publish>
         <cq:lastReplicatedBy>workflow-process-service</cq:lastReplicatedBy>
         <cq:lastReplicationAction>Activate</cq:lastReplicationAction>
         <cq:lastReplicatedBy_publish>workflow-process-service</cq:lastReplicatedBy_publish>
         <cq:isDelivered>false</cq:isDelivered>
         <cq:lastReplicated>2024-10-02T19:46:35.289Z</cq:lastReplicated>
         <cq:lastReplicatedBy_scene7>workflow-process-service</cq:lastReplicatedBy_scene7>
         <cq:lastReplicated_scene7>2024-10-02T19:46:35.289Z</cq:lastReplicated_scene7>
         <tiff:ImageLength>36</tiff:ImageLength>
         <tiff:ImageWidth>36</tiff:ImageWidth>
      </rdf:Description>
   </rdf:RDF>
</x:xmpmeta>
                                                                                                    
                                                                                                    
                                                                                                    
                                                                                                    
                                                                                                    
                                                                                                    
                                                                                                    
                                                                                                    
        
<?xpacket end="w"?></metadata>
<defs>
    <style>
      .a343665c-8b9a-488a-812e-c96afa2df2fe {
        fill: #fff;
      }
    </style>
  </defs>
  <g>
    <path class="a343665c-8b9a-488a-812e-c96afa2df2fe" d="M27.62,16a.62.62,0,0,0-.62-.62H23.62V13.56a4.61,4.61,0,0,0,4-4.56A.62.62,0,0,0,27,8.38H23.62V5A.62.62,0,0,0,23,4.38H13a.62.62,0,0,0-.62.62V8.38H9A.62.62,0,0,0,8.38,9a4.61,4.61,0,0,0,4,4.56v1.82H9a.62.62,0,0,0-.62.62,4.61,4.61,0,0,0,4,4.56v1.82H9a.62.62,0,0,0-.62.62,4.61,4.61,0,0,0,4,4.56V31a.62.62,0,0,0,.62.62H23a.62.62,0,0,0,.62-.62V27.56a4.61,4.61,0,0,0,4-4.56.62.62,0,0,0-.62-.62H23.62V20.56A4.61,4.61,0,0,0,27.62,16Zm-1.3.62a3.39,3.39,0,0,1-2.7,2.7v-2.7Zm0-7a3.39,3.39,0,0,1-2.7,2.7V9.62Zm-16.64,0h2.7v2.7A3.39,3.39,0,0,1,9.68,9.62Zm0,7h2.7v2.7A3.39,3.39,0,0,1,9.68,16.62Zm0,7h2.7v2.7A3.39,3.39,0,0,1,9.68,23.62Zm12.7,6.76H13.62V5.62h8.76Zm3.94-6.76a3.39,3.39,0,0,1-2.7,2.7v-2.7Z"/>
    <path class="a343665c-8b9a-488a-812e-c96afa2df2fe" d="M18,22.38a2.62,2.62,0,0,0,0,5.24A2.62,2.62,0,0,0,18,22.38Zm0,4a1.38,1.38,0,0,1,0-2.75A1.38,1.38,0,0,1,18,26.38Z"/>
    <path class="a343665c-8b9a-488a-812e-c96afa2df2fe" d="M18,15.38a2.62,2.62,0,0,0,0,5.24A2.62,2.62,0,0,0,18,15.38Zm0,4a1.38,1.38,0,0,1,0-2.75A1.38,1.38,0,0,1,18,19.38Z"/>
    <path class="a343665c-8b9a-488a-812e-c96afa2df2fe" d="M18,8.38a2.62,2.62,0,0,0,0,5.24A2.62,2.62,0,0,0,18,8.38Zm0,4a1.38,1.38,0,0,1,0-2.75A1.38,1.38,0,0,1,18,12.38Z"/>
  </g>
</svg>
