<?xml version="1.0" encoding="UTF-8"?><svg id="uuid-f24b7a79-17ce-45fa-9f89-625bd28d50db" xmlns="http://www.w3.org/2000/svg" viewBox="0 0 36 36"><title>Pen Tool icon - Red</title>
<desc>illustration, adobe, design, edit, vector, drawing, lines, calligraphy, write, ink, script, quill, media and documents</desc>
<metadata><?xpacket begin="﻿" id="W5M0MpCehiHzreSzNTczkc9d"?>
<x:xmpmeta xmlns:x="adobe:ns:meta/" x:xmptk="Adobe XMP Core 8.0-c001 1.000000, 0000/00/00-00:00:00        ">
   <rdf:RDF xmlns:rdf="http://www.w3.org/1999/02/22-rdf-syntax-ns#">
      <rdf:Description rdf:about=""
            xmlns:xmp="http://ns.adobe.com/xap/1.0/"
            xmlns:dc="http://purl.org/dc/elements/1.1/"
            xmlns:cq="http://www.day.com/jcr/cq/1.0"
            xmlns:tiff="http://ns.adobe.com/tiff/1.0/">
         <xmp:rhcc-effective-on>2023-12-08T17:37:21.432Z</xmp:rhcc-effective-on>
         <xmp:rhcc-metadata-complete-moderator>pending</xmp:rhcc-metadata-complete-moderator>
         <xmp:rhcc-translation-id>TRA41365a67-2c1d-46af-b7c7-3a06108674fe</xmp:rhcc-translation-id>
         <xmp:brand-content-type>Icon</xmp:brand-content-type>
         <xmp:CreateDate>2023-12-08T17:37:21.432Z</xmp:CreateDate>
         <xmp:rhcc-aspect-ratio>square</xmp:rhcc-aspect-ratio>
         <xmp:rhcc-effective-on-set-on-upload>true</xmp:rhcc-effective-on-set-on-upload>
         <xmp:rhcc-published-asset-email-sent>true</xmp:rhcc-published-asset-email-sent>
         <xmp:rhcc-metadata-complete-uploader>pending</xmp:rhcc-metadata-complete-uploader>
         <xmp:rhcc-file-last-modified>2024-07-12T20:35:34.366Z</xmp:rhcc-file-last-modified>
         <xmp:rhcc-audience>rhcc-audience:internal</xmp:rhcc-audience>
         <xmp:brand-content-subtype>Icon</xmp:brand-content-subtype>
         <xmp:rhcc-rights-restricted>no</xmp:rhcc-rights-restricted>
         <xmp:rhcc-derivative-id>DER41365a67-2c1d-46af-b7c7-3a06108674fe</xmp:rhcc-derivative-id>
         <xmp:rhcc-uploaded-by>pmeilleu@redhat.com</xmp:rhcc-uploaded-by>
         <xmp:brand-logo-color>Red</xmp:brand-logo-color>
         <xmp:rhcc-notify-portal-subscribers-on-change>yes</xmp:rhcc-notify-portal-subscribers-on-change>
         <dc:format>image/svg+xml</dc:format>
         <dc:modified>2024-02-09T20:21:05.956Z</dc:modified>
         <dc:title>
            <rdf:Alt>
               <rdf:li xml:lang="x-default">Pen Tool icon - Red</rdf:li>
            </rdf:Alt>
         </dc:title>
         <dc:description>
            <rdf:Alt>
               <rdf:li xml:lang="x-default">illustration, adobe, design, edit, vector, drawing, lines, calligraphy, write, ink, script, quill, media and documents</rdf:li>
            </rdf:Alt>
         </dc:description>
         <cq:lastReplicationAction_scene7>Activate</cq:lastReplicationAction_scene7>
         <cq:lastReplicationAction_publish>Activate</cq:lastReplicationAction_publish>
         <cq:lastReplicated_publish>2024-10-02T19:41:17.097Z</cq:lastReplicated_publish>
         <cq:lastReplicatedBy>workflow-process-service</cq:lastReplicatedBy>
         <cq:lastReplicationAction>Activate</cq:lastReplicationAction>
         <cq:lastReplicatedBy_publish>workflow-process-service</cq:lastReplicatedBy_publish>
         <cq:isDelivered>false</cq:isDelivered>
         <cq:lastReplicated>2024-10-02T19:41:17.097Z</cq:lastReplicated>
         <cq:lastReplicatedBy_scene7>workflow-process-service</cq:lastReplicatedBy_scene7>
         <cq:lastReplicated_scene7>2024-10-02T19:41:17.097Z</cq:lastReplicated_scene7>
         <tiff:ImageLength>36</tiff:ImageLength>
         <tiff:ImageWidth>36</tiff:ImageWidth>
      </rdf:Description>
   </rdf:RDF>
</x:xmpmeta>
                                                                                                    
                                                                                                    
                                                                                                    
                                                                                                    
                                                                                                    
                                                                                                    
                                                                                                    
                                                                                                    
        
<?xpacket end="w"?></metadata>
<defs><style>.uuid-7f7df43e-596e-4e81-8a1d-8aad3986291b{fill:#e00;}</style></defs><path class="uuid-7f7df43e-596e-4e81-8a1d-8aad3986291b" d="M27.24,13.7s0-.08,0-.13c0-.04-.01-.08-.02-.11-.01-.04-.03-.07-.04-.11-.02-.04-.04-.07-.07-.11-.01-.02-.02-.04-.03-.05L18.44,4.56s-.01,0-.02-.01c-.05-.05-.11-.09-.18-.12,0,0,0,0,0,0-.1-.04-.21-.05-.32-.03-.03,0-.05,0-.08,.01-.1,.03-.2,.07-.28,.15L8.93,13.19s-.02,.04-.03,.05c-.03,.03-.05,.07-.07,.11-.02,.04-.03,.07-.04,.11-.01,.04-.02,.08-.02,.11,0,.04,0,.08,0,.13,0,.02,0,.04,0,.06l2.62,12.31v4.93c0,.35,.28,.62,.62,.62h12c.35,0,.62-.28,.62-.62v-4.93l2.62-12.31s0-.04,0-.06Zm-9.24,.93c1.81,.03,1.81,2.72,0,2.75-1.81-.03-1.81-2.72,0-2.75Zm-.62-1.17c-2.97,.76-2.46,5.12,.63,5.17,3.09-.04,3.59-4.41,.62-5.17V6.51l7.32,7.32-2.45,11.54H12.51l-2.45-11.54,7.32-7.32v6.95Zm6,16.92H12.62v-3.75h10.75v3.75Z"/></svg>