<?xml version="1.0" encoding="UTF-8"?><svg id="uuid-b2fc7668-7fdf-4c0b-991a-04675b104138" xmlns="http://www.w3.org/2000/svg" width="36" height="36" viewBox="0 0 36 36"><title>AI inference icon</title>
<desc>prediction, output, result, conclusion, processing, thinking, computation, execution, deployment, runtime, model, algorithm, decision, reasoning, intelligence, query, response, real-time, serving, mlops</desc>
<metadata><?xpacket begin="﻿" id="W5M0MpCehiHzreSzNTczkc9d"?>
<x:xmpmeta xmlns:x="adobe:ns:meta/" x:xmptk="Adobe XMP Core 8.0-c001 1.000000, 0000/00/00-00:00:00        ">
   <rdf:RDF xmlns:rdf="http://www.w3.org/1999/02/22-rdf-syntax-ns#">
      <rdf:Description rdf:about=""
            xmlns:dc="http://purl.org/dc/elements/1.1/"
            xmlns:xmp="http://ns.adobe.com/xap/1.0/"
            xmlns:tiff="http://ns.adobe.com/tiff/1.0/">
         <dc:format>image/svg+xml</dc:format>
         <dc:modified>2025-10-21T17:00:13.466Z</dc:modified>
         <dc:description>
            <rdf:Alt>
               <rdf:li xml:lang="x-default">prediction, output, result, conclusion, processing, thinking, computation, execution, deployment, runtime, model, algorithm, decision, reasoning, intelligence, query, response, real-time, serving, mlops</rdf:li>
            </rdf:Alt>
         </dc:description>
         <dc:title>
            <rdf:Alt>
               <rdf:li xml:lang="x-default">AI inference icon</rdf:li>
            </rdf:Alt>
         </dc:title>
         <xmp:brand-content-type>Icon</xmp:brand-content-type>
         <xmp:rhcc-file-last-modified>2025-10-21T16:58:29.060Z</xmp:rhcc-file-last-modified>
         <xmp:rhcc-rights-restricted>no</xmp:rhcc-rights-restricted>
         <xmp:brand-content-subtype>Icon</xmp:brand-content-subtype>
         <xmp:brand-colorway>
            <rdf:Bag>
               <rdf:li>colorway:black</rdf:li>
            </rdf:Bag>
         </xmp:brand-colorway>
         <xmp:rhcc-topics>
            <rdf:Bag>
               <rdf:li>rhcc-topics:ai-inference</rdf:li>
            </rdf:Bag>
         </xmp:rhcc-topics>
         <tiff:ImageWidth>36</tiff:ImageWidth>
         <tiff:ImageLength>36</tiff:ImageLength>
      </rdf:Description>
   </rdf:RDF>
</x:xmpmeta>
                                                                                                    
                                                                                                    
                                                                                                    
                                                                                                    
                                                                                                    
                                                                                                    
                                                                                                    
                                                                                                    
                                                                                                    
                                                                                                    
                                                                                                    
                                                                                                    
                                                                                                    
                                                                                                    
                                                                                                    
                                                                                                    
                                                                                                    
                          
<?xpacket end="w"?></metadata>
<path d="M31,8.37472h-4c-.34521,0-.625.28027-.625.625v3.74072l-1.31689,1.31689c-.24414.24414-.24414.64062,0,.88477.12207.12207.28174.18262.44189.18262s.31982-.06055.44189-.18262l1.31738-1.31738h3.74072c.34521,0,.625-.28027.625-.625v-4c0-.34473-.27979-.625-.625-.625ZM30.375,12.37472h-2.75v-2.75h2.75v2.75Z"/><path d="M31,22.37472h-1.375v-6.375c0-.34473-.27979-.625-.625-.625s-.625.28027-.625.625v6.375h-1.11572l-1.31738-1.31738c-.24414-.24414-.63965-.24414-.88379,0s-.24414.64062,0,.88477l1.31689,1.31689v1.88568l-5.75,3.31995v-.4649c0-.34473-.27979-.625-.625-.625h-1.375v-2.375c0-.34473-.27979-.625-.625-.625s-.625.28027-.625.625v2.375h-1.375c-.34521,0-.625.28027-.625.625v.46515l-3.0625-1.76788c-.29883-.17188-.68115-.06934-.854.22852-.17236.29883-.06982.68164.229.85352l3.6875,2.12878v2.09192c0,.34473.27979.625.625.625h4c.34521,0,.625-.28027.625-.625v-2.09192l5.75-3.31958v.4115c0,.34473.27979.625.625.625h4c.34521,0,.625-.28027.625-.625v-4c0-.34473-.27979-.625-.625-.625ZM19.375,31.37472h-2.75v-2.75h2.75v2.75ZM30.375,26.37472h-2.75v-2.75h2.75v2.75Z"/><path d="M18,13.37472h-4c-.34521,0-.625.28027-.625.625v8c0,.34473.27979.625.625.625h8c.34521,0,.625-.28027.625-.625v-8c0-.34473-.27979-.625-.625-.625h-4ZM21.375,17.37472h-2.75v-2.75h2.75v2.75ZM14.625,14.62472h2.75v2.75h-2.75v-2.75ZM14.625,18.62472h2.75v2.75h-2.75v-2.75ZM21.375,21.37472h-2.75v-2.75h2.75v2.75Z"/><path d="M10.05811,21.05734l-1.31738,1.31738h-3.74072c-.34521,0-.625.28027-.625.625v4c0,.34473.27979.625.625.625h4c.34521,0,.625-.28027.625-.625v-3.74072l1.31689-1.31689c.24414-.24414.24414-.64062,0-.88477s-.63965-.24414-.88379,0ZM8.375,26.37472h-2.75v-2.75h2.75v2.75Z"/><path d="M9.625,12.74044v-1.8847l5.75-3.31995v.46393c0,.34473.27979.625.625.625h1.375v2.375c0,.34473.27979.625.625.625s.625-.28027.625-.625v-2.375h1.375c.34521,0,.625-.28027.625-.625v-.46417l3.0625,1.76788c.2998.17285.68115.07031.854-.22852.17236-.29883.06982-.68164-.229-.85352l-3.6875-2.12885v-2.09283c0-.34473-.27979-.625-.625-.625h-4c-.34521,0-.625.28027-.625.625v2.0929l-5.75,3.31958v-.41248c0-.34473-.27979-.625-.625-.625h-4c-.34521,0-.625.28027-.625.625v4c0,.34473.27979.625.625.625h1.375v6.375c0,.34473.27979.625.625.625s.625-.28027.625-.625v-6.375h1.11572l1.31738,1.31738c.12207.12207.28174.18262.44189.18262s.31982-.06055.44189-.18262c.24414-.24414.24414-.64062,0-.88477l-1.31689-1.31689ZM16.625,4.62472h2.75v2.75h-2.75v-2.75ZM5.625,9.62472h2.75v2.75h-2.75v-2.75Z"/></svg>