<?xml version="1.0" encoding="UTF-8"?><svg id="uuid-d1fb956b-2c18-4d10-960d-2d6d81cc52f0" xmlns="http://www.w3.org/2000/svg" viewBox="0 0 38 38"><title>Ansible policy rules icon</title>
<desc>Management</desc>
<metadata><?xpacket begin="﻿" id="W5M0MpCehiHzreSzNTczkc9d"?>
<x:xmpmeta xmlns:x="adobe:ns:meta/" x:xmptk="Adobe XMP Core 8.0-c001 1.000000, 0000/00/00-00:00:00        ">
   <rdf:RDF xmlns:rdf="http://www.w3.org/1999/02/22-rdf-syntax-ns#">
      <rdf:Description rdf:about=""
            xmlns:xmp="http://ns.adobe.com/xap/1.0/"
            xmlns:tiff="http://ns.adobe.com/tiff/1.0/"
            xmlns:dc="http://purl.org/dc/elements/1.1/"
            xmlns:xmpRights="http://ns.adobe.com/xap/1.0/rights/">
         <xmp:rhcc-effective-on>2024-04-09T17:54:45.061Z</xmp:rhcc-effective-on>
         <xmp:rhcc-rights-restricted>no</xmp:rhcc-rights-restricted>
         <xmp:brand-content-subtype>Technology icon</xmp:brand-content-subtype>
         <xmp:rhcc-metadata-complete-moderator>pending</xmp:rhcc-metadata-complete-moderator>
         <xmp:rhcc-translation-id>TRA56d7d219-e895-451a-b67b-ad2c502033ed</xmp:rhcc-translation-id>
         <xmp:brand-content-type>Icon</xmp:brand-content-type>
         <xmp:CreateDate>2024-04-09T17:54:45.061Z</xmp:CreateDate>
         <xmp:rhcc-aspect-ratio>square</xmp:rhcc-aspect-ratio>
         <xmp:rhcc-derivative-id>DER56d7d219-e895-451a-b67b-ad2c502033ed</xmp:rhcc-derivative-id>
         <xmp:rhcc-effective-on-set-on-upload>true</xmp:rhcc-effective-on-set-on-upload>
         <xmp:rhcc-uploaded-by>ryawilli@redhat.com</xmp:rhcc-uploaded-by>
         <xmp:brand-logo-color>Black</xmp:brand-logo-color>
         <xmp:rhcc-metadata-complete-uploader>pending</xmp:rhcc-metadata-complete-uploader>
         <xmp:rhcc-file-last-modified>2024-07-12T23:50:31.664Z</xmp:rhcc-file-last-modified>
         <xmp:rhcc-audience>rhcc-audience:internal</xmp:rhcc-audience>
         <xmp:rhcc-notify-portal-subscribers-on-change>yes</xmp:rhcc-notify-portal-subscribers-on-change>
         <xmp:rhcc-product>
            <rdf:Bag>
               <rdf:li>rhcc-product:red-hat-ansible-automation-platform</rdf:li>
            </rdf:Bag>
         </xmp:rhcc-product>
         <tiff:ImageLength>38</tiff:ImageLength>
         <tiff:ImageWidth>38</tiff:ImageWidth>
         <dc:format>image/svg+xml</dc:format>
         <dc:modified>2024-04-09T17:57:12.610Z</dc:modified>
         <dc:description>
            <rdf:Alt>
               <rdf:li xml:lang="x-default">Management</rdf:li>
            </rdf:Alt>
         </dc:description>
         <dc:title>
            <rdf:Alt>
               <rdf:li xml:lang="x-default">Ansible policy rules icon</rdf:li>
            </rdf:Alt>
         </dc:title>
         <xmpRights:UsageTerms>
            <rdf:Alt>
               <rdf:li xml:lang="x-default">Use technology icons to represent Red Hat products and components. Do not remove the icon from the bounding shape.</rdf:li>
            </rdf:Alt>
         </xmpRights:UsageTerms>
      </rdf:Description>
   </rdf:RDF>
</x:xmpmeta>
                                                                                                    
                                                                                                    
                                                                                                    
                                                                                                    
                                                                                                    
                                                                                                    
                                                                                                    
                                                                                                    
                                                                                                    
                                                                                                    
                                                                                                    
<?xpacket end="w"?></metadata>
<defs><style>.uuid-cb79835e-a159-4320-be98-d620aef1cec4{fill:#000;stroke-width:0px;}</style></defs><path class="uuid-cb79835e-a159-4320-be98-d620aef1cec4" d="M28,1H10C5.0294,1,1,5.0294,1,10v18c0,4.9706,4.0294,9,9,9h18c4.9706,0,9-4.0294,9-9V10c0-4.9706-4.0294-9-9-9ZM35.75,28c0,4.2734-3.4766,7.75-7.75,7.75H10c-4.2734,0-7.75-3.4766-7.75-7.75V10c0-4.2734,3.4766-7.75,7.75-7.75h18c4.2734,0,7.75,3.4766,7.75,7.75v18Z"/><path class="uuid-cb79835e-a159-4320-be98-d620aef1cec4" d="M24,20.375h-4c-.3447,0-.625.2798-.625.625s.2803.625.625.625h4c.3447,0,.625-.2798.625-.625s-.2803-.625-.625-.625Z"/><path class="uuid-cb79835e-a159-4320-be98-d620aef1cec4" d="M11,21.625c.3452,0,.625-.2798.625-.625v-7.375h3.375c.3452,0,.625-.2798.625-.625v-3.375h10.75v11.375c0,.3452.2803.625.625.625s.625-.2798.625-.625v-12c0-.3452-.2803-.625-.625-.625h-12c-.0834,0-.165.017-.2405.0486-.0759.0317-.1444.0775-.2017.1348l-3.9994,3.9994c-.0573.0573-.1031.1257-.1348.2017-.0316.0756-.0486.1572-.0486.2405v8c0,.3452.2798.625.625.625ZM14.375,10.5088v1.8662h-1.8662l1.8662-1.8662Z"/><path class="uuid-cb79835e-a159-4320-be98-d620aef1cec4" d="M10.5898,28.5601c-.0601.0596-.1099.1196-.1401.1997-.0298.0801-.0498.1602-.0498.2402,0,.1699.0698.3296.1899.4399.1099.1201.27.1899.4399.1899.1602,0,.3198-.0698.4399-.1899.1201-.1104.1802-.27.1802-.4399,0-.1602-.0601-.3301-.1802-.4399-.23-.2402-.6499-.2305-.8799,0Z"/><path class="uuid-cb79835e-a159-4320-be98-d620aef1cec4" d="M16.3496,28.3799c-.3398,0-.6196.27-.6196.6201,0,.3496.2798.6299.6196.6299.3501,0,.6304-.2803.6304-.6299,0-.3501-.2803-.6201-.6304-.6201Z"/><path class="uuid-cb79835e-a159-4320-be98-d620aef1cec4" d="M19.0195,28.3799c-.3496,0-.6299.27-.6299.6201,0,.3496.2803.6299.6299.6299.3398,0,.6201-.2803.6201-.6299,0-.3501-.2803-.6201-.6201-.6201Z"/><path class="uuid-cb79835e-a159-4320-be98-d620aef1cec4" d="M24.3398,28.3799c-.3496,0-.6299.27-.6299.6201,0,.3496.2803.6299.6299.6299.3398,0,.6201-.2803.6201-.6299,0-.3501-.2803-.6201-.6201-.6201Z"/><path class="uuid-cb79835e-a159-4320-be98-d620aef1cec4" d="M21.6797,28.3799c-.3496,0-.6299.27-.6299.6201,0,.3496.2803.6299.6299.6299.3398,0,.6201-.2803.6201-.6299,0-.3501-.2803-.6201-.6201-.6201Z"/><path class="uuid-cb79835e-a159-4320-be98-d620aef1cec4" d="M13.6899,28.3799c-.3403,0-.6201.27-.6201.6201,0,.3496.2798.6299.6201.6299.3501,0,.6299-.2803.6299-.6299,0-.3501-.2798-.6201-.6299-.6201Z"/><path class="uuid-cb79835e-a159-4320-be98-d620aef1cec4" d="M26.7598,28.4199c-.0703.0298-.1396.0801-.2002.1401-.0596.0596-.1094.1299-.1396.1997-.0303.0801-.04.1602-.04.2402,0,.1699.0596.3296.1797.4399.0498.0601.1299.1099.2002.1396.0801.0303.1602.0503.2402.0503s.1602-.02.2402-.0503c.0791-.0298.1396-.0796.1992-.1396.1201-.1104.1904-.2803.1904-.4399,0-.1602-.0703-.3203-.1904-.4399-.1699-.1802-.4492-.2305-.6797-.1401Z"/><path class="uuid-cb79835e-a159-4320-be98-d620aef1cec4" d="M24,15.375h-4c-.3447,0-.625.2798-.625.625s.2803.625.625.625h4c.3447,0,.625-.2798.625-.625s-.2803-.625-.625-.625Z"/><path class="uuid-cb79835e-a159-4320-be98-d620aef1cec4" d="M16.5581,19.5581l-1.5581,1.5581-.5581-.5581c-.2441-.2441-.6396-.2441-.8838,0s-.2441.6396,0,.8838l1,1c.1221.1221.2817.1831.4419.1831s.3198-.061.4419-.1831l2-2c.2441-.2441.2441-.6396,0-.8838s-.6396-.2441-.8838,0Z"/><path class="uuid-cb79835e-a159-4320-be98-d620aef1cec4" d="M17.4419,14.5581c-.2441-.2441-.6396-.2441-.8838,0l-1.5581,1.5581-.5581-.5581c-.2441-.2441-.6396-.2441-.8838,0s-.2441.6396,0,.8838l1,1c.1221.1221.2817.1831.4419.1831s.3198-.061.4419-.1831l2-2c.2441-.2441.2441-.6396,0-.8838Z"/><path class="uuid-cb79835e-a159-4320-be98-d620aef1cec4" d="M27.5,22.875c-.9529,0-1.7516.6344-2.0204,1.5h-12.9592c-.2688-.8656-1.0675-1.5-2.0204-1.5-1.1719,0-2.125.9531-2.125,2.125s.9531,2.125,2.125,2.125c.9529,0,1.7516-.6344,2.0204-1.5h12.9592c.2688.8656,1.0675,1.5,2.0204,1.5,1.1719,0,2.125-.9531,2.125-2.125s-.9531-2.125-2.125-2.125ZM10.5,25.875c-.4824,0-.875-.3926-.875-.875s.3926-.875.875-.875.875.3926.875.875-.3926.875-.875.875ZM27.5,25.875c-.4824,0-.875-.3926-.875-.875s.3926-.875.875-.875.875.3926.875.875-.3926.875-.875.875Z"/></svg>