<?xml version="1.0" encoding="UTF-8"?>
<svg id="icon68" data-name="icon" xmlns="http://www.w3.org/2000/svg" width="32" height="32" version="1.1" viewBox="0 0 32 32">
  <!-- Generator: Adobe Illustrator 29.8.2, SVG Export Plug-In . SVG Version: 2.1.1 Build 3)  -->
  <defs>
    <style>
      .st0 {
        fill: none;
      }

      .st1 {
        fill: #151515;
      }
    </style>
  </defs>
  <path class="st1" d="M17,8v7.586l3.707,3.707c.391.391.391,1.023,0,1.414-.195.195-.451.293-.707.293s-.512-.098-.707-.293l-4-4c-.188-.188-.293-.442-.293-.707v-8c0-.552.448-1,1-1s1,.448,1,1ZM16,1c-5.451,0-10.351,2.892-13,7.515V3c0-.552-.448-1-1-1s-1,.448-1,1v7.5c0,.827.673,1.5,1.5,1.5h7.5c.552,0,1-.448,1-1s-.448-1-1-1h-5.524c.061-.116.118-.234.182-.348.019-.034.036-.07.056-.104,2.29-3.983,6.608-6.548,11.286-6.548,6.831,0,12.436,5.299,12.949,12h-2.949c-.552,0-1,.448-1,1s.448,1,1,1h2.949c-.488,6.37-5.579,11.461-11.949,11.949v-2.949c0-.552-.448-1-1-1s-1,.448-1,1v2.939c-.139-.011-.279-.01-.417-.025-.149-.017-.296-.04-.444-.062-.32-.047-.637-.106-.952-.175-.167-.037-.334-.073-.498-.117-.316-.084-.627-.185-.935-.292-.285-.099-.564-.21-.84-.328-.221-.094-.442-.189-.658-.295-.24-.119-.474-.249-.705-.382-.138-.079-.275-.162-.41-.246-.251-.157-.5-.315-.739-.488-.031-.023-.061-.048-.092-.071-.516-.38-1-.801-1.456-1.251-.083-.083-.169-.162-.25-.247-.199-.208-.389-.424-.574-.645-.115-.137-.225-.279-.334-.422-1.325-1.719-2.241-3.773-2.565-6.032-.078-.547-.588-.923-1.131-.848-.547.078-.927.584-.848,1.131.335,2.34,1.218,4.493,2.5,6.345.016.028.019.059.037.086.137.197.298.371.444.56.116.15.231.299.352.445.221.265.448.522.685.77.08.083.164.162.246.243.553.552,1.14,1.062,1.767,1.518.014.01.027.022.041.032.284.205.578.394.875.578.147.092.296.181.447.268.274.157.548.311.832.451.238.118.483.221.728.326.332.142.666.276,1.008.394.35.122.703.236,1.063.332.192.051.386.093.58.136.361.081.725.148,1.094.202.172.025.342.053.514.072.539.06,1.082.1,1.634.1,8.271,0,15-6.729,15-15S24.271,1,16,1Z"/>
  <rect id="transparent_rectangle" class="st0" width="32" height="32"/>
</svg>