<?xml version="1.0" encoding="UTF-8"?>
<svg id="icon86" data-name="icon" xmlns="http://www.w3.org/2000/svg" width="32" height="32" version="1.1" viewBox="0 0 32 32">
  <!-- Generator: Adobe Illustrator 29.8.2, SVG Export Plug-In . SVG Version: 2.1.1 Build 3)  -->
  <defs>
    <style>
      .st0 {
        fill: none;
      }

      .st1 {
        fill: #151515;
      }
    </style>
  </defs>
  <path class="st1" d="M24.206,22.794c-1.815,0-3.521-.707-4.805-1.99-.391-.391-.391-1.023,0-1.414s1.023-.391,1.414,0c1.871,1.871,4.913,1.869,6.78,0,1.869-1.869,1.869-4.911,0-6.78-1.867-1.868-4.909-1.87-6.78,0-1.339,1.339-4.109,4.099-4.109,4.099,0,0-2.769,2.757-4.107,4.096-1.283,1.283-2.989,1.99-4.805,1.99s-3.521-.707-4.804-1.99c-2.649-2.649-2.649-6.959,0-9.608,1.283-1.283,2.989-1.99,4.804-1.99s3.521.707,4.805,1.99c.391.391.391,1.023,0,1.414s-1.023.391-1.414,0c-1.869-1.87-4.911-1.868-6.78,0-1.869,1.869-1.869,4.911,0,6.78,1.869,1.869,4.911,1.871,6.78,0,1.339-1.339,4.109-4.099,4.109-4.099,0,0,2.769-2.757,4.107-4.096,1.283-1.283,2.989-1.99,4.805-1.99s3.521.707,4.804,1.99c2.649,2.649,2.649,6.959,0,9.608-1.283,1.283-2.989,1.99-4.804,1.99Z"/>
  <rect id="transparent_rectangle" class="st0" width="32" height="32"/>
</svg>