<?xml version="1.0" encoding="UTF-8"?>
<svg id="icon151" data-name="icon" xmlns="http://www.w3.org/2000/svg" width="32" height="32" version="1.1" viewBox="0 0 32 32">
  <!-- Generator: Adobe Illustrator 29.8.2, SVG Export Plug-In . SVG Version: 2.1.1 Build 3)  -->
  <defs>
    <style>
      .st0 {
        fill: none;
      }

      .st1 {
        fill: #151515;
      }
    </style>
  </defs>
  <path class="st1" d="M20.11,24.05c.191.191.265.472.192.732-.073.261-.281.462-.543.526-1.196.293-2.46.441-3.759.441-9.475,0-13.796-7.661-14.566-9.197-.176-.352-.176-.754,0-1.105.333-.665,1.604-2.996,3.967-5.106.297-.263.749-.253,1.03.029l4.667,4.667c-.061.312-.097.633-.097.963,0,2.757,2.243,5,5,5,.33,0,.651-.036.963-.097l3.147,3.147ZM30.707,30.707c-.195.195-.451.293-.707.293s-.512-.098-.707-.293L1.293,2.707c-.391-.391-.391-1.023,0-1.414s1.023-.391,1.414,0l6.483,6.483c2.101-1.011,4.387-1.526,6.81-1.526,9.478,0,13.797,7.661,14.566,9.197.176.352.176.754,0,1.104,0,0,0,0,0,0-.51,1.018-2.36,4.293-5.951,6.648l6.092,6.092c.391.391.391,1.023,0,1.414ZM13.253,11.839l6.909,6.909c.528-.787.839-1.729.839-2.747,0-2.757-2.243-5-5-5-1.018,0-1.96.311-2.747.839Z"/>
  <rect class="st0" width="32" height="32"/>
</svg>