<?xml version="1.0" encoding="UTF-8"?>
<svg id="icon124" data-name="icon" xmlns="http://www.w3.org/2000/svg" width="32" height="32" version="1.1" viewBox="0 0 32 32">
  <!-- Generator: Adobe Illustrator 29.8.2, SVG Export Plug-In . SVG Version: 2.1.1 Build 3)  -->
  <defs>
    <style>
      .st0 {
        fill: none;
      }

      .st1 {
        fill: #151515;
      }
    </style>
  </defs>
  <path class="st1" d="M30,16c0,.552-.448,1-1,1h-14c-.552,0-1-.448-1-1s.448-1,1-1h14c.552,0,1,.448,1,1ZM25,21h-10c-.552,0-1,.447-1,1s.448,1,1,1h10c.552,0,1-.447,1-1s-.448-1-1-1ZM21,27h-6c-.552,0-1,.447-1,1s.448,1,1,1h6c.552,0,1-.447,1-1s-.448-1-1-1ZM15,10c.256,0,.512-.098.707-.293.391-.391.391-1.023,0-1.414l-5.646-5.646c-.585-.585-1.536-.585-2.121,0l-5.646,5.646c-.391.391-.391,1.023,0,1.414s1.023.391,1.414,0l4.293-4.293v23.586c0,.553.448,1,1,1s1-.447,1-1V5.414l4.293,4.293c.195.195.451.293.707.293Z"/>
  <rect id="transparent_rectangle" class="st0" width="32" height="32"/>
</svg>