<?xml version="1.0" encoding="UTF-8"?>
<svg id="icon34" data-name="icon" xmlns="http://www.w3.org/2000/svg" width="32" height="32" version="1.1" viewBox="0 0 32 32">
  <!-- Generator: Adobe Illustrator 29.8.2, SVG Export Plug-In . SVG Version: 2.1.1 Build 3)  -->
  <defs>
    <style>
      .st0 {
        fill: none;
      }

      .st1 {
        fill: #151515;
      }
    </style>
  </defs>
  <path class="st1" d="M21,9.5V3c0-.552.447-1,1-1s1,.448,1,1v6h6c.553,0,1,.448,1,1s-.447,1-1,1h-6.5c-.827,0-1.5-.673-1.5-1.5ZM10,2c-.553,0-1,.448-1,1v6H3c-.553,0-1,.448-1,1s.447,1,1,1h6.5c.827,0,1.5-.673,1.5-1.5V3c0-.552-.447-1-1-1ZM9.5,21H3c-.553,0-1,.448-1,1s.447,1,1,1h6v6c0,.552.447,1,1,1s1-.448,1-1v-6.5c0-.827-.673-1.5-1.5-1.5ZM29,21h-6.5c-.827,0-1.5.673-1.5,1.5v6.5c0,.552.447,1,1,1s1-.448,1-1v-6h6c.553,0,1-.448,1-1s-.447-1-1-1Z"/>
  <rect id="transparent_rectangle" class="st0" width="32" height="32"/>
</svg>