<?xml version="1.0" encoding="UTF-8"?>
<svg id="icon96" data-name="icon" xmlns="http://www.w3.org/2000/svg" width="32" height="32" version="1.1" viewBox="0 0 32 32">
  <!-- Generator: Adobe Illustrator 29.8.2, SVG Export Plug-In . SVG Version: 2.1.1 Build 3)  -->
  <defs>
    <style>
      .st0 {
        fill: none;
      }

      .st1 {
        fill: #151515;
      }
    </style>
  </defs>
  <path class="st1" d="M29.75,29c0,.414-.336.75-.75.75h-5c-.414,0-.75-.336-.75-.75,0-11.166-9.084-20.25-20.25-20.25-.414,0-.75-.336-.75-.75V3c0-.414.336-.75.75-.75,14.75,0,26.75,12,26.75,26.75ZM3,12.25c-.414,0-.75.336-.75.75v5c0,.414.336.75.75.75,5.652,0,10.25,4.598,10.25,10.25,0,.414.336.75.75.75h5c.414,0,.75-.336.75-.75,0-9.236-7.514-16.75-16.75-16.75ZM5,23.25c-2.067,0-3.75,1.682-3.75,3.75s1.683,3.75,3.75,3.75,3.75-1.682,3.75-3.75-1.683-3.75-3.75-3.75Z"/>
  <rect class="st0" width="32" height="32"/>
</svg>