<?xml version="1.0" encoding="UTF-8"?>
<svg id="icon160" data-name="icon" xmlns="http://www.w3.org/2000/svg" width="32" height="32" version="1.1" viewBox="0 0 32 32">
  <!-- Generator: Adobe Illustrator 29.8.2, SVG Export Plug-In . SVG Version: 2.1.1 Build 3)  -->
  <defs>
    <style>
      .st0 {
        fill: none;
      }

      .st1 {
        fill: #151515;
      }
    </style>
  </defs>
  <path class="st1" d="M14.875,30.919c-3.039-.383-5.609-2.281-6.925-4.919h-2.536l-1.707,1.707c-.195.195-.451.293-.707.293s-.512-.098-.707-.293c-.391-.391-.391-1.023,0-1.414l2-2c.188-.188.442-.293.707-.293h2.232c-.147-.644-.232-1.312-.232-2v-1H2c-.552,0-1-.448-1-1s.448-1,1-1h5v-3h-2c-.265,0-.52-.105-.707-.293l-2-2c-.391-.391-.391-1.023,0-1.414s1.023-.391,1.414,0l1.707,1.707h1.586v-2.875h7.875v19.794ZM8.975,4.389c-1.011,1.263-1.684,2.803-1.896,4.486h17.843c-.212-1.682-.885-3.223-1.896-4.486l1.682-1.682c.391-.391.391-1.023,0-1.414s-1.023-.391-1.414,0l-1.682,1.682c-1.54-1.233-3.489-1.975-5.611-1.975s-4.071.742-5.611,1.975l-1.682-1.682c-.391-.391-1.023-.391-1.414,0s-.391,1.023,0,1.414l1.682,1.682ZM30,19h-5v-3h2c.265,0,.52-.105.707-.293l2-2c.391-.391.391-1.023,0-1.414s-1.023-.391-1.414,0l-1.707,1.707h-1.586v-2.875h-7.875v19.794c3.039-.383,5.609-2.281,6.925-4.919h2.536l1.707,1.707c.195.195.451.293.707.293s.512-.098.707-.293c.391-.391.391-1.023,0-1.414l-2-2c-.188-.188-.442-.293-.707-.293h-2.232c.147-.644.232-1.312.232-2v-1h5c.552,0,1-.448,1-1s-.448-1-1-1Z"/>
  <rect class="st0" width="32" height="32"/>
</svg>