<?xml version="1.0" encoding="UTF-8"?>
<svg id="icon188" data-name="icon" xmlns="http://www.w3.org/2000/svg" width="32" height="32" version="1.1" viewBox="0 0 32 32">
  <!-- Generator: Adobe Illustrator 29.8.2, SVG Export Plug-In . SVG Version: 2.1.1 Build 3)  -->
  <defs>
    <style>
      .st0 {
        fill: none;
      }

      .st1 {
        fill: #151515;
      }
    </style>
  </defs>
  <path class="st1" d="M30.539,12.074c0,.356-.191.688-.5.866l-13.5,7.794c-.154.089-.327.134-.5.134-.174,0-.348-.045-.502-.135L2.04,12.94c-.309-.178-.5-.51-.5-.866s.192-.688.5-.867L15.539,3.414c.308-.177.689-.178.998-.001l6.043,3.489-6.162,3.559c-.538.311-.723.999-.412,1.537.208.361.586.562.975.562.191,0,.384-.048.562-.151l7.286-4.208,5.21,3.008c.309.178.5.51.5.866ZM29,16c-.552,0-1,.448-1,1v11c0,.552.448,1,1,1s1-.448,1-1v-11c0-.552-.448-1-1-1ZM16.039,22.868c-.531,0-1.053-.141-1.502-.403l-9.529-5.501c0,.013-.007.024-.007.037v4.124c0,.443.238.857.625,1.083l9.749,5.625c.193.111.41.167.626.167s.432-.056.624-.167l8.754-5.048c.383-.224.622-.638.622-1.081v-4.123l-8.459,4.883c-.455.264-.975.403-1.502.403Z"/>
  <rect class="st0" width="32" height="32"/>
</svg>