<?xml version="1.0" encoding="UTF-8"?>
<svg id="icon93" data-name="icon" xmlns="http://www.w3.org/2000/svg" width="32" height="32" version="1.1" viewBox="0 0 32 32">
  <!-- Generator: Adobe Illustrator 29.8.2, SVG Export Plug-In . SVG Version: 2.1.1 Build 3)  -->
  <defs>
    <style>
      .st0 {
        fill: none;
      }

      .st1 {
        fill: #151515;
      }
    </style>
  </defs>
  <path class="st1" d="M17.439,2.102c-.342-.167-.751-.125-1.053.109l-8.729,6.79H2.5c-.827,0-1.5.673-1.5,1.5v11c0,.827.673,1.5,1.5,1.5h5.157l8.729,6.79c.179.139.396.21.614.21.149,0,.3-.034.439-.102.343-.168.561-.517.561-.898V3c0-.382-.218-.73-.561-.898ZM16,26.956l-7.386-5.745c-.175-.136-.392-.21-.614-.21H3v-10h5c.222,0,.438-.074.614-.21l7.386-5.745v21.911ZM30.707,19.293c.391.391.391,1.023,0,1.414-.195.195-.451.293-.707.293s-.512-.098-.707-.293l-3.293-3.293-3.293,3.293c-.195.195-.451.293-.707.293s-.512-.098-.707-.293c-.391-.391-.391-1.023,0-1.414l3.293-3.293-3.293-3.293c-.391-.391-.391-1.023,0-1.414s1.023-.391,1.414,0l3.293,3.293,3.293-3.293c.391-.391,1.023-.391,1.414,0s.391,1.023,0,1.414l-3.293,3.293,3.293,3.293Z"/>
  <rect id="transparent_rectangle" class="st0" width="32" height="32"/>
</svg>