<?xml version="1.0" encoding="UTF-8"?>
<svg id="icon222" data-name="icon" xmlns="http://www.w3.org/2000/svg" width="32" height="32" version="1.1" viewBox="0 0 32 32">
  <!-- Generator: Adobe Illustrator 29.8.2, SVG Export Plug-In . SVG Version: 2.1.1 Build 3)  -->
  <defs>
    <style>
      .st0 {
        fill: none;
      }

      .st1 {
        fill: #151515;
      }
    </style>
  </defs>
  <path class="st1" d="M27,11h-.065l-1.957-9.208c-.098-.462-.506-.792-.978-.792H8c-.472,0-.88.33-.978.792l-1.957,9.208h-.065c-1.654,0-3,1.346-3,3v7.5c0,.827.673,1.5,1.5,1.5h25c.827,0,1.5-.673,1.5-1.5v-7.5c0-1.654-1.346-3-3-3ZM8.81,3h14.381l1.7,8H7.109l1.7-8ZM28,21H4v-7c0-.551.449-1,1-1h22c.551,0,1,.449,1,1v7ZM8,16v2c0,.552-.448,1-1,1s-1-.448-1-1v-2c0-.552.448-1,1-1s1,.448,1,1ZM2,7v-1c0-.552.448-1,1-1s1,.448,1,1v1c0,.552-.448,1-1,1s-1-.448-1-1ZM30,6v1c0,.552-.448,1-1,1s-1-.448-1-1v-1c0-.552.448-1,1-1s1,.448,1,1ZM26,16v2c0,.552-.448,1-1,1s-1-.448-1-1v-2c0-.552.448-1,1-1s1,.448,1,1ZM21,17c0,.552-.448,1-1,1h-8c-.552,0-1-.448-1-1s.448-1,1-1h8c.552,0,1,.448,1,1ZM30,26c0,.552-.448,1-1,1h-1v2c0,1.103-.897,2-2,2h-2c-1.103,0-2-.897-2-2v-2h-12v2c0,1.103-.897,2-2,2h-2c-1.103,0-2-.897-2-2v-2h-1c-.552,0-1-.448-1-1s.448-1,1-1h26c.552,0,1,.448,1,1Z"/>
  <rect id="transparent_rectangle" class="st0" width="32" height="32"/>
</svg>