<?xml version="1.0" encoding="UTF-8"?>
<svg id="mobile-phone" xmlns="http://www.w3.org/2000/svg" width="32" height="32" version="1.1" viewBox="0 0 32 32">
  <!-- Generator: Adobe Illustrator 30.1.0, SVG Export Plug-In . SVG Version: 2.1.1 Build 136)  -->
  <title>rh-ui-icon-mobile-phone</title>
<desc>smartphone, cell, telephone, mobile, calling, wireless, device, screen, android, iphone, communication, handheld, cellular, electronics, technology, app, portable, gadget, touch, connection</desc>
<metadata><?xpacket begin="﻿" id="W5M0MpCehiHzreSzNTczkc9d"?>
<x:xmpmeta xmlns:x="adobe:ns:meta/" x:xmptk="Adobe XMP Core 8.0-c001 1.000000, 0000/00/00-00:00:00        ">
   <rdf:RDF xmlns:rdf="http://www.w3.org/1999/02/22-rdf-syntax-ns#">
      <rdf:Description rdf:about=""
            xmlns:tiff="http://ns.adobe.com/tiff/1.0/"
            xmlns:dc="http://purl.org/dc/elements/1.1/"
            xmlns:xmp="http://ns.adobe.com/xap/1.0/">
         <tiff:ImageLength>32</tiff:ImageLength>
         <tiff:ImageWidth>32</tiff:ImageWidth>
         <dc:format>image/svg+xml</dc:format>
         <dc:modified>2026-01-20T14:41:11.802Z</dc:modified>
         <dc:title>
            <rdf:Alt>
               <rdf:li xml:lang="x-default">rh-ui-icon-mobile-phone</rdf:li>
            </rdf:Alt>
         </dc:title>
         <dc:description>
            <rdf:Alt>
               <rdf:li xml:lang="x-default">smartphone, cell, telephone, mobile, calling, wireless, device, screen, android, iphone, communication, handheld, cellular, electronics, technology, app, portable, gadget, touch, connection</rdf:li>
            </rdf:Alt>
         </dc:description>
         <xmp:brand-content-type>Icon</xmp:brand-content-type>
         <xmp:brand-content-subtype>UI</xmp:brand-content-subtype>
         <xmp:rhcc-rights-restricted>no</xmp:rhcc-rights-restricted>
         <xmp:rhcc-file-last-modified>2026-01-20T14:37:38.456Z</xmp:rhcc-file-last-modified>
         <xmp:brand-colorway>
            <rdf:Bag>
               <rdf:li>colorway:black</rdf:li>
            </rdf:Bag>
         </xmp:brand-colorway>
      </rdf:Description>
   </rdf:RDF>
</x:xmpmeta>
                                                                                                    
                                                                                                    
                                                                                                    
                                                                                                    
                                                                                                    
                                                                                                    
                                                                                                    
                                                                                                    
                                                                                                    
                                                                                                    
                                                                                                    
                                                                                                    
                                                                                                    
                                                                               
<?xpacket end="w"?></metadata>
<defs>
    <style>
      .st0 {
        fill: none;
      }

      .st1 {
        fill: #151515;
      }
    </style>
  </defs>
  <path id="icon" class="st1" d="M20,26c0,.55273-.44727,1-1,1h-6c-.55273,0-1-.44727-1-1s.44727-1,1-1h6c.55273,0,1,.44727,1,1ZM25,4v24c0,1.6543-1.3457,3-3,3h-12c-1.6543,0-3-1.3457-3-3V4c0-1.6543,1.3457-3,3-3h12c1.6543,0,3,1.3457,3,3ZM23,4c0-.55127-.44824-1-1-1h-12c-.55176,0-1,.44873-1,1v24c0,.55176.44824,1,1,1h12c.55176,0,1-.44824,1-1V4ZM16,8.62878c.89746,0,1.625-.72754,1.625-1.625s-.72754-1.625-1.625-1.625-1.625.72754-1.625,1.625.72754,1.625,1.625,1.625Z"/>
  <rect id="Transparent_rectangle" class="st0" width="32" height="32"/>
</svg>