<?xml version="1.0" encoding="UTF-8"?>
<svg id="icon183" data-name="icon" xmlns="http://www.w3.org/2000/svg" width="32" height="32" version="1.1" viewBox="0 0 32 32">
  <!-- Generator: Adobe Illustrator 29.8.2, SVG Export Plug-In . SVG Version: 2.1.1 Build 3)  -->
  <defs>
    <style>
      .st0 {
        fill: none;
      }

      .st1 {
        fill: #151515;
      }
    </style>
  </defs>
  <path class="st1" d="M2.38,4.001c0-.897.728-1.625,1.625-1.625s1.625.728,1.625,1.625-.728,1.625-1.625,1.625-1.625-.728-1.625-1.625ZM10,5.626c.897,0,1.625-.728,1.625-1.625s-.728-1.625-1.625-1.625-1.625.728-1.625,1.625.728,1.625,1.625,1.625ZM15.995,5.626c.897,0,1.625-.728,1.625-1.625s-.728-1.625-1.625-1.625-1.625.728-1.625,1.625.728,1.625,1.625,1.625ZM22,5.629c.897,0,1.625-.728,1.625-1.625s-.728-1.625-1.625-1.625-1.625.728-1.625,1.625.728,1.625,1.625,1.625ZM28,5.629c.897,0,1.625-.728,1.625-1.625s-.728-1.625-1.625-1.625-1.625.728-1.625,1.625.728,1.625,1.625,1.625ZM4.005,26.377c-.897,0-1.625.728-1.625,1.625s.728,1.625,1.625,1.625,1.625-.728,1.625-1.625-.728-1.625-1.625-1.625ZM10,26.377c-.897,0-1.625.728-1.625,1.625s.728,1.625,1.625,1.625,1.625-.728,1.625-1.625-.728-1.625-1.625-1.625ZM15.995,26.377c-.897,0-1.625.728-1.625,1.625s.728,1.625,1.625,1.625,1.625-.728,1.625-1.625-.728-1.625-1.625-1.625ZM22,26.38c-.897,0-1.625.728-1.625,1.625s.728,1.625,1.625,1.625,1.625-.728,1.625-1.625-.728-1.625-1.625-1.625ZM28,26.38c-.897,0-1.625.728-1.625,1.625s.728,1.625,1.625,1.625,1.625-.728,1.625-1.625-.728-1.625-1.625-1.625ZM31,10.5v11c0,.827-.673,1.5-1.5,1.5H2.5c-.827,0-1.5-.673-1.5-1.5v-11c0-.827.673-1.5,1.5-1.5h27c.827,0,1.5.673,1.5,1.5ZM14.125,16c0-.621-.504-1.125-1.125-1.125h-5c-.621,0-1.125.504-1.125,1.125s.504,1.125,1.125,1.125h5c.621,0,1.125-.504,1.125-1.125ZM24.88,16.016c0-1.036-.839-1.875-1.875-1.875s-1.875.839-1.875,1.875.839,1.875,1.875,1.875,1.875-.839,1.875-1.875Z"/>
  <rect class="st0" width="32" height="32"/>
</svg>