<?xml version="1.0" encoding="UTF-8"?>
<svg id="icon56" data-name="icon" xmlns="http://www.w3.org/2000/svg" width="32" height="32" version="1.1" viewBox="0 0 32 32">
  <!-- Generator: Adobe Illustrator 29.8.2, SVG Export Plug-In . SVG Version: 2.1.1 Build 3)  -->
  <defs>
    <style>
      .st0 {
        fill: none;
      }

      .st1 {
        fill: #151515;
      }
    </style>
  </defs>
  <path class="st1" d="M14.75,16v-7c0-.69.56-1.25,1.25-1.25s1.25.56,1.25,1.25v7c0,.69-.56,1.25-1.25,1.25s-1.25-.56-1.25-1.25ZM31,16c0,8.271-6.729,15-15,15S1,24.271,1,16,7.729,1,16,1s15,6.729,15,15ZM29,16c0-7.168-5.832-13-13-13S3,8.832,3,16s5.832,13,13,13,13-5.832,13-13ZM16,20.261c-.966,0-1.75.784-1.75,1.75s.784,1.75,1.75,1.75,1.75-.784,1.75-1.75-.784-1.75-1.75-1.75Z"/>
  <rect id="transparent_rectangle" class="st0" width="32" height="32"/>
</svg>