<?xml version="1.0" encoding="UTF-8"?>
<svg id="icon270" data-name="icon" xmlns="http://www.w3.org/2000/svg" width="32" height="32" version="1.1" viewBox="0 0 32 32">
  <!-- Generator: Adobe Illustrator 29.8.2, SVG Export Plug-In . SVG Version: 2.1.1 Build 3)  -->
  <defs>
    <style>
      .st0 {
        fill: none;
      }

      .st1 {
        fill: #151515;
      }
    </style>
  </defs>
  <path class="st1" d="M23.5,7h-3.5V2.5c0-.827-.673-1.5-1.5-1.5h-5c-.827,0-1.5.673-1.5,1.5v4.5h-3.5c-.827,0-1.5.673-1.5,1.5v17c0,.827.673,1.5,1.5,1.5h15c.827,0,1.5-.673,1.5-1.5V8.5c0-.827-.673-1.5-1.5-1.5ZM14,3h4v4h-4V3ZM23,25h-14V9h14v16ZM12,21v-8c0-.553.447-1,1-1s1,.447,1,1v8c0,.553-.447,1-1,1s-1-.447-1-1ZM18,21v-8c0-.553.447-1,1-1s1,.447,1,1v8c0,.553-.447,1-1,1s-1-.447-1-1ZM11.625,30.003c0,.897-.728,1.625-1.625,1.625s-1.625-.728-1.625-1.625.728-1.625,1.625-1.625,1.625.728,1.625,1.625ZM23.63,30.013c0,.897-.728,1.625-1.625,1.625s-1.625-.728-1.625-1.625.728-1.625,1.625-1.625,1.625.728,1.625,1.625Z"/>
  <rect id="transparent_rectangle" class="st0" width="32" height="32"/>
</svg>