<?xml version="1.0" encoding="UTF-8"?>
<svg id="icon58" data-name="icon" xmlns="http://www.w3.org/2000/svg" width="32" height="32" version="1.1" viewBox="0 0 32 32">
  <!-- Generator: Adobe Illustrator 29.8.2, SVG Export Plug-In . SVG Version: 2.1.1 Build 3)  -->
  <defs>
    <style>
      .st0 {
        fill: none;
      }

      .st1 {
        fill: #151515;
      }
    </style>
  </defs>
  <path class="st1" d="M30,3.5v6.5c0,.552-.448,1-1,1s-1-.448-1-1v-6h-6c-.552,0-1-.448-1-1s.448-1,1-1h6.5c.827,0,1.5.673,1.5,1.5ZM10,2H3.5c-.827,0-1.5.673-1.5,1.5v6.5c0,.552.448,1,1,1s1-.448,1-1v-6h6c.552,0,1-.448,1-1s-.448-1-1-1ZM10,28h-6v-6c0-.552-.448-1-1-1s-1,.448-1,1v6.5c0,.827.673,1.5,1.5,1.5h6.5c.552,0,1-.448,1-1s-.448-1-1-1ZM29,21c-.552,0-1,.448-1,1v6h-6c-.552,0-1,.448-1,1s.448,1,1,1h6.5c.827,0,1.5-.673,1.5-1.5v-6.5c0-.552-.448-1-1-1Z"/>
  <rect id="transparent_rectangle" class="st0" width="32" height="32"/>
</svg>