<?xml version="1.0" encoding="UTF-8"?>
<svg id="icon13" data-name="icon" xmlns="http://www.w3.org/2000/svg" width="32" height="32" version="1.1" viewBox="0 0 32 32">
  <!-- Generator: Adobe Illustrator 29.8.2, SVG Export Plug-In . SVG Version: 2.1.1 Build 3)  -->
  <defs>
    <style>
      .st0 {
        fill: none;
      }

      .st1 {
        fill: #151515;
      }
    </style>
  </defs>
  <path class="st1" d="M30,19h-5v-3h2c.265,0,.52-.105.707-.293l2-2c.391-.391.391-1.023,0-1.414s-1.023-.391-1.414,0l-1.707,1.707h-1.586v-4c0-2.122-.742-4.071-1.975-5.611l1.682-1.682c.391-.391.391-1.023,0-1.414s-1.023-.391-1.414,0l-1.682,1.682c-1.54-1.233-3.489-1.975-5.611-1.975s-4.071.742-5.611,1.975l-1.682-1.682c-.391-.391-1.023-.391-1.414,0s-.391,1.023,0,1.414l1.682,1.682c-1.233,1.54-1.975,3.489-1.975,5.611v4h-1.586l-1.707-1.707c-.391-.391-1.023-.391-1.414,0s-.391,1.023,0,1.414l2,2c.188.188.442.293.707.293h2v3H2c-.552,0-1,.448-1,1s.448,1,1,1h5v1c0,.688.085,1.356.232,2h-2.232c-.265,0-.52.105-.707.293l-2,2c-.391.391-.391,1.023,0,1.414.195.195.451.293.707.293s.512-.098.707-.293l1.707-1.707h2.536c1.476,2.958,4.526,5,8.05,5s6.574-2.042,8.05-5h2.536l1.707,1.707c.195.195.451.293.707.293s.512-.098.707-.293c.391-.391.391-1.023,0-1.414l-2-2c-.188-.188-.442-.293-.707-.293h-2.232c.147-.644.232-1.312.232-2v-1h5c.552,0,1-.448,1-1s-.448-1-1-1ZM15,28.92c-3.387-.488-6-3.401-6-6.92v-11h6v17.92ZM9.08,9c.488-3.387,3.401-6,6.92-6s6.432,2.613,6.92,6h-13.84ZM23,22c0,3.519-2.613,6.432-6,6.92V11h6v11Z"/>
  <rect id="transparent_rectangle" class="st0" width="32" height="32"/>
</svg>