<?xml version="1.0" encoding="UTF-8"?>
<svg id="icon29" data-name="icon" xmlns="http://www.w3.org/2000/svg" width="32" height="32" version="1.1" viewBox="0 0 32 32">
  <!-- Generator: Adobe Illustrator 29.8.2, SVG Export Plug-In . SVG Version: 2.1.1 Build 3)  -->
  <defs>
    <style>
      .st0 {
        fill: none;
      }

      .st1 {
        fill: #151515;
      }
    </style>
  </defs>
  <path class="st1" d="M9.707,9.707l-6.293,6.293,6.293,6.293c.391.391.391,1.023,0,1.414-.195.195-.451.293-.707.293s-.512-.098-.707-.293l-6.646-6.646c-.585-.585-.585-1.536,0-2.121l6.646-6.646c.391-.391,1.023-.391,1.414,0s.391,1.023,0,1.414ZM30.354,14.939l-6.646-6.646c-.391-.391-1.023-.391-1.414,0s-.391,1.023,0,1.414l6.293,6.293-6.293,6.293c-.391.391-.391,1.023,0,1.414.195.195.451.293.707.293s.512-.098.707-.293l6.646-6.646c.585-.585.585-1.536,0-2.121ZM18.121,6.022c-.542-.117-1.071.229-1.186.77l-3.826,18c-.115.541.23,1.071.77,1.186.07.015.14.022.209.022.462,0,.877-.322.977-.792l3.826-18c.115-.541-.23-1.071-.77-1.186Z"/>
  <rect id="transparent_rectangle" class="st0" width="32" height="32"/>
</svg>