<?xml version="1.0" encoding="UTF-8"?>
<svg id="icon167" data-name="icon" xmlns="http://www.w3.org/2000/svg" width="32" height="32" version="1.1" viewBox="0 0 32 32">
  <!-- Generator: Adobe Illustrator 29.8.2, SVG Export Plug-In . SVG Version: 2.1.1 Build 3)  -->
  <defs>
    <style>
      .st0 {
        fill: none;
      }

      .st1 {
        fill: #151515;
      }
    </style>
  </defs>
  <path class="st1" d="M7,8c-.256,0-.512-.098-.707-.293L2.293,3.707c-.391-.391-.391-1.023,0-1.414s1.023-.391,1.414,0l4,4c.391.391.391,1.023,0,1.414-.195.195-.451.293-.707.293ZM29.793,19c0,.4-.156.777-.439,1.061l-9.293,9.293c-.292.293-.676.438-1.061.438s-.768-.146-1.061-.438l-10.646-10.646c-.188-.188-.293-.441-.293-.707v-6c0-.266.105-.52.293-.707l4-4c.188-.188.442-.293.707-.293h6c.265,0,.52.105.707.293l10.646,10.646c.283.283.439.66.439,1.061ZM15.88,14.001c0-1.036-.839-1.875-1.875-1.875s-1.875.839-1.875,1.875.839,1.875,1.875,1.875,1.875-.839,1.875-1.875Z"/>
  <rect class="st0" width="32" height="32"/>
</svg>