<?xml version="1.0" encoding="UTF-8"?>
<svg id="icon105" data-name="icon" xmlns="http://www.w3.org/2000/svg" width="32" height="32" version="1.1" viewBox="0 0 32 32">
  <!-- Generator: Adobe Illustrator 29.8.2, SVG Export Plug-In . SVG Version: 2.1.1 Build 3)  -->
  <defs>
    <style>
      .st0 {
        fill: none;
      }

      .st1 {
        fill: #151515;
      }
    </style>
  </defs>
  <path class="st1" d="M29.5,7h-5.5v-2.5c0-.827-.673-1.5-1.5-1.5h-13c-.827,0-1.5.673-1.5,1.5v2.5H2.5c-.827,0-1.5.673-1.5,1.5v14c0,.827.673,1.5,1.5,1.5h5.5v3.5c0,.827.673,1.5,1.5,1.5h13c.827,0,1.5-.673,1.5-1.5v-3.5h5.5c.827,0,1.5-.673,1.5-1.5v-14c0-.827-.673-1.5-1.5-1.5ZM10,5h12v4h-12v-4ZM22,27h-12v-8h12v8ZM29,22h-5v-3h1c.553,0,1-.448,1-1s-.447-1-1-1H7c-.553,0-1,.448-1,1s.447,1,1,1h1v3H3v-13h5v.5c0,.827.673,1.5,1.5,1.5h13c.827,0,1.5-.673,1.5-1.5v-.5h5v13Z"/>
  <rect id="transparent_rectangle" class="st0" width="32" height="32"/>
</svg>