<?xml version="1.0" encoding="UTF-8"?>
<svg id="icon81" data-name="icon" xmlns="http://www.w3.org/2000/svg" width="32" height="32" version="1.1" viewBox="0 0 32 32">
  <!-- Generator: Adobe Illustrator 29.8.2, SVG Export Plug-In . SVG Version: 2.1.1 Build 3)  -->
  <defs>
    <style>
      .st0 {
        fill: none;
      }

      .st1 {
        fill: #151515;
      }
    </style>
  </defs>
  <path class="st1" d="M27.399,29.311c-.086.132-.179.258-.279.376-.7.829-1.728,1.313-2.831,1.313H7.711c-1.104,0-2.132-.483-2.831-1.313-.1-.118-.193-.244-.279-.376-.687-1.058-.791-2.376-.277-3.528l3.201-7.189s0-.001.001-.002l3.474-7.804V3h-1c-.552,0-1-.448-1-1s.448-1,1-1h1.5c.827,0,1.5.673,1.5,1.5v8.5c0,.14-.029.279-.086.407l-2.935,6.593h12.044l-2.935-6.593c-.057-.128-.086-.267-.086-.407V2.5c0-.827.673-1.5,1.5-1.5h1.5c.552,0,1,.448,1,1s-.448,1-1,1h-1v7.788l3.474,7.804s0,.001.001.002l3.201,7.189c.513,1.152.409,2.471-.277,3.528Z"/>
  <rect class="st0" width="32" height="32"/>
</svg>