<?xml version="1.0" encoding="UTF-8"?>
<svg id="icon38" data-name="icon" xmlns="http://www.w3.org/2000/svg" width="32" height="32" version="1.1" viewBox="0 0 32 32">
  <!-- Generator: Adobe Illustrator 29.8.2, SVG Export Plug-In . SVG Version: 2.1.1 Build 3)  -->
  <defs>
    <style>
      .st0 {
        fill: none;
      }

      .st1 {
        fill: #151515;
      }
    </style>
  </defs>
  <path class="st1" d="M12.5,12h7c.827,0,1.5-.673,1.5-1.5V3.5c0-.827-.673-1.5-1.5-1.5h-7c-.827,0-1.5.673-1.5,1.5v7c0,.827.673,1.5,1.5,1.5ZM13,4h6v6h-6v-6ZM5.5,25h7c.827,0,1.5-.673,1.5-1.5v-7c0-.827-.673-1.5-1.5-1.5h-7c-.827,0-1.5.673-1.5,1.5v7c0,.827.673,1.5,1.5,1.5ZM6,17h6v6h-6v-6ZM30,29c0,.552-.448,1-1,1H3c-.552,0-1-.448-1-1s.448-1,1-1h26c.552,0,1,.448,1,1ZM18,16.5v7c0,.827.673,1.5,1.5,1.5h7c.827,0,1.5-.673,1.5-1.5v-7c0-.827-.673-1.5-1.5-1.5h-7c-.827,0-1.5.673-1.5,1.5ZM20,17h6v6h-6v-6Z"/>
  <rect id="transparent_rectangle" class="st0" width="32" height="32"/>
</svg>