<?xml version="1.0" encoding="UTF-8"?>
<svg id="icon120" data-name="icon" xmlns="http://www.w3.org/2000/svg" width="32" height="32" version="1.1" viewBox="0 0 32 32">
  <!-- Generator: Adobe Illustrator 29.8.2, SVG Export Plug-In . SVG Version: 2.1.1 Build 3)  -->
  <defs>
    <style>
      .st0 {
        fill: none;
      }

      .st1 {
        fill: #151515;
      }
    </style>
  </defs>
  <path class="st1" d="M27,23c-1.21,0-2.29.53-3.02,1.38l-15.07-7.54c.06-.27.09-.55.09-.84s-.03-.57-.09-.84l15.07-7.54c.73.85,1.81,1.38,3.02,1.38,2.21,0,4-1.79,4-4s-1.79-4-4-4-4,1.79-4,4c0,.29.03.57.09.84l-15.07,7.54c-.73-.85-1.81-1.38-3.02-1.38-2.21,0-4,1.79-4,4s1.79,4,4,4c1.21,0,2.29-.53,3.02-1.38l15.07,7.54c-.06.27-.09.55-.09.84,0,2.21,1.79,4,4,4s4-1.79,4-4-1.79-4-4-4ZM25.01,4.88c.06-1.05.93-1.88,1.99-1.88,1.1,0,2,.9,2,2s-.9,2-2,2c-.41,0-.79-.12-1.11-.33-.53-.37-.89-.98-.89-1.67,0-.04,0-.08.01-.12ZM6.11,17.67c-.32.21-.7.33-1.11.33-1.1,0-2-.9-2-2s.9-2,2-2c.41,0,.79.12,1.11.33.53.37.89.98.89,1.67s-.36,1.3-.89,1.67ZM27,29c-1.06,0-1.93-.83-1.99-1.88-.01-.04-.01-.08-.01-.12,0-.69.36-1.3.89-1.67.32-.21.7-.33,1.11-.33,1.1,0,2,.9,2,2s-.9,2-2,2Z"/>
  <rect id="transparent_rectangle" class="st0" width="32" height="32"/>
</svg>