<?xml version="1.0" encoding="UTF-8"?>
<svg id="icon82" data-name="icon" xmlns="http://www.w3.org/2000/svg" width="32" height="32" version="1.1" viewBox="0 0 32 32">
  <!-- Generator: Adobe Illustrator 29.8.2, SVG Export Plug-In . SVG Version: 2.1.1 Build 3)  -->
  <defs>
    <style>
      .st0 {
        fill: none;
      }

      .st1 {
        fill: #151515;
      }
    </style>
  </defs>
  <path class="st1" d="M24.916,9.5c-2.275-2.276-6.6-6.615-7.855-7.878-.567-.569-1.557-.568-2.122.002l-.534.536c-1.815,1.821-5.898,5.917-7.32,7.34-2.445,2.446-3.757,5.698-3.69,9.157.065,3.458,1.502,6.659,4.044,9.015,2.401,2.226,5.481,3.338,8.562,3.338,3.081,0,6.162-1.113,8.562-3.338,2.542-2.356,3.979-5.558,4.044-9.015.066-3.459-1.244-6.711-3.69-9.157ZM16,26.125c-.621,0-1.125-.504-1.125-1.125s.504-1.125,1.125-1.125c2.964,0,5.375-2.411,5.375-5.375,0-.621.504-1.125,1.125-1.125s1.125.504,1.125,1.125c0,4.205-3.421,7.625-7.625,7.625Z"/>
  <rect class="st0" width="32" height="32"/>
</svg>