<?xml version="1.0" encoding="UTF-8"?>
<svg id="icon235" data-name="icon" xmlns="http://www.w3.org/2000/svg" width="32" height="32" version="1.1" viewBox="0 0 32 32">
  <!-- Generator: Adobe Illustrator 29.8.2, SVG Export Plug-In . SVG Version: 2.1.1 Build 3)  -->
  <title>rh-ui-icon-fingerprint</title>
<metadata><?xpacket begin="﻿" id="W5M0MpCehiHzreSzNTczkc9d"?>
<x:xmpmeta xmlns:x="adobe:ns:meta/" x:xmptk="Adobe XMP Core 8.0-c001 1.000000, 0000/00/00-00:00:00        ">
   <rdf:RDF xmlns:rdf="http://www.w3.org/1999/02/22-rdf-syntax-ns#">
      <rdf:Description rdf:about=""
            xmlns:xmp="http://ns.adobe.com/xap/1.0/"
            xmlns:dc="http://purl.org/dc/elements/1.1/"
            xmlns:tiff="http://ns.adobe.com/tiff/1.0/">
         <xmp:brand-content-subtype>UI</xmp:brand-content-subtype>
         <xmp:rhcc-rights-restricted>no</xmp:rhcc-rights-restricted>
         <xmp:rhcc-file-last-modified>2025-10-14T20:46:22.758Z</xmp:rhcc-file-last-modified>
         <xmp:brand-content-type>Icon</xmp:brand-content-type>
         <xmp:brand-colorway>
            <rdf:Bag>
               <rdf:li>colorway:black</rdf:li>
            </rdf:Bag>
         </xmp:brand-colorway>
         <dc:modified>2025-10-14T20:49:47.054Z</dc:modified>
         <dc:format>image/svg+xml</dc:format>
         <dc:title>
            <rdf:Alt>
               <rdf:li xml:lang="x-default">rh-ui-icon-fingerprint</rdf:li>
            </rdf:Alt>
         </dc:title>
         <tiff:ImageLength>32</tiff:ImageLength>
         <tiff:ImageWidth>32</tiff:ImageWidth>
      </rdf:Description>
   </rdf:RDF>
</x:xmpmeta>
                                                                                                    
                                                                                                    
                                                                                                    
                                                                                                    
                                                                                                    
                                                                                                    
                                                                                                    
                                                                                                    
                                                                                                    
                                                                                                    
                                                                                                    
                                                                                                    
                                                                                                    
                                                                                                    
                                                                                                    
                                                         
<?xpacket end="w"?></metadata>
<defs>
    <style>
      .st0 {
        fill: none;
      }

      .st1 {
        fill: #151515;
      }
    </style>
  </defs>
  <path class="st1" d="M26,24c0,.553-.448,1-1,1h-3.002c-2.756,0-4.998-2.242-4.998-4.998v-4.002c0-.294-.128-.572-.353-.763-.228-.192-.517-.273-.822-.223-.462.075-.825.555-.825,1.093v.893c0,.553-.448,1-1,1s-1-.447-1-1v-.893c0-1.516,1.076-2.835,2.503-3.067.878-.143,1.768.103,2.439.674.672.571,1.058,1.404,1.058,2.286v4.002c0,1.653,1.345,2.998,2.998,2.998h3.002c.552,0,1,.447,1,1ZM22,27h-2c-2.757,0-5-2.243-5-5,0-.553-.448-1-1-1s-1,.447-1,1c0,3.859,3.14,7,7,7h2c.552,0,1-.447,1-1s-.448-1-1-1ZM25,18c-1.103,0-2-.897-2-2,0-3.859-3.14-7-7-7s-7,3.141-7,7v4c0,.553.448,1,1,1s1-.447,1-1v-4c0-2.757,2.243-5,5-5s5,2.243,5,5c0,2.206,1.794,4,4,4,.552,0,1-.447,1-1s-.448-1-1-1ZM16,5c-1.748,0-3.432.367-5.006,1.092-.502.23-.721.824-.49,1.326s.826.723,1.326.49c1.31-.603,2.713-.908,4.17-.908,4.828,0,8.964,3.44,9.835,8.181.088.482.509.819.982.819.06,0,.121-.005.182-.017.543-.1.903-.621.803-1.164-1.045-5.689-6.009-9.819-11.802-9.819ZM6.654,11.109c-.492-.251-1.094-.056-1.346.436-.868,1.699-1.309,3.534-1.309,5.455,0,.367.017.731.049,1.09.047.52.483.91.995.91.03,0,.061,0,.091-.004.55-.05.956-.536.906-1.086-.027-.3-.041-.604-.041-.91,0-1.601.367-3.13,1.09-4.545.251-.492.056-1.094-.436-1.346ZM4.819,8c.275,0,.548-.112.746-.333,2.655-2.966,6.458-4.667,10.435-4.667,1.602,0,3.171.268,4.667.796.518.183,1.092-.088,1.276-.609.184-.521-.089-1.092-.61-1.275-1.709-.604-3.504-.911-5.333-.911-4.545,0-8.892,1.943-11.925,5.333-.368.411-.333,1.044.078,1.412.191.171.429.255.667.255ZM13.5,29.135c-1.542-.893-2.5-2.552-2.5-4.332,0-.553-.448-1-1-1s-1,.447-1,1c0,2.491,1.341,4.814,3.5,6.062.158.092.33.135.5.135.345,0,.681-.179.867-.499.276-.479.113-1.09-.365-1.366Z"/>
  <rect id="transparent_rectangle" class="st0" width="32" height="32"/>
</svg>