<?xml version="1.0" encoding="UTF-8"?>
<svg id="icon267" data-name="icon" xmlns="http://www.w3.org/2000/svg" width="32" height="32" version="1.1" viewBox="0 0 32 32">
  <!-- Generator: Adobe Illustrator 29.8.2, SVG Export Plug-In . SVG Version: 2.1.1 Build 3)  -->
  <defs>
    <style>
      .st0 {
        fill: none;
      }

      .st1 {
        fill: #151515;
      }
    </style>
  </defs>
  <path class="st1" d="M16,1C7.729,1,1,7.729,1,16s6.729,15,15,15,15-6.729,15-15S24.271,1,16,1ZM16,29c-7.168,0-13-5.832-13-13S8.832,3,16,3s13,5.832,13,13-5.832,13-13,13ZM21,12c0,2.415-1.721,4.435-4,4.899v2.101c0,.552-.448,1-1,1s-1-.448-1-1v-3c0-.552.448-1,1-1,1.654,0,3-1.346,3-3s-1.346-3-3-3-3,1.346-3,3c0,.552-.448,1-1,1s-1-.448-1-1c0-2.757,2.243-5,5-5s5,2.243,5,5ZM17.75,24c0,.966-.784,1.75-1.75,1.75s-1.75-.784-1.75-1.75.784-1.75,1.75-1.75,1.75.784,1.75,1.75Z"/>
  <rect id="transparent_rectangle" class="st0" width="32" height="32"/>
</svg>