<?xml version="1.0" encoding="UTF-8"?>
<svg id="icon43" data-name="icon" xmlns="http://www.w3.org/2000/svg" width="32" height="32" version="1.1" viewBox="0 0 32 32">
  <!-- Generator: Adobe Illustrator 29.8.2, SVG Export Plug-In . SVG Version: 2.1.1 Build 3)  -->
  <defs>
    <style>
      .st0 {
        fill: none;
      }

      .st1 {
        fill: #151515;
      }
    </style>
  </defs>
  <path class="st1" d="M29.793,25c0,.4-.156.777-.439,1.061l-1.526,1.526c-1.606,1.607-3.717,2.41-5.828,2.41s-4.221-.803-5.828-2.41L4.414,15.827c-1.557-1.556-2.414-3.626-2.414-5.828s.857-4.271,2.414-5.828l1.526-1.526c.585-.585,1.536-.585,2.121,0l4.293,4.293c.283.283.439.66.439,1.061s-.156.777-.439,1.061l-2.939,2.939,10.586,10.586,2.939-2.939c.566-.566,1.555-.566,2.121,0l4.293,4.293c.283.283.439.66.439,1.061Z"/>
  <rect class="st0" width="32" height="32"/>
</svg>