<?xml version="1.0" encoding="UTF-8"?>
<svg id="icon10" data-name="icon" xmlns="http://www.w3.org/2000/svg" width="32" height="32" version="1.1" viewBox="0 0 32 32">
  <!-- Generator: Adobe Illustrator 29.8.2, SVG Export Plug-In . SVG Version: 2.1.1 Build 3)  -->
  <title>rh-ui-icon-light-mode-fill</title>
<desc>sun, moon, starburst, automatic, system settings, daylight, night</desc>
<metadata><?xpacket begin="﻿" id="W5M0MpCehiHzreSzNTczkc9d"?>
<x:xmpmeta xmlns:x="adobe:ns:meta/" x:xmptk="Adobe XMP Core 8.0-c001 1.000000, 0000/00/00-00:00:00        ">
   <rdf:RDF xmlns:rdf="http://www.w3.org/1999/02/22-rdf-syntax-ns#">
      <rdf:Description rdf:about=""
            xmlns:dc="http://purl.org/dc/elements/1.1/"
            xmlns:xmp="http://ns.adobe.com/xap/1.0/"
            xmlns:tiff="http://ns.adobe.com/tiff/1.0/">
         <dc:modified>2025-02-18T21:27:51.553Z</dc:modified>
         <dc:format>image/svg+xml</dc:format>
         <dc:title>
            <rdf:Alt>
               <rdf:li xml:lang="x-default">rh-ui-icon-light-mode-fill</rdf:li>
            </rdf:Alt>
         </dc:title>
         <dc:description>
            <rdf:Alt>
               <rdf:li xml:lang="x-default">sun, moon, starburst, automatic, system settings, daylight, night</rdf:li>
            </rdf:Alt>
         </dc:description>
         <xmp:brand-logo-color>Black</xmp:brand-logo-color>
         <xmp:rhcc-file-last-modified>2025-02-18T21:14:29.827Z</xmp:rhcc-file-last-modified>
         <xmp:rhcc-aspect-ratio>square</xmp:rhcc-aspect-ratio>
         <xmp:brand-content-subtype>UI</xmp:brand-content-subtype>
         <xmp:rhcc-rights-restricted>no</xmp:rhcc-rights-restricted>
         <xmp:brand-content-type>Icon</xmp:brand-content-type>
         <xmp:brand-colorway>
            <rdf:Bag>
               <rdf:li>colorway:black</rdf:li>
            </rdf:Bag>
         </xmp:brand-colorway>
         <tiff:ImageLength>32</tiff:ImageLength>
         <tiff:ImageWidth>32</tiff:ImageWidth>
      </rdf:Description>
   </rdf:RDF>
</x:xmpmeta>
                                                                                                    
                                                                                                    
                                                                                                    
                                                                                                    
                                                                                                    
                                                                                                    
                                                                                                    
                                                                                                    
                                                                                                    
                                                                                                    
                                                                                                    
                                                                                                    
                                                                                                    
                                                                                                    
                                                                                                    
                                                                                                    
                                                                                                    
                                                                                                    
                                                                                                    
                                                                                                    
                           
<?xpacket end="w"?></metadata>
<defs>
    <style>
      .st0 {
        fill: none;
      }

      .st1 {
        fill: #151515;
      }
    </style>
  </defs>
  <path class="st1" d="M25,16c0,4.962-4.037,9-9,9s-9-4.038-9-9,4.037-9,9-9,9,4.038,9,9ZM16,5c.553,0,1-.448,1-1V1c0-.552-.447-1-1-1s-1,.448-1,1v3c0,.552.447,1,1,1ZM16,27c-.553,0-1,.448-1,1v3c0,.552.447,1,1,1s1-.448,1-1v-3c0-.552-.447-1-1-1ZM31,15h-3c-.553,0-1,.448-1,1s.447,1,1,1h3c.553,0,1-.448,1-1s-.447-1-1-1ZM5,16c0-.552-.447-1-1-1H1c-.553,0-1,.448-1,1s.447,1,1,1h3c.553,0,1-.448,1-1ZM6.293,24.293l-2,2c-.391.391-.391,1.023,0,1.414.195.195.451.293.707.293s.512-.098.707-.293l2-2c.391-.391.391-1.023,0-1.414s-1.023-.391-1.414,0ZM25,8c.256,0,.512-.098.707-.293l2-2c.391-.391.391-1.023,0-1.414s-1.023-.391-1.414,0l-2,2c-.391.391-.391,1.023,0,1.414.195.195.451.293.707.293ZM6.293,7.707c.195.195.451.293.707.293s.512-.098.707-.293c.391-.391.391-1.023,0-1.414l-2-2c-.391-.391-1.023-.391-1.414,0s-.391,1.023,0,1.414l2,2ZM25.707,24.293c-.391-.391-1.023-.391-1.414,0s-.391,1.023,0,1.414l2,2c.195.195.451.293.707.293s.512-.098.707-.293c.391-.391.391-1.023,0-1.414l-2-2Z"/>
  <rect class="st0" width="32" height="32"/>
</svg>