<?xml version="1.0" encoding="UTF-8"?>
<svg id="icon79" data-name="icon" xmlns="http://www.w3.org/2000/svg" width="32" height="32" version="1.1" viewBox="0 0 32 32">
  <!-- Generator: Adobe Illustrator 29.8.2, SVG Export Plug-In . SVG Version: 2.1.1 Build 3)  -->
  <defs>
    <style>
      .st0 {
        fill: none;
      }

      .st1 {
        fill: #151515;
      }
    </style>
  </defs>
  <path class="st1" d="M21.402,18.095c0,2.001-.781,3.884-2.198,5.302l-5.398,5.41c-1.428,1.416-3.312,2.193-5.309,2.193s-3.88-.778-5.304-2.19c-2.919-2.93-2.919-7.69-.004-10.616l2.912-2.903c.392-.391,1.024-.388,1.414.002.391.392.389,1.024-.002,1.415l-2.91,2.9c-2.137,2.145-2.137,5.639.002,7.786,1.043,1.034,2.427,1.605,3.892,1.605s2.85-.572,3.896-1.61l5.396-5.407c1.04-1.04,1.613-2.421,1.613-3.888s-.573-2.849-1.612-3.888c-.387-.387-.802-.696-1.267-.946-.486-.261-.669-.868-.407-1.354.261-.486.864-.671,1.354-.408.63.338,1.214.774,1.733,1.294,1.417,1.417,2.198,3.3,2.198,5.302ZM25.898,16.708l2.912-2.903c2.915-2.925,2.915-7.686-.004-10.616-1.424-1.412-3.308-2.19-5.304-2.19s-3.881.778-5.309,2.193l-5.398,5.41c-1.417,1.417-2.198,3.3-2.198,5.302s.781,3.885,2.198,5.302c.52.52,1.104.956,1.733,1.294.151.081.313.119.473.119.356,0,.701-.191.882-.527.262-.486.079-1.093-.407-1.354-.465-.25-.88-.559-1.267-.946-1.039-1.04-1.612-2.42-1.612-3.888s.573-2.848,1.613-3.888l5.396-5.407c1.047-1.038,2.431-1.61,3.896-1.61s2.849.572,3.892,1.605c2.139,2.147,2.139,5.642.002,7.786l-2.91,2.9c-.391.39-.393,1.023-.002,1.415.389.39,1.021.392,1.414.002ZM3,11h3c.553,0,1-.448,1-1s-.447-1-1-1h-3c-.553,0-1,.448-1,1s.447,1,1,1ZM10,7c.553,0,1-.448,1-1v-3c0-.552-.447-1-1-1s-1,.448-1,1v3c0,.552.447,1,1,1ZM5.293,6.707c.195.195.451.293.707.293s.512-.098.707-.293c.391-.391.391-1.023,0-1.414l-2-2c-.391-.391-1.023-.391-1.414,0s-.391,1.023,0,1.414l2,2ZM29,21h-3c-.553,0-1,.448-1,1s.447,1,1,1h3c.553,0,1-.448,1-1s-.447-1-1-1ZM22,25c-.553,0-1,.448-1,1v3c0,.552.447,1,1,1s1-.448,1-1v-3c0-.552-.447-1-1-1ZM26.675,25.262c-.406-.374-1.04-.345-1.413.063-.372.408-.344,1.04.063,1.413l2,1.829c.191.176.434.262.675.262.271,0,.541-.109.738-.325.372-.408.344-1.04-.063-1.413l-2-1.829Z"/>
  <rect id="transparent_rectangle" class="st0" width="32" height="32"/>
</svg>