<?xml version="1.0" encoding="UTF-8"?>
<svg id="icon72" data-name="icon" xmlns="http://www.w3.org/2000/svg" width="32" height="32" version="1.1" viewBox="0 0 32 32">
  <!-- Generator: Adobe Illustrator 29.8.2, SVG Export Plug-In . SVG Version: 2.1.1 Build 3)  -->
  <defs>
    <style>
      .st0 {
        fill: none;
      }

      .st1 {
        fill: #151515;
      }
    </style>
  </defs>
  <path class="st1" d="M28.5,2H3.5c-.827,0-1.5.673-1.5,1.5v25c0,.827.673,1.5,1.5,1.5h25c.827,0,1.5-.673,1.5-1.5V3.5c0-.827-.673-1.5-1.5-1.5ZM14,5.875h4c.621,0,1.125.504,1.125,1.125s-.504,1.125-1.125,1.125h-4c-.621,0-1.125-.504-1.125-1.125s.504-1.125,1.125-1.125ZM25,24c0,.552-.448,1-1,1h-2v-4c0-.552-.448-1-1-1s-1,.448-1,1v4h-3v-4c0-.552-.448-1-1-1s-1,.448-1,1v4h-3v-4c0-.552-.448-1-1-1s-1,.448-1,1v4h-2c-.552,0-1-.448-1-1v-9.25c0-.552.448-1,1-1h3v-1.75c0-.552.448-1,1-1h8c.552,0,1,.448,1,1v1.75h3c.552,0,1,.448,1,1v9.25Z"/>
  <rect class="st0" width="32" height="32"/>
</svg>