<?xml version="1.0" encoding="UTF-8"?>
<svg id="icon214" data-name="icon" xmlns="http://www.w3.org/2000/svg" width="32" height="32" version="1.1" viewBox="0 0 32 32">
  <!-- Generator: Adobe Illustrator 29.8.2, SVG Export Plug-In . SVG Version: 2.1.1 Build 3)  -->
  <title>rh-ui-icon-develop-and-train</title>
<metadata><?xpacket begin="﻿" id="W5M0MpCehiHzreSzNTczkc9d"?>
<x:xmpmeta xmlns:x="adobe:ns:meta/" x:xmptk="Adobe XMP Core 8.0-c001 1.000000, 0000/00/00-00:00:00        ">
   <rdf:RDF xmlns:rdf="http://www.w3.org/1999/02/22-rdf-syntax-ns#">
      <rdf:Description rdf:about=""
            xmlns:xmp="http://ns.adobe.com/xap/1.0/"
            xmlns:dc="http://purl.org/dc/elements/1.1/"
            xmlns:tiff="http://ns.adobe.com/tiff/1.0/">
         <xmp:brand-content-subtype>UI</xmp:brand-content-subtype>
         <xmp:rhcc-rights-restricted>no</xmp:rhcc-rights-restricted>
         <xmp:rhcc-file-last-modified>2025-10-14T20:46:13.843Z</xmp:rhcc-file-last-modified>
         <xmp:brand-content-type>Icon</xmp:brand-content-type>
         <xmp:brand-colorway>
            <rdf:Bag>
               <rdf:li>colorway:black</rdf:li>
            </rdf:Bag>
         </xmp:brand-colorway>
         <dc:modified>2025-10-14T20:49:08.658Z</dc:modified>
         <dc:format>image/svg+xml</dc:format>
         <dc:title>
            <rdf:Alt>
               <rdf:li xml:lang="x-default">rh-ui-icon-develop-and-train</rdf:li>
            </rdf:Alt>
         </dc:title>
         <tiff:ImageLength>32</tiff:ImageLength>
         <tiff:ImageWidth>32</tiff:ImageWidth>
      </rdf:Description>
   </rdf:RDF>
</x:xmpmeta>
                                                                                                    
                                                                                                    
                                                                                                    
                                                                                                    
                                                                                                    
                                                                                                    
                                                                                                    
                                                                                                    
                                                                                                    
                                                                                                    
                                                                                                    
                                                                                                    
                                                                                                    
                                                                                                    
                                                                                                    
                                                                                                    
                                                                                                    
           
<?xpacket end="w"?></metadata>
<defs>
    <style>
      .st0 {
        fill: none;
      }

      .st1 {
        fill: #151515;
      }
    </style>
  </defs>
  <path class="st1" d="M31.398,29.312c-.687,1.058-1.85,1.688-3.11,1.688H11.711c-1.261,0-2.423-.631-3.109-1.688s-.791-2.377-.277-3.529l1.42-3.188c.224-.504.815-.733,1.319-.507.505.225.731.815.507,1.319l-1.42,3.189c-.239.539-.192,1.132.128,1.627.321.494.844.777,1.433.777h16.577c.59,0,1.112-.283,1.434-.778.32-.494.367-1.087.128-1.626l-2.937-6.596h-5.913c-.553,0-1-.447-1-1s.447-1,1-1h5.023l-2.936-6.594c-.058-.128-.087-.266-.087-.406V2.5c0-.827.673-1.5,1.5-1.5h1.5c.553,0,1,.447,1,1s-.447,1-1,1h-1v7.787l6.676,14.996c.514,1.151.409,2.471-.277,3.528ZM15,3h1v7c0,.553.447,1,1,1s1-.447,1-1V2.5c0-.827-.673-1.5-1.5-1.5h-1.5c-.553,0-1,.447-1,1s.447,1,1,1ZM6,7c0-2.206,1.794-4,4-4s4,1.794,4,4-1.794,4-4,4-4-1.794-4-4ZM8,7c0,1.103.897,2,2,2s2-.897,2-2-.897-2-2-2-2,.897-2,2ZM6,21c-2.206,0-4-1.794-4-4s1.794-4,4-4,4,1.794,4,4-1.794,4-4,4ZM8,17c0-1.103-.897-2-2-2s-2,.897-2,2,.897,2,2,2,2-.897,2-2ZM3,11c.553,0,1-.447,1-1v-6c0-.553-.447-1-1-1s-1,.447-1,1v6c0,.553.447,1,1,1ZM17,13c-.553,0-1,.447-1,1v6c0,.553.447,1,1,1s1-.447,1-1v-6c0-.553-.447-1-1-1ZM12,14v6c0,.553.447,1,1,1s1-.447,1-1v-6c0-.553-.447-1-1-1s-1,.447-1,1Z"/>
  <rect id="transparent_rectangle" class="st0" width="32" height="32"/>
</svg>