<?xml version="1.0" encoding="UTF-8"?>
<svg id="icon283" data-name="icon" xmlns="http://www.w3.org/2000/svg" width="32" height="32" version="1.1" viewBox="0 0 32 32">
  <!-- Generator: Adobe Illustrator 29.8.2, SVG Export Plug-In . SVG Version: 2.1.1 Build 3)  -->
  <title>rh-ui-icon-module</title>
<metadata><?xpacket begin="﻿" id="W5M0MpCehiHzreSzNTczkc9d"?>
<x:xmpmeta xmlns:x="adobe:ns:meta/" x:xmptk="Adobe XMP Core 8.0-c001 1.000000, 0000/00/00-00:00:00        ">
   <rdf:RDF xmlns:rdf="http://www.w3.org/1999/02/22-rdf-syntax-ns#">
      <rdf:Description rdf:about=""
            xmlns:xmp="http://ns.adobe.com/xap/1.0/"
            xmlns:dc="http://purl.org/dc/elements/1.1/"
            xmlns:tiff="http://ns.adobe.com/tiff/1.0/">
         <xmp:brand-content-subtype>UI</xmp:brand-content-subtype>
         <xmp:rhcc-rights-restricted>no</xmp:rhcc-rights-restricted>
         <xmp:rhcc-file-last-modified>2025-10-14T20:46:28.248Z</xmp:rhcc-file-last-modified>
         <xmp:brand-content-type>Icon</xmp:brand-content-type>
         <xmp:brand-colorway>
            <rdf:Bag>
               <rdf:li>colorway:black</rdf:li>
            </rdf:Bag>
         </xmp:brand-colorway>
         <dc:modified>2025-10-14T20:49:46.813Z</dc:modified>
         <dc:format>image/svg+xml</dc:format>
         <dc:title>
            <rdf:Alt>
               <rdf:li xml:lang="x-default">rh-ui-icon-module</rdf:li>
            </rdf:Alt>
         </dc:title>
         <tiff:ImageLength>32</tiff:ImageLength>
         <tiff:ImageWidth>32</tiff:ImageWidth>
      </rdf:Description>
   </rdf:RDF>
</x:xmpmeta>
                                                                                                    
                                                                                                    
                                                                                                    
                                                                                                    
                                                                                                    
                                                                                                    
                                                                                                    
                                                                                                    
                                                                                                    
                                                                                                    
                                                                                                    
                                                                                                    
                                                                                                    
                                                                                                    
                                                                                                    
                                                              
<?xpacket end="w"?></metadata>
<defs>
    <style>
      .st0 {
        fill: none;
      }

      .st1 {
        fill: #151515;
      }
    </style>
  </defs>
  <path class="st1" d="M29.5,17.01l-6-3.464v-6.926c0-.357-.19-.688-.5-.866l-6.5-3.753c-.31-.178-.69-.178-1,0l-6.5,3.753c-.31.179-.5.509-.5.866v6.926l-6,3.464c-.31.179-.5.509-.5.866v7.505c0,.357.19.688.5.866l6.5,3.753c.155.089.327.134.5.134s.345-.045.5-.134l6-3.464,6,3.464c.155.089.327.134.5.134s.345-.045.5-.134l6.5-3.753c.31-.179.5-.509.5-.866v-7.505c0-.357-.19-.688-.5-.866ZM16,4.021l5.5,3.176v6.349l-5.5,3.176-5.5-3.176v-6.349l5.5-3.176ZM9.5,27.979l-5.5-3.176v-6.351l5.499-3.175,5.501,3.176v6.349l-5.5,3.176ZM28,24.804l-5.5,3.176-5.5-3.176v-6.349l5.501-3.176,5.499,3.175v6.351Z"/>
  <rect id="transparent_rectangle" class="st0" width="32" height="32"/>
</svg>