<?xml version="1.0" encoding="UTF-8"?>
<svg id="icon37" data-name="icon" xmlns="http://www.w3.org/2000/svg" width="32" height="32" version="1.1" viewBox="0 0 32 32">
  <!-- Generator: Adobe Illustrator 29.8.2, SVG Export Plug-In . SVG Version: 2.1.1 Build 3)  -->
  <defs>
    <style>
      .st0 {
        fill: none;
      }

      .st1 {
        fill: #151515;
      }
    </style>
  </defs>
  <path class="st1" d="M28,7v22.607c0,.768-.622,1.393-1.387,1.393H10c-.553,0-1-.448-1-1s.447-1,1-1h16V7c0-.552.447-1,1-1s1,.448,1,1ZM21.5,26H5.5c-.827,0-1.5-.673-1.5-1.5V8c0-.133.027-.264.078-.385.051-.122.124-.231.216-.323L10.292,1.294c.092-.092.201-.165.323-.216.121-.051.251-.078.385-.078h10.5c.827,0,1.5.673,1.5,1.5v22c0,.827-.673,1.5-1.5,1.5ZM7.414,7h2.586v-2.586l-2.586,2.586ZM21,3h-9v4.614c0,.764-.622,1.386-1.387,1.386h-4.613v15h15V3Z"/>
  <rect id="transparent_rectangle" class="st0" width="32" height="32"/>
</svg>