<?xml version="1.0" encoding="UTF-8"?>
<svg id="icon117" data-name="icon" xmlns="http://www.w3.org/2000/svg" width="32" height="32" version="1.1" viewBox="0 0 32 32">
  <!-- Generator: Adobe Illustrator 29.8.2, SVG Export Plug-In . SVG Version: 2.1.1 Build 3)  -->
  <title>rh-ui-icon-ai-model-fill</title>
<metadata><?xpacket begin="﻿" id="W5M0MpCehiHzreSzNTczkc9d"?>
<x:xmpmeta xmlns:x="adobe:ns:meta/" x:xmptk="Adobe XMP Core 8.0-c001 1.000000, 0000/00/00-00:00:00        ">
   <rdf:RDF xmlns:rdf="http://www.w3.org/1999/02/22-rdf-syntax-ns#">
      <rdf:Description rdf:about=""
            xmlns:dc="http://purl.org/dc/elements/1.1/"
            xmlns:xmp="http://ns.adobe.com/xap/1.0/"
            xmlns:tiff="http://ns.adobe.com/tiff/1.0/">
         <dc:format>image/svg+xml</dc:format>
         <dc:modified>2025-10-14T20:49:18.035Z</dc:modified>
         <dc:title>
            <rdf:Alt>
               <rdf:li xml:lang="x-default">rh-ui-icon-ai-model-fill</rdf:li>
            </rdf:Alt>
         </dc:title>
         <xmp:brand-content-type>Icon</xmp:brand-content-type>
         <xmp:rhcc-file-last-modified>2025-10-14T20:44:19.829Z</xmp:rhcc-file-last-modified>
         <xmp:brand-content-subtype>UI</xmp:brand-content-subtype>
         <xmp:rhcc-rights-restricted>no</xmp:rhcc-rights-restricted>
         <xmp:brand-colorway>
            <rdf:Bag>
               <rdf:li>colorway:black</rdf:li>
            </rdf:Bag>
         </xmp:brand-colorway>
         <tiff:ImageWidth>32</tiff:ImageWidth>
         <tiff:ImageLength>32</tiff:ImageLength>
      </rdf:Description>
   </rdf:RDF>
</x:xmpmeta>
                                                                                                    
                                                                                                    
                                                                                                    
                                                                                                    
                                                                                                    
                                                                                                    
                                                                                                    
                                                                                                    
                                                                                                    
                                                                                                    
                                                                                                    
                                                                                                    
                                                                                                    
                                                                                                    
                                                                                                    
                                                       
<?xpacket end="w"?></metadata>
<defs>
    <style>
      .st0 {
        fill: none;
      }

      .st1 {
        fill: #151515;
      }
    </style>
  </defs>
  <path class="st1" d="M25.25,8h3.5c.689,0,1.25-.561,1.25-1.25v-3.5c0-.689-.561-1.25-1.25-1.25h-3.5c-.689,0-1.25.561-1.25,1.25v.875H8v-.875c0-.689-.561-1.25-1.25-1.25h-3.5c-.689,0-1.25.561-1.25,1.25v3.5c0,.689.561,1.25,1.25,1.25h3.5s.006-.002.01-.002l6.242,6.242s-.002.007-.002.01v.875h-5v-.875c0-.689-.561-1.25-1.25-1.25h-3.5c-.689,0-1.25.561-1.25,1.25v3.5c0,.689.561,1.25,1.25,1.25h3.5c.689,0,1.25-.561,1.25-1.25v-.875h5v.875s.002.007.002.01l-6.242,6.242s-.006-.002-.01-.002h-3.5c-.689,0-1.25.561-1.25,1.25v3.5c0,.689.561,1.25,1.25,1.25h3.5c.689,0,1.25-.561,1.25-1.25v-.875h16v.875c0,.689.561,1.25,1.25,1.25h3.5c.689,0,1.25-.561,1.25-1.25v-3.5c0-.689-.561-1.25-1.25-1.25h-3.5s-.006.002-.01.002l-6.242-6.242s.002-.007.002-.01v-.875h5v.875c0,.689.561,1.25,1.25,1.25h3.5c.689,0,1.25-.561,1.25-1.25v-3.5c0-.689-.561-1.25-1.25-1.25h-3.5c-.689,0-1.25.561-1.25,1.25v.875h-5v-.875s-.002-.007-.002-.01l6.242-6.242s.006.002.01.002ZM24,5.875v.875s.002.007.002.011l-6.242,6.242s-.007-.002-.011-.002h-3.5s-.007.002-.011.002l-6.242-6.242s.002-.007.002-.011v-.875h16ZM8,26.125v-.875s-.002-.007-.002-.011l6.242-6.242s.007.002.011.002h3.5s.007-.002.011-.002l6.242,6.242s-.002.007-.002.011v.875H8Z"/>
  <rect class="st0" width="32" height="32"/>
</svg>