<?xml version="1.0" encoding="UTF-8"?>
<svg id="icon137" data-name="icon" xmlns="http://www.w3.org/2000/svg" width="32" height="32" version="1.1" viewBox="0 0 32 32">
  <!-- Generator: Adobe Illustrator 29.8.2, SVG Export Plug-In . SVG Version: 2.1.1 Build 3)  -->
  <defs>
    <style>
      .st0 {
        fill: none;
      }

      .st1 {
        fill: #151515;
      }
    </style>
  </defs>
  <path class="st1" d="M30.995,15.963c0-.027-.008-.052-.011-.079-.005-.034-.005-.071-.014-.103-.008-.053-.031-.097-.053-.143-.011-.028-.009-.057-.023-.084l-4-8c-.17-.339-.516-.553-.895-.553h-5v-1.5c0-.83-.67-1.5-1.5-1.5H2.5c-.83,0-1.5.67-1.5,1.5v16c0,.83.67,1.5,1.5,1.5h.63c-.09.32-.13.65-.13,1,0,2.21,1.79,4,4,4s4-1.79,4-4c0-.35-.04-.68-.13-1h10.26c-.09.32-.13.65-.13,1,0,2.21,1.79,4,4,4s4-1.79,4-4c0-.35-.04-.68-.13-1h.63c.83,0,1.5-.67,1.5-1.5v-5.5c0-.014-.005-.024-.005-.037ZM7,26c-1.1,0-2-.9-2-2,0-.36.1-.71.27-1,.35-.6.99-1,1.73-1s1.38.4,1.73,1c.17.29.27.64.27,1,0,1.1-.9,2-2,2ZM19,16v5h-9.36c-.71-.62-1.63-1-2.64-1s-1.93.38-2.64,1h-1.36V6h16v10ZM21,9h4.382l3,6h-7.382v-6ZM25,26c-1.1,0-2-.9-2-2,0-.36.1-.71.27-1,.35-.6.99-1,1.73-1s1.38.4,1.73,1c.17.29.27.64.27,1,0,1.1-.9,2-2,2ZM29,21h-1.36c-.71-.62-1.63-1-2.64-1s-1.93.38-2.64,1h-1.36v-4h8v4Z"/>
  <rect id="transparent_rectangle" class="st0" width="32" height="32"/>
</svg>