<?xml version="1.0" encoding="UTF-8"?>
<svg id="icon263" data-name="icon" xmlns="http://www.w3.org/2000/svg" width="32" height="32" version="1.1" viewBox="0 0 32 32">
  <!-- Generator: Adobe Illustrator 29.8.2, SVG Export Plug-In . SVG Version: 2.1.1 Build 3)  -->
  <defs>
    <style>
      .st0 {
        fill: none;
      }

      .st1 {
        fill: #151515;
      }
    </style>
  </defs>
  <path class="st1" d="M11.293,6.707c-.391-.391-.391-1.023,0-1.414l3.646-3.646c.585-.585,1.536-.585,2.121,0l3.646,3.646c.391.391.391,1.023,0,1.414-.195.195-.451.293-.707.293s-.512-.098-.707-.293l-2.293-2.293v7.586c0,.552-.448,1-1,1s-1-.448-1-1v-7.586l-2.293,2.293c-.391.391-1.023.391-1.414,0ZM31,17.5v11c0,.827-.673,1.5-1.5,1.5H2.5c-.827,0-1.5-.673-1.5-1.5v-11c0-.827.673-1.5,1.5-1.5h27c.827,0,1.5.673,1.5,1.5ZM29,18H3v10h26v-10ZM8,24h5c.552,0,1-.448,1-1s-.448-1-1-1h-5c-.552,0-1,.448-1,1s.448,1,1,1ZM23.005,24.64c.897,0,1.625-.728,1.625-1.625,0-.003,0-.005,0-.008,0-.003,0-.005,0-.007,0-.43-.18-.85-.48-1.15-.131-.129-.286-.224-.451-.298-.025-.012-.049-.027-.075-.038-.013-.005-.027-.008-.04-.012-.18-.069-.374-.111-.579-.111-.143,0-.278.024-.41.059-.277.066-.539.195-.745.401-.3.31-.47.72-.47,1.15,0,.003,0,.005,0,.008,0,.003,0,.005,0,.007,0,.897.728,1.625,1.625,1.625Z"/>
  <rect id="transparent_rectangle" class="st0" width="32" height="32"/>
</svg>