<?xml version="1.0" encoding="UTF-8"?>
<svg id="icon69" data-name="icon" xmlns="http://www.w3.org/2000/svg" width="32" height="32" version="1.1" viewBox="0 0 32 32">
  <!-- Generator: Adobe Illustrator 29.8.2, SVG Export Plug-In . SVG Version: 2.1.1 Build 3)  -->
  <defs>
    <style>
      .st0 {
        fill: none;
      }

      .st1 {
        fill: #151515;
      }
    </style>
  </defs>
  <path class="st1" d="M12.25,5c0-2.068,1.683-3.75,3.75-3.75s3.75,1.682,3.75,3.75-1.683,3.75-3.75,3.75-3.75-1.682-3.75-3.75ZM16,12.25c-2.067,0-3.75,1.682-3.75,3.75s1.683,3.75,3.75,3.75,3.75-1.682,3.75-3.75-1.683-3.75-3.75-3.75ZM16,23.25c-2.067,0-3.75,1.682-3.75,3.75s1.683,3.75,3.75,3.75,3.75-1.682,3.75-3.75-1.683-3.75-3.75-3.75Z"/>
  <rect class="st0" width="32" height="32"/>
</svg>