<?xml version="1.0" encoding="UTF-8"?>
<svg id="icon171" data-name="icon" xmlns="http://www.w3.org/2000/svg" width="32" height="32" version="1.1" viewBox="0 0 32 32">
  <!-- Generator: Adobe Illustrator 29.8.2, SVG Export Plug-In . SVG Version: 2.1.1 Build 3)  -->
  <defs>
    <style>
      .st0 {
        fill: none;
      }

      .st1 {
        fill: #151515;
      }
    </style>
  </defs>
  <path class="st1" d="M11.293,8.707c-.391-.391-.391-1.023,0-1.414s1.023-.391,1.414,0l2.293,2.293V2c0-.552.448-1,1-1s1,.448,1,1v7.586l2.293-2.293c.391-.391,1.023-.391,1.414,0s.391,1.023,0,1.414l-3.646,3.646c-.292.292-.676.438-1.061.438s-.768-.146-1.061-.438l-3.646-3.646ZM31,17.5v11c0,.827-.673,1.5-1.5,1.5H2.5c-.827,0-1.5-.673-1.5-1.5v-11c0-.827.673-1.5,1.5-1.5h27c.827,0,1.5.673,1.5,1.5ZM14.125,23c0-.621-.504-1.125-1.125-1.125h-5c-.621,0-1.125.504-1.125,1.125s.504,1.125,1.125,1.125h5c.621,0,1.125-.504,1.125-1.125ZM24.88,23.016c0-1.036-.839-1.875-1.875-1.875s-1.875.839-1.875,1.875.839,1.875,1.875,1.875,1.875-.839,1.875-1.875Z"/>
  <rect class="st0" width="32" height="32"/>
</svg>