<?xml version="1.0" encoding="UTF-8"?>
<svg id="icon90" data-name="icon" xmlns="http://www.w3.org/2000/svg" width="32" height="32" version="1.1" viewBox="0 0 32 32">
  <!-- Generator: Adobe Illustrator 29.8.2, SVG Export Plug-In . SVG Version: 2.1.1 Build 3)  -->
  <defs>
    <style>
      .st0 {
        fill: none;
      }

      .st1 {
        fill: #151515;
      }
    </style>
  </defs>
  <path class="st1" d="M20,25v3.5c0,.827-.673,1.5-1.5,1.5H3.5c-.827,0-1.5-.673-1.5-1.5v-15c0-.827.673-1.5,1.5-1.5h6.5c.552,0,1,.448,1,1s-.448,1-1,1h-6v14h14v-3c0-.552.448-1,1-1s1,.448,1,1ZM28.5,2h-15c-.827,0-1.5.673-1.5,1.5v5.5c0,.552.448,1,1,1s1-.448,1-1v-5h14v14h-4c-.552,0-1,.448-1,1s.448,1,1,1h4.5c.827,0,1.5-.673,1.5-1.5V3.5c0-.827-.673-1.5-1.5-1.5ZM23.707,14.707c.391-.391.391-1.023,0-1.414l-3.646-3.646c-.585-.585-1.536-.585-2.121,0l-3.646,3.646c-.391.391-.391,1.023,0,1.414s1.023.391,1.414,0l2.293-2.293v7.586c0,.552.448,1,1,1s1-.448,1-1v-7.586l2.293,2.293c.195.195.451.293.707.293s.512-.098.707-.293Z"/>
  <rect id="transparent_rectangle" class="st0" width="32" height="32"/>
</svg>