<?xml version="1.0" encoding="UTF-8"?>
<svg id="icon26" data-name="icon" xmlns="http://www.w3.org/2000/svg" width="32" height="32" version="1.1" viewBox="0 0 32 32">
  <!-- Generator: Adobe Illustrator 29.8.2, SVG Export Plug-In . SVG Version: 2.1.1 Build 3)  -->
  <defs>
    <style>
      .st0 {
        fill: none;
      }

      .st1 {
        fill: #151515;
      }
    </style>
  </defs>
  <path class="st1" d="M26.996,14.228c.003-.077.004-.153.004-.228,0-4.962-4.037-9-9-9-3.899,0-7.333,2.532-8.54,6.156-.48-.104-.969-.156-1.46-.156-3.859,0-7,3.14-7,7s3.141,7,7,7h17.5c3.032,0,5.5-2.467,5.5-5.5,0-2.502-1.664-4.621-4.004-5.272ZM25.5,23H8c-2.757,0-5-2.243-5-5s2.243-5,5-5c.609,0,1.215.114,1.799.34.274.106.582.085.841-.056.259-.142.441-.39.5-.679.656-3.248,3.542-5.605,6.86-5.605,3.859,0,7,3.14,7,7,0,.311-.028.615-.067.916-.034.269.042.54.211.752.169.211.417.345.687.371,1.808.171,3.17,1.66,3.17,3.461,0,1.93-1.57,3.5-3.5,3.5Z"/>
  <rect id="transparent_rectangle" class="st0" width="32" height="32"/>
</svg>