<?xml version="1.0" encoding="UTF-8"?>
<svg id="icon231" data-name="icon" xmlns="http://www.w3.org/2000/svg" width="32" height="32" version="1.1" viewBox="0 0 32 32">
  <!-- Generator: Adobe Illustrator 29.8.2, SVG Export Plug-In . SVG Version: 2.1.1 Build 3)  -->
  <defs>
    <style>
      .st0 {
        fill: none;
      }

      .st1 {
        fill: #151515;
      }
    </style>
  </defs>
  <path class="st1" d="M29.684,12.112c-.572-.707-1.422-1.112-2.331-1.112h-5.353v-4.5c0-1.213-.614-2.322-1.643-2.967-1.055-.662-2.335-.712-3.515-.142-1.12.542-1.826,1.755-1.843,3.166-.031,2.45-2.05,4.443-4.5,4.443h-.592c-.207-.581-.757-1-1.408-1H3.5c-.827,0-1.5.673-1.5,1.5v16c0,.827.673,1.5,1.5,1.5h5c.651,0,1.201-.419,1.408-1h14.296c1.878,0,3.523-1.333,3.913-3.168l2.17-10.208c.188-.889-.031-1.805-.604-2.512ZM8,27h-4v-15h4v15ZM26.16,24.416c-.194.918-1.018,1.584-1.956,1.584h-14.204v-13h.5c3.539,0,6.455-2.879,6.5-6.419.006-.508.196-1.139.714-1.389.748-.362,1.312-.132,1.581.036.441.277.705.752.705,1.272v5c0,.827.673,1.5,1.5,1.5h5.853c.303,0,.586.135.777.371.19.236.264.541.2.837l-2.17,10.208Z"/>
  <rect id="transparent_rectangle" class="st0" width="32" height="32"/>
</svg>