<?xml version="1.0" encoding="UTF-8"?>
<svg id="icon72" data-name="icon" xmlns="http://www.w3.org/2000/svg" width="32" height="32" version="1.1" viewBox="0 0 32 32">
  <!-- Generator: Adobe Illustrator 29.8.2, SVG Export Plug-In . SVG Version: 2.1.1 Build 3)  -->
  <defs>
    <style>
      .st0 {
        fill: none;
      }

      .st1 {
        fill: #151515;
      }
    </style>
  </defs>
  <path class="st1" d="M2,13V3c0-.552.447-1,1-1s1,.448,1,1v10c0,.552-.447,1-1,1s-1-.448-1-1ZM29,28H4v-3c0-.552-.447-1-1-1s-1,.448-1,1v3.5c0,.827.673,1.5,1.5,1.5h25.5c.553,0,1-.448,1-1s-.447-1-1-1ZM3,21c.256,0,.512-.098.707-.293l6.293-6.293,5.939,5.939c.584.585,1.537.585,2.121,0l11.646-11.646c.391-.391.391-1.023,0-1.414s-1.023-.391-1.414,0l-11.293,11.293-5.939-5.939c-.584-.585-1.537-.585-2.121,0l-6.646,6.646c-.391.391-.391,1.023,0,1.414.195.195.451.293.707.293Z"/>
  <rect id="transparent_rectangle" class="st0" width="32" height="32"/>
</svg>