<?xml version="1.0" encoding="UTF-8"?>
<svg id="icon61" data-name="icon" xmlns="http://www.w3.org/2000/svg" width="32" height="32" version="1.1" viewBox="0 0 32 32">
  <!-- Generator: Adobe Illustrator 29.8.2, SVG Export Plug-In . SVG Version: 2.1.1 Build 3)  -->
  <defs>
    <style>
      .st0 {
        fill: none;
      }

      .st1 {
        fill: #151515;
      }
    </style>
  </defs>
  <path class="st1" d="M29.924,16.617c.155.374.069.804-.217,1.09l-12.646,12.646c-.292.292-.677.438-1.061.438s-.769-.146-1.061-.438L2.293,17.707c-.286-.286-.372-.716-.217-1.09.154-.374.52-.617.924-.617h8c.266,0,.52.105.707.293l3.586,3.586c.391.39,1.023.39,1.414,0l3.586-3.585c.188-.188.441-.293.707-.293h8c.404,0,.77.244.924.617ZM14.939,16.354c.292.292.677.438,1.061.438s.769-.146,1.061-.438L29.707,3.707c.286-.286.372-.716.217-1.09-.154-.374-.52-.617-.924-.617H3c-.404,0-.77.244-.924.617-.155.374-.069.804.217,1.09l12.646,12.646Z"/>
  <rect class="st0" width="32" height="32"/>
</svg>