<?xml version="1.0" encoding="UTF-8"?>
<svg id="icon301" data-name="icon" xmlns="http://www.w3.org/2000/svg" width="32" height="32" version="1.1" viewBox="0 0 32 32">
  <!-- Generator: Adobe Illustrator 29.8.2, SVG Export Plug-In . SVG Version: 2.1.1 Build 3)  -->
  <defs>
    <style>
      .st0 {
        fill: none;
      }

      .st1 {
        fill: #151515;
      }
    </style>
  </defs>
  <path class="st1" d="M16,1C7.729,1,1,7.729,1,16s6.729,15,15,15,15-6.729,15-15S24.271,1,16,1ZM16,29c-7.168,0-13-5.832-13-13S8.832,3,16,3s13,5.832,13,13-5.832,13-13,13ZM22.707,14.293c.391.391.391,1.023,0,1.414-.195.195-.451.293-.707.293s-.512-.098-.707-.293l-4.293-4.293v11.586c0,.552-.447,1-1,1s-1-.448-1-1v-11.586l-4.293,4.293c-.391.391-1.023.391-1.414,0s-.391-1.023,0-1.414l5.646-5.646c.584-.585,1.537-.585,2.121,0l5.646,5.646Z"/>
  <g id="transparent_box">
    <rect id="transparent_rectangle3" data-name="transparent_rectangle" class="st0" width="32" height="32"/>
  </g>
</svg>