<?xml version="1.0" encoding="UTF-8"?>
<svg id="icon140" data-name="icon" xmlns="http://www.w3.org/2000/svg" width="32" height="32" version="1.1" viewBox="0 0 32 32">
  <!-- Generator: Adobe Illustrator 29.8.2, SVG Export Plug-In . SVG Version: 2.1.1 Build 3)  -->
  <defs>
    <style>
      .st0 {
        fill: none;
      }

      .st1 {
        fill: #151515;
      }
    </style>
  </defs>
  <path class="st1" d="M23.102,27.727c.288.472.139,1.087-.333,1.375-2.034,1.242-4.375,1.898-6.769,1.898-7.168,0-13-5.832-13-13v-8c0-.553.448-1,1-1s1,.447,1,1v8c0,6.065,4.935,11,11,11,2.027,0,4.007-.555,5.727-1.605.471-.288,1.087-.139,1.375.332ZM29.707,29.707c-.195.195-.451.293-.707.293s-.512-.098-.707-.293L1.293,2.707c-.391-.391-.391-1.023,0-1.414s1.023-.391,1.414,0l2.078,2.078L15.792,1.022c.138-.029.279-.029.417,0l12,2.56c.461.098.792.506.792.978v13.44c0,2.651-.784,5.163-2.263,7.323l2.97,2.97c.391.391.391,1.023,0,1.414ZM25.294,23.88c1.116-1.755,1.706-3.764,1.706-5.88V5.369l-11-2.347-9.53,2.033,18.824,18.824Z"/>
  <rect id="transparent_rectangle" class="st0" width="32" height="32"/>
</svg>