<?xml version="1.0" encoding="UTF-8"?>
<svg id="icon109" data-name="icon" xmlns="http://www.w3.org/2000/svg" width="32" height="32" version="1.1" viewBox="0 0 32 32">
  <!-- Generator: Adobe Illustrator 29.8.2, SVG Export Plug-In . SVG Version: 2.1.1 Build 3)  -->
  <defs>
    <style>
      .st0 {
        fill: none;
      }

      .st1 {
        fill: #151515;
      }
    </style>
  </defs>
  <path class="st1" d="M21.293,18.293l6.293-6.293H11c-4.411,0-8,3.589-8,8s3.589,8,8,8h15c.552,0,1,.448,1,1s-.448,1-1,1h-15c-5.514,0-10-4.486-10-10s4.486-10,10-10h16.586l-6.293-6.293c-.391-.391-.391-1.023,0-1.414s1.023-.391,1.414,0l7.646,7.646c.283.283.439.66.439,1.061s-.156.777-.439,1.061l-7.646,7.646c-.195.195-.451.293-.707.293s-.512-.098-.707-.293c-.391-.391-.391-1.023,0-1.414Z"/>
  <rect id="transparent_rectangle" class="st0" width="32" height="32"/>
</svg>