<?xml version="1.0" encoding="UTF-8"?>
<svg id="icon87" data-name="icon" xmlns="http://www.w3.org/2000/svg" width="32" height="32" version="1.1" viewBox="0 0 32 32">
  <!-- Generator: Adobe Illustrator 29.8.2, SVG Export Plug-In . SVG Version: 2.1.1 Build 3)  -->
  <defs>
    <style>
      .st0 {
        fill: none;
      }

      .st1 {
        fill: #151515;
      }
    </style>
  </defs>
  <path class="st1" d="M29.5,5H2.5c-.827,0-1.5.673-1.5,1.5v19c0,.827.673,1.5,1.5,1.5h27c.827,0,1.5-.673,1.5-1.5V6.5c0-.827-.673-1.5-1.5-1.5ZM3,8.238l7.762,7.762-7.762,7.762v-15.524ZM19.382,15.381s0,0-.001,0,0,0,0,.001l-3.38,3.38-3.38-3.38s0,0,0-.001,0,0-.001,0L4.238,7h23.524l-8.38,8.381ZM12,17.238l3.027,3.027c.26.26.605.403.973.403s.713-.143.973-.403l3.027-3.027,7.762,7.762H4.238l7.762-7.762ZM21.238,16l7.762-7.762v15.524l-7.762-7.762Z"/>
  <rect id="transparent_rectangle" class="st0" width="32" height="32"/>
</svg>