<?xml version="1.0" encoding="UTF-8"?>
<svg id="icon294" data-name="icon" xmlns="http://www.w3.org/2000/svg" width="32" height="32" version="1.1" viewBox="0 0 32 32">
  <!-- Generator: Adobe Illustrator 29.8.2, SVG Export Plug-In . SVG Version: 2.1.1 Build 3)  -->
  <title>rh-ui-icon-sync-alt</title>
<metadata><?xpacket begin="﻿" id="W5M0MpCehiHzreSzNTczkc9d"?>
<x:xmpmeta xmlns:x="adobe:ns:meta/" x:xmptk="Adobe XMP Core 8.0-c001 1.000000, 0000/00/00-00:00:00        ">
   <rdf:RDF xmlns:rdf="http://www.w3.org/1999/02/22-rdf-syntax-ns#">
      <rdf:Description rdf:about=""
            xmlns:xmp="http://ns.adobe.com/xap/1.0/"
            xmlns:dc="http://purl.org/dc/elements/1.1/"
            xmlns:tiff="http://ns.adobe.com/tiff/1.0/">
         <xmp:brand-content-subtype>UI</xmp:brand-content-subtype>
         <xmp:rhcc-rights-restricted>no</xmp:rhcc-rights-restricted>
         <xmp:rhcc-file-last-modified>2025-10-14T20:47:43.785Z</xmp:rhcc-file-last-modified>
         <xmp:brand-content-type>Icon</xmp:brand-content-type>
         <xmp:brand-colorway>
            <rdf:Bag>
               <rdf:li>colorway:black</rdf:li>
            </rdf:Bag>
         </xmp:brand-colorway>
         <dc:modified>2025-10-14T20:49:07.830Z</dc:modified>
         <dc:format>image/svg+xml</dc:format>
         <dc:title>
            <rdf:Alt>
               <rdf:li xml:lang="x-default">rh-ui-icon-sync-alt</rdf:li>
            </rdf:Alt>
         </dc:title>
         <tiff:ImageLength>32</tiff:ImageLength>
         <tiff:ImageWidth>32</tiff:ImageWidth>
      </rdf:Description>
   </rdf:RDF>
</x:xmpmeta>
                                                                                                    
                                                                                                    
                                                                                                    
                                                                                                    
                                                                                                    
                                                                                                    
                                                                                                    
                                                                                                    
                                                                                                    
                                                                                                    
                                                                                                    
                                                                                                    
                                                                                                    
                                                                                                    
                                                                                                    
                                                                                                    
                                                                                                    
                    
<?xpacket end="w"?></metadata>
<defs>
    <style>
      .st0 {
        fill: none;
      }

      .st1 {
        fill: #151515;
      }
    </style>
  </defs>
  <path class="st1" d="M2,1h8.5c.827,0,1.5.673,1.5,1.5v8.5c0,.552-.447,1-1,1s-1-.448-1-1v-6.524c-4.237,2.217-7,6.673-7,11.524,0,6.794,5.302,12.49,12.07,12.967.527.037.93.477.93.997,0,.023,0,.047-.003.071-.038.551-.517.966-1.067.927-7.812-.551-13.93-7.124-13.93-14.962,0-5.384,2.945-10.352,7.521-13H2c-.553,0-1-.448-1-1s.447-1,1-1ZM16.003,1.965c-.037.545.376,1.029.927,1.068,6.769.478,12.07,6.173,12.07,12.967,0,4.851-2.763,9.306-7,11.524v-6.524c0-.552-.447-1-1-1s-1,.448-1,1v8.5c0,.827.673,1.5,1.5,1.5h8.5c.553,0,1-.448,1-1s-.447-1-1-1h-6.521c4.575-2.648,7.521-7.616,7.521-13,0-7.839-6.118-14.411-13.93-14.962-.551-.039-1.029.376-1.067.927Z"/>
  <rect id="transparent_rectangle" class="st0" width="32" height="32"/>
</svg>