<?xml version="1.0" encoding="UTF-8"?>
<svg id="icon300" data-name="icon" xmlns="http://www.w3.org/2000/svg" width="32" height="32" version="1.1" viewBox="0 0 32 32">
  <!-- Generator: Adobe Illustrator 29.8.2, SVG Export Plug-In . SVG Version: 2.1.1 Build 3)  -->
  <defs>
    <style>
      .st0 {
        fill: none;
      }

      .st1 {
        fill: #151515;
      }
    </style>
  </defs>
  <path id="_x3C_Path_x3E_" class="st1" d="M16,1C7.729,1,1,7.729,1,16s6.729,15,15,15,15-6.729,15-15S24.271,1,16,1ZM16,29c-7.168,0-13-5.832-13-13S8.832,3,16,3s13,5.832,13,13-5.832,13-13,13ZM24,16c0,.552-.448,1-1,1h-6v6c0,.552-.448,1-1,1s-1-.448-1-1v-6h-6c-.552,0-1-.448-1-1s.448-1,1-1h6v-6c0-.552.448-1,1-1s1,.448,1,1v6h6c.552,0,1,.448,1,1Z"/>
  <g id="transparent_rectangle2" data-name="transparent_rectangle">
    <rect class="st0" width="32" height="32"/>
  </g>
</svg>