<?xml version="1.0" encoding="UTF-8"?>
<svg id="icon132" data-name="icon" xmlns="http://www.w3.org/2000/svg" width="32" height="32" version="1.1" viewBox="0 0 32 32">
  <!-- Generator: Adobe Illustrator 29.8.2, SVG Export Plug-In . SVG Version: 2.1.1 Build 3)  -->
  <defs>
    <style>
      .st0 {
        fill: none;
      }

      .st1 {
        fill: #151515;
      }
    </style>
  </defs>
  <path class="st1" d="M12.75,1h-5.5c-.689,0-1.25.561-1.25,1.25v5.5c0,.689.561,1.25,1.25,1.25h5.5c.689,0,1.25-.561,1.25-1.25V2.25c0-.689-.561-1.25-1.25-1.25ZM12,7h-4V3h4v4ZM24.75,1h-5.5c-.689,0-1.25.561-1.25,1.25v5.5c0,.689.561,1.25,1.25,1.25h5.5c.689,0,1.25-.561,1.25-1.25V2.25c0-.689-.561-1.25-1.25-1.25ZM24,7h-4V3h4v4ZM12.75,12h-5.5c-.689,0-1.25.561-1.25,1.25v5.5c0,.689.561,1.25,1.25,1.25h5.5c.689,0,1.25-.561,1.25-1.25v-5.5c0-.689-.561-1.25-1.25-1.25ZM12,18h-4v-4h4v4ZM24.75,12h-5.5c-.689,0-1.25.561-1.25,1.25v5.5c0,.689.561,1.25,1.25,1.25h5.5c.689,0,1.25-.561,1.25-1.25v-5.5c0-.689-.561-1.25-1.25-1.25ZM24,18h-4v-4h4v4ZM12.75,23h-5.5c-.689,0-1.25.561-1.25,1.25v5.5c0,.689.561,1.25,1.25,1.25h5.5c.689,0,1.25-.561,1.25-1.25v-5.5c0-.689-.561-1.25-1.25-1.25ZM12,29h-4v-4h4v4ZM24.75,23h-5.5c-.689,0-1.25.561-1.25,1.25v5.5c0,.689.561,1.25,1.25,1.25h5.5c.689,0,1.25-.561,1.25-1.25v-5.5c0-.689-.561-1.25-1.25-1.25ZM24,29h-4v-4h4v4Z"/>
  <rect id="transparent_rectangle" class="st0" width="32" height="32"/>
</svg>