<?xml version="1.0" encoding="UTF-8"?>
<svg id="icon108" data-name="icon" xmlns="http://www.w3.org/2000/svg" width="32" height="32" version="1.1" viewBox="0 0 32 32">
  <!-- Generator: Adobe Illustrator 29.8.2, SVG Export Plug-In . SVG Version: 2.1.1 Build 3)  -->
  <defs>
    <style>
      .st0 {
        fill: none;
      }

      .st1 {
        fill: #151515;
      }
    </style>
  </defs>
  <path class="st1" d="M21.647,28.233c.232.232.335.563.277.887-.059.323-.273.597-.572.731-1.686.762-3.487,1.148-5.352,1.148-7.168,0-13-5.832-13-13v-6c0-.404.244-.77.617-.924.373-.157.804-.07,1.09.217l16.94,16.94ZM29.707,28.293l-2.97-2.97c1.479-2.16,2.263-4.671,2.263-7.323V4.56c0-.472-.33-.88-.792-.978l-12-2.56c-.138-.029-.279-.029-.417,0L4.785,3.371,2.707,1.293c-.391-.391-1.023-.391-1.414,0s-.391,1.023,0,1.414l2.46,2.46s0,.001.002.002l20.966,20.966,3.572,3.572c.195.195.451.293.707.293s.512-.098.707-.293c.391-.391.391-1.023,0-1.414Z"/>
  <rect class="st0" width="32" height="32"/>
</svg>