<?xml version="1.0" encoding="UTF-8"?>
<svg id="icon295" data-name="icon" xmlns="http://www.w3.org/2000/svg" width="32" height="32" version="1.1" viewBox="0 0 32 32">
  <!-- Generator: Adobe Illustrator 29.8.2, SVG Export Plug-In . SVG Version: 2.1.1 Build 3)  -->
  <title>rh-ui-icon-notification-active-alt</title>
<metadata><?xpacket begin="﻿" id="W5M0MpCehiHzreSzNTczkc9d"?>
<x:xmpmeta xmlns:x="adobe:ns:meta/" x:xmptk="Adobe XMP Core 8.0-c001 1.000000, 0000/00/00-00:00:00        ">
   <rdf:RDF xmlns:rdf="http://www.w3.org/1999/02/22-rdf-syntax-ns#">
      <rdf:Description rdf:about=""
            xmlns:xmp="http://ns.adobe.com/xap/1.0/"
            xmlns:dc="http://purl.org/dc/elements/1.1/"
            xmlns:tiff="http://ns.adobe.com/tiff/1.0/">
         <xmp:brand-content-subtype>UI</xmp:brand-content-subtype>
         <xmp:rhcc-rights-restricted>no</xmp:rhcc-rights-restricted>
         <xmp:rhcc-file-last-modified>2025-10-14T20:46:28.236Z</xmp:rhcc-file-last-modified>
         <xmp:brand-content-type>Icon</xmp:brand-content-type>
         <xmp:brand-colorway>
            <rdf:Bag>
               <rdf:li>colorway:black</rdf:li>
            </rdf:Bag>
         </xmp:brand-colorway>
         <dc:modified>2025-10-14T20:49:23.127Z</dc:modified>
         <dc:format>image/svg+xml</dc:format>
         <dc:title>
            <rdf:Alt>
               <rdf:li xml:lang="x-default">rh-ui-icon-notification-active-alt</rdf:li>
            </rdf:Alt>
         </dc:title>
         <tiff:ImageLength>32</tiff:ImageLength>
         <tiff:ImageWidth>32</tiff:ImageWidth>
      </rdf:Description>
   </rdf:RDF>
</x:xmpmeta>
                                                                                                    
                                                                                                    
                                                                                                    
                                                                                                    
                                                                                                    
                                                                                                    
                                                                                                    
                                                                                                    
                                                                                                    
                                                                                                    
                                                                                                    
                                                                                                    
                                                                                                    
                                                                                                    
                                                                                                    
                                             
<?xpacket end="w"?></metadata>
<defs>
    <style>
      .st0 {
        fill: none;
      }

      .st1 {
        fill: #151515;
      }
    </style>
  </defs>
  <path class="st1" d="M29,22v3.5c0,.827-.673,1.5-1.5,1.5h-7.5c0,2.206-1.794,4-4,4s-4-1.794-4-4h-7.5c-.827,0-1.5-.673-1.5-1.5v-3.5c0-.552.447-1,1-1,1.103,0,2-.897,2-2v-4c0-4.885,3.523-8.955,8.159-9.823-.405-.445-.659-1.03-.659-1.677,0-1.378,1.121-2.5,2.5-2.5s2.5,1.122,2.5,2.5c0,.646-.253,1.231-.657,1.675.505.094,1.003.222,1.49.394.521.184.794.755.61,1.276-.185.521-.755.795-1.276.61-.854-.302-1.752-.455-2.667-.455-4.411,0-8,3.589-8,8v4c0,1.86-1.276,3.428-3,3.874v2.126h22v-2.126c-1.724-.445-3-2.013-3-3.874v-2c0-.552.447-1,1-1s1,.448,1,1v2c0,1.103.897,2,2,2,.553,0,1,.448,1,1ZM23.5,14c1.93,0,3.5-1.57,3.5-3.5s-1.57-3.5-3.5-3.5-3.5,1.57-3.5,3.5,1.57,3.5,3.5,3.5Z"/>
  <rect id="transparent_rectangle" class="st0" width="32" height="32"/>
</svg>