<?xml version="1.0" encoding="UTF-8"?>
<svg id="icon156" data-name="icon" xmlns="http://www.w3.org/2000/svg" width="32" height="32" version="1.1" viewBox="0 0 32 32">
  <!-- Generator: Adobe Illustrator 29.8.2, SVG Export Plug-In . SVG Version: 2.1.1 Build 3)  -->
  <defs>
    <style>
      .st0 {
        fill: none;
      }

      .st1 {
        fill: #151515;
      }
    </style>
  </defs>
  <path class="st1" d="M9,11.5v16c0,.827-.636,1.5-1.417,1.5H3.417c-.781,0-1.417-.673-1.417-1.5V11.5c0-.827.636-1.5,1.417-1.5h4.166c.781,0,1.417.673,1.417,1.5ZM29.295,12.427c-.477-.589-1.185-.927-1.942-.927h-5.853v-5c0-1.04-.526-1.99-1.408-2.543-.904-.566-2.01-.608-3.031-.115-.948.458-1.547,1.502-1.561,2.722-.032,2.551-2.011,4.632-4.5,4.886v16.05h13.204c1.643,0,3.083-1.166,3.424-2.772l2.17-10.208c.157-.741-.025-1.504-.503-2.093Z"/>
  <rect class="st0" width="32" height="32"/>
</svg>