<?xml version="1.0" encoding="UTF-8"?>
<svg id="hub-fill" xmlns="http://www.w3.org/2000/svg" width="32" height="32" version="1.1" viewBox="0 0 32 32">
  <!-- Generator: Adobe Illustrator 30.1.0, SVG Export Plug-In . SVG Version: 2.1.1 Build 136)  -->
  <title>rh-ui-icon-hub-fill</title>
<desc>center, network, connection, central, distribution, router, focus, core, switch, hardware, link, intersection, junction, assembly, portal, integration, point, spoke, collective, gateway</desc>
<metadata><?xpacket begin="﻿" id="W5M0MpCehiHzreSzNTczkc9d"?>
<x:xmpmeta xmlns:x="adobe:ns:meta/" x:xmptk="Adobe XMP Core 8.0-c001 1.000000, 0000/00/00-00:00:00        ">
   <rdf:RDF xmlns:rdf="http://www.w3.org/1999/02/22-rdf-syntax-ns#">
      <rdf:Description rdf:about=""
            xmlns:tiff="http://ns.adobe.com/tiff/1.0/"
            xmlns:dc="http://purl.org/dc/elements/1.1/"
            xmlns:xmp="http://ns.adobe.com/xap/1.0/">
         <tiff:ImageLength>32</tiff:ImageLength>
         <tiff:ImageWidth>32</tiff:ImageWidth>
         <dc:format>image/svg+xml</dc:format>
         <dc:modified>2026-01-20T14:41:19.233Z</dc:modified>
         <dc:title>
            <rdf:Alt>
               <rdf:li xml:lang="x-default">rh-ui-icon-hub-fill</rdf:li>
            </rdf:Alt>
         </dc:title>
         <dc:description>
            <rdf:Alt>
               <rdf:li xml:lang="x-default">center, network, connection, central, distribution, router, focus, core, switch, hardware, link, intersection, junction, assembly, portal, integration, point, spoke, collective, gateway</rdf:li>
            </rdf:Alt>
         </dc:description>
         <xmp:brand-content-type>Icon</xmp:brand-content-type>
         <xmp:brand-content-subtype>UI</xmp:brand-content-subtype>
         <xmp:rhcc-rights-restricted>no</xmp:rhcc-rights-restricted>
         <xmp:rhcc-file-last-modified>2026-01-20T14:37:38.530Z</xmp:rhcc-file-last-modified>
         <xmp:brand-colorway>
            <rdf:Bag>
               <rdf:li>colorway:black</rdf:li>
            </rdf:Bag>
         </xmp:brand-colorway>
      </rdf:Description>
   </rdf:RDF>
</x:xmpmeta>
                                                                                                    
                                                                                                    
                                                                                                    
                                                                                                    
                                                                                                    
                                                                                                    
                                                                                                    
                                                                                                    
                                                                                                    
                                                                                                    
                                                                                                    
                                                                                                    
                                                                                                    
                                                                                       
<?xpacket end="w"?></metadata>
<defs>
    <style>
      .st0 {
        fill: none;
      }

      .st1 {
        fill: #151515;
      }
    </style>
  </defs>
  <path id="icon" class="st1" d="M9.75,3.5v5c0,.68945-.56055,1.25-1.25,1.25H3.5c-.68945,0-1.25-.56055-1.25-1.25V3.5c0-.68945.56055-1.25,1.25-1.25h5c.68945,0,1.25.56055,1.25,1.25ZM28.5,2.25h-5c-.68945,0-1.25.56055-1.25,1.25v5c0,.68945.56055,1.25,1.25,1.25h5c.68945,0,1.25-.56055,1.25-1.25V3.5c0-.68945-.56055-1.25-1.25-1.25ZM8.5,22.25H3.5c-.68945,0-1.25.56055-1.25,1.25v5c0,.68945.56055,1.25,1.25,1.25h5c.68945,0,1.25-.56055,1.25-1.25v-5c0-.68945-.56055-1.25-1.25-1.25ZM28.5,22.25h-5c-.68945,0-1.25.56055-1.25,1.25v5c0,.68945.56055,1.25,1.25,1.25h5c.68945,0,1.25-.56055,1.25-1.25v-5c0-.68945-.56055-1.25-1.25-1.25ZM18.16602,3.17969c-1.41992-.23828-2.91211-.23828-4.33203,0-.54492.0918-.91211.60742-.82031,1.15234.09082.54395.5957.90332,1.15234.82031,1.20117-.20312,2.4668-.20312,3.66797,0,.05664.00879.1123.01367.16699.01367.47949,0,.90332-.3457.98535-.83398.0918-.54492-.27539-1.06055-.82031-1.15234ZM4.33203,13.01367c-.55664-.08496-1.06152.27637-1.15234.82031-.11914.70996-.17969,1.43848-.17969,2.16602s.06055,1.45605.17969,2.16602c.08203.48828.50586.83398.98535.83398.05469,0,.11035-.00488.16699-.01367.54492-.0918.91211-.60742.82031-1.15234-.10156-.60059-.15234-1.21777-.15234-1.83398s.05078-1.2334.15234-1.83398c.0918-.54492-.27539-1.06055-.82031-1.15234ZM17.83398,26.84766c-1.20117.20312-2.4668.20312-3.66797,0-.55566-.08789-1.06152.27637-1.15234.82031-.0918.54492.27539,1.06055.82031,1.15234.70996.11914,1.43848.17969,2.16602.17969s1.45605-.06055,2.16602-.17969c.54492-.0918.91211-.60742.82031-1.15234-.0918-.54395-.60254-.9082-1.15234-.82031ZM27.66797,18.98633c.05664.00879.1123.01367.16699.01367.47949,0,.90332-.3457.98535-.83398.11914-.70996.17969-1.43848.17969-2.16602s-.06055-1.45605-.17969-2.16602c-.0918-.54395-.60156-.90625-1.15234-.82031-.54492.0918-.91211.60742-.82031,1.15234.10156.60059.15234,1.21777.15234,1.83398s-.05078,1.2334-.15234,1.83398c-.0918.54492.27539,1.06055.82031,1.15234Z"/>
  <rect id="Transparent_rectangle" class="st0" width="32" height="32"/>
</svg>