<?xml version="1.0" encoding="UTF-8"?>
<svg id="icon286" data-name="icon" xmlns="http://www.w3.org/2000/svg" width="32" height="32" version="1.1" viewBox="0 0 32 32">
  <!-- Generator: Adobe Illustrator 29.8.2, SVG Export Plug-In . SVG Version: 2.1.1 Build 3)  -->
  <title>rh-ui-icon-optimize</title>
<metadata><?xpacket begin="﻿" id="W5M0MpCehiHzreSzNTczkc9d"?>
<x:xmpmeta xmlns:x="adobe:ns:meta/" x:xmptk="Adobe XMP Core 8.0-c001 1.000000, 0000/00/00-00:00:00        ">
   <rdf:RDF xmlns:rdf="http://www.w3.org/1999/02/22-rdf-syntax-ns#">
      <rdf:Description rdf:about=""
            xmlns:xmp="http://ns.adobe.com/xap/1.0/"
            xmlns:dc="http://purl.org/dc/elements/1.1/"
            xmlns:tiff="http://ns.adobe.com/tiff/1.0/">
         <xmp:brand-content-subtype>UI</xmp:brand-content-subtype>
         <xmp:rhcc-rights-restricted>no</xmp:rhcc-rights-restricted>
         <xmp:rhcc-file-last-modified>2025-10-14T20:46:31.022Z</xmp:rhcc-file-last-modified>
         <xmp:brand-content-type>Icon</xmp:brand-content-type>
         <xmp:brand-colorway>
            <rdf:Bag>
               <rdf:li>colorway:black</rdf:li>
            </rdf:Bag>
         </xmp:brand-colorway>
         <dc:modified>2025-10-14T20:49:46.263Z</dc:modified>
         <dc:format>image/svg+xml</dc:format>
         <dc:title>
            <rdf:Alt>
               <rdf:li xml:lang="x-default">rh-ui-icon-optimize</rdf:li>
            </rdf:Alt>
         </dc:title>
         <tiff:ImageLength>32</tiff:ImageLength>
         <tiff:ImageWidth>32</tiff:ImageWidth>
      </rdf:Description>
   </rdf:RDF>
</x:xmpmeta>
                                                                                                    
                                                                                                    
                                                                                                    
                                                                                                    
                                                                                                    
                                                                                                    
                                                                                                    
                                                                                                    
                                                                                                    
                                                                                                    
                                                                                                    
                                                                                                    
                                                                                                    
                                                                                                    
                                                                                                    
                                                            
<?xpacket end="w"?></metadata>
<defs>
    <style>
      .st0 {
        fill: none;
      }

      .st1 {
        fill: #151515;
      }
    </style>
  </defs>
  <path class="st1" d="M12.38,26.034L29.707,8.707c.391-.391.391-1.023,0-1.414l-5-5c-.391-.391-1.023-.391-1.414,0L5.954,19.632c-.048.048-.072.109-.108.163-.035.052-.08.094-.105.154l-.005.013s0,0,0,.002l-3.655,8.647s0,.005-.001.007c-.047.114-.071.237-.074.362,0,.007-.004.014-.004.021s.004.014.004.021c.003.125.026.248.074.362,0,.002,0,.005.001.007.046.108.112.201.187.283.021.023.046.04.069.061.069.062.143.114.226.154.018.009.03.026.049.034.014.006.028.003.042.008.111.042.227.071.348.071s.237-.029.348-.071c.014-.005.028-.003.042-.008l8.647-3.655s0,0,.002,0l.013-.005c.064-.027.11-.075.165-.112.051-.035.108-.056.153-.102l.009-.009s.002-.002.002-.002ZM7.004,22.096l2.9,2.9-5.024,2.124,2.124-5.024ZM24,4.414l3.586,3.586-2.086,2.086-3.586-3.586,2.086-2.086ZM20.5,7.914l3.586,3.586-12.425,12.425-3.586-3.586,12.425-12.425ZM2,10c0-.553.447-1,1-1h3c.553,0,1,.447,1,1s-.447,1-1,1h-3c-.553,0-1-.447-1-1ZM9,6v-3c0-.553.447-1,1-1s1,.447,1,1v3c0,.553-.447,1-1,1s-1-.447-1-1ZM3.293,4.707c-.391-.391-.391-1.023,0-1.414s1.023-.391,1.414,0l2,2c.391.391.391,1.023,0,1.414-.195.195-.451.293-.707.293s-.512-.098-.707-.293l-2-2ZM30,22c0,.553-.447,1-1,1h-3c-.553,0-1-.447-1-1s.447-1,1-1h3c.553,0,1,.447,1,1ZM23,26v3c0,.553-.447,1-1,1s-1-.447-1-1v-3c0-.553.447-1,1-1s1,.447,1,1ZM28.675,27.09c.407.373.436,1.005.063,1.413-.197.216-.468.325-.738.325-.241,0-.482-.087-.675-.262l-2-1.828c-.407-.373-.436-1.005-.063-1.413.373-.408,1.006-.435,1.413-.063l2,1.828Z"/>
  <rect id="transparent_rectangle" class="st0" width="32" height="32"/>
</svg>