<?xml version="1.0" encoding="UTF-8"?>
<svg id="icon260" data-name="icon" xmlns="http://www.w3.org/2000/svg" width="32" height="32" version="1.1" viewBox="0 0 32 32">
  <!-- Generator: Adobe Illustrator 29.8.2, SVG Export Plug-In . SVG Version: 2.1.1 Build 3)  -->
  <defs>
    <style>
      .st0 {
        fill: none;
      }

      .st1 {
        fill: #151515;
      }
    </style>
  </defs>
  <path class="st1" d="M17,3v26c0,.552-.447,1-1,1s-1-.448-1-1V3c0-.552.447-1,1-1s1,.448,1,1ZM30.354,14.939l-3.646-3.646c-.391-.391-1.023-.391-1.414,0s-.391,1.023,0,1.414l2.293,2.293h-6.586c-.553,0-1,.448-1,1s.447,1,1,1h6.586l-2.293,2.293c-.391.391-.391,1.023,0,1.414.195.195.451.293.707.293s.512-.098.707-.293l3.646-3.646c.283-.283.439-.66.439-1.061s-.156-.777-.439-1.061ZM3.005,2.378c-.897,0-1.625.728-1.625,1.625s.728,1.625,1.625,1.625,1.625-.728,1.625-1.625-.728-1.625-1.625-1.625ZM3.005,10.379c-.897,0-1.625.728-1.625,1.625s.728,1.625,1.625,1.625,1.625-.728,1.625-1.625-.728-1.625-1.625-1.625ZM3.005,18.378c-.897,0-1.625.728-1.625,1.625s.728,1.625,1.625,1.625,1.625-.728,1.625-1.625-.728-1.625-1.625-1.625ZM3.005,26.378c-.897,0-1.625.728-1.625,1.625s.728,1.625,1.625,1.625,1.625-.728,1.625-1.625-.728-1.625-1.625-1.625ZM10,6.385c-.897,0-1.625.728-1.625,1.625s.728,1.625,1.625,1.625,1.625-.728,1.625-1.625-.728-1.625-1.625-1.625ZM10,14.374c-.897,0-1.625.728-1.625,1.625s.728,1.625,1.625,1.625,1.625-.728,1.625-1.625-.728-1.625-1.625-1.625ZM10,22.388c-.897,0-1.625.728-1.625,1.625s.728,1.625,1.625,1.625,1.625-.728,1.625-1.625-.728-1.625-1.625-1.625Z"/>
  <rect id="transparent_rectangle" class="st0" width="32" height="32"/>
</svg>