<?xml version="1.0" encoding="UTF-8"?>
<svg id="icon159" data-name="icon" xmlns="http://www.w3.org/2000/svg" width="32" height="32" version="1.1" viewBox="0 0 32 32">
  <!-- Generator: Adobe Illustrator 29.8.2, SVG Export Plug-In . SVG Version: 2.1.1 Build 3)  -->
  <defs>
    <style>
      .st0 {
        fill: none;
      }

      .st1 {
        fill: #151515;
      }
    </style>
  </defs>
  <path class="st1" d="M1.275,11.875c.026-.151.085-.295.195-.405l7-7c.11-.11.254-.169.405-.195v7.6H1.275ZM30.75,5.5v21c0,.689-.561,1.25-1.25,1.25H2.5c-.689,0-1.25-.561-1.25-1.25v-12.375h8.25c.896,0,1.625-.729,1.625-1.625V4.25h18.375c.689,0,1.25.561,1.25,1.25ZM25.125,19.875v-7.75h1.875c.621,0,1.125-.504,1.125-1.125s-.504-1.125-1.125-1.125h-1.875v-1.875c0-.621-.504-1.125-1.125-1.125s-1.125.504-1.125,1.125v1.875h-7.875c-.621,0-1.125.504-1.125,1.125s.504,1.125,1.125,1.125h7.875v7.75h-13.75v-1.875c0-.621-.504-1.125-1.125-1.125s-1.125.504-1.125,1.125v1.875h-1.875c-.621,0-1.125.504-1.125,1.125s.504,1.125,1.125,1.125h1.875v1.875c0,.621.504,1.125,1.125,1.125s1.125-.504,1.125-1.125v-1.875h13.75v1.875c0,.621.504,1.125,1.125,1.125s1.125-.504,1.125-1.125v-1.875h1.875c.621,0,1.125-.504,1.125-1.125s-.504-1.125-1.125-1.125h-1.875Z"/>
  <rect class="st0" width="32" height="32"/>
</svg>