<?xml version="1.0" encoding="UTF-8"?>
<svg id="icon33" data-name="icon" xmlns="http://www.w3.org/2000/svg" width="32" height="32" version="1.1" viewBox="0 0 32 32">
  <!-- Generator: Adobe Illustrator 29.8.2, SVG Export Plug-In . SVG Version: 2.1.1 Build 3)  -->
  <defs>
    <style>
      .st0 {
        fill: none;
      }

      .st1 {
        fill: #151515;
      }
    </style>
  </defs>
  <path class="st1" d="M20,1c-5.146,0-9.466,3.557-10.661,8.339C4.557,10.534,1,14.854,1,20c0,6.065,4.935,11,11,11,5.146,0,9.466-3.557,10.661-8.339,4.782-1.195,8.339-5.515,8.339-10.661,0-6.065-4.935-11-11-11ZM12,29c-4.962,0-9-4.038-9-9,0-3.919,2.522-7.251,6.025-8.484-.007.162-.025.32-.025.484,0,6.065,4.935,11,11,11,.163,0,.322-.017.484-.025-1.233,3.503-4.565,6.025-8.484,6.025ZM20.949,20.949c-.312.033-.628.051-.949.051-4.962,0-9-4.038-9-9,0-.321.018-.637.051-.949.312-.033.628-.051.949-.051,4.962,0,9,4.038,9,9,0,.321-.018.637-.051.949ZM22.975,20.484c.007-.162.025-.32.025-.484,0-6.065-4.935-11-11-11-.163,0-.322.017-.484.025,1.233-3.503,4.565-6.025,8.484-6.025,4.962,0,9,4.038,9,9,0,3.919-2.522,7.251-6.025,8.484Z"/>
  <rect id="transparent_rectangle" class="st0" width="32" height="32"/>
</svg>