<?xml version="1.0" encoding="UTF-8"?>
<svg id="learning-fill" xmlns="http://www.w3.org/2000/svg" width="32" height="32" version="1.1" viewBox="0 0 32 32">
  <!-- Generator: Adobe Illustrator 30.1.0, SVG Export Plug-In . SVG Version: 2.1.1 Build 136)  -->
  <title>rh-ui-icon-learning-fill</title>
<desc>education, study, school, student, knowledge, growth, brain, academy, lesson, class, university, research, skill, training, intelligence, wisdom, development, book, classroom, tutorial</desc>
<metadata><?xpacket begin="﻿" id="W5M0MpCehiHzreSzNTczkc9d"?>
<x:xmpmeta xmlns:x="adobe:ns:meta/" x:xmptk="Adobe XMP Core 8.0-c001 1.000000, 0000/00/00-00:00:00        ">
   <rdf:RDF xmlns:rdf="http://www.w3.org/1999/02/22-rdf-syntax-ns#">
      <rdf:Description rdf:about=""
            xmlns:tiff="http://ns.adobe.com/tiff/1.0/"
            xmlns:dc="http://purl.org/dc/elements/1.1/"
            xmlns:xmp="http://ns.adobe.com/xap/1.0/">
         <tiff:ImageLength>32</tiff:ImageLength>
         <tiff:ImageWidth>32</tiff:ImageWidth>
         <dc:format>image/svg+xml</dc:format>
         <dc:modified>2026-01-20T14:41:11.520Z</dc:modified>
         <dc:title>
            <rdf:Alt>
               <rdf:li xml:lang="x-default">rh-ui-icon-learning-fill</rdf:li>
            </rdf:Alt>
         </dc:title>
         <dc:description>
            <rdf:Alt>
               <rdf:li xml:lang="x-default">education, study, school, student, knowledge, growth, brain, academy, lesson, class, university, research, skill, training, intelligence, wisdom, development, book, classroom, tutorial</rdf:li>
            </rdf:Alt>
         </dc:description>
         <xmp:brand-content-type>Icon</xmp:brand-content-type>
         <xmp:brand-content-subtype>UI</xmp:brand-content-subtype>
         <xmp:rhcc-rights-restricted>no</xmp:rhcc-rights-restricted>
         <xmp:rhcc-file-last-modified>2026-01-20T14:37:38.350Z</xmp:rhcc-file-last-modified>
         <xmp:brand-colorway>
            <rdf:Bag>
               <rdf:li>colorway:black</rdf:li>
            </rdf:Bag>
         </xmp:brand-colorway>
      </rdf:Description>
   </rdf:RDF>
</x:xmpmeta>
                                                                                                    
                                                                                                    
                                                                                                    
                                                                                                    
                                                                                                    
                                                                                                    
                                                                                                    
                                                                                                    
                                                                                                    
                                                                                                    
                                                                                                    
                                                                                                    
                                                                                                    
                                                                                   
<?xpacket end="w"?></metadata>
<defs>
    <style>
      .st0 {
        fill: none;
      }

      .st1 {
        fill: #151515;
      }
    </style>
  </defs>
  <path id="icon" class="st1" d="M15.125,30.04889c-.60553.42847-1.3277.70111-2.125.70111-1.27991,0-2.44434-.66382-3.125-1.70959v-4.04041c0-.62012.50488-1.125,1.125-1.125.4834,0,.875-.3916.875-.875s-.3916-.875-.875-.875c-1.58496,0-2.875,1.29004-2.875,2.875v3.40912c-2.24689-.78247-3.875-2.89862-3.875-5.40912,0-.52148.07715-1.04785.22949-1.57129-1.42285-1.44629-2.22949-3.39844-2.22949-5.42871,0-.04193.00549-.08313.00616-.125h4.74384c.62012,0,1.125.50488,1.125,1.125,0,.4834.3916.875.875.875s.875-.3916.875-.875c0-1.58545-1.29004-2.875-2.875-2.875H2.49182c.33478-1.32953,1.01196-2.56158,1.98767-3.55371-.15234-.52295-.22949-1.0498-.22949-1.57129,0-3.06738,2.41406-5.58105,5.44238-5.7417.64062-1.22021,1.90918-2.0083,3.30762-2.0083.7973,0,1.51947.27264,2.125.70099v7.17401h-1.125c-1.17188,0-2.125-.95312-2.125-2.125,0-.4834-.3916-.875-.875-.875s-.875.3916-.875.875c0,2.13672,1.73828,3.875,3.875,3.875h1.125v19.17389ZM27,21.875c-2.13672,0-3.875-1.73828-3.875-3.875,0-.4834.3916-.875.875-.875s.875.3916.875.875c0,1.17188.95312,2.125,2.125,2.125h1.54657c.77472-1.22644,1.20343-2.65375,1.20343-4.125,0-2.03027-.80664-3.98193-2.22949-5.42871.15234-.52295.22949-1.0498.22949-1.57129,0-3.06738-2.41406-5.58105-5.44238-5.7417-.64062-1.22021-1.90918-2.0083-3.30762-2.0083-.7973,0-1.51947.27264-2.125.70099v9.17401h3.125c.62012,0,1.125-.50488,1.125-1.125,0-.4834.3916-.875.875-.875s.875.3916.875.875c0,1.58545-1.29004,2.875-2.875,2.875h-3.125v7.25h.125c2.13672,0,3.875,1.73828,3.875,3.875,0,.4834-.3916.875-.875.875s-.875-.3916-.875-.875c0-1.17188-.95312-2.125-2.125-2.125h-.125v8.17389c.60553.42847,1.3277.70111,2.125.70111,1.39941,0,2.66797-.78809,3.30859-2.00781,3.02734-.16113,5.44141-2.6748,5.44141-5.74219,0-.37354-.05347-.74933-.13196-1.125h-.61804Z"/>
  <rect class="st0" width="32" height="32"/>
</svg>