<?xml version="1.0" encoding="UTF-8"?>
<svg id="icon220" data-name="icon" xmlns="http://www.w3.org/2000/svg" width="32" height="32" version="1.1" viewBox="0 0 32 32">
  <!-- Generator: Adobe Illustrator 29.8.2, SVG Export Plug-In . SVG Version: 2.1.1 Build 3)  -->
  <defs>
    <style>
      .st0 {
        fill: none;
      }

      .st1 {
        fill: #151515;
      }
    </style>
  </defs>
  <path class="st1" d="M29.5,4H9c-.134,0-.264.027-.385.078-.122.051-.231.124-.323.216L1.294,11.292c-.092.092-.165.201-.216.323-.05.121-.078.251-.078.385v14.5c0,.827.673,1.5,1.5,1.5h27c.827,0,1.5-.673,1.5-1.5V5.5c0-.827-.673-1.5-1.5-1.5ZM8,7.414v3.586h-3.586l3.586-3.586ZM29,26H3v-13h5.5c.827,0,1.5-.673,1.5-1.5v-5.5h19v20ZM12,12c0-.552.447-1,1-1h9v-2c0-.552.447-1,1-1s1,.448,1,1v2h2c.553,0,1,.448,1,1s-.447,1-1,1h-2v6h2c.553,0,1,.448,1,1s-.447,1-1,1h-2v2c0,.552-.447,1-1,1s-1-.448-1-1v-2h-12v2c0,.552-.447,1-1,1s-1-.448-1-1v-2h-2c-.553,0-1-.448-1-1s.447-1,1-1h2v-3c0-.552.447-1,1-1s1,.448,1,1v3h12v-6h-9c-.553,0-1-.448-1-1Z"/>
  <rect id="transparent_rectangle" class="st0" width="32" height="32"/>
</svg>