<?xml version="1.0" encoding="UTF-8"?>
<svg id="icon141" data-name="icon" xmlns="http://www.w3.org/2000/svg" width="32" height="32" version="1.1" viewBox="0 0 32 32">
  <!-- Generator: Adobe Illustrator 29.8.2, SVG Export Plug-In . SVG Version: 2.1.1 Build 3)  -->
  <defs>
    <style>
      .st0 {
        fill: none;
      }

      .st1 {
        fill: #151515;
      }
    </style>
  </defs>
  <path class="st1" d="M30,29c0,.553-.448,1-1,1H3c-.552,0-1-.447-1-1s.448-1,1-1h26c.552,0,1,.447,1,1ZM7.707,12.707l7.293-7.293v18.586c0,.553.448,1,1,1s1-.447,1-1V5.414l7.293,7.293c.195.195.451.293.707.293s.512-.098.707-.293c.391-.391.391-1.023,0-1.414L17.061,2.646c-.585-.586-1.536-.586-2.121,0L6.293,11.293c-.391.391-.391,1.023,0,1.414s1.023.391,1.414,0Z"/>
  <rect id="transparent_rectangle" class="st0" width="32" height="32"/>
</svg>