<?xml version="1.0" encoding="UTF-8"?>
<svg id="icon292" data-name="icon" xmlns="http://www.w3.org/2000/svg" width="32" height="32" version="1.1" viewBox="0 0 32 32">
  <!-- Generator: Adobe Illustrator 29.8.2, SVG Export Plug-In . SVG Version: 2.1.1 Build 3)  -->
  <title>rh-ui-icon-kubernetes-service</title>
<metadata><?xpacket begin="﻿" id="W5M0MpCehiHzreSzNTczkc9d"?>
<x:xmpmeta xmlns:x="adobe:ns:meta/" x:xmptk="Adobe XMP Core 8.0-c001 1.000000, 0000/00/00-00:00:00        ">
   <rdf:RDF xmlns:rdf="http://www.w3.org/1999/02/22-rdf-syntax-ns#">
      <rdf:Description rdf:about=""
            xmlns:xmp="http://ns.adobe.com/xap/1.0/"
            xmlns:dc="http://purl.org/dc/elements/1.1/"
            xmlns:tiff="http://ns.adobe.com/tiff/1.0/">
         <xmp:brand-content-subtype>UI</xmp:brand-content-subtype>
         <xmp:rhcc-rights-restricted>no</xmp:rhcc-rights-restricted>
         <xmp:rhcc-file-last-modified>2025-10-14T20:46:28.515Z</xmp:rhcc-file-last-modified>
         <xmp:brand-content-type>Icon</xmp:brand-content-type>
         <xmp:brand-colorway>
            <rdf:Bag>
               <rdf:li>colorway:black</rdf:li>
            </rdf:Bag>
         </xmp:brand-colorway>
         <dc:modified>2025-10-14T20:49:10.799Z</dc:modified>
         <dc:format>image/svg+xml</dc:format>
         <dc:title>
            <rdf:Alt>
               <rdf:li xml:lang="x-default">rh-ui-icon-kubernetes-service</rdf:li>
            </rdf:Alt>
         </dc:title>
         <tiff:ImageLength>32</tiff:ImageLength>
         <tiff:ImageWidth>32</tiff:ImageWidth>
      </rdf:Description>
   </rdf:RDF>
</x:xmpmeta>
                                                                                                    
                                                                                                    
                                                                                                    
                                                                                                    
                                                                                                    
                                                                                                    
                                                                                                    
                                                                                                    
                                                                                                    
                                                                                                    
                                                                                                    
                                                                                                    
                                                                                                    
                                                                                                    
                                                                                                    
                                                                                                    
                                                                                                    
          
<?xpacket end="w"?></metadata>
<defs>
    <style>
      .st0 {
        fill: none;
      }

      .st1 {
        fill: #151515;
      }
    </style>
  </defs>
  <path class="st1" d="M29.125,14v9c0,.357-.19.688-.5.866l-12.125,7c-.157.091-.33.134-.499.134-.346,0-.682-.179-.867-.5-.276-.479-.112-1.09.366-1.366l11.625-6.711v-8.423c0-.553.448-1,1-1s1,.447,1,1ZM3.875,21c.552,0,1-.447,1-1v-10.423l11.125-6.423,1.5.866c.479.275,1.09.11,1.366-.366.276-.479.112-1.09-.366-1.366l-2-1.154c-.31-.179-.691-.177-1,0L3.375,8.134c-.31.179-.5.509-.5.866v11c0,.553.448,1,1,1ZM12.923,24.618c-.051-.123-.124-.233-.217-.326l-2.999-2.999c-.287-.287-.717-.373-1.09-.217-.374.154-.617.52-.617.924v2H2c-.552,0-1,.447-1,1s.448,1,1,1h6v2c0,.404.244.77.617.924.124.052.254.076.383.076.26,0,.516-.102.707-.293l2.999-2.999c.093-.092.166-.203.217-.326.101-.244.101-.52,0-.764ZM30.923,7.382c.101-.244.101-.52,0-.764-.051-.123-.124-.233-.217-.326l-2.999-2.999c-.287-.286-.717-.373-1.09-.217-.374.154-.617.52-.617.924v2h-6c-.552,0-1,.447-1,1s.448,1,1,1h6v2c0,.404.244.77.617.924.124.052.254.076.383.076.26,0,.516-.102.707-.293l2.999-2.999c.093-.092.166-.203.217-.326Z"/>
  <rect id="transparent_rectangle" class="st0" width="32" height="32"/>
</svg>