<?xml version="1.0" encoding="UTF-8"?>
<svg id="icon153" data-name="icon" xmlns="http://www.w3.org/2000/svg" width="32" height="32" version="1.1" viewBox="0 0 32 32">
  <!-- Generator: Adobe Illustrator 29.8.2, SVG Export Plug-In . SVG Version: 2.1.1 Build 3)  -->
  <defs>
    <style>
      .st0 {
        fill: none;
      }

      .st1 {
        fill: #151515;
      }
    </style>
  </defs>
  <path class="st1" d="M20.707,25.293c.391.391.391,1.023,0,1.414l-3.646,3.646c-.292.292-.677.438-1.061.438s-.769-.146-1.061-.438l-3.646-3.646c-.391-.391-.391-1.023,0-1.414s1.023-.391,1.414,0l2.293,2.293v-6.836h2v6.836l2.293-2.293c.391-.391,1.023-.391,1.414,0ZM26.737,10.419c.009-.145.013-.283.013-.419,0-4.825-3.925-8.75-8.75-8.75-3.868,0-7.266,2.563-8.372,6.203-.534-.135-1.079-.203-1.628-.203-3.722,0-6.75,3.028-6.75,6.75s3.028,6.75,6.75,6.75h6.875v-6.75c0-.621.504-1.125,1.125-1.125s1.125.504,1.125,1.125v6.75h8.375c2.895,0,5.25-2.355,5.25-5.25,0-2.456-1.68-4.523-4.013-5.081Z"/>
  <rect class="st0" width="32" height="32"/>
</svg>