<?xml version="1.0" encoding="UTF-8"?>
<svg id="icon238" data-name="icon" xmlns="http://www.w3.org/2000/svg" width="32" height="32" version="1.1" viewBox="0 0 32 32">
  <!-- Generator: Adobe Illustrator 29.8.2, SVG Export Plug-In . SVG Version: 2.1.1 Build 3)  -->
  <defs>
    <style>
      .st0 {
        fill: none;
      }

      .st1 {
        fill: #151515;
      }
    </style>
  </defs>
  <path class="st1" d="M30.271,11.372s-.001-.002-.001-.003c-2.009-6.203-7.744-10.37-14.27-10.37C7.729,1,1,7.729,1,16s6.729,15,15,15,15-6.729,15-15c0-1.576-.245-3.133-.729-4.628ZM16,29c-7.168,0-13-5.832-13-13,0-6.832,5.297-12.449,12-12.962v12.962c0,.32.153.621.412.809.078.057.165.098.254.13.024.009.049.014.073.021.07.019.142.03.215.034.015,0,.03.007.045.007.009,0,.018-.004.027-.004.095-.003.189-.014.282-.045l12.331-4c.239.996.36,2.017.36,3.048,0,7.168-5.832,13-13,13Z"/>
  <rect id="transparent_rectangle" class="st0" width="32" height="32"/>
</svg>