<?xml version="1.0" encoding="UTF-8"?>
<svg id="icon275" data-name="icon" xmlns="http://www.w3.org/2000/svg" width="32" height="32" version="1.1" viewBox="0 0 32 32">
  <!-- Generator: Adobe Illustrator 29.8.2, SVG Export Plug-In . SVG Version: 2.1.1 Build 3)  -->
  <defs>
    <style>
      .st0 {
        fill: none;
      }

      .st1 {
        fill: #151515;
      }
    </style>
  </defs>
  <path class="st1" d="M31.461,27.771L17.3,2.301c-.265-.477-.767-.771-1.311-.771s-1.047.295-1.312.771L.517,27.771c-.261.469-.255,1.025.018,1.489s.756.74,1.294.74h28.322c.537,0,1.021-.276,1.293-.74.272-.463.278-1.021.018-1.489ZM2.678,28L15.988,4.058l13.312,23.942H2.678ZM16,11.75c.69,0,1.25.56,1.25,1.25v5c0,.69-.56,1.25-1.25,1.25s-1.25-.56-1.25-1.25v-5c0-.69.56-1.25,1.25-1.25ZM17.75,24.011c0,.966-.784,1.75-1.75,1.75s-1.75-.784-1.75-1.75.784-1.75,1.75-1.75,1.75.784,1.75,1.75Z"/>
  <rect id="transparent_rectangle" class="st0" width="32" height="32"/>
</svg>