<?xml version="1.0" encoding="UTF-8"?>
<svg id="icon55" data-name="icon" xmlns="http://www.w3.org/2000/svg" width="32" height="32" version="1.1" viewBox="0 0 32 32">
  <!-- Generator: Adobe Illustrator 29.8.2, SVG Export Plug-In . SVG Version: 2.1.1 Build 3)  -->
  <defs>
    <style>
      .st0 {
        fill: none;
      }

      .st1 {
        fill: #151515;
      }
    </style>
  </defs>
  <path class="st1" d="M28.749,10.364l-7.113-7.113C18.528.144,13.472.144,10.364,3.251l-7.113,7.113C.144,13.472.144,18.528,3.251,21.636l7.113,7.113c1.554,1.554,3.595,2.331,5.636,2.331s4.082-.777,5.636-2.331l7.113-7.113c3.107-3.107,3.107-8.164,0-11.271ZM27.335,20.222l-7.113,7.113c-2.328,2.327-6.115,2.327-8.443,0l-7.113-7.113c-2.327-2.328-2.327-6.116,0-8.443l7.113-7.113c2.328-2.327,6.115-2.327,8.443,0l7.113,7.113c2.327,2.328,2.327,6.116,0,8.443ZM24,16c0,.552-.448,1-1,1h-6v6c0,.552-.448,1-1,1s-1-.448-1-1v-6h-6c-.552,0-1-.448-1-1s.448-1,1-1h6v-6c0-.552.448-1,1-1s1,.448,1,1v6h6c.552,0,1,.448,1,1Z"/>
  <rect id="transparent_rectangle" class="st0" width="32" height="32"/>
</svg>