<?xml version="1.0" encoding="UTF-8"?>
<svg id="icon91" data-name="icon" xmlns="http://www.w3.org/2000/svg" width="32" height="32" version="1.1" viewBox="0 0 32 32">
  <!-- Generator: Adobe Illustrator 29.8.2, SVG Export Plug-In . SVG Version: 2.1.1 Build 3)  -->
  <defs>
    <style>
      .st0 {
        fill: none;
      }

      .st1 {
        fill: #151515;
      }
    </style>
  </defs>
  <path class="st1" d="M1.039,13.083c0-.357.19-.688.5-.866L15.539,4.134c.31-.179.69-.179,1,0l14,8.083c.31.179.5.509.5.866s-.19.688-.5.866l-14,8.083c-.155.089-.327.134-.5.134s-.345-.044-.5-.134L1.539,13.949c-.31-.179-.5-.509-.5-.866ZM29.539,18.06l-13.5,7.794-13.5-7.794c-.48-.277-1.09-.113-1.366.366-.276.479-.112,1.09.366,1.366l14,8.083c.155.089.327.134.5.134s.345-.044.5-.134l14-8.083c.479-.276.642-.888.366-1.366-.277-.479-.888-.644-1.366-.366Z"/>
  <rect class="st0" width="32" height="32"/>
</svg>