<?xml version="1.0" encoding="UTF-8"?>
<svg id="icon139" data-name="icon" xmlns="http://www.w3.org/2000/svg" width="32" height="32" version="1.1" viewBox="0 0 32 32">
  <!-- Generator: Adobe Illustrator 29.8.2, SVG Export Plug-In . SVG Version: 2.1.1 Build 3)  -->
  <defs>
    <style>
      .st0 {
        fill: none;
      }

      .st1 {
        fill: #151515;
      }
    </style>
  </defs>
  <path class="st1" d="M28.5,12h-13.5v-4c0-3.859-3.141-7-7-7S1,4.141,1,8v5c0,.553.447,1,1,1s1-.447,1-1v-5c0-2.757,2.243-5,5-5s5,2.243,5,5v4h-1.5c-.827,0-1.5.673-1.5,1.5v15c0,.827.673,1.5,1.5,1.5h17c.827,0,1.5-.673,1.5-1.5v-15c0-.827-.673-1.5-1.5-1.5ZM28,28H12v-14h16v14ZM18.5,21c0-.828.672-1.5,1.5-1.5s1.5.672,1.5,1.5-.672,1.5-1.5,1.5-1.5-.672-1.5-1.5Z"/>
  <rect id="transparent_rectangle" class="st0" width="32" height="32"/>
</svg>