<?xml version="1.0" encoding="UTF-8"?>
<svg id="icon130" data-name="icon" xmlns="http://www.w3.org/2000/svg" width="32" height="32" version="1.1" viewBox="0 0 32 32">
  <!-- Generator: Adobe Illustrator 29.8.2, SVG Export Plug-In . SVG Version: 2.1.1 Build 3)  -->
  <title>rh-ui-icon-cluster-fill</title>
<metadata><?xpacket begin="﻿" id="W5M0MpCehiHzreSzNTczkc9d"?>
<x:xmpmeta xmlns:x="adobe:ns:meta/" x:xmptk="Adobe XMP Core 8.0-c001 1.000000, 0000/00/00-00:00:00        ">
   <rdf:RDF xmlns:rdf="http://www.w3.org/1999/02/22-rdf-syntax-ns#">
      <rdf:Description rdf:about=""
            xmlns:xmp="http://ns.adobe.com/xap/1.0/"
            xmlns:dc="http://purl.org/dc/elements/1.1/"
            xmlns:tiff="http://ns.adobe.com/tiff/1.0/">
         <xmp:brand-content-subtype>UI</xmp:brand-content-subtype>
         <xmp:rhcc-rights-restricted>no</xmp:rhcc-rights-restricted>
         <xmp:rhcc-file-last-modified>2025-10-14T20:44:19.775Z</xmp:rhcc-file-last-modified>
         <xmp:brand-content-type>Icon</xmp:brand-content-type>
         <xmp:brand-colorway>
            <rdf:Bag>
               <rdf:li>colorway:black</rdf:li>
            </rdf:Bag>
         </xmp:brand-colorway>
         <dc:modified>2025-10-14T20:49:54.816Z</dc:modified>
         <dc:format>image/svg+xml</dc:format>
         <dc:title>
            <rdf:Alt>
               <rdf:li xml:lang="x-default">rh-ui-icon-cluster-fill</rdf:li>
            </rdf:Alt>
         </dc:title>
         <tiff:ImageLength>32</tiff:ImageLength>
         <tiff:ImageWidth>32</tiff:ImageWidth>
      </rdf:Description>
   </rdf:RDF>
</x:xmpmeta>
                                                                                                    
                                                                                                    
                                                                                                    
                                                                                                    
                                                                                                    
                                                                                                    
                                                                                                    
                                                                                                    
                                                                                                    
                                                                                                    
                                                                                                    
                                                                                                    
                                                                                                    
                                                                                                    
                                                                                                    
                                                                                                    
                                                                                                    
                                                                                                    
                                                                                                    
                                                                                                    
                           
<?xpacket end="w"?></metadata>
<defs>
    <style>
      .st0 {
        fill: none;
      }

      .st1 {
        fill: #151515;
      }
    </style>
  </defs>
  <path class="st1" d="M20.674,16.75c-.12.749-.41,1.437-.837,2.026l5.099,5.099c.593-.393,1.302-.625,2.065-.625,2.067,0,3.75,1.683,3.75,3.75s-1.683,3.75-3.75,3.75-3.75-1.683-3.75-3.75c0-.763.232-1.472.625-2.065l-5.099-5.099c-.589.428-1.277.717-2.026.837v2.652c1.709.349,3,1.864,3,3.674,0,2.067-1.683,3.75-3.75,3.75s-3.75-1.683-3.75-3.75c0-1.811,1.291-3.326,3-3.674v-2.652c-.749-.12-1.437-.41-2.026-.837l-5.099,5.099c.393.593.625,1.302.625,2.065,0,2.067-1.683,3.75-3.75,3.75s-3.75-1.683-3.75-3.75,1.683-3.75,3.75-3.75c.763,0,1.472.232,2.065.625l5.099-5.099c-.428-.589-.717-1.277-.837-2.026h-2.652c-.349,1.709-1.864,3-3.674,3-2.067,0-3.75-1.683-3.75-3.75s1.683-3.75,3.75-3.75c1.811,0,3.326,1.291,3.674,3h2.652c.12-.749.41-1.437.837-2.026l-5.099-5.099c-.593.393-1.302.625-2.065.625-2.067,0-3.75-1.683-3.75-3.75s1.683-3.75,3.75-3.75,3.75,1.683,3.75,3.75c0,.763-.232,1.472-.625,2.065l5.099,5.099c.589-.428,1.277-.717,2.026-.837v-2.652c-1.709-.349-3-1.864-3-3.674,0-2.067,1.683-3.75,3.75-3.75s3.75,1.683,3.75,3.75c0,1.811-1.291,3.326-3,3.674v2.652c.749.12,1.437.41,2.026.837l5.099-5.099c-.393-.593-.625-1.302-.625-2.065,0-2.067,1.683-3.75,3.75-3.75s3.75,1.683,3.75,3.75-1.683,3.75-3.75,3.75c-.763,0-1.472-.232-2.065-.625l-5.099,5.099c.428.589.717,1.277.837,2.026h2.652c.349-1.709,1.864-3,3.674-3,2.067,0,3.75,1.683,3.75,3.75s-1.683,3.75-3.75,3.75c-1.811,0-3.326-1.291-3.674-3h-2.652Z"/>
  <rect class="st0" width="32" height="32"/>
</svg>