<?xml version="1.0" encoding="UTF-8"?>
<svg id="icon261" data-name="icon" xmlns="http://www.w3.org/2000/svg" width="32" height="32" version="1.1" viewBox="0 0 32 32">
  <!-- Generator: Adobe Illustrator 29.8.2, SVG Export Plug-In . SVG Version: 2.1.1 Build 3)  -->
  <defs>
    <style>
      .st0 {
        fill: none;
      }

      .st1 {
        fill: #151515;
      }
    </style>
  </defs>
  <path class="st1" d="M16,1C7.729,1,1,7.729,1,16s6.729,15,15,15,15-6.729,15-15S24.271,1,16,1ZM16,29c-7.168,0-13-5.832-13-13S8.832,3,16,3s13,5.832,13,13-5.832,13-13,13ZM17.25,16v7c0,.69-.56,1.25-1.25,1.25s-1.25-.56-1.25-1.25v-5.465l-.49.104c-.673.141-1.339-.288-1.482-.962-.144-.675.287-1.339.963-1.483l1.956-.416c.763-.157,1.554.446,1.554,1.223ZM17.75,10.002c0,.966-.784,1.75-1.75,1.75s-1.75-.784-1.75-1.75.784-1.75,1.75-1.75,1.75.784,1.75,1.75Z"/>
  <rect id="transparent_rectangle" class="st0" width="32" height="32"/>
</svg>