<?xml version="1.0" encoding="UTF-8"?>
<svg id="icon105" data-name="icon" xmlns="http://www.w3.org/2000/svg" width="32" height="32" version="1.1" viewBox="0 0 32 32">
  <!-- Generator: Adobe Illustrator 29.8.2, SVG Export Plug-In . SVG Version: 2.1.1 Build 3)  -->
  <defs>
    <style>
      .st0 {
        fill: none;
      }

      .st1 {
        fill: #151515;
      }
    </style>
  </defs>
  <path class="st1" d="M13.75,2.25v5.5c0,.551-.448,1-1,1h-5.5c-.552,0-1-.449-1-1V2.25c0-.551.448-1,1-1h5.5c.552,0,1,.449,1,1ZM24.75,1.25h-5.5c-.552,0-1,.449-1,1v5.5c0,.551.448,1,1,1h5.5c.552,0,1-.449,1-1V2.25c0-.551-.448-1-1-1ZM12.75,12.25h-5.5c-.552,0-1,.449-1,1v5.5c0,.552.448,1,1,1h5.5c.552,0,1-.448,1-1v-5.5c0-.551-.448-1-1-1ZM24.75,12.25h-5.5c-.552,0-1,.449-1,1v5.5c0,.552.448,1,1,1h5.5c.552,0,1-.448,1-1v-5.5c0-.551-.448-1-1-1ZM12.75,23.25h-5.5c-.552,0-1,.448-1,1v5.5c0,.552.448,1,1,1h5.5c.552,0,1-.448,1-1v-5.5c0-.552-.448-1-1-1ZM24.75,23.25h-5.5c-.552,0-1,.448-1,1v5.5c0,.552.448,1,1,1h5.5c.552,0,1-.448,1-1v-5.5c0-.552-.448-1-1-1Z"/>
  <rect class="st0" width="32" height="32"/>
</svg>