<?xml version="1.0" encoding="UTF-8"?>
<svg id="icon11" data-name="icon" xmlns="http://www.w3.org/2000/svg" width="32" height="32" version="1.1" viewBox="0 0 32 32">
  <!-- Generator: Adobe Illustrator 29.8.2, SVG Export Plug-In . SVG Version: 2.1.1 Build 3)  -->
  <defs>
    <style>
      .st0 {
        fill: none;
      }

      .st1 {
        fill: #151515;
      }
    </style>
  </defs>
  <path class="st1" d="M20,9.5v-2.5h-8.101c-.13.637-.384,1.229-.732,1.753l5.728,5.728c.642-.301,1.351-.481,2.105-.481,2.757,0,5,2.243,5,5s-2.243,5-5,5c-.754,0-1.463-.18-2.105-.481l-5.481,5.481h16.586c.553,0,1,.448,1,1s-.447,1-1,1H4c-.553,0-1-.448-1-1s.447-1,1-1h4.586l6.693-6.693c-.786-.884-1.279-2.034-1.279-3.307s.493-2.423,1.279-3.307l-5.526-5.526c-.791.524-1.736.833-2.753.833-2.757,0-5-2.243-5-5S4.243,1,7,1c2.414,0,4.434,1.721,4.899,4h8.101v-2.5c0-.827.673-1.5,1.5-1.5h6.5c.553,0,1,.448,1,1s-.447,1-1,1h-6v6h6c.553,0,1,.448,1,1s-.447,1-1,1h-6.5c-.827,0-1.5-.673-1.5-1.5Z"/>
  <rect class="st0" width="32" height="32"/>
</svg>