<?xml version="1.0" encoding="UTF-8"?>
<svg id="AI-troubleshoot" xmlns="http://www.w3.org/2000/svg" width="32" height="32" version="1.1" viewBox="0 0 32 32">
  <!-- Generator: Adobe Illustrator 30.1.0, SVG Export Plug-In . SVG Version: 2.1.1 Build 136)  -->
  <title>rh-ui-icon-ai-troubleshoot</title>
<metadata><?xpacket begin="﻿" id="W5M0MpCehiHzreSzNTczkc9d"?>
<x:xmpmeta xmlns:x="adobe:ns:meta/" x:xmptk="Adobe XMP Core 8.0-c001 1.000000, 0000/00/00-00:00:00        ">
   <rdf:RDF xmlns:rdf="http://www.w3.org/1999/02/22-rdf-syntax-ns#">
      <rdf:Description rdf:about=""
            xmlns:xmp="http://ns.adobe.com/xap/1.0/"
            xmlns:dc="http://purl.org/dc/elements/1.1/"
            xmlns:tiff="http://ns.adobe.com/tiff/1.0/">
         <xmp:brand-content-type>Icon</xmp:brand-content-type>
         <xmp:rhcc-rights-restricted>no</xmp:rhcc-rights-restricted>
         <xmp:brand-content-subtype>UI</xmp:brand-content-subtype>
         <xmp:rhcc-file-last-modified>2026-01-20T14:37:32.336Z</xmp:rhcc-file-last-modified>
         <xmp:brand-colorway>
            <rdf:Bag>
               <rdf:li>colorway:black</rdf:li>
            </rdf:Bag>
         </xmp:brand-colorway>
         <dc:format>image/svg+xml</dc:format>
         <dc:modified>2026-01-20T14:41:13.735Z</dc:modified>
         <dc:title>
            <rdf:Alt>
               <rdf:li xml:lang="x-default">rh-ui-icon-ai-troubleshoot</rdf:li>
            </rdf:Alt>
         </dc:title>
         <tiff:ImageLength>32</tiff:ImageLength>
         <tiff:ImageWidth>32</tiff:ImageWidth>
      </rdf:Description>
   </rdf:RDF>
</x:xmpmeta>
                                                                                                    
                                                                                                    
                                                                                                    
                                                                                                    
                                                                                                    
                                                                                                    
                                                                                                    
                                                                                                    
                                                                                                    
                                                                                                    
                                                                                                    
                                                                                                    
                                                                                                    
                                                                                                    
                                                                                                    
                                                                                                    
                                                                                                    
             
<?xpacket end="w"?></metadata>
<defs>
    <style>
      .st0 {
        fill: none;
      }

      .st1 {
        fill: #151515;
      }
    </style>
  </defs>
  <path id="icon" class="st1" d="M31,11c0,5.51367-4.48633,10-10,10-1.05371,0-2.09082-.16602-3.09277-.49316l-9.16602,9.16602c-.85645.85645-1.99609,1.3291-3.20703,1.3291s-2.35059-.47266-3.20703-1.3291-1.3291-1.99609-1.3291-3.20703.47266-2.35059,1.3291-3.20703l9.16699-9.16699c-.09375-.28711-.1748-.57715-.24121-.86816-.12402-.53809.21289-1.0752.75098-1.19824.53613-.125,1.07422.21289,1.19824.75098.09277.40527.21973.80957.37695,1.20215.14844.37109.06152.79492-.22168,1.07812L3.74121,24.67285c-.98828.98828-.98828,2.59766,0,3.58594.95898.95703,2.62695.95703,3.58594,0l9.61621-9.61621c.28418-.2832.70996-.36914,1.08008-.2207.95508.38379,1.95703.57812,2.97656.57812,4.41113,0,8-3.58887,8-8,0-.77148-.11035-1.52734-.32812-2.25781l-3.96484,3.96484c-1.49219,1.49219-3.92188,1.49219-5.41406,0-.72266-.72266-1.12109-1.68457-1.12109-2.70703s.39844-1.98438,1.12109-2.70703l3.96484-3.96484c-2.23633-.66699-4.74707-.29004-6.70117,1.01855-.45898.30566-1.0791.18457-1.3877-.27441-.30762-.45898-.18457-1.08008.27441-1.3877,2.94238-1.96777,6.83789-2.22656,10.04199-.61426.28711.14453.4873.41797.53809.73438.05078.31738-.05371.63965-.28027.86621l-5.03613,5.03613c-.71289.71289-.71289,1.87305,0,2.58594.69141.69141,1.89453.69141,2.58594,0l5.03613-5.03613c.22656-.22754.54492-.33496.86621-.28027.31641.05078.58984.25098.73438.53809.70996,1.41113,1.07031,2.9209,1.07031,4.48535ZM1.99316,7.58984c2.2334.4082,4.00879,2.18359,4.41699,4.41699.05371.28906.30078.49805.58984.49805s.53613-.20898.58984-.49805c.4082-2.2334,2.18359-4.00879,4.41699-4.41699.28906-.05371.49805-.30078.49805-.58984s-.20898-.53613-.49805-.58984c-2.2334-.4082-4.00879-2.18359-4.41699-4.41699-.05371-.28906-.30078-.49805-.58984-.49805s-.53613.20898-.58984.49805c-.4082,2.2334-2.18359,4.00879-4.41699,4.41699-.28906.05371-.49805.30078-.49805.58984s.20898.53613.49805.58984ZM5.75,25.00854c0,.69037.55963,1.25,1.25,1.25s1.25-.55963,1.25-1.25-.55963-1.25-1.25-1.25-1.25.55963-1.25,1.25Z"/>
  <rect class="st0" width="32" height="32"/>
</svg>