<?xml version="1.0" encoding="UTF-8"?>
<svg id="icon271" data-name="icon" xmlns="http://www.w3.org/2000/svg" width="32" height="32" version="1.1" viewBox="0 0 32 32">
  <!-- Generator: Adobe Illustrator 29.8.2, SVG Export Plug-In . SVG Version: 2.1.1 Build 3)  -->
  <defs>
    <style>
      .st0 {
        fill: none;
      }

      .st1 {
        fill: #151515;
      }
    </style>
  </defs>
  <path class="st1" d="M28.749,10.364l-7.113-7.113C18.528.144,13.472.144,10.364,3.251l-7.113,7.113C.144,13.472.144,18.528,3.251,21.636l7.113,7.113c1.554,1.554,3.595,2.331,5.636,2.331s4.082-.777,5.636-2.331l7.113-7.113c3.107-3.107,3.107-8.164,0-11.271ZM27.335,20.222l-7.113,7.113c-2.328,2.328-6.115,2.328-8.443,0l-7.113-7.113c-1.127-1.128-1.748-2.627-1.748-4.222s.621-3.094,1.748-4.222l7.113-7.113c1.164-1.164,2.692-1.746,4.222-1.746s3.058.582,4.222,1.746l7.113,7.113c1.127,1.128,1.748,2.627,1.748,4.222s-.621,3.094-1.748,4.222ZM21,12c0,2.415-1.721,4.435-4,4.899v2.101c0,.553-.447,1-1,1s-1-.447-1-1v-3c0-.553.447-1,1-1,1.654,0,3-1.346,3-3s-1.346-3-3-3-3,1.346-3,3c0,.553-.447,1-1,1s-1-.447-1-1c0-2.757,2.243-5,5-5s5,2.243,5,5ZM17.75,24.001c0,.966-.784,1.75-1.75,1.75s-1.75-.784-1.75-1.75.784-1.75,1.75-1.75,1.75.784,1.75,1.75Z"/>
  <rect id="transparent_rectangle" class="st0" width="32" height="32"/>
</svg>