<?xml version="1.0" encoding="UTF-8"?>
<svg id="icon155" data-name="icon" xmlns="http://www.w3.org/2000/svg" width="32" height="32" version="1.1" viewBox="0 0 32 32">
  <!-- Generator: Adobe Illustrator 29.8.2, SVG Export Plug-In . SVG Version: 2.1.1 Build 3)  -->
  <defs>
    <style>
      .st0 {
        fill: none;
      }

      .st1 {
        fill: #151515;
      }
    </style>
  </defs>
  <path class="st1" d="M9,4.5v16c0,.827-.636,1.5-1.417,1.5H3.417c-.781,0-1.417-.673-1.417-1.5V4.5c0-.827.636-1.5,1.417-1.5h4.166c.781,0,1.417.673,1.417,1.5ZM29.798,17.48l-2.17-10.207c-.341-1.607-1.781-2.773-3.424-2.773h-13.204v16.05c2.489.254,4.468,2.335,4.5,4.886.014,1.221.612,2.264,1.561,2.723.473.229.964.343,1.444.343.558,0,1.101-.153,1.587-.458.882-.553,1.408-1.504,1.408-2.543v-5h5.853c.758,0,1.466-.338,1.942-.927.478-.589.66-1.352.503-2.093Z"/>
  <rect class="st0" width="32" height="32"/>
</svg>