<?xml version="1.0" encoding="UTF-8"?>
<svg id="learning" xmlns="http://www.w3.org/2000/svg" width="32" height="32" version="1.1" viewBox="0 0 32 32">
  <!-- Generator: Adobe Illustrator 30.1.0, SVG Export Plug-In . SVG Version: 2.1.1 Build 136)  -->
  <title>rh-ui-icon-learning</title>
<desc>education, study, school, student, knowledge, growth, brain, academy, lesson, class, university, research, skill, training, intelligence, wisdom, development, book, classroom, tutorial</desc>
<metadata><?xpacket begin="﻿" id="W5M0MpCehiHzreSzNTczkc9d"?>
<x:xmpmeta xmlns:x="adobe:ns:meta/" x:xmptk="Adobe XMP Core 8.0-c001 1.000000, 0000/00/00-00:00:00        ">
   <rdf:RDF xmlns:rdf="http://www.w3.org/1999/02/22-rdf-syntax-ns#">
      <rdf:Description rdf:about=""
            xmlns:tiff="http://ns.adobe.com/tiff/1.0/"
            xmlns:dc="http://purl.org/dc/elements/1.1/"
            xmlns:xmp="http://ns.adobe.com/xap/1.0/">
         <tiff:ImageLength>32</tiff:ImageLength>
         <tiff:ImageWidth>32</tiff:ImageWidth>
         <dc:format>image/svg+xml</dc:format>
         <dc:modified>2026-01-20T14:41:16.631Z</dc:modified>
         <dc:title>
            <rdf:Alt>
               <rdf:li xml:lang="x-default">rh-ui-icon-learning</rdf:li>
            </rdf:Alt>
         </dc:title>
         <dc:description>
            <rdf:Alt>
               <rdf:li xml:lang="x-default">education, study, school, student, knowledge, growth, brain, academy, lesson, class, university, research, skill, training, intelligence, wisdom, development, book, classroom, tutorial</rdf:li>
            </rdf:Alt>
         </dc:description>
         <xmp:brand-content-type>Icon</xmp:brand-content-type>
         <xmp:brand-content-subtype>UI</xmp:brand-content-subtype>
         <xmp:rhcc-rights-restricted>no</xmp:rhcc-rights-restricted>
         <xmp:rhcc-file-last-modified>2026-01-20T14:37:38.650Z</xmp:rhcc-file-last-modified>
         <xmp:brand-colorway>
            <rdf:Bag>
               <rdf:li>colorway:black</rdf:li>
            </rdf:Bag>
         </xmp:brand-colorway>
      </rdf:Description>
   </rdf:RDF>
</x:xmpmeta>
                                                                                                    
                                                                                                    
                                                                                                    
                                                                                                    
                                                                                                    
                                                                                                    
                                                                                                    
                                                                                                    
                                                                                                    
                                                                                                    
                                                                                                    
                                                                                                    
                                                                                                    
                                                                                        
<?xpacket end="w"?></metadata>
<defs>
    <style>
      .st0 {
        fill: none;
      }

      .st1 {
        fill: #151515;
      }
    </style>
  </defs>
  <path id="icon" class="st1" d="M30,16c0-2.04785-.79492-4.01709-2.2002-5.49951.13281-.49951.2002-1.00195.2002-1.50049,0-3.15332-2.44531-5.74609-5.53906-5.98242-.70215-1.23047-2.0166-2.01758-3.46094-2.01758-1.20032,0-2.26624.54242-3,1.38239-.73376-.83997-1.79968-1.38239-3-1.38239-1.44434,0-2.7583.78711-3.46094,2.01758-3.09375.23633-5.53906,2.8291-5.53906,5.98242,0,.49951.06738,1.00195.20068,1.50049-1.40576,1.48242-2.20068,3.45215-2.20068,5.49951,0,2.04785.79492,4.01758,2.20068,5.49902-.1333.49902-.20068,1.00195-.20068,1.50098,0,3.15332,2.44531,5.74609,5.53906,5.98242.70215,1.23047,2.0166,2.01758,3.46094,2.01758,1.20032,0,2.26624-.5423,3-1.3822.73376.8399,1.79968,1.3822,3,1.3822,1.44434,0,2.75879-.78711,3.46191-2.01758,3.09277-.23633,5.53809-2.8291,5.53809-5.98242,0-.49902-.06738-1.00098-.2002-1.5,1.40527-1.48242,2.2002-3.45215,2.2002-5.5ZM13,29c-.84229,0-1.59668-.54102-1.87744-1.34668-.05115-.14685-.14203-.26733-.24756-.37201v-2.28131c0-.62012.50488-1.125,1.125-1.125.4834,0,.875-.3916.875-.875s-.3916-.875-.875-.875c-1.58545,0-2.875,1.29004-2.875,2.875v1.89685c-1.78485-.40094-3.125-1.99225-3.125-3.89685,0-.46875.09277-.94824.27637-1.42578.14893-.3877.04248-.82715-.26709-1.10352-1.05518-.94336-1.73077-2.22186-1.93628-3.5957h3.927c.62012,0,1.125.50488,1.125,1.125,0,.4834.3916.875.875.875s.875-.3916.875-.875c0-1.58545-1.28955-2.875-2.875-2.875h-3.927c.20544-1.37408.8811-2.65216,1.93628-3.59521.30957-.27686.41602-.71631.26709-1.104-.18359-.47754-.27637-.95703-.27637-1.42578,0-2.20557,1.79443-4,3.95361-4.00098.03418.00488.1499.01709.18408.01807.44043.01416.84033-.25391.98486-.66992.28076-.80566,1.03516-1.34717,1.87744-1.34717,1.10303,0,2,.89697,2,2v5.125h-1c-1.17188,0-2.125-.95312-2.125-2.125,0-.4834-.3916-.875-.875-.875s-.875.3916-.875.875c0,2.13672,1.73828,3.875,3.875,3.875h1v15.125c0,1.10254-.89697,2-2,2ZM22.0459,27.00098c-.03516-.00488-.15527-.0166-.19141-.01758-.43457-.04004-.83203.25781-.97656.66992-.28027.80566-1.03516,1.34668-1.87793,1.34668-1.10254,0-2-.89746-2-2v-6.125c1.17188,0,2.125.95312,2.125,2.125,0,.4834.3916.875.875.875s.875-.3916.875-.875c0-2.13672-1.73828-3.875-3.875-3.875v-5.25h3c1.58496,0,2.875-1.28955,2.875-2.875,0-.4834-.3916-.875-.875-.875s-.875.3916-.875.875c0,.62012-.50488,1.125-1.125,1.125h-3v-7.125c0-1.10303.89746-2,2-2,.84277,0,1.59766.5415,1.87793,1.34717.14453.41504.52148.68262.98438.66992.0625-.00244.12402-.00928.1377-.01709,2.20605,0,4,1.79443,4,4,0,.46729-.09277.94727-.27637,1.42627-.14844.3877-.04199.82666.26758,1.10352,1.27637,1.14111,2.00879,2.77051,2.00879,4.47021,0,1.53613-.60321,3.01172-1.66113,4.125h-.33887c-1.17188,0-2.125-.95312-2.125-2.125,0-.4834-.3916-.875-.875-.875s-.875.3916-.875.875c0,2.06995,1.6355,3.75134,3.67999,3.85529.11877.38495.19501.76886.19501,1.14471,0,2.20605-1.79395,4-3.9541,4.00098Z"/>
  <rect id="Transparent_rectangle" class="st0" width="32" height="32"/>
</svg>