<?xml version="1.0" encoding="UTF-8"?>
<svg id="icon216" data-name="icon" xmlns="http://www.w3.org/2000/svg" width="32" height="32" version="1.1" viewBox="0 0 32 32">
  <!-- Generator: Adobe Illustrator 29.8.2, SVG Export Plug-In . SVG Version: 2.1.1 Build 3)  -->
  <title>rh-ui-icon-cloud-security</title>
<metadata><?xpacket begin="﻿" id="W5M0MpCehiHzreSzNTczkc9d"?>
<x:xmpmeta xmlns:x="adobe:ns:meta/" x:xmptk="Adobe XMP Core 8.0-c001 1.000000, 0000/00/00-00:00:00        ">
   <rdf:RDF xmlns:rdf="http://www.w3.org/1999/02/22-rdf-syntax-ns#">
      <rdf:Description rdf:about=""
            xmlns:xmp="http://ns.adobe.com/xap/1.0/"
            xmlns:dc="http://purl.org/dc/elements/1.1/"
            xmlns:tiff="http://ns.adobe.com/tiff/1.0/">
         <xmp:brand-content-subtype>UI</xmp:brand-content-subtype>
         <xmp:rhcc-rights-restricted>no</xmp:rhcc-rights-restricted>
         <xmp:rhcc-file-last-modified>2025-10-14T20:46:06.513Z</xmp:rhcc-file-last-modified>
         <xmp:brand-content-type>Icon</xmp:brand-content-type>
         <xmp:brand-colorway>
            <rdf:Bag>
               <rdf:li>colorway:black</rdf:li>
            </rdf:Bag>
         </xmp:brand-colorway>
         <dc:modified>2025-10-14T20:49:48.605Z</dc:modified>
         <dc:format>image/svg+xml</dc:format>
         <dc:title>
            <rdf:Alt>
               <rdf:li xml:lang="x-default">rh-ui-icon-cloud-security</rdf:li>
            </rdf:Alt>
         </dc:title>
         <tiff:ImageLength>32</tiff:ImageLength>
         <tiff:ImageWidth>32</tiff:ImageWidth>
      </rdf:Description>
   </rdf:RDF>
</x:xmpmeta>
                                                                                                    
                                                                                                    
                                                                                                    
                                                                                                    
                                                                                                    
                                                                                                    
                                                                                                    
                                                                                                    
                                                                                                    
                                                                                                    
                                                                                                    
                                                                                                    
                                                                                                    
                                                                                                    
                                                                                                    
                                                                                                    
                                                                                                    
                                                                                                    
                                                                                                    
                                                                                                    
                           
<?xpacket end="w"?></metadata>
<defs>
    <style>
      .st0 {
        fill: none;
      }

      .st1 {
        fill: #151515;
      }
    </style>
  </defs>
  <path class="st1" d="M19.5,20.5h-.5v-2c0-1.654-1.346-3-3-3s-3,1.346-3,3v2h-.5c-.827,0-1.5.673-1.5,1.5v5c0,.827.673,1.5,1.5,1.5h7c.827,0,1.5-.673,1.5-1.5v-5c0-.827-.673-1.5-1.5-1.5ZM15,18.5c0-.552.448-1,1-1s1,.448,1,1v2h-2v-2ZM19,26.5h-6v-4h6v4ZM31,18.5c0,3.032-2.468,5.5-5.5,5.5h-.5c-.553,0-1-.447-1-1s.447-1,1-1h.5c1.93,0,3.5-1.57,3.5-3.5,0-1.802-1.365-3.291-3.176-3.465-.272-.025-.522-.163-.691-.378-.169-.216-.242-.491-.202-.762.046-.315.069-.616.069-.896,0-3.859-3.141-7-7-7-3.317,0-6.202,2.358-6.859,5.608-.059.289-.242.537-.5.679-.259.143-.567.162-.842.056-.586-.228-1.191-.343-1.799-.343-2.757,0-5,2.243-5,5,0,2.454,1.751,4.524,4.163,4.924.545.09.914.604.823,1.149-.09.544-.607.918-1.149.823-3.382-.56-5.837-3.46-5.837-6.896,0-3.859,3.141-7,7-7,.491,0,.979.053,1.461.158,1.208-3.625,4.642-6.158,8.539-6.158,4.963,0,9,4.037,9,9,0,.075,0,.15-.004.227,2.34.655,4.004,2.773,4.004,5.273Z"/>
  <rect id="transparent_rectangle" class="st0" width="32" height="32"/>
</svg>