<?xml version="1.0" encoding="UTF-8"?>
<svg id="icon14" data-name="icon" xmlns="http://www.w3.org/2000/svg" width="32" height="32" version="1.1" viewBox="0 0 32 32">
  <!-- Generator: Adobe Illustrator 29.8.2, SVG Export Plug-In . SVG Version: 2.1.1 Build 3)  -->
  <defs>
    <style>
      .st0 {
        fill: none;
      }

      .st1 {
        fill: #151515;
      }
    </style>
  </defs>
  <path class="st1" d="M29.5,6H2.5c-.827,0-1.5.673-1.5,1.5v17c0,.827.673,1.5,1.5,1.5h27c.827,0,1.5-.673,1.5-1.5V7.5c0-.827-.673-1.5-1.5-1.5ZM29,24H3v-9h26v9ZM29,11H3v-3h26v3ZM6,20c0-.552.448-1,1-1h9c.552,0,1,.448,1,1s-.448,1-1,1H7c-.552,0-1-.448-1-1Z"/>
  <rect id="transparent_rectangle" class="st0" width="32" height="32"/>
</svg>