<?xml version="1.0" encoding="UTF-8"?>
<svg id="icon54" data-name="icon" xmlns="http://www.w3.org/2000/svg" width="32" height="32" version="1.1" viewBox="0 0 32 32">
  <!-- Generator: Adobe Illustrator 29.8.2, SVG Export Plug-In . SVG Version: 2.1.1 Build 3)  -->
  <defs>
    <style>
      .st0 {
        fill: none;
      }

      .st1 {
        fill: #151515;
      }
    </style>
  </defs>
  <path class="st1" d="M16,1C7.729,1,1,7.729,1,16s6.729,15,15,15,15-6.729,15-15S24.271,1,16,1ZM16,29c-7.168,0-13-5.832-13-13S8.832,3,16,3s13,5.832,13,13-5.832,13-13,13ZM13.707,11.707l-4.293,4.293,4.293,4.293c.391.391.391,1.023,0,1.414-.195.195-.451.293-.707.293s-.512-.098-.707-.293l-4.646-4.646c-.585-.585-.585-1.536,0-2.121l4.646-4.646c.391-.391,1.023-.391,1.414,0s.391,1.023,0,1.414ZM24.354,14.939c.585.585.585,1.536,0,2.121l-4.646,4.646c-.195.195-.451.293-.707.293s-.512-.098-.707-.293c-.391-.391-.391-1.023,0-1.414l4.293-4.293-4.293-4.293c-.391-.391-.391-1.023,0-1.414s1.023-.391,1.414,0l4.646,4.646Z"/>
  <rect id="transparent_rectangle" class="st0" width="32" height="32"/>
</svg>