<?xml version="1.0" encoding="UTF-8"?>
<svg id="icon63" data-name="icon" xmlns="http://www.w3.org/2000/svg" width="32" height="32" version="1.1" viewBox="0 0 32 32">
  <!-- Generator: Adobe Illustrator 29.8.2, SVG Export Plug-In . SVG Version: 2.1.1 Build 3)  -->
  <defs>
    <style>
      .st0 {
        fill: none;
      }

      .st1 {
        fill: #151515;
      }
    </style>
  </defs>
  <path class="st1" d="M30.354,17.061l-12.646,12.646c-.191.191-.447.293-.707.293-.129,0-.259-.025-.383-.076-.374-.155-.617-.52-.617-.924v-8c0-.265.105-.52.293-.707l3.586-3.586c.39-.39.39-1.024,0-1.414l-3.586-3.586c-.188-.188-.293-.442-.293-.707V3c0-.404.244-.769.617-.924.373-.156.803-.07,1.09.217l12.646,12.646c.585.585.585,1.536,0,2.121ZM16.354,14.939L3.707,2.293c-.287-.287-.716-.373-1.09-.217-.374.155-.617.52-.617.924v26c0,.404.244.769.617.924.124.051.254.076.383.076.26,0,.516-.102.707-.293l12.646-12.646c.585-.585.585-1.536,0-2.121Z"/>
  <rect class="st0" width="32" height="32"/>
</svg>