<?xml version="1.0" encoding="UTF-8"?>
<svg id="icon145" data-name="icon" xmlns="http://www.w3.org/2000/svg" width="32" height="32" version="1.1" viewBox="0 0 32 32">
  <!-- Generator: Adobe Illustrator 29.8.2, SVG Export Plug-In . SVG Version: 2.1.1 Build 3)  -->
  <defs>
    <style>
      .st0 {
        fill: none;
      }

      .st1 {
        fill: #151515;
      }
    </style>
  </defs>
  <path class="st1" d="M17.439,2.102c-.344-.168-.751-.126-1.054.109l-8.729,6.789H2.5c-.827,0-1.5.673-1.5,1.5v11c0,.827.673,1.5,1.5,1.5h5.157l8.729,6.789c.18.14.396.211.614.211.149,0,.3-.033.439-.102.343-.168.561-.517.561-.898V3c0-.382-.218-.73-.561-.898ZM16,26.955l-7.386-5.744c-.176-.137-.392-.211-.614-.211H3v-10h5c.223,0,.438-.074.614-.211l7.386-5.744v21.91ZM25,16c0,2.188-.799,4.302-2.249,5.95-.197.225-.474.34-.751.34-.235,0-.471-.082-.66-.249-.415-.365-.455-.997-.091-1.411,1.129-1.284,1.751-2.928,1.751-4.63s-.622-3.346-1.751-4.63c-.364-.414-.324-1.046.091-1.411.412-.364,1.045-.324,1.411.091,1.45,1.648,2.249,3.762,2.249,5.95Z"/>
  <rect id="transparent_rectangle" class="st0" width="32" height="32"/>
</svg>