<?xml version="1.0" encoding="UTF-8"?>
<svg id="icon1" data-name="icon" xmlns="http://www.w3.org/2000/svg" width="32" height="32" version="1.1" viewBox="0 0 32 32">
  <!-- Generator: Adobe Illustrator 29.8.2, SVG Export Plug-In . SVG Version: 2.1.1 Build 3)  -->
  <defs>
    <style>
      .st0 {
        fill: none;
      }

      .st1 {
        fill: #151515;
      }
    </style>
  </defs>
  <path class="st1" d="M25,27c-.552,0-1,.448-1,1v1h-5v-2c0-.552-.448-1-1-1s-1,.448-1,1v2h-5V3h5v8c0,.552.448,1,1,1s1-.448,1-1v-1h5v1c0,.552.448,1,1,1s1-.448,1-1v-1.5c0-.827-.673-1.5-1.5-1.5h-5.5V2.5c0-.827-.673-1.5-1.5-1.5h-6c-.827,0-1.5.673-1.5,1.5v2.5h-5.5c-.827,0-1.5.673-1.5,1.5v23c0,.827.673,1.5,1.5,1.5h20c.827,0,1.5-.673,1.5-1.5v-1.5c0-.552-.448-1-1-1ZM10,29h-5V7h5v22ZM29.707,25.293l-2.822-2.822c.699-.981,1.115-2.177,1.115-3.471,0-3.309-2.691-6-6-6s-6,2.691-6,6,2.691,6,6,6c1.294,0,2.49-.416,3.471-1.115l2.822,2.822c.195.195.451.293.707.293s.512-.098.707-.293c.391-.391.391-1.023,0-1.414ZM22,23c-2.206,0-4-1.794-4-4s1.794-4,4-4,4,1.794,4,4-1.794,4-4,4Z"/>
  <rect id="transparent_rectangle" class="st0" width="32" height="32"/>
</svg>