<?xml version="1.0" encoding="UTF-8"?>
<svg id="icon73" data-name="icon" xmlns="http://www.w3.org/2000/svg" width="32" height="32" version="1.1" viewBox="0 0 32 32">
  <!-- Generator: Adobe Illustrator 29.8.2, SVG Export Plug-In . SVG Version: 2.1.1 Build 3)  -->
  <defs>
    <style>
      .st0 {
        fill: none;
      }

      .st1 {
        fill: #151515;
      }
    </style>
  </defs>
  <path class="st1" d="M29.5,16H2.5c-.827,0-1.5.673-1.5,1.5v11c0,.827.673,1.5,1.5,1.5h27c.827,0,1.5-.673,1.5-1.5v-11c0-.827-.673-1.5-1.5-1.5ZM29,28H3v-10h26v10ZM7,23c0-.552.448-1,1-1h5c.552,0,1,.448,1,1s-.448,1-1,1h-5c-.552,0-1-.448-1-1ZM11.293,8.707c-.391-.391-.391-1.023,0-1.414s1.023-.391,1.414,0l2.293,2.293V2c0-.552.448-1,1-1s1,.448,1,1v7.586l2.293-2.293c.391-.391,1.023-.391,1.414,0s.391,1.023,0,1.414l-3.646,3.646c-.292.292-.676.438-1.061.438s-.768-.146-1.061-.438l-3.646-3.646ZM21.38,23.015c0-.897.728-1.625,1.625-1.625s1.625.728,1.625,1.625-.728,1.625-1.625,1.625-1.625-.728-1.625-1.625Z"/>
  <rect id="transparent_rectangle" class="st0" width="32" height="32"/>
</svg>