<?xml version="1.0" encoding="UTF-8"?>
<svg id="icon40" data-name="icon" xmlns="http://www.w3.org/2000/svg" width="32" height="32" version="1.1" viewBox="0 0 32 32">
  <!-- Generator: Adobe Illustrator 29.8.2, SVG Export Plug-In . SVG Version: 2.1.1 Build 3)  -->
  <defs>
    <style>
      .st0 {
        fill: none;
      }

      .st1 {
        fill: #151515;
      }
    </style>
  </defs>
  <path class="st1" d="M22.5,7.5c0-3.584-2.916-6.5-6.5-6.5s-6.5,2.916-6.5,6.5,2.916,6.5,6.5,6.5,6.5-2.916,6.5-6.5ZM16,12c-2.481,0-4.5-2.019-4.5-4.5s2.019-4.5,4.5-4.5,4.5,2.019,4.5,4.5-2.019,4.5-4.5,4.5ZM24.5,18c-3.584,0-6.5,2.916-6.5,6.5s2.916,6.5,6.5,6.5,6.5-2.916,6.5-6.5-2.916-6.5-6.5-6.5ZM24.5,29c-2.481,0-4.5-2.019-4.5-4.5s2.019-4.5,4.5-4.5,4.5,2.019,4.5,4.5-2.019,4.5-4.5,4.5ZM5,2v11c0,.552-.448,1-1,1s-1-.448-1-1V2c0-.552.448-1,1-1s1,.448,1,1ZM27,13V2c0-.552.448-1,1-1s1,.448,1,1v11c0,.552-.448,1-1,1s-1-.448-1-1ZM13,19v11c0,.552-.448,1-1,1s-1-.448-1-1v-11c0-.552.448-1,1-1s1,.448,1,1ZM5,19v11c0,.552-.448,1-1,1s-1-.448-1-1v-11c0-.552.448-1,1-1s1,.448,1,1Z"/>
  <rect id="transparent_rectangle" class="st0" width="32" height="32"/>
</svg>