<?xml version="1.0" encoding="UTF-8"?>
<svg id="icon186" data-name="icon" xmlns="http://www.w3.org/2000/svg" width="32" height="32" version="1.1" viewBox="0 0 32 32">
  <!-- Generator: Adobe Illustrator 29.8.2, SVG Export Plug-In . SVG Version: 2.1.1 Build 3)  -->
  <defs>
    <style>
      .st0 {
        fill: none;
      }

      .st1 {
        fill: #151515;
      }
    </style>
  </defs>
  <path class="st1" d="M20.875,16c0,1.348-.126,2.685-.358,4h-9.034c-.232-1.315-.358-2.652-.358-4s.126-2.685.358-4h9.034c.232,1.315.358,2.652.358,4ZM8.875,16c0-1.347.126-2.682.338-4H1.558c-.354,1.276-.558,2.613-.558,4s.204,2.724.558,4h7.655c-.212-1.318-.338-2.653-.338-4ZM11.932,22c.797,2.957,2.167,5.757,4.068,8.223,1.901-2.466,3.271-5.265,4.068-8.223h-8.135ZM20.068,10c-.797-2.957-2.167-5.757-4.068-8.223-1.901,2.466-3.271,5.265-4.068,8.223h8.135ZM22.379,22c-.767,3.14-2.114,6.128-4.011,8.794,5.104-.815,9.356-4.2,11.371-8.794h-7.36ZM9.621,22H2.261c2.015,4.595,6.267,7.979,11.371,8.794-1.897-2.666-3.244-5.655-4.011-8.794ZM9.621,10c.767-3.14,2.114-6.128,4.011-8.794-5.104.815-9.356,4.2-11.371,8.794h7.36ZM30.442,20c.354-1.276.558-2.613.558-4s-.204-2.724-.558-4h-7.655c.212,1.318.338,2.653.338,4s-.126,2.682-.338,4h7.655ZM22.379,10h7.36c-2.015-4.595-6.267-7.979-11.371-8.794,1.897,2.666,3.244,5.655,4.011,8.794Z"/>
  <rect class="st0" width="32" height="32"/>
</svg>