<?xml version="1.0" encoding="UTF-8"?>
<svg id="icon123" data-name="icon" xmlns="http://www.w3.org/2000/svg" width="32" height="32" version="1.1" viewBox="0 0 32 32">
  <!-- Generator: Adobe Illustrator 29.8.2, SVG Export Plug-In . SVG Version: 2.1.1 Build 3)  -->
  <defs>
    <style>
      .st0 {
        fill: none;
      }

      .st1 {
        fill: #151515;
      }
    </style>
  </defs>
  <path class="st1" d="M15.707,22.293c.391.391.391,1.023,0,1.414l-5.646,5.646c-.292.292-.677.438-1.061.438s-.769-.146-1.061-.438l-5.646-5.646c-.391-.391-.391-1.023,0-1.414s1.023-.391,1.414,0l4.293,4.293V3c0-.552.447-1,1-1s1,.448,1,1v23.586l4.293-4.293c.391-.391,1.023-.391,1.414,0ZM29,15h-14c-.553,0-1,.448-1,1s.447,1,1,1h14c.553,0,1-.448,1-1s-.447-1-1-1ZM15,11h10c.553,0,1-.448,1-1s-.447-1-1-1h-10c-.553,0-1,.448-1,1s.447,1,1,1ZM15,5h6c.553,0,1-.448,1-1s-.447-1-1-1h-6c-.553,0-1,.448-1,1s.447,1,1,1Z"/>
  <rect id="transparent_rectangle" class="st0" width="32" height="32"/>
</svg>