<?xml version="1.0" encoding="UTF-8"?>
<svg id="icon88" data-name="icon" xmlns="http://www.w3.org/2000/svg" width="32" height="32" version="1.1" viewBox="0 0 32 32">
  <!-- Generator: Adobe Illustrator 29.8.2, SVG Export Plug-In . SVG Version: 2.1.1 Build 3)  -->
  <defs>
    <style>
      .st0 {
        fill: none;
      }

      .st1 {
        fill: #151515;
      }
    </style>
  </defs>
  <path class="st1" d="M21.5,11h6.5c.553,0,1-.448,1-1s-.447-1-1-1h-6V3h6c.553,0,1-.448,1-1s-.447-1-1-1h-6.5c-.827,0-1.5.673-1.5,1.5v2.5h-8.1c-.46-2.28-2.48-4-4.9-4-2.76,0-5,2.24-5,5s2.24,5,5,5c1.02,0,1.97-.31,2.76-.83l5.51,5.51c-.79.89-1.27,2.05-1.27,3.32s.48,2.43,1.27,3.32l-6.69,6.68h-4.58c-.553,0-1,.448-1,1s.447,1,1,1h24c.553,0,1-.448,1-1s-.447-1-1-1H11.42l5.47-5.47c.64.3,1.36.47,2.11.47,2.76,0,5-2.24,5-5s-2.24-5-5-5c-.75,0-1.47.17-2.11.47l-5.71-5.71c.34-.52.59-1.12.72-1.76h8.1v2.5c0,.827.673,1.5,1.5,1.5ZM18.47,16.05c.17-.03.35-.05.53-.05,1.65,0,3,1.35,3,3s-1.35,3-3,3c-.18,0-.36-.02-.53-.05-.72-.13-1.35-.51-1.79-1.05-.42-.52-.68-1.19-.68-1.9s.26-1.38.68-1.9c.44-.54,1.07-.92,1.79-1.05ZM9.7,7.28c-.29.62-.79,1.13-1.41,1.42-.39.19-.83.3-1.29.3-1.65,0-3-1.35-3-3s1.35-3,3-3c1.31,0,2.42.85,2.83,2.02.11.31.17.64.17.98s-.06.67-.17.98c-.04.1-.08.2-.13.3Z"/>
  <rect id="transparent_rectangle" class="st0" width="32" height="32"/>
</svg>