<?xml version="1.0" encoding="UTF-8"?>
<svg id="icon95" data-name="icon" xmlns="http://www.w3.org/2000/svg" width="32" height="32" version="1.1" viewBox="0 0 32 32">
  <!-- Generator: Adobe Illustrator 29.8.2, SVG Export Plug-In . SVG Version: 2.1.1 Build 3)  -->
  <defs>
    <style>
      .st0 {
        fill: none;
      }

      .st1 {
        fill: #151515;
      }
    </style>
  </defs>
  <path class="st1" d="M26.5,1.25h-12.375v8.25c0,.896-.729,1.625-1.625,1.625H4.25v18.375c0,.689.561,1.25,1.25,1.25h21c.689,0,1.25-.561,1.25-1.25V2.5c0-.689-.561-1.25-1.25-1.25ZM10,14.875h6c.621,0,1.125.504,1.125,1.125s-.504,1.125-1.125,1.125h-6c-.621,0-1.125-.504-1.125-1.125s.504-1.125,1.125-1.125ZM22,27.125h-12c-.621,0-1.125-.504-1.125-1.125s.504-1.125,1.125-1.125h12c.621,0,1.125.504,1.125,1.125s-.504,1.125-1.125,1.125ZM22,22.125h-12c-.621,0-1.125-.504-1.125-1.125s.504-1.125,1.125-1.125h12c.621,0,1.125.504,1.125,1.125s-.504,1.125-1.125,1.125ZM4.275,8.875c.026-.151.085-.295.195-.405L11.47,1.47c.11-.11.254-.169.405-.195v7.6h-7.6Z"/>
  <rect class="st0" width="32" height="32"/>
</svg>