<?xml version="1.0" encoding="UTF-8"?>
<svg id="icon266" data-name="icon" xmlns="http://www.w3.org/2000/svg" width="32" height="32" version="1.1" viewBox="0 0 32 32">
  <!-- Generator: Adobe Illustrator 29.8.2, SVG Export Plug-In . SVG Version: 2.1.1 Build 3)  -->
  <defs>
    <style>
      .st0 {
        fill: none;
      }

      .st1 {
        fill: #151515;
      }
    </style>
  </defs>
  <path class="st1" d="M24,9c0,4.072-3.06,7.444-7,7.938v5.062c0,.552-.447,1-1,1s-1-.448-1-1v-6c0-.552.447-1,1-1,3.309,0,6-2.691,6-6s-2.691-6-6-6-6,2.691-6,6c0,.552-.447,1-1,1s-1-.448-1-1c0-4.411,3.589-8,8-8s8,3.589,8,8ZM16,27.388c-.897,0-1.625.728-1.625,1.625s.728,1.625,1.625,1.625,1.625-.728,1.625-1.625-.728-1.625-1.625-1.625Z"/>
  <rect id="transparent_rectangle" class="st0" width="32" height="32"/>
</svg>