<?xml version="1.0" encoding="UTF-8"?>
<svg id="icon142" data-name="icon" xmlns="http://www.w3.org/2000/svg" width="32" height="32" version="1.1" viewBox="0 0 32 32">
  <!-- Generator: Adobe Illustrator 29.8.2, SVG Export Plug-In . SVG Version: 2.1.1 Build 3)  -->
  <defs>
    <style>
      .st0 {
        fill: none;
      }

      .st1 {
        fill: #151515;
      }
    </style>
  </defs>
  <path class="st1" d="M25.626,20.769c1.439-1.097,2.374-2.824,2.374-4.769,0-3.309-2.691-6-6-6s-6,2.691-6,6c0,1.945.935,3.672,2.374,4.769-3.16,1.398-5.374,4.558-5.374,8.231,0,.553.448,1,1,1h16c.552,0,1-.447,1-1,0-3.672-2.214-6.833-5.374-8.231ZM18,16c0-2.206,1.794-4,4-4s4,1.794,4,4-1.794,4-4,4-4-1.794-4-4ZM15.071,28c.487-3.388,3.408-6,6.929-6s6.442,2.612,6.929,6h-13.857ZM14,21c0-.553-.448-1-1-1H3.071c.487-3.388,3.408-6,6.929-6,1.23,0,2.441.323,3.5.936.479.277,1.089.114,1.366-.364.276-.479.113-1.09-.365-1.366-.283-.164-.579-.302-.878-.433,1.441-1.097,2.378-2.825,2.378-4.772,0-3.309-2.691-6-6-6s-6,2.691-6,6c0,1.945.935,3.672,2.374,4.769-3.16,1.398-5.374,4.558-5.374,8.231,0,.553.448,1,1,1h11c.552,0,1-.447,1-1ZM6,8c0-2.206,1.794-4,4-4s4,1.794,4,4-1.794,4-4,4-4-1.794-4-4Z"/>
  <rect id="transparent_rectangle" class="st0" width="32" height="32"/>
</svg>