<?xml version="1.0" encoding="UTF-8"?>
<svg id="icon237" data-name="icon" xmlns="http://www.w3.org/2000/svg" width="32" height="32" version="1.1" viewBox="0 0 32 32">
  <!-- Generator: Adobe Illustrator 29.8.2, SVG Export Plug-In . SVG Version: 2.1.1 Build 3)  -->
  <defs>
    <style>
      .st0 {
        fill: none;
      }

      .st1 {
        fill: #151515;
      }
    </style>
  </defs>
  <path class="st1" d="M24.822,3.874s0-.001-.002-.002c-2.569-1.879-5.62-2.872-8.82-2.872C7.729,1,1,7.729,1,16s6.729,15,15,15,15-6.729,15-15c0-4.783-2.31-9.316-6.178-12.126ZM16,29c-7.168,0-13-5.832-13-13,0-6.832,5.297-12.449,12-12.962v12.962c0,.434.279.817.691.951.102.033.206.049.309.049h0c.141,0,.275-.039.402-.096.03-.013.057-.027.085-.043.122-.069.235-.154.321-.273l7.619-10.48c2.879,2.452,4.572,6.08,4.572,9.893,0,7.168-5.832,13-13,13Z"/>
  <rect id="transparent_rectangle" class="st0" width="32" height="32"/>
</svg>