<?xml version="1.0" encoding="UTF-8"?>
<svg id="icon57" data-name="icon" xmlns="http://www.w3.org/2000/svg" width="32" height="32" version="1.1" viewBox="0 0 32 32">
  <!-- Generator: Adobe Illustrator 29.8.2, SVG Export Plug-In . SVG Version: 2.1.1 Build 3)  -->
  <defs>
    <style>
      .st0 {
        fill: none;
      }

      .st1 {
        fill: #151515;
      }
    </style>
  </defs>
  <path class="st1" d="M28.5,2H3.5c-.827,0-1.5.673-1.5,1.5v25c0,.827.673,1.5,1.5,1.5h25c.827,0,1.5-.673,1.5-1.5V3.5c0-.827-.673-1.5-1.5-1.5ZM28,28H4V4h24v24ZM8.5,25h15c.827,0,1.5-.673,1.5-1.5v-8c0-.827-.673-1.5-1.5-1.5h-2.5v-1.5c0-.827-.673-1.5-1.5-1.5h-7c-.827,0-1.5.673-1.5,1.5v1.5h-2.5c-.827,0-1.5.673-1.5,1.5v8c0,.827.673,1.5,1.5,1.5ZM9,16h2.5c.827,0,1.5-.673,1.5-1.5v-1.5h6v1.5c0,.827.673,1.5,1.5,1.5h2.5v7h-2v-3c0-.552-.448-1-1-1s-1,.448-1,1v3h-2v-3c0-.552-.448-1-1-1s-1,.448-1,1v3h-2v-3c0-.552-.448-1-1-1s-1,.448-1,1v3h-2v-7ZM13,8c0-.552.448-1,1-1h4c.552,0,1,.448,1,1s-.448,1-1,1h-4c-.552,0-1-.448-1-1Z"/>
  <rect id="transparent_rectangle" class="st0" width="32" height="32"/>
</svg>