<?xml version="1.0" encoding="UTF-8"?>
<svg id="icon32" data-name="icon" xmlns="http://www.w3.org/2000/svg" width="32" height="32" version="1.1" viewBox="0 0 32 32">
  <!-- Generator: Adobe Illustrator 29.8.2, SVG Export Plug-In . SVG Version: 2.1.1 Build 3)  -->
  <defs>
    <style>
      .st0 {
        fill: none;
      }

      .st1 {
        fill: #151515;
      }
    </style>
  </defs>
  <path class="st1" d="M29.5,4H2.5c-.827,0-1.5.673-1.5,1.5v16c0,.827.673,1.5,1.5,1.5h5.5v6c0,.404.244.769.617.924.124.051.254.076.383.076.26,0,.516-.102.707-.293l6.707-6.707h13.086c.827,0,1.5-.673,1.5-1.5V5.5c0-.827-.673-1.5-1.5-1.5ZM29,21h-13c-.265,0-.52.105-.707.293l-5.293,5.293v-4.086c0-.827-.673-1.5-1.5-1.5H3V6h26v15Z"/>
  <rect id="transparent_rectangle" class="st0" width="32" height="32"/>
</svg>