<?xml version="1.0" encoding="UTF-8"?>
<svg id="icon255" data-name="icon" xmlns="http://www.w3.org/2000/svg" width="32" height="32" version="1.1" viewBox="0 0 32 32">
  <!-- Generator: Adobe Illustrator 29.8.2, SVG Export Plug-In . SVG Version: 2.1.1 Build 3)  -->
  <title>rh-ui-icon-catalog</title>
<metadata><?xpacket begin="﻿" id="W5M0MpCehiHzreSzNTczkc9d"?>
<x:xmpmeta xmlns:x="adobe:ns:meta/" x:xmptk="Adobe XMP Core 8.0-c001 1.000000, 0000/00/00-00:00:00        ">
   <rdf:RDF xmlns:rdf="http://www.w3.org/1999/02/22-rdf-syntax-ns#">
      <rdf:Description rdf:about=""
            xmlns:dc="http://purl.org/dc/elements/1.1/"
            xmlns:xmp="http://ns.adobe.com/xap/1.0/"
            xmlns:tiff="http://ns.adobe.com/tiff/1.0/">
         <dc:format>image/svg+xml</dc:format>
         <dc:modified>2025-10-14T20:49:23.076Z</dc:modified>
         <dc:title>
            <rdf:Alt>
               <rdf:li xml:lang="x-default">rh-ui-icon-catalog</rdf:li>
            </rdf:Alt>
         </dc:title>
         <xmp:brand-content-type>Icon</xmp:brand-content-type>
         <xmp:rhcc-file-last-modified>2025-10-14T20:46:10.166Z</xmp:rhcc-file-last-modified>
         <xmp:brand-content-subtype>UI</xmp:brand-content-subtype>
         <xmp:rhcc-rights-restricted>no</xmp:rhcc-rights-restricted>
         <xmp:brand-colorway>
            <rdf:Bag>
               <rdf:li>colorway:black</rdf:li>
            </rdf:Bag>
         </xmp:brand-colorway>
         <tiff:ImageWidth>32</tiff:ImageWidth>
         <tiff:ImageLength>32</tiff:ImageLength>
      </rdf:Description>
   </rdf:RDF>
</x:xmpmeta>
                                                                                                    
                                                                                                    
                                                                                                    
                                                                                                    
                                                                                                    
                                                                                                    
                                                                                                    
                                                                                                    
                                                                                                    
                                                                                                    
                                                                                                    
                                                                                                    
                                                                                                    
                                                                                                    
                                                                                                    
                                                                                                    
                                                                                                    
                                                                                                    
                                                                                                    
                                                                                                    
                           
<?xpacket end="w"?></metadata>
<defs>
    <style>
      .st0 {
        fill: none;
      }

      .st1 {
        fill: #151515;
      }
    </style>
  </defs>
  <path class="st1" d="M26.208,16.722l-7.208-1.531v-5.19c0-1.654-1.346-3-3-3-.812,0-1.566.316-2.107.873-.576.561-.893,1.315-.893,2.127v7.586l-.793-.793c-1.217-1.217-3.197-1.217-4.414,0-.589.589-.913,1.372-.913,2.207s.324,1.618.913,2.207l1.217,1.218c.111,2.323,1.131,4.541,2.835,6.139,1.687,1.582,3.851,2.435,6.147,2.435.199,0,.4-.007.602-.02,4.714-.3,8.406-4.362,8.406-9.248v-4.03c0-.473-.33-.88-.792-.979ZM25,21.73c0,3.833-2.87,7.019-6.534,7.252-1.972.124-3.827-.541-5.254-1.878-1.426-1.338-2.212-3.15-2.212-5.104,0-.266-.105-.52-.293-.707l-1.5-1.5c-.271-.271-.327-.58-.327-.793s.057-.522.327-.793c.213-.213.494-.329.793-.329s.58.116.793.329l2.5,2.5c.287.287.717.374,1.09.217.374-.154.617-.52.617-.924v-10c0-.267.103-.514.307-.713.18-.185.427-.287.693-.287.552,0,1,.448,1,1v6c0,.472.33.88.792.979l7.208,1.531v3.221ZM30,3.5v5c0,.827-.673,1.5-1.5,1.5h-5.5c-.553,0-1-.447-1-1s.447-1,1-1h5v-4H4v4h5c.553,0,1,.447,1,1s-.447,1-1,1H3.5c-.827,0-1.5-.673-1.5-1.5V3.5c0-.827.673-1.5,1.5-1.5h25c.827,0,1.5.673,1.5,1.5ZM30,13c0,.553-.447,1-1,1h-6c-.553,0-1-.447-1-1s.447-1,1-1h6c.553,0,1,.447,1,1ZM9,14h-5v5c0,.553-.447,1-1,1s-1-.447-1-1v-5.5c0-.827.673-1.5,1.5-1.5h5.5c.553,0,1,.447,1,1s-.447,1-1,1Z"/>
  <rect id="transparent_rectangle" class="st0" width="32" height="32"/>
</svg>