<?xml version="1.0" encoding="UTF-8"?>
<svg id="icon40" data-name="icon" xmlns="http://www.w3.org/2000/svg" width="32" height="32" version="1.1" viewBox="0 0 32 32">
  <!-- Generator: Adobe Illustrator 29.8.2, SVG Export Plug-In . SVG Version: 2.1.1 Build 3)  -->
  <defs>
    <style>
      .st0 {
        fill: none;
      }

      .st1 {
        fill: #151515;
      }
    </style>
  </defs>
  <path class="st1" d="M16,1C7.729,1,1,7.729,1,16s6.729,15,15,15,15-6.729,15-15S24.271,1,16,1ZM22.796,14.795c-.22.22-.508.33-.796.33s-.576-.11-.796-.33l-4.079-4.079v13.284c0,.621-.504,1.125-1.125,1.125s-1.125-.504-1.125-1.125v-13.284l-4.079,4.079c-.439.439-1.152.439-1.592,0-.438-.439-.438-1.151,0-1.591l5.646-5.646c.635-.634,1.664-.634,2.299,0l5.646,5.646c.438.439.438,1.151,0,1.591Z"/>
  <rect class="st0" width="32" height="32"/>
</svg>