<?xml version="1.0" encoding="UTF-8"?>
<svg id="icon228" data-name="icon" xmlns="http://www.w3.org/2000/svg" width="32" height="32" version="1.1" viewBox="0 0 32 32">
  <!-- Generator: Adobe Illustrator 29.8.2, SVG Export Plug-In . SVG Version: 2.1.1 Build 3)  -->
  <title>rh-ui-icon-learn</title>
<metadata><?xpacket begin="﻿" id="W5M0MpCehiHzreSzNTczkc9d"?>
<x:xmpmeta xmlns:x="adobe:ns:meta/" x:xmptk="Adobe XMP Core 8.0-c001 1.000000, 0000/00/00-00:00:00        ">
   <rdf:RDF xmlns:rdf="http://www.w3.org/1999/02/22-rdf-syntax-ns#">
      <rdf:Description rdf:about=""
            xmlns:xmp="http://ns.adobe.com/xap/1.0/"
            xmlns:dc="http://purl.org/dc/elements/1.1/"
            xmlns:tiff="http://ns.adobe.com/tiff/1.0/">
         <xmp:brand-content-subtype>UI</xmp:brand-content-subtype>
         <xmp:rhcc-rights-restricted>no</xmp:rhcc-rights-restricted>
         <xmp:rhcc-file-last-modified>2025-10-14T20:46:28.028Z</xmp:rhcc-file-last-modified>
         <xmp:brand-content-type>Icon</xmp:brand-content-type>
         <xmp:brand-colorway>
            <rdf:Bag>
               <rdf:li>colorway:black</rdf:li>
            </rdf:Bag>
         </xmp:brand-colorway>
         <dc:modified>2025-10-14T20:50:52.781Z</dc:modified>
         <dc:format>image/svg+xml</dc:format>
         <dc:title>
            <rdf:Alt>
               <rdf:li xml:lang="x-default">rh-ui-icon-learn</rdf:li>
            </rdf:Alt>
         </dc:title>
         <tiff:ImageLength>32</tiff:ImageLength>
         <tiff:ImageWidth>32</tiff:ImageWidth>
      </rdf:Description>
   </rdf:RDF>
</x:xmpmeta>
                                                                                                    
                                                                                                    
                                                                                                    
                                                                                                    
                                                                                                    
                                                                                                    
                                                                                                    
                                                                                                    
                                                                                                    
                                                                                                    
                                                                                                    
                                                                                                    
                                                                                                    
                                                                                                    
                                                                                                    
                                                                                                    
                                                                                                    
                       
<?xpacket end="w"?></metadata>
<defs>
    <style>
      .st0 {
        fill: none;
      }

      .st1 {
        fill: #151515;
      }
    </style>
  </defs>
  <path class="st1" d="M28.5,10h-12.086l-7.707-7.707c-.286-.286-.715-.372-1.09-.217-.374.154-.617.52-.617.924v7h-3.493c-.827,0-1.5.673-1.5,1.5v17c0,.827.673,1.5,1.5,1.5h24.993c.827,0,1.5-.673,1.5-1.5V11.5c0-.827-.673-1.5-1.5-1.5ZM4.007,28V12h2.993v9c0,.266.105.52.293.707l6.293,6.293H4.007ZM15,26.586l-6-6V5.414l6,6v15.172ZM28,28h-11V12h11v16ZM19,15c0-.553.447-1,1-1h5c.553,0,1,.447,1,1s-.447,1-1,1h-5c-.553,0-1-.447-1-1ZM19,20c0-.553.447-1,1-1h5c.553,0,1,.447,1,1s-.447,1-1,1h-5c-.553,0-1-.447-1-1ZM19,25c0-.553.447-1,1-1h2c.553,0,1,.447,1,1s-.447,1-1,1h-2c-.553,0-1-.447-1-1Z"/>
  <rect id="transparent_rectangle" class="st0" width="32" height="32"/>
</svg>