<?xml version="1.0" encoding="UTF-8"?>
<svg id="icon126" data-name="icon" xmlns="http://www.w3.org/2000/svg" width="32" height="32" version="1.1" viewBox="0 0 32 32">
  <!-- Generator: Adobe Illustrator 29.8.2, SVG Export Plug-In . SVG Version: 2.1.1 Build 3)  -->
  <defs>
    <style>
      .st0 {
        fill: none;
      }

      .st1 {
        fill: #151515;
      }
    </style>
  </defs>
  <path class="st1" d="M24,30c-.184,0-.368-.051-.53-.152l-7.47-4.668-7.47,4.668c-.338.212-.771.202-1.098-.025-.329-.227-.491-.627-.412-1.019l1.885-9.425L1.156,12.76c-.306-.261-.425-.68-.304-1.063s.461-.656.861-.693l10.245-.945,3.119-7.446c.156-.372.52-.614.922-.614s.767.242.922.614l3.119,7.446,10.245.945c.4.037.74.31.861.693s.002.802-.304,1.063l-7.749,6.619,1.885,9.425c.079.392-.083.792-.412,1.019-.17.118-.369.178-.568.178ZM16,23c.184,0,.368.051.53.152l6.035,3.771-1.545-7.728c-.071-.355.056-.722.331-.957l6.394-5.461-8.485-.783c-.368-.034-.688-.268-.831-.609l-2.429-5.798-2.429,5.798c-.143.341-.462.576-.831.609l-8.485.783,6.394,5.461c.275.235.402.602.331.957l-1.545,7.728,6.035-3.771c.162-.102.346-.152.53-.152Z"/>
  <rect id="transparent_rectangle" class="st0" width="32" height="32"/>
</svg>