<?xml version="1.0" encoding="UTF-8"?>
<svg id="icon108" data-name="icon" xmlns="http://www.w3.org/2000/svg" width="32" height="32" version="1.1" viewBox="0 0 32 32">
  <!-- Generator: Adobe Illustrator 29.8.2, SVG Export Plug-In . SVG Version: 2.1.1 Build 3)  -->
  <defs>
    <style>
      .st0 {
        fill: none;
      }

      .st1 {
        fill: #151515;
      }
    </style>
  </defs>
  <path class="st1" d="M25,12c-.34,0-.676.044-1,.129v-4.629c0-.827-.673-1.5-1.5-1.5h-4.63c.086-.325.13-.661.13-1,0-2.206-1.794-4-4-4s-4,1.794-4,4c0,.339.044.675.13,1h-4.63c-.827,0-1.5.673-1.5,1.5v6.278c0,.395.232.753.594.914.358.16.783.095,1.075-.17.374-.336.846-.521,1.331-.521,1.103,0,2,.897,2,2s-.897,2-2,2c-.485,0-.957-.185-1.331-.521-.293-.264-.717-.33-1.075-.17-.361.161-.594.519-.594.914v6.278c0,.827.673,1.5,1.5,1.5h4.63c-.086.325-.13.661-.13,1,0,2.206,1.794,4,4,4s4-1.794,4-4c0-.339-.044-.675-.13-1h4.63c.827,0,1.5-.673,1.5-1.5v-4.629c.324.085.66.129,1,.129,2.206,0,4-1.794,4-4s-1.794-4-4-4ZM25,18c-.485,0-.957-.185-1.331-.521-.293-.264-.717-.33-1.075-.17-.361.161-.594.519-.594.914v5.778h-5.778c-.395,0-.753.232-.913.593-.161.361-.095.782.17,1.076.238.265.521.71.521,1.331,0,1.103-.897,2-2,2s-2-.897-2-2c0-.621.283-1.066.521-1.331.265-.293.331-.715.17-1.076-.16-.361-.519-.593-.913-.593h-5.778v-4.129c.324.085.66.129,1,.129,2.206,0,4-1.794,4-4s-1.794-4-4-4c-.34,0-.676.044-1,.129v-4.129h5.778c.395,0,.753-.232.913-.593.161-.361.095-.782-.17-1.076-.238-.265-.521-.71-.521-1.331,0-1.103.897-2,2-2s2,.897,2,2c0,.621-.283,1.066-.521,1.331-.265.293-.331.715-.17,1.076.16.361.519.593.913.593h5.778v5.778c0,.395.232.753.594.914.358.16.783.095,1.075-.17.374-.336.846-.521,1.331-.521,1.103,0,2,.897,2,2s-.897,2-2,2Z"/>
  <rect id="transparent_rectangle" class="st0" width="32" height="32"/>
</svg>