<?xml version="1.0" encoding="UTF-8"?>
<svg id="icon70" data-name="icon" xmlns="http://www.w3.org/2000/svg" width="32" height="32" version="1.1" viewBox="0 0 32 32">
  <!-- Generator: Adobe Illustrator 29.8.2, SVG Export Plug-In . SVG Version: 2.1.1 Build 3)  -->
  <defs>
    <style>
      .st0 {
        fill: none;
      }

      .st1 {
        fill: #151515;
      }
    </style>
  </defs>
  <path class="st1" d="M16,1C7.729,1,1,7.729,1,16s6.729,15,15,15,15-6.729,15-15S24.271,1,16,1ZM12.796,20.205c.438.439.438,1.151,0,1.591-.22.22-.508.33-.796.33s-.576-.11-.796-.33l-4.646-4.646c-.633-.633-.633-1.665,0-2.298l4.646-4.646c.439-.439,1.152-.439,1.592,0,.438.439.438,1.151,0,1.591l-4.205,4.205,4.205,4.205ZM25.442,17.149l-4.646,4.646c-.22.22-.508.33-.796.33s-.576-.11-.796-.33c-.438-.439-.438-1.151,0-1.591l4.205-4.205-4.205-4.205c-.438-.439-.438-1.151,0-1.591.439-.439,1.152-.439,1.592,0l4.646,4.646c.633.633.633,1.665,0,2.298Z"/>
  <rect class="st0" width="32" height="32"/>
</svg>