<?xml version="1.0" encoding="UTF-8"?>
<svg id="icon128" data-name="icon" xmlns="http://www.w3.org/2000/svg" width="32" height="32" version="1.1" viewBox="0 0 32 32">
  <!-- Generator: Adobe Illustrator 29.8.2, SVG Export Plug-In . SVG Version: 2.1.1 Build 3)  -->
  <defs>
    <style>
      .st0 {
        fill: none;
      }

      .st1 {
        fill: #151515;
      }
    </style>
  </defs>
  <path class="st1" d="M30,23c0,.553-.448,1-1,1H5.414l4.293,4.293c.391.391.391,1.023,0,1.414-.195.195-.451.293-.707.293s-.512-.098-.707-.293l-5.646-5.646c-.585-.585-.585-1.536,0-2.121l5.646-5.646c.391-.391,1.023-.391,1.414,0s.391,1.023,0,1.414l-4.293,4.293h23.586c.552,0,1,.447,1,1ZM3,10h23.586l-4.293,4.293c-.391.391-.391,1.023,0,1.414.195.195.451.293.707.293s.512-.098.707-.293l5.646-5.646c.585-.585.585-1.536,0-2.121l-5.646-5.646c-.391-.391-1.023-.391-1.414,0s-.391,1.023,0,1.414l4.293,4.293H3c-.552,0-1,.448-1,1s.448,1,1,1Z"/>
  <rect id="transparent_rectangle" class="st0" width="32" height="32"/>
</svg>