<?xml version="1.0" encoding="UTF-8"?>
<svg id="icon44" data-name="icon" xmlns="http://www.w3.org/2000/svg" width="32" height="32" version="1.1" viewBox="0 0 32 32">
  <!-- Generator: Adobe Illustrator 29.8.2, SVG Export Plug-In . SVG Version: 2.1.1 Build 3)  -->
  <defs>
    <style>
      .st0 {
        fill: none;
      }

      .st1 {
        fill: #151515;
      }
    </style>
  </defs>
  <path class="st1" d="M29.707,16.293c.391.391.391,1.023,0,1.414l-12.646,12.646c-.292.292-.677.438-1.061.438s-.769-.146-1.061-.438L2.293,17.707c-.391-.391-.391-1.023,0-1.414s1.023-.391,1.414,0l12.293,12.293,12.293-12.293c.391-.391,1.023-.391,1.414,0ZM14.939,16.354c.292.292.677.438,1.061.438s.769-.146,1.061-.438L29.707,3.707c.391-.391.391-1.023,0-1.414s-1.023-.391-1.414,0l-12.293,12.293L3.707,2.293c-.391-.391-1.023-.391-1.414,0s-.391,1.023,0,1.414l12.646,12.646Z"/>
  <rect id="transparent_rectangle" class="st0" width="32" height="32"/>
</svg>