<?xml version="1.0" encoding="UTF-8"?>
<svg id="icon73" data-name="icon" xmlns="http://www.w3.org/2000/svg" width="32" height="32" version="1.1" viewBox="0 0 32 32">
  <!-- Generator: Adobe Illustrator 29.8.2, SVG Export Plug-In . SVG Version: 2.1.1 Build 3)  -->
  <defs>
    <style>
      .st0 {
        fill: none;
      }

      .st1 {
        fill: #151515;
      }
    </style>
  </defs>
  <path class="st1" d="M28.5,2H3.5c-.827,0-1.5.673-1.5,1.5v25c0,.827.673,1.5,1.5,1.5h25c.827,0,1.5-.673,1.5-1.5V3.5c0-.827-.673-1.5-1.5-1.5ZM25.125,23.5c0,.896-.729,1.625-1.625,1.625h-10.5c-.621,0-1.125-.504-1.125-1.125s.504-1.125,1.125-1.125h8.284l-11.08-11.08c-.438-.439-.438-1.151,0-1.591.439-.439,1.152-.439,1.592,0l11.079,11.079v-8.284c0-.621.504-1.125,1.125-1.125s1.125.504,1.125,1.125v10.5Z"/>
  <rect class="st0" width="32" height="32"/>
</svg>