<?xml version="1.0" encoding="UTF-8"?>
<svg id="icon131" data-name="icon" xmlns="http://www.w3.org/2000/svg" width="32" height="32" version="1.1" viewBox="0 0 32 32">
  <!-- Generator: Adobe Illustrator 29.8.2, SVG Export Plug-In . SVG Version: 2.1.1 Build 3)  -->
  <defs>
    <style>
      .st0 {
        fill: none;
      }

      .st1 {
        fill: #151515;
      }
    </style>
  </defs>
  <path class="st1" d="M29.75,6h-5.5c-.689,0-1.25.561-1.25,1.25v5.5c0,.689.561,1.25,1.25,1.25h5.5c.689,0,1.25-.561,1.25-1.25v-5.5c0-.689-.561-1.25-1.25-1.25ZM29,12h-4v-4h4v4ZM29.75,18h-5.5c-.689,0-1.25.561-1.25,1.25v5.5c0,.689.561,1.25,1.25,1.25h5.5c.689,0,1.25-.561,1.25-1.25v-5.5c0-.689-.561-1.25-1.25-1.25ZM29,24h-4v-4h4v4ZM18.75,6h-5.5c-.689,0-1.25.561-1.25,1.25v5.5c0,.689.561,1.25,1.25,1.25h5.5c.689,0,1.25-.561,1.25-1.25v-5.5c0-.689-.561-1.25-1.25-1.25ZM18,12h-4v-4h4v4ZM18.75,18h-5.5c-.689,0-1.25.561-1.25,1.25v5.5c0,.689.561,1.25,1.25,1.25h5.5c.689,0,1.25-.561,1.25-1.25v-5.5c0-.689-.561-1.25-1.25-1.25ZM18,24h-4v-4h4v4ZM7.75,6H2.25c-.689,0-1.25.561-1.25,1.25v5.5c0,.689.561,1.25,1.25,1.25h5.5c.689,0,1.25-.561,1.25-1.25v-5.5c0-.689-.561-1.25-1.25-1.25ZM7,12H3v-4h4v4ZM7.75,18H2.25c-.689,0-1.25.561-1.25,1.25v5.5c0,.689.561,1.25,1.25,1.25h5.5c.689,0,1.25-.561,1.25-1.25v-5.5c0-.689-.561-1.25-1.25-1.25ZM7,24H3v-4h4v4Z"/>
  <rect id="transparent_rectangle" class="st0" width="32" height="32"/>
</svg>