<?xml version="1.0" encoding="UTF-8"?>
<svg id="icon59" data-name="icon" xmlns="http://www.w3.org/2000/svg" width="32" height="32" version="1.1" viewBox="0 0 32 32">
  <!-- Generator: Adobe Illustrator 29.8.2, SVG Export Plug-In . SVG Version: 2.1.1 Build 3)  -->
  <defs>
    <style>
      .st0 {
        fill: none;
      }

      .st1 {
        fill: #151515;
      }
    </style>
  </defs>
  <path class="st1" d="M24.134,16c1.803-2.15,3.322-4.266,4.427-6.196,2.091-3.654,2.477-6.181,1.146-7.511-2.224-2.224-8.001.802-13.707,5.579C10.293,3.095,4.516.067,2.293,2.293c-1.331,1.33-.945,3.857,1.146,7.511,1.105,1.93,2.624,4.046,4.427,6.196-1.803,2.15-3.322,4.266-4.427,6.196-2.091,3.654-2.477,6.181-1.146,7.511.511.511,1.208.745,2.05.745,2.823,0,7.261-2.64,11.657-6.32,4.396,3.68,8.834,6.32,11.657,6.32.841,0,1.539-.234,2.05-.745,1.331-1.33.945-3.857-1.146-7.511-1.105-1.93-2.624-4.046-4.427-6.196ZM27.629,3.511c.31,0,.534.067.664.196.319.32.424,1.798-1.468,5.104-1.006,1.757-2.384,3.685-4.017,5.655-.812-.907-1.669-1.813-2.565-2.708-.883-.883-1.793-1.742-2.713-2.564,4.819-3.99,8.546-5.682,10.1-5.682ZM3.707,3.707c.129-.129.353-.196.664-.196,1.555,0,5.281,1.693,10.1,5.682-.92.822-1.83,1.681-2.713,2.564-.897.897-1.755,1.805-2.569,2.713C4.4,8.688,2.931,4.483,3.707,3.707ZM3.707,28.293c-.319-.32-.424-1.798,1.468-5.104,1.006-1.757,2.384-3.685,4.017-5.655.812.907,1.669,1.813,2.565,2.708.885.885,1.797,1.742,2.718,2.565-5.783,4.791-9.987,6.26-10.768,5.485ZM13.171,18.829c-.97-.97-1.856-1.913-2.667-2.825.84-.946,1.729-1.894,2.667-2.832.972-.972,1.915-1.854,2.829-2.666.914.812,1.856,1.694,2.829,2.666.97.97,1.856,1.913,2.667,2.825-.84.946-1.729,1.894-2.667,2.832-.971.971-1.916,1.858-2.828,2.67-.913-.812-1.857-1.698-2.829-2.67ZM28.293,28.293c-.777.775-4.983-.694-10.768-5.485.921-.823,1.833-1.68,2.717-2.565.897-.897,1.755-1.805,2.569-2.713,4.789,5.783,6.257,9.987,5.482,10.763ZM17.5,16c0,.828-.672,1.5-1.5,1.5s-1.5-.672-1.5-1.5.672-1.5,1.5-1.5,1.5.672,1.5,1.5Z"/>
  <rect id="transparent_rectangle" class="st0" width="32" height="32"/>
</svg>