<?xml version="1.0" encoding="UTF-8"?>
<svg id="icon11" data-name="icon" xmlns="http://www.w3.org/2000/svg" width="32" height="32" version="1.1" viewBox="0 0 32 32">
  <!-- Generator: Adobe Illustrator 29.8.2, SVG Export Plug-In . SVG Version: 2.1.1 Build 3)  -->
  <defs>
    <style>
      .st0 {
        fill: none;
      }

      .st1 {
        fill: #151515;
      }
    </style>
  </defs>
  <path class="st1" d="M16,1C7.729,1,1,7.729,1,16s6.729,15,15,15,15-6.729,15-15S24.271,1,16,1ZM3,16c0-3.241,1.2-6.201,3.169-8.48.04.064.069.132.124.187l18,18c.055.055.124.085.187.124-2.279,1.969-5.24,3.169-8.48,3.169-7.168,0-13-5.832-13-13ZM25.831,24.48c-.04-.064-.069-.132-.124-.187L7.707,6.293c-.055-.055-.124-.085-.187-.124,2.279-1.969,5.24-3.169,8.48-3.169,7.168,0,13,5.832,13,13,0,3.241-1.2,6.201-3.169,8.48Z"/>
  <rect id="transparent_rectangle" class="st0" width="32" height="32"/>
</svg>