<?xml version="1.0" encoding="UTF-8"?>
<svg id="icon133" data-name="icon" xmlns="http://www.w3.org/2000/svg" width="32" height="32" version="1.1" viewBox="0 0 32 32">
  <!-- Generator: Adobe Illustrator 29.8.2, SVG Export Plug-In . SVG Version: 2.1.1 Build 3)  -->
  <defs>
    <style>
      .st0 {
        fill: none;
      }

      .st1 {
        fill: #151515;
      }
    </style>
  </defs>
  <path class="st1" d="M31,2v8.5c0,.827-.673,1.5-1.5,1.5h-8.5c-.552,0-1-.447-1-1s.448-1,1-1h6.524c-2.217-4.237-6.673-7-11.524-7-6.794,0-12.49,5.302-12.967,12.07-.037.527-.477.93-.997.93-.023,0-.047,0-.071-.003-.551-.038-.966-.517-.927-1.067C1.589,7.118,8.161,1,16,1c5.384,0,10.352,2.945,13,7.521V2c0-.553.448-1,1-1s1,.447,1,1ZM30.035,16.003c-.545-.037-1.029.376-1.068.927-.478,6.769-6.173,12.07-12.967,12.07-4.851,0-9.306-2.763-11.524-7h6.524c.552,0,1-.447,1-1s-.448-1-1-1H2.5c-.827,0-1.5.673-1.5,1.5v8.5c0,.553.448,1,1,1s1-.447,1-1v-6.521c2.648,4.575,7.616,7.521,13,7.521,7.839,0,14.411-6.118,14.962-13.93.039-.551-.376-1.029-.927-1.067Z"/>
  <rect id="transparent_rectangle" class="st0" width="32" height="32"/>
</svg>