<?xml version="1.0" encoding="UTF-8"?>
<svg id="icon232" data-name="icon" xmlns="http://www.w3.org/2000/svg" width="32" height="32" version="1.1" viewBox="0 0 32 32">
  <!-- Generator: Adobe Illustrator 29.8.2, SVG Export Plug-In . SVG Version: 2.1.1 Build 3)  -->
  <defs>
    <style>
      .st0 {
        fill: none;
      }

      .st1 {
        fill: #151515;
      }
    </style>
  </defs>
  <path class="st1" d="M30.287,17.376l-2.17-10.207c-.39-1.836-2.035-3.169-3.913-3.169h-14.296c-.207-.581-.757-1-1.408-1H3.5c-.827,0-1.5.673-1.5,1.5v16c0,.827.673,1.5,1.5,1.5h5c.651,0,1.201-.419,1.408-1h.592c2.45,0,4.469,1.993,4.5,4.441.017,1.412.723,2.626,1.843,3.167.544.263,1.108.394,1.663.394.648,0,1.283-.179,1.852-.536,1.028-.645,1.643-1.754,1.643-2.967v-4.5h5.353c.909,0,1.759-.405,2.331-1.112s.792-1.623.604-2.512ZM8,20h-4V5h4v15ZM28.13,18.629c-.191.235-.475.371-.777.371h-5.853c-.827,0-1.5.673-1.5,1.5v5c0,.52-.264.996-.705,1.272-.269.169-.833.399-1.581.036-.518-.25-.708-.881-.714-1.391-.045-3.539-2.961-6.417-6.5-6.417h-.5V6h14.204c.938,0,1.762.666,1.956,1.584l2.17,10.208c.063.296-.01.602-.2.837Z"/>
  <rect id="transparent_rectangle" class="st0" width="32" height="32"/>
</svg>