<?xml version="1.0" encoding="UTF-8"?>
<svg id="icon50" data-name="icon" xmlns="http://www.w3.org/2000/svg" width="32" height="32" version="1.1" viewBox="0 0 32 32">
  <!-- Generator: Adobe Illustrator 29.8.2, SVG Export Plug-In . SVG Version: 2.1.1 Build 3)  -->
  <defs>
    <style>
      .st0 {
        fill: none;
      }

      .st1 {
        fill: #151515;
      }
    </style>
  </defs>
  <path class="st1" d="M26.875,6.875v5.25h1.625c.758,0,1.375.617,1.375,1.375v15c0,.758-.617,1.375-1.375,1.375h-10.375v-5.409l2.67-2.67c.211-.211.33-.497.33-.795v-4.223c1.098-.446,1.875-1.521,1.875-2.777,0-1.654-1.346-3-3-3s-3,1.346-3,3c0,1.256.777,2.331,1.875,2.777v3.757l-2.67,2.67c-.211.211-.33.497-.33.795v5.875H3.5c-.758,0-1.375-.617-1.375-1.375V3.5c0-.758.617-1.375,1.375-1.375h8.375v5.409l-2.67,2.67c-.211.211-.33.497-.33.795v5.223c-1.098.446-1.875,1.521-1.875,2.777,0,1.654,1.346,3,3,3s3-1.346,3-3c0-1.256-.777-2.331-1.875-2.777v-4.757l2.67-2.67c.211-.211.33-.497.33-.795V2.125h14.375c.758,0,1.375.617,1.375,1.375v2c0,.758-.617,1.375-1.375,1.375h-1.625Z"/>
  <rect class="st0" width="32" height="32"/>
</svg>