<?xml version="1.0" encoding="UTF-8"?>
<svg id="icon176" data-name="icon" xmlns="http://www.w3.org/2000/svg" width="32" height="32" version="1.1" viewBox="0 0 32 32">
  <!-- Generator: Adobe Illustrator 29.8.2, SVG Export Plug-In . SVG Version: 2.1.1 Build 3)  -->
  <defs>
    <style>
      .st0 {
        fill: none;
      }

      .st1 {
        fill: #151515;
      }
    </style>
  </defs>
  <path class="st1" d="M28.749,10.364l-7.113-7.113C18.528.144,13.472.144,10.364,3.251l-7.113,7.113C.144,13.472.144,18.528,3.251,21.636l7.113,7.113c1.554,1.554,3.595,2.331,5.636,2.331s4.082-.777,5.636-2.331l7.113-7.113c3.107-3.107,3.107-8.164,0-11.271ZM16,27.001c-1.105,0-2-.895-2-2s.895-2,2-2,2,.895,2,2-.895,2-2,2ZM17.25,17.1v1.9c0,.69-.56,1.25-1.25,1.25s-1.25-.56-1.25-1.25v-3c0-.69.56-1.25,1.25-1.25,1.517,0,2.75-1.233,2.75-2.75s-1.233-2.75-2.75-2.75-2.75,1.233-2.75,2.75c0,.69-.56,1.25-1.25,1.25s-1.25-.56-1.25-1.25c0-2.895,2.355-5.25,5.25-5.25s5.25,2.355,5.25,5.25c0,2.464-1.707,4.537-4,5.1Z"/>
  <rect class="st0" width="32" height="32"/>
</svg>