<?xml version="1.0" encoding="UTF-8"?>
<svg id="icon193" data-name="icon" xmlns="http://www.w3.org/2000/svg" width="32" height="32" version="1.1" viewBox="0 0 32 32">
  <!-- Generator: Adobe Illustrator 29.8.2, SVG Export Plug-In . SVG Version: 2.1.1 Build 3)  -->
  <defs>
    <style>
      .st0 {
        fill: none;
      }

      .st1 {
        fill: #151515;
      }
    </style>
  </defs>
  <path class="st1" d="M13.766,21.75H2c-.402,0-.748-.317-.75-.718-.013-3.743,2.34-6.941,5.642-8.201-1.587-1.025-2.642-2.805-2.642-4.831,0-3.577,3.282-6.4,6.992-5.619,2.167.456,3.918,2.207,4.376,4.373.534,2.526-.605,4.846-2.51,6.077.394.15.77.334,1.134.539.103.058.148.18.113.292-.228.74-.355,1.524-.355,2.338,0,1.514.428,2.927,1.162,4.135.064.105.041.235-.054.312-.485.394-.929.835-1.342,1.303ZM25.108,20.831c1.587-1.025,2.642-2.805,2.642-4.831,0-3.171-2.58-5.75-5.75-5.75s-5.75,2.579-5.75,5.75c0,2.026,1.055,3.806,2.642,4.831-3.293,1.257-5.642,4.44-5.642,8.169,0,.414.336.75.75.75h16c.414,0,.75-.336.75-.75,0-3.73-2.349-6.912-5.642-8.169Z"/>
  <rect class="st0" width="32" height="32"/>
</svg>