<?xml version="1.0" encoding="UTF-8"?>
<svg id="icon128" data-name="icon" xmlns="http://www.w3.org/2000/svg" width="32" height="32" version="1.1" viewBox="0 0 32 32">
  <!-- Generator: Adobe Illustrator 29.8.2, SVG Export Plug-In . SVG Version: 2.1.1 Build 3)  -->
  <title>rh-ui-icon-brightness-up-fill</title>
<metadata><?xpacket begin="﻿" id="W5M0MpCehiHzreSzNTczkc9d"?>
<x:xmpmeta xmlns:x="adobe:ns:meta/" x:xmptk="Adobe XMP Core 8.0-c001 1.000000, 0000/00/00-00:00:00        ">
   <rdf:RDF xmlns:rdf="http://www.w3.org/1999/02/22-rdf-syntax-ns#">
      <rdf:Description rdf:about=""
            xmlns:xmp="http://ns.adobe.com/xap/1.0/"
            xmlns:dc="http://purl.org/dc/elements/1.1/"
            xmlns:tiff="http://ns.adobe.com/tiff/1.0/">
         <xmp:brand-content-subtype>UI</xmp:brand-content-subtype>
         <xmp:rhcc-rights-restricted>no</xmp:rhcc-rights-restricted>
         <xmp:rhcc-file-last-modified>2025-10-14T20:44:19.874Z</xmp:rhcc-file-last-modified>
         <xmp:brand-content-type>Icon</xmp:brand-content-type>
         <xmp:brand-colorway>
            <rdf:Bag>
               <rdf:li>colorway:black</rdf:li>
            </rdf:Bag>
         </xmp:brand-colorway>
         <dc:modified>2025-10-14T20:49:47.508Z</dc:modified>
         <dc:format>image/svg+xml</dc:format>
         <dc:title>
            <rdf:Alt>
               <rdf:li xml:lang="x-default">rh-ui-icon-brightness-up-fill</rdf:li>
            </rdf:Alt>
         </dc:title>
         <tiff:ImageLength>32</tiff:ImageLength>
         <tiff:ImageWidth>32</tiff:ImageWidth>
      </rdf:Description>
   </rdf:RDF>
</x:xmpmeta>
                                                                                                    
                                                                                                    
                                                                                                    
                                                                                                    
                                                                                                    
                                                                                                    
                                                                                                    
                                                                                                    
                                                                                                    
                                                                                                    
                                                                                                    
                                                                                                    
                                                                                                    
                                                                                                    
                                                                                                    
                                                  
<?xpacket end="w"?></metadata>
<defs>
    <style>
      .st0 {
        fill: none;
      }

      .st1 {
        fill: #151515;
      }
    </style>
  </defs>
  <path class="st1" d="M24,16c0,4.411-3.589,8-8,8s-8-3.589-8-8,3.589-8,8-8,8,3.589,8,8ZM16,6c.553,0,1-.447,1-1V1c0-.553-.447-1-1-1s-1,.447-1,1v4c0,.553.447,1,1,1ZM16,26c-.553,0-1,.447-1,1v4c0,.553.447,1,1,1s1-.447,1-1v-4c0-.553-.447-1-1-1ZM31,15h-4c-.553,0-1,.447-1,1s.447,1,1,1h4c.553,0,1-.447,1-1s-.447-1-1-1ZM6,16c0-.553-.447-1-1-1H1c-.553,0-1,.447-1,1s.447,1,1,1h4c.553,0,1-.447,1-1ZM7.293,23.293l-3,3c-.391.391-.391,1.023,0,1.414.195.195.451.293.707.293s.512-.098.707-.293l3-3c.391-.391.391-1.023,0-1.414s-1.023-.391-1.414,0ZM24,9c.256,0,.512-.098.707-.293l3-3c.391-.391.391-1.023,0-1.414s-1.023-.391-1.414,0l-3,3c-.391.391-.391,1.023,0,1.414.195.195.451.293.707.293ZM7.293,8.707c.195.195.451.293.707.293s.512-.098.707-.293c.391-.391.391-1.023,0-1.414l-3-3c-.391-.391-1.023-.391-1.414,0s-.391,1.023,0,1.414l3,3ZM24.707,23.293c-.391-.391-1.023-.391-1.414,0s-.391,1.023,0,1.414l3,3c.195.195.451.293.707.293s.512-.098.707-.293c.391-.391.391-1.023,0-1.414l-3-3Z"/>
  <rect class="st0" width="32" height="32"/>
</svg>