<?xml version="1.0" encoding="UTF-8"?>
<svg id="icon5" data-name="icon" xmlns="http://www.w3.org/2000/svg" width="32" height="32" version="1.1" viewBox="0 0 32 32">
  <!-- Generator: Adobe Illustrator 29.8.2, SVG Export Plug-In . SVG Version: 2.1.1 Build 3)  -->
  <defs>
    <style>
      .st0 {
        fill: none;
      }

      .st1 {
        fill: #151515;
      }
    </style>
  </defs>
  <path class="st1" d="M30,12.5v17c0,.827-.673,1.5-1.5,1.5H3.5c-.827,0-1.5-.673-1.5-1.5V12.5c0-.827.673-1.5,1.5-1.5h25c.827,0,1.5.673,1.5,1.5ZM7,3h18c.552,0,1-.448,1-1s-.448-1-1-1H7c-.552,0-1,.448-1,1s.448,1,1,1ZM5,8h22c.552,0,1-.448,1-1s-.448-1-1-1H5c-.552,0-1,.448-1,1s.448,1,1,1Z"/>
  <rect class="st0" width="32" height="32"/>
</svg>