<?xml version="1.0" encoding="UTF-8"?>
<svg id="icon192" data-name="icon" xmlns="http://www.w3.org/2000/svg" width="32" height="32" version="1.1" viewBox="0 0 32 32">
  <!-- Generator: Adobe Illustrator 29.8.2, SVG Export Plug-In . SVG Version: 2.1.1 Build 3)  -->
  <defs>
    <style>
      .st0 {
        fill: none;
      }

      .st1 {
        fill: #151515;
      }
    </style>
  </defs>
  <path class="st1" d="M9,6.5v23c0,.827-.673,1.5-1.5,1.5h-3c-.827,0-1.5-.673-1.5-1.5V6.5c0-.827.673-1.5,1.5-1.5h3c.827,0,1.5.673,1.5,1.5ZM19,26.411v3.089c0,.827.673,1.5,1.5,1.5h3c.827,0,1.5-.673,1.5-1.5v-3.089c-.927.377-1.939.589-3,.589s-2.073-.212-3-.589ZM25,11.589v-2.089c0-.827-.673-1.5-1.5-1.5h-3c-.827,0-1.5.673-1.5,1.5v2.089c.927-.377,1.939-.589,3-.589s2.073.212,3,.589ZM29.707,26.707c-.195.195-.451.293-.707.293s-.512-.098-.707-.293l-2.822-2.822c-.981.699-2.177,1.115-3.471,1.115-3.309,0-6-2.691-6-6s2.691-6,6-6,6,2.691,6,6c0,1.294-.416,2.49-1.115,3.471l2.822,2.822c.391.391.391,1.023,0,1.414ZM26,19c0-2.206-1.794-4-4-4s-4,1.794-4,4,1.794,4,4,4,4-1.794,4-4ZM14,19c0-2.52,1.174-4.768,3-6.235V2.5c0-.827-.673-1.5-1.5-1.5h-3c-.827,0-1.5.673-1.5,1.5v27c0,.827.673,1.5,1.5,1.5h3c.827,0,1.5-.673,1.5-1.5v-4.265c-1.826-1.467-3-3.715-3-6.235Z"/>
  <rect class="st0" width="32" height="32"/>
</svg>