<?xml version="1.0" encoding="UTF-8"?>
<svg id="icon268" data-name="icon" xmlns="http://www.w3.org/2000/svg" width="32" height="32" version="1.1" viewBox="0 0 32 32">
  <!-- Generator: Adobe Illustrator 29.8.2, SVG Export Plug-In . SVG Version: 2.1.1 Build 3)  -->
  <defs>
    <style>
      .st0 {
        fill: none;
      }

      .st1 {
        fill: #151515;
      }
    </style>
  </defs>
  <path class="st1" d="M28.5,1H3.5c-.827,0-1.5.673-1.5,1.5v27c0,.827.673,1.5,1.5,1.5h25c.827,0,1.5-.673,1.5-1.5V2.5c0-.827-.673-1.5-1.5-1.5ZM28,29H4V3h24v26ZM7,8c0-.552.448-1,1-1h5c.552,0,1,.448,1,1s-.448,1-1,1h-5c-.552,0-1-.448-1-1ZM7,24c0-.552.448-1,1-1h5c.552,0,1,.448,1,1s-.448,1-1,1h-5c-.552,0-1-.448-1-1ZM7,16c0-.552.448-1,1-1h5c.552,0,1,.448,1,1s-.448,1-1,1h-5c-.552,0-1-.448-1-1ZM21.38,8.013c0-.897.728-1.625,1.625-1.625s1.625.728,1.625,1.625-.728,1.625-1.625,1.625-1.625-.728-1.625-1.625ZM21.38,16.013c0-.897.728-1.625,1.625-1.625s1.625.728,1.625,1.625-.728,1.625-1.625,1.625-1.625-.728-1.625-1.625ZM21.375,24.015c0-.897.728-1.625,1.625-1.625s1.625.728,1.625,1.625-.728,1.625-1.625,1.625-1.625-.728-1.625-1.625Z"/>
  <rect id="transparent_rectangle" class="st0" width="32" height="32"/>
</svg>