<?xml version="1.0" encoding="UTF-8"?>
<svg id="icon192" data-name="icon" xmlns="http://www.w3.org/2000/svg" width="32" height="32" version="1.1" viewBox="0 0 32 32">
  <!-- Generator: Adobe Illustrator 29.8.2, SVG Export Plug-In . SVG Version: 2.1.1 Build 3)  -->
  <title>rh-ui-icon-calendar</title>
<metadata><?xpacket begin="﻿" id="W5M0MpCehiHzreSzNTczkc9d"?>
<x:xmpmeta xmlns:x="adobe:ns:meta/" x:xmptk="Adobe XMP Core 8.0-c001 1.000000, 0000/00/00-00:00:00        ">
   <rdf:RDF xmlns:rdf="http://www.w3.org/1999/02/22-rdf-syntax-ns#">
      <rdf:Description rdf:about=""
            xmlns:dc="http://purl.org/dc/elements/1.1/"
            xmlns:xmp="http://ns.adobe.com/xap/1.0/"
            xmlns:tiff="http://ns.adobe.com/tiff/1.0/">
         <dc:format>image/svg+xml</dc:format>
         <dc:modified>2025-10-14T20:49:11.004Z</dc:modified>
         <dc:title>
            <rdf:Alt>
               <rdf:li xml:lang="x-default">rh-ui-icon-calendar</rdf:li>
            </rdf:Alt>
         </dc:title>
         <xmp:brand-content-type>Icon</xmp:brand-content-type>
         <xmp:rhcc-file-last-modified>2025-10-14T20:46:06.579Z</xmp:rhcc-file-last-modified>
         <xmp:brand-content-subtype>UI</xmp:brand-content-subtype>
         <xmp:rhcc-rights-restricted>no</xmp:rhcc-rights-restricted>
         <xmp:brand-colorway>
            <rdf:Bag>
               <rdf:li>colorway:black</rdf:li>
            </rdf:Bag>
         </xmp:brand-colorway>
         <tiff:ImageWidth>32</tiff:ImageWidth>
         <tiff:ImageLength>32</tiff:ImageLength>
      </rdf:Description>
   </rdf:RDF>
</x:xmpmeta>
                                                                                                    
                                                                                                    
                                                                                                    
                                                                                                    
                                                                                                    
                                                                                                    
                                                                                                    
                                                                                                    
                                                                                                    
                                                                                                    
                                                                                                    
                                                                                                    
                                                                                                    
                                                                                                    
                                                                                                    
                                                                                                    
                                                                                                    
                                                                                                    
                                                                                                    
                                                                                                    
                           
<?xpacket end="w"?></metadata>
<defs>
    <style>
      .st0 {
        fill: none;
      }

      .st1 {
        fill: #151515;
      }
    </style>
  </defs>
  <path class="st1" d="M28.5,5h-5.5v-2c0-.553-.448-1-1-1s-1,.447-1,1v2h-10v-2c0-.553-.448-1-1-1s-1,.447-1,1v2H3.507c-.827,0-1.5.673-1.5,1.5v7c0,.01.003.019.003.029v8.423c0,.017-.01.031-.01.048,0,.279.115.53.299.712.002.002.002.004.004.005l6.99,6.99c.092.092.201.165.323.216.002,0,.003.001.005.002.121.05.25.076.38.076h18.5c.827,0,1.5-.673,1.5-1.5V6.5c0-.827-.673-1.5-1.5-1.5ZM9,7v2c0,.553.448,1,1,1s1-.447,1-1v-2h10v2c0,.553.448,1,1,1s1-.447,1-1v-2h5v6H4.01v-6h4.99ZM9,26.586l-3.586-3.586h3.586v3.586ZM11,28v-5.5c0-.827-.673-1.5-1.5-1.5h-5.49v-6h23.99v13H11Z"/>
  <rect id="transparent_rectangle" class="st0" width="32" height="32"/>
</svg>