<?xml version="1.0" encoding="UTF-8"?>
<svg id="icon170" data-name="icon" xmlns="http://www.w3.org/2000/svg" width="32" height="32" version="1.1" viewBox="0 0 32 32">
  <!-- Generator: Adobe Illustrator 29.8.2, SVG Export Plug-In . SVG Version: 2.1.1 Build 3)  -->
  <defs>
    <style>
      .st0 {
        fill: none;
      }

      .st1 {
        fill: #151515;
      }
    </style>
  </defs>
  <path class="st1" d="M24.5,12.125h-1.5v-4.125c0-3.86-3.14-7-7-7s-7,3.14-7,7v4.125h-1.5c-.758,0-1.375.617-1.375,1.375v15c0,.758.617,1.375,1.375,1.375h17c.758,0,1.375-.617,1.375-1.375v-15c0-.758-.617-1.375-1.375-1.375ZM16,22.761c-.966,0-1.75-.784-1.75-1.75s.784-1.75,1.75-1.75,1.75.784,1.75,1.75-.784,1.75-1.75,1.75ZM21,12h-10v-4c0-2.757,2.243-5,5-5s5,2.243,5,5v4Z"/>
  <rect class="st0" width="32" height="32"/>
</svg>