<?xml version="1.0" encoding="UTF-8"?>
<svg id="icon195" data-name="icon" xmlns="http://www.w3.org/2000/svg" width="32" height="32" version="1.1" viewBox="0 0 32 32">
  <!-- Generator: Adobe Illustrator 29.8.2, SVG Export Plug-In . SVG Version: 2.1.1 Build 3)  -->
  <title>rh-ui-icon-catalog-fill</title>
<metadata><?xpacket begin="﻿" id="W5M0MpCehiHzreSzNTczkc9d"?>
<x:xmpmeta xmlns:x="adobe:ns:meta/" x:xmptk="Adobe XMP Core 8.0-c001 1.000000, 0000/00/00-00:00:00        ">
   <rdf:RDF xmlns:rdf="http://www.w3.org/1999/02/22-rdf-syntax-ns#">
      <rdf:Description rdf:about=""
            xmlns:dc="http://purl.org/dc/elements/1.1/"
            xmlns:xmp="http://ns.adobe.com/xap/1.0/"
            xmlns:tiff="http://ns.adobe.com/tiff/1.0/">
         <dc:format>image/svg+xml</dc:format>
         <dc:modified>2025-10-14T20:49:22.964Z</dc:modified>
         <dc:title>
            <rdf:Alt>
               <rdf:li xml:lang="x-default">rh-ui-icon-catalog-fill</rdf:li>
            </rdf:Alt>
         </dc:title>
         <xmp:brand-content-type>Icon</xmp:brand-content-type>
         <xmp:rhcc-file-last-modified>2025-10-14T20:44:19.753Z</xmp:rhcc-file-last-modified>
         <xmp:brand-content-subtype>UI</xmp:brand-content-subtype>
         <xmp:rhcc-rights-restricted>no</xmp:rhcc-rights-restricted>
         <xmp:brand-colorway>
            <rdf:Bag>
               <rdf:li>colorway:black</rdf:li>
            </rdf:Bag>
         </xmp:brand-colorway>
         <tiff:ImageWidth>32</tiff:ImageWidth>
         <tiff:ImageLength>32</tiff:ImageLength>
      </rdf:Description>
   </rdf:RDF>
</x:xmpmeta>
                                                                                                    
                                                                                                    
                                                                                                    
                                                                                                    
                                                                                                    
                                                                                                    
                                                                                                    
                                                                                                    
                                                                                                    
                                                                                                    
                                                                                                    
                                                                                                    
                                                                                                    
                                                                                                    
                                                                                                    
                                                                                                    
                                                                                                    
                                                                                                    
                                                                                                    
                                                                                                    
                           
<?xpacket end="w"?></metadata>
<defs>
    <style>
      .st0 {
        fill: none;
      }

      .st1 {
        fill: #151515;
      }
    </style>
  </defs>
  <path class="st1" d="M26,17.902v3.828c0,4.26-3.22,7.98-7.47,8.25-4.66.3-8.53-3.39-8.53-7.98l-1.5-1.5c-.42-.42-.62-.96-.62-1.5,0-.577.229-1.155.71-1.586.853-.762,2.182-.642,2.991.167l1.992,1.992c.157.158.427.046.427-.177v-9.396c0-.55.22-1.05.59-1.41.398-.409.968-.635,1.587-.582,1.053.089,1.823,1.048,1.823,2.104v5.888l7.802,1.658c.115.025.198.127.198.245ZM28.5,2H3.5c-.827,0-1.5.673-1.5,1.5v5c0,.827.673,1.5,1.5,1.5h5.5c.553,0,1-.447,1-1s-.447-1-1-1h-5v-4h24v4h-5c-.553,0-1,.447-1,1s.447,1,1,1h5.5c.827,0,1.5-.673,1.5-1.5V3.5c0-.827-.673-1.5-1.5-1.5ZM29,12h-6c-.553,0-1,.447-1,1s.447,1,1,1h6c.553,0,1-.447,1-1s-.447-1-1-1ZM10,13c0-.553-.447-1-1-1H3.5c-.827,0-1.5.673-1.5,1.5v5.5c0,.553.447,1,1,1s1-.447,1-1v-5h5c.553,0,1-.447,1-1Z"/>
  <rect class="st0" width="32" height="32"/>
</svg>