<?xml version="1.0" encoding="UTF-8"?>
<svg id="icon160" data-name="icon" xmlns="http://www.w3.org/2000/svg" width="32" height="32" version="1.1" viewBox="0 0 32 32">
  <!-- Generator: Adobe Illustrator 29.8.2, SVG Export Plug-In . SVG Version: 2.1.1 Build 3)  -->
  <title>rh-ui-icon-expand-arrows</title>
<metadata><?xpacket begin="﻿" id="W5M0MpCehiHzreSzNTczkc9d"?>
<x:xmpmeta xmlns:x="adobe:ns:meta/" x:xmptk="Adobe XMP Core 8.0-c001 1.000000, 0000/00/00-00:00:00        ">
   <rdf:RDF xmlns:rdf="http://www.w3.org/1999/02/22-rdf-syntax-ns#">
      <rdf:Description rdf:about=""
            xmlns:xmp="http://ns.adobe.com/xap/1.0/"
            xmlns:dc="http://purl.org/dc/elements/1.1/"
            xmlns:tiff="http://ns.adobe.com/tiff/1.0/">
         <xmp:brand-content-subtype>UI</xmp:brand-content-subtype>
         <xmp:rhcc-rights-restricted>no</xmp:rhcc-rights-restricted>
         <xmp:rhcc-file-last-modified>2025-10-14T20:46:22.545Z</xmp:rhcc-file-last-modified>
         <xmp:brand-content-type>Icon</xmp:brand-content-type>
         <xmp:brand-colorway>
            <rdf:Bag>
               <rdf:li>colorway:black</rdf:li>
            </rdf:Bag>
         </xmp:brand-colorway>
         <dc:modified>2025-10-14T20:49:20.506Z</dc:modified>
         <dc:format>image/svg+xml</dc:format>
         <dc:title>
            <rdf:Alt>
               <rdf:li xml:lang="x-default">rh-ui-icon-expand-arrows</rdf:li>
            </rdf:Alt>
         </dc:title>
         <tiff:ImageLength>32</tiff:ImageLength>
         <tiff:ImageWidth>32</tiff:ImageWidth>
      </rdf:Description>
   </rdf:RDF>
</x:xmpmeta>
                                                                                                    
                                                                                                    
                                                                                                    
                                                                                                    
                                                                                                    
                                                                                                    
                                                                                                    
                                                                                                    
                                                                                                    
                                                                                                    
                                                                                                    
                                                                                                    
                                                                                                    
                                                                                                    
                                                                                                    
                                                                                                    
                                                                                                    
               
<?xpacket end="w"?></metadata>
<defs>
    <style>
      .st0 {
        fill: none;
      }

      .st1 {
        fill: #151515;
      }
    </style>
  </defs>
  <path class="st1" d="M30,3.5v6.5c0,.553-.447,1-1,1s-1-.447-1-1v-4.586l-7.293,7.293c-.195.195-.451.293-.707.293s-.512-.098-.707-.293c-.391-.391-.391-1.023,0-1.414l7.293-7.293h-4.586c-.553,0-1-.447-1-1s.447-1,1-1h6.5c.827,0,1.5.673,1.5,1.5ZM29,21c-.553,0-1,.447-1,1v4.586l-7.293-7.293c-.391-.391-1.023-.391-1.414,0s-.391,1.023,0,1.414l7.293,7.293h-4.586c-.553,0-1,.447-1,1s.447,1,1,1h6.5c.827,0,1.5-.673,1.5-1.5v-6.5c0-.553-.447-1-1-1ZM5.414,4h4.586c.553,0,1-.447,1-1s-.447-1-1-1H3.5c-.827,0-1.5.673-1.5,1.5v6.5c0,.553.447,1,1,1s1-.447,1-1v-4.586l7.293,7.293c.195.195.451.293.707.293s.512-.098.707-.293c.391-.391.391-1.023,0-1.414l-7.293-7.293ZM11.293,19.293l-7.293,7.293v-4.586c0-.553-.447-1-1-1s-1,.447-1,1v6.5c0,.827.673,1.5,1.5,1.5h6.5c.553,0,1-.447,1-1s-.447-1-1-1h-4.586l7.293-7.293c.391-.391.391-1.023,0-1.414s-1.023-.391-1.414,0Z"/>
  <rect id="transparent_rectangle" class="st0" width="32" height="32"/>
</svg>