<?xml version="1.0" encoding="UTF-8"?>
<svg id="icon240" data-name="icon" xmlns="http://www.w3.org/2000/svg" width="32" height="32" version="1.1" viewBox="0 0 32 32">
  <!-- Generator: Adobe Illustrator 29.8.2, SVG Export Plug-In . SVG Version: 2.1.1 Build 3)  -->
  <defs>
    <style>
      .st0 {
        fill: none;
      }

      .st1 {
        fill: #151515;
      }
    </style>
  </defs>
  <path class="st1" d="M31,16c0-8.271-6.729-15-15-15S1,7.729,1,16s6.729,15,15,15c5.458,0,10.495-2.976,13.145-7.766,0,0,0,0,0-.001,0,0,0,0,0,0,1.213-2.205,1.854-4.706,1.854-7.232ZM16,29c-7.168,0-13-5.832-13-13,0-6.832,5.297-12.449,12-12.962v12.962c0,.364.198.7.518.876l11.358,6.249c-2.399,3.647-6.48,5.875-10.876,5.875Z"/>
  <rect id="transparent_rectangle" class="st0" width="32" height="32"/>
</svg>