<?xml version="1.0" encoding="UTF-8"?>
<svg id="icon36" data-name="icon" xmlns="http://www.w3.org/2000/svg" width="32" height="32" version="1.1" viewBox="0 0 32 32">
  <!-- Generator: Adobe Illustrator 29.8.2, SVG Export Plug-In . SVG Version: 2.1.1 Build 3)  -->
  <defs>
    <style>
      .st0 {
        fill: none;
      }

      .st1 {
        fill: #151515;
      }
    </style>
  </defs>
  <path class="st1" d="M10,8c0,.552-.447,1-1,1h-2v20c0,.552-.447,1-1,1s-1-.448-1-1V9h-2c-.553,0-1-.448-1-1s.447-1,1-1h2V3c0-.552.447-1,1-1s1,.448,1,1v4h2c.553,0,1,.448,1,1ZM19,23h-2V3c0-.552-.447-1-1-1s-1,.448-1,1v20h-2c-.553,0-1,.448-1,1s.447,1,1,1h2v4c0,.552.447,1,1,1s1-.448,1-1v-4h2c.553,0,1-.448,1-1s-.447-1-1-1ZM29,15.014h-2V3c0-.552-.447-1-1-1s-1,.448-1,1v12.014h-2c-.553,0-1,.448-1,1s.447,1,1,1h2v11.986c0,.552.447,1,1,1s1-.448,1-1v-11.986h2c.553,0,1-.448,1-1s-.447-1-1-1Z"/>
  <rect id="transparent_rectangle" class="st0" width="32" height="32"/>
</svg>