<?xml version="1.0" encoding="UTF-8"?>
<svg id="icon257" data-name="icon" xmlns="http://www.w3.org/2000/svg" width="32" height="32" version="1.1" viewBox="0 0 32 32">
  <!-- Generator: Adobe Illustrator 29.8.2, SVG Export Plug-In . SVG Version: 2.1.1 Build 3)  -->
  <defs>
    <style>
      .st0 {
        fill: none;
      }

      .st1 {
        fill: #151515;
      }
    </style>
  </defs>
  <path class="st1" d="M28.5,2H8.5c-.827,0-1.5.673-1.5,1.5v20c0,.827.673,1.5,1.5,1.5h20c.827,0,1.5-.673,1.5-1.5V3.5c0-.827-.673-1.5-1.5-1.5ZM28,23H9V4h19v19ZM25,29c0,.552-.447,1-1,1H3.5c-.827,0-1.5-.673-1.5-1.5V8c0-.552.447-1,1-1s1,.448,1,1v20h20c.553,0,1,.448,1,1ZM15.38,9.003c0-.897.728-1.625,1.625-1.625s1.625.728,1.625,1.625-.728,1.625-1.625,1.625-1.625-.728-1.625-1.625ZM21.38,9.008c0-.897.728-1.625,1.625-1.625s1.625.728,1.625,1.625-.728,1.625-1.625,1.625-1.625-.728-1.625-1.625Z"/>
  <rect id="transparent_rectangle" class="st0" width="32" height="32"/>
</svg>