<?xml version="1.0" encoding="UTF-8"?>
<svg id="icon56" data-name="icon" xmlns="http://www.w3.org/2000/svg" width="32" height="32" version="1.1" viewBox="0 0 32 32">
  <!-- Generator: Adobe Illustrator 29.8.2, SVG Export Plug-In . SVG Version: 2.1.1 Build 3)  -->
  <defs>
    <style>
      .st0 {
        fill: none;
      }

      .st1 {
        fill: #151515;
      }
    </style>
  </defs>
  <path class="st1" d="M28,7v22.607c0,.768-.622,1.393-1.387,1.393H10c-.553,0-1-.448-1-1s.447-1,1-1h16V7c0-.552.447-1,1-1s1,.448,1,1ZM22.75,24.5V2.5c0-.689-.561-1.25-1.25-1.25h-8.375v7.364c0,.833-.678,1.511-1.512,1.511h-7.363v14.375c0,.689.561,1.25,1.25,1.25h16c.689,0,1.25-.561,1.25-1.25ZM10.875,1.275c-.151.026-.295.085-.405.195l-6,6c-.11.11-.169.254-.195.405h6.6V1.275Z"/>
  <rect class="st0" width="32" height="32"/>
</svg>