<?xml version="1.0" encoding="UTF-8"?>
<svg id="icon23" data-name="icon" xmlns="http://www.w3.org/2000/svg" width="32" height="32" version="1.1" viewBox="0 0 32 32">
  <!-- Generator: Adobe Illustrator 29.8.2, SVG Export Plug-In . SVG Version: 2.1.1 Build 3)  -->
  <defs>
    <style>
      .st0 {
        fill: none;
      }

      .st1 {
        fill: #151515;
      }
    </style>
  </defs>
  <path class="st1" d="M16,1C7.729,1,1,7.729,1,16s6.729,15,15,15,15-6.729,15-15S24.271,1,16,1ZM17,28.949v-2.949c0-.552-.448-1-1-1s-1,.448-1,1v2.949c-6.37-.488-11.461-5.579-11.949-11.949h2.949c.552,0,1-.448,1-1s-.448-1-1-1h-2.949c.514-6.701,6.118-12,12.949-12s12.436,5.299,12.949,12h-2.949c-.552,0-1,.448-1,1s.448,1,1,1h2.949c-.488,6.37-5.579,11.461-11.949,11.949ZM20.707,19.293c.391.391.391,1.023,0,1.414-.195.195-.451.293-.707.293s-.512-.098-.707-.293l-4-4c-.188-.188-.293-.442-.293-.707v-8c0-.552.448-1,1-1s1,.448,1,1v7.586l3.707,3.707Z"/>
  <rect id="transparent_rectangle" class="st0" width="32" height="32"/>
</svg>