<?xml version="1.0" encoding="UTF-8"?>
<svg id="icon85" data-name="icon" xmlns="http://www.w3.org/2000/svg" width="32" height="32" version="1.1" viewBox="0 0 32 32">
  <!-- Generator: Adobe Illustrator 29.8.2, SVG Export Plug-In . SVG Version: 2.1.1 Build 3)  -->
  <defs>
    <style>
      .st0 {
        fill: none;
      }

      .st1 {
        fill: #151515;
      }
    </style>
  </defs>
  <path class="st1" d="M31.354,14.939l-3.747-3.747v-5.299c0-.827-.673-1.5-1.5-1.5h-5.299l-3.747-3.747c-.585-.585-1.536-.585-2.121,0l-3.747,3.747h-5.299c-.827,0-1.5.673-1.5,1.5v5.299l-3.747,3.747c-.585.585-.585,1.536,0,2.121l3.747,3.747v5.299c0,.827.673,1.5,1.5,1.5h5.299l3.747,3.747c.292.292.676.438,1.061.438s.768-.146,1.061-.438l3.747-3.747h5.299c.827,0,1.5-.673,1.5-1.5v-5.299l3.747-3.747c.585-.585.585-1.536,0-2.121ZM23,17.125h-5.875v5.875c0,.621-.504,1.125-1.125,1.125s-1.125-.504-1.125-1.125v-5.875h-5.875c-.621,0-1.125-.504-1.125-1.125s.504-1.125,1.125-1.125h5.875v-5.875c0-.621.504-1.125,1.125-1.125s1.125.504,1.125,1.125v5.875h5.875c.621,0,1.125.504,1.125,1.125s-.504,1.125-1.125,1.125Z"/>
  <rect class="st0" width="32" height="32"/>
</svg>