<?xml version="1.0" encoding="UTF-8"?>
<svg id="icon143" data-name="icon" xmlns="http://www.w3.org/2000/svg" width="32" height="32" version="1.1" viewBox="0 0 32 32">
  <!-- Generator: Adobe Illustrator 29.8.2, SVG Export Plug-In . SVG Version: 2.1.1 Build 3)  -->
  <defs>
    <style>
      .st0 {
        fill: none;
      }

      .st1 {
        fill: #151515;
      }
    </style>
  </defs>
  <path class="st1" d="M16,10c-3.309,0-6,2.691-6,6s2.691,6,6,6,6-2.691,6-6-2.691-6-6-6ZM16,20c-2.206,0-4-1.794-4-4s1.794-4,4-4,4,1.794,4,4-1.794,4-4,4ZM30.79,15.335c-.781-1.559-5.165-9.335-14.79-9.335S1.991,13.776,1.209,15.336c-.211.422-.211.906,0,1.328,0,0,0,0,0,0,.781,1.559,5.165,9.335,14.79,9.335s14.009-7.776,14.791-9.336c.211-.422.211-.906,0-1.329ZM16,24c-8.049,0-11.937-6.222-12.882-8,.946-1.778,4.833-8,12.882-8s11.938,6.224,12.882,8c-.946,1.778-4.833,8-12.882,8Z"/>
  <rect id="transparent_rectangle" class="st0" width="32" height="32"/>
</svg>