<?xml version="1.0" encoding="UTF-8"?>
<svg id="icon89" data-name="icon" xmlns="http://www.w3.org/2000/svg" width="32" height="32" version="1.1" viewBox="0 0 32 32">
  <!-- Generator: Adobe Illustrator 29.8.2, SVG Export Plug-In . SVG Version: 2.1.1 Build 3)  -->
  <defs>
    <style>
      .st0 {
        fill: none;
      }

      .st1 {
        fill: #151515;
      }
    </style>
  </defs>
  <path class="st1" d="M31,16c0,.552-.447,1-1,1H2c-.553,0-1-.448-1-1s.447-1,1-1h28c.553,0,1,.448,1,1ZM30,25H2c-.553,0-1,.448-1,1s.447,1,1,1h28c.553,0,1-.448,1-1s-.447-1-1-1ZM2,7h28c.553,0,1-.448,1-1s-.447-1-1-1H2c-.553,0-1,.448-1,1s.447,1,1,1Z"/>
  <rect id="transparent_rectangle" class="st0" width="32" height="32"/>
</svg>