<?xml version="1.0" encoding="UTF-8"?>
<svg id="icon44" data-name="icon" xmlns="http://www.w3.org/2000/svg" width="32" height="32" version="1.1" viewBox="0 0 32 32">
  <!-- Generator: Adobe Illustrator 29.8.2, SVG Export Plug-In . SVG Version: 2.1.1 Build 3)  -->
  <defs>
    <style>
      .st0 {
        fill: none;
      }

      .st1 {
        fill: #151515;
      }
    </style>
  </defs>
  <path class="st1" d="M1,10v-2.5c0-.827.673-1.5,1.5-1.5h27c.827,0,1.5.673,1.5,1.5v2.5H1ZM31,13v11.5c0,.827-.673,1.5-1.5,1.5H2.5c-.827,0-1.5-.673-1.5-1.5v-11.5h30ZM17.25,20c0-.69-.56-1.25-1.25-1.25H7c-.69,0-1.25.56-1.25,1.25s.56,1.25,1.25,1.25h9c.69,0,1.25-.56,1.25-1.25Z"/>
  <rect class="st0" width="32" height="32"/>
</svg>