<?xml version="1.0" encoding="UTF-8"?>
<svg id="icon106" data-name="icon" xmlns="http://www.w3.org/2000/svg" width="32" height="32" version="1.1" viewBox="0 0 32 32">
  <!-- Generator: Adobe Illustrator 29.8.2, SVG Export Plug-In . SVG Version: 2.1.1 Build 3)  -->
  <defs>
    <style>
      .st0 {
        fill: none;
      }

      .st1 {
        fill: #151515;
      }
    </style>
  </defs>
  <path class="st1" d="M20.354,15.702c2.191-1.429,3.646-3.897,3.646-6.702,0-4.411-3.589-8-8-8s-8,3.589-8,8c0,2.805,1.455,5.274,3.646,6.702-5.593,1.836-9.646,7.099-9.646,13.298,0,.552.447,1,1,1h26c.553,0,1-.448,1-1,0-6.199-4.053-11.462-9.646-13.298ZM10,9c0-3.309,2.691-6,6-6s6,2.691,6,6-2.691,6-6,6-6-2.691-6-6ZM4.041,28c.51-6.15,5.679-11,11.959-11s11.449,4.85,11.959,11H4.041Z"/>
  <rect id="transparent_rectangle" class="st0" width="32" height="32"/>
</svg>