<?xml version="1.0" encoding="UTF-8"?>
<svg id="icon71" data-name="icon" xmlns="http://www.w3.org/2000/svg" width="32" height="32" version="1.1" viewBox="0 0 32 32">
  <!-- Generator: Adobe Illustrator 29.8.2, SVG Export Plug-In . SVG Version: 2.1.1 Build 3)  -->
  <defs>
    <style>
      .st0 {
        fill: none;
      }

      .st1 {
        fill: #151515;
      }
    </style>
  </defs>
  <path class="st1" d="M28.749,10.364l-7.113-7.113C18.528.144,13.472.144,10.364,3.251l-7.113,7.113C.144,13.472.144,18.528,3.251,21.636l7.113,7.113c1.554,1.554,3.595,2.331,5.636,2.331s4.082-.777,5.636-2.331l7.113-7.113c3.107-3.107,3.107-8.164,0-11.271ZM23,17.125h-5.875v5.875c0,.621-.504,1.125-1.125,1.125s-1.125-.504-1.125-1.125v-5.875h-5.875c-.621,0-1.125-.504-1.125-1.125s.504-1.125,1.125-1.125h5.875v-5.875c0-.621.504-1.125,1.125-1.125s1.125.504,1.125,1.125v5.875h5.875c.621,0,1.125.504,1.125,1.125s-.504,1.125-1.125,1.125Z"/>
  <rect class="st0" width="32" height="32"/>
</svg>