<?xml version="1.0" encoding="UTF-8"?>
<svg id="icon71" data-name="icon" xmlns="http://www.w3.org/2000/svg" width="32" height="32" version="1.1" viewBox="0 0 32 32">
  <!-- Generator: Adobe Illustrator 29.8.2, SVG Export Plug-In . SVG Version: 2.1.1 Build 3)  -->
  <defs>
    <style>
      .st0 {
        fill: none;
      }

      .st1 {
        fill: #151515;
      }
    </style>
  </defs>
  <path class="st1" d="M31,16c0,8.271-6.729,15-15,15-.806,0-1.614-.064-2.401-.191-.545-.088-.916-.602-.828-1.146.088-.545.6-.92,1.146-.828.683.11,1.384.166,2.083.166,7.168,0,13-5.832,13-13S23.168,3,16,3c-.553,0-1-.448-1-1s.447-1,1-1c8.271,0,15,6.729,15,15ZM5.299,23.384c-.314-.455-.939-.568-1.391-.253-.455.314-.568.937-.254,1.391,1.037,1.5,2.324,2.787,3.824,3.824.173.12.371.178.567.178.317,0,.629-.15.823-.431.314-.454.201-1.077-.254-1.391-1.301-.9-2.416-2.016-3.316-3.317ZM2,15c-.553,0-1,.448-1,1,0,.802.064,1.61.191,2.401.079.492.504.841.986.841.053,0,.105-.004.159-.013.546-.087.917-.601.829-1.146-.11-.686-.166-1.387-.166-2.083,0-.552-.447-1-1-1Z"/>
  <rect id="transparent_rectangle" class="st0" width="32" height="32"/>
</svg>