<?xml version="1.0" encoding="UTF-8"?>
<svg id="icon9" data-name="icon" xmlns="http://www.w3.org/2000/svg" width="32" height="32" version="1.1" viewBox="0 0 32 32">
  <!-- Generator: Adobe Illustrator 29.8.2, SVG Export Plug-In . SVG Version: 2.1.1 Build 3)  -->
  <defs>
    <style>
      .st0 {
        fill: none;
      }

      .st1 {
        fill: #151515;
      }
    </style>
  </defs>
  <path class="st1" d="M29.5,3H2.5c-.827,0-1.5.673-1.5,1.5v17c0,.827.673,1.5,1.5,1.5h9.5v4h-4c-.552,0-1,.448-1,1s.448,1,1,1h16c.552,0,1-.448,1-1s-.448-1-1-1h-4v-4h9.5c.827,0,1.5-.673,1.5-1.5V4.5c0-.827-.673-1.5-1.5-1.5ZM18,27h-4v-4h4v4ZM29,21H3V5h26v16ZM14,10c0-.552.448-1,1-1h8c.552,0,1,.448,1,1s-.448,1-1,1h-8c-.552,0-1-.448-1-1ZM14,16c0-.552.448-1,1-1h8c.552,0,1,.448,1,1s-.448,1-1,1h-8c-.552,0-1-.448-1-1ZM7.38,10.003c0-.897.728-1.625,1.625-1.625s1.625.728,1.625,1.625-.728,1.625-1.625,1.625-1.625-.728-1.625-1.625ZM7.38,16.003c0-.897.728-1.625,1.625-1.625s1.625.728,1.625,1.625-.728,1.625-1.625,1.625-1.625-.728-1.625-1.625Z"/>
  <rect id="transparent_rectangle" class="st0" width="32" height="32"/>
</svg>