<?xml version="1.0" encoding="UTF-8"?>
<svg id="icon3" data-name="icon" xmlns="http://www.w3.org/2000/svg" width="32" height="32" version="1.1" viewBox="0 0 32 32">
  <!-- Generator: Adobe Illustrator 29.8.2, SVG Export Plug-In . SVG Version: 2.1.1 Build 3)  -->
  <defs>
    <style>
      .st0 {
        fill: none;
      }

      .st1 {
        fill: #151515;
      }
    </style>
  </defs>
  <path class="st1" d="M26.954,22.904c-.455,4.54-4.297,8.096-8.954,8.096-4.962,0-9-4.038-9-9v-1.069c-3.94-.495-7-3.859-7-7.931V3.5c0-.827.673-1.5,1.5-1.5h2.5c.552,0,1,.448,1,1s-.448,1-1,1h-2v9c0,3.309,2.691,6,6,6s6-2.691,6-6V4h-2c-.552,0-1-.448-1-1s.448-1,1-1h2.5c.827,0,1.5.673,1.5,1.5v9.5c0,4.072-3.06,7.436-7,7.931v1.069c0,3.86,3.14,7,7,7,3.561,0,6.503-2.674,6.938-6.119-2.248-.489-3.938-2.489-3.938-4.881,0-2.757,2.243-5,5-5s5,2.243,5,5c0,2.43-1.744,4.456-4.046,4.904Z"/>
  <rect class="st0" width="32" height="32"/>
</svg>