<?xml version="1.0" encoding="UTF-8"?>
<svg id="icon204" data-name="icon" xmlns="http://www.w3.org/2000/svg" width="32" height="32" version="1.1" viewBox="0 0 32 32">
  <!-- Generator: Adobe Illustrator 29.8.2, SVG Export Plug-In . SVG Version: 2.1.1 Build 3)  -->
  <title>rh-ui-icon-storage-domain-fill</title>
<metadata><?xpacket begin="﻿" id="W5M0MpCehiHzreSzNTczkc9d"?>
<x:xmpmeta xmlns:x="adobe:ns:meta/" x:xmptk="Adobe XMP Core 8.0-c001 1.000000, 0000/00/00-00:00:00        ">
   <rdf:RDF xmlns:rdf="http://www.w3.org/1999/02/22-rdf-syntax-ns#">
      <rdf:Description rdf:about=""
            xmlns:xmp="http://ns.adobe.com/xap/1.0/"
            xmlns:dc="http://purl.org/dc/elements/1.1/"
            xmlns:tiff="http://ns.adobe.com/tiff/1.0/">
         <xmp:brand-content-subtype>UI</xmp:brand-content-subtype>
         <xmp:rhcc-rights-restricted>no</xmp:rhcc-rights-restricted>
         <xmp:rhcc-file-last-modified>2025-10-14T20:45:49.757Z</xmp:rhcc-file-last-modified>
         <xmp:brand-content-type>Icon</xmp:brand-content-type>
         <xmp:brand-colorway>
            <rdf:Bag>
               <rdf:li>colorway:black</rdf:li>
            </rdf:Bag>
         </xmp:brand-colorway>
         <dc:modified>2025-10-14T20:49:47.792Z</dc:modified>
         <dc:format>image/svg+xml</dc:format>
         <dc:title>
            <rdf:Alt>
               <rdf:li xml:lang="x-default">rh-ui-icon-storage-domain-fill</rdf:li>
            </rdf:Alt>
         </dc:title>
         <tiff:ImageLength>32</tiff:ImageLength>
         <tiff:ImageWidth>32</tiff:ImageWidth>
      </rdf:Description>
   </rdf:RDF>
</x:xmpmeta>
                                                                                                    
                                                                                                    
                                                                                                    
                                                                                                    
                                                                                                    
                                                                                                    
                                                                                                    
                                                                                                    
                                                                                                    
                                                                                                    
                                                                                                    
                                                                                                    
                                                                                                    
                                                                                                    
                                                                                                    
                                                 
<?xpacket end="w"?></metadata>
<defs>
    <style>
      .st0 {
        fill: none;
      }

      .st1 {
        fill: #151515;
      }
    </style>
  </defs>
  <path class="st1" d="M19.19,27.481c-1.53.896-3.777,1.519-6.498,1.519-5.2,0-8.692-2.268-8.692-4.385v-4.863c1.924,1.603,5.067,2.632,8.692,2.632.564,0,1.111-.033,1.649-.081.72,2.389,2.53,4.303,4.849,5.177ZM29.707,27.707c-.195.195-.451.293-.707.293s-.512-.098-.707-.293l-2.822-2.822c-.981.699-2.177,1.115-3.471,1.115-3.309,0-6-2.691-6-6s2.691-6,6-6,6,2.691,6,6c0,1.294-.416,2.49-1.115,3.471l2.822,2.822c.391.391.391,1.023,0,1.414ZM26,20c0-2.206-1.794-4-4-4s-4,1.794-4,4,1.794,4,4,4,4-1.794,4-4ZM12.692,11.77c5.2,0,8.692-2.268,8.692-4.385s-3.493-4.385-8.692-4.385S4,5.268,4,7.385s3.493,4.385,8.692,4.385ZM12.692,20.385c.443,0,.869-.022,1.287-.054-.005-.111-.017-.219-.017-.331,0-3.221,1.908-5.997,4.65-7.278-1.684.661-3.71,1.048-5.919,1.048-3.626,0-6.768-1.03-8.692-2.632v4.863c0,2.117,3.493,4.385,8.692,4.385Z"/>
  <rect class="st0" width="32" height="32"/>
</svg>