<?xml version="1.0" encoding="UTF-8"?>
<svg id="condition-node" xmlns="http://www.w3.org/2000/svg" width="32" height="32" version="1.1" viewBox="0 0 32 32">
  <!-- Generator: Adobe Illustrator 30.1.0, SVG Export Plug-In . SVG Version: 2.1.1 Build 136)  -->
  <title>rh-ui-icon-condition-node</title>
<desc>if, logic, decision, branch, flow, router, gate, boolean, query, filter, split, workflow, rule, evaluation, validation, choice, sequence, criteria, path, comparison, then</desc>
<metadata><?xpacket begin="﻿" id="W5M0MpCehiHzreSzNTczkc9d"?>
<x:xmpmeta xmlns:x="adobe:ns:meta/" x:xmptk="Adobe XMP Core 8.0-c001 1.000000, 0000/00/00-00:00:00        ">
   <rdf:RDF xmlns:rdf="http://www.w3.org/1999/02/22-rdf-syntax-ns#">
      <rdf:Description rdf:about=""
            xmlns:tiff="http://ns.adobe.com/tiff/1.0/"
            xmlns:dc="http://purl.org/dc/elements/1.1/"
            xmlns:xmp="http://ns.adobe.com/xap/1.0/">
         <tiff:ImageLength>32</tiff:ImageLength>
         <tiff:ImageWidth>32</tiff:ImageWidth>
         <dc:format>image/svg+xml</dc:format>
         <dc:modified>2026-01-20T14:41:19.246Z</dc:modified>
         <dc:title>
            <rdf:Alt>
               <rdf:li xml:lang="x-default">rh-ui-icon-condition-node</rdf:li>
            </rdf:Alt>
         </dc:title>
         <dc:description>
            <rdf:Alt>
               <rdf:li xml:lang="x-default">if, logic, decision, branch, flow, router, gate, boolean, query, filter, split, workflow, rule, evaluation, validation, choice, sequence, criteria, path, comparison, then</rdf:li>
            </rdf:Alt>
         </dc:description>
         <xmp:brand-content-type>Icon</xmp:brand-content-type>
         <xmp:brand-content-subtype>UI</xmp:brand-content-subtype>
         <xmp:rhcc-rights-restricted>no</xmp:rhcc-rights-restricted>
         <xmp:rhcc-file-last-modified>2026-01-20T14:37:38.567Z</xmp:rhcc-file-last-modified>
         <xmp:brand-colorway>
            <rdf:Bag>
               <rdf:li>colorway:black</rdf:li>
            </rdf:Bag>
         </xmp:brand-colorway>
      </rdf:Description>
   </rdf:RDF>
</x:xmpmeta>
                                                                                                    
                                                                                                    
                                                                                                    
                                                                                                    
                                                                                                    
                                                                                                    
                                                                                                    
                                                                                                    
                                                                                                    
                                                                                                    
                                                                                                    
                                                                                                    
                                                                                                    
                                                                                                
<?xpacket end="w"?></metadata>
<defs>
    <style>
      .st0 {
        fill: none;
      }

      .st1 {
        fill: #151515;
      }
    </style>
  </defs>
  <path id="icon" class="st1" d="M16.70703,15.29297c.1875.1875.29297.44141.29297.70703v13c0,.55273-.44727,1-1,1s-1-.44727-1-1v-12.58594L4,5.41406v4.58594c0,.55273-.44727,1-1,1s-1-.44727-1-1V3.5c0-.82715.67285-1.5,1.5-1.5h6.5c.55273,0,1,.44727,1,1s-.44727,1-1,1h-4.58594l11.29297,11.29297ZM28.5,2h-6.5c-.55273,0-1,.44727-1,1s.44727,1,1,1h4.58594l-7.29297,7.29297c-.39062.39062-.39062,1.02344,0,1.41406.19531.19531.45117.29297.70703.29297s.51172-.09766.70703-.29297l7.29297-7.29297v4.58594c0,.55273.44727,1,1,1s1-.44727,1-1V3.5c0-.82715-.67285-1.5-1.5-1.5Z"/>
  <rect id="Transparent_rectangle" class="st0" width="32" height="32"/>
</svg>