<?xml version="1.0" encoding="UTF-8"?>
<svg id="icon230" data-name="icon" xmlns="http://www.w3.org/2000/svg" width="32" height="32" version="1.1" viewBox="0 0 32 32">
  <!-- Generator: Adobe Illustrator 29.8.2, SVG Export Plug-In . SVG Version: 2.1.1 Build 3)  -->
  <defs>
    <style>
      .st0 {
        fill: none;
      }

      .st1 {
        fill: #151515;
      }
    </style>
  </defs>
  <path class="st1" d="M19,26h-6c-.552,0-1,.448-1,1,0,2.206,1.794,4,4,4s4-1.794,4-4c0-.552-.448-1-1-1ZM16,29c-.739,0-1.385-.403-1.731-1h3.463c-.346.597-.993,1-1.731,1ZM16,1c-5.238,0-9.5,4.262-9.5,9.5,0,2.801,1.228,5.444,3.367,7.255l1.07,5.056c.146.689.763,1.189,1.468,1.189h7.189c.705,0,1.322-.5,1.468-1.189l1.07-5.056c2.14-1.811,3.367-4.454,3.367-7.255,0-5.238-4.262-9.5-9.5-9.5ZM19.189,22h-6.379l-.847-4h8.072l-.847,4ZM21.083,16h-10.166c-1.535-1.419-2.417-3.4-2.417-5.5,0-4.136,3.364-7.5,7.5-7.5s7.5,3.364,7.5,7.5c0,2.1-.882,4.081-2.417,5.5Z"/>
  <rect id="transparent_rectangle" class="st0" width="32" height="32"/>
</svg>