<?xml version="1.0" encoding="UTF-8"?>
<svg id="icon136" data-name="icon" xmlns="http://www.w3.org/2000/svg" width="32" height="32" version="1.1" viewBox="0 0 32 32">
  <!-- Generator: Adobe Illustrator 29.8.2, SVG Export Plug-In . SVG Version: 2.1.1 Build 3)  -->
  <defs>
    <style>
      .st0 {
        fill: none;
      }

      .st1 {
        fill: #151515;
      }
    </style>
  </defs>
  <path class="st1" d="M12,24v-8c0-.553.448-1,1-1s1,.447,1,1v8c0,.553-.448,1-1,1s-1-.447-1-1ZM19,25c.552,0,1-.447,1-1v-8c0-.553-.448-1-1-1s-1,.447-1,1v8c0,.553.448,1,1,1ZM27,11c0,.553-.448,1-1,1h-1v16.5c0,.827-.673,1.5-1.5,1.5h-15c-.827,0-1.5-.673-1.5-1.5V12h-1c-.552,0-1-.447-1-1s.448-1,1-1h20c.552,0,1,.447,1,1ZM23,12h-14v16h14V12ZM5,6c0-.553.448-1,1-1h5.101c.465-2.279,2.484-4,4.899-4s4.434,1.721,4.899,4h5.101c.552,0,1,.447,1,1s-.448,1-1,1H6c-.552,0-1-.447-1-1ZM13.184,5h5.631c-.414-1.161-1.514-2-2.816-2s-2.402.839-2.816,2Z"/>
  <rect id="transparent_rectangle" class="st0" width="32" height="32"/>
</svg>