<?xml version="1.0" encoding="UTF-8"?>
<svg id="icon197" data-name="icon" xmlns="http://www.w3.org/2000/svg" width="32" height="32" version="1.1" viewBox="0 0 32 32">
  <!-- Generator: Adobe Illustrator 29.8.2, SVG Export Plug-In . SVG Version: 2.1.1 Build 3)  -->
  <title>rh-ui-icon-speedometer-fill</title>
<metadata><?xpacket begin="﻿" id="W5M0MpCehiHzreSzNTczkc9d"?>
<x:xmpmeta xmlns:x="adobe:ns:meta/" x:xmptk="Adobe XMP Core 8.0-c001 1.000000, 0000/00/00-00:00:00        ">
   <rdf:RDF xmlns:rdf="http://www.w3.org/1999/02/22-rdf-syntax-ns#">
      <rdf:Description rdf:about=""
            xmlns:xmp="http://ns.adobe.com/xap/1.0/"
            xmlns:dc="http://purl.org/dc/elements/1.1/"
            xmlns:tiff="http://ns.adobe.com/tiff/1.0/">
         <xmp:brand-content-subtype>UI</xmp:brand-content-subtype>
         <xmp:rhcc-rights-restricted>no</xmp:rhcc-rights-restricted>
         <xmp:rhcc-file-last-modified>2025-10-14T20:45:50.031Z</xmp:rhcc-file-last-modified>
         <xmp:brand-content-type>Icon</xmp:brand-content-type>
         <xmp:brand-colorway>
            <rdf:Bag>
               <rdf:li>colorway:black</rdf:li>
            </rdf:Bag>
         </xmp:brand-colorway>
         <dc:modified>2025-10-14T20:49:47.167Z</dc:modified>
         <dc:format>image/svg+xml</dc:format>
         <dc:title>
            <rdf:Alt>
               <rdf:li xml:lang="x-default">rh-ui-icon-speedometer-fill</rdf:li>
            </rdf:Alt>
         </dc:title>
         <tiff:ImageLength>32</tiff:ImageLength>
         <tiff:ImageWidth>32</tiff:ImageWidth>
      </rdf:Description>
   </rdf:RDF>
</x:xmpmeta>
                                                                                                    
                                                                                                    
                                                                                                    
                                                                                                    
                                                                                                    
                                                                                                    
                                                                                                    
                                                                                                    
                                                                                                    
                                                                                                    
                                                                                                    
                                                                                                    
                                                                                                    
                                                                                                    
                                                                                                    
                                                    
<?xpacket end="w"?></metadata>
<defs>
    <style>
      .st0 {
        fill: none;
      }

      .st1 {
        fill: #151515;
      }
    </style>
  </defs>
  <path class="st1" d="M16,1C7.729,1,1,7.729,1,16s6.729,15,15,15,15-6.729,15-15S24.271,1,16,1ZM16,4.14c1.036,0,1.875.839,1.875,1.875s-.839,1.875-1.875,1.875-1.875-.839-1.875-1.875.839-1.875,1.875-1.875ZM6,17.89c-1.036,0-1.875-.839-1.875-1.875s.839-1.875,1.875-1.875,1.875.839,1.875,1.875-.839,1.875-1.875,1.875ZM8.995,10.876c-1.036,0-1.875-.839-1.875-1.875s.839-1.875,1.875-1.875,1.875.839,1.875,1.875-.839,1.875-1.875,1.875ZM20,26.125h-8c-.621,0-1.125-.504-1.125-1.125s.504-1.125,1.125-1.125h8c.621,0,1.125.504,1.125,1.125s-.504,1.125-1.125,1.125ZM23.796,9.796l-5.232,5.232c.115.303.186.629.186.972,0,1.517-1.233,2.75-2.75,2.75s-2.75-1.233-2.75-2.75,1.233-2.75,2.75-2.75c.343,0,.669.071.972.186l5.232-5.232c.439-.439,1.152-.439,1.592,0,.438.439.438,1.152,0,1.592ZM26,17.89c-1.036,0-1.875-.839-1.875-1.875s.839-1.875,1.875-1.875,1.875.839,1.875,1.875-.839,1.875-1.875,1.875Z"/>
  <rect class="st0" width="32" height="32"/>
</svg>