<?xml version="1.0" encoding="UTF-8"?>
<svg id="icon293" data-name="icon" xmlns="http://www.w3.org/2000/svg" width="32" height="32" version="1.1" viewBox="0 0 32 32">
  <!-- Generator: Adobe Illustrator 29.8.2, SVG Export Plug-In . SVG Version: 2.1.1 Build 3)  -->
  <title>rh-ui-icon-gear-group</title>
<metadata><?xpacket begin="﻿" id="W5M0MpCehiHzreSzNTczkc9d"?>
<x:xmpmeta xmlns:x="adobe:ns:meta/" x:xmptk="Adobe XMP Core 8.0-c001 1.000000, 0000/00/00-00:00:00        ">
   <rdf:RDF xmlns:rdf="http://www.w3.org/1999/02/22-rdf-syntax-ns#">
      <rdf:Description rdf:about=""
            xmlns:xmp="http://ns.adobe.com/xap/1.0/"
            xmlns:dc="http://purl.org/dc/elements/1.1/"
            xmlns:tiff="http://ns.adobe.com/tiff/1.0/">
         <xmp:brand-content-subtype>UI</xmp:brand-content-subtype>
         <xmp:rhcc-rights-restricted>no</xmp:rhcc-rights-restricted>
         <xmp:rhcc-file-last-modified>2025-10-14T20:46:22.770Z</xmp:rhcc-file-last-modified>
         <xmp:brand-content-type>Icon</xmp:brand-content-type>
         <xmp:brand-colorway>
            <rdf:Bag>
               <rdf:li>colorway:black</rdf:li>
            </rdf:Bag>
         </xmp:brand-colorway>
         <dc:modified>2025-10-14T20:50:54.498Z</dc:modified>
         <dc:format>image/svg+xml</dc:format>
         <dc:title>
            <rdf:Alt>
               <rdf:li xml:lang="x-default">rh-ui-icon-gear-group</rdf:li>
            </rdf:Alt>
         </dc:title>
         <tiff:ImageLength>32</tiff:ImageLength>
         <tiff:ImageWidth>32</tiff:ImageWidth>
      </rdf:Description>
   </rdf:RDF>
</x:xmpmeta>
                                                                                                    
                                                                                                    
                                                                                                    
                                                                                                    
                                                                                                    
                                                                                                    
                                                                                                    
                                                                                                    
                                                                                                    
                                                                                                    
                                                                                                    
                                                                                                    
                                                                                                    
                                                                                                    
                                                                                                    
                                                                                                    
                                                                                                    
                  
<?xpacket end="w"?></metadata>
<defs>
    <style>
      .st0 {
        fill: none;
      }

      .st1 {
        fill: #151515;
      }
    </style>
  </defs>
  <path class="st1" d="M28,8h-2.101c-.13-.637-.384-1.229-.732-1.753l1.54-1.54c.391-.391.391-1.023,0-1.414s-1.023-.391-1.414,0l-1.54,1.54c-.524-.348-1.116-.602-1.753-.732v-2.101c0-.553-.448-1-1-1s-1,.447-1,1v2.101c-.637.13-1.229.384-1.753.732l-1.54-1.54c-.391-.391-1.023-.391-1.414,0s-.391,1.023,0,1.414l1.54,1.54c-.348.524-.602,1.116-.732,1.753h-2.101c-.552,0-1,.447-1,1s.448,1,1,1h2.101c.13.637.384,1.229.732,1.753l-1.54,1.54c-.391.391-.391,1.023,0,1.414.195.195.451.293.707.293s.512-.098.707-.293l1.54-1.54c.524.348,1.116.602,1.753.732v2.101c0,.553.448,1,1,1s1-.447,1-1v-2.101c.637-.13,1.229-.384,1.753-.732l1.54,1.54c.195.195.451.293.707.293s.512-.098.707-.293c.391-.391.391-1.023,0-1.414l-1.54-1.54c.348-.524.602-1.116.732-1.753h2.101c.552,0,1-.447,1-1s-.448-1-1-1ZM21,12c-1.654,0-3-1.346-3-3s1.346-3,3-3,3,1.346,3,3-1.346,3-3,3ZM18,22h-2.101c-.13-.637-.384-1.229-.732-1.753l1.54-1.54c.391-.391.391-1.023,0-1.414s-1.023-.391-1.414,0l-1.54,1.54c-.524-.348-1.116-.602-1.753-.732v-2.101c0-.553-.448-1-1-1s-1,.447-1,1v2.101c-.637.13-1.229.384-1.753.732l-1.54-1.54c-.391-.391-1.023-.391-1.414,0s-.391,1.023,0,1.414l1.54,1.54c-.348.524-.602,1.116-.732,1.753h-2.101c-.552,0-1,.447-1,1s.448,1,1,1h2.101c.13.637.384,1.229.732,1.753l-1.54,1.54c-.391.391-.391,1.023,0,1.414.195.195.451.293.707.293s.512-.098.707-.293l1.54-1.54c.524.348,1.116.602,1.753.732v2.101c0,.553.448,1,1,1s1-.447,1-1v-2.101c.637-.13,1.229-.384,1.753-.732l1.54,1.54c.195.195.451.293.707.293s.512-.098.707-.293c.391-.391.391-1.023,0-1.414l-1.54-1.54c.348-.524.602-1.116.732-1.753h2.101c.552,0,1-.447,1-1s-.448-1-1-1ZM11,26c-1.654,0-3-1.346-3-3s1.346-3,3-3,3,1.346,3,3-1.346,3-3,3Z"/>
  <rect id="transparent_rectangle" class="st0" width="32" height="32"/>
</svg>