<?xml version="1.0" encoding="UTF-8"?>
<svg id="icon42" data-name="icon" xmlns="http://www.w3.org/2000/svg" width="32" height="32" version="1.1" viewBox="0 0 32 32">
  <!-- Generator: Adobe Illustrator 29.8.2, SVG Export Plug-In . SVG Version: 2.1.1 Build 3)  -->
  <defs>
    <style>
      .st0 {
        fill: none;
      }

      .st1 {
        fill: #151515;
      }
    </style>
  </defs>
  <path class="st1" d="M24,10.858v2.142c0,2.206-1.794,4-4,4h-6c-1.654,0-3,1.346-3,3v3.142c1.721.447,3,2,3,3.858,0,2.206-1.794,4-4,4s-4-1.794-4-4c0-1.858,1.279-3.411,3-3.858v-14.284c-1.721-.447-3-2-3-3.858,0-2.206,1.794-4,4-4s4,1.794,4,4c0,1.858-1.279,3.411-3,3.858v7.168c.838-.635,1.87-1.026,3-1.026h6c1.103,0,2-.897,2-2v-2.142c-1.721-.447-3-2-3-3.858,0-2.206,1.794-4,4-4s4,1.794,4,4c0,1.858-1.279,3.411-3,3.858Z"/>
  <rect class="st0" width="32" height="32"/>
</svg>