<?xml version="1.0" encoding="UTF-8"?>
<svg id="icon61" data-name="icon" xmlns="http://www.w3.org/2000/svg" width="32" height="32" version="1.1" viewBox="0 0 32 32">
  <!-- Generator: Adobe Illustrator 29.8.2, SVG Export Plug-In . SVG Version: 2.1.1 Build 3)  -->
  <defs>
    <style>
      .st0 {
        fill: none;
      }

      .st1 {
        fill: #151515;
      }
    </style>
  </defs>
  <path class="st1" d="M30,21v7.5c0,.827-.673,1.5-1.5,1.5H3.5c-.827,0-1.5-.673-1.5-1.5V3.5c0-.827.673-1.5,1.5-1.5h7.5c.553,0,1,.448,1,1s-.447,1-1,1h-7v24h24v-7c0-.552.447-1,1-1s1,.448,1,1ZM28.5,2h-10.5c-.553,0-1,.448-1,1s.447,1,1,1h8.586l-13.293,13.293c-.391.391-.391,1.023,0,1.414.195.195.451.293.707.293s.512-.098.707-.293l13.293-13.293v8.586c0,.552.447,1,1,1s1-.448,1-1V3.5c0-.827-.673-1.5-1.5-1.5Z"/>
  <rect id="transparent_rectangle" class="st0" width="32" height="32"/>
</svg>