<?xml version="1.0" encoding="UTF-8"?>
<svg id="file-code-fill" xmlns="http://www.w3.org/2000/svg" width="32" height="32" version="1.1" viewBox="0 0 32 32">
  <!-- Generator: Adobe Illustrator 30.1.0, SVG Export Plug-In . SVG Version: 2.1.1 Build 136)  -->
  <title>rh-ui-icon-file-code-fill</title>
<desc>programming, script, developer, source, syntax, coding, software, html, css, text, digital, web, markup, data, editor, project, technical, archive, backend, json</desc>
<metadata><?xpacket begin="﻿" id="W5M0MpCehiHzreSzNTczkc9d"?>
<x:xmpmeta xmlns:x="adobe:ns:meta/" x:xmptk="Adobe XMP Core 8.0-c001 1.000000, 0000/00/00-00:00:00        ">
   <rdf:RDF xmlns:rdf="http://www.w3.org/1999/02/22-rdf-syntax-ns#">
      <rdf:Description rdf:about=""
            xmlns:tiff="http://ns.adobe.com/tiff/1.0/"
            xmlns:dc="http://purl.org/dc/elements/1.1/"
            xmlns:xmp="http://ns.adobe.com/xap/1.0/">
         <tiff:ImageLength>32</tiff:ImageLength>
         <tiff:ImageWidth>32</tiff:ImageWidth>
         <dc:format>image/svg+xml</dc:format>
         <dc:modified>2026-01-20T14:41:14.456Z</dc:modified>
         <dc:title>
            <rdf:Alt>
               <rdf:li xml:lang="x-default">rh-ui-icon-file-code-fill</rdf:li>
            </rdf:Alt>
         </dc:title>
         <dc:description>
            <rdf:Alt>
               <rdf:li xml:lang="x-default">programming, script, developer, source, syntax, coding, software, html, css, text, digital, web, markup, data, editor, project, technical, archive, backend, json</rdf:li>
            </rdf:Alt>
         </dc:description>
         <xmp:brand-content-type>Icon</xmp:brand-content-type>
         <xmp:brand-content-subtype>UI</xmp:brand-content-subtype>
         <xmp:rhcc-rights-restricted>no</xmp:rhcc-rights-restricted>
         <xmp:rhcc-file-last-modified>2026-01-20T14:37:32.361Z</xmp:rhcc-file-last-modified>
         <xmp:brand-colorway>
            <rdf:Bag>
               <rdf:li>colorway:black</rdf:li>
            </rdf:Bag>
         </xmp:brand-colorway>
      </rdf:Description>
   </rdf:RDF>
</x:xmpmeta>
                                                                                                    
                                                                                                    
                                                                                                    
                                                                                                    
                                                                                                    
                                                                                                    
                                                                                                    
                                                                                                    
                                                                                                    
                                                                                                    
                                                                                                    
                                                                                                    
                                                                                                    
                                                                                                    
    
<?xpacket end="w"?></metadata>
<defs>
    <style>
      .st0 {
        fill: none;
      }

      .st1 {
        fill: #151515;
      }
    </style>
  </defs>
  <path id="icon" class="st1" d="M11.875,8.875h-7.6001c.02631-.15131.08484-.29529.19482-.40527L11.46973,1.46973c.10999-.10999.25397-.16852.40527-.19482v7.6001ZM27.75,2.5v27c0,.68945-.56055,1.25-1.25,1.25H5.5c-.68945,0-1.25-.56055-1.25-1.25V11.125h8.25c.89648,0,1.625-.72852,1.625-1.625V1.25h12.375c.68945,0,1.25.56055,1.25,1.25ZM10.59082,21l3.20508-3.2041c.43848-.43945.43848-1.15234,0-1.5918-.43945-.43945-1.15234-.43945-1.5918,0l-3.64648,3.64648c-.63281.63379-.63281,1.66504,0,2.29883l3.64648,3.64648c.21973.21973.50781.3291.7959.3291s.57617-.10938.7959-.3291c.43848-.43945.43848-1.15234,0-1.5918l-3.20508-3.2041ZM23.44238,19.85059l-3.64648-3.64648c-.43945-.43945-1.15234-.43945-1.5918,0-.43848.43945-.43848,1.15234,0,1.5918l3.20508,3.2041-3.20508,3.2041c-.43848.43945-.43848,1.15234,0,1.5918.21973.21973.50781.3291.7959.3291s.57617-.10938.7959-.3291l3.64648-3.64648c.63281-.63379.63281-1.66504,0-2.29883Z"/>
  <rect class="st0" width="32" height="32"/>
</svg>