<?xml version="1.0" encoding="UTF-8"?>
<svg id="icon202" data-name="icon" xmlns="http://www.w3.org/2000/svg" width="32" height="32" version="1.1" viewBox="0 0 32 32">
  <!-- Generator: Adobe Illustrator 29.8.2, SVG Export Plug-In . SVG Version: 2.1.1 Build 3)  -->
  <title>rh-ui-icon-regions-fill</title>
<metadata><?xpacket begin="﻿" id="W5M0MpCehiHzreSzNTczkc9d"?>
<x:xmpmeta xmlns:x="adobe:ns:meta/" x:xmptk="Adobe XMP Core 8.0-c001 1.000000, 0000/00/00-00:00:00        ">
   <rdf:RDF xmlns:rdf="http://www.w3.org/1999/02/22-rdf-syntax-ns#">
      <rdf:Description rdf:about=""
            xmlns:xmp="http://ns.adobe.com/xap/1.0/"
            xmlns:dc="http://purl.org/dc/elements/1.1/"
            xmlns:tiff="http://ns.adobe.com/tiff/1.0/">
         <xmp:brand-content-subtype>UI</xmp:brand-content-subtype>
         <xmp:rhcc-rights-restricted>no</xmp:rhcc-rights-restricted>
         <xmp:rhcc-file-last-modified>2025-10-14T20:44:35.055Z</xmp:rhcc-file-last-modified>
         <xmp:brand-content-type>Icon</xmp:brand-content-type>
         <xmp:brand-colorway>
            <rdf:Bag>
               <rdf:li>colorway:black</rdf:li>
            </rdf:Bag>
         </xmp:brand-colorway>
         <dc:modified>2025-10-14T20:49:46.001Z</dc:modified>
         <dc:format>image/svg+xml</dc:format>
         <dc:title>
            <rdf:Alt>
               <rdf:li xml:lang="x-default">rh-ui-icon-regions-fill</rdf:li>
            </rdf:Alt>
         </dc:title>
         <tiff:ImageLength>32</tiff:ImageLength>
         <tiff:ImageWidth>32</tiff:ImageWidth>
      </rdf:Description>
   </rdf:RDF>
</x:xmpmeta>
                                                                                                    
                                                                                                    
                                                                                                    
                                                                                                    
                                                                                                    
                                                                                                    
                                                                                                    
                                                                                                    
                                                                                                    
                                                                                                    
                                                                                                    
                                                                                                    
                                                                                                    
                                                                                                    
                                                                                                    
                                                        
<?xpacket end="w"?></metadata>
<defs>
    <style>
      .st0 {
        fill: none;
      }

      .st1 {
        fill: #151515;
      }
    </style>
  </defs>
  <path class="st1" d="M30,4v24c0,.553-.448,1-1,1s-1-.447-1-1V4c0-.553.448-1,1-1s1,.447,1,1ZM3,3c-.552,0-1,.447-1,1v24c0,.553.448,1,1,1s1-.447,1-1V4c0-.553-.448-1-1-1ZM7.308,19.752v4.863c0,2.117,3.493,4.385,8.692,4.385s8.692-2.268,8.692-4.385v-4.863c-1.924,1.603-5.067,2.632-8.692,2.632s-6.768-1.03-8.692-2.632ZM16,3c-5.2,0-8.692,2.267-8.692,4.385h0c0,2.117,3.493,4.385,8.692,4.385s8.692-2.268,8.692-4.385h0c0-2.117-3.493-4.385-8.692-4.385ZM7.308,11.137v4.863c0,2.117,3.493,4.385,8.692,4.385s8.692-2.268,8.692-4.385v-4.863c-1.924,1.603-5.067,2.632-8.692,2.632s-6.768-1.03-8.692-2.632Z"/>
  <rect class="st0" width="32" height="32"/>
</svg>