<?xml version="1.0" encoding="UTF-8"?>
<svg id="icon184" data-name="icon" xmlns="http://www.w3.org/2000/svg" width="32" height="32" version="1.1" viewBox="0 0 32 32">
  <!-- Generator: Adobe Illustrator 29.8.2, SVG Export Plug-In . SVG Version: 2.1.1 Build 3)  -->
  <title>rh-ui-icon-scale-balanced</title>
<metadata><?xpacket begin="﻿" id="W5M0MpCehiHzreSzNTczkc9d"?>
<x:xmpmeta xmlns:x="adobe:ns:meta/" x:xmptk="Adobe XMP Core 8.0-c001 1.000000, 0000/00/00-00:00:00        ">
   <rdf:RDF xmlns:rdf="http://www.w3.org/1999/02/22-rdf-syntax-ns#">
      <rdf:Description rdf:about=""
            xmlns:xmp="http://ns.adobe.com/xap/1.0/"
            xmlns:dc="http://purl.org/dc/elements/1.1/"
            xmlns:tiff="http://ns.adobe.com/tiff/1.0/">
         <xmp:brand-content-subtype>UI</xmp:brand-content-subtype>
         <xmp:rhcc-rights-restricted>no</xmp:rhcc-rights-restricted>
         <xmp:rhcc-file-last-modified>2025-10-14T20:46:34.186Z</xmp:rhcc-file-last-modified>
         <xmp:brand-content-type>Icon</xmp:brand-content-type>
         <xmp:brand-colorway>
            <rdf:Bag>
               <rdf:li>colorway:black</rdf:li>
            </rdf:Bag>
         </xmp:brand-colorway>
         <dc:modified>2025-10-14T20:50:53.269Z</dc:modified>
         <dc:format>image/svg+xml</dc:format>
         <dc:title>
            <rdf:Alt>
               <rdf:li xml:lang="x-default">rh-ui-icon-scale-balanced</rdf:li>
            </rdf:Alt>
         </dc:title>
         <tiff:ImageLength>32</tiff:ImageLength>
         <tiff:ImageWidth>32</tiff:ImageWidth>
      </rdf:Description>
   </rdf:RDF>
</x:xmpmeta>
                                                                                                    
                                                                                                    
                                                                                                    
                                                                                                    
                                                                                                    
                                                                                                    
                                                                                                    
                                                                                                    
                                                                                                    
                                                                                                    
                                                                                                    
                                                                                                    
                                                                                                    
                                                                                                    
                                                                                                    
                                                                                                    
                                                                                                    
              
<?xpacket end="w"?></metadata>
<defs>
    <style>
      .st0 {
        fill: none;
      }

      .st1 {
        fill: #151515;
      }
    </style>
  </defs>
  <path class="st1" d="M20.02,18.193c.104,2.666,2.29,4.807,4.98,4.807s4.877-2.141,4.98-4.807c0-.005,0-.01.001-.014.002-.061.018-.117.018-.179,0-.037-.017-.068-.021-.104-.004-.035.007-.069-.001-.104l-2.346-11.034c.22-.183.367-.449.367-.758,0-.553-.448-1-1-1h-10v-3c0-.553-.448-1-1-1s-1,.447-1,1v3H5c-.552,0-1,.447-1,1,0,.309.148.574.367.758l-2.346,11.034c-.008.036.003.069-.001.104-.004.036-.021.067-.021.104,0,.061.016.118.018.179,0,.005,0,.01.001.014.104,2.666,2.29,4.807,4.98,4.807s4.877-2.141,4.98-4.807c0-.005,0-.01.001-.014.002-.061.018-.117.018-.179,0-.037-.017-.068-.021-.104-.004-.035.007-.069-.001-.104l-2.294-10.792h5.316v20H3c-.552,0-1,.447-1,1s.448,1,1,1h25c.552,0,1-.447,1-1s-.448-1-1-1h-11V7h5.316l-2.294,10.792c-.008.036.003.069-.001.104-.004.036-.021.067-.021.104,0,.061.016.118.018.179,0,.005,0,.01.001.014ZM9.765,17h-5.53l2.126-10h1.279l2.126,10ZM25.64,7l2.126,10h-5.53l2.126-10h1.279Z"/>
  <rect id="transparent_rectangle" class="st0" width="32" height="32"/>
</svg>