<?xml version="1.0" encoding="UTF-8"?>
<svg id="icon64" data-name="icon" xmlns="http://www.w3.org/2000/svg" width="32" height="32" version="1.1" viewBox="0 0 32 32">
  <!-- Generator: Adobe Illustrator 29.8.2, SVG Export Plug-In . SVG Version: 2.1.1 Build 3)  -->
  <defs>
    <style>
      .st0 {
        fill: none;
      }

      .st1 {
        fill: #151515;
      }
    </style>
  </defs>
  <path class="st1" d="M2.076,15.383c-.155-.374-.069-.804.217-1.09L14.939,1.646c.585-.585,1.536-.585,2.121,0l12.646,12.646c.286.286.372.716.217,1.09-.155.374-.52.617-.924.617h-8c-.265,0-.52-.105-.707-.293l-3.586-3.586c-.39-.39-1.024-.39-1.414,0l-3.586,3.586c-.188.188-.442.293-.707.293H3c-.404,0-.769-.244-.924-.617ZM17.061,15.646c-.585-.585-1.536-.585-2.121,0L2.293,28.293c-.286.286-.372.716-.217,1.09.155.374.52.617.924.617h26c.404,0,.769-.244.924-.617.155-.374.069-.804-.217-1.09l-12.646-12.646Z"/>
  <rect class="st0" width="32" height="32"/>
</svg>