<?xml version="1.0" encoding="UTF-8"?>
<svg id="icon22" data-name="icon" xmlns="http://www.w3.org/2000/svg" width="32" height="32" version="1.1" viewBox="0 0 32 32">
  <!-- Generator: Adobe Illustrator 29.8.2, SVG Export Plug-In . SVG Version: 2.1.1 Build 3)  -->
  <defs>
    <style>
      .st0 {
        fill: none;
      }

      .st1 {
        fill: #151515;
      }
    </style>
  </defs>
  <path class="st1" d="M28.5,8c.827,0,1.5-.673,1.5-1.5v-3c0-.827-.673-1.5-1.5-1.5H3.5c-.827,0-1.5.673-1.5,1.5v25c0,.827.673,1.5,1.5,1.5h25c.827,0,1.5-.673,1.5-1.5V12.5c0-.827-.673-1.5-1.5-1.5h-1.5v-3h1.5ZM26.5,13h1.5v15h-11v-3.586l2.707-2.707c.188-.188.293-.442.293-.707v-4.184c1.161-.414,2-1.514,2-2.816,0-1.654-1.346-3-3-3s-3,1.346-3,3c0,1.302.839,2.402,2,2.816v3.77l-2.707,2.707c-.188.188-.293.442-.293.707v4H4V4h8v3.586l-2.707,2.707c-.188.188-.293.442-.293.707v5.184c-1.161.414-2,1.514-2,2.816,0,1.654,1.346,3,3,3s3-1.346,3-3c0-1.302-.839-2.402-2-2.816v-4.77l2.707-2.707c.188-.188.293-.442.293-.707v-4h14v2h-1.5c-.827,0-1.5.673-1.5,1.5v4c0,.827.673,1.5,1.5,1.5Z"/>
  <rect id="transparent_rectangle" class="st0" width="32" height="32"/>
</svg>