<?xml version="1.0" encoding="UTF-8"?>
<svg id="icon211" data-name="icon" xmlns="http://www.w3.org/2000/svg" width="32" height="32" version="1.1" viewBox="0 0 32 32">
  <!-- Generator: Adobe Illustrator 29.8.2, SVG Export Plug-In . SVG Version: 2.1.1 Build 3)  -->
  <title>rh-ui-icon-thumbnail-view-small</title>
<metadata><?xpacket begin="﻿" id="W5M0MpCehiHzreSzNTczkc9d"?>
<x:xmpmeta xmlns:x="adobe:ns:meta/" x:xmptk="Adobe XMP Core 8.0-c001 1.000000, 0000/00/00-00:00:00        ">
   <rdf:RDF xmlns:rdf="http://www.w3.org/1999/02/22-rdf-syntax-ns#">
      <rdf:Description rdf:about=""
            xmlns:xmp="http://ns.adobe.com/xap/1.0/"
            xmlns:dc="http://purl.org/dc/elements/1.1/"
            xmlns:tiff="http://ns.adobe.com/tiff/1.0/">
         <xmp:brand-content-subtype>UI</xmp:brand-content-subtype>
         <xmp:rhcc-rights-restricted>no</xmp:rhcc-rights-restricted>
         <xmp:rhcc-file-last-modified>2025-10-14T20:47:43.711Z</xmp:rhcc-file-last-modified>
         <xmp:brand-content-type>Icon</xmp:brand-content-type>
         <xmp:brand-colorway>
            <rdf:Bag>
               <rdf:li>colorway:black</rdf:li>
            </rdf:Bag>
         </xmp:brand-colorway>
         <dc:modified>2025-10-14T20:49:45.605Z</dc:modified>
         <dc:format>image/svg+xml</dc:format>
         <dc:title>
            <rdf:Alt>
               <rdf:li xml:lang="x-default">rh-ui-icon-thumbnail-view-small</rdf:li>
            </rdf:Alt>
         </dc:title>
         <tiff:ImageLength>32</tiff:ImageLength>
         <tiff:ImageWidth>32</tiff:ImageWidth>
      </rdf:Description>
   </rdf:RDF>
</x:xmpmeta>
                                                                                                    
                                                                                                    
                                                                                                    
                                                                                                    
                                                                                                    
                                                                                                    
                                                                                                    
                                                                                                    
                                                                                                    
                                                                                                    
                                                                                                    
                                                                                                    
                                                                                                    
                                                                                                    
                                                                                                    
                                                
<?xpacket end="w"?></metadata>
<defs>
    <style>
      .st0 {
        fill: none;
      }

      .st1 {
        fill: #151515;
      }
    </style>
  </defs>
  <path class="st1" d="M8.75,2H3.25c-.689,0-1.25.561-1.25,1.25v5.5c0,.689.561,1.25,1.25,1.25h5.5c.689,0,1.25-.561,1.25-1.25V3.25c0-.689-.561-1.25-1.25-1.25ZM8,8h-4v-4h4v4ZM18.75,2h-5.5c-.689,0-1.25.561-1.25,1.25v5.5c0,.689.561,1.25,1.25,1.25h5.5c.689,0,1.25-.561,1.25-1.25V3.25c0-.689-.561-1.25-1.25-1.25ZM18,8h-4v-4h4v4ZM28.75,2h-5.5c-.689,0-1.25.561-1.25,1.25v5.5c0,.689.561,1.25,1.25,1.25h5.5c.689,0,1.25-.561,1.25-1.25V3.25c0-.689-.561-1.25-1.25-1.25ZM28,8h-4v-4h4v4ZM8.75,12H3.25c-.689,0-1.25.561-1.25,1.25v5.5c0,.689.561,1.25,1.25,1.25h5.5c.689,0,1.25-.561,1.25-1.25v-5.5c0-.689-.561-1.25-1.25-1.25ZM8,18h-4v-4h4v4ZM18.75,12h-5.5c-.689,0-1.25.561-1.25,1.25v5.5c0,.689.561,1.25,1.25,1.25h5.5c.689,0,1.25-.561,1.25-1.25v-5.5c0-.689-.561-1.25-1.25-1.25ZM18,18h-4v-4h4v4ZM28.75,12h-5.5c-.689,0-1.25.561-1.25,1.25v5.5c0,.689.561,1.25,1.25,1.25h5.5c.689,0,1.25-.561,1.25-1.25v-5.5c0-.689-.561-1.25-1.25-1.25ZM28,18h-4v-4h4v4ZM8.75,22H3.25c-.689,0-1.25.561-1.25,1.25v5.5c0,.689.561,1.25,1.25,1.25h5.5c.689,0,1.25-.561,1.25-1.25v-5.5c0-.689-.561-1.25-1.25-1.25ZM8,28h-4v-4h4v4ZM18.75,22h-5.5c-.689,0-1.25.561-1.25,1.25v5.5c0,.689.561,1.25,1.25,1.25h5.5c.689,0,1.25-.561,1.25-1.25v-5.5c0-.689-.561-1.25-1.25-1.25ZM18,28h-4v-4h4v4ZM28.75,22h-5.5c-.689,0-1.25.561-1.25,1.25v5.5c0,.689.561,1.25,1.25,1.25h5.5c.689,0,1.25-.561,1.25-1.25v-5.5c0-.689-.561-1.25-1.25-1.25ZM28,28h-4v-4h4v4Z"/>
  <rect id="transparent_rectangle" class="st0" width="32" height="32"/>
</svg>