<?xml version="1.0" encoding="UTF-8"?>
<svg id="icon80" data-name="icon" xmlns="http://www.w3.org/2000/svg" width="32" height="32" version="1.1" viewBox="0 0 32 32">
  <!-- Generator: Adobe Illustrator 29.8.2, SVG Export Plug-In . SVG Version: 2.1.1 Build 3)  -->
  <defs>
    <style>
      .st0 {
        fill: none;
      }

      .st1 {
        fill: #151515;
      }
    </style>
  </defs>
  <path class="st1" d="M24.916,9.5c-2.275-2.276-6.6-6.615-7.855-7.878-.567-.569-1.557-.568-2.122.002l-.534.536c-1.815,1.821-5.898,5.917-7.32,7.34-2.445,2.446-3.757,5.698-3.69,9.157.065,3.458,1.502,6.659,4.044,9.015,2.401,2.226,5.481,3.338,8.562,3.338,3.081,0,6.162-1.113,8.562-3.338,2.542-2.356,3.979-5.558,4.044-9.015.066-3.459-1.244-6.711-3.69-9.157ZM23.203,26.205c-3.973,3.682-10.434,3.682-14.406,0-2.14-1.983-3.349-4.677-3.404-7.586-.055-2.911,1.048-5.647,3.105-7.705,1.423-1.423,5.507-5.521,7.322-7.342l.18-.18c1.577,1.584,5.407,5.427,7.502,7.522,2.058,2.058,3.16,4.794,3.105,7.705-.056,2.909-1.265,5.603-3.404,7.586ZM23.5,18.5c0,4.136-3.364,7.5-7.5,7.5-.553,0-1-.448-1-1s.447-1,1-1c3.032,0,5.5-2.467,5.5-5.5,0-.552.447-1,1-1s1,.448,1,1Z"/>
  <rect id="transparent_rectangle" class="st0" width="32" height="32"/>
</svg>