<?xml version="1.0" encoding="UTF-8"?>
<svg id="icon79" data-name="icon" xmlns="http://www.w3.org/2000/svg" width="32" height="32" version="1.1" viewBox="0 0 32 32">
  <!-- Generator: Adobe Illustrator 29.8.2, SVG Export Plug-In . SVG Version: 2.1.1 Build 3)  -->
  <defs>
    <style>
      .st0 {
        fill: none;
      }

      .st1 {
        fill: #151515;
      }
    </style>
  </defs>
  <path class="st1" d="M28.5,2H3.5c-.827,0-1.5.673-1.5,1.5v25c0,.827.673,1.5,1.5,1.5h25c.827,0,1.5-.673,1.5-1.5V3.5c0-.827-.673-1.5-1.5-1.5ZM26.796,12.795l-8.646,8.646c-.317.317-.733.475-1.149.475s-.832-.158-1.149-.475l-5.851-5.851-3.204,3.205c-.439.439-1.152.439-1.592,0-.438-.439-.438-1.151,0-1.591l3.646-3.646c.635-.634,1.664-.634,2.299,0l5.851,5.851,8.204-8.205c.439-.439,1.152-.439,1.592,0,.438.439.438,1.151,0,1.591Z"/>
  <rect class="st0" width="32" height="32"/>
</svg>