<?xml version="1.0" encoding="UTF-8"?>
<svg id="icon81" data-name="icon" xmlns="http://www.w3.org/2000/svg" width="32" height="32" version="1.1" viewBox="0 0 32 32">
  <!-- Generator: Adobe Illustrator 29.8.2, SVG Export Plug-In . SVG Version: 2.1.1 Build 3)  -->
  <defs>
    <style>
      .st0 {
        fill: none;
      }

      .st1 {
        fill: #151515;
      }
    </style>
  </defs>
  <path class="st1" d="M24.5,12h-1.5v-4c0-3.86-3.14-7-7-7s-7,3.14-7,7v4h-1.5c-.827,0-1.5.673-1.5,1.5v15c0,.827.673,1.5,1.5,1.5h17c.827,0,1.5-.673,1.5-1.5v-15c0-.827-.673-1.5-1.5-1.5ZM11,8c0-2.757,2.243-5,5-5s5,2.243,5,5v4h-10v-4ZM24,28H8v-14h16v14ZM17.5,21h0c0,.52-.265.978-.667,1.247-.001,0-.002.002-.004.003-.062.039-.131.075-.203.109-.015.007-.029.017-.044.024-.005.002-.008.005-.013.007-.039.013-.082.023-.122.035-.142.045-.29.076-.447.076-.057,0-.111-.011-.167-.017-.043-.005-.087-.005-.129-.013-.687-.137-1.204-.743-1.204-1.47h0c0-.035.008-.07.011-.105.035-.492.302-.917.697-1.164.024-.015.05-.027.075-.041.074-.04.15-.075.231-.103.033-.011.065-.022.098-.031.076-.021.155-.033.235-.042.036-.004.071-.01.107-.011.016,0,.03-.005.046-.005.293,0,.564.087.795.232.011.007.024.011.035.017.002.001.003.003.005.004.388.261.645.699.661,1.198,0,.016.005.032.005.048Z"/>
  <rect id="transparent_rectangle" class="st0" width="32" height="32"/>
</svg>