<?xml version="1.0" encoding="UTF-8"?>
<svg id="icon31" data-name="icon" xmlns="http://www.w3.org/2000/svg" width="32" height="32" version="1.1" viewBox="0 0 32 32">
  <!-- Generator: Adobe Illustrator 29.8.2, SVG Export Plug-In . SVG Version: 2.1.1 Build 3)  -->
  <defs>
    <style>
      .st0 {
        fill: none;
      }

      .st1 {
        fill: #151515;
      }
    </style>
  </defs>
  <path class="st1" d="M21,3c0-.552.448-1,1-1h6.5c.827,0,1.5.673,1.5,1.5v6.5c0,.552-.448,1-1,1s-1-.448-1-1v-6h-6c-.552,0-1-.448-1-1ZM3,11c.552,0,1-.448,1-1v-6h6c.552,0,1-.448,1-1s-.448-1-1-1H3.5c-.827,0-1.5.673-1.5,1.5v6.5c0,.552.448,1,1,1ZM10,28h-6v-6c0-.552-.448-1-1-1s-1,.448-1,1v6.5c0,.827.673,1.5,1.5,1.5h6.5c.552,0,1-.448,1-1s-.448-1-1-1ZM29,21c-.552,0-1,.448-1,1v6h-6c-.552,0-1,.448-1,1s.448,1,1,1h6.5c.827,0,1.5-.673,1.5-1.5v-6.5c0-.552-.448-1-1-1ZM30,15h-9.586l3.293-3.293c.391-.391.391-1.023,0-1.414s-1.023-.391-1.414,0l-4.646,4.646c-.585.585-.585,1.536,0,2.121l4.646,4.646c.195.195.451.293.707.293s.512-.098.707-.293c.391-.391.391-1.023,0-1.414l-3.293-3.293h9.586c.552,0,1-.448,1-1s-.448-1-1-1ZM9.707,10.293c-.391-.391-1.023-.391-1.414,0s-.391,1.023,0,1.414l3.293,3.293H2c-.552,0-1,.448-1,1s.448,1,1,1h9.586l-3.293,3.293c-.391.391-.391,1.023,0,1.414.195.195.451.293.707.293s.512-.098.707-.293l4.646-4.646c.585-.585.585-1.536,0-2.121l-4.646-4.646Z"/>
  <rect id="transparent_rectangle" class="st0" width="32" height="32"/>
</svg>