<?xml version="1.0" encoding="UTF-8"?>
<svg id="AI-experience-fill" xmlns="http://www.w3.org/2000/svg" width="32" height="32" version="1.1" viewBox="0 0 32 32">
  <!-- Generator: Adobe Illustrator 30.1.0, SVG Export Plug-In . SVG Version: 2.1.1 Build 136)  -->
  <defs>
    <style>
      .st0 {
        fill: none;
      }

      .st1 {
        fill: #151515;
      }
    </style>
  </defs>
  <path id="icon" class="st1" d="M30.50195,7c0,.28906-.20898.53613-.49805.58984-2.2334.4082-4.00879,2.18359-4.41699,4.41699-.05371.28906-.30078.49805-.58984.49805s-.53613-.20898-.58984-.49805c-.40723-2.2334-2.18262-4.00879-4.41699-4.41699-.28906-.05371-.49805-.30078-.49805-.58984s.20898-.53613.49805-.58984c2.23438-.4082,4.00977-2.18359,4.41699-4.41699.05371-.28906.30078-.49805.58984-.49805s.53613.20898.58984.49805c.4082,2.2334,2.18359,4.00879,4.41699,4.41699.28906.05371.49805.30078.49805.58984ZM26.03711,16.96191c-5.9043-.46875-10.53027-5.09473-10.99902-10.99121-.03711-.52344-.51367-.96973-1.03809-.96973-.52148,0-.99707.44238-1.03809.96191-.46875,5.9043-5.09473,10.53027-10.99121,10.99902-.52344.03711-.96973.51367-.96973,1.03809,0,.52148.44238.99707.96191,1.03809,5.9043.46875,10.53027,5.09473,10.99902,10.99121.03711.52344.51367.96973,1.03809.96973.52148,0,.99707-.44238,1.03809-.96191.46875-5.9043,5.09473-10.53027,10.99902-10.99902.51953-.04199.96191-.51562.96191-1.03809,0-.52148-.44238-.99707-.96191-1.03809Z"/>
  <rect id="Transparent_rectangle" class="st0" width="32" height="32"/>
</svg>