<?xml version="1.0" encoding="UTF-8"?>
<svg id="icon17" data-name="icon" xmlns="http://www.w3.org/2000/svg" width="32" height="32" version="1.1" viewBox="0 0 32 32">
  <!-- Generator: Adobe Illustrator 29.8.2, SVG Export Plug-In . SVG Version: 2.1.1 Build 3)  -->
  <defs>
    <style>
      .st0 {
        fill: none;
      }

      .st1 {
        fill: #151515;
      }
    </style>
  </defs>
  <path class="st1" d="M18,3v26c0,.382-.218.73-.561.898-.14.068-.29.102-.439.102-.218,0-.435-.071-.614-.211l-8.729-6.789H2.5c-.827,0-1.5-.673-1.5-1.5v-11c0-.827.673-1.5,1.5-1.5h5.157l8.729-6.789c.303-.235.71-.277,1.054-.109.343.168.561.517.561.898ZM26.716,5.512c-.386-.396-1.019-.401-1.414-.018-.396.386-.403,1.02-.018,1.414,2.396,2.455,3.716,5.684,3.716,9.092s-1.319,6.637-3.716,9.092c-.386.395-.378,1.028.018,1.414.194.189.446.284.698.284.26,0,.52-.101.716-.302,2.763-2.83,4.284-6.556,4.284-10.488s-1.521-7.658-4.284-10.488ZM22.751,10.05c-.366-.415-.998-.455-1.411-.091-.415.365-.455.997-.091,1.411,1.129,1.284,1.751,2.928,1.751,4.63s-.622,3.346-1.751,4.63c-.364.414-.324,1.046.091,1.411.189.167.425.249.66.249.277,0,.554-.115.751-.34,1.45-1.648,2.249-3.762,2.249-5.95s-.799-4.302-2.249-5.95Z"/>
  <rect class="st0" width="32" height="32"/>
</svg>