<?xml version="1.0" encoding="UTF-8"?>
<svg id="icon74" data-name="icon" xmlns="http://www.w3.org/2000/svg" width="32" height="32" version="1.1" viewBox="0 0 32 32">
  <!-- Generator: Adobe Illustrator 29.8.2, SVG Export Plug-In . SVG Version: 2.1.1 Build 3)  -->
  <defs>
    <style>
      .st0 {
        fill: none;
      }

      .st1 {
        fill: #151515;
      }
    </style>
  </defs>
  <path class="st1" d="M30.707,6.293l-2.646-2.646c-.585-.585-1.536-.585-2.121,0l-13.646,13.646c-.037.037-.054.085-.084.127-1.173-.887-2.628-1.42-4.209-1.42-3.86,0-7,3.14-7,7s3.14,7,7,7,7-3.14,7-7c0-1.581-.533-3.036-1.42-4.209.042-.03.089-.047.127-.084l4.293-4.293,2.293,2.293c.195.195.451.293.707.293s.512-.098.707-.293c.391-.391.391-1.023,0-1.414l-2.293-2.293,3.086-3.086,3.793,3.793c.195.195.451.293.707.293s.512-.098.707-.293c.391-.391.391-1.023,0-1.414l-3.793-3.793,3.086-3.086,2.293,2.293c.391.391,1.023.391,1.414,0s.391-1.023,0-1.414ZM8,28c-2.757,0-5-2.243-5-5s2.243-5,5-5,5,2.243,5,5-2.243,5-5,5Z"/>
  <rect id="transparent_rectangle" class="st0" width="32" height="32"/>
</svg>