<?xml version="1.0" encoding="UTF-8"?>
<svg id="icon137" data-name="icon" xmlns="http://www.w3.org/2000/svg" width="32" height="32" version="1.1" viewBox="0 0 32 32">
  <!-- Generator: Adobe Illustrator 29.8.2, SVG Export Plug-In . SVG Version: 2.1.1 Build 3)  -->
  <title>rh-ui-icon-network-fill</title>
<metadata><?xpacket begin="﻿" id="W5M0MpCehiHzreSzNTczkc9d"?>
<x:xmpmeta xmlns:x="adobe:ns:meta/" x:xmptk="Adobe XMP Core 8.0-c001 1.000000, 0000/00/00-00:00:00        ">
   <rdf:RDF xmlns:rdf="http://www.w3.org/1999/02/22-rdf-syntax-ns#">
      <rdf:Description rdf:about=""
            xmlns:xmp="http://ns.adobe.com/xap/1.0/"
            xmlns:dc="http://purl.org/dc/elements/1.1/"
            xmlns:tiff="http://ns.adobe.com/tiff/1.0/">
         <xmp:brand-content-subtype>UI</xmp:brand-content-subtype>
         <xmp:rhcc-rights-restricted>no</xmp:rhcc-rights-restricted>
         <xmp:rhcc-file-last-modified>2025-10-14T20:44:35.063Z</xmp:rhcc-file-last-modified>
         <xmp:brand-content-type>Icon</xmp:brand-content-type>
         <xmp:brand-colorway>
            <rdf:Bag>
               <rdf:li>colorway:black</rdf:li>
            </rdf:Bag>
         </xmp:brand-colorway>
         <dc:modified>2025-10-14T20:49:46.642Z</dc:modified>
         <dc:format>image/svg+xml</dc:format>
         <dc:title>
            <rdf:Alt>
               <rdf:li xml:lang="x-default">rh-ui-icon-network-fill</rdf:li>
            </rdf:Alt>
         </dc:title>
         <tiff:ImageLength>32</tiff:ImageLength>
         <tiff:ImageWidth>32</tiff:ImageWidth>
      </rdf:Description>
   </rdf:RDF>
</x:xmpmeta>
                                                                                                    
                                                                                                    
                                                                                                    
                                                                                                    
                                                                                                    
                                                                                                    
                                                                                                    
                                                                                                    
                                                                                                    
                                                                                                    
                                                                                                    
                                                                                                    
                                                                                                    
                                                                                                    
                                                                                                    
                                                        
<?xpacket end="w"?></metadata>
<defs>
    <style>
      .st0 {
        fill: none;
      }

      .st1 {
        fill: #151515;
      }
    </style>
  </defs>
  <path class="st1" d="M30,3.5v3c0,.827-.673,1.5-1.5,1.5H3.5c-.827,0-1.5-.673-1.5-1.5v-3c0-.827.673-1.5,1.5-1.5h25c.827,0,1.5.673,1.5,1.5ZM8.75,22.25H3.25c-.552,0-1,.448-1,1v5.5c0,.552.448,1,1,1h5.5c.552,0,1-.448,1-1v-5.5c0-.552-.448-1-1-1ZM18.75,22.25h-5.5c-.552,0-1,.448-1,1v5.5c0,.552.448,1,1,1h5.5c.552,0,1-.448,1-1v-5.5c0-.552-.448-1-1-1ZM28.75,22.25h-5.5c-.552,0-1,.448-1,1v5.5c0,.552.448,1,1,1h5.5c.552,0,1-.448,1-1v-5.5c0-.552-.448-1-1-1ZM16,10c-.553,0-1,.447-1,1v3H6.5c-.827,0-1.5.673-1.5,1.5v3.5c0,.553.447,1,1,1s1-.447,1-1v-3h8v3c0,.553.447,1,1,1s1-.447,1-1v-3h8v3c0,.553.447,1,1,1s1-.447,1-1v-3.5c0-.827-.673-1.5-1.5-1.5h-8.5v-3c0-.553-.447-1-1-1Z"/>
  <rect class="st0" width="32" height="32"/>
</svg>