<?xml version="1.0" encoding="UTF-8"?>
<svg id="icon77" data-name="icon" xmlns="http://www.w3.org/2000/svg" width="32" height="32" version="1.1" viewBox="0 0 32 32">
  <!-- Generator: Adobe Illustrator 29.8.2, SVG Export Plug-In . SVG Version: 2.1.1 Build 3)  -->
  <defs>
    <style>
      .st0 {
        fill: none;
      }

      .st1 {
        fill: #151515;
      }
    </style>
  </defs>
  <path class="st1" d="M30,29c0,.552-.448,1-1,1H3c-.552,0-1-.448-1-1s.448-1,1-1h26c.552,0,1,.448,1,1ZM4,24c0,.552.448,1,1,1h22c.552,0,1-.448,1-1s-.448-1-1-1H5c-.552,0-1,.448-1,1ZM8,20v-7c0-.552-.448-1-1-1s-1,.448-1,1v7c0,.552.448,1,1,1s1-.448,1-1ZM14,20v-7c0-.552-.448-1-1-1s-1,.448-1,1v7c0,.552.448,1,1,1s1-.448,1-1ZM20,20v-7c0-.552-.448-1-1-1s-1,.448-1,1v7c0,.552.448,1,1,1s1-.448,1-1ZM26,20v-7c0-.552-.448-1-1-1s-1,.448-1,1v7c0,.552.448,1,1,1s1-.448,1-1ZM3,10h26c.47,0,.876-.327.977-.786.101-.458-.131-.925-.558-1.123l-13-6c-.266-.122-.572-.122-.838,0L2.581,8.092c-.427.197-.659.664-.558,1.123.101.459.507.786.977.786Z"/>
  <rect class="st0" width="32" height="32"/>
</svg>