<?xml version="1.0" encoding="UTF-8"?>
<svg id="icon185" data-name="icon" xmlns="http://www.w3.org/2000/svg" width="32" height="32" version="1.1" viewBox="0 0 32 32">
  <!-- Generator: Adobe Illustrator 29.8.2, SVG Export Plug-In . SVG Version: 2.1.1 Build 3)  -->
  <title>rh-ui-icon-catalog-alt-fill</title>
<metadata><?xpacket begin="﻿" id="W5M0MpCehiHzreSzNTczkc9d"?>
<x:xmpmeta xmlns:x="adobe:ns:meta/" x:xmptk="Adobe XMP Core 8.0-c001 1.000000, 0000/00/00-00:00:00        ">
   <rdf:RDF xmlns:rdf="http://www.w3.org/1999/02/22-rdf-syntax-ns#">
      <rdf:Description rdf:about=""
            xmlns:dc="http://purl.org/dc/elements/1.1/"
            xmlns:xmp="http://ns.adobe.com/xap/1.0/"
            xmlns:tiff="http://ns.adobe.com/tiff/1.0/">
         <dc:format>image/svg+xml</dc:format>
         <dc:modified>2025-10-14T20:49:28.320Z</dc:modified>
         <dc:title>
            <rdf:Alt>
               <rdf:li xml:lang="x-default">rh-ui-icon-catalog-alt-fill</rdf:li>
            </rdf:Alt>
         </dc:title>
         <xmp:brand-content-type>Icon</xmp:brand-content-type>
         <xmp:rhcc-file-last-modified>2025-10-14T20:44:19.912Z</xmp:rhcc-file-last-modified>
         <xmp:brand-content-subtype>UI</xmp:brand-content-subtype>
         <xmp:rhcc-rights-restricted>no</xmp:rhcc-rights-restricted>
         <xmp:brand-colorway>
            <rdf:Bag>
               <rdf:li>colorway:black</rdf:li>
            </rdf:Bag>
         </xmp:brand-colorway>
         <tiff:ImageWidth>32</tiff:ImageWidth>
         <tiff:ImageLength>32</tiff:ImageLength>
      </rdf:Description>
   </rdf:RDF>
</x:xmpmeta>
                                                                                                    
                                                                                                    
                                                                                                    
                                                                                                    
                                                                                                    
                                                                                                    
                                                                                                    
                                                                                                    
                                                                                                    
                                                                                                    
                                                                                                    
                                                                                                    
                                                                                                    
                                                                                                    
                                                                                                    
                                                                                                    
                                                                                                    
                                                                                                    
                                                                                                    
                                                                                                    
                           
<?xpacket end="w"?></metadata>
<defs>
    <style>
      .st0 {
        fill: none;
      }

      .st1 {
        fill: #151515;
      }
    </style>
  </defs>
  <path class="st1" d="M6.586,22.414l7.586,7.586H3.507c-.827,0-1.5-.673-1.5-1.5V11.5c0-.827.673-1.5,1.5-1.5h2.493v11c0,.53.211,1.039.586,1.414ZM28.5,10h-2.5v11c0,.53-.211,1.039-.586,1.414l-7.586,7.586h10.672c.827,0,1.5-.673,1.5-1.5V11.5c0-.827-.673-1.5-1.5-1.5ZM8.073,21.073l6.5,6.5c.157.157.427.046.427-.177V10.104c0-.066-.026-.13-.073-.177l-6.5-6.5c-.157-.157-.427-.046-.427.177v17.293c0,.066.026.13.073.177ZM23.573,3.427l-6.5,6.5c-.047.047-.073.11-.073.177v17.293c0,.223.269.334.427.177l6.5-6.5c.047-.047.073-.11.073-.177V3.604c0-.223-.269-.334-.427-.177Z"/>
  <rect class="st0" width="32" height="32"/>
</svg>