<?xml version="1.0" encoding="UTF-8"?>
<svg id="icon94" data-name="icon" xmlns="http://www.w3.org/2000/svg" width="32" height="32" version="1.1" viewBox="0 0 32 32">
  <!-- Generator: Adobe Illustrator 29.8.2, SVG Export Plug-In . SVG Version: 2.1.1 Build 3)  -->
  <defs>
    <style>
      .st0 {
        fill: none;
      }

      .st1 {
        fill: #151515;
      }
    </style>
  </defs>
  <path class="st1" d="M28.5,16c0,1.93-1.57,3.5-3.5,3.5-.521,0-1.033-.12-1.5-.345v5.345c0,.551-.448,1-1,1h-5.346c.227.467.346.979.346,1.5,0,1.93-1.57,3.5-3.5,3.5s-3.5-1.57-3.5-3.5c0-.521.119-1.033.346-1.5h-5.346c-.552,0-1-.449-1-1v-6.278c0-.197.116-.376.297-.457.182-.08.391-.047.538.085.465.419,1.057.65,1.665.65,1.379,0,2.5-1.122,2.5-2.5s-1.121-2.5-2.5-2.5c-.608,0-1.2.231-1.665.65-.146.133-.355.166-.538.085-.181-.081-.297-.26-.297-.457v-6.278c0-.551.448-1,1-1h5.346c-.227-.467-.346-.979-.346-1.5,0-1.93,1.57-3.5,3.5-3.5s3.5,1.57,3.5,3.5c0,.521-.119,1.033-.346,1.5h5.346c.552,0,1,.449,1,1v5.345c.467-.226.979-.345,1.5-.345,1.93,0,3.5,1.57,3.5,3.5Z"/>
  <rect class="st0" width="32" height="32"/>
</svg>