<?xml version="1.0" encoding="UTF-8"?>
<svg id="icon28" data-name="icon" xmlns="http://www.w3.org/2000/svg" width="32" height="32" version="1.1" viewBox="0 0 32 32">
  <!-- Generator: Adobe Illustrator 29.8.2, SVG Export Plug-In . SVG Version: 2.1.1 Build 3)  -->
  <title>rh-ui-icon-sidebar-fill</title>
<metadata><?xpacket begin="﻿" id="W5M0MpCehiHzreSzNTczkc9d"?>
<x:xmpmeta xmlns:x="adobe:ns:meta/" x:xmptk="Adobe XMP Core 8.0-c001 1.000000, 0000/00/00-00:00:00        ">
   <rdf:RDF xmlns:rdf="http://www.w3.org/1999/02/22-rdf-syntax-ns#">
      <rdf:Description rdf:about=""
            xmlns:xmp="http://ns.adobe.com/xap/1.0/"
            xmlns:dc="http://purl.org/dc/elements/1.1/"
            xmlns:tiff="http://ns.adobe.com/tiff/1.0/">
         <xmp:brand-content-subtype>UI</xmp:brand-content-subtype>
         <xmp:rhcc-rights-restricted>no</xmp:rhcc-rights-restricted>
         <xmp:rhcc-file-last-modified>2025-10-14T20:45:43.702Z</xmp:rhcc-file-last-modified>
         <xmp:brand-content-type>Icon</xmp:brand-content-type>
         <xmp:brand-colorway>
            <rdf:Bag>
               <rdf:li>colorway:black</rdf:li>
            </rdf:Bag>
         </xmp:brand-colorway>
         <dc:modified>2025-10-14T20:49:28.332Z</dc:modified>
         <dc:format>image/svg+xml</dc:format>
         <dc:title>
            <rdf:Alt>
               <rdf:li xml:lang="x-default">rh-ui-icon-sidebar-fill</rdf:li>
            </rdf:Alt>
         </dc:title>
         <tiff:ImageLength>32</tiff:ImageLength>
         <tiff:ImageWidth>32</tiff:ImageWidth>
      </rdf:Description>
   </rdf:RDF>
</x:xmpmeta>
                                                                                                    
                                                                                                    
                                                                                                    
                                                                                                    
                                                                                                    
                                                                                                    
                                                                                                    
                                                                                                    
                                                                                                    
                                                                                                    
                                                                                                    
                                                                                                    
                                                                                                    
                                                                                                    
                                                                                                    
                                                                                                    
                                                                                                    
                
<?xpacket end="w"?></metadata>
<defs>
    <style>
      .st0 {
        fill: none;
      }

      .st1 {
        fill: #151515;
      }
    </style>
  </defs>
  <path class="st1" d="M29.5,3.25H2.5c-.689,0-1.25.561-1.25,1.25v23c0,.689.561,1.25,1.25,1.25h27c.689,0,1.25-.561,1.25-1.25V4.5c0-.689-.561-1.25-1.25-1.25ZM8,20.125h-2c-.621,0-1.125-.504-1.125-1.125s.504-1.125,1.125-1.125h2c.621,0,1.125.504,1.125,1.125s-.504,1.125-1.125,1.125ZM8,15.125h-2c-.621,0-1.125-.504-1.125-1.125s.504-1.125,1.125-1.125h2c.621,0,1.125.504,1.125,1.125s-.504,1.125-1.125,1.125ZM8,10.125h-2c-.621,0-1.125-.504-1.125-1.125s.504-1.125,1.125-1.125h2c.621,0,1.125.504,1.125,1.125s-.504,1.125-1.125,1.125ZM15.125,24c0,.621-.504,1.125-1.125,1.125s-1.125-.504-1.125-1.125V8c0-.621.504-1.125,1.125-1.125s1.125.504,1.125,1.125v16Z"/>
  <rect class="st0" width="32" height="32"/>
</svg>