<?xml version="1.0" encoding="UTF-8"?>
<svg id="icon51" data-name="icon" xmlns="http://www.w3.org/2000/svg" width="32" height="32" version="1.1" viewBox="0 0 32 32">
  <!-- Generator: Adobe Illustrator 29.8.2, SVG Export Plug-In . SVG Version: 2.1.1 Build 3)  -->
  <defs>
    <style>
      .st0 {
        fill: none;
      }

      .st1 {
        fill: #151515;
      }
    </style>
  </defs>
  <path class="st1" d="M27,17.125c-.621,0-1.125-.504-1.125-1.125s.504-1.125,1.125-1.125h3.943c-.579-7.746-7.052-13.875-14.943-13.875S1.636,7.129,1.057,14.875h3.943c.621,0,1.125.504,1.125,1.125s-.504,1.125-1.125,1.125H1.057c.551,7.373,6.445,13.267,13.818,13.818v-3.943c0-.621.504-1.125,1.125-1.125s1.125.504,1.125,1.125v3.943c7.373-.551,13.267-6.445,13.818-13.818h-3.943ZM20.795,20.795c-.22.22-.507.33-.795.33s-.576-.11-.795-.33l-4-4c-.211-.211-.33-.497-.33-.795V7c0-.621.504-1.125,1.125-1.125s1.125.504,1.125,1.125v8.534l3.67,3.67c.439.439.439,1.151,0,1.591Z"/>
  <rect class="st0" width="32" height="32"/>
</svg>