<?xml version="1.0" encoding="UTF-8"?>
<svg id="icon74" data-name="icon" xmlns="http://www.w3.org/2000/svg" width="32" height="32" version="1.1" viewBox="0 0 32 32">
  <!-- Generator: Adobe Illustrator 29.8.2, SVG Export Plug-In . SVG Version: 2.1.1 Build 3)  -->
  <defs>
    <style>
      .st0 {
        fill: none;
      }

      .st1 {
        fill: #151515;
      }
    </style>
  </defs>
  <path class="st1" d="M28.5,2H3.5c-.827,0-1.5.673-1.5,1.5v25c0,.827.673,1.5,1.5,1.5h25c.827,0,1.5-.673,1.5-1.5V3.5c0-.827-.673-1.5-1.5-1.5ZM25.125,19c0,.621-.504,1.125-1.125,1.125s-1.125-.504-1.125-1.125v-8.284l-11.079,11.079c-.22.22-.508.33-.796.33s-.576-.11-.796-.33c-.438-.439-.438-1.151,0-1.591l11.08-11.08h-8.284c-.621,0-1.125-.504-1.125-1.125s.504-1.125,1.125-1.125h10.5c.896,0,1.625.729,1.625,1.625v10.5Z"/>
  <rect class="st0" width="32" height="32"/>
</svg>