<?xml version="1.0" encoding="UTF-8"?>
<svg id="icon166" data-name="icon" xmlns="http://www.w3.org/2000/svg" width="32" height="32" version="1.1" viewBox="0 0 32 32">
  <!-- Generator: Adobe Illustrator 29.8.2, SVG Export Plug-In . SVG Version: 2.1.1 Build 3)  -->
  <defs>
    <style>
      .st0 {
        fill: none;
      }

      .st1 {
        fill: #151515;
      }
    </style>
  </defs>
  <path class="st1" d="M1,8.875v-4.375c0-.827.673-1.5,1.5-1.5h27c.827,0,1.5.673,1.5,1.5v4.375H1ZM31,11.125v16.375c0,.827-.673,1.5-1.5,1.5H2.5c-.827,0-1.5-.673-1.5-1.5V11.125h30ZM28.125,20c0-.621-.504-1.125-1.125-1.125h-9.875v-3.875c0-.621-.504-1.125-1.125-1.125s-1.125.504-1.125,1.125v3.875H5c-.621,0-1.125.504-1.125,1.125s.504,1.125,1.125,1.125h9.875v3.875c0,.621.504,1.125,1.125,1.125s1.125-.504,1.125-1.125v-3.875h9.875c.621,0,1.125-.504,1.125-1.125Z"/>
  <rect class="st0" width="32" height="32"/>
</svg>