<?xml version="1.0" encoding="UTF-8"?>
<svg id="icon196" data-name="icon" xmlns="http://www.w3.org/2000/svg" width="32" height="32" version="1.1" viewBox="0 0 32 32">
  <!-- Generator: Adobe Illustrator 29.8.2, SVG Export Plug-In . SVG Version: 2.1.1 Build 3)  -->
  <title>rh-ui-icon-replicator-fill</title>
<metadata><?xpacket begin="﻿" id="W5M0MpCehiHzreSzNTczkc9d"?>
<x:xmpmeta xmlns:x="adobe:ns:meta/" x:xmptk="Adobe XMP Core 8.0-c001 1.000000, 0000/00/00-00:00:00        ">
   <rdf:RDF xmlns:rdf="http://www.w3.org/1999/02/22-rdf-syntax-ns#">
      <rdf:Description rdf:about=""
            xmlns:xmp="http://ns.adobe.com/xap/1.0/"
            xmlns:dc="http://purl.org/dc/elements/1.1/"
            xmlns:tiff="http://ns.adobe.com/tiff/1.0/">
         <xmp:brand-content-subtype>UI</xmp:brand-content-subtype>
         <xmp:rhcc-rights-restricted>no</xmp:rhcc-rights-restricted>
         <xmp:rhcc-file-last-modified>2025-10-14T20:44:39.261Z</xmp:rhcc-file-last-modified>
         <xmp:brand-content-type>Icon</xmp:brand-content-type>
         <xmp:brand-colorway>
            <rdf:Bag>
               <rdf:li>colorway:black</rdf:li>
            </rdf:Bag>
         </xmp:brand-colorway>
         <dc:modified>2025-10-14T20:49:23.613Z</dc:modified>
         <dc:format>image/svg+xml</dc:format>
         <dc:title>
            <rdf:Alt>
               <rdf:li xml:lang="x-default">rh-ui-icon-replicator-fill</rdf:li>
            </rdf:Alt>
         </dc:title>
         <tiff:ImageLength>32</tiff:ImageLength>
         <tiff:ImageWidth>32</tiff:ImageWidth>
      </rdf:Description>
   </rdf:RDF>
</x:xmpmeta>
                                                                                                    
                                                                                                    
                                                                                                    
                                                                                                    
                                                                                                    
                                                                                                    
                                                                                                    
                                                                                                    
                                                                                                    
                                                                                                    
                                                                                                    
                                                                                                    
                                                                                                    
                                                                                                    
                                                                                                    
                                                     
<?xpacket end="w"?></metadata>
<defs>
    <style>
      .st0 {
        fill: none;
      }

      .st1 {
        fill: #151515;
      }
    </style>
  </defs>
  <path class="st1" d="M24.5,19.015v6.062c0,.179-.096.344-.25.433l-5.25,3.031c-.077.045-.164.067-.25.067s-.173-.022-.25-.067l-5-2.887-5,2.887c-.077.045-.164.067-.25.067s-.173-.022-.25-.067l-5.25-3.031c-.154-.089-.25-.254-.25-.433v-6.062c0-.179.096-.344.25-.433l5-2.886v-5.773c0-.179.096-.344.25-.433l5.25-3.031c.154-.09.346-.09.5,0l5.25,3.031c.154.089.25.254.25.433v5.773l5,2.886c.154.089.25.254.25.433ZM29.5,15.148l-4.75-2.742v-5.484c0-.357-.19-.688-.5-.866l-5.25-3.031c-.479-.276-1.089-.113-1.366.366-.276.479-.112,1.09.366,1.366l4.75,2.742v5.485c0,.043.019.079.024.12.009.069.018.136.041.202.021.062.052.117.084.173.031.054.061.104.102.152.047.055.102.098.161.142.032.024.053.057.088.078l4.75,2.741v5.485c0,.553.447,1,1,1s1-.447,1-1v-6.062c0-.357-.19-.688-.5-.866Z"/>
  <rect class="st0" width="32" height="32"/>
</svg>