<?xml version="1.0" encoding="UTF-8"?>
<svg id="icon20" data-name="icon" xmlns="http://www.w3.org/2000/svg" width="32" height="32" version="1.1" viewBox="0 0 32 32">
  <!-- Generator: Adobe Illustrator 29.8.2, SVG Export Plug-In . SVG Version: 2.1.1 Build 3)  -->
  <defs>
    <style>
      .st0 {
        fill: none;
      }

      .st1 {
        fill: #151515;
      }
    </style>
  </defs>
  <path class="st1" d="M16,1C7.729,1,1,7.729,1,16s6.729,15,15,15,15-6.729,15-15S24.271,1,16,1ZM16,29c-7.168,0-13-5.832-13-13S8.832,3,16,3s13,5.832,13,13-5.832,13-13,13ZM23.707,11.293c.391.391.391,1.023,0,1.414l-8.646,8.646c-.292.292-.676.438-1.061.438s-.768-.146-1.061-.438l-4.646-4.646c-.391-.391-.391-1.023,0-1.414s1.023-.391,1.414,0l4.293,4.293,8.293-8.293c.391-.391,1.023-.391,1.414,0Z"/>
  <rect id="transparent_rectangle" class="st0" width="32" height="32"/>
</svg>