<?xml version="1.0" encoding="UTF-8"?>
<svg id="icon139" data-name="icon" xmlns="http://www.w3.org/2000/svg" width="32" height="32" version="1.1" viewBox="0 0 32 32">
  <!-- Generator: Adobe Illustrator 29.8.2, SVG Export Plug-In . SVG Version: 2.1.1 Build 3)  -->
  <title>rh-ui-icon-folder-open-fill</title>
<metadata><?xpacket begin="﻿" id="W5M0MpCehiHzreSzNTczkc9d"?>
<x:xmpmeta xmlns:x="adobe:ns:meta/" x:xmptk="Adobe XMP Core 8.0-c001 1.000000, 0000/00/00-00:00:00        ">
   <rdf:RDF xmlns:rdf="http://www.w3.org/1999/02/22-rdf-syntax-ns#">
      <rdf:Description rdf:about=""
            xmlns:xmp="http://ns.adobe.com/xap/1.0/"
            xmlns:dc="http://purl.org/dc/elements/1.1/"
            xmlns:tiff="http://ns.adobe.com/tiff/1.0/">
         <xmp:brand-content-subtype>UI</xmp:brand-content-subtype>
         <xmp:rhcc-rights-restricted>no</xmp:rhcc-rights-restricted>
         <xmp:rhcc-file-last-modified>2025-10-14T20:44:25.884Z</xmp:rhcc-file-last-modified>
         <xmp:brand-content-type>Icon</xmp:brand-content-type>
         <xmp:brand-colorway>
            <rdf:Bag>
               <rdf:li>colorway:black</rdf:li>
            </rdf:Bag>
         </xmp:brand-colorway>
         <dc:modified>2025-10-14T20:49:14.658Z</dc:modified>
         <dc:format>image/svg+xml</dc:format>
         <dc:title>
            <rdf:Alt>
               <rdf:li xml:lang="x-default">rh-ui-icon-folder-open-fill</rdf:li>
            </rdf:Alt>
         </dc:title>
         <tiff:ImageLength>32</tiff:ImageLength>
         <tiff:ImageWidth>32</tiff:ImageWidth>
      </rdf:Description>
   </rdf:RDF>
</x:xmpmeta>
                                                                                                    
                                                                                                    
                                                                                                    
                                                                                                    
                                                                                                    
                                                                                                    
                                                                                                    
                                                                                                    
                                                                                                    
                                                                                                    
                                                                                                    
                                                                                                    
                                                                                                    
                                                                                                    
                                                                                                    
                                                                                                    
                                                                                                    
            
<?xpacket end="w"?></metadata>
<defs>
    <style>
      .st0 {
        fill: none;
      }

      .st1 {
        fill: #151515;
      }
    </style>
  </defs>
  <path class="st1" d="M30.979,13.108l-3,14.1c-.099.462-.507.792-.979.792H2c-.151,0-.29-.038-.418-.098-.038-.017-.066-.046-.101-.068-.086-.054-.165-.113-.23-.189-.013-.015-.033-.021-.046-.037-.021-.027-.023-.062-.041-.091-.047-.076-.084-.155-.109-.243-.016-.056-.027-.108-.033-.166-.004-.037-.022-.07-.022-.108V9.5c0-.827.673-1.5,1.5-1.5h2.69l.681-3.208c.099-.462.506-.792.979-.792h9.301c.473,0,.88.33.979.792l.681,3.208h10.19c.553,0,1,.447,1,1s-.447,1-1,1h-11c-.473,0-.88-.33-.979-.792l-.681-3.208h-7.682l-.681,3.208c-.099.462-.506.792-.979.792h-3v9.523l1.875-6.885c.118-.436.514-.737.965-.737h24.16c.302,0,.587.137.777.371.189.234.264.542.201.837Z"/>
  <rect class="st0" width="32" height="32"/>
</svg>