<?xml version="1.0" encoding="UTF-8"?>
<svg id="user-check" xmlns="http://www.w3.org/2000/svg" width="32" height="32" version="1.1" viewBox="0 0 32 32">
  <!-- Generator: Adobe Illustrator 30.1.0, SVG Export Plug-In . SVG Version: 2.1.1 Build 136)  -->
  <title>rh-ui-icon-user-check</title>
<desc>audit, verification, profile, account, validation, person, identity, security, authentication, status, member, permission, access, login, human, inspector, review, confirmation, credentials, authorize</desc>
<metadata><?xpacket begin="﻿" id="W5M0MpCehiHzreSzNTczkc9d"?>
<x:xmpmeta xmlns:x="adobe:ns:meta/" x:xmptk="Adobe XMP Core 8.0-c001 1.000000, 0000/00/00-00:00:00        ">
   <rdf:RDF xmlns:rdf="http://www.w3.org/1999/02/22-rdf-syntax-ns#">
      <rdf:Description rdf:about=""
            xmlns:tiff="http://ns.adobe.com/tiff/1.0/"
            xmlns:dc="http://purl.org/dc/elements/1.1/"
            xmlns:xmp="http://ns.adobe.com/xap/1.0/">
         <tiff:ImageLength>32</tiff:ImageLength>
         <tiff:ImageWidth>32</tiff:ImageWidth>
         <dc:format>image/svg+xml</dc:format>
         <dc:modified>2026-01-20T14:41:12.700Z</dc:modified>
         <dc:title>
            <rdf:Alt>
               <rdf:li xml:lang="x-default">rh-ui-icon-user-check</rdf:li>
            </rdf:Alt>
         </dc:title>
         <dc:description>
            <rdf:Alt>
               <rdf:li xml:lang="x-default">audit, verification, profile, account, validation, person, identity, security, authentication, status, member, permission, access, login, human, inspector, review, confirmation, credentials, authorize</rdf:li>
            </rdf:Alt>
         </dc:description>
         <xmp:brand-content-type>Icon</xmp:brand-content-type>
         <xmp:brand-content-subtype>UI</xmp:brand-content-subtype>
         <xmp:rhcc-rights-restricted>no</xmp:rhcc-rights-restricted>
         <xmp:rhcc-file-last-modified>2026-01-20T14:37:38.640Z</xmp:rhcc-file-last-modified>
         <xmp:brand-colorway>
            <rdf:Bag>
               <rdf:li>colorway:black</rdf:li>
            </rdf:Bag>
         </xmp:brand-colorway>
      </rdf:Description>
   </rdf:RDF>
</x:xmpmeta>
                                                                                                    
                                                                                                    
                                                                                                    
                                                                                                    
                                                                                                    
                                                                                                    
                                                                                                    
                                                                                                    
                                                                                                    
                                                                                                    
                                                                                                    
                                                                                                    
                                                                                                    
                                                                      
<?xpacket end="w"?></metadata>
<defs>
    <style>
      .st0 {
        fill: none;
      }

      .st1 {
        fill: #151515;
      }
    </style>
  </defs>
  <path id="icon" class="st1" d="M14.69635,15.71661c1.39978-1.0993,2.30365-2.80267,2.30365-4.71661,0-3.30859-2.69141-6-6-6s-6,2.69141-6,6c0,1.91394.90387,3.61725,2.30365,4.71661-3.68781,1.47394-6.30365,5.07599-6.30365,9.28339,0,.55273.44727,1,1,1h18c.55273,0,1-.44727,1-1,0-4.2074-2.61584-7.80945-6.30365-9.28339ZM7,11c0-2.20605,1.79395-4,4-4s4,1.79395,4,4-1.79395,4-4,4-4-1.79395-4-4ZM3.0625,24c.49316-3.94043,3.86523-7,7.9375-7s7.44434,3.05957,7.9375,7H3.0625ZM30.70703,12.70703l-4.64648,4.64648c-.29199.29297-.67676.43848-1.06055.43848s-.76855-.14551-1.06055-.43848l-2.64648-2.64648c-.39062-.39062-.39062-1.02344,0-1.41406s1.02344-.39062,1.41406,0l2.29297,2.29297,4.29297-4.29297c.39062-.39062,1.02344-.39062,1.41406,0s.39062,1.02344,0,1.41406Z"/>
  <rect id="Transparent_rectangle" class="st0" width="32" height="32"/>
</svg>