<?xml version="1.0" encoding="UTF-8"?>
<svg id="icon36" data-name="icon" xmlns="http://www.w3.org/2000/svg" width="32" height="32" version="1.1" viewBox="0 0 32 32">
  <!-- Generator: Adobe Illustrator 29.8.2, SVG Export Plug-In . SVG Version: 2.1.1 Build 3)  -->
  <defs>
    <style>
      .st0 {
        fill: none;
      }

      .st1 {
        fill: #151515;
      }
    </style>
  </defs>
  <path class="st1" d="M25,29c0,.552-.447,1-1,1H3.5c-.827,0-1.5-.673-1.5-1.5V8c0-.552.447-1,1-1s1,.448,1,1v20h20c.553,0,1,.448,1,1ZM30,3.5v20c0,.827-.673,1.5-1.5,1.5H8.5c-.827,0-1.5-.673-1.5-1.5V3.5c0-.827.673-1.5,1.5-1.5h20c.827,0,1.5.673,1.5,1.5ZM18.87,8c0-1.036-.839-1.875-1.875-1.875s-1.875.839-1.875,1.875.839,1.875,1.875,1.875,1.875-.839,1.875-1.875ZM25.87,8c0-1.036-.839-1.875-1.875-1.875s-1.875.839-1.875,1.875.839,1.875,1.875,1.875,1.875-.839,1.875-1.875Z"/>
  <rect class="st0" width="32" height="32"/>
</svg>