<?xml version="1.0" encoding="UTF-8"?>
<svg id="icon302" data-name="icon" xmlns="http://www.w3.org/2000/svg" width="32" height="32" version="1.1" viewBox="0 0 32 32">
  <!-- Generator: Adobe Illustrator 29.8.2, SVG Export Plug-In . SVG Version: 2.1.1 Build 3)  -->
  <title>rh-ui-icon-comments</title>
<metadata><?xpacket begin="﻿" id="W5M0MpCehiHzreSzNTczkc9d"?>
<x:xmpmeta xmlns:x="adobe:ns:meta/" x:xmptk="Adobe XMP Core 8.0-c001 1.000000, 0000/00/00-00:00:00        ">
   <rdf:RDF xmlns:rdf="http://www.w3.org/1999/02/22-rdf-syntax-ns#">
      <rdf:Description rdf:about=""
            xmlns:xmp="http://ns.adobe.com/xap/1.0/"
            xmlns:dc="http://purl.org/dc/elements/1.1/"
            xmlns:tiff="http://ns.adobe.com/tiff/1.0/">
         <xmp:brand-content-subtype>UI</xmp:brand-content-subtype>
         <xmp:rhcc-rights-restricted>no</xmp:rhcc-rights-restricted>
         <xmp:rhcc-file-last-modified>2025-10-14T20:46:09.919Z</xmp:rhcc-file-last-modified>
         <xmp:brand-content-type>Icon</xmp:brand-content-type>
         <xmp:brand-colorway>
            <rdf:Bag>
               <rdf:li>colorway:black</rdf:li>
            </rdf:Bag>
         </xmp:brand-colorway>
         <dc:modified>2025-10-14T20:49:14.877Z</dc:modified>
         <dc:format>image/svg+xml</dc:format>
         <dc:title>
            <rdf:Alt>
               <rdf:li xml:lang="x-default">rh-ui-icon-comments</rdf:li>
            </rdf:Alt>
         </dc:title>
         <tiff:ImageLength>32</tiff:ImageLength>
         <tiff:ImageWidth>32</tiff:ImageWidth>
      </rdf:Description>
   </rdf:RDF>
</x:xmpmeta>
                                                                                                    
                                                                                                    
                                                                                                    
                                                                                                    
                                                                                                    
                                                                                                    
                                                                                                    
                                                                                                    
                                                                                                    
                                                                                                    
                                                                                                    
                                                                                                    
                                                                                                    
                                                                                                    
                                                                                                    
                                                                                                    
                                                                                                    
                                                                                                    
                                                                                                    
                                                                                                    
                           
<?xpacket end="w"?></metadata>
<defs>
    <style>
      .st0 {
        fill: none;
      }

      .st1 {
        fill: #151515;
      }
    </style>
  </defs>
  <path class="st1" d="M21,15.25c.553,0,1-.448,1-1V2.714c0-.552-.447-1-1-1H2c-.553,0-1,.448-1,1v11.536c0,.552.447,1,1,1h4v3.75c0,.42.263.795.657.939.112.041.228.061.343.061.289,0,.571-.126.765-.356l3.7-4.394h9.535ZM10.235,13.606l-2.235,2.654v-2.01c0-.552-.447-1-1-1H3V3.714h17v9.536h-9c-.295,0-.575.13-.765.356ZM31,13v11.54c0,.552-.447,1-1,1h-4v3.75c0,.42-.263.795-.657.939-.112.041-.228.061-.343.061-.289,0-.571-.126-.765-.356l-3.7-4.394h-9.535c-.553,0-1-.448-1-1v-3.54c0-.552.447-1,1-1s1,.448,1,1v2.54h9c.295,0,.575.13.765.356l2.235,2.654v-2.01c0-.552.447-1,1-1h4v-9.54h-3c-.553,0-1-.448-1-1s.447-1,1-1h4c.553,0,1,.448,1,1Z"/>
  <rect id="transparent_rectangle3" data-name="transparent_rectangle" class="st0" width="32" height="32"/>
</svg>