<?xml version="1.0" encoding="UTF-8"?>
<svg id="icon117" data-name="icon" xmlns="http://www.w3.org/2000/svg" width="32" height="32" version="1.1" viewBox="0 0 32 32">
  <!-- Generator: Adobe Illustrator 29.8.2, SVG Export Plug-In . SVG Version: 2.1.1 Build 3)  -->
  <defs>
    <style>
      .st0 {
        fill: none;
      }

      .st1 {
        fill: #151515;
      }
    </style>
  </defs>
  <path class="st1" d="M14,18.586l8.293-8.293c.391-.391,1.023-.391,1.414,0s.391,1.023,0,1.414l-8.646,8.646c-.292.292-.676.438-1.061.438s-.768-.146-1.061-.438l-4.646-4.646c-.391-.391-.391-1.023,0-1.414s1.023-.391,1.414,0l4.293,4.293ZM29,4.56v13.44c0,7.168-5.832,13-13,13S3,25.168,3,18V4.56c0-.472.33-.879.792-.978L15.792,1.022c.138-.029.279-.029.417,0l12,2.56c.461.099.792.506.792.978ZM27,5.369l-11-2.347-11,2.347v12.631c0,6.065,4.935,11,11,11s11-4.935,11-11V5.369Z"/>
  <rect id="transparent_rectangle" class="st0" width="32" height="32"/>
</svg>