<?xml version="1.0" encoding="UTF-8"?>
<svg id="icon78" data-name="icon" xmlns="http://www.w3.org/2000/svg" width="32" height="32" version="1.1" viewBox="0 0 32 32">
  <!-- Generator: Adobe Illustrator 29.8.2, SVG Export Plug-In . SVG Version: 2.1.1 Build 3)  -->
  <defs>
    <style>
      .st0 {
        fill: none;
      }

      .st1 {
        fill: #151515;
      }
    </style>
  </defs>
  <path class="st1" d="M30.707,15.433l-1.999-1.999s0-.001,0-.001L17.076,1.812c-.558-.587-1.612-.568-2.133-.019L3.293,13.433s0,.001,0,.001l-1.999,1.999c-.391.391-.391,1.023,0,1.414.195.195.451.293.707.293s.512-.098.707-.293l.293-.293v12.946c0,.827.673,1.5,1.5,1.5h23c.827,0,1.5-.673,1.5-1.5v-12.946l.293.293c.195.195.451.293.707.293s.512-.098.707-.293c.391-.391.391-1.023,0-1.414ZM12,19h8v10h-8v-10Z"/>
  <rect class="st0" width="32" height="32"/>
</svg>