<?xml version="1.0" encoding="UTF-8"?>
<svg id="icon80" data-name="icon" xmlns="http://www.w3.org/2000/svg" width="32" height="32" version="1.1" viewBox="0 0 32 32">
  <!-- Generator: Adobe Illustrator 29.8.2, SVG Export Plug-In . SVG Version: 2.1.1 Build 3)  -->
  <defs>
    <style>
      .st0 {
        fill: none;
      }

      .st1 {
        fill: #151515;
      }
    </style>
  </defs>
  <path class="st1" d="M16,1C7.729,1,1,7.729,1,16s6.729,15,15,15,15-6.729,15-15S24.271,1,16,1ZM17.5,23c0,.829-.672,1.5-1.5,1.5s-1.5-.671-1.5-1.5v-5.157l-.188.04c-.105.022-.211.033-.314.033-.692,0-1.315-.483-1.465-1.188-.173-.81.345-1.607,1.154-1.779l1.956-.416c.112-.024.223-.032.333-.03.008,0,.016-.002.024-.002.828,0,1.5.671,1.5,1.5v7ZM17.42,10.42c-.38.37-.89.58-1.42.58s-1.04-.21-1.41-.58c-.38-.38-.59-.89-.59-1.42,0-.13.01-.26.04-.39.02-.13.06-.25.109-.37.051-.13.11-.24.19-.35.07-.11.15-.21.25-.3.74-.75,2.08-.75,2.83,0,.09.09.17.19.24.3.08.11.14.22.189.35.05.12.09.24.11.37.03.13.04.26.04.39,0,.53-.21,1.04-.58,1.42Z"/>
  <rect class="st0" width="32" height="32"/>
</svg>