<?xml version="1.0" encoding="UTF-8"?>
<svg id="icon144" data-name="icon" xmlns="http://www.w3.org/2000/svg" width="32" height="32" version="1.1" viewBox="0 0 32 32">
  <!-- Generator: Adobe Illustrator 29.8.2, SVG Export Plug-In . SVG Version: 2.1.1 Build 3)  -->
  <defs>
    <style>
      .st0 {
        fill: none;
      }

      .st1 {
        fill: #151515;
      }
    </style>
  </defs>
  <path class="st1" d="M16,22c-3.309,0-6-2.691-6-6,0-.553.448-1,1-1s1,.447,1,1c0,2.206,1.794,4,4,4,.552,0,1,.447,1,1s-.448,1-1,1ZM19.342,23.608c-1.06.26-2.184.392-3.342.392-8.047,0-11.937-6.223-12.882-8,.424-.793,1.537-2.646,3.448-4.354.412-.368.448-1,.08-1.412-.368-.412-1-.446-1.412-.08-2.331,2.082-3.59,4.315-4.024,5.181-.211.423-.211.907,0,1.33.782,1.559,5.168,9.335,14.79,9.335,1.318,0,2.603-.151,3.818-.448.537-.132.865-.673.733-1.21-.131-.536-.679-.864-1.209-.733ZM30.707,30.707c-.195.195-.451.293-.707.293s-.512-.098-.707-.293l-6.812-6.812s-.004-.004-.006-.006L1.293,2.707c-.391-.391-.391-1.023,0-1.414s1.023-.391,1.414,0l6.297,6.297c2.156-1.052,4.504-1.59,6.996-1.59,9.622,0,14.008,7.776,14.79,9.335.211.423.211.907,0,1.329-.516,1.03-2.38,4.329-5.995,6.718l5.911,5.911c.391.391.391,1.023,0,1.414ZM20,16c0-2.206-1.794-4-4-4-.722,0-1.411.205-2.022.563l5.459,5.459c.358-.611.564-1.3.564-2.022ZM23.337,21.923c3.22-2.002,5.007-4.92,5.545-5.924-.946-1.777-4.836-7.999-12.882-7.999-1.94,0-3.772.384-5.477,1.109l2.002,2.002c1.013-.719,2.214-1.111,3.475-1.111,3.309,0,6,2.691,6,6,0,1.26-.393,2.462-1.111,3.475l2.448,2.448Z"/>
  <rect id="transparent_rectangle" class="st0" width="32" height="32"/>
</svg>