<?xml version="1.0" encoding="UTF-8"?>
<svg id="icon168" data-name="icon" xmlns="http://www.w3.org/2000/svg" width="32" height="32" version="1.1" viewBox="0 0 32 32">
  <!-- Generator: Adobe Illustrator 29.8.2, SVG Export Plug-In . SVG Version: 2.1.1 Build 3)  -->
  <defs>
    <style>
      .st0 {
        fill: none;
      }

      .st1 {
        fill: #151515;
      }
    </style>
  </defs>
  <path class="st1" d="M30.994,15.97c-.002-.066-.024-.13-.039-.196-.016-.065-.024-.132-.052-.192-.004-.01-.003-.02-.008-.03l-3.862-7.726c-.257-.51-.771-.827-1.341-.827h-4.691v-1.5c0-.827-.673-1.5-1.5-1.5H2.5c-.827,0-1.5.673-1.5,1.5v16c0,.827.673,1.5,1.5,1.5h.642c-.084.322-.142.653-.142,1,0,2.206,1.794,4,4,4s4-1.794,4-4c0-.347-.058-.678-.142-1h10.284c-.084.322-.142.653-.142,1,0,2.206,1.794,4,4,4s4-1.794,4-4c0-.347-.058-.678-.142-1h.642c.827,0,1.5-.673,1.5-1.5v-5.5c0-.011-.006-.019-.006-.03ZM7,26c-1.103,0-2-.897-2-2s.897-2,2-2,2,.897,2,2-.897,2-2,2ZM21,9h4.383l2.999,6h-7.382v-6ZM25,26c-1.103,0-2-.897-2-2s.897-2,2-2,2,.897,2,2-.897,2-2,2ZM29,21h-1.382c-.703-.615-1.612-1-2.618-1s-1.915.385-2.618,1h-1.382v-4h8v4Z"/>
  <rect class="st0" width="32" height="32"/>
</svg>