<?xml version="1.0" encoding="UTF-8"?>
<svg id="icon12" data-name="icon" xmlns="http://www.w3.org/2000/svg" width="32" height="32" version="1.1" viewBox="0 0 32 32">
  <!-- Generator: Adobe Illustrator 29.8.2, SVG Export Plug-In . SVG Version: 2.1.1 Build 3)  -->
  <defs>
    <style>
      .st0 {
        fill: none;
      }

      .st1 {
        fill: #151515;
      }
    </style>
  </defs>
  <path class="st1" d="M23,3c-2.206,0-4,1.794-4,4,0,1.858,1.279,3.411,3,3.858v2.142c0,1.103-.897,2-2,2h-6c-1.13,0-2.162.391-3,1.026v-7.168c1.721-.447,3-2,3-3.858,0-2.206-1.794-4-4-4s-4,1.794-4,4c0,1.858,1.279,3.411,3,3.858v14.284c-1.721.447-3,2-3,3.858,0,2.206,1.794,4,4,4s4-1.794,4-4c0-1.858-1.279-3.411-3-3.858v-3.142c0-1.654,1.346-3,3-3h6c2.206,0,4-1.794,4-4v-2.142c1.721-.447,3-2,3-3.858,0-2.206-1.794-4-4-4ZM12,27c0,1.103-.897,2-2,2s-2-.897-2-2,.897-2,2-2,2,.897,2,2ZM10,7c-1.103,0-2-.897-2-2s.897-2,2-2,2,.897,2,2-.897,2-2,2ZM23,9c-1.103,0-2-.897-2-2s.897-2,2-2,2,.897,2,2-.897,2-2,2Z"/>
  <rect id="transparent_rectangle" class="st0" width="32" height="32"/>
</svg>