<?xml version="1.0" encoding="UTF-8"?>
<svg id="icon" xmlns="http://www.w3.org/2000/svg" width="32" height="32" version="1.1" viewBox="0 0 32 32">
  <!-- Generator: Adobe Illustrator 29.8.2, SVG Export Plug-In . SVG Version: 2.1.1 Build 3)  -->
  <defs>
    <style>
      .st0 {
        fill: none;
      }

      .st1 {
        fill: #151515;
      }
    </style>
  </defs>
  <path class="st1" d="M6,7h20c.552,0,1-.447,1-1s-.448-1-1-1h-5.101c-.465-2.279-2.484-4-4.899-4s-4.434,1.721-4.899,4h-5.101c-.552,0-1,.447-1,1s.448,1,1,1ZM16,3c1.302,0,2.402.839,2.816,2h-5.631c.414-1.161,1.514-2,2.816-2ZM26,10H6c-.552,0-1,.447-1,1s.448,1,1,1h1v16.5c0,.827.673,1.5,1.5,1.5h15c.827,0,1.5-.673,1.5-1.5V12h1c.552,0,1-.447,1-1s-.448-1-1-1ZM13.125,24c0,.621-.504,1.125-1.125,1.125s-1.125-.504-1.125-1.125v-8c0-.621.504-1.125,1.125-1.125s1.125.504,1.125,1.125v8ZM21.125,24c0,.621-.504,1.125-1.125,1.125s-1.125-.504-1.125-1.125v-8c0-.621.504-1.125,1.125-1.125s1.125.504,1.125,1.125v8Z"/>
  <rect class="st0" width="32" height="32"/>
</svg>