<?xml version="1.0" encoding="UTF-8"?>
<svg id="icon221" data-name="icon" xmlns="http://www.w3.org/2000/svg" width="32" height="32" version="1.1" viewBox="0 0 32 32">
  <!-- Generator: Adobe Illustrator 29.8.2, SVG Export Plug-In . SVG Version: 2.1.1 Build 3)  -->
  <defs>
    <style>
      .st0 {
        fill: none;
      }

      .st1 {
        fill: #151515;
      }
    </style>
  </defs>
  <path class="st1" d="M22,29.997c-2.204,0-4.275-.858-5.833-2.417L4.419,15.833c-3.216-3.216-3.216-8.45,0-11.667l2.52-2.52c.282-.283.659-.439,1.06-.439h0c.4,0,.777.156,1.061.439l5.293,5.293c.283.283.439.66.439,1.061s-.156.777-.439,1.061l-2.939,2.939,8.586,8.586,2.939-2.939c.585-.585,1.536-.585,2.121,0l5.293,5.293c.584.584.584,1.535,0,2.12l-2.521,2.521c-1.558,1.559-3.63,2.417-5.833,2.417ZM8,3.414l-2.167,2.166c-2.437,2.437-2.437,6.402,0,8.839l11.747,11.747c1.181,1.181,2.75,1.831,4.419,1.831s3.239-.65,4.419-1.831l2.167-2.166-4.586-4.586-2.939,2.939c-.585.585-1.536.585-2.121,0l-9.293-9.293c-.283-.283-.439-.66-.439-1.061s.156-.777.439-1.061l2.939-2.939-4.586-4.586ZM12.939,8.354h.01-.01Z"/>
  <rect id="transparent_rectangle" class="st0" width="32" height="32"/>
</svg>