<?xml version="1.0" encoding="UTF-8"?>
<svg id="icon254" data-name="icon" xmlns="http://www.w3.org/2000/svg" width="32" height="32" version="1.1" viewBox="0 0 32 32">
  <!-- Generator: Adobe Illustrator 29.8.2, SVG Export Plug-In . SVG Version: 2.1.1 Build 3)  -->
  <defs>
    <style>
      .st0 {
        fill: none;
      }

      .st1 {
        fill: #151515;
      }
    </style>
  </defs>
  <path class="st1" d="M31,16c0,8.271-6.729,15-15,15-4.901,0-9.504-2.403-12.311-6.428-.315-.453-.205-1.076.248-1.393.455-.315,1.077-.203,1.393.248,2.433,3.489,6.422,5.572,10.67,5.572,7.168,0,13-5.832,13-13S23.168,3,16,3c-4.85,0-9.306,2.763-11.524,7h6.524c.553,0,1,.447,1,1s-.447,1-1,1H2.5c-.827,0-1.5-.673-1.5-1.5V2c0-.553.447-1,1-1s1,.447,1,1v6.521C5.648,3.945,10.617,1,16,1c8.271,0,15,6.729,15,15Z"/>
  <rect id="transparent_rectangle" class="st0" width="32" height="32"/>
</svg>