<?xml version="1.0" encoding="UTF-8"?>
<svg id="icon6" data-name="icon" xmlns="http://www.w3.org/2000/svg" width="32" height="32" version="1.1" viewBox="0 0 32 32">
  <!-- Generator: Adobe Illustrator 29.8.2, SVG Export Plug-In . SVG Version: 2.1.1 Build 3)  -->
  <defs>
    <style>
      .st0 {
        fill: none;
      }

      .st1 {
        fill: #151515;
      }
    </style>
  </defs>
  <path class="st1" d="M11,10.75V3.25c0-.689.561-1.25,1.25-1.25h7.5c.689,0,1.25.561,1.25,1.25v7.5c0,.689-.561,1.25-1.25,1.25h-7.5c-.689,0-1.25-.561-1.25-1.25ZM5.25,25h7.5c.689,0,1.25-.561,1.25-1.25v-7.5c0-.689-.561-1.25-1.25-1.25h-7.5c-.689,0-1.25.561-1.25,1.25v7.5c0,.689.561,1.25,1.25,1.25ZM29,28H3c-.552,0-1,.448-1,1s.448,1,1,1h26c.552,0,1-.448,1-1s-.448-1-1-1ZM18,16.25v7.5c0,.689.561,1.25,1.25,1.25h7.5c.689,0,1.25-.561,1.25-1.25v-7.5c0-.689-.561-1.25-1.25-1.25h-7.5c-.689,0-1.25.561-1.25,1.25Z"/>
  <rect class="st0" width="32" height="32"/>
</svg>