<?xml version="1.0" encoding="UTF-8"?>
<svg id="icon234" data-name="icon" xmlns="http://www.w3.org/2000/svg" width="32" height="32" version="1.1" viewBox="0 0 32 32">
  <!-- Generator: Adobe Illustrator 29.8.2, SVG Export Plug-In . SVG Version: 2.1.1 Build 3)  -->
  <title>rh-ui-icon-registry</title>
<metadata><?xpacket begin="﻿" id="W5M0MpCehiHzreSzNTczkc9d"?>
<x:xmpmeta xmlns:x="adobe:ns:meta/" x:xmptk="Adobe XMP Core 8.0-c001 1.000000, 0000/00/00-00:00:00        ">
   <rdf:RDF xmlns:rdf="http://www.w3.org/1999/02/22-rdf-syntax-ns#">
      <rdf:Description rdf:about=""
            xmlns:xmp="http://ns.adobe.com/xap/1.0/"
            xmlns:dc="http://purl.org/dc/elements/1.1/"
            xmlns:tiff="http://ns.adobe.com/tiff/1.0/">
         <xmp:brand-content-subtype>UI</xmp:brand-content-subtype>
         <xmp:rhcc-rights-restricted>no</xmp:rhcc-rights-restricted>
         <xmp:rhcc-file-last-modified>2025-10-14T20:46:30.775Z</xmp:rhcc-file-last-modified>
         <xmp:brand-content-type>Icon</xmp:brand-content-type>
         <xmp:brand-colorway>
            <rdf:Bag>
               <rdf:li>colorway:black</rdf:li>
            </rdf:Bag>
         </xmp:brand-colorway>
         <dc:modified>2025-10-14T20:49:45.935Z</dc:modified>
         <dc:format>image/svg+xml</dc:format>
         <dc:title>
            <rdf:Alt>
               <rdf:li xml:lang="x-default">rh-ui-icon-registry</rdf:li>
            </rdf:Alt>
         </dc:title>
         <tiff:ImageLength>32</tiff:ImageLength>
         <tiff:ImageWidth>32</tiff:ImageWidth>
      </rdf:Description>
   </rdf:RDF>
</x:xmpmeta>
                                                                                                    
                                                                                                    
                                                                                                    
                                                                                                    
                                                                                                    
                                                                                                    
                                                                                                    
                                                                                                    
                                                                                                    
                                                                                                    
                                                                                                    
                                                                                                    
                                                                                                    
                                                                                                    
                                                                                                    
                                                            
<?xpacket end="w"?></metadata>
<defs>
    <style>
      .st0 {
        fill: none;
      }

      .st1 {
        fill: #151515;
      }
    </style>
  </defs>
  <path class="st1" d="M27,23.217v-5.774c0-.357-.19-.688-.5-.866l-4.5-2.598v-5.195c0-.357-.19-.688-.5-.866l-5-2.887c-.309-.178-.691-.178-1,0l-5,2.887c-.31.179-.5.509-.5.866v5.195l-4.5,2.598c-.31.179-.5.509-.5.866v5.774c0,.357.19.688.5.866l5,2.887c.154.089.327.134.5.134s.346-.045.5-.134l4.5-2.598,4.5,2.598c.154.089.327.134.5.134s.346-.045.5-.134l5-2.887c.31-.179.5-.509.5-.866ZM15,22.64l-4,2.31-4-2.31v-4.62l3.998-2.308,4.002,2.311v4.618ZM12,13.978v-4.618l4-2.31,4,2.31v4.618l-4,2.309-4-2.309ZM25,22.64l-4,2.31-4-2.31v-4.618l4.002-2.311,3.998,2.308v4.62ZM31,4.5v23c0,.827-.673,1.5-1.5,1.5h-2.5c-.553,0-1-.447-1-1s.447-1,1-1h2V5h-2c-.553,0-1-.447-1-1s.447-1,1-1h2.5c.827,0,1.5.673,1.5,1.5ZM6,28c0,.553-.447,1-1,1h-2.5c-.827,0-1.5-.673-1.5-1.5V4.5c0-.827.673-1.5,1.5-1.5h2.5c.553,0,1,.447,1,1s-.447,1-1,1h-2v22h2c.553,0,1,.447,1,1Z"/>
  <rect id="transparent_rectangle" class="st0" width="32" height="32"/>
</svg>