<?xml version="1.0" encoding="UTF-8"?>
<svg id="icon134" data-name="icon" xmlns="http://www.w3.org/2000/svg" width="32" height="32" version="1.1" viewBox="0 0 32 32">
  <!-- Generator: Adobe Illustrator 29.8.2, SVG Export Plug-In . SVG Version: 2.1.1 Build 3)  -->
  <title>rh-ui-icon-process-automation-fill</title>
<metadata><?xpacket begin="﻿" id="W5M0MpCehiHzreSzNTczkc9d"?>
<x:xmpmeta xmlns:x="adobe:ns:meta/" x:xmptk="Adobe XMP Core 8.0-c001 1.000000, 0000/00/00-00:00:00        ">
   <rdf:RDF xmlns:rdf="http://www.w3.org/1999/02/22-rdf-syntax-ns#">
      <rdf:Description rdf:about=""
            xmlns:xmp="http://ns.adobe.com/xap/1.0/"
            xmlns:dc="http://purl.org/dc/elements/1.1/"
            xmlns:tiff="http://ns.adobe.com/tiff/1.0/">
         <xmp:brand-content-subtype>UI</xmp:brand-content-subtype>
         <xmp:rhcc-rights-restricted>no</xmp:rhcc-rights-restricted>
         <xmp:rhcc-file-last-modified>2025-10-14T20:44:39.313Z</xmp:rhcc-file-last-modified>
         <xmp:brand-content-type>Icon</xmp:brand-content-type>
         <xmp:brand-colorway>
            <rdf:Bag>
               <rdf:li>colorway:black</rdf:li>
            </rdf:Bag>
         </xmp:brand-colorway>
         <dc:modified>2025-10-14T20:49:46.061Z</dc:modified>
         <dc:format>image/svg+xml</dc:format>
         <dc:title>
            <rdf:Alt>
               <rdf:li xml:lang="x-default">rh-ui-icon-process-automation-fill</rdf:li>
            </rdf:Alt>
         </dc:title>
         <tiff:ImageLength>32</tiff:ImageLength>
         <tiff:ImageWidth>32</tiff:ImageWidth>
      </rdf:Description>
   </rdf:RDF>
</x:xmpmeta>
                                                                                                    
                                                                                                    
                                                                                                    
                                                                                                    
                                                                                                    
                                                                                                    
                                                                                                    
                                                                                                    
                                                                                                    
                                                                                                    
                                                                                                    
                                                                                                    
                                                                                                    
                                                                                                    
                                                                                                    
                                             
<?xpacket end="w"?></metadata>
<defs>
    <style>
      .st0 {
        fill: none;
      }

      .st1 {
        fill: #151515;
      }
    </style>
  </defs>
  <path class="st1" d="M12.005,7.023c.18.521-.098,1.091-.62,1.271-.108.037-.218.055-.326.055-.415,0-.803-.26-.945-.675l-1.068-3.099c-1.99,3.469-3.047,7.39-3.047,11.425,0,4.438,1.267,8.746,3.663,12.458.299.464.166,1.083-.298,1.382-.168.108-.356.16-.542.16-.328,0-.65-.161-.841-.458-2.605-4.035-3.982-8.718-3.982-13.542,0-4.32,1.112-8.522,3.213-12.252l-3.018,1.039c-.523.179-1.091-.097-1.271-.62-.18-.521.098-1.091.62-1.271l5.349-1.842c.522-.18,1.091.097,1.271.62l1.842,5.349ZM29,10.75h.5V2c0-.133-.053-.26-.146-.354s-.221-.146-.354-.146c-1.044,0-2.089.111-3.106.332-.23.05-.394.253-.394.488v2.732c-.615.196-1.207.44-1.769.729l-1.93-1.931c-.167-.166-.427-.194-.625-.066-.875.563-1.692,1.224-2.43,1.962s-1.401,1.559-1.962,2.431c-.127.198-.1.458.067.624l1.93,1.93c-.289.562-.533,1.154-.729,1.769h-2.733c-.235,0-.439.164-.489.395-.22,1.015-.331,2.06-.331,3.105s.111,2.091.331,3.105c.05.23.253.395.489.395h2.733c.196.614.439,1.207.729,1.769l-1.93,1.93c-.167.166-.194.426-.067.624.561.872,1.221,1.689,1.962,2.431.737.737,1.554,1.397,2.43,1.962.198.128.458.101.625-.066l1.93-1.931c.562.289,1.154.533,1.769.729v2.732c0,.235.164.438.394.488,1.017.221,2.062.332,3.106.332.133,0,.26-.053.354-.146s.146-.221.146-.354v-8.75h-.5c-2.895,0-5.25-2.355-5.25-5.25s2.355-5.25,5.25-5.25Z"/>
  <rect class="st0" width="32" height="32"/>
</svg>