<?xml version="1.0" encoding="UTF-8"?>
<svg id="icon273" data-name="icon" xmlns="http://www.w3.org/2000/svg" width="32" height="32" version="1.1" viewBox="0 0 32 32">
  <!-- Generator: Adobe Illustrator 29.8.2, SVG Export Plug-In . SVG Version: 2.1.1 Build 3)  -->
  <title>rh-ui-icon-brightness-down</title>
<metadata><?xpacket begin="﻿" id="W5M0MpCehiHzreSzNTczkc9d"?>
<x:xmpmeta xmlns:x="adobe:ns:meta/" x:xmptk="Adobe XMP Core 8.0-c001 1.000000, 0000/00/00-00:00:00        ">
   <rdf:RDF xmlns:rdf="http://www.w3.org/1999/02/22-rdf-syntax-ns#">
      <rdf:Description rdf:about=""
            xmlns:dc="http://purl.org/dc/elements/1.1/"
            xmlns:xmp="http://ns.adobe.com/xap/1.0/"
            xmlns:tiff="http://ns.adobe.com/tiff/1.0/">
         <dc:format>image/svg+xml</dc:format>
         <dc:modified>2025-10-14T20:49:46.190Z</dc:modified>
         <dc:title>
            <rdf:Alt>
               <rdf:li xml:lang="x-default">rh-ui-icon-brightness-down</rdf:li>
            </rdf:Alt>
         </dc:title>
         <xmp:brand-content-type>Icon</xmp:brand-content-type>
         <xmp:rhcc-file-last-modified>2025-10-14T20:46:06.807Z</xmp:rhcc-file-last-modified>
         <xmp:brand-content-subtype>UI</xmp:brand-content-subtype>
         <xmp:rhcc-rights-restricted>no</xmp:rhcc-rights-restricted>
         <xmp:brand-colorway>
            <rdf:Bag>
               <rdf:li>colorway:black</rdf:li>
            </rdf:Bag>
         </xmp:brand-colorway>
         <tiff:ImageWidth>32</tiff:ImageWidth>
         <tiff:ImageLength>32</tiff:ImageLength>
      </rdf:Description>
   </rdf:RDF>
</x:xmpmeta>
                                                                                                    
                                                                                                    
                                                                                                    
                                                                                                    
                                                                                                    
                                                                                                    
                                                                                                    
                                                                                                    
                                                                                                    
                                                                                                    
                                                                                                    
                                                                                                    
                                                                                                    
                                                                                                    
                                                                                                    
                                                     
<?xpacket end="w"?></metadata>
<defs>
    <style>
      .st0 {
        fill: none;
      }

      .st1 {
        fill: #151515;
      }
    </style>
  </defs>
  <path class="st1" d="M16,8c-4.411,0-8,3.589-8,8s3.589,8,8,8,8-3.589,8-8-3.589-8-8-8ZM16,22c-3.309,0-6-2.691-6-6s2.691-6,6-6,6,2.691,6,6-2.691,6-6,6ZM5.625,7.002c0-.759.616-1.375,1.375-1.375s1.375.616,1.375,1.375-.616,1.375-1.375,1.375-1.375-.616-1.375-1.375ZM5.37,16.002c0,.759-.616,1.375-1.375,1.375s-1.375-.616-1.375-1.375.616-1.375,1.375-1.375,1.375.616,1.375,1.375ZM8.375,25.002c0,.759-.616,1.375-1.375,1.375s-1.375-.616-1.375-1.375.616-1.375,1.375-1.375,1.375.616,1.375,1.375ZM17.375,28.002c0,.759-.616,1.375-1.375,1.375s-1.375-.616-1.375-1.375.616-1.375,1.375-1.375,1.375.616,1.375,1.375ZM26.375,25.002c0,.759-.616,1.375-1.375,1.375s-1.375-.616-1.375-1.375.616-1.375,1.375-1.375,1.375.616,1.375,1.375ZM29.375,16.002c0,.759-.616,1.375-1.375,1.375s-1.375-.616-1.375-1.375.616-1.375,1.375-1.375,1.375.616,1.375,1.375ZM26.375,7.004c0,.759-.616,1.375-1.375,1.375s-1.375-.616-1.375-1.375.616-1.375,1.375-1.375,1.375.616,1.375,1.375ZM14.625,4.012c0-.759.616-1.375,1.375-1.375s1.375.616,1.375,1.375-.616,1.375-1.375,1.375-1.375-.616-1.375-1.375Z"/>
  <rect id="transparent_rectangle" class="st0" width="32" height="32"/>
</svg>