<?xml version="1.0" encoding="UTF-8"?>
<svg id="icon65" data-name="icon" xmlns="http://www.w3.org/2000/svg" width="32" height="32" version="1.1" viewBox="0 0 32 32">
  <!-- Generator: Adobe Illustrator 29.8.2, SVG Export Plug-In . SVG Version: 2.1.1 Build 3)  -->
  <defs>
    <style>
      .st0 {
        fill: none;
      }

      .st1 {
        fill: #151515;
      }
    </style>
  </defs>
  <path class="st1" d="M29.793,11c0,.4-.156.777-.439,1.061l-7.646,7.646c-.195.195-.451.293-.707.293s-.512-.098-.707-.293c-.391-.391-.391-1.023,0-1.414l6.293-6.293h-13.586c-4.962,0-9,4.038-9,9v8c0,.552-.448,1-1,1s-1-.448-1-1v-8c0-6.065,4.935-11,11-11h13.586l-6.293-6.293c-.391-.391-.391-1.023,0-1.414s1.023-.391,1.414,0l7.646,7.646c.283.283.439.66.439,1.061Z"/>
  <rect id="transparent_rectangle" class="st0" width="32" height="32"/>
</svg>