<?xml version="1.0" encoding="UTF-8"?>
<svg id="icon62" data-name="icon" xmlns="http://www.w3.org/2000/svg" width="32" height="32" version="1.1" viewBox="0 0 32 32">
  <!-- Generator: Adobe Illustrator 29.8.2, SVG Export Plug-In . SVG Version: 2.1.1 Build 3)  -->
  <defs>
    <style>
      .st0 {
        fill: none;
      }

      .st1 {
        fill: #151515;
      }
    </style>
  </defs>
  <path class="st1" d="M28.5,2H3.5c-.827,0-1.5.673-1.5,1.5v3.5c0,.265.105.52.293.707l9.707,9.707v12.586c0,.321.154.623.415.811.173.125.378.189.585.189.106,0,.213-.017.316-.051l6-2c.408-.136.684-.518.684-.949v-10.586l9.707-9.707c.188-.188.293-.442.293-.707v-3.5c0-.827-.673-1.5-1.5-1.5ZM28,6.586l-9.707,9.707c-.188.188-.293.442-.293.707v10.279l-4,1.333v-11.613c0-.265-.105-.52-.293-.707L4,6.586v-2.586h24v2.586Z"/>
  <rect id="transparent_rectangle" class="st0" width="32" height="32"/>
</svg>