<?xml version="1.0" encoding="UTF-8"?>
<svg id="icon98" data-name="icon" xmlns="http://www.w3.org/2000/svg" width="32" height="32" version="1.1" viewBox="0 0 32 32">
  <!-- Generator: Adobe Illustrator 29.8.2, SVG Export Plug-In . SVG Version: 2.1.1 Build 3)  -->
  <defs>
    <style>
      .st0 {
        fill: none;
      }

      .st1 {
        fill: #151515;
      }
    </style>
  </defs>
  <path class="st1" d="M30.168,12.894c-.05-.23-.253-.394-.488-.394h-2.732c-.196-.615-.44-1.207-.729-1.769l1.931-1.93c.167-.167.194-.427.066-.625-.564-.876-1.225-1.693-1.962-2.43-.741-.741-1.559-1.401-2.431-1.962-.197-.128-.457-.1-.624.067l-1.93,1.93c-.562-.289-1.154-.533-1.769-.729v-2.733c0-.235-.164-.439-.395-.489-2.029-.439-4.182-.439-6.211,0-.23.05-.395.253-.395.489v2.733c-.614.196-1.207.439-1.769.729l-1.93-1.93c-.167-.167-.427-.195-.624-.067-.872.561-1.689,1.221-2.431,1.962-.737.737-1.397,1.554-1.962,2.43-.128.198-.101.458.066.625l1.931,1.93c-.289.562-.533,1.154-.729,1.769h-2.732c-.235,0-.438.164-.488.394-.221,1.017-.332,2.062-.332,3.106s.111,2.089.332,3.106c.05.23.253.394.488.394h2.732c.196.615.44,1.207.729,1.769l-1.931,1.93c-.167.167-.194.427-.066.625.563.875,1.224,1.692,1.962,2.43s1.559,1.401,2.431,1.962c.197.127.457.101.624-.067l1.93-1.93c.562.289,1.154.533,1.769.729v2.733c0,.235.164.439.395.489,1.015.22,2.06.331,3.105.331s2.091-.111,3.105-.331c.23-.05.395-.253.395-.489v-2.733c.614-.196,1.207-.439,1.769-.729l1.93,1.93c.167.167.427.194.624.067.872-.561,1.689-1.221,2.431-1.962s1.398-1.556,1.962-2.43c.128-.198.101-.458-.066-.625l-1.931-1.93c.289-.562.533-1.154.729-1.769h2.732c.235,0,.438-.164.488-.394.221-1.017.332-2.062.332-3.106s-.111-2.089-.332-3.106ZM16,21.25c-2.895,0-5.25-2.355-5.25-5.25s2.355-5.25,5.25-5.25,5.25,2.355,5.25,5.25-2.355,5.25-5.25,5.25Z"/>
  <rect class="st0" width="32" height="32"/>
</svg>