<?xml version="1.0" encoding="UTF-8"?>
<svg id="icon258" data-name="icon" xmlns="http://www.w3.org/2000/svg" width="32" height="32" version="1.1" viewBox="0 0 32 32">
  <!-- Generator: Adobe Illustrator 29.8.2, SVG Export Plug-In . SVG Version: 2.1.1 Build 3)  -->
  <defs>
    <style>
      .st0 {
        fill: none;
      }

      .st1 {
        fill: #151515;
      }
    </style>
  </defs>
  <path class="st1" d="M29.929,6.514c-.144-.287-.417-.487-.734-.538-.317-.049-.639.053-.866.28l-5.036,5.036c-.713.713-1.873.713-2.586,0s-.713-1.873,0-2.586l5.036-5.036c.227-.227.331-.549.28-.866s-.251-.59-.538-.734c-1.412-.71-2.921-1.071-4.486-1.071-5.514,0-10,4.486-10,10,0,1.053.166,2.09.494,3.092L2.327,23.259c-1.768,1.768-1.768,4.646,0,6.414.884.884,2.046,1.326,3.207,1.326s2.323-.442,3.207-1.326l9.167-9.167c1.002.328,2.04.494,3.092.494,5.514,0,10-4.486,10-10,0-1.565-.36-3.074-1.071-4.486ZM21,19c-1.019,0-2.02-.195-2.977-.579-.37-.148-.796-.062-1.08.221l-9.617,9.617c-.988.988-2.597.989-3.586,0-.988-.989-.988-2.598,0-3.586l9.617-9.617c.283-.283.37-.708.221-1.08-.384-.957-.579-1.958-.579-2.977,0-4.411,3.589-8,8-8,.771,0,1.527.11,2.258.328l-3.965,3.965c-.723.723-1.122,1.685-1.122,2.707s.398,1.984,1.122,2.707c1.492,1.493,3.922,1.493,5.414,0l3.965-3.965c.218.731.328,1.486.328,2.258,0,4.411-3.589,8-8,8ZM8.25,24.999c0,.69-.56,1.25-1.25,1.25s-1.25-.56-1.25-1.25.56-1.25,1.25-1.25,1.25.56,1.25,1.25Z"/>
  <rect id="transparent_rectangle" class="st0" width="32" height="32"/>
</svg>