<?xml version="1.0" encoding="UTF-8"?>
<svg id="icon226" data-name="icon" xmlns="http://www.w3.org/2000/svg" width="32" height="32" version="1.1" viewBox="0 0 32 32">
  <!-- Generator: Adobe Illustrator 29.8.2, SVG Export Plug-In . SVG Version: 2.1.1 Build 3)  -->
  <title>rh-ui-icon-cloud-tenant</title>
<metadata><?xpacket begin="﻿" id="W5M0MpCehiHzreSzNTczkc9d"?>
<x:xmpmeta xmlns:x="adobe:ns:meta/" x:xmptk="Adobe XMP Core 8.0-c001 1.000000, 0000/00/00-00:00:00        ">
   <rdf:RDF xmlns:rdf="http://www.w3.org/1999/02/22-rdf-syntax-ns#">
      <rdf:Description rdf:about=""
            xmlns:dc="http://purl.org/dc/elements/1.1/"
            xmlns:xmp="http://ns.adobe.com/xap/1.0/"
            xmlns:tiff="http://ns.adobe.com/tiff/1.0/">
         <dc:format>image/svg+xml</dc:format>
         <dc:modified>2025-10-14T20:49:20.639Z</dc:modified>
         <dc:title>
            <rdf:Alt>
               <rdf:li xml:lang="x-default">rh-ui-icon-cloud-tenant</rdf:li>
            </rdf:Alt>
         </dc:title>
         <xmp:brand-content-type>Icon</xmp:brand-content-type>
         <xmp:rhcc-file-last-modified>2025-10-14T20:46:06.576Z</xmp:rhcc-file-last-modified>
         <xmp:brand-content-subtype>UI</xmp:brand-content-subtype>
         <xmp:rhcc-rights-restricted>no</xmp:rhcc-rights-restricted>
         <xmp:brand-colorway>
            <rdf:Bag>
               <rdf:li>colorway:black</rdf:li>
            </rdf:Bag>
         </xmp:brand-colorway>
         <tiff:ImageWidth>32</tiff:ImageWidth>
         <tiff:ImageLength>32</tiff:ImageLength>
      </rdf:Description>
   </rdf:RDF>
</x:xmpmeta>
                                                                                                    
                                                                                                    
                                                                                                    
                                                                                                    
                                                                                                    
                                                                                                    
                                                                                                    
                                                                                                    
                                                                                                    
                                                                                                    
                                                                                                    
                                                                                                    
                                                                                                    
                                                                                                    
                                                                                                    
                                                                                                    
                                                                                                    
                                                                                                    
                                                                                                    
                                                                                                    
                           
<?xpacket end="w"?></metadata>
<defs>
    <style>
      .st0 {
        fill: none;
      }

      .st1 {
        fill: #151515;
      }
    </style>
  </defs>
  <path class="st1" d="M31,16.5c0,1.255-.434,2.483-1.223,3.458-.347.43-.977.494-1.406.148-.429-.347-.496-.977-.148-1.406.508-.629.777-1.39.777-2.2,0-1.802-1.363-3.29-3.17-3.462-.27-.025-.518-.16-.688-.372-.169-.212-.245-.484-.209-.753.046-.349.067-.639.067-.913,0-3.859-3.14-7-7-7-3.319,0-6.204,2.357-6.86,5.605-.058.289-.241.537-.5.679-.259.143-.567.162-.841.056-.583-.226-1.188-.34-1.799-.34-2.757,0-5,2.243-5,5,0,1.78.958,3.439,2.5,4.332.478.276.642.888.365,1.366-.186.32-.521.499-.867.499-.17,0-.342-.043-.5-.135-2.159-1.248-3.5-3.571-3.5-6.062,0-3.859,3.14-7,7-7,.492,0,.98.053,1.46.156,1.207-3.624,4.641-6.156,8.54-6.156,4.962,0,9,4.037,9,9,0,.075,0,.151-.003.229,2.339.651,4.003,2.769,4.003,5.271ZM22.671,16.365c1.438,1.447,2.329,3.439,2.329,5.635,0,4.411-3.589,8-8,8s-8-3.589-8-8,3.589-8,8-8c.273,0,.543.014.811.041.037.004.073.012.111.016.231.026.461.059.688.105.003,0,.007.002.01.003,1.519.311,2.916,1.056,4.037,2.178.006.006.008.015.014.022ZM23,22c0-1.294-.416-2.49-1.115-3.471l-4.178,4.178c-.191.191-.447.293-.707.293-.129,0-.259-.024-.383-.076-.374-.154-.617-.52-.617-.924v-5.91c-2.833.478-5,2.942-5,5.91,0,3.309,2.691,6,6,6s6-2.691,6-6Z"/>
  <rect id="transparent_rectangle" class="st0" width="32" height="32"/>
</svg>