<?xml version="1.0" encoding="UTF-8"?>
<svg id="icon116" data-name="icon" xmlns="http://www.w3.org/2000/svg" width="32" height="32" version="1.1" viewBox="0 0 32 32">
  <!-- Generator: Adobe Illustrator 29.8.2, SVG Export Plug-In . SVG Version: 2.1.1 Build 3)  -->
  <defs>
    <style>
      .st0 {
        fill: none;
      }

      .st1 {
        fill: #151515;
      }
    </style>
  </defs>
  <path class="st1" d="M3,2c-.553,0-1,.448-1,1v5c0,.552.447,1,1,1,11.028,0,20,8.972,20,20,0,.552.447,1,1,1h5c.553,0,1-.448,1-1C30,14.112,17.888,2,3,2ZM24.978,28c-.51-11.336-9.642-20.467-20.978-20.978v-3.003c12.991.514,23.467,10.989,23.98,23.98h-3.003ZM3,12c-.553,0-1,.448-1,1v5c0,.552.447,1,1,1,5.514,0,10,4.486,10,10,0,.552.447,1,1,1h5c.553,0,1-.448,1-1,0-9.374-7.626-17-17-17ZM14.959,28c-.482-5.821-5.139-10.476-10.959-10.958v-3.008c7.476.495,13.473,6.491,13.967,13.967h-3.008ZM5,23c-2.206,0-4,1.794-4,4s1.794,4,4,4,4-1.794,4-4-1.794-4-4-4ZM5,29c-1.103,0-2-.897-2-2s.897-2,2-2,2,.897,2,2-.897,2-2,2Z"/>
  <rect id="transparent_rectangle" class="st0" width="32" height="32"/>
</svg>