<?xml version="1.0" encoding="UTF-8"?>
<svg id="icon201" data-name="icon" xmlns="http://www.w3.org/2000/svg" width="32" height="32" version="1.1" viewBox="0 0 32 32">
  <!-- Generator: Adobe Illustrator 29.8.2, SVG Export Plug-In . SVG Version: 2.1.1 Build 3)  -->
  <title>rh-ui-icon-process-automation</title>
<metadata><?xpacket begin="﻿" id="W5M0MpCehiHzreSzNTczkc9d"?>
<x:xmpmeta xmlns:x="adobe:ns:meta/" x:xmptk="Adobe XMP Core 8.0-c001 1.000000, 0000/00/00-00:00:00        ">
   <rdf:RDF xmlns:rdf="http://www.w3.org/1999/02/22-rdf-syntax-ns#">
      <rdf:Description rdf:about=""
            xmlns:xmp="http://ns.adobe.com/xap/1.0/"
            xmlns:dc="http://purl.org/dc/elements/1.1/"
            xmlns:tiff="http://ns.adobe.com/tiff/1.0/">
         <xmp:brand-content-subtype>UI</xmp:brand-content-subtype>
         <xmp:rhcc-rights-restricted>no</xmp:rhcc-rights-restricted>
         <xmp:rhcc-file-last-modified>2025-10-14T20:46:31.091Z</xmp:rhcc-file-last-modified>
         <xmp:brand-content-type>Icon</xmp:brand-content-type>
         <xmp:brand-colorway>
            <rdf:Bag>
               <rdf:li>colorway:black</rdf:li>
            </rdf:Bag>
         </xmp:brand-colorway>
         <dc:modified>2025-10-14T20:49:20.532Z</dc:modified>
         <dc:format>image/svg+xml</dc:format>
         <dc:title>
            <rdf:Alt>
               <rdf:li xml:lang="x-default">rh-ui-icon-process-automation</rdf:li>
            </rdf:Alt>
         </dc:title>
         <tiff:ImageLength>32</tiff:ImageLength>
         <tiff:ImageWidth>32</tiff:ImageWidth>
      </rdf:Description>
   </rdf:RDF>
</x:xmpmeta>
                                                                                                    
                                                                                                    
                                                                                                    
                                                                                                    
                                                                                                    
                                                                                                    
                                                                                                    
                                                                                                    
                                                                                                    
                                                                                                    
                                                                                                    
                                                                                                    
                                                                                                    
                                                                                                    
                                                                                                    
                                                  
<?xpacket end="w"?></metadata>
<defs>
    <style>
      .st0 {
        fill: none;
      }

      .st1 {
        fill: #151515;
      }
    </style>
  </defs>
  <path class="st1" d="M26,16c0,1.654,1.346,3,3,3,.552,0,1,.447,1,1s-.448,1-1,1c-2.757,0-5-2.243-5-5s2.243-5,5-5c.552,0,1,.447,1,1s-.448,1-1,1c-1.654,0-3,1.346-3,3ZM29,29c-.669,0-1.339-.051-2-.152v-2.272c0-.447-.297-.84-.727-.962-.758-.215-1.479-.513-2.144-.885-.392-.217-.879-.15-1.195.166l-1.604,1.604c-.54-.396-1.049-.834-1.522-1.307s-.912-.984-1.307-1.521l1.604-1.604c.316-.316.384-.805.166-1.195-.372-.665-.669-1.386-.884-2.144-.122-.431-.515-.728-.962-.728h-2.273c-.101-.659-.152-1.329-.152-2s.051-1.341.152-2h2.273c.447,0,.84-.297.962-.728.215-.758.512-1.479.884-2.144.218-.391.15-.879-.166-1.195l-1.604-1.604c.395-.537.832-1.047,1.307-1.521s.983-.911,1.522-1.307l1.604,1.604c.316.315.804.384,1.195.166.665-.372,1.386-.67,2.144-.885.43-.122.727-.515.727-.962v-2.272c.661-.102,1.331-.152,2-.152.552,0,1-.447,1-1s-.448-1-1-1c-1.08,0-2.16.115-3.211.343-.46.1-.789.507-.789.978v2.373c-.4.141-.791.302-1.168.481l-1.676-1.677c-.333-.333-.853-.388-1.249-.134-.904.583-1.75,1.266-2.513,2.029-.766.766-1.449,1.612-2.029,2.514-.255.396-.199.915.134,1.248l1.676,1.677c-.18.378-.341.768-.481,1.168h-2.374c-.471,0-.878.328-.978.788-.227,1.05-.342,2.131-.342,3.212s.115,2.162.342,3.212c.1.46.507.788.978.788h2.374c.141.4.302.79.481,1.168l-1.676,1.677c-.333.333-.389.853-.134,1.248.58.901,1.263,1.748,2.028,2.514.762.763,1.607,1.445,2.513,2.029.396.253.917.2,1.249-.134l1.676-1.677c.378.18.769.341,1.168.481v2.373c0,.471.328.878.789.978,1.051.228,2.132.343,3.211.343.552,0,1-.447,1-1s-.448-1-1-1ZM10.164,1.675c-.18-.523-.749-.8-1.271-.62l-5.349,1.842c-.522.18-.8.749-.62,1.271.18.523.748.799,1.271.62l3.018-1.039c-2.101,3.73-3.213,7.932-3.213,12.252,0,4.824,1.377,9.507,3.982,13.542.191.297.513.458.841.458.186,0,.374-.052.542-.16.464-.299.597-.918.298-1.382-2.396-3.712-3.663-8.02-3.663-12.458,0-4.035,1.057-7.956,3.047-11.425l1.068,3.099c.143.415.53.675.945.675.108,0,.218-.018.326-.055.522-.18.8-.749.62-1.271l-1.842-5.349Z"/>
  <rect id="transparent_rectangle" class="st0" width="32" height="32"/>
</svg>