<?xml version="1.0" encoding="UTF-8"?>
<svg id="icon69" data-name="icon" xmlns="http://www.w3.org/2000/svg" width="32" height="32" version="1.1" viewBox="0 0 32 32">
  <!-- Generator: Adobe Illustrator 29.8.2, SVG Export Plug-In . SVG Version: 2.1.1 Build 3)  -->
  <defs>
    <style>
      .st0 {
        fill: none;
      }

      .st1 {
        fill: #151515;
      }
    </style>
  </defs>
  <path class="st1" d="M26,29h-1v-3.757c0-1.068-.416-2.072-1.172-2.829l-6.414-6.414,6.414-6.414c.756-.756,1.172-1.761,1.172-2.829v-3.757h1c.553,0,1-.448,1-1s-.447-1-1-1H6c-.553,0-1,.448-1,1s.447,1,1,1h1v3.757c0,1.068.416,2.072,1.172,2.829l6.414,6.414-6.414,6.414c-.756.756-1.172,1.761-1.172,2.829v3.757h-1c-.553,0-1,.448-1,1s.447,1,1,1h20c.553,0,1-.448,1-1s-.447-1-1-1ZM23,3v3.757c0,.082-.014.162-.024.243h-13.953c-.01-.081-.024-.16-.024-.243v-3.757h14ZM9,25.243c0-.534.208-1.036.586-1.415l6.414-6.414,6.414,6.414c.378.378.586.881.586,1.415v.757h-14v-.757Z"/>
  <rect id="transparent_rectangle" class="st0" width="32" height="32"/>
</svg>