<?xml version="1.0" encoding="UTF-8"?>
<svg id="icon119" data-name="icon" xmlns="http://www.w3.org/2000/svg" width="32" height="32" version="1.1" viewBox="0 0 32 32">
  <!-- Generator: Adobe Illustrator 29.8.2, SVG Export Plug-In . SVG Version: 2.1.1 Build 3)  -->
  <title>rh-ui-icon-new-process-fill</title>
<metadata><?xpacket begin="﻿" id="W5M0MpCehiHzreSzNTczkc9d"?>
<x:xmpmeta xmlns:x="adobe:ns:meta/" x:xmptk="Adobe XMP Core 8.0-c001 1.000000, 0000/00/00-00:00:00        ">
   <rdf:RDF xmlns:rdf="http://www.w3.org/1999/02/22-rdf-syntax-ns#">
      <rdf:Description rdf:about=""
            xmlns:xmp="http://ns.adobe.com/xap/1.0/"
            xmlns:dc="http://purl.org/dc/elements/1.1/"
            xmlns:tiff="http://ns.adobe.com/tiff/1.0/">
         <xmp:brand-content-subtype>UI</xmp:brand-content-subtype>
         <xmp:rhcc-rights-restricted>no</xmp:rhcc-rights-restricted>
         <xmp:rhcc-file-last-modified>2025-10-14T20:44:34.821Z</xmp:rhcc-file-last-modified>
         <xmp:brand-content-type>Icon</xmp:brand-content-type>
         <xmp:brand-colorway>
            <rdf:Bag>
               <rdf:li>colorway:black</rdf:li>
            </rdf:Bag>
         </xmp:brand-colorway>
         <dc:modified>2025-10-14T20:50:53.570Z</dc:modified>
         <dc:format>image/svg+xml</dc:format>
         <dc:title>
            <rdf:Alt>
               <rdf:li xml:lang="x-default">rh-ui-icon-new-process-fill</rdf:li>
            </rdf:Alt>
         </dc:title>
         <tiff:ImageLength>32</tiff:ImageLength>
         <tiff:ImageWidth>32</tiff:ImageWidth>
      </rdf:Description>
   </rdf:RDF>
</x:xmpmeta>
                                                                                                    
                                                                                                    
                                                                                                    
                                                                                                    
                                                                                                    
                                                                                                    
                                                                                                    
                                                                                                    
                                                                                                    
                                                                                                    
                                                                                                    
                                                                                                    
                                                                                                    
                                                                                                    
                                                                                                    
                                                                                                    
                                                                                                    
            
<?xpacket end="w"?></metadata>
<defs>
    <style>
      .st0 {
        fill: none;
      }

      .st1 {
        fill: #151515;
      }
    </style>
  </defs>
  <path class="st1" d="M13.125,10.125h5.75v1.047c0,.23-.093.456-.256.618l-2.619,2.619-2.619-2.619c-.163-.162-.256-.388-.256-.618v-1.047ZM13.381,20.21c-.163.162-.256.388-.256.618v1.047h5.75v-1.047c0-.23-.093-.456-.256-.618l-2.619-2.619-2.619,2.619ZM31,16c0,8.271-6.729,15-15,15S1,24.271,1,16,7.729,1,16,1s15,6.729,15,15ZM17.591,16l2.618-2.618c.59-.591.916-1.375.916-2.21v-1.072c.559-.065,1-.523,1-1.1,0-.621-.504-1.125-1.125-1.125h-10c-.621,0-1.125.504-1.125,1.125,0,.577.441,1.035,1,1.1v1.072c0,.835.325,1.619.916,2.21l2.618,2.618-2.618,2.618c-.59.591-.916,1.375-.916,2.21v1.072c-.559.065-1,.523-1,1.1,0,.621.504,1.125,1.125,1.125h10c.621,0,1.125-.504,1.125-1.125,0-.577-.441-1.035-1-1.1v-1.072c0-.835-.325-1.619-.916-2.21l-2.618-2.618Z"/>
  <rect class="st0" width="32" height="32"/>
</svg>