<?xml version="1.0" encoding="UTF-8"?>
<svg id="icon239" data-name="icon" xmlns="http://www.w3.org/2000/svg" width="32" height="32" version="1.1" viewBox="0 0 32 32">
  <!-- Generator: Adobe Illustrator 29.8.2, SVG Export Plug-In . SVG Version: 2.1.1 Build 3)  -->
  <defs>
    <style>
      .st0 {
        fill: none;
      }

      .st1 {
        fill: #151515;
      }
    </style>
  </defs>
  <path class="st1" d="M31,16c0-8.271-6.729-15-15-15S1,7.729,1,16s6.729,15,15,15c6.527,0,12.263-4.168,14.271-10.371,0,0,0-.001,0-.002.483-1.496.728-3.052.728-4.627ZM16,29c-7.168,0-13-5.832-13-13,0-6.832,5.297-12.449,12-12.962v12.962c0,.434.279.817.691.951l12.333,4c-1.99,4.854-6.704,8.049-12.024,8.049Z"/>
  <rect id="transparent_rectangle" class="st0" width="32" height="32"/>
</svg>