<?xml version="1.0" encoding="UTF-8"?>
<svg id="icon66" data-name="icon" xmlns="http://www.w3.org/2000/svg" width="32" height="32" version="1.1" viewBox="0 0 32 32">
  <!-- Generator: Adobe Illustrator 29.8.2, SVG Export Plug-In . SVG Version: 2.1.1 Build 3)  -->
  <defs>
    <style>
      .st0 {
        fill: none;
      }

      .st1 {
        fill: #151515;
      }
    </style>
  </defs>
  <path class="st1" d="M19.061,8.646c-.584-.585-1.537-.585-2.121,0l-10.646,10.646c-.105.105-.177.228-.225.358l-3.981,8.942c-.004.008-.002.017-.006.025-.029.07-.036.145-.049.22-.009.055-.029.107-.028.162,0,.054.019.107.028.162.013.075.02.15.049.22.003.008.002.017.006.025.044.1.105.188.175.265.013.015.031.025.045.039.073.072.156.129.246.175.015.008.025.022.041.029.014.006.029.004.044.009.114.045.233.076.357.077.001,0,.003,0,.004,0,0,0,0,0,0,0s0,0,0,0c.001,0,.003,0,.004,0,.124,0,.243-.032.357-.077.014-.006.03-.003.044-.009l8.943-3.982c.13-.049.253-.12.357-.225l10.646-10.646c.283-.283.439-.66.439-1.061s-.156-.777-.439-1.061l-4.293-4.293ZM7.326,21.74l2.933,2.933-5.287,2.354,2.354-5.287ZM29.793,8c0,.4-.156.777-.439,1.061l-2.293,2.293c-.292.292-.677.438-1.061.438s-.769-.146-1.061-.438l-4.293-4.293c-.283-.283-.439-.66-.439-1.061s.156-.777.439-1.061l2.293-2.293c.584-.585,1.537-.585,2.121,0l4.293,4.293c.283.283.439.66.439,1.061Z"/>
  <rect class="st0" width="32" height="32"/>
</svg>