<?xml version="1.0" encoding="UTF-8"?>
<svg id="file-code" xmlns="http://www.w3.org/2000/svg" width="32" height="32" version="1.1" viewBox="0 0 32 32">
  <!-- Generator: Adobe Illustrator 30.1.0, SVG Export Plug-In . SVG Version: 2.1.1 Build 136)  -->
  <title>rh-ui-icon-file-code</title>
<desc>programming, script, developer, source, syntax, coding, software, html, css, text, digital, web, markup, data, editor, project, technical, archive, backend, json</desc>
<metadata><?xpacket begin="﻿" id="W5M0MpCehiHzreSzNTczkc9d"?>
<x:xmpmeta xmlns:x="adobe:ns:meta/" x:xmptk="Adobe XMP Core 8.0-c001 1.000000, 0000/00/00-00:00:00        ">
   <rdf:RDF xmlns:rdf="http://www.w3.org/1999/02/22-rdf-syntax-ns#">
      <rdf:Description rdf:about=""
            xmlns:tiff="http://ns.adobe.com/tiff/1.0/"
            xmlns:dc="http://purl.org/dc/elements/1.1/"
            xmlns:xmp="http://ns.adobe.com/xap/1.0/">
         <tiff:ImageLength>32</tiff:ImageLength>
         <tiff:ImageWidth>32</tiff:ImageWidth>
         <dc:format>image/svg+xml</dc:format>
         <dc:modified>2026-01-20T14:41:11.344Z</dc:modified>
         <dc:title>
            <rdf:Alt>
               <rdf:li xml:lang="x-default">rh-ui-icon-file-code</rdf:li>
            </rdf:Alt>
         </dc:title>
         <dc:description>
            <rdf:Alt>
               <rdf:li xml:lang="x-default">programming, script, developer, source, syntax, coding, software, html, css, text, digital, web, markup, data, editor, project, technical, archive, backend, json</rdf:li>
            </rdf:Alt>
         </dc:description>
         <xmp:brand-content-type>Icon</xmp:brand-content-type>
         <xmp:brand-content-subtype>UI</xmp:brand-content-subtype>
         <xmp:rhcc-rights-restricted>no</xmp:rhcc-rights-restricted>
         <xmp:rhcc-file-last-modified>2026-01-20T14:37:32.390Z</xmp:rhcc-file-last-modified>
         <xmp:brand-colorway>
            <rdf:Bag>
               <rdf:li>colorway:black</rdf:li>
            </rdf:Bag>
         </xmp:brand-colorway>
      </rdf:Description>
   </rdf:RDF>
</x:xmpmeta>
                                                                                                    
                                                                                                    
                                                                                                    
                                                                                                    
                                                                                                    
                                                                                                    
                                                                                                    
                                                                                                    
                                                                                                    
                                                                                                    
                                                                                                    
                                                                                                    
                                                                                                    
                                                                                                    
         
<?xpacket end="w"?></metadata>
<defs>
    <style>
      .st0 {
        fill: none;
      }

      .st1 {
        fill: #151515;
      }
    </style>
  </defs>
  <path id="icon" class="st1" d="M26.5,1h-14.5c-.13367,0-.26416.02716-.38495.07758-.12189.05084-.23163.12463-.32336.21667l-6.99744,6.99744c-.09204.09174-.16577.20148-.21661.3233-.05048.12079-.07764.25128-.07764.38501v20.5c0,.82715.67285,1.5,1.5,1.5h21c.82715,0,1.5-.67285,1.5-1.5V2.5c0-.82715-.67285-1.5-1.5-1.5ZM11,4.41406v3.58594h-3.58594l3.58594-3.58594ZM26,29H6V10h5.5c.82715,0,1.5-.67285,1.5-1.5V3h13v26ZM13.29297,16.29297c.39062-.39062,1.02344-.39062,1.41406,0s.39062,1.02344,0,1.41406l-3.29297,3.29297,3.29297,3.29297c.39062.39062.39062,1.02344,0,1.41406-.19531.19531-.45117.29297-.70703.29297s-.51172-.09766-.70703-.29297l-3.64648-3.64648c-.2832-.2832-.43945-.66016-.43945-1.06055s.15625-.77734.43945-1.06055l3.64648-3.64648ZM17.29297,24.29297l3.29297-3.29297-3.29297-3.29297c-.39062-.39062-.39062-1.02344,0-1.41406s1.02344-.39062,1.41406,0l3.64648,3.64648c.2832.2832.43945.66016.43945,1.06055s-.15625.77734-.43945,1.06055l-3.64648,3.64648c-.19531.19531-.45117.29297-.70703.29297s-.51172-.09766-.70703-.29297c-.39062-.39062-.39062-1.02344,0-1.41406Z"/>
  <rect id="Transparent_rectangle" class="st0" width="32" height="32"/>
</svg>