<?xml version="1.0" encoding="UTF-8"?>
<svg id="icon18" data-name="icon" xmlns="http://www.w3.org/2000/svg" width="32" height="32" version="1.1" viewBox="0 0 32 32">
  <!-- Generator: Adobe Illustrator 29.8.2, SVG Export Plug-In . SVG Version: 2.1.1 Build 3)  -->
  <title>rh-ui-icon-windows-fill</title>
<metadata><?xpacket begin="﻿" id="W5M0MpCehiHzreSzNTczkc9d"?>
<x:xmpmeta xmlns:x="adobe:ns:meta/" x:xmptk="Adobe XMP Core 8.0-c001 1.000000, 0000/00/00-00:00:00        ">
   <rdf:RDF xmlns:rdf="http://www.w3.org/1999/02/22-rdf-syntax-ns#">
      <rdf:Description rdf:about=""
            xmlns:tiff="http://ns.adobe.com/tiff/1.0/"
            xmlns:dc="http://purl.org/dc/elements/1.1/">
         <tiff:ImageLength>32</tiff:ImageLength>
         <tiff:ImageWidth>32</tiff:ImageWidth>
         <dc:format>image/svg+xml</dc:format>
         <dc:modified>2025-11-24T17:29:18.850Z</dc:modified>
         <dc:title>
            <rdf:Alt>
               <rdf:li xml:lang="x-default">rh-ui-icon-windows-fill</rdf:li>
            </rdf:Alt>
         </dc:title>
      </rdf:Description>
   </rdf:RDF>
</x:xmpmeta>
                                                                                                    
                                                                                                    
                                                                                                    
                                                                                                    
                                                                                                    
                                                                                                    
                                                                                                    
                                                                                                    
                                                                                                    
                                                                                                    
                                                                                                    
                                                                                                    
                                                                                                    
                                                                                                    
                                                                                                    
                                                                                                    
                                                                                                    
                                                                                                    
                                                                                                    
                                                                                                    
                           
<?xpacket end="w"?></metadata>
<defs>
    <style>
      .st0 {
        fill: none;
      }

      .st1 {
        fill: #151515;
      }
    </style>
  </defs>
  <path class="st1" d="M13.75,5.5v7c0,.689-.561,1.25-1.25,1.25H2.5c-.689,0-1.25-.561-1.25-1.25v-7c0-.689.561-1.25,1.25-1.25h10c.689,0,1.25.561,1.25,1.25ZM29.5,4.25h-10c-.689,0-1.25.561-1.25,1.25v7c0,.689.561,1.25,1.25,1.25h10c.689,0,1.25-.561,1.25-1.25v-7c0-.689-.561-1.25-1.25-1.25ZM12.5,18.25H2.5c-.689,0-1.25.561-1.25,1.25v7c0,.689.561,1.25,1.25,1.25h10c.689,0,1.25-.561,1.25-1.25v-7c0-.689-.561-1.25-1.25-1.25ZM29.5,18.25h-10c-.689,0-1.25.561-1.25,1.25v7c0,.689.561,1.25,1.25,1.25h10c.689,0,1.25-.561,1.25-1.25v-7c0-.689-.561-1.25-1.25-1.25Z"/>
  <rect class="st0" width="32" height="32"/>
</svg>