<?xml version="1.0" encoding="UTF-8"?>
<svg id="icon168" data-name="icon" xmlns="http://www.w3.org/2000/svg" width="32" height="32" version="1.1" viewBox="0 0 32 32">
  <!-- Generator: Adobe Illustrator 29.8.2, SVG Export Plug-In . SVG Version: 2.1.1 Build 3)  -->
  <title>rh-ui-icon-wrap-text</title>
<metadata><?xpacket begin="﻿" id="W5M0MpCehiHzreSzNTczkc9d"?>
<x:xmpmeta xmlns:x="adobe:ns:meta/" x:xmptk="Adobe XMP Core 8.0-c001 1.000000, 0000/00/00-00:00:00        ">
   <rdf:RDF xmlns:rdf="http://www.w3.org/1999/02/22-rdf-syntax-ns#">
      <rdf:Description rdf:about=""
            xmlns:tiff="http://ns.adobe.com/tiff/1.0/"
            xmlns:dc="http://purl.org/dc/elements/1.1/">
         <tiff:ImageLength>32</tiff:ImageLength>
         <tiff:ImageWidth>32</tiff:ImageWidth>
         <dc:format>image/svg+xml</dc:format>
         <dc:modified>2025-11-24T17:29:12.955Z</dc:modified>
         <dc:title>
            <rdf:Alt>
               <rdf:li xml:lang="x-default">rh-ui-icon-wrap-text</rdf:li>
            </rdf:Alt>
         </dc:title>
      </rdf:Description>
   </rdf:RDF>
</x:xmpmeta>
                                                                                                    
                                                                                                    
                                                                                                    
                                                                                                    
                                                                                                    
                                                                                                    
                                                                                                    
                                                                                                    
                                                                                                    
                                                                                                    
                                                                                                    
                                                                                                    
                                                                                                    
                                                                                                    
                                                                                                    
                                                                                                    
                                                                                                    
                                                                                                    
                                                                                                    
                                                                                                    
                           
<?xpacket end="w"?></metadata>
<defs>
    <style>
      .st0 {
        fill: none;
      }

      .st1 {
        fill: #151515;
      }
    </style>
  </defs>
  <path class="st1" d="M4,3v26c0,.553-.448,1-1,1s-1-.447-1-1V3c0-.553.448-1,1-1s1,.447,1,1ZM29,2c-.552,0-1,.447-1,1v26c0,.553.448,1,1,1s1-.447,1-1V3c0-.553-.448-1-1-1ZM18.5,8h-8.5c-.552,0-1,.447-1,1s.448,1,1,1h8.5c2.481,0,4.5,2.019,4.5,4.5s-2.019,4.5-4.5,4.5h-7.086l2.293-2.293c.391-.391.391-1.023,0-1.414s-1.023-.391-1.414,0l-3.646,3.646c-.283.283-.439.66-.439,1.061s.156.777.439,1.061l3.646,3.646c.195.195.451.293.707.293s.512-.098.707-.293c.391-.391.391-1.023,0-1.414l-2.293-2.293h7.086c3.584,0,6.5-2.916,6.5-6.5s-2.916-6.5-6.5-6.5Z"/>
  <rect id="transparent_rectangle" class="st0" width="32" height="32"/>
</svg>