<?xml version="1.0" encoding="UTF-8"?>
<svg id="icon147" data-name="icon" xmlns="http://www.w3.org/2000/svg" width="32" height="32" version="1.1" viewBox="0 0 32 32">
  <!-- Generator: Adobe Illustrator 29.8.2, SVG Export Plug-In . SVG Version: 2.1.1 Build 3)  -->
  <title>rh-ui-icon-windows</title>
<metadata><?xpacket begin="﻿" id="W5M0MpCehiHzreSzNTczkc9d"?>
<x:xmpmeta xmlns:x="adobe:ns:meta/" x:xmptk="Adobe XMP Core 8.0-c001 1.000000, 0000/00/00-00:00:00        ">
   <rdf:RDF xmlns:rdf="http://www.w3.org/1999/02/22-rdf-syntax-ns#">
      <rdf:Description rdf:about=""
            xmlns:tiff="http://ns.adobe.com/tiff/1.0/"
            xmlns:dc="http://purl.org/dc/elements/1.1/">
         <tiff:ImageLength>32</tiff:ImageLength>
         <tiff:ImageWidth>32</tiff:ImageWidth>
         <dc:format>image/svg+xml</dc:format>
         <dc:modified>2025-11-24T17:29:15.015Z</dc:modified>
         <dc:title>
            <rdf:Alt>
               <rdf:li xml:lang="x-default">rh-ui-icon-windows</rdf:li>
            </rdf:Alt>
         </dc:title>
      </rdf:Description>
   </rdf:RDF>
</x:xmpmeta>
                                                                                                    
                                                                                                    
                                                                                                    
                                                                                                    
                                                                                                    
                                                                                                    
                                                                                                    
                                                                                                    
                                                                                                    
                                                                                                    
                                                                                                    
                                                                                                    
                                                                                                    
                                                                                                    
                                                                                                    
                                                                                                    
                                                                                                    
                                                                                                    
                                                                                                    
                                                                                                    
                           
<?xpacket end="w"?></metadata>
<defs>
    <style>
      .st0 {
        fill: none;
      }

      .st1 {
        fill: #151515;
      }
    </style>
  </defs>
  <path class="st1" d="M12.5,4H2.5c-.827,0-1.5.673-1.5,1.5v7c0,.827.673,1.5,1.5,1.5h10c.827,0,1.5-.673,1.5-1.5v-7c0-.827-.673-1.5-1.5-1.5ZM12,12H3v-6h9v6ZM29.5,4h-10c-.827,0-1.5.673-1.5,1.5v7c0,.827.673,1.5,1.5,1.5h10c.827,0,1.5-.673,1.5-1.5v-7c0-.827-.673-1.5-1.5-1.5ZM29,12h-9v-6h9v6ZM12.5,18H2.5c-.827,0-1.5.673-1.5,1.5v7c0,.827.673,1.5,1.5,1.5h10c.827,0,1.5-.673,1.5-1.5v-7c0-.827-.673-1.5-1.5-1.5ZM12,26H3v-6h9v6ZM29.5,18h-10c-.827,0-1.5.673-1.5,1.5v7c0,.827.673,1.5,1.5,1.5h10c.827,0,1.5-.673,1.5-1.5v-7c0-.827-.673-1.5-1.5-1.5ZM29,26h-9v-6h9v6Z"/>
  <rect id="transparent_rectangle" class="st0" width="32" height="32"/>
</svg>