<?xml version="1.0" encoding="UTF-8"?>
<svg id="icon76" data-name="icon" xmlns="http://www.w3.org/2000/svg" width="32" height="32" version="1.1" viewBox="0 0 32 32">
  <!-- Generator: Adobe Illustrator 29.8.2, SVG Export Plug-In . SVG Version: 2.1.1 Build 3)  -->
  <defs>
    <style>
      .st0 {
        fill: none;
      }

      .st1 {
        fill: #151515;
      }
    </style>
  </defs>
  <path class="st1" d="M16,1C7.729,1,1,7.729,1,16s6.729,15,15,15,15-6.729,15-15S24.271,1,16,1ZM16,29c-.017,0-.034-.003-.051-.003-1.805-2.498-3.039-5.29-3.68-8.247h7.463c-.641,2.957-1.875,5.75-3.68,8.247-.017,0-.034.003-.051.003ZM11.992,19.25c-.155-1.067-.242-2.151-.242-3.25s.087-2.183.242-3.25h8.015c.155,1.067.242,2.151.242,3.25s-.087,2.183-.242,3.25h-8.015ZM3,16c0-1.124.158-2.209.428-3.25h7.059c-.146,1.069-.236,2.152-.236,3.25s.091,2.181.236,3.25H3.428c-.269-1.041-.428-2.126-.428-3.25ZM16,3c.017,0,.034.003.051.003,1.805,2.498,3.039,5.29,3.68,8.247h-7.463c.641-2.957,1.875-5.75,3.68-8.247.017,0,.034-.003.051-.003ZM21.514,12.75h7.059c.269,1.041.428,2.126.428,3.25s-.158,2.209-.428,3.25h-7.059c.146-1.069.236-2.152.236-3.25s-.091-2.181-.236-3.25ZM28.089,11.25h-6.831c-.581-2.868-1.671-5.598-3.275-8.082,4.619.712,8.437,3.853,10.105,8.082ZM14.016,3.168c-1.604,2.484-2.694,5.214-3.275,8.082H3.911c1.668-4.229,5.487-7.37,10.105-8.082ZM3.911,20.75h6.831c.581,2.868,1.671,5.598,3.275,8.082-4.619-.712-8.437-3.853-10.105-8.082ZM17.984,28.832c1.604-2.484,2.694-5.214,3.275-8.082h6.831c-1.668,4.229-5.487,7.37-10.105,8.082Z"/>
  <rect id="transparent_rectangle" class="st0" width="32" height="32"/>
</svg>