<?xml version="1.0" encoding="UTF-8"?>
<svg id="icon161" data-name="icon" xmlns="http://www.w3.org/2000/svg" width="32" height="32" version="1.1" viewBox="0 0 32 32">
  <!-- Generator: Adobe Illustrator 29.8.2, SVG Export Plug-In . SVG Version: 2.1.1 Build 3)  -->
  <defs>
    <style>
      .st0 {
        fill: none;
      }

      .st1 {
        fill: #151515;
      }
    </style>
  </defs>
  <path class="st1" d="M30.33,8.171c-.077-.252-.28-.446-.536-.51-.254-.065-.527.01-.712.197l-3.612,3.612c-1.319,1.319-3.62,1.319-4.939,0-.66-.66-1.023-1.537-1.023-2.47s.363-1.81,1.023-2.47l3.612-3.612c.187-.187.261-.457.197-.712-.064-.256-.258-.459-.51-.536-.92-.279-1.873-.42-2.829-.42-5.376,0-9.75,4.374-9.75,9.75,0,1.077.178,2.137.53,3.159L2.97,22.97c-.81.81-1.255,1.886-1.255,3.03s.446,2.221,1.255,3.03,1.886,1.255,3.03,1.255,2.221-.446,3.03-1.255l8.811-8.81c1.022.352,2.082.53,3.159.53,5.376,0,9.75-4.374,9.75-9.75,0-.957-.142-1.909-.42-2.829ZM6.005,27.878c-1.036,0-1.875-.839-1.875-1.875s.839-1.875,1.875-1.875,1.875.839,1.875,1.875-.839,1.875-1.875,1.875Z"/>
  <rect class="st0" width="32" height="32"/>
</svg>