<?xml version="1.0" encoding="UTF-8"?>
<svg id="icon67" data-name="icon" xmlns="http://www.w3.org/2000/svg" width="32" height="32" version="1.1" viewBox="0 0 32 32">
  <!-- Generator: Adobe Illustrator 29.8.2, SVG Export Plug-In . SVG Version: 2.1.1 Build 3)  -->
  <defs>
    <style>
      .st0 {
        fill: none;
      }

      .st1 {
        fill: #151515;
      }
    </style>
  </defs>
  <path class="st1" d="M30.539,11.208L16.539,3.125c-.31-.179-.69-.179-1,0L1.539,11.208c-.31.179-.5.509-.5.866s.19.688.5.866l3.472,2.005c-.001.019-.011.036-.011.055v5.23c0,.357.191.688.5.866l10,5.77c.155.089.328.134.5.134s.345-.044.5-.134l9-5.19c.31-.179.5-.509.5-.866v-5.249l4.539-2.621c.31-.179.5-.509.5-.866s-.19-.688-.5-.866ZM24,20.232l-8,4.613-9-5.193v-3.56l8.539,4.93c.155.089.327.134.5.134s.345-.044.5-.134l7.461-4.308v3.517ZM16.039,19.002l-12-6.928,12-6.928,4.915,2.838-5.455,3.151c-.479.276-.642.888-.366,1.366.185.321.521.5.867.5.169,0,.342-.043.499-.134l6.454-3.728,5.085,2.936-12,6.928ZM30,17v11c0,.552-.448,1-1,1s-1-.448-1-1v-11c0-.552.448-1,1-1s1,.448,1,1Z"/>
  <rect id="transparent_rectangle" class="st0" width="32" height="32"/>
</svg>