<?xml version="1.0" encoding="UTF-8"?>
<svg id="icon182" data-name="icon" xmlns="http://www.w3.org/2000/svg" width="32" height="32" version="1.1" viewBox="0 0 32 32">
  <!-- Generator: Adobe Illustrator 29.8.2, SVG Export Plug-In . SVG Version: 2.1.1 Build 3)  -->
  <title>rh-ui-icon-monitoring</title>
<metadata><?xpacket begin="﻿" id="W5M0MpCehiHzreSzNTczkc9d"?>
<x:xmpmeta xmlns:x="adobe:ns:meta/" x:xmptk="Adobe XMP Core 8.0-c001 1.000000, 0000/00/00-00:00:00        ">
   <rdf:RDF xmlns:rdf="http://www.w3.org/1999/02/22-rdf-syntax-ns#">
      <rdf:Description rdf:about=""
            xmlns:xmp="http://ns.adobe.com/xap/1.0/"
            xmlns:dc="http://purl.org/dc/elements/1.1/"
            xmlns:tiff="http://ns.adobe.com/tiff/1.0/">
         <xmp:brand-content-subtype>UI</xmp:brand-content-subtype>
         <xmp:rhcc-rights-restricted>no</xmp:rhcc-rights-restricted>
         <xmp:rhcc-file-last-modified>2025-10-14T20:46:28.121Z</xmp:rhcc-file-last-modified>
         <xmp:brand-content-type>Icon</xmp:brand-content-type>
         <xmp:brand-colorway>
            <rdf:Bag>
               <rdf:li>colorway:black</rdf:li>
            </rdf:Bag>
         </xmp:brand-colorway>
         <dc:modified>2025-10-14T20:49:14.747Z</dc:modified>
         <dc:format>image/svg+xml</dc:format>
         <dc:title>
            <rdf:Alt>
               <rdf:li xml:lang="x-default">rh-ui-icon-monitoring</rdf:li>
            </rdf:Alt>
         </dc:title>
         <tiff:ImageLength>32</tiff:ImageLength>
         <tiff:ImageWidth>32</tiff:ImageWidth>
      </rdf:Description>
   </rdf:RDF>
</x:xmpmeta>
                                                                                                    
                                                                                                    
                                                                                                    
                                                                                                    
                                                                                                    
                                                                                                    
                                                                                                    
                                                                                                    
                                                                                                    
                                                                                                    
                                                                                                    
                                                                                                    
                                                                                                    
                                                                                                    
                                                                                                    
                                                          
<?xpacket end="w"?></metadata>
<defs>
    <style>
      .st0 {
        fill: none;
      }

      .st1 {
        fill: #151515;
      }
    </style>
  </defs>
  <path class="st1" d="M29.5,3H2.5c-.827,0-1.5.673-1.5,1.5v17c0,.827.673,1.5,1.5,1.5h9.5v4h-4c-.553,0-1,.447-1,1s.447,1,1,1h16c.553,0,1-.447,1-1s-.447-1-1-1h-4v-4h9.5c.827,0,1.5-.673,1.5-1.5V4.5c0-.827-.673-1.5-1.5-1.5ZM18,27h-4v-4h4v4ZM29,21H3V5h26v16ZM6.293,17.707c-.391-.391-.391-1.023,0-1.414l5.646-5.646c.584-.586,1.537-.586,2.121,0l3.939,3.939,6.293-6.293c.391-.391,1.023-.391,1.414,0s.391,1.023,0,1.414l-6.646,6.646c-.584.586-1.537.586-2.121,0l-3.939-3.939-5.293,5.293c-.195.195-.451.293-.707.293s-.512-.098-.707-.293Z"/>
  <rect id="transparent_rectangle" class="st0" width="32" height="32"/>
</svg>