<?xml version="1.0" encoding="UTF-8"?>
<svg id="icon259" data-name="icon" xmlns="http://www.w3.org/2000/svg" width="32" height="32" version="1.1" viewBox="0 0 32 32">
  <!-- Generator: Adobe Illustrator 29.8.2, SVG Export Plug-In . SVG Version: 2.1.1 Build 3)  -->
  <title>rh-ui-icon-route</title>
<metadata><?xpacket begin="﻿" id="W5M0MpCehiHzreSzNTczkc9d"?>
<x:xmpmeta xmlns:x="adobe:ns:meta/" x:xmptk="Adobe XMP Core 8.0-c001 1.000000, 0000/00/00-00:00:00        ">
   <rdf:RDF xmlns:rdf="http://www.w3.org/1999/02/22-rdf-syntax-ns#">
      <rdf:Description rdf:about=""
            xmlns:xmp="http://ns.adobe.com/xap/1.0/"
            xmlns:dc="http://purl.org/dc/elements/1.1/"
            xmlns:tiff="http://ns.adobe.com/tiff/1.0/">
         <xmp:brand-content-subtype>UI</xmp:brand-content-subtype>
         <xmp:rhcc-rights-restricted>no</xmp:rhcc-rights-restricted>
         <xmp:rhcc-file-last-modified>2025-10-14T20:46:34.078Z</xmp:rhcc-file-last-modified>
         <xmp:brand-content-type>Icon</xmp:brand-content-type>
         <xmp:brand-colorway>
            <rdf:Bag>
               <rdf:li>colorway:black</rdf:li>
            </rdf:Bag>
         </xmp:brand-colorway>
         <dc:modified>2025-10-14T20:49:23.462Z</dc:modified>
         <dc:format>image/svg+xml</dc:format>
         <dc:title>
            <rdf:Alt>
               <rdf:li xml:lang="x-default">rh-ui-icon-route</rdf:li>
            </rdf:Alt>
         </dc:title>
         <tiff:ImageLength>32</tiff:ImageLength>
         <tiff:ImageWidth>32</tiff:ImageWidth>
      </rdf:Description>
   </rdf:RDF>
</x:xmpmeta>
                                                                                                    
                                                                                                    
                                                                                                    
                                                                                                    
                                                                                                    
                                                                                                    
                                                                                                    
                                                                                                    
                                                                                                    
                                                                                                    
                                                                                                    
                                                                                                    
                                                                                                    
                                                                                                    
                                                                                                    
                                                               
<?xpacket end="w"?></metadata>
<defs>
    <style>
      .st0 {
        fill: none;
      }

      .st1 {
        fill: #151515;
      }
    </style>
  </defs>
  <path class="st1" d="M12.923,26.618c.101.244.101.519,0,.764-.051.123-.125.234-.217.326l-2.999,2.999c-.191.191-.447.293-.707.293-.129,0-.259-.024-.383-.076-.374-.154-.617-.52-.617-.924v-2H2c-.553,0-1-.447-1-1s.447-1,1-1h6v-2c0-.404.243-.77.617-.924.375-.155.804-.069,1.09.217l2.999,2.999c.093.092.166.203.217.327ZM20,6h6v2c0,.404.243.77.617.924.124.052.254.076.383.076.26,0,.516-.102.707-.293l2.999-2.999c.093-.092.166-.203.217-.326.101-.244.101-.519,0-.764-.051-.123-.125-.234-.217-.327l-2.999-2.999c-.286-.285-.715-.372-1.09-.217-.374.154-.617.52-.617.924v2h-6c-.553,0-1,.447-1,1s.447,1,1,1ZM31,16c0,8.271-6.729,15-15,15-.553,0-1-.447-1-1s.447-1,1-1c.014,0,.028-.002.042-.002,1.806-2.499,3.046-5.29,3.688-8.248H3.915c.108.275.208.552.336.82.237.499.024,1.096-.474,1.333-.139.065-.285.097-.429.097-.374,0-.733-.211-.904-.57-.958-2.017-1.444-4.18-1.444-6.43C1,7.729,7.729,1,16,1c.553,0,1,.447,1,1s-.447,1-1,1c-.014,0-.028.002-.042.002-1.806,2.499-3.046,5.29-3.688,8.248h7.458c-.149-.681-.318-1.359-.529-2.021-.127-.395.091-.816.485-.942.396-.129.816.092.942.485.26.811.463,1.643.633,2.479h8.795c.144.121.266.27.323.464.413,1.384.622,2.826.622,4.286ZM10.494,19.25c-.148-1.074-.244-2.161-.244-3.25,0-1.098.091-2.181.236-3.25H3.428c-.269,1.041-.428,2.126-.428,3.25,0,1.113.153,2.197.425,3.25h7.069ZM10.742,11.25c.581-2.868,1.671-5.598,3.274-8.082-4.618.712-8.437,3.853-10.105,8.082h6.831ZM20.006,19.25c.155-1.068.244-2.151.244-3.25,0-1.09-.098-2.178-.255-3.25h-8.001c-.155,1.068-.244,2.151-.244,3.25,0,1.09.098,2.178.255,3.25h8.001ZM28.089,20.75h-6.831c-.58,2.868-1.671,5.598-3.274,8.082,4.618-.712,8.437-3.853,10.105-8.082ZM29,16c0-1.105-.146-2.194-.418-3.25h-7.076c.148,1.074.244,2.161.244,3.25,0,1.098-.091,2.181-.236,3.25h7.059c.269-1.041.428-2.126.428-3.25Z"/>
  <rect id="transparent_rectangle" class="st0" width="32" height="32"/>
</svg>