<?xml version="1.0" encoding="UTF-8"?>
<svg id="icon31" data-name="icon" xmlns="http://www.w3.org/2000/svg" width="32" height="32" version="1.1" viewBox="0 0 32 32">
  <!-- Generator: Adobe Illustrator 29.8.2, SVG Export Plug-In . SVG Version: 2.1.1 Build 3)  -->
  <defs>
    <style>
      .st0 {
        fill: none;
      }

      .st1 {
        fill: #151515;
      }
    </style>
  </defs>
  <path class="st1" d="M2,7v-1c0-.552.448-1,1-1s1,.448,1,1v1c0,.552-.448,1-1,1s-1-.448-1-1ZM29,5c-.552,0-1,.448-1,1v1c0,.552.448,1,1,1s1-.448,1-1v-1c0-.552-.448-1-1-1ZM30,14v7.5c0,.827-.673,1.5-1.5,1.5H3.5c-.827,0-1.5-.673-1.5-1.5v-7.5c0-1.654,1.346-3,3-3h.065L7.022,1.792c.098-.462.506-.792.978-.792h16c.472,0,.88.33.978.792l1.957,9.208h.065c1.654,0,3,1.346,3,3ZM7.109,11h17.781l-1.7-8h-14.381l-1.7,8ZM7.125,16c0-.621-.504-1.125-1.125-1.125s-1.125.504-1.125,1.125v2c0,.621.504,1.125,1.125,1.125s1.125-.504,1.125-1.125v-2ZM21.125,17c0-.621-.504-1.125-1.125-1.125h-8c-.621,0-1.125.504-1.125,1.125s.504,1.125,1.125,1.125h8c.621,0,1.125-.504,1.125-1.125ZM27.125,16c0-.621-.504-1.125-1.125-1.125s-1.125.504-1.125,1.125v2c0,.621.504,1.125,1.125,1.125s1.125-.504,1.125-1.125v-2ZM29,25H3c-.552,0-1,.448-1,1s.448,1,1,1h1v2c0,1.103.897,2,2,2h2c1.103,0,2-.897,2-2v-2h12v2c0,1.103.897,2,2,2h2c1.103,0,2-.897,2-2v-2h1c.552,0,1-.448,1-1s-.448-1-1-1Z"/>
  <rect class="st0" width="32" height="32"/>
</svg>