<?xml version="1.0" encoding="UTF-8"?>
<svg id="icon99" data-name="icon" xmlns="http://www.w3.org/2000/svg" width="32" height="32" version="1.1" viewBox="0 0 32 32">
  <!-- Generator: Adobe Illustrator 29.8.2, SVG Export Plug-In . SVG Version: 2.1.1 Build 3)  -->
  <defs>
    <style>
      .st0 {
        fill: none;
      }

      .st1 {
        fill: #151515;
      }
    </style>
  </defs>
  <path class="st1" d="M31,27c0,2.206-1.794,4-4,4s-4-1.794-4-4c0-.287.033-.566.091-.836l-15.091-7.546c-.734.84-1.799,1.382-3,1.382-2.206,0-4-1.794-4-4s1.794-4,4-4c1.2,0,2.266.542,3,1.382l15.091-7.546c-.058-.27-.091-.549-.091-.836,0-2.206,1.794-4,4-4s4,1.794,4,4-1.794,4-4,4c-1.2,0-2.266-.542-3-1.382l-15.091,7.546c.058.27.091.549.091.836s-.033.566-.091.836l15.091,7.546c.734-.84,1.799-1.382,3-1.382,2.206,0,4,1.794,4,4Z"/>
  <rect class="st0" width="32" height="32"/>
</svg>