<?xml version="1.0" encoding="UTF-8"?>
<svg id="icon87" data-name="icon" xmlns="http://www.w3.org/2000/svg" width="32" height="32" version="1.1" viewBox="0 0 32 32">
  <!-- Generator: Adobe Illustrator 29.8.2, SVG Export Plug-In . SVG Version: 2.1.1 Build 3)  -->
  <defs>
    <style>
      .st0 {
        fill: none;
      }

      .st1 {
        fill: #151515;
      }
    </style>
  </defs>
  <path class="st1" d="M28.75,22v3.5c0,.689-.561,1.25-1.25,1.25h-7.521c.005.084.021.166.021.25,0,2.206-1.794,4-4,4s-4-1.794-4-4c0-.084.016-.166.021-.25h-7.521c-.689,0-1.25-.561-1.25-1.25v-3.5c0-.414.336-.75.75-.75,1.24,0,2.25-1.009,2.25-2.25v-4c0-4.826,3.528-8.833,8.138-9.605-.539-.459-.888-1.133-.888-1.895,0-1.378,1.121-2.5,2.5-2.5s2.5,1.122,2.5,2.5c0,.765-.352,1.441-.895,1.9.367.062.733.131,1.095.235.243.07.435.258.509.5s.022.505-.139.7c-.852,1.028-1.32,2.329-1.32,3.665,0,3.17,2.579,5.75,5.75,5.75.436,0,.869-.053,1.328-.161.221-.053.458,0,.638.142.18.142.284.359.284.588v2.181c0,1.241,1.01,2.25,2.25,2.25.414,0,.75.336.75.75Z"/>
  <rect class="st0" width="32" height="32"/>
</svg>