<?xml version="1.0" encoding="UTF-8"?>
<svg id="icon203" data-name="icon" xmlns="http://www.w3.org/2000/svg" width="32" height="32" version="1.1" viewBox="0 0 32 32">
  <!-- Generator: Adobe Illustrator 29.8.2, SVG Export Plug-In . SVG Version: 2.1.1 Build 3)  -->
  <title>rh-ui-icon-template</title>
<metadata><?xpacket begin="﻿" id="W5M0MpCehiHzreSzNTczkc9d"?>
<x:xmpmeta xmlns:x="adobe:ns:meta/" x:xmptk="Adobe XMP Core 8.0-c001 1.000000, 0000/00/00-00:00:00        ">
   <rdf:RDF xmlns:rdf="http://www.w3.org/1999/02/22-rdf-syntax-ns#">
      <rdf:Description rdf:about=""
            xmlns:xmp="http://ns.adobe.com/xap/1.0/"
            xmlns:dc="http://purl.org/dc/elements/1.1/"
            xmlns:tiff="http://ns.adobe.com/tiff/1.0/">
         <xmp:brand-content-subtype>UI</xmp:brand-content-subtype>
         <xmp:rhcc-rights-restricted>no</xmp:rhcc-rights-restricted>
         <xmp:rhcc-file-last-modified>2025-10-14T20:47:49.943Z</xmp:rhcc-file-last-modified>
         <xmp:brand-content-type>Icon</xmp:brand-content-type>
         <xmp:brand-colorway>
            <rdf:Bag>
               <rdf:li>colorway:black</rdf:li>
            </rdf:Bag>
         </xmp:brand-colorway>
         <dc:modified>2025-10-14T20:49:08.695Z</dc:modified>
         <dc:format>image/svg+xml</dc:format>
         <dc:title>
            <rdf:Alt>
               <rdf:li xml:lang="x-default">rh-ui-icon-template</rdf:li>
            </rdf:Alt>
         </dc:title>
         <tiff:ImageLength>32</tiff:ImageLength>
         <tiff:ImageWidth>32</tiff:ImageWidth>
      </rdf:Description>
   </rdf:RDF>
</x:xmpmeta>
                                                                                                    
                                                                                                    
                                                                                                    
                                                                                                    
                                                                                                    
                                                                                                    
                                                                                                    
                                                                                                    
                                                                                                    
                                                                                                    
                                                                                                    
                                                                                                    
                                                                                                    
                                                                                                    
                                                                                                    
                                                            
<?xpacket end="w"?></metadata>
<defs>
    <style>
      .st0 {
        fill: none;
      }

      .st1 {
        fill: #151515;
      }
    </style>
  </defs>
  <path class="st1" d="M28.5,2H3.5c-.827,0-1.5.673-1.5,1.5v25c0,.827.673,1.5,1.5,1.5h25c.827,0,1.5-.673,1.5-1.5V3.5c0-.827-.673-1.5-1.5-1.5ZM28,28H4V4h24v24ZM14.125,8c0-.483.392-.875.875-.875h5c.483,0,.875.392.875.875s-.392.875-.875.875h-5c-.483,0-.875-.392-.875-.875ZM12,13.125h5c.483,0,.875.392.875.875s-.392.875-.875.875h-5c-.483,0-.875-.392-.875-.875s.392-.875.875-.875ZM21,13.125h2.125v-5.125c0-.483.392-.875.875-.875s.875.392.875.875v5.5c0,.758-.617,1.375-1.375,1.375h-2.5c-.483,0-.875-.392-.875-.875s.392-.875.875-.875ZM7.125,14v-5.5c0-.758.617-1.375,1.375-1.375h2.5c.483,0,.875.392.875.875s-.392.875-.875.875h-2.125v5.125c0,.483-.392.875-.875.875s-.875-.392-.875-.875ZM20,18.875h-5c-.483,0-.875-.392-.875-.875s.392-.875.875-.875h5c.483,0,.875.392.875.875s-.392.875-.875.875ZM17.875,24c0,.483-.392.875-.875.875h-5c-.483,0-.875-.392-.875-.875s.392-.875.875-.875h5c.483,0,.875.392.875.875ZM24.875,18v5.5c0,.758-.617,1.375-1.375,1.375h-2.5c-.483,0-.875-.392-.875-.875s.392-.875.875-.875h2.125v-5.125c0-.483.392-.875.875-.875s.875.392.875.875ZM7.125,24v-5.5c0-.758.617-1.375,1.375-1.375h2.5c.483,0,.875.392.875.875s-.392.875-.875.875h-2.125v5.125c0,.483-.392.875-.875.875s-.875-.392-.875-.875Z"/>
  <rect id="transparent_rectangle" class="st0" width="32" height="32"/>
</svg>