<?xml version="1.0" encoding="UTF-8"?>
<svg id="icon101" data-name="icon" xmlns="http://www.w3.org/2000/svg" width="32" height="32" version="1.1" viewBox="0 0 32 32">
  <!-- Generator: Adobe Illustrator 29.8.2, SVG Export Plug-In . SVG Version: 2.1.1 Build 3)  -->
  <defs>
    <style>
      .st0 {
        fill: none;
      }

      .st1 {
        fill: #151515;
      }
    </style>
  </defs>
  <path class="st1" d="M30,15h-12.004c-.549,0-.996-.447-.996-.996V2c0-.552-.448-1-1-1-4.259,0-8.333,1.822-11.177,4.998C1.981,9.171.623,13.438,1.094,17.705c.762,6.887,6.313,12.439,13.201,13.201.557.062,1.114.092,1.668.092,3.694,0,7.28-1.35,10.039-3.82,3.176-2.844,4.998-6.918,4.998-11.177,0-.552-.448-1-1-1ZM24.668,25.688c-2.79,2.499-6.391,3.652-10.153,3.23-5.965-.66-10.773-5.468-11.432-11.433-.416-3.757.731-7.362,3.23-10.153,2.242-2.503,5.364-4.036,8.688-4.293v10.966c0,1.652,1.344,2.996,2.996,2.996h10.966c-.257,3.323-1.79,6.446-4.293,8.688ZM20,11V2.93c0-.329.162-.637.432-.823s.616-.229.923-.111c3.983,1.513,7.136,4.666,8.649,8.649.117.307.075.652-.111.923s-.495.432-.823.432h-8.07c-.552,0-1-.448-1-1Z"/>
  <rect id="transparent_rectangle" class="st0" width="32" height="32"/>
</svg>