<?xml version="1.0" encoding="UTF-8"?>
<svg id="icon187" data-name="icon" xmlns="http://www.w3.org/2000/svg" width="32" height="32" version="1.1" viewBox="0 0 32 32">
  <!-- Generator: Adobe Illustrator 29.8.2, SVG Export Plug-In . SVG Version: 2.1.1 Build 3)  -->
  <title>rh-ui-icon-task</title>
<metadata><?xpacket begin="﻿" id="W5M0MpCehiHzreSzNTczkc9d"?>
<x:xmpmeta xmlns:x="adobe:ns:meta/" x:xmptk="Adobe XMP Core 8.0-c001 1.000000, 0000/00/00-00:00:00        ">
   <rdf:RDF xmlns:rdf="http://www.w3.org/1999/02/22-rdf-syntax-ns#">
      <rdf:Description rdf:about=""
            xmlns:xmp="http://ns.adobe.com/xap/1.0/"
            xmlns:dc="http://purl.org/dc/elements/1.1/"
            xmlns:tiff="http://ns.adobe.com/tiff/1.0/">
         <xmp:brand-content-subtype>UI</xmp:brand-content-subtype>
         <xmp:rhcc-rights-restricted>no</xmp:rhcc-rights-restricted>
         <xmp:rhcc-file-last-modified>2025-10-14T20:47:49.705Z</xmp:rhcc-file-last-modified>
         <xmp:brand-content-type>Icon</xmp:brand-content-type>
         <xmp:brand-colorway>
            <rdf:Bag>
               <rdf:li>colorway:black</rdf:li>
            </rdf:Bag>
         </xmp:brand-colorway>
         <dc:modified>2025-10-14T20:50:54.271Z</dc:modified>
         <dc:format>image/svg+xml</dc:format>
         <dc:title>
            <rdf:Alt>
               <rdf:li xml:lang="x-default">rh-ui-icon-task</rdf:li>
            </rdf:Alt>
         </dc:title>
         <tiff:ImageLength>32</tiff:ImageLength>
         <tiff:ImageWidth>32</tiff:ImageWidth>
      </rdf:Description>
   </rdf:RDF>
</x:xmpmeta>
                                                                                                    
                                                                                                    
                                                                                                    
                                                                                                    
                                                                                                    
                                                                                                    
                                                                                                    
                                                                                                    
                                                                                                    
                                                                                                    
                                                                                                    
                                                                                                    
                                                                                                    
                                                                                                    
                                                                                                    
                                                                                                    
                                                                                                    
                        
<?xpacket end="w"?></metadata>
<defs>
    <style>
      .st0 {
        fill: none;
      }

      .st1 {
        fill: #151515;
      }
    </style>
  </defs>
  <path class="st1" d="M22,14c0,.553-.448,1-1,1h-10c-.552,0-1-.447-1-1s.448-1,1-1h10c.552,0,1,.447,1,1ZM21,18h-10c-.552,0-1,.447-1,1s.448,1,1,1h10c.552,0,1-.447,1-1s-.448-1-1-1ZM16,23h-5c-.552,0-1,.447-1,1s.448,1,1,1h5c.552,0,1-.447,1-1s-.448-1-1-1ZM27,7.5v22c0,.827-.673,1.5-1.5,1.5H6.5c-.827,0-1.5-.673-1.5-1.5V7.5c0-.827.673-1.5,1.5-1.5h2.5v-.5c0-.827.673-1.5,1.5-1.5h1.626c.445-1.724,2.013-3,3.874-3s3.428,1.276,3.874,3h1.626c.827,0,1.5.673,1.5,1.5v.5h2.5c.827,0,1.5.673,1.5,1.5ZM11,8h10v-2h-2c-.552,0-1-.447-1-1,0-1.103-.897-2-2-2s-2,.897-2,2c0,.553-.448,1-1,1h-2v2ZM25,8h-2v.5c0,.827-.673,1.5-1.5,1.5h-11c-.827,0-1.5-.673-1.5-1.5v-.5h-2v21h18V8Z"/>
  <rect id="transparent_rectangle" class="st0" width="32" height="32"/>
</svg>