<?xml version="1.0" encoding="UTF-8"?>
<svg id="icon41" data-name="icon" xmlns="http://www.w3.org/2000/svg" width="32" height="32" version="1.1" viewBox="0 0 32 32">
  <!-- Generator: Adobe Illustrator 29.8.2, SVG Export Plug-In . SVG Version: 2.1.1 Build 3)  -->
  <defs>
    <style>
      .st0 {
        fill: none;
      }

      .st1 {
        fill: #151515;
      }
    </style>
  </defs>
  <path class="st1" d="M2,5v-2c0-.552.448-1,1-1s1,.448,1,1v2c0,.552-.448,1-1,1s-1-.448-1-1ZM29,28H4v-11c0-.552-.448-1-1-1s-1,.448-1,1v11.5c0,.827.673,1.5,1.5,1.5h25.5c.552,0,1-.448,1-1s-.448-1-1-1ZM8.939,17.354c.585.585,1.536.585,2.121,0l5.939-5.939,11.293,11.293c.195.195.451.293.707.293s.512-.098.707-.293c.391-.391.391-1.023,0-1.414l-11.646-11.646c-.585-.585-1.536-.585-2.121,0l-5.939,5.939-6.293-6.293c-.391-.391-1.023-.391-1.414,0s-.391,1.023,0,1.414l6.646,6.646Z"/>
  <rect id="transparent_rectangle" class="st0" width="32" height="32"/>
</svg>