<?xml version="1.0" encoding="UTF-8"?>
<svg id="icon94" data-name="icon" xmlns="http://www.w3.org/2000/svg" width="32" height="32" version="1.1" viewBox="0 0 32 32">
  <!-- Generator: Adobe Illustrator 29.8.2, SVG Export Plug-In . SVG Version: 2.1.1 Build 3)  -->
  <defs>
    <style>
      .st0 {
        fill: none;
      }

      .st1 {
        fill: #151515;
      }
    </style>
  </defs>
  <path class="st1" d="M31.354,14.939l-3.747-3.747v-5.299c0-.827-.673-1.5-1.5-1.5h-5.299l-3.747-3.747c-.585-.585-1.536-.585-2.121,0l-3.747,3.747h-5.299c-.827,0-1.5.673-1.5,1.5v5.299l-3.747,3.747c-.585.585-.585,1.536,0,2.121l3.747,3.747v5.299c0,.827.673,1.5,1.5,1.5h5.299l3.747,3.747c.292.292.676.438,1.061.438s.768-.146,1.061-.438l3.747-3.747h5.299c.827,0,1.5-.673,1.5-1.5v-5.299l3.747-3.747c.585-.585.585-1.536,0-2.121ZM25.899,19.687c-.188.188-.293.442-.293.707v5.213h-5.213c-.265,0-.52.105-.707.293l-3.687,3.687-3.687-3.687c-.188-.188-.442-.293-.707-.293h-5.213v-5.213c0-.265-.105-.52-.293-.707l-3.687-3.687,3.687-3.687c.188-.188.293-.442.293-.707v-5.213h5.213c.265,0,.52-.105.707-.293l3.687-3.687,3.687,3.687c.188.188.442.293.707.293h5.213v5.213c0,.265.105.52.293.707l3.687,3.687-3.687,3.687ZM24,16c0,.552-.448,1-1,1h-6v6c0,.552-.448,1-1,1s-1-.448-1-1v-6h-6c-.552,0-1-.448-1-1s.448-1,1-1h6v-6c0-.552.448-1,1-1s1,.448,1,1v6h6c.552,0,1,.448,1,1Z"/>
  <rect id="transparent_rectangle" class="st0" width="32" height="32"/>
</svg>