<?xml version="1.0" encoding="UTF-8"?>
<svg id="icon106" data-name="icon" xmlns="http://www.w3.org/2000/svg" width="32" height="32" version="1.1" viewBox="0 0 32 32">
  <!-- Generator: Adobe Illustrator 29.8.2, SVG Export Plug-In . SVG Version: 2.1.1 Build 3)  -->
  <defs>
    <style>
      .st0 {
        fill: none;
      }

      .st1 {
        fill: #151515;
      }
    </style>
  </defs>
  <path class="st1" d="M30.75,27c0,2.067-1.682,3.75-3.75,3.75s-3.75-1.683-3.75-3.75c0-.67.191-1.291.5-1.836l-4.458-4.458c-.934.655-2.068,1.043-3.293,1.043s-2.359-.388-3.293-1.043l-2.458,2.458c.309.545.5,1.166.5,1.836,0,2.067-1.682,3.75-3.75,3.75s-3.75-1.683-3.75-3.75,1.682-3.75,3.75-3.75c.67,0,1.291.191,1.836.5l2.458-2.458c-.655-.934-1.043-2.068-1.043-3.293s.388-2.359,1.043-3.293l-4.458-4.458c-.545.309-1.166.5-1.836.5-2.068,0-3.75-1.683-3.75-3.75s1.682-3.75,3.75-3.75,3.75,1.683,3.75,3.75c0,.67-.191,1.291-.5,1.836l4.458,4.458c.934-.655,2.068-1.043,3.293-1.043s2.359.388,3.293,1.043l2.458-2.458c-.309-.545-.5-1.166-.5-1.836,0-2.067,1.682-3.75,3.75-3.75s3.75,1.683,3.75,3.75-1.682,3.75-3.75,3.75c-.67,0-1.291-.191-1.836-.5l-2.458,2.458c.655.934,1.043,2.068,1.043,3.293s-.388,2.359-1.043,3.293l4.458,4.458c.545-.309,1.166-.5,1.836-.5,2.068,0,3.75,1.683,3.75,3.75Z"/>
  <rect class="st0" width="32" height="32"/>
</svg>