<?xml version="1.0" encoding="UTF-8"?>
<svg id="icon152" data-name="icon" xmlns="http://www.w3.org/2000/svg" width="32" height="32" version="1.1" viewBox="0 0 32 32">
  <!-- Generator: Adobe Illustrator 29.8.2, SVG Export Plug-In . SVG Version: 2.1.1 Build 3)  -->
  <title>rh-ui-icon-memory-fill</title>
<metadata><?xpacket begin="﻿" id="W5M0MpCehiHzreSzNTczkc9d"?>
<x:xmpmeta xmlns:x="adobe:ns:meta/" x:xmptk="Adobe XMP Core 8.0-c001 1.000000, 0000/00/00-00:00:00        ">
   <rdf:RDF xmlns:rdf="http://www.w3.org/1999/02/22-rdf-syntax-ns#">
      <rdf:Description rdf:about=""
            xmlns:xmp="http://ns.adobe.com/xap/1.0/"
            xmlns:dc="http://purl.org/dc/elements/1.1/"
            xmlns:tiff="http://ns.adobe.com/tiff/1.0/">
         <xmp:brand-content-subtype>UI</xmp:brand-content-subtype>
         <xmp:rhcc-rights-restricted>no</xmp:rhcc-rights-restricted>
         <xmp:rhcc-file-last-modified>2025-10-14T20:44:28.945Z</xmp:rhcc-file-last-modified>
         <xmp:brand-content-type>Icon</xmp:brand-content-type>
         <xmp:brand-colorway>
            <rdf:Bag>
               <rdf:li>colorway:black</rdf:li>
            </rdf:Bag>
         </xmp:brand-colorway>
         <dc:modified>2025-10-14T20:49:28.052Z</dc:modified>
         <dc:format>image/svg+xml</dc:format>
         <dc:title>
            <rdf:Alt>
               <rdf:li xml:lang="x-default">rh-ui-icon-memory-fill</rdf:li>
            </rdf:Alt>
         </dc:title>
         <tiff:ImageLength>32</tiff:ImageLength>
         <tiff:ImageWidth>32</tiff:ImageWidth>
      </rdf:Description>
   </rdf:RDF>
</x:xmpmeta>
                                                                                                    
                                                                                                    
                                                                                                    
                                                                                                    
                                                                                                    
                                                                                                    
                                                                                                    
                                                                                                    
                                                                                                    
                                                                                                    
                                                                                                    
                                                                                                    
                                                                                                    
                                                                                                    
                                                                                                    
                                                                                                    
                                                                                                    
                 
<?xpacket end="w"?></metadata>
<defs>
    <style>
      .st0 {
        fill: none;
      }

      .st1 {
        fill: #151515;
      }
    </style>
  </defs>
  <path class="st1" d="M13.125,9.125h5.75v13.75h-5.75v-13.75ZM25.75,12v3h3.25c.553,0,1,.447,1,1s-.447,1-1,1h-3.25v3h3.25c.553,0,1,.447,1,1s-.447,1-1,1h-3.25v3h3.25c.553,0,1,.447,1,1s-.447,1-1,1h-3.25v1.5c0,.689-.561,1.25-1.25,1.25H7.5c-.689,0-1.25-.561-1.25-1.25v-1.5h-3.25c-.553,0-1-.447-1-1s.447-1,1-1h3.25v-3h-3.25c-.553,0-1-.447-1-1s.447-1,1-1h3.25v-3h-3.25c-.553,0-1-.447-1-1s.447-1,1-1h3.25v-3h-3.25c-.553,0-1-.447-1-1s.447-1,1-1h3.25v-3h-3.25c-.553,0-1-.447-1-1s.447-1,1-1h3.25v-1.5c0-.689.561-1.25,1.25-1.25h17c.689,0,1.25.561,1.25,1.25v1.5h3.25c.553,0,1,.447,1,1s-.447,1-1,1h-3.25v3h3.25c.553,0,1,.447,1,1s-.447,1-1,1h-3.25ZM21.125,8.5c0-.896-.729-1.625-1.625-1.625h-7c-.896,0-1.625.729-1.625,1.625v15c0,.896.729,1.625,1.625,1.625h7c.896,0,1.625-.729,1.625-1.625v-15Z"/>
  <rect class="st0" width="32" height="32"/>
</svg>