<?xml version="1.0" encoding="UTF-8"?>
<svg id="icon110" data-name="icon" xmlns="http://www.w3.org/2000/svg" width="32" height="32" version="1.1" viewBox="0 0 32 32">
  <!-- Generator: Adobe Illustrator 29.8.2, SVG Export Plug-In . SVG Version: 2.1.1 Build 3)  -->
  <defs>
    <style>
      .st0 {
        fill: none;
      }

      .st1 {
        fill: #151515;
      }
    </style>
  </defs>
  <path class="st1" d="M31,2v8.5c0,.827-.673,1.5-1.5,1.5h-8.5c-.552,0-1-.448-1-1s.448-1,1-1h6.524c-2.217-4.237-6.673-7-11.524-7-7.168,0-13,5.832-13,13s5.832,13,13,13c4.248,0,8.236-2.083,10.67-5.572.316-.453.94-.563,1.393-.248.453.316.564.939.248,1.393-2.808,4.025-7.41,6.428-12.311,6.428-8.271,0-15-6.729-15-15S7.729,1,16,1c5.384,0,10.352,2.945,13,7.521V2c0-.552.448-1,1-1s1,.448,1,1Z"/>
  <rect id="transparent_rectangle" class="st0" width="32" height="32"/>
</svg>