<?xml version="1.0" encoding="UTF-8"?>
<svg id="icon8" data-name="icon" xmlns="http://www.w3.org/2000/svg" width="32" height="32" version="1.1" viewBox="0 0 32 32">
  <!-- Generator: Adobe Illustrator 29.8.2, SVG Export Plug-In . SVG Version: 2.1.1 Build 3)  -->
  <defs>
    <style>
      .st0 {
        fill: none;
      }

      .st1 {
        fill: #151515;
      }
    </style>
  </defs>
  <path class="st1" d="M1.25,16c0-3.722,3.028-6.75,6.75-6.75.549,0,1.094.068,1.628.203,1.106-3.64,4.504-6.203,8.372-6.203,4.825,0,8.75,3.925,8.75,8.75,0,.136-.004.275-.013.419,2.333.557,4.013,2.625,4.013,5.081,0,2.895-2.355,5.25-5.25,5.25H8c-3.722,0-6.75-3.028-6.75-6.75ZM29,27H3c-.553,0-1,.448-1,1s.447,1,1,1h26c.553,0,1-.448,1-1s-.447-1-1-1Z"/>
  <rect class="st0" width="32" height="32"/>
</svg>