<?xml version="1.0" encoding="UTF-8"?>
<svg id="icon90" data-name="icon" xmlns="http://www.w3.org/2000/svg" width="32" height="32" version="1.1" viewBox="0 0 32 32">
  <!-- Generator: Adobe Illustrator 29.8.2, SVG Export Plug-In . SVG Version: 2.1.1 Build 3)  -->
  <defs>
    <style>
      .st0 {
        fill: none;
      }

      .st1 {
        fill: #151515;
      }
    </style>
  </defs>
  <path class="st1" d="M16,1.25C7.867,1.25,1.25,7.867,1.25,16s6.617,14.75,14.75,14.75,14.75-6.617,14.75-14.75S24.133,1.25,16,1.25ZM14.375,21.75c0,.345-.28.625-.625.625h-3.5c-.345,0-.625-.28-.625-.625v-11.5c0-.345.28-.625.625-.625h3.5c.345,0,.625.28.625.625v11.5ZM22.375,21.75c0,.345-.28.625-.625.625h-3.5c-.345,0-.625-.28-.625-.625v-11.5c0-.345.28-.625.625-.625h3.5c.345,0,.625.28.625.625v11.5Z"/>
  <rect class="st0" width="32" height="32"/>
</svg>