<?xml version="1.0" encoding="UTF-8"?>
<svg id="icon75" data-name="icon" xmlns="http://www.w3.org/2000/svg" width="32" height="32" version="1.1" viewBox="0 0 32 32">
  <!-- Generator: Adobe Illustrator 29.8.2, SVG Export Plug-In . SVG Version: 2.1.1 Build 3)  -->
  <defs>
    <style>
      .st0 {
        fill: none;
      }

      .st1 {
        fill: #151515;
      }
    </style>
  </defs>
  <path class="st1" d="M27.676,25.783l-6.676-14.996V3h1c.552,0,1-.448,1-1s-.448-1-1-1h-1.5c-.827,0-1.5.673-1.5,1.5v8.5c0,.14.029.279.086.407l2.935,6.593h-12.044l2.935-6.593c.057-.128.086-.267.086-.407V2.5c0-.827-.673-1.5-1.5-1.5h-1.5c-.552,0-1,.448-1,1s.448,1,1,1h1v7.788l-6.676,14.996c-.513,1.151-.409,2.47.277,3.528s1.849,1.689,3.11,1.689h16.577c1.261,0,2.424-.631,3.11-1.689s.79-2.376.277-3.528ZM25.722,28.222c-.321.495-.843.778-1.433.778H7.711c-.59,0-1.112-.284-1.433-.778-.321-.494-.367-1.086-.127-1.625l2.937-6.597h13.824l2.937,6.597c.24.539.193,1.131-.127,1.625Z"/>
  <rect id="transparent_rectangle" class="st0" width="32" height="32"/>
</svg>