<?xml version="1.0" encoding="UTF-8"?>
<svg id="icon107" data-name="icon" xmlns="http://www.w3.org/2000/svg" width="32" height="32" version="1.1" viewBox="0 0 32 32">
  <!-- Generator: Adobe Illustrator 29.8.2, SVG Export Plug-In . SVG Version: 2.1.1 Build 3)  -->
  <defs>
    <style>
      .st0 {
        fill: none;
      }

      .st1 {
        fill: #151515;
      }
    </style>
  </defs>
  <path class="st1" d="M30,3.5v2.5c0,.552-.447,1-1,1s-1-.448-1-1v-2H4v2c0,.552-.447,1-1,1s-1-.448-1-1v-2.5c0-.827.673-1.5,1.5-1.5h25c.827,0,1.5.673,1.5,1.5ZM17.061,7.646c-.584-.585-1.537-.585-2.121,0l-8.646,8.646c-.391.391-.391,1.023,0,1.414s1.023.391,1.414,0l7.293-7.293v18.586c0,.552.447,1,1,1s1-.448,1-1V10.414l7.293,7.293c.195.195.451.293.707.293s.512-.098.707-.293c.391-.391.391-1.023,0-1.414l-8.646-8.646Z"/>
  <rect id="transparent_rectangle" class="st0" width="32" height="32"/>
</svg>