<?xml version="1.0" encoding="UTF-8"?>
<svg id="icon113" data-name="icon" xmlns="http://www.w3.org/2000/svg" width="32" height="32" version="1.1" viewBox="0 0 32 32">
  <!-- Generator: Adobe Illustrator 29.8.2, SVG Export Plug-In . SVG Version: 2.1.1 Build 3)  -->
  <defs>
    <style>
      .st0 {
        fill: none;
      }

      .st1 {
        fill: #151515;
      }
    </style>
  </defs>
  <path class="st1" d="M16,1C7.729,1,1,7.729,1,16s6.729,15,15,15,15-6.729,15-15S24.271,1,16,1ZM16,29c-7.168,0-13-5.832-13-13S8.832,3,16,3s13,5.832,13,13-5.832,13-13,13ZM26,16c0,6.117-5.501,10.957-11.823,9.838-4.055-.717-7.305-3.987-8.019-8.043-.482-2.737.166-5.326,1.549-7.372.183-.27.494-.424.82-.424h14.945c.326,0,.637.153.819.423,1.077,1.593,1.708,3.513,1.708,5.577Z"/>
  <rect id="transparent_rectangle" class="st0" width="32" height="32"/>
</svg>