<?xml version="1.0" encoding="UTF-8"?>
<svg id="icon77" data-name="icon" xmlns="http://www.w3.org/2000/svg" width="32" height="32" version="1.1" viewBox="0 0 32 32">
  <!-- Generator: Adobe Illustrator 29.8.2, SVG Export Plug-In . SVG Version: 2.1.1 Build 3)  -->
  <title>rh-ui-icon-light-mode</title>
<desc>sun, moon, starburst, automatic, system settings, daylight, night</desc>
<metadata><?xpacket begin="﻿" id="W5M0MpCehiHzreSzNTczkc9d"?>
<x:xmpmeta xmlns:x="adobe:ns:meta/" x:xmptk="Adobe XMP Core 8.0-c001 1.000000, 0000/00/00-00:00:00        ">
   <rdf:RDF xmlns:rdf="http://www.w3.org/1999/02/22-rdf-syntax-ns#">
      <rdf:Description rdf:about=""
            xmlns:dc="http://purl.org/dc/elements/1.1/"
            xmlns:xmp="http://ns.adobe.com/xap/1.0/"
            xmlns:tiff="http://ns.adobe.com/tiff/1.0/">
         <dc:modified>2025-02-18T21:27:29.473Z</dc:modified>
         <dc:format>image/svg+xml</dc:format>
         <dc:title>
            <rdf:Alt>
               <rdf:li xml:lang="x-default">rh-ui-icon-light-mode</rdf:li>
            </rdf:Alt>
         </dc:title>
         <dc:description>
            <rdf:Alt>
               <rdf:li xml:lang="x-default">sun, moon, starburst, automatic, system settings, daylight, night</rdf:li>
            </rdf:Alt>
         </dc:description>
         <xmp:brand-logo-color>Black</xmp:brand-logo-color>
         <xmp:rhcc-file-last-modified>2025-02-18T21:14:29.796Z</xmp:rhcc-file-last-modified>
         <xmp:rhcc-aspect-ratio>square</xmp:rhcc-aspect-ratio>
         <xmp:brand-content-subtype>UI</xmp:brand-content-subtype>
         <xmp:rhcc-rights-restricted>no</xmp:rhcc-rights-restricted>
         <xmp:brand-content-type>Icon</xmp:brand-content-type>
         <xmp:brand-colorway>
            <rdf:Bag>
               <rdf:li>colorway:black</rdf:li>
            </rdf:Bag>
         </xmp:brand-colorway>
         <tiff:ImageLength>32</tiff:ImageLength>
         <tiff:ImageWidth>32</tiff:ImageWidth>
      </rdf:Description>
   </rdf:RDF>
</x:xmpmeta>
                                                                                                    
                                                                                                    
                                                                                                    
                                                                                                    
                                                                                                    
                                                                                                    
                                                                                                    
                                                                                                    
                                                                                                    
                                                                                                    
                                                                                                    
                                                                                                    
                                                                                                    
                                                                                                    
                                                                                                    
                                                                                                    
                                                                                                    
                                                                                                    
                                                                                                    
                                                                                                    
                           
<?xpacket end="w"?></metadata>
<defs>
    <style>
      .st0 {
        fill: none;
      }

      .st1 {
        fill: #151515;
      }
    </style>
  </defs>
  <path class="st1" d="M16,7c-4.963,0-9,4.038-9,9s4.037,9,9,9,9-4.038,9-9-4.037-9-9-9ZM16,23c-3.859,0-7-3.14-7-7s3.141-7,7-7,7,3.14,7,7-3.141,7-7,7ZM15,4V1c0-.552.447-1,1-1s1,.448,1,1v3c0,.552-.447,1-1,1s-1-.448-1-1ZM17,28v3c0,.552-.447,1-1,1s-1-.448-1-1v-3c0-.552.447-1,1-1s1,.448,1,1ZM32,16c0,.552-.447,1-1,1h-3c-.553,0-1-.448-1-1s.447-1,1-1h3c.553,0,1,.448,1,1ZM4,17H1c-.553,0-1-.448-1-1s.447-1,1-1h3c.553,0,1,.448,1,1s-.447,1-1,1ZM7.707,24.293c.391.391.391,1.023,0,1.414l-2,2c-.195.195-.451.293-.707.293s-.512-.098-.707-.293c-.391-.391-.391-1.023,0-1.414l2-2c.391-.391,1.023-.391,1.414,0ZM24.293,7.707c-.391-.391-.391-1.023,0-1.414l2-2c.391-.391,1.023-.391,1.414,0s.391,1.023,0,1.414l-2,2c-.195.195-.451.293-.707.293s-.512-.098-.707-.293ZM4.293,5.707c-.391-.391-.391-1.023,0-1.414s1.023-.391,1.414,0l2,2c.391.391.391,1.023,0,1.414-.195.195-.451.293-.707.293s-.512-.098-.707-.293l-2-2ZM27.707,26.293c.391.391.391,1.023,0,1.414-.195.195-.451.293-.707.293s-.512-.098-.707-.293l-2-2c-.391-.391-.391-1.023,0-1.414s1.023-.391,1.414,0l2,2Z"/>
  <rect id="transparent_rectangle" class="st0" width="32" height="32"/>
</svg>