<?xml version="1.0" encoding="UTF-8"?>
<svg id="icon142" data-name="icon" xmlns="http://www.w3.org/2000/svg" width="32" height="32" version="1.1" viewBox="0 0 32 32">
  <!-- Generator: Adobe Illustrator 29.8.2, SVG Export Plug-In . SVG Version: 2.1.1 Build 3)  -->
  <title>rh-ui-icon-degraded-fill</title>
<metadata><?xpacket begin="﻿" id="W5M0MpCehiHzreSzNTczkc9d"?>
<x:xmpmeta xmlns:x="adobe:ns:meta/" x:xmptk="Adobe XMP Core 8.0-c001 1.000000, 0000/00/00-00:00:00        ">
   <rdf:RDF xmlns:rdf="http://www.w3.org/1999/02/22-rdf-syntax-ns#">
      <rdf:Description rdf:about=""
            xmlns:xmp="http://ns.adobe.com/xap/1.0/"
            xmlns:dc="http://purl.org/dc/elements/1.1/"
            xmlns:tiff="http://ns.adobe.com/tiff/1.0/">
         <xmp:brand-content-subtype>UI</xmp:brand-content-subtype>
         <xmp:rhcc-rights-restricted>no</xmp:rhcc-rights-restricted>
         <xmp:rhcc-file-last-modified>2025-10-14T20:44:29.256Z</xmp:rhcc-file-last-modified>
         <xmp:brand-content-type>Icon</xmp:brand-content-type>
         <xmp:brand-colorway>
            <rdf:Bag>
               <rdf:li>colorway:black</rdf:li>
            </rdf:Bag>
         </xmp:brand-colorway>
         <dc:modified>2025-10-14T20:49:45.681Z</dc:modified>
         <dc:format>image/svg+xml</dc:format>
         <dc:title>
            <rdf:Alt>
               <rdf:li xml:lang="x-default">rh-ui-icon-degraded-fill</rdf:li>
            </rdf:Alt>
         </dc:title>
         <tiff:ImageLength>32</tiff:ImageLength>
         <tiff:ImageWidth>32</tiff:ImageWidth>
      </rdf:Description>
   </rdf:RDF>
</x:xmpmeta>
                                                                                                    
                                                                                                    
                                                                                                    
                                                                                                    
                                                                                                    
                                                                                                    
                                                                                                    
                                                                                                    
                                                                                                    
                                                                                                    
                                                                                                    
                                                                                                    
                                                                                                    
                                                                                                    
                                                                                                    
                                                       
<?xpacket end="w"?></metadata>
<defs>
    <style>
      .st0 {
        fill: none;
      }

      .st1 {
        fill: #151515;
      }
    </style>
  </defs>
  <path class="st1" d="M16,24.5c5.588,0,10.368-1.664,12.929-4.188v3.188c0,3.523-5.92,6.5-12.929,6.5s-12.929-2.977-12.929-6.5v-3.188c2.561,2.523,7.34,4.188,12.929,4.188ZM25.415,15.136c1.433-.653,2.616-1.444,3.514-2.33v3.194c0,3.523-5.92,6.5-12.929,6.5s-12.929-2.977-12.929-6.5v-3.194c.898.886,2.081,1.677,3.514,2.33.504.229,1.096.008,1.325-.495.229-.503.008-1.096-.495-1.325-.615-.28-1.161-.588-1.654-.913-.096-.063-.193-.126-.285-.191-.194-.138-.377-.279-.55-.422-.037-.031-.079-.06-.115-.091-.214-.185-.408-.375-.584-.568-.026-.029-.048-.059-.073-.088-.143-.164-.273-.33-.389-.498-.035-.051-.066-.102-.099-.154-.095-.15-.178-.302-.25-.455-.027-.058-.055-.116-.079-.175-.063-.154-.112-.309-.152-.464-.014-.055-.034-.11-.045-.166-.043-.209-.069-.419-.069-.63,0-3.523,5.92-6.5,12.929-6.5s12.929,2.977,12.929,6.5c0,.211-.026.421-.069.63-.011.056-.031.111-.045.166-.04.156-.089.311-.152.464-.024.059-.052.117-.079.175-.072.153-.155.305-.25.455-.032.051-.064.103-.099.154-.115.168-.246.334-.389.498-.026.029-.047.059-.073.088-.176.193-.371.383-.584.568-.036.031-.078.061-.115.091-.172.144-.355.285-.55.422-.092.065-.189.128-.285.191-.493.324-1.04.633-1.654.913-.502.229-.724.822-.495,1.325.229.503.821.722,1.325.495ZM17.768,13l4.116-4.116c.488-.488.488-1.279,0-1.768s-1.279-.488-1.768,0l-4.116,4.116-4.116-4.116c-.488-.488-1.279-.488-1.768,0s-.488,1.279,0,1.768l4.116,4.116-4.116,4.116c-.488.488-.488,1.279,0,1.768.244.244.564.366.884.366s.64-.122.884-.366l4.116-4.116,4.116,4.116c.244.244.564.366.884.366s.64-.122.884-.366c.488-.488.488-1.279,0-1.768l-4.116-4.116Z"/>
  <rect class="st0" width="32" height="32"/>
</svg>