<?xml version="1.0" encoding="UTF-8"?>
<svg id="icon201" data-name="icon" xmlns="http://www.w3.org/2000/svg" width="32" height="32" version="1.1" viewBox="0 0 32 32">
  <!-- Generator: Adobe Illustrator 29.8.2, SVG Export Plug-In . SVG Version: 2.1.1 Build 3)  -->
  <title>rh-ui-icon-optimize-fill</title>
<metadata><?xpacket begin="﻿" id="W5M0MpCehiHzreSzNTczkc9d"?>
<x:xmpmeta xmlns:x="adobe:ns:meta/" x:xmptk="Adobe XMP Core 8.0-c001 1.000000, 0000/00/00-00:00:00        ">
   <rdf:RDF xmlns:rdf="http://www.w3.org/1999/02/22-rdf-syntax-ns#">
      <rdf:Description rdf:about=""
            xmlns:xmp="http://ns.adobe.com/xap/1.0/"
            xmlns:dc="http://purl.org/dc/elements/1.1/"
            xmlns:tiff="http://ns.adobe.com/tiff/1.0/">
         <xmp:brand-content-subtype>UI</xmp:brand-content-subtype>
         <xmp:rhcc-rights-restricted>no</xmp:rhcc-rights-restricted>
         <xmp:rhcc-file-last-modified>2025-10-14T20:44:34.883Z</xmp:rhcc-file-last-modified>
         <xmp:brand-content-type>Icon</xmp:brand-content-type>
         <xmp:brand-colorway>
            <rdf:Bag>
               <rdf:li>colorway:black</rdf:li>
            </rdf:Bag>
         </xmp:brand-colorway>
         <dc:modified>2025-10-14T20:50:54.348Z</dc:modified>
         <dc:format>image/svg+xml</dc:format>
         <dc:title>
            <rdf:Alt>
               <rdf:li xml:lang="x-default">rh-ui-icon-optimize-fill</rdf:li>
            </rdf:Alt>
         </dc:title>
         <tiff:ImageLength>32</tiff:ImageLength>
         <tiff:ImageWidth>32</tiff:ImageWidth>
      </rdf:Description>
   </rdf:RDF>
</x:xmpmeta>
                                                                                                    
                                                                                                    
                                                                                                    
                                                                                                    
                                                                                                    
                                                                                                    
                                                                                                    
                                                                                                    
                                                                                                    
                                                                                                    
                                                                                                    
                                                                                                    
                                                                                                    
                                                                                                    
                                                                                                    
                                                                                                    
                                                                                                    
               
<?xpacket end="w"?></metadata>
<defs>
    <style>
      .st0 {
        fill: none;
      }

      .st1 {
        fill: #151515;
      }
    </style>
  </defs>
  <path class="st1" d="M19.061,8.646c-.584-.585-1.537-.585-2.121,0l-10.646,10.646c-.105.105-.177.228-.225.358l-3.981,8.942c-.004.008-.002.017-.006.025-.029.07-.036.145-.049.22-.009.055-.029.107-.028.162,0,.054.019.107.028.162.013.075.02.15.049.22.003.008.002.017.006.025.044.1.105.188.175.265.013.015.031.025.045.039.073.072.156.129.246.175.015.008.025.022.041.029.014.006.029.004.044.009.114.045.233.076.357.077.001,0,.003,0,.004,0,0,0,0,0,0,0s0,0,0,0c.001,0,.003,0,.004,0,.124,0,.243-.032.357-.077.014-.006.03-.003.044-.009l8.943-3.982c.13-.049.253-.12.357-.225l10.646-10.646c.283-.283.439-.66.439-1.061s-.156-.777-.439-1.061l-4.293-4.293ZM4.972,27.027l2.354-5.287,2.933,2.933-5.287,2.354ZM26,11.792c-.384,0-.769-.146-1.061-.438l-4.293-4.293c-.283-.283-.439-.66-.439-1.061s.156-.777.439-1.061l2.293-2.293c.584-.585,1.537-.585,2.121,0l4.293,4.293c.283.283.439.66.439,1.061s-.156.777-.439,1.061l-2.293,2.293c-.292.292-.677.438-1.061.438ZM2,10c0-.553.447-1,1-1h3c.553,0,1,.447,1,1s-.447,1-1,1h-3c-.553,0-1-.447-1-1ZM9,6v-3c0-.553.447-1,1-1s1,.447,1,1v3c0,.553-.447,1-1,1s-1-.447-1-1ZM3.293,4.707c-.391-.391-.391-1.023,0-1.414s1.023-.391,1.414,0l2,2c.391.391.391,1.023,0,1.414-.195.195-.451.293-.707.293s-.512-.098-.707-.293l-2-2ZM30,22c0,.553-.447,1-1,1h-3c-.553,0-1-.447-1-1s.447-1,1-1h3c.553,0,1,.447,1,1ZM23,26v3c0,.553-.447,1-1,1s-1-.447-1-1v-3c0-.553.447-1,1-1s1,.447,1,1ZM28.675,27.09c.407.373.436,1.005.063,1.413-.197.216-.468.325-.738.325-.241,0-.482-.087-.675-.262l-2-1.828c-.407-.373-.436-1.005-.063-1.413.373-.408,1.006-.435,1.413-.063l2,1.828Z"/>
  <rect class="st0" width="32" height="32"/>
</svg>