<?xml version="1.0" encoding="UTF-8"?>
<svg id="icon13" data-name="icon" xmlns="http://www.w3.org/2000/svg" width="32" height="32" version="1.1" viewBox="0 0 32 32">
  <!-- Generator: Adobe Illustrator 29.8.2, SVG Export Plug-In . SVG Version: 2.1.1 Build 3)  -->
  <defs>
    <style>
      .st0 {
        fill: none;
      }

      .st1 {
        fill: #151515;
      }
    </style>
  </defs>
  <path class="st1" d="M31,16c0,4.259-1.822,8.333-4.998,11.177-2.759,2.471-6.345,3.82-10.039,3.82-.555,0-1.111-.03-1.668-.092-6.887-.762-12.439-6.314-13.201-13.201-.472-4.267.887-8.534,3.729-11.707C7.667,2.822,11.741,1,16,1c.552,0,1,.448,1,1v12.004c0,.549.447.996.996.996h12.004c.552,0,1,.448,1,1ZM21,12h8.07c.329,0,.637-.162.823-.432s.229-.616.111-.923c-1.513-3.983-4.666-7.136-8.649-8.649-.307-.117-.652-.075-.923.111s-.432.495-.432.823v8.07c0,.552.448,1,1,1Z"/>
  <rect class="st0" width="32" height="32"/>
</svg>