<?xml version="1.0" encoding="UTF-8"?>
<svg id="icon154" data-name="icon" xmlns="http://www.w3.org/2000/svg" width="32" height="32" version="1.1" viewBox="0 0 32 32">
  <!-- Generator: Adobe Illustrator 29.8.2, SVG Export Plug-In . SVG Version: 2.1.1 Build 3)  -->
  <defs>
    <style>
      .st0 {
        fill: none;
      }

      .st1 {
        fill: #151515;
      }
    </style>
  </defs>
  <path class="st1" d="M16,23.75h2v4.25c0,.552-.447,1-1,1s-1-.448-1-1v-4.25ZM26.737,13.419c.009-.145.013-.283.013-.419,0-4.825-3.925-8.75-8.75-8.75-3.868,0-7.266,2.563-8.372,6.203-.534-.135-1.079-.203-1.628-.203-3.722,0-6.75,3.028-6.75,6.75s3.028,6.75,6.75,6.75h7.875v-9.034l-2.079,2.079c-.439.439-1.152.439-1.592,0-.438-.439-.438-1.151,0-1.591l3.646-3.646c.615-.614,1.684-.614,2.299,0l3.646,3.646c.438.439.438,1.151,0,1.591-.22.22-.508.33-.796.33s-.576-.11-.796-.33l-2.079-2.079v9.034h7.375c2.895,0,5.25-2.355,5.25-5.25,0-2.456-1.68-4.523-4.013-5.081Z"/>
  <rect class="st0" width="32" height="32"/>
</svg>