<?xml version="1.0" encoding="UTF-8"?>
<svg id="icon12" data-name="icon" xmlns="http://www.w3.org/2000/svg" width="32" height="32" version="1.1" viewBox="0 0 32 32">
  <!-- Generator: Adobe Illustrator 29.8.2, SVG Export Plug-In . SVG Version: 2.1.1 Build 3)  -->
  <defs>
    <style>
      .st0 {
        fill: none;
      }

      .st1 {
        fill: #151515;
      }
    </style>
  </defs>
  <path class="st1" d="M18,3v26c0,.382-.218.73-.561.898-.14.068-.29.102-.439.102-.218,0-.435-.071-.614-.21l-8.729-6.79H2.5c-.827,0-1.5-.673-1.5-1.5v-11c0-.827.673-1.5,1.5-1.5h5.157l8.729-6.79c.302-.234.711-.275,1.053-.109.343.168.561.517.561.898ZM27.414,16l3.293-3.293c.391-.391.391-1.023,0-1.414s-1.023-.391-1.414,0l-3.293,3.293-3.293-3.293c-.391-.391-1.023-.391-1.414,0s-.391,1.023,0,1.414l3.293,3.293-3.293,3.293c-.391.391-.391,1.023,0,1.414.195.195.451.293.707.293s.512-.098.707-.293l3.293-3.293,3.293,3.293c.195.195.451.293.707.293s.512-.098.707-.293c.391-.391.391-1.023,0-1.414l-3.293-3.293Z"/>
  <rect class="st0" width="32" height="32"/>
</svg>