<?xml version="1.0" encoding="UTF-8"?>
<svg id="icon225" data-name="icon" xmlns="http://www.w3.org/2000/svg" width="32" height="32" version="1.1" viewBox="0 0 32 32">
  <!-- Generator: Adobe Illustrator 29.8.2, SVG Export Plug-In . SVG Version: 2.1.1 Build 3)  -->
  <defs>
    <style>
      .st0 {
        fill: none;
      }

      .st1 {
        fill: #151515;
      }
    </style>
  </defs>
  <path class="st1" d="M6.808,25.192c.391.391.391,1.023,0,1.414-.195.195-.451.293-.707.293s-.512-.098-.707-.293C.919,22.132-.268,15.286,2.443,9.571c.236-.498.832-.711,1.332-.475.499.236.712.833.475,1.332-2.349,4.953-1.321,10.886,2.558,14.764ZM9.055,15.125c.068-.548-.319-1.048-.868-1.117-.551-.072-1.048.32-1.116.868-.349,2.779.586,5.509,2.565,7.488.195.195.451.293.707.293s.512-.098.707-.293c.391-.39.391-1.023,0-1.414-1.539-1.54-2.267-3.663-1.995-5.825ZM27.279,25.865c2.398-2.734,3.721-6.194,3.721-9.865,0-4.007-1.561-7.773-4.394-10.606-.391-.391-1.023-.391-1.414,0s-.391,1.023,0,1.414c2.455,2.456,3.808,5.72,3.808,9.192,0,3.136-1.113,6.097-3.135,8.451l-2.836-2.836c2.824-3.53,2.605-8.709-.665-11.979-.391-.391-1.023-.391-1.414,0s-.391,1.023,0,1.414c2.489,2.489,2.701,6.397.65,9.136L3.707,2.293c-.391-.391-1.023-.391-1.414,0s-.391,1.023,0,1.414l26,26c.195.195.451.293.707.293s.512-.098.707-.293c.391-.391.391-1.023,0-1.414l-2.428-2.428Z"/>
  <rect id="transparent_rectangle" class="st0" width="32" height="32"/>
</svg>