<?xml version="1.0" encoding="UTF-8"?>
<svg id="icon53" data-name="icon" xmlns="http://www.w3.org/2000/svg" width="32" height="32" version="1.1" viewBox="0 0 32 32">
  <!-- Generator: Adobe Illustrator 29.8.2, SVG Export Plug-In . SVG Version: 2.1.1 Build 3)  -->
  <defs>
    <style>
      .st0 {
        fill: none;
      }

      .st1 {
        fill: #151515;
      }
    </style>
  </defs>
  <path class="st1" d="M30,17.125v11.375c0,.827-.673,1.5-1.5,1.5H3.5c-.827,0-1.5-.673-1.5-1.5v-11.375h8.284l-3.08,3.08c-.439.439-.439,1.151,0,1.591.22.22.507.33.795.33s.576-.11.795-.33l4.646-4.646c.634-.633.634-1.665,0-2.298l-4.646-4.646c-.439-.439-1.151-.439-1.591,0s-.439,1.151,0,1.591l3.08,3.08H2V3.5c0-.827.673-1.5,1.5-1.5h25c.827,0,1.5.673,1.5,1.5v11.375h-8.284l3.08-3.08c.439-.439.439-1.151,0-1.591s-1.151-.439-1.591,0l-4.646,4.646c-.634.633-.634,1.665,0,2.298l4.646,4.646c.22.22.507.33.795.33s.576-.11.795-.33c.439-.439.439-1.151,0-1.591l-3.08-3.08h8.284Z"/>
  <rect class="st0" width="32" height="32"/>
</svg>