<?xml version="1.0" encoding="UTF-8"?>
<svg id="icon138" data-name="icon" xmlns="http://www.w3.org/2000/svg" width="32" height="32" version="1.1" viewBox="0 0 32 32">
  <!-- Generator: Adobe Illustrator 29.8.2, SVG Export Plug-In . SVG Version: 2.1.1 Build 3)  -->
  <defs>
    <style>
      .st0 {
        fill: none;
      }

      .st1 {
        fill: #151515;
      }
    </style>
  </defs>
  <path class="st1" d="M31,20c0,5.514-4.486,10-10,10H6c-.553,0-1-.447-1-1s.447-1,1-1h15c4.411,0,8-3.589,8-8s-3.589-8-8-8H4.414l6.293,6.293c.391.391.391,1.023,0,1.414-.195.195-.451.293-.707.293s-.512-.098-.707-.293L1.646,12.061c-.283-.283-.439-.66-.439-1.061s.156-.777.439-1.061l7.646-7.646c.391-.391,1.023-.391,1.414,0s.391,1.023,0,1.414l-6.293,6.293h16.586c5.514,0,10,4.486,10,10Z"/>
  <rect id="transparent_rectangle" class="st0" width="32" height="32"/>
</svg>