<?xml version="1.0" encoding="UTF-8"?>
<svg id="icon107" data-name="icon" xmlns="http://www.w3.org/2000/svg" width="32" height="32" version="1.1" viewBox="0 0 32 32">
  <!-- Generator: Adobe Illustrator 29.8.2, SVG Export Plug-In . SVG Version: 2.1.1 Build 3)  -->
  <defs>
    <style>
      .st0 {
        fill: none;
      }

      .st1 {
        fill: #151515;
      }
    </style>
  </defs>
  <path class="st1" d="M23.5,7h-3.5V2.5c0-.827-.673-1.5-1.5-1.5h-5c-.827,0-1.5.673-1.5,1.5v4.5h-3.5c-.827,0-1.5.673-1.5,1.5v17c0,.827.673,1.5,1.5,1.5h15c.827,0,1.5-.673,1.5-1.5V8.5c0-.827-.673-1.5-1.5-1.5ZM14,3h4v4h-4V3ZM14.125,21c0,.621-.504,1.125-1.125,1.125s-1.125-.504-1.125-1.125v-8c0-.621.504-1.125,1.125-1.125s1.125.504,1.125,1.125v8ZM20.125,21c0,.621-.504,1.125-1.125,1.125s-1.125-.504-1.125-1.125v-8c0-.621.504-1.125,1.125-1.125s1.125.504,1.125,1.125v8ZM23.63,30.013c0,.897-.728,1.625-1.625,1.625s-1.625-.728-1.625-1.625.728-1.625,1.625-1.625,1.625.728,1.625,1.625ZM11.625,30.003c0,.897-.728,1.625-1.625,1.625s-1.625-.728-1.625-1.625.728-1.625,1.625-1.625,1.625.728,1.625,1.625Z"/>
  <rect class="st0" width="32" height="32"/>
</svg>