<?xml version="1.0" encoding="UTF-8"?>
<svg id="icon206" data-name="icon" xmlns="http://www.w3.org/2000/svg" width="32" height="32" version="1.1" viewBox="0 0 32 32">
  <!-- Generator: Adobe Illustrator 29.8.2, SVG Export Plug-In . SVG Version: 2.1.1 Build 3)  -->
  <title>rh-ui-icon-folder-open</title>
<metadata><?xpacket begin="﻿" id="W5M0MpCehiHzreSzNTczkc9d"?>
<x:xmpmeta xmlns:x="adobe:ns:meta/" x:xmptk="Adobe XMP Core 8.0-c001 1.000000, 0000/00/00-00:00:00        ">
   <rdf:RDF xmlns:rdf="http://www.w3.org/1999/02/22-rdf-syntax-ns#">
      <rdf:Description rdf:about=""
            xmlns:xmp="http://ns.adobe.com/xap/1.0/"
            xmlns:dc="http://purl.org/dc/elements/1.1/"
            xmlns:tiff="http://ns.adobe.com/tiff/1.0/">
         <xmp:brand-content-subtype>UI</xmp:brand-content-subtype>
         <xmp:rhcc-rights-restricted>no</xmp:rhcc-rights-restricted>
         <xmp:rhcc-file-last-modified>2025-10-14T20:46:22.661Z</xmp:rhcc-file-last-modified>
         <xmp:brand-content-type>Icon</xmp:brand-content-type>
         <xmp:brand-colorway>
            <rdf:Bag>
               <rdf:li>colorway:black</rdf:li>
            </rdf:Bag>
         </xmp:brand-colorway>
         <dc:modified>2025-10-14T20:49:54.143Z</dc:modified>
         <dc:format>image/svg+xml</dc:format>
         <dc:title>
            <rdf:Alt>
               <rdf:li xml:lang="x-default">rh-ui-icon-folder-open</rdf:li>
            </rdf:Alt>
         </dc:title>
         <tiff:ImageLength>32</tiff:ImageLength>
         <tiff:ImageWidth>32</tiff:ImageWidth>
      </rdf:Description>
   </rdf:RDF>
</x:xmpmeta>
                                                                                                    
                                                                                                    
                                                                                                    
                                                                                                    
                                                                                                    
                                                                                                    
                                                                                                    
                                                                                                    
                                                                                                    
                                                                                                    
                                                                                                    
                                                                                                    
                                                                                                    
                                                                                                    
                                                                                                    
                                                         
<?xpacket end="w"?></metadata>
<defs>
    <style>
      .st0 {
        fill: none;
      }

      .st1 {
        fill: #151515;
      }
    </style>
  </defs>
  <path class="st1" d="M30.777,12.271c-.19-.234-.476-.371-.777-.371H5.84c-.451,0-.847.302-.965.737l-1.875,6.885v-9.523h3c.473,0,.88-.33.979-.792l.681-3.208h7.682l.681,3.208c.099.462.506.792.979.792h11c.553,0,1-.447,1-1s-.447-1-1-1h-10.19l-.681-3.208c-.099-.462-.506-.792-.979-.792H6.85c-.473,0-.88.33-.979.792l-.681,3.208h-2.69c-.827,0-1.5.673-1.5,1.5v17.5c0,.038.018.071.022.108.006.058.017.11.033.166.026.088.062.167.109.243.018.029.02.064.041.091.012.016.032.022.046.037.066.077.144.136.23.189.035.022.064.051.101.068.128.059.267.098.418.098h25c.472,0,.88-.33.979-.792l3-14.1c.062-.295-.012-.603-.201-.837ZM26.19,26H3.309l3.295-12.1h22.161l-2.574,12.1Z"/>
  <rect id="transparent_rectangle" class="st0" width="32" height="32"/>
</svg>