<?xml version="1.0" encoding="UTF-8"?>
<svg id="icon35" data-name="icon" xmlns="http://www.w3.org/2000/svg" width="32" height="32" version="1.1" viewBox="0 0 32 32">
  <!-- Generator: Adobe Illustrator 29.8.2, SVG Export Plug-In . SVG Version: 2.1.1 Build 3)  -->
  <defs>
    <style>
      .st0 {
        fill: none;
      }

      .st1 {
        fill: #151515;
      }
    </style>
  </defs>
  <path class="st1" d="M23,17c0,3.86-3.141,7-7,7-1.825,0-3.483-.708-4.73-1.855l-7.562,7.562c-.195.195-.451.293-.707.293s-.512-.098-.707-.293c-.391-.391-.391-1.023,0-1.414l7.707-7.707c-.63-1.05-1-2.275-1-3.586,0-3.521,2.612-6.442,6-6.929v-2.071h-2.5c-.827,0-1.5-.673-1.5-1.5v-3.5c0-.552.447-1,1-1s1,.448,1,1v3h6v-3c0-.552.447-1,1-1s1,.448,1,1v3.5c0,.827-.673,1.5-1.5,1.5h-2.5v3c0,.552-.447,1-1,1-2.757,0-5,2.243-5,5,0,.754.18,1.463.481,2.105l3.459-3.459c.584-.585,1.537-.585,2.121,0l1.646,1.646c.391.391.391,1.023,0,1.414s-1.023.391-1.414,0l-1.293-1.293-3.307,3.307c.884.786,2.034,1.279,3.307,1.279,2.757,0,5-2.243,5-5,0-.552.447-1,1-1s1,.448,1,1ZM29.707,28.293l-6-6c-.391-.391-1.023-.391-1.414,0s-.391,1.023,0,1.414l6,6c.195.195.451.293.707.293s.512-.098.707-.293c.391-.391.391-1.023,0-1.414Z"/>
  <rect id="transparent_rectangle" class="st0" width="32" height="32"/>
</svg>