<?xml version="1.0" encoding="UTF-8"?>
<svg id="icon219" data-name="icon" xmlns="http://www.w3.org/2000/svg" width="32" height="32" version="1.1" viewBox="0 0 32 32">
  <!-- Generator: Adobe Illustrator 29.8.2, SVG Export Plug-In . SVG Version: 2.1.1 Build 3)  -->
  <title>rh-ui-icon-zone</title>
<metadata><?xpacket begin="﻿" id="W5M0MpCehiHzreSzNTczkc9d"?>
<x:xmpmeta xmlns:x="adobe:ns:meta/" x:xmptk="Adobe XMP Core 8.0-c001 1.000000, 0000/00/00-00:00:00        ">
   <rdf:RDF xmlns:rdf="http://www.w3.org/1999/02/22-rdf-syntax-ns#">
      <rdf:Description rdf:about=""
            xmlns:tiff="http://ns.adobe.com/tiff/1.0/"
            xmlns:dc="http://purl.org/dc/elements/1.1/">
         <tiff:ImageLength>32</tiff:ImageLength>
         <tiff:ImageWidth>32</tiff:ImageWidth>
         <dc:format>image/svg+xml</dc:format>
         <dc:modified>2025-11-24T17:29:15.695Z</dc:modified>
         <dc:title>
            <rdf:Alt>
               <rdf:li xml:lang="x-default">rh-ui-icon-zone</rdf:li>
            </rdf:Alt>
         </dc:title>
      </rdf:Description>
   </rdf:RDF>
</x:xmpmeta>
                                                                                                    
                                                                                                    
                                                                                                    
                                                                                                    
                                                                                                    
                                                                                                    
                                                                                                    
                                                                                                    
                                                                                                    
                                                                                                    
                                                                                                    
                                                                                                    
                                                                                                    
                                                                                                    
                                                                                                    
                                                                                                    
                                                                                                    
                                                                                                    
                                                                                                    
                                                                                                    
                           
<?xpacket end="w"?></metadata>
<defs>
    <style>
      .st0 {
        fill: none;
      }

      .st1 {
        fill: #151515;
      }
    </style>
  </defs>
  <path class="st1" d="M31,12c0-5.514-4.486-10-10-10-1.822,0-3.527.498-5,1.353-1.473-.855-3.178-1.353-5-1.353C5.486,2,1,6.486,1,12c0,3.699,2.024,6.928,5.017,8.657-.004.115-.017.227-.017.343,0,5.514,4.486,10,10,10s10-4.486,10-10c0-.116-.013-.228-.017-.343,2.994-1.73,5.017-4.959,5.017-8.657ZM3,12c0-4.411,3.589-8,8-8,1.143,0,2.228.245,3.212.678-1.97,1.828-3.212,4.429-3.212,7.322,0,.116.013.228.017.343-2.289,1.323-4.002,3.524-4.684,6.142-2.015-1.454-3.333-3.816-3.333-6.484ZM18.972,11.451c-.939-.293-1.938-.451-2.972-.451s-2.033.158-2.972.451c.157-2.295,1.28-4.326,2.972-5.686,1.692,1.36,2.815,3.391,2.972,5.686ZM16,18.235c-1.446-1.162-2.48-2.813-2.849-4.701.886-.339,1.844-.534,2.849-.534s1.962.194,2.849.534c-.368,1.889-1.403,3.54-2.849,4.701ZM20.667,14.516c1.618,1.168,2.786,2.921,3.182,4.951-.886.339-1.844.534-2.849.534-1.143,0-2.228-.245-3.212-.678,1.377-1.278,2.391-2.934,2.879-4.806ZM14.212,19.322c-.984.433-2.069.678-3.212.678-1.004,0-1.962-.194-2.849-.534.396-2.03,1.564-3.783,3.182-4.951.488,1.872,1.501,3.528,2.879,4.806ZM16,29c-4.226,0-7.688-3.296-7.972-7.451.939.293,1.938.451,2.972.451,1.822,0,3.527-.498,5-1.353,1.473.855,3.178,1.353,5,1.353,1.035,0,2.033-.158,2.972-.451-.284,4.155-3.746,7.451-7.972,7.451ZM25.667,18.484c-.682-2.618-2.395-4.819-4.684-6.142.004-.115.017-.227.017-.343,0-2.892-1.242-5.494-3.212-7.322.984-.433,2.069-.678,3.212-.678,4.411,0,8,3.589,8,8,0,2.669-1.319,5.03-3.333,6.484Z"/>
  <rect id="transparent_rectangle" class="st0" width="32" height="32"/>
</svg>