<?xml version="1.0" encoding="UTF-8"?><svg id="uuid-4b377be2-0ca7-4093-8c55-205e933ee8ba" xmlns="http://www.w3.org/2000/svg" viewBox="0 0 38 38"><title>Infrastructure operator for Red Hat OpenShift icon</title>
<desc>Cloud</desc>
<metadata><?xpacket begin="﻿" id="W5M0MpCehiHzreSzNTczkc9d"?>
<x:xmpmeta xmlns:x="adobe:ns:meta/" x:xmptk="Adobe XMP Core 8.0-c001 1.000000, 0000/00/00-00:00:00        ">
   <rdf:RDF xmlns:rdf="http://www.w3.org/1999/02/22-rdf-syntax-ns#">
      <rdf:Description rdf:about=""
            xmlns:xmp="http://ns.adobe.com/xap/1.0/"
            xmlns:dc="http://purl.org/dc/elements/1.1/"
            xmlns:cq="http://www.day.com/jcr/cq/1.0"
            xmlns:tiff="http://ns.adobe.com/tiff/1.0/"
            xmlns:xmpRights="http://ns.adobe.com/xap/1.0/rights/">
         <xmp:rhcc-effective-on>2024-03-01T15:28:10.638Z</xmp:rhcc-effective-on>
         <xmp:rhcc-metadata-complete-moderator>pending</xmp:rhcc-metadata-complete-moderator>
         <xmp:rhcc-translation-id>TRA837dc4cf-db94-4b00-9767-f379df51d1a9</xmp:rhcc-translation-id>
         <xmp:brand-content-type>Icon</xmp:brand-content-type>
         <xmp:CreateDate>2024-03-01T15:28:10.638Z</xmp:CreateDate>
         <xmp:rhcc-aspect-ratio>square</xmp:rhcc-aspect-ratio>
         <xmp:rhcc-effective-on-set-on-upload>true</xmp:rhcc-effective-on-set-on-upload>
         <xmp:rhcc-metadata-complete-uploader>pending</xmp:rhcc-metadata-complete-uploader>
         <xmp:rhcc-file-last-modified>2024-07-12T23:52:24.958Z</xmp:rhcc-file-last-modified>
         <xmp:rhcc-audience>rhcc-audience:internal</xmp:rhcc-audience>
         <xmp:rhcc-rights-restricted>no</xmp:rhcc-rights-restricted>
         <xmp:brand-content-subtype>Technology icon</xmp:brand-content-subtype>
         <xmp:rhcc-derivative-id>DER837dc4cf-db94-4b00-9767-f379df51d1a9</xmp:rhcc-derivative-id>
         <xmp:rhcc-uploaded-by>pmeilleu@redhat.com</xmp:rhcc-uploaded-by>
         <xmp:brand-logo-color>Red</xmp:brand-logo-color>
         <xmp:rhcc-notify-portal-subscribers-on-change>yes</xmp:rhcc-notify-portal-subscribers-on-change>
         <xmp:rhcc-product>
            <rdf:Bag>
               <rdf:li>rhcc-product:red-hat-openshift</rdf:li>
            </rdf:Bag>
         </xmp:rhcc-product>
         <xmp:brand-subtype>
            <rdf:Bag>
               <rdf:li>Technology icon</rdf:li>
            </rdf:Bag>
         </xmp:brand-subtype>
         <dc:format>image/svg+xml</dc:format>
         <dc:modified>2024-05-10T13:25:43.196Z</dc:modified>
         <dc:title>
            <rdf:Alt>
               <rdf:li xml:lang="x-default">Infrastructure operator for Red Hat OpenShift icon</rdf:li>
            </rdf:Alt>
         </dc:title>
         <dc:description>
            <rdf:Alt>
               <rdf:li xml:lang="x-default">Cloud</rdf:li>
            </rdf:Alt>
         </dc:description>
         <cq:lastReplicationAction_scene7>Activate</cq:lastReplicationAction_scene7>
         <cq:lastReplicationAction_publish>Activate</cq:lastReplicationAction_publish>
         <cq:lastReplicated_publish>2024-10-02T19:51:24.270Z</cq:lastReplicated_publish>
         <cq:lastReplicatedBy>workflow-process-service</cq:lastReplicatedBy>
         <cq:lastReplicationAction>Activate</cq:lastReplicationAction>
         <cq:lastReplicatedBy_publish>workflow-process-service</cq:lastReplicatedBy_publish>
         <cq:isDelivered>false</cq:isDelivered>
         <cq:lastReplicated>2024-10-02T19:51:24.270Z</cq:lastReplicated>
         <cq:lastReplicatedBy_scene7>workflow-process-service</cq:lastReplicatedBy_scene7>
         <cq:lastReplicated_scene7>2024-10-02T19:51:24.270Z</cq:lastReplicated_scene7>
         <tiff:ImageLength>38</tiff:ImageLength>
         <tiff:ImageWidth>38</tiff:ImageWidth>
         <xmpRights:UsageTerms>
            <rdf:Alt>
               <rdf:li xml:lang="x-default">Use technology icons to represent Red Hat products and components. Do not remove the icon from the bounding shape.</rdf:li>
            </rdf:Alt>
         </xmpRights:UsageTerms>
      </rdf:Description>
   </rdf:RDF>
</x:xmpmeta>
                                                                                                    
                                                                                                    
                                                                                                    
                                                                                                    
                                                                                                    
                                                                                                    
                                                                                                    
                                                                                                    
                                                                                                    
                                                                                                    
                                                                                                    
                                                                                                    
                                                                                                    
                                                                                                    
                                                                                                    
                                                                                                    
                                                                                                    
                                     
<?xpacket end="w"?></metadata>
<defs><style>.uuid-d816a713-da35-4d27-b209-5fb7b9074440{fill:#e00;}</style></defs><path class="uuid-d816a713-da35-4d27-b209-5fb7b9074440" d="m28,1H10C5.02942,1,1,5.02942,1,10v18c0,4.97058,4.02942,9,9,9h18c4.97058,0,9-4.02942,9-9V10c0-4.97058-4.02942-9-9-9Zm7.75,27c0,4.27338-3.47668,7.75-7.75,7.75H10c-4.27332,0-7.75-3.47662-7.75-7.75V10c0-4.27338,3.47668-7.75,7.75-7.75h18c4.27332,0,7.75,3.47662,7.75,7.75v18Z"/><path class="uuid-d816a713-da35-4d27-b209-5fb7b9074440" d="m22,20.875h-6c-.34473,0-.625.28027-.625.625s.28027.625.625.625h6c.34473,0,.625-.28027.625-.625s-.28027-.625-.625-.625Z"/><path class="uuid-d816a713-da35-4d27-b209-5fb7b9074440" d="m22,15.875h-6c-.34473,0-.625.28027-.625.625v3c0,.34473.28027.625.625.625h6c.34473,0,.625-.28027.625-.625v-3c0-.34473-.28027-.625-.625-.625Zm-.625,3h-4.75v-1.75h4.75v1.75Z"/><path class="uuid-d816a713-da35-4d27-b209-5fb7b9074440" d="m28.91895,14.51953c0-1.17188-.95312-2.125-2.125-2.125-.55078,0-1.04834.21582-1.42627.56055l-4.2998-2.4826c.03491-.15253.05713-.30957.05713-.47247,0-1.17188-.95312-2.125-2.125-2.125s-2.125.95312-2.125,2.125c0,.1629.02234.32001.05713.47247l-4.2998,2.4826c-.37793-.34473-.87549-.56055-1.42627-.56055-1.17188,0-2.125.95312-2.125,2.125,0,.95288.6344,1.75159,1.5,2.02039v4.9201c-.8656.2688-1.5,1.06757-1.5,2.02045,0,1.17188.95312,2.125,2.125,2.125.55066,0,1.04834-.21582,1.42627-.56055l4.2998,2.4826c-.03479.15247-.05713.30957-.05713.47247,0,1.17188.95312,2.125,2.125,2.125s2.125-.95312,2.125-2.125c0-.1629-.02222-.32001-.05713-.47247l4.2998-2.4826c.37793.34473.87561.56055,1.42627.56055,1.17188,0,2.125-.95312,2.125-2.125,0-.95294-.6344-1.75165-1.5-2.02045v-4.9201c.8656-.2688,1.5-1.06744,1.5-2.02039Zm-4.25,8.96094c0,.16907.0249.33142.06238.48914l-4.29126,2.47736c-.37927-.35193-.88293-.57196-1.44006-.57196s-1.06079.22003-1.44006.57196l-4.29114-2.47736c.03735-.15771.06226-.32007.06226-.48914,0-.95294-.6344-1.75165-1.5-2.02045v-4.9201c.8656-.2688,1.5-1.06744,1.5-2.02039,0-.16901-.0249-.33142-.06226-.48914l4.29114-2.47736c.37927.35193.88293.57196,1.44006.57196s1.06079-.22003,1.44006-.57196l4.29126,2.47736c-.03748.15771-.06238.32013-.06238.48914,0,.95288.6344,1.75159,1.5,2.02039v4.9201c-.8656.2688-1.5,1.06757-1.5,2.02045Zm2.125-9.83594c.48242,0,.875.39258.875.875s-.39258.875-.875.875-.875-.39258-.875-.875.39258-.875.875-.875Zm-7.79395-4.51953c.48242,0,.875.39258.875.875s-.39258.875-.875.875-.875-.39258-.875-.875.39258-.875.875-.875Zm-7.79395,4.51953c.48242,0,.875.39258.875.875s-.39258.875-.875.875-.875-.39258-.875-.875.39258-.875.875-.875Zm0,10.71094c-.48242,0-.875-.39258-.875-.875s.39258-.875.875-.875.875.39258.875.875-.39258.875-.875.875Zm7.79395,4.51953c-.48242,0-.875-.39258-.875-.875s.39258-.875.875-.875.875.39258.875.875-.39258.875-.875.875Zm7.79395-4.51953c-.48242,0-.875-.39258-.875-.875s.39258-.875.875-.875.875.39258.875.875-.39258.875-.875.875Z"/></svg>