<?xml version="1.0" encoding="UTF-8"?><svg id="uuid-be4ee8b9-4c30-4aa6-9d75-46348a5b4dca" xmlns="http://www.w3.org/2000/svg" viewBox="0 0 38 38"><title>Infrastructure operator for Red Hat OpenShift icon</title>
<desc>Cloud</desc>
<metadata><?xpacket begin="﻿" id="W5M0MpCehiHzreSzNTczkc9d"?>
<x:xmpmeta xmlns:x="adobe:ns:meta/" x:xmptk="Adobe XMP Core 8.0-c001 1.000000, 0000/00/00-00:00:00        ">
   <rdf:RDF xmlns:rdf="http://www.w3.org/1999/02/22-rdf-syntax-ns#">
      <rdf:Description rdf:about=""
            xmlns:xmp="http://ns.adobe.com/xap/1.0/"
            xmlns:dc="http://purl.org/dc/elements/1.1/"
            xmlns:cq="http://www.day.com/jcr/cq/1.0"
            xmlns:tiff="http://ns.adobe.com/tiff/1.0/"
            xmlns:xmpRights="http://ns.adobe.com/xap/1.0/rights/">
         <xmp:rhcc-effective-on>2024-03-01T15:26:18.459Z</xmp:rhcc-effective-on>
         <xmp:rhcc-metadata-complete-moderator>pending</xmp:rhcc-metadata-complete-moderator>
         <xmp:rhcc-translation-id>TRA30b955f5-a5a4-439b-aa52-2f06462779b4</xmp:rhcc-translation-id>
         <xmp:brand-content-type>Icon</xmp:brand-content-type>
         <xmp:CreateDate>2024-03-01T15:26:18.459Z</xmp:CreateDate>
         <xmp:rhcc-aspect-ratio>square</xmp:rhcc-aspect-ratio>
         <xmp:rhcc-effective-on-set-on-upload>true</xmp:rhcc-effective-on-set-on-upload>
         <xmp:rhcc-published-asset-email-sent>true</xmp:rhcc-published-asset-email-sent>
         <xmp:rhcc-metadata-complete-uploader>pending</xmp:rhcc-metadata-complete-uploader>
         <xmp:rhcc-file-last-modified>2024-07-13T00:09:41.087Z</xmp:rhcc-file-last-modified>
         <xmp:rhcc-audience>rhcc-audience:internal</xmp:rhcc-audience>
         <xmp:rhcc-rights-restricted>no</xmp:rhcc-rights-restricted>
         <xmp:brand-content-subtype>Technology icon</xmp:brand-content-subtype>
         <xmp:rhcc-derivative-id>DER30b955f5-a5a4-439b-aa52-2f06462779b4</xmp:rhcc-derivative-id>
         <xmp:rhcc-uploaded-by>pmeilleu@redhat.com</xmp:rhcc-uploaded-by>
         <xmp:brand-logo-color>Standard</xmp:brand-logo-color>
         <xmp:rhcc-notify-portal-subscribers-on-change>yes</xmp:rhcc-notify-portal-subscribers-on-change>
         <xmp:rhcc-product>
            <rdf:Bag>
               <rdf:li>rhcc-product:red-hat-openshift</rdf:li>
            </rdf:Bag>
         </xmp:rhcc-product>
         <xmp:brand-subtype>
            <rdf:Bag>
               <rdf:li>Technology icon</rdf:li>
            </rdf:Bag>
         </xmp:brand-subtype>
         <dc:format>image/svg+xml</dc:format>
         <dc:modified>2024-05-10T13:25:42.345Z</dc:modified>
         <dc:title>
            <rdf:Alt>
               <rdf:li xml:lang="x-default">Infrastructure operator for Red Hat OpenShift icon</rdf:li>
            </rdf:Alt>
         </dc:title>
         <dc:description>
            <rdf:Alt>
               <rdf:li xml:lang="x-default">Cloud</rdf:li>
            </rdf:Alt>
         </dc:description>
         <cq:lastReplicationAction_scene7>Activate</cq:lastReplicationAction_scene7>
         <cq:lastReplicationAction_publish>Activate</cq:lastReplicationAction_publish>
         <cq:lastReplicated_publish>2024-10-02T19:51:48.595Z</cq:lastReplicated_publish>
         <cq:lastReplicatedBy>workflow-process-service</cq:lastReplicatedBy>
         <cq:lastReplicationAction>Activate</cq:lastReplicationAction>
         <cq:lastReplicatedBy_publish>workflow-process-service</cq:lastReplicatedBy_publish>
         <cq:isDelivered>false</cq:isDelivered>
         <cq:lastReplicated>2024-10-02T19:51:48.595Z</cq:lastReplicated>
         <cq:lastReplicatedBy_scene7>workflow-process-service</cq:lastReplicatedBy_scene7>
         <cq:lastReplicated_scene7>2024-10-02T19:51:48.595Z</cq:lastReplicated_scene7>
         <tiff:ImageLength>38</tiff:ImageLength>
         <tiff:ImageWidth>38</tiff:ImageWidth>
         <xmpRights:UsageTerms>
            <rdf:Alt>
               <rdf:li xml:lang="x-default">Use technology icons to represent Red Hat products and components. Do not remove the icon from the bounding shape.</rdf:li>
            </rdf:Alt>
         </xmpRights:UsageTerms>
      </rdf:Description>
   </rdf:RDF>
</x:xmpmeta>
                                                                                                    
                                                                                                    
                                                                                                    
                                                                                                    
                                                                                                    
                                                                                                    
                                                                                                    
                                                                                                    
                                                                                                    
                                                                                                    
                                                                                                    
                                                                                                    
                                                                                                    
                                                                                                    
                                                                                                    
                                                                                                    
                                                 
<?xpacket end="w"?></metadata>
<defs><style>.uuid-af23c787-f351-4e78-8b43-6a042b70aefe{fill:#ed0000;}.uuid-f24432b2-aa73-4938-874b-9b83355ece19{fill:#fff;}.uuid-b45f6a04-be10-47ff-8c03-963f6a964217{fill:#e0e0e0;}</style></defs><path class="uuid-f24432b2-aa73-4938-874b-9b83355ece19" d="m28,1H10C5.02944,1,1,5.02944,1,10v18c0,4.97057,4.02944,9,9,9h18c4.97056,0,9-4.02943,9-9V10c0-4.97056-4.02944-9-9-9h0Z"/><path class="uuid-b45f6a04-be10-47ff-8c03-963f6a964217" d="m28,2.25c4.27332,0,7.75,3.47662,7.75,7.75v18c0,4.27338-3.47668,7.75-7.75,7.75H10c-4.27332,0-7.75-3.47662-7.75-7.75V10c0-4.27338,3.47668-7.75,7.75-7.75h18m0-1.25H10C5.02942,1,1,5.02942,1,10v18c0,4.97058,4.02942,9,9,9h18c4.97058,0,9-4.02942,9-9V10c0-4.97058-4.02942-9-9-9h0Z"/><path class="uuid-af23c787-f351-4e78-8b43-6a042b70aefe" d="m22,22.125h-6c-.34473,0-.625-.28027-.625-.625s.28027-.625.625-.625h6c.34473,0,.625.28027.625.625s-.28027.625-.625.625Z"/><path d="m22,20.125h-6c-.34473,0-.625-.28027-.625-.625v-3c0-.34473.28027-.625.625-.625h6c.34473,0,.625.28027.625.625v3c0,.34473-.28027.625-.625.625Zm-5.375-1.25h4.75v-1.75h-4.75v1.75Z"/><path d="m25.30981,23.63562l-5.44409,3.14288c.34729.24658.57935.63721.62048,1.08484l5.45569-3.14996c-.3501-.24274-.58569-.63171-.63208-1.07776Z"/><path d="m12.05811,24.71338l5.45569,3.14996c.04114-.44763.27319-.83826.62048-1.08484l-5.44409-3.14288c-.04639.44604-.28198.83502-.63208,1.07776Z"/><path d="m10.58105,15.87915v6.24164c.19067-.08783.401-.14001.62476-.14001.22388,0,.43433.05243.62524.14038v-6.24237c-.19092.08795-.40137.14038-.62524.14038-.22375,0-.43408-.05219-.62476-.14001Z"/><path d="m17.51379,10.13666l-5.45569,3.14996c.35022.24268.58569.63165.63208,1.07776l5.44409-3.14288c-.34729-.24658-.57935-.63721-.62048-1.08484Z"/><path d="m19.86572,11.2215l5.44409,3.14288c.04639-.44611.28186-.83508.63208-1.07776l-5.45569-3.14996c-.04114.44763-.27319.83826-.62048,1.08484Z"/><path d="m26.79419,16.01917c-.22388,0-.43433-.05243-.62524-.14038v6.24237c.19092-.08795.40137-.14038.62524-.14038.22375,0,.43408.05219.62476.14001v-6.24164c-.19067.08783-.401.14001-.62476.14001Z"/><path class="uuid-af23c787-f351-4e78-8b43-6a042b70aefe" d="m19,7.875c-1.17188,0-2.125.95312-2.125,2.125s.95312,2.125,2.125,2.125,2.125-.95312,2.125-2.125-.95312-2.125-2.125-2.125Zm0,3c-.48242,0-.875-.39258-.875-.875s.39258-.875.875-.875.875.39258.875.875-.39258.875-.875.875Z"/><path class="uuid-af23c787-f351-4e78-8b43-6a042b70aefe" d="m19,25.875c-1.17188,0-2.125.95312-2.125,2.125s.95312,2.125,2.125,2.125,2.125-.95312,2.125-2.125-.95312-2.125-2.125-2.125Zm0,3c-.48242,0-.875-.39258-.875-.875s.39258-.875.875-.875.875.39258.875.875-.39258.875-.875.875Z"/><path class="uuid-af23c787-f351-4e78-8b43-6a042b70aefe" d="m11.20605,12.39453c-1.17188,0-2.125.95312-2.125,2.125s.95312,2.125,2.125,2.125,2.125-.95312,2.125-2.125-.95312-2.125-2.125-2.125Zm0,3c-.48242,0-.875-.39258-.875-.875s.39258-.875.875-.875.875.39258.875.875-.39258.875-.875.875Z"/><path class="uuid-af23c787-f351-4e78-8b43-6a042b70aefe" d="m26.79395,16.64453c1.17188,0,2.125-.95312,2.125-2.125s-.95312-2.125-2.125-2.125-2.125.95312-2.125,2.125.95312,2.125,2.125,2.125Zm0-3c.48242,0,.875.39258.875.875s-.39258.875-.875.875-.875-.39258-.875-.875.39258-.875.875-.875Z"/><path class="uuid-af23c787-f351-4e78-8b43-6a042b70aefe" d="m11.20605,21.35547c-1.17188,0-2.125.95312-2.125,2.125s.95312,2.125,2.125,2.125,2.125-.95312,2.125-2.125-.95312-2.125-2.125-2.125Zm0,3c-.48242,0-.875-.39258-.875-.875s.39258-.875.875-.875.875.39258.875.875-.39258.875-.875.875Z"/><path class="uuid-af23c787-f351-4e78-8b43-6a042b70aefe" d="m26.79395,21.35547c-1.17188,0-2.125.95312-2.125,2.125s.95312,2.125,2.125,2.125,2.125-.95312,2.125-2.125-.95312-2.125-2.125-2.125Zm0,3c-.48242,0-.875-.39258-.875-.875s.39258-.875.875-.875.875.39258.875.875-.39258.875-.875.875Z"/></svg>