<?xml version="1.0" encoding="UTF-8"?><svg xmlns="http://www.w3.org/2000/svg" width="38" height="38" viewBox="0 0 38 38"><title>Red Hat Advanced Developer Suite icon</title>
<desc>cloud, Red Hat Advanced Developer Suite, Red Hat OpenShift Container Platform, component, market product, service</desc>
<metadata><?xpacket begin="﻿" id="W5M0MpCehiHzreSzNTczkc9d"?>
<x:xmpmeta xmlns:x="adobe:ns:meta/" x:xmptk="Adobe XMP Core 8.0-c001 1.000000, 0000/00/00-00:00:00        ">
   <rdf:RDF xmlns:rdf="http://www.w3.org/1999/02/22-rdf-syntax-ns#">
      <rdf:Description rdf:about=""
            xmlns:xmp="http://ns.adobe.com/xap/1.0/"
            xmlns:dc="http://purl.org/dc/elements/1.1/"
            xmlns:tiff="http://ns.adobe.com/tiff/1.0/"
            xmlns:ns1="http://ns.adobe.com/aem/metadata-unspecified/repo"
            xmlns:xmpRights="http://ns.adobe.com/xap/1.0/rights/">
         <xmp:rhcc-notify-portal-subscribers-on-change>yes</xmp:rhcc-notify-portal-subscribers-on-change>
         <xmp:brand-logo-color>Standard</xmp:brand-logo-color>
         <xmp:rhcc-aspect-ratio>square</xmp:rhcc-aspect-ratio>
         <xmp:rhcc-rights-restricted>no</xmp:rhcc-rights-restricted>
         <xmp:rhcc-file-last-modified>2025-04-23T17:13:29.992Z</xmp:rhcc-file-last-modified>
         <xmp:brand-content-type>Icon</xmp:brand-content-type>
         <xmp:rhcc-audience>rhcc-audience:internal</xmp:rhcc-audience>
         <xmp:brand-content-subtype>Technology</xmp:brand-content-subtype>
         <xmp:brand-colorway>
            <rdf:Bag>
               <rdf:li>colorway:standard</rdf:li>
            </rdf:Bag>
         </xmp:brand-colorway>
         <xmp:rhcc-product>
            <rdf:Bag>
               <rdf:li>rhcc-product:red-hat-openshift-dev-spaces</rdf:li>
            </rdf:Bag>
         </xmp:rhcc-product>
         <xmp:brand-subtype>
            <rdf:Bag>
               <rdf:li>Technology icon</rdf:li>
            </rdf:Bag>
         </xmp:brand-subtype>
         <xmp:rhcc-topics>
            <rdf:Bag>
               <rdf:li>rhcc-topics:cloud-services</rdf:li>
            </rdf:Bag>
         </xmp:rhcc-topics>
         <dc:modified>2025-04-23T17:13:39.374Z</dc:modified>
         <dc:format>image/svg+xml</dc:format>
         <dc:title>
            <rdf:Alt>
               <rdf:li xml:lang="x-default">Red Hat Advanced Developer Suite icon</rdf:li>
            </rdf:Alt>
         </dc:title>
         <dc:description>
            <rdf:Alt>
               <rdf:li xml:lang="x-default">cloud, Red Hat Advanced Developer Suite, Red Hat OpenShift Container Platform, component, market product, service</rdf:li>
            </rdf:Alt>
         </dc:description>
         <tiff:ImageWidth>38</tiff:ImageWidth>
         <tiff:ImageLength>38</tiff:ImageLength>
         <ns1:encoding>utf-8</ns1:encoding>
         <xmpRights:UsageTerms>
            <rdf:Alt>
               <rdf:li xml:lang="x-default">Use technology icons to represent Red Hat products and components. Do not remove the icon from the bounding shape.</rdf:li>
            </rdf:Alt>
         </xmpRights:UsageTerms>
      </rdf:Description>
   </rdf:RDF>
</x:xmpmeta>
                                                                                                    
                             
<?xpacket end="w"?></metadata>
<defs><style>.uuid-11b1ccb8-5279-4ed0-9395-03cc1596b14b{fill:#4d4d4d;}.uuid-1532f776-5e42-44eb-97ba-014426ae031d{fill:#fff;}.uuid-c3ecbecc-ae6b-4c17-9e92-ff3e32d596ea{fill:#e00;}</style></defs><g id="uuid-55a297c3-3e5c-4e77-8b0c-1fcd3e24e572"><rect x="1" y="1" width="36" height="36" rx="9" ry="9"/><path class="uuid-11b1ccb8-5279-4ed0-9395-03cc1596b14b" d="M28,2.25c4.27336,0,7.75,3.47664,7.75,7.75v18c0,4.27336-3.47664,7.75-7.75,7.75H10c-4.27336,0-7.75-3.47664-7.75-7.75V10c0-4.27336,3.47664-7.75,7.75-7.75h18M28,1H10C5.02944,1,1,5.02943,1,10v18c0,4.97057,4.02944,9,9,9h18c4.97056,0,9-4.02943,9-9V10c0-4.97057-4.02944-9-9-9h0Z"/></g><g id="uuid-9f78766e-323a-4543-a7d8-5e62854b4b27"><path class="uuid-c3ecbecc-ae6b-4c17-9e92-ff3e32d596ea" d="M22,28.625h-11c-.34521,0-.625-.27979-.625-.625v-15c0-.34521.27979-.625.625-.625h11c.34473,0,.625.27979.625.625v3c0,.34521-.28027.625-.625.625s-.625-.27979-.625-.625v-2.375h-9.75v13.75h9.75v-1.375c0-.34521.28027-.625.625-.625s.625.27979.625.625v2c0,.34521-.28027.625-.625.625Z"/><path class="uuid-1532f776-5e42-44eb-97ba-014426ae031d" d="M25,14.625c-.34473,0-.625-.27979-.625-.625v-3.375h-5.375c-.34521,0-.625-.27979-.625-.625s.27979-.625.625-.625h6c.34473,0,.625.27979.625.625v4c0,.34521-.28027.625-.625.625Z"/><path class="uuid-1532f776-5e42-44eb-97ba-014426ae031d" d="M26.29199,24.0415c-1.36621,0-2.17676-.81738-2.82812-1.47461l-2.85645-2.89404c-.73438-.74414-1.28516-1.04785-1.89893-1.04785-1.14893,0-2.0835.93457-2.0835,2.0835,0,1.14844.93457,2.08301,2.0835,2.08301.54053,0,.979-.19824,1.51318-.68408l.33594-.3374c.24414-.24414.63867-.24512.88379-.00195.24414.24365.24512.63916.00098.88379l-.35742.35889c-.53906.49121-1.27344,1.03076-2.37646,1.03076-1.83789,0-3.3335-1.49512-3.3335-3.33301s1.49561-3.3335,3.3335-3.3335c1.22998,0,2.13623.75879,2.78857,1.41992l2.85352,2.89209c.66211.66699,1.1543,1.10449,1.94141,1.10449,1.14844,0,2.08301-.93457,2.08301-2.08301,0-1.14893-.93457-2.0835-2.08301-2.0835-.3916,0-.78613.11426-1.11328.32178-.13184.08398-.26465.19385-.41797.34668l-.30859.32373c-.23828.25-.63379.25879-.88379.01953-.25-.23828-.25879-.63428-.02051-.88379l.31934-.33398c.23047-.22998.43164-.39404.64258-.52734.53027-.33789,1.14746-.5166,1.78223-.5166,1.83789,0,3.33301,1.49561,3.33301,3.3335s-1.49512,3.33301-3.33301,3.33301Z"/></g></svg>