<?xml version="1.0" encoding="UTF-8"?><svg xmlns="http://www.w3.org/2000/svg" width="38" height="38" viewBox="0 0 38 38"><title>Red Hat build of Apache Camel icon</title>
<desc>Application services</desc>
<metadata><?xpacket begin="﻿" id="W5M0MpCehiHzreSzNTczkc9d"?>
<x:xmpmeta xmlns:x="adobe:ns:meta/" x:xmptk="Adobe XMP Core 8.0-c001 1.000000, 0000/00/00-00:00:00        ">
   <rdf:RDF xmlns:rdf="http://www.w3.org/1999/02/22-rdf-syntax-ns#">
      <rdf:Description rdf:about=""
            xmlns:xmp="http://ns.adobe.com/xap/1.0/"
            xmlns:dc="http://purl.org/dc/elements/1.1/"
            xmlns:cq="http://www.day.com/jcr/cq/1.0"
            xmlns:tiff="http://ns.adobe.com/tiff/1.0/"
            xmlns:xmpRights="http://ns.adobe.com/xap/1.0/rights/">
         <xmp:rhcc-effective-on>2024-03-01T15:27:52.497Z</xmp:rhcc-effective-on>
         <xmp:rhcc-metadata-complete-moderator>pending</xmp:rhcc-metadata-complete-moderator>
         <xmp:rhcc-translation-id>TRA41f389ad-d114-458a-b7f4-5e9c5bebc68b</xmp:rhcc-translation-id>
         <xmp:brand-content-type>Icon</xmp:brand-content-type>
         <xmp:CreateDate>2024-03-01T15:27:52.497Z</xmp:CreateDate>
         <xmp:rhcc-aspect-ratio>square</xmp:rhcc-aspect-ratio>
         <xmp:rhcc-effective-on-set-on-upload>true</xmp:rhcc-effective-on-set-on-upload>
         <xmp:rhcc-published-asset-email-sent>true</xmp:rhcc-published-asset-email-sent>
         <xmp:rhcc-metadata-complete-uploader>pending</xmp:rhcc-metadata-complete-uploader>
         <xmp:rhcc-file-last-modified>2024-07-13T00:09:40.654Z</xmp:rhcc-file-last-modified>
         <xmp:rhcc-audience>rhcc-audience:internal</xmp:rhcc-audience>
         <xmp:rhcc-rights-restricted>no</xmp:rhcc-rights-restricted>
         <xmp:brand-content-subtype>Technology icon</xmp:brand-content-subtype>
         <xmp:rhcc-derivative-id>DER41f389ad-d114-458a-b7f4-5e9c5bebc68b</xmp:rhcc-derivative-id>
         <xmp:rhcc-uploaded-by>pmeilleu@redhat.com</xmp:rhcc-uploaded-by>
         <xmp:rhcc-notify-portal-subscribers-on-change>yes</xmp:rhcc-notify-portal-subscribers-on-change>
         <dc:format>image/svg+xml</dc:format>
         <dc:modified>2024-05-10T14:05:36.129Z</dc:modified>
         <dc:title>
            <rdf:Alt>
               <rdf:li xml:lang="x-default">Red Hat build of Apache Camel icon</rdf:li>
            </rdf:Alt>
         </dc:title>
         <dc:description>
            <rdf:Alt>
               <rdf:li xml:lang="x-default">Application services</rdf:li>
            </rdf:Alt>
         </dc:description>
         <cq:lastReplicationAction_scene7>Activate</cq:lastReplicationAction_scene7>
         <cq:lastReplicationAction_publish>Activate</cq:lastReplicationAction_publish>
         <cq:lastReplicated_publish>2024-10-02T19:52:10.097Z</cq:lastReplicated_publish>
         <cq:lastReplicatedBy>workflow-process-service</cq:lastReplicatedBy>
         <cq:lastReplicationAction>Activate</cq:lastReplicationAction>
         <cq:lastReplicatedBy_publish>workflow-process-service</cq:lastReplicatedBy_publish>
         <cq:isDelivered>false</cq:isDelivered>
         <cq:lastReplicated>2024-10-02T19:52:10.097Z</cq:lastReplicated>
         <cq:lastReplicatedBy_scene7>workflow-process-service</cq:lastReplicatedBy_scene7>
         <cq:lastReplicated_scene7>2024-10-02T19:52:10.097Z</cq:lastReplicated_scene7>
         <tiff:ImageLength>38</tiff:ImageLength>
         <tiff:ImageWidth>38</tiff:ImageWidth>
         <xmpRights:UsageTerms>
            <rdf:Alt>
               <rdf:li xml:lang="x-default">Use technology icons to represent Red Hat products and components. Do not remove the icon from the bounding shape.</rdf:li>
            </rdf:Alt>
         </xmpRights:UsageTerms>
      </rdf:Description>
   </rdf:RDF>
</x:xmpmeta>
                                                                                                    
                                                                                                    
                                                                                                    
                                                                                                    
                                                                                                    
                                                                                                    
                                                                                                    
                                                                                                    
                                                                                                    
                                                                                                    
                                                                                                    
                                                                                                    
                                                                                                    
                                                                                                    
                                                                                                    
                                                                                                    
                                                 
<?xpacket end="w"?></metadata>
<g id="uuid-978e5652-4fad-4fee-aa0e-32c084bbbdb7"><rect x="1" y="1" width="36" height="36" rx="9" ry="9" fill="#fff" stroke-width="0"/><path d="m28,2.25c4.27,0,7.75,3.48,7.75,7.75v18c0,4.27-3.48,7.75-7.75,7.75H10c-4.27,0-7.75-3.48-7.75-7.75V10c0-4.27,3.48-7.75,7.75-7.75h18m0-1.25H10C5.03,1,1,5.03,1,10v18c0,4.97,4.03,9,9,9h18c4.97,0,9-4.03,9-9V10c0-4.97-4.03-9-9-9h0Z" fill="#e0e0e0" stroke-width="0"/></g><g id="uuid-e99c774b-3200-4717-bb40-37d1e9b3078a"><path d="m20.22,11.9l-5.33,5.33c.38.19.69.5.88.88l5.33-5.33c-.38-.19-.69-.5-.88-.88Z" stroke-width="0"/><path d="m12,18.38h-3c-.34,0-.62.28-.62.62s.28.62.62.62h3s.07-.01.1-.02c-.06-.19-.1-.39-.1-.6s.04-.41.1-.6c-.03,0-.07-.02-.1-.02Z" stroke-width="0"/><path d="m24,11.62h4c.34,0,.62-.28.62-.62s-.28-.62-.62-.62h-4s-.07.01-.1.02c.06.19.1.39.1.6s-.04.41-.1.6c.03,0,.07.02.1.02Z" stroke-width="0"/><path d="m28,26.38h-4s-.07.01-.1.02c.06.19.1.39.1.6s-.04.41-.1.6c.03,0,.07.02.1.02h4c.34,0,.62-.28.62-.62s-.28-.62-.62-.62Z" stroke-width="0"/><path d="m28,18.38h-4s-.07.01-.1.02c.06.19.1.39.1.6s-.04.41-.1.6c.03,0,.07.02.1.02h4c.34,0,.62-.28.62-.62s-.28-.62-.62-.62Z" stroke-width="0"/><path d="m22,24.38c-1.45,0-2.62,1.18-2.62,2.62s1.18,2.62,2.62,2.62,2.62-1.18,2.62-2.62-1.18-2.62-2.62-2.62Zm0,4c-.76,0-1.38-.62-1.38-1.38s.62-1.38,1.38-1.38,1.38.62,1.38,1.38-.62,1.38-1.38,1.38Z" fill="#e00" stroke-width="0"/><path d="m22,13.62c1.45,0,2.62-1.18,2.62-2.62s-1.18-2.62-2.62-2.62-2.62,1.18-2.62,2.62,1.18,2.62,2.62,2.62Zm0-4c.76,0,1.38.62,1.38,1.38s-.62,1.38-1.38,1.38-1.38-.62-1.38-1.38.62-1.38,1.38-1.38Z" fill="#e00" stroke-width="0"/><path d="m14,16.38c-1.45,0-2.62,1.18-2.62,2.62s1.18,2.62,2.62,2.62,2.62-1.18,2.62-2.62-1.18-2.62-2.62-2.62Zm0,4c-.76,0-1.38-.62-1.38-1.38s.62-1.38,1.38-1.38,1.38.62,1.38,1.38-.62,1.38-1.38,1.38Z" fill="#e00" stroke-width="0"/><path d="m22,16.38c-1.45,0-2.62,1.18-2.62,2.62s1.18,2.62,2.62,2.62,2.62-1.18,2.62-2.62-1.18-2.62-2.62-2.62Zm0,4c-.76,0-1.38-.62-1.38-1.38s.62-1.38,1.38-1.38,1.38.62,1.38,1.38-.62,1.38-1.38,1.38Z" fill="#e00" stroke-width="0"/></g></svg>