<svg id="ba18e969-7cc8-408f-8953-d5c33b562c04" data-name="Icon" xmlns="http://www.w3.org/2000/svg" viewBox="0 0 36 36">
  <title>Update icon - White</title>
<desc>refresh, reload, change, cycle, cache, cookies, redo, arrow, line, software and technologies</desc>
<metadata><?xpacket begin="﻿" id="W5M0MpCehiHzreSzNTczkc9d"?>
<x:xmpmeta xmlns:x="adobe:ns:meta/" x:xmptk="Adobe XMP Core 8.0-c001 1.000000, 0000/00/00-00:00:00        ">
   <rdf:RDF xmlns:rdf="http://www.w3.org/1999/02/22-rdf-syntax-ns#">
      <rdf:Description rdf:about=""
            xmlns:xmp="http://ns.adobe.com/xap/1.0/"
            xmlns:dc="http://purl.org/dc/elements/1.1/"
            xmlns:cq="http://www.day.com/jcr/cq/1.0"
            xmlns:tiff="http://ns.adobe.com/tiff/1.0/">
         <xmp:rhcc-effective-on>2023-12-08T17:44:28.248Z</xmp:rhcc-effective-on>
         <xmp:rhcc-metadata-complete-moderator>pending</xmp:rhcc-metadata-complete-moderator>
         <xmp:rhcc-translation-id>TRA1411b2e4-c645-4848-abd4-3b7c1b085f86</xmp:rhcc-translation-id>
         <xmp:brand-content-type>Icon</xmp:brand-content-type>
         <xmp:CreateDate>2023-12-08T17:44:28.248Z</xmp:CreateDate>
         <xmp:rhcc-aspect-ratio>square</xmp:rhcc-aspect-ratio>
         <xmp:rhcc-effective-on-set-on-upload>true</xmp:rhcc-effective-on-set-on-upload>
         <xmp:rhcc-metadata-complete-uploader>pending</xmp:rhcc-metadata-complete-uploader>
         <xmp:rhcc-file-last-modified>2024-07-12T20:05:13.385Z</xmp:rhcc-file-last-modified>
         <xmp:rhcc-audience>rhcc-audience:internal</xmp:rhcc-audience>
         <xmp:brand-content-subtype>Icon</xmp:brand-content-subtype>
         <xmp:rhcc-rights-restricted>no</xmp:rhcc-rights-restricted>
         <xmp:rhcc-derivative-id>DER1411b2e4-c645-4848-abd4-3b7c1b085f86</xmp:rhcc-derivative-id>
         <xmp:rhcc-uploaded-by>pmeilleu@redhat.com</xmp:rhcc-uploaded-by>
         <xmp:brand-logo-color>White</xmp:brand-logo-color>
         <xmp:rhcc-notify-portal-subscribers-on-change>yes</xmp:rhcc-notify-portal-subscribers-on-change>
         <dc:format>image/svg+xml</dc:format>
         <dc:modified>2024-02-09T20:18:55.892Z</dc:modified>
         <dc:title>
            <rdf:Alt>
               <rdf:li xml:lang="x-default">Update icon - White</rdf:li>
            </rdf:Alt>
         </dc:title>
         <dc:description>
            <rdf:Alt>
               <rdf:li xml:lang="x-default">refresh, reload, change, cycle, cache, cookies, redo, arrow, line, software and technologies</rdf:li>
            </rdf:Alt>
         </dc:description>
         <cq:lastReplicationAction_scene7>Activate</cq:lastReplicationAction_scene7>
         <cq:lastReplicationAction_publish>Activate</cq:lastReplicationAction_publish>
         <cq:lastReplicated_publish>2024-10-02T19:47:15.154Z</cq:lastReplicated_publish>
         <cq:lastReplicatedBy>workflow-process-service</cq:lastReplicatedBy>
         <cq:lastReplicationAction>Activate</cq:lastReplicationAction>
         <cq:lastReplicatedBy_publish>workflow-process-service</cq:lastReplicatedBy_publish>
         <cq:isDelivered>false</cq:isDelivered>
         <cq:lastReplicated>2024-10-02T19:47:15.154Z</cq:lastReplicated>
         <cq:lastReplicatedBy_scene7>workflow-process-service</cq:lastReplicatedBy_scene7>
         <cq:lastReplicated_scene7>2024-10-02T19:47:15.154Z</cq:lastReplicated_scene7>
         <tiff:ImageLength>36</tiff:ImageLength>
         <tiff:ImageWidth>36</tiff:ImageWidth>
      </rdf:Description>
   </rdf:RDF>
</x:xmpmeta>
                                                                                                    
                                                                                                    
                                                                                                    
                                                                                                    
                                                                                                    
                                                                                                    
                                                                                                    
                                                                                                    
                                                                                                 
<?xpacket end="w"?></metadata>
<defs>
    <style>
      .f2cbf061-d6d9-414c-9fc3-824c52a2d977 {
        fill: #fff;
      }
    </style>
  </defs>
  <g>
    <path class="f2cbf061-d6d9-414c-9fc3-824c52a2d977" d="M29.78,11.09a.67.67,0,0,0,.69-.63V7.23a.63.63,0,0,0-1.25,0V8.62A14.62,14.62,0,1,0,18,32.62l.15,0h.09l.07,0a.58.58,0,0,0,.22-.22l0-.07a.69.69,0,0,0,.05-.24.57.57,0,0,0-.08-.28.62.62,0,0,0-.55-.34A13.38,13.38,0,1,1,28.57,9.84H26.62a.63.63,0,1,0,0,1.25Z"/>
    <g>
      <path class="f2cbf061-d6d9-414c-9fc3-824c52a2d977" d="M30.94,12.05a.62.62,0,0,0-.61.63.61.61,0,0,0,.61.62.63.63,0,0,0,.64-.62A.64.64,0,0,0,30.94,12.05Z"/>
      <path class="f2cbf061-d6d9-414c-9fc3-824c52a2d977" d="M31.68,14.43a.63.63,0,0,0-.62.63.63.63,0,0,0,1.25,0A.63.63,0,0,0,31.68,14.43Z"/>
      <path class="f2cbf061-d6d9-414c-9fc3-824c52a2d977" d="M32,16.9a.63.63,0,0,0-.62.63.63.63,0,0,0,1.25,0A.63.63,0,0,0,32,16.9Z"/>
      <path class="f2cbf061-d6d9-414c-9fc3-824c52a2d977" d="M31.85,19.37a.63.63,0,0,0-.62.63.63.63,0,0,0,1.25,0A.63.63,0,0,0,31.85,19.37Z"/>
      <path class="f2cbf061-d6d9-414c-9fc3-824c52a2d977" d="M31.28,21.81a.63.63,0,0,0-.62.63.63.63,0,0,0,1.25,0A.63.63,0,0,0,31.28,21.81Z"/>
      <path class="f2cbf061-d6d9-414c-9fc3-824c52a2d977" d="M30.28,24.09a.63.63,0,0,0-.62.63.63.63,0,0,0,1.25,0A.63.63,0,0,0,30.28,24.09Z"/>
      <path class="f2cbf061-d6d9-414c-9fc3-824c52a2d977" d="M28.89,26.16a.63.63,0,0,0-.62.63.63.63,0,0,0,1.25,0A.63.63,0,0,0,28.89,26.16Z"/>
      <path class="f2cbf061-d6d9-414c-9fc3-824c52a2d977" d="M27.16,28a.63.63,0,0,0-.62.63.63.63,0,0,0,1.25,0A.63.63,0,0,0,27.16,28Z"/>
      <path class="f2cbf061-d6d9-414c-9fc3-824c52a2d977" d="M25.14,29.41a.63.63,0,0,0-.62.63.63.63,0,0,0,1.25,0A.63.63,0,0,0,25.14,29.41Z"/>
      <path class="f2cbf061-d6d9-414c-9fc3-824c52a2d977" d="M22.9,30.49a.63.63,0,0,0-.62.63.63.63,0,0,0,1.25,0A.63.63,0,0,0,22.9,30.49Z"/>
      <path class="f2cbf061-d6d9-414c-9fc3-824c52a2d977" d="M20.5,31.15a.63.63,0,0,0-.62.63.63.63,0,0,0,1.25,0A.63.63,0,0,0,20.5,31.15Z"/>
    </g>
  </g>
</svg>
