<?xml version="1.0" encoding="UTF-8"?><svg id="uuid-0009f63d-2bbb-45a9-a4a1-27996718857d" xmlns="http://www.w3.org/2000/svg" viewBox="0 0 36 36"><title>Streaming music icon - Red</title>
<desc>internet, wireless, edge, TME, listen, play, data, digital, apple music, spotify, edge, Amazon music, YouTube music, media and documents</desc>
<metadata><?xpacket begin="﻿" id="W5M0MpCehiHzreSzNTczkc9d"?>
<x:xmpmeta xmlns:x="adobe:ns:meta/" x:xmptk="Adobe XMP Core 8.0-c001 1.000000, 0000/00/00-00:00:00        ">
   <rdf:RDF xmlns:rdf="http://www.w3.org/1999/02/22-rdf-syntax-ns#">
      <rdf:Description rdf:about=""
            xmlns:xmp="http://ns.adobe.com/xap/1.0/"
            xmlns:dc="http://purl.org/dc/elements/1.1/"
            xmlns:cq="http://www.day.com/jcr/cq/1.0"
            xmlns:tiff="http://ns.adobe.com/tiff/1.0/">
         <xmp:rhcc-effective-on>2023-12-08T17:37:07.713Z</xmp:rhcc-effective-on>
         <xmp:rhcc-metadata-complete-moderator>pending</xmp:rhcc-metadata-complete-moderator>
         <xmp:rhcc-translation-id>TRAd5ba62c8-4502-4482-9ddb-f0e73b653193</xmp:rhcc-translation-id>
         <xmp:brand-content-type>Icon</xmp:brand-content-type>
         <xmp:CreateDate>2023-12-08T17:37:07.713Z</xmp:CreateDate>
         <xmp:rhcc-aspect-ratio>square</xmp:rhcc-aspect-ratio>
         <xmp:rhcc-effective-on-set-on-upload>true</xmp:rhcc-effective-on-set-on-upload>
         <xmp:rhcc-published-asset-email-sent>true</xmp:rhcc-published-asset-email-sent>
         <xmp:rhcc-metadata-complete-uploader>pending</xmp:rhcc-metadata-complete-uploader>
         <xmp:rhcc-file-last-modified>2024-07-12T20:30:13.371Z</xmp:rhcc-file-last-modified>
         <xmp:rhcc-audience>rhcc-audience:internal</xmp:rhcc-audience>
         <xmp:brand-content-subtype>Icon</xmp:brand-content-subtype>
         <xmp:rhcc-rights-restricted>no</xmp:rhcc-rights-restricted>
         <xmp:rhcc-derivative-id>DERd5ba62c8-4502-4482-9ddb-f0e73b653193</xmp:rhcc-derivative-id>
         <xmp:rhcc-uploaded-by>pmeilleu@redhat.com</xmp:rhcc-uploaded-by>
         <xmp:brand-logo-color>Red</xmp:brand-logo-color>
         <xmp:rhcc-notify-portal-subscribers-on-change>yes</xmp:rhcc-notify-portal-subscribers-on-change>
         <dc:format>image/svg+xml</dc:format>
         <dc:modified>2024-02-09T20:20:33.716Z</dc:modified>
         <dc:title>
            <rdf:Alt>
               <rdf:li xml:lang="x-default">Streaming music icon - Red</rdf:li>
            </rdf:Alt>
         </dc:title>
         <dc:description>
            <rdf:Alt>
               <rdf:li xml:lang="x-default">internet, wireless, edge, TME, listen, play, data, digital, apple music, spotify, edge, Amazon music, YouTube music, media and documents</rdf:li>
            </rdf:Alt>
         </dc:description>
         <cq:lastReplicationAction_scene7>Activate</cq:lastReplicationAction_scene7>
         <cq:lastReplicationAction_publish>Activate</cq:lastReplicationAction_publish>
         <cq:lastReplicated_publish>2024-10-02T19:39:58.149Z</cq:lastReplicated_publish>
         <cq:lastReplicatedBy>workflow-process-service</cq:lastReplicatedBy>
         <cq:lastReplicationAction>Activate</cq:lastReplicationAction>
         <cq:lastReplicatedBy_publish>workflow-process-service</cq:lastReplicatedBy_publish>
         <cq:isDelivered>false</cq:isDelivered>
         <cq:lastReplicated>2024-10-02T19:39:58.149Z</cq:lastReplicated>
         <cq:lastReplicatedBy_scene7>workflow-process-service</cq:lastReplicatedBy_scene7>
         <cq:lastReplicated_scene7>2024-10-02T19:39:58.149Z</cq:lastReplicated_scene7>
         <tiff:ImageLength>36</tiff:ImageLength>
         <tiff:ImageWidth>36</tiff:ImageWidth>
      </rdf:Description>
   </rdf:RDF>
</x:xmpmeta>
                                                                                                    
                                                                                                    
                                                                                                    
                                                                                                    
                                                                                                    
                                                                                                    
                                                                                                    
                                                                                                    
        
<?xpacket end="w"?></metadata>
<defs><style>.uuid-3b192dd7-722a-402d-82a9-d73ff86a7f13{fill:#e00;}</style></defs><path class="uuid-3b192dd7-722a-402d-82a9-d73ff86a7f13" d="M5.68,23.21c-1.4-3.27-1.4-7.14,0-10.41,.67-1.59,1.64-3.02,2.87-4.25,.58-.58-.3-1.46-.88-.88-1.34,1.34-2.4,2.91-3.13,4.65-1.53,3.58-1.53,7.81,0,11.38,.74,1.74,1.79,3.31,3.13,4.65,.58,.57,1.46-.3,.88-.88-1.23-1.23-2.19-2.66-2.87-4.25Z"/><path class="uuid-3b192dd7-722a-402d-82a9-d73ff86a7f13" d="M31.48,12.31c-.74-1.74-1.79-3.31-3.13-4.65-.58-.58-1.46,.3-.88,.88,1.23,1.23,2.19,2.66,2.87,4.25,1.4,3.27,1.4,7.14,0,10.41-.67,1.59-1.64,3.02-2.87,4.25-.58,.58,.3,1.46,.88,.88,1.34-1.34,2.4-2.91,3.13-4.65,1.53-3.58,1.53-7.81,0-11.38Z"/><path class="uuid-3b192dd7-722a-402d-82a9-d73ff86a7f13" d="M10.66,10.66c.58-.58-.3-1.46-.88-.88-1.07,1.07-1.91,2.31-2.49,3.7-1.22,2.84-1.22,6.21,0,9.05,.59,1.38,1.42,2.63,2.49,3.7,.58,.58,1.46-.3,.88-.88-.95-.95-1.7-2.06-2.22-3.3-1.09-2.54-1.09-5.54,0-8.08,.52-1.24,1.27-2.35,2.22-3.3Z"/><path class="uuid-3b192dd7-722a-402d-82a9-d73ff86a7f13" d="M29.62,18c0-1.57-.31-3.09-.91-4.52-.59-1.38-1.42-2.63-2.49-3.7-.58-.58-1.46,.3-.88,.88,.95,.95,1.7,2.06,2.22,3.3,1.09,2.54,1.09,5.54,0,8.08-.52,1.24-1.27,2.35-2.22,3.3-.58,.58,.3,1.46,.88,.88,1.07-1.07,1.91-2.31,2.49-3.7,.61-1.43,.91-2.96,.91-4.52Z"/><path class="uuid-3b192dd7-722a-402d-82a9-d73ff86a7f13" d="M20.44,8.56c-.18-.18-.45-.23-.68-.13-.23,.1-.39,.32-.39,.58v11.28c-2.22-2.07-6.07-.34-6,2.72,.15,4.79,7.1,4.79,7.25,0V10.51l1.93,1.93c.58,.58,1.46-.3,.88-.88l-3-3Zm-3.44,16.82c-3.13-.08-3.13-4.67,0-4.75,3.13,.08,3.13,4.67,0,4.75Z"/></svg>