<?xml version="1.0" encoding="UTF-8"?><svg id="uuid-9577e193-ace0-4774-8b69-6ebcfb36028f" xmlns="http://www.w3.org/2000/svg" width="36" height="36" viewBox="0 0 36 36"><title>Develop and train icon</title>
<desc>Growth, Learn, Skill, Coach, Mentor, Educate, Progress, Advance, Build, Create, Improve, Nurture, AI, Machine Learning, Deep Learning, Algorithms, Data, Model, Neural Networks, Supervised, Unsupervised, Reinforcement, Train, Learn, Develop, Optimize, Predict, Beaker, Science</desc>
<metadata><?xpacket begin="﻿" id="W5M0MpCehiHzreSzNTczkc9d"?>
<x:xmpmeta xmlns:x="adobe:ns:meta/" x:xmptk="Adobe XMP Core 8.0-c001 1.000000, 0000/00/00-00:00:00        ">
   <rdf:RDF xmlns:rdf="http://www.w3.org/1999/02/22-rdf-syntax-ns#">
      <rdf:Description rdf:about=""
            xmlns:dc="http://purl.org/dc/elements/1.1/"
            xmlns:tiff="http://ns.adobe.com/tiff/1.0/"
            xmlns:xmp="http://ns.adobe.com/xap/1.0/">
         <dc:modified>2025-07-07T15:03:45.784Z</dc:modified>
         <dc:format>image/svg+xml</dc:format>
         <dc:description>
            <rdf:Alt>
               <rdf:li xml:lang="x-default">Growth, Learn, Skill, Coach, Mentor, Educate, Progress, Advance, Build, Create, Improve, Nurture, AI, Machine Learning, Deep Learning, Algorithms, Data, Model, Neural Networks, Supervised, Unsupervised, Reinforcement, Train, Learn, Develop, Optimize, Predict, Beaker, Science</rdf:li>
            </rdf:Alt>
         </dc:description>
         <dc:title>
            <rdf:Alt>
               <rdf:li xml:lang="x-default">Develop and train icon</rdf:li>
            </rdf:Alt>
         </dc:title>
         <tiff:ImageWidth>36</tiff:ImageWidth>
         <tiff:ImageLength>36</tiff:ImageLength>
         <xmp:brand-content-type>Icon</xmp:brand-content-type>
         <xmp:rhcc-rights-restricted>no</xmp:rhcc-rights-restricted>
         <xmp:brand-content-subtype>Icon</xmp:brand-content-subtype>
         <xmp:rhcc-file-last-modified>2025-07-07T15:02:56.083Z</xmp:rhcc-file-last-modified>
         <xmp:brand-colorway>
            <rdf:Bag>
               <rdf:li>colorway:black</rdf:li>
            </rdf:Bag>
         </xmp:brand-colorway>
      </rdf:Description>
   </rdf:RDF>
</x:xmpmeta>
                                                                                                    
                                                                                                    
                                                                                                    
                                                                                                    
                                                                                                    
                                                                                                    
                                                                                                    
                                                                                                    
                                                                                                    
                                                                                                    
                                                                                                    
                                                                                                    
                                                                                                    
                                                                                                    
                                                                                                    
                                                 
<?xpacket end="w"?></metadata>
<path d="M30.39258,27.30273l-5.76758-14.30438v-5.37335h1.375c.34521,0,.625-.28027.625-.625s-.27979-.625-.625-.625h-2c-.34521,0-.625.28027-.625.625v6.11914c0,.04358.01636.08179.02484.12286.00751.03699.00592.07434.02057.11053l.00354.00879c.00024.00055.00043.00104.00067.00159l2.82727,7.01208h-6.25189c-.34521,0-.625.28027-.625.625s.27979.625.625.625h6.75592l2.47748,6.14453c.09375.2334.1416.47949.1416.73047,0,1.03418-.84131,1.875-1.875,1.875h-13c-1.03369,0-1.875-.84082-1.875-1.875,0-.25098.04785-.49707.1416-.73047l1.8291-4.53613c.12891-.31934-.02588-.68359-.3457-.81348-.31934-.12598-.68408.02539-.81348.34668l-1.8291,4.53613c-.1543.38281-.23242.78516-.23242,1.19727,0,1.72266,1.40186,3.125,3.125,3.125h13c1.72314,0,3.125-1.40234,3.125-3.125,0-.41211-.07812-.81445-.23242-1.19727Z"/><path d="M16,7.625h1.375v5.49414c0,.34473.27979.625.625.625s.625-.28027.625-.625v-6.11914c0-.34473-.27979-.625-.625-.625h-2c-.34521,0-.625.28027-.625.625s.27979.625.625.625Z"/><path d="M22.37988,18c0,.16016.06006.33008.18018.43945.10986.12012.27979.19043.43994.19043.07959,0,.15967-.02051.23975-.0498.08008-.03027.1499-.08008.2002-.14062.12012-.10938.18994-.2793.18994-.43945,0-.08008-.02002-.16016-.05029-.24023-.02979-.07031-.07959-.13965-.13965-.2002-.05029-.05957-.12012-.10938-.2002-.13965-.22998-.08984-.50977-.04004-.67969.13965-.12012.12012-.18018.28027-.18018.44043Z"/><path d="M20,12.62988c.16992,0,.32959-.07031.43994-.19043.12012-.10938.17969-.26953.17969-.43945,0-.16016-.05957-.33008-.17969-.44043-.22998-.24023-.6499-.24023-.87988,0-.06006.06055-.1001.12988-.14014.2002-.03027.08008-.04004.16016-.04004.24023,0,.16016.06006.33008.18018.43945.10986.12012.27979.19043.43994.19043Z"/><path d="M21.75977,5.58008c.08008.0293.16016.0498.24023.0498.07959,0,.15967-.02051.23975-.0498.08008-.03027.1499-.08008.2002-.14062.12012-.10938.18994-.2793.18994-.43945,0-.08008-.02002-.16016-.05029-.24023-.02979-.07031-.07959-.13965-.13965-.2002-.05029-.05957-.12012-.10938-.2002-.13965-.22998-.08984-.50977-.04004-.67969.13965-.06006.06055-.1001.12988-.14014.2002-.03027.08008-.04004.16016-.04004.24023,0,.16016.06006.31934.18018.43945.05957.06055.11963.11035.19971.14062Z"/><path d="M13,13.625c1.44727,0,2.625-1.17773,2.625-2.625s-1.17773-2.625-2.625-2.625-2.625,1.17773-2.625,2.625,1.17773,2.625,2.625,2.625ZM13,9.625c.7583,0,1.375.61719,1.375,1.375s-.6167,1.375-1.375,1.375-1.375-.61719-1.375-1.375.6167-1.375,1.375-1.375Z"/><path d="M9,15.375c-1.44727,0-2.625,1.17773-2.625,2.625s1.17773,2.625,2.625,2.625,2.625-1.17773,2.625-2.625-1.17773-2.625-2.625-2.625ZM9,19.375c-.7583,0-1.375-.61719-1.375-1.375s.6167-1.375,1.375-1.375,1.375.61719,1.375,1.375-.6167,1.375-1.375,1.375Z"/><path d="M8,13.625c.34521,0,.625-.28027.625-.625v-4c0-.34473-.27979-.625-.625-.625s-.625.28027-.625.625v4c0,.34473.27979.625.625.625Z"/><path d="M13.375,16v4c0,.34473.27979.625.625.625s.625-.28027.625-.625v-4c0-.34473-.27979-.625-.625-.625s-.625.28027-.625.625Z"/><path d="M17,15.375c-.34521,0-.625.28027-.625.625v4c0,.34473.27979.625.625.625s.625-.28027.625-.625v-4c0-.34473-.27979-.625-.625-.625Z"/></svg>