<svg id="f0d2922a-4d83-4968-9771-ac432d592f2c" data-name="Icon" xmlns="http://www.w3.org/2000/svg" viewBox="0 0 36 36">
  <title>Automation icon - Red</title>
<desc>ansible, automate, platform, gear, management, control, software and technologies, telco</desc>
<metadata><?xpacket begin="﻿" id="W5M0MpCehiHzreSzNTczkc9d"?>
<x:xmpmeta xmlns:x="adobe:ns:meta/" x:xmptk="Adobe XMP Core 8.0-c001 1.000000, 0000/00/00-00:00:00        ">
   <rdf:RDF xmlns:rdf="http://www.w3.org/1999/02/22-rdf-syntax-ns#">
      <rdf:Description rdf:about=""
            xmlns:xmp="http://ns.adobe.com/xap/1.0/"
            xmlns:dc="http://purl.org/dc/elements/1.1/"
            xmlns:cq="http://www.day.com/jcr/cq/1.0"
            xmlns:tiff="http://ns.adobe.com/tiff/1.0/">
         <xmp:rhcc-effective-on>2023-12-08T17:42:13.646Z</xmp:rhcc-effective-on>
         <xmp:rhcc-metadata-complete-moderator>pending</xmp:rhcc-metadata-complete-moderator>
         <xmp:rhcc-translation-id>TRA5b009493-6057-4bf0-a780-ac4d016643e8</xmp:rhcc-translation-id>
         <xmp:brand-content-type>Icon</xmp:brand-content-type>
         <xmp:CreateDate>2023-12-08T17:42:13.646Z</xmp:CreateDate>
         <xmp:rhcc-aspect-ratio>square</xmp:rhcc-aspect-ratio>
         <xmp:rhcc-effective-on-set-on-upload>true</xmp:rhcc-effective-on-set-on-upload>
         <xmp:rhcc-published-asset-email-sent>true</xmp:rhcc-published-asset-email-sent>
         <xmp:rhcc-metadata-complete-uploader>pending</xmp:rhcc-metadata-complete-uploader>
         <xmp:rhcc-file-last-modified>2024-12-19T17:14:14.831Z</xmp:rhcc-file-last-modified>
         <xmp:rhcc-audience>rhcc-audience:internal</xmp:rhcc-audience>
         <xmp:brand-content-subtype>Icon</xmp:brand-content-subtype>
         <xmp:rhcc-rights-restricted>no</xmp:rhcc-rights-restricted>
         <xmp:rhcc-derivative-id>DER5b009493-6057-4bf0-a780-ac4d016643e8</xmp:rhcc-derivative-id>
         <xmp:rhcc-uploaded-by>pmeilleu@redhat.com</xmp:rhcc-uploaded-by>
         <xmp:brand-logo-color>Red</xmp:brand-logo-color>
         <xmp:rhcc-notify-portal-subscribers-on-change>yes</xmp:rhcc-notify-portal-subscribers-on-change>
         <dc:format>image/svg+xml</dc:format>
         <dc:modified>2024-02-09T20:14:34.777Z</dc:modified>
         <dc:title>
            <rdf:Alt>
               <rdf:li xml:lang="x-default">Automation icon - Red</rdf:li>
            </rdf:Alt>
         </dc:title>
         <dc:description>
            <rdf:Alt>
               <rdf:li xml:lang="x-default">ansible, automate, platform, gear, management, control, software and technologies, telco</rdf:li>
            </rdf:Alt>
         </dc:description>
         <cq:lastReplicationAction_scene7>Activate</cq:lastReplicationAction_scene7>
         <cq:lastReplicationAction_publish>Activate</cq:lastReplicationAction_publish>
         <cq:lastReplicated_publish>2025-01-31T18:12:47.872Z</cq:lastReplicated_publish>
         <cq:lastReplicatedBy>workflow-process-service</cq:lastReplicatedBy>
         <cq:lastReplicationAction>Activate</cq:lastReplicationAction>
         <cq:lastReplicatedBy_publish>workflow-process-service</cq:lastReplicatedBy_publish>
         <cq:isDelivered>false</cq:isDelivered>
         <cq:lastReplicated>2025-01-31T18:12:47.872Z</cq:lastReplicated>
         <cq:lastReplicatedBy_scene7>workflow-process-service</cq:lastReplicatedBy_scene7>
         <cq:lastReplicated_scene7>2025-01-31T18:12:47.872Z</cq:lastReplicated_scene7>
         <tiff:ImageLength>36</tiff:ImageLength>
         <tiff:ImageWidth>36</tiff:ImageWidth>
      </rdf:Description>
   </rdf:RDF>
</x:xmpmeta>
                                                                                                    
                                                                                                    
                                                                                                    
                                                                                                    
                                                                                                    
                                                                                                    
                                                                                                    
                                                                                                    
 
<?xpacket end="w"?></metadata>
<defs>
    <style>
      .eec03b01-2464-449e-8161-b3dc77ba2733 {
        fill: #e00;
      }
    </style>
  </defs>
  <g>
    <g>
      <path class="eec03b01-2464-449e-8161-b3dc77ba2733" d="M14.75,4.38h-6A.63.63,0,0,0,8.12,5v6a.63.63,0,0,0,.63.62h6a.63.63,0,0,0,.63-.62V5A.63.63,0,0,0,14.75,4.38Zm-.63,6H9.38V5.62h4.74Z"/>
      <path class="eec03b01-2464-449e-8161-b3dc77ba2733" d="M14.75,14.38h-6a.63.63,0,0,0-.63.62v6a.63.63,0,0,0,.63.62h6a.63.63,0,0,0,.63-.62V15A.63.63,0,0,0,14.75,14.38Zm-.63,6H9.38V15.62h4.74Z"/>
      <rect class="eec03b01-2464-449e-8161-b3dc77ba2733" x="8.13" y="24.38" width="7.25" height="7.25" rx="0.63"/>
      <path class="eec03b01-2464-449e-8161-b3dc77ba2733" d="M24.25,23.38a.63.63,0,0,0-.63.62v1a2.38,2.38,0,0,1-2.37,2.38H19.76l.93-.94a.62.62,0,0,0-.88-.88l-2,2a.57.57,0,0,0-.19.41.7.7,0,0,0,.19.47l2,2a.63.63,0,0,0,.88,0,.61.61,0,0,0,0-.88l-.93-.94h1.49A3.63,3.63,0,0,0,24.88,25V24A.63.63,0,0,0,24.25,23.38Z"/>
      <path class="eec03b01-2464-449e-8161-b3dc77ba2733" d="M18.25,8.62h3A2.38,2.38,0,0,1,23.62,11v1a.63.63,0,0,0,1.26,0V11a3.63,3.63,0,0,0-3.63-3.62h-3a.62.62,0,1,0,0,1.24Z"/>
    </g>
    <path class="eec03b01-2464-449e-8161-b3dc77ba2733" d="M21.25,18.62h.46a2.49,2.49,0,0,0,.3.73l-.32.33a.62.62,0,0,0,.88.88l.33-.32a2.55,2.55,0,0,0,.72.3V21a.63.63,0,0,0,1.25,0v-.46a2.49,2.49,0,0,0,.73-.3l.33.32a.62.62,0,0,0,.88-.88l-.32-.33a2.49,2.49,0,0,0,.3-.73h.46a.63.63,0,0,0,0-1.25h-.46a2.55,2.55,0,0,0-.3-.72l.32-.33c.58-.56-.32-1.46-.88-.88l-.33.32a2.49,2.49,0,0,0-.73-.3V15a.63.63,0,0,0-1.25,0v.46a2.55,2.55,0,0,0-.72.3l-.33-.32c-.56-.58-1.46.32-.88.88l.32.33a2.55,2.55,0,0,0-.3.72h-.46A.63.63,0,0,0,21.25,18.62Zm3-2a1.38,1.38,0,0,1,0,2.75A1.38,1.38,0,0,1,24.25,16.62Z"/>
  </g>
</svg>
