<svg id="b18c0e3d-b05d-4422-b808-96ae23efa1fc" data-name="Icon" xmlns="http://www.w3.org/2000/svg" viewBox="0 0 36 36">
  <title>Gateway icon - White</title>
<desc>network, communication, communicate, distribute, internet, router, hypervisor, software and technologies</desc>
<metadata><?xpacket begin="﻿" id="W5M0MpCehiHzreSzNTczkc9d"?>
<x:xmpmeta xmlns:x="adobe:ns:meta/" x:xmptk="Adobe XMP Core 8.0-c001 1.000000, 0000/00/00-00:00:00        ">
   <rdf:RDF xmlns:rdf="http://www.w3.org/1999/02/22-rdf-syntax-ns#">
      <rdf:Description rdf:about=""
            xmlns:xmp="http://ns.adobe.com/xap/1.0/"
            xmlns:dc="http://purl.org/dc/elements/1.1/"
            xmlns:cq="http://www.day.com/jcr/cq/1.0"
            xmlns:tiff="http://ns.adobe.com/tiff/1.0/">
         <xmp:rhcc-effective-on>2023-12-08T17:43:28.886Z</xmp:rhcc-effective-on>
         <xmp:rhcc-metadata-complete-moderator>pending</xmp:rhcc-metadata-complete-moderator>
         <xmp:rhcc-translation-id>TRA063ce123-6d7f-48af-8213-ec6ed999b814</xmp:rhcc-translation-id>
         <xmp:brand-content-type>Icon</xmp:brand-content-type>
         <xmp:CreateDate>2023-12-08T17:43:28.886Z</xmp:CreateDate>
         <xmp:rhcc-effective-on-set-on-upload>true</xmp:rhcc-effective-on-set-on-upload>
         <xmp:rhcc-metadata-complete-uploader>pending</xmp:rhcc-metadata-complete-uploader>
         <xmp:rhcc-file-last-modified>2023-12-08T17:44:10.393Z</xmp:rhcc-file-last-modified>
         <xmp:rhcc-audience>rhcc-audience:internal</xmp:rhcc-audience>
         <xmp:rhcc-rights-restricted>no</xmp:rhcc-rights-restricted>
         <xmp:brand-content-subtype>Icon</xmp:brand-content-subtype>
         <xmp:rhcc-derivative-id>DER063ce123-6d7f-48af-8213-ec6ed999b814</xmp:rhcc-derivative-id>
         <xmp:brand-logo-color>White</xmp:brand-logo-color>
         <xmp:rhcc-notify-portal-subscribers-on-change>yes</xmp:rhcc-notify-portal-subscribers-on-change>
         <dc:format>image/svg+xml</dc:format>
         <dc:modified>2024-02-09T20:17:13.311Z</dc:modified>
         <dc:title>
            <rdf:Alt>
               <rdf:li xml:lang="x-default">Gateway icon - White</rdf:li>
            </rdf:Alt>
         </dc:title>
         <dc:description>
            <rdf:Alt>
               <rdf:li xml:lang="x-default">network, communication, communicate, distribute, internet, router, hypervisor, software and technologies</rdf:li>
            </rdf:Alt>
         </dc:description>
         <cq:lastReplicationAction_scene7>Activate</cq:lastReplicationAction_scene7>
         <cq:lastReplicationAction_publish>Activate</cq:lastReplicationAction_publish>
         <cq:lastReplicated_publish>2024-02-09T21:54:27.782Z</cq:lastReplicated_publish>
         <cq:lastReplicatedBy>workflow-process-service</cq:lastReplicatedBy>
         <cq:lastReplicationAction>Activate</cq:lastReplicationAction>
         <cq:lastReplicatedBy_publish>workflow-process-service</cq:lastReplicatedBy_publish>
         <cq:isDelivered>true</cq:isDelivered>
         <cq:lastReplicated>2024-02-09T21:54:27.782Z</cq:lastReplicated>
         <cq:lastReplicatedBy_scene7>workflow-process-service</cq:lastReplicatedBy_scene7>
         <cq:lastReplicated_scene7>2024-02-09T21:54:27.782Z</cq:lastReplicated_scene7>
         <tiff:ImageLength>36</tiff:ImageLength>
         <tiff:ImageWidth>36</tiff:ImageWidth>
      </rdf:Description>
   </rdf:RDF>
</x:xmpmeta>
                                                                                                    
                                                                                                    
                                                                                                    
                                                                                                    
                                                                                                    
                                                                                                    
                                                                                                    
                                                                                                    
                                                                                                    
                                                                                                    
                                 
<?xpacket end="w"?></metadata>
<defs>
    <style>
      .be978f5a-be80-407f-b1b6-135344a94baf {
        fill: #fff;
      }
    </style>
  </defs>
  <g>
    <path class="be978f5a-be80-407f-b1b6-135344a94baf" d="M31,4.38H5A.62.62,0,0,0,4.38,5V31a.62.62,0,0,0,.62.62H31a.62.62,0,0,0,.62-.62V5A.62.62,0,0,0,31,4.38Zm-.62,26H5.62V5.62H30.38Z"/>
    <path class="be978f5a-be80-407f-b1b6-135344a94baf" d="M8.42,27.24a.91.91,0,0,0,.11.16s0,0,0,0l0,0a.66.66,0,0,0,.17.12.67.67,0,0,0,.24,0h3a.62.62,0,0,0,0-1.24H10.51l5.93-5.94a.62.62,0,0,0-.88-.88L9.62,25.49V24a.62.62,0,0,0-1.24,0v3A.78.78,0,0,0,8.42,27.24Z"/>
    <path class="be978f5a-be80-407f-b1b6-135344a94baf" d="M20,16.62a.62.62,0,0,0,.44-.18l5.94-5.93V12a.62.62,0,1,0,1.24,0V9a.78.78,0,0,0,0-.21.91.91,0,0,0-.11-.16s0,0,0,0l0,0a.66.66,0,0,0-.17-.12.67.67,0,0,0-.24,0H24a.62.62,0,0,0,0,1.24h1.49l-5.93,5.94a.61.61,0,0,0,0,.88A.62.62,0,0,0,20,16.62Z"/>
    <path class="be978f5a-be80-407f-b1b6-135344a94baf" d="M14.49,15.38H13a.62.62,0,0,0,0,1.24h3a.67.67,0,0,0,.24,0,.66.66,0,0,0,.17-.12l0,0s0,0,0,0a.91.91,0,0,0,.11-.16.78.78,0,0,0,0-.21V13a.62.62,0,1,0-1.24,0v1.49L9.44,8.56a.62.62,0,0,0-.88.88Z"/>
    <path class="be978f5a-be80-407f-b1b6-135344a94baf" d="M20,23.62a.62.62,0,0,0,.62-.62V21.51l5.94,5.93a.63.63,0,0,0,.88,0,.61.61,0,0,0,0-.88l-5.93-5.94H23a.62.62,0,0,0,0-1.24H20a.67.67,0,0,0-.24,0,.66.66,0,0,0-.17.12l0,0s0,0,0,0a.91.91,0,0,0-.11.16.78.78,0,0,0,0,.21v3A.62.62,0,0,0,20,23.62Z"/>
  </g>
</svg>
