<?xml version="1.0" encoding="UTF-8"?><svg id="uuid-555e80cb-1867-497a-98c9-d91cdf7d2dce" xmlns="http://www.w3.org/2000/svg" viewBox="0 0 36 36"><title>Run (pipeline) icon</title>
<desc>execute, executions, runs, steps, pipelines, tasks, middleware, AI, ML, configure, configuration, workflow, automation, component</desc>
<metadata><?xpacket begin="﻿" id="W5M0MpCehiHzreSzNTczkc9d"?>
<x:xmpmeta xmlns:x="adobe:ns:meta/" x:xmptk="Adobe XMP Core 8.0-c001 1.000000, 0000/00/00-00:00:00        ">
   <rdf:RDF xmlns:rdf="http://www.w3.org/1999/02/22-rdf-syntax-ns#">
      <rdf:Description rdf:about=""
            xmlns:xmp="http://ns.adobe.com/xap/1.0/"
            xmlns:tiff="http://ns.adobe.com/tiff/1.0/"
            xmlns:dc="http://purl.org/dc/elements/1.1/">
         <xmp:rhcc-effective-on>2024-08-09T21:22:45.212Z</xmp:rhcc-effective-on>
         <xmp:rhcc-rights-restricted>no</xmp:rhcc-rights-restricted>
         <xmp:brand-content-subtype>Icon</xmp:brand-content-subtype>
         <xmp:rhcc-metadata-complete-moderator>pending</xmp:rhcc-metadata-complete-moderator>
         <xmp:rhcc-translation-id>TRA60cf06b5-3944-4969-8a2a-80d845415da6</xmp:rhcc-translation-id>
         <xmp:brand-content-type>Icon</xmp:brand-content-type>
         <xmp:CreateDate>2024-08-09T21:22:45.212Z</xmp:CreateDate>
         <xmp:rhcc-derivative-id>DER60cf06b5-3944-4969-8a2a-80d845415da6</xmp:rhcc-derivative-id>
         <xmp:rhcc-effective-on-set-on-upload>true</xmp:rhcc-effective-on-set-on-upload>
         <xmp:rhcc-uploaded-by>ryawilli@redhat.com</xmp:rhcc-uploaded-by>
         <xmp:brand-logo-color>White</xmp:brand-logo-color>
         <xmp:rhcc-metadata-complete-uploader>pending</xmp:rhcc-metadata-complete-uploader>
         <xmp:rhcc-file-last-modified>2024-08-09T21:22:56.318Z</xmp:rhcc-file-last-modified>
         <xmp:rhcc-audience>rhcc-audience:internal</xmp:rhcc-audience>
         <xmp:rhcc-notify-portal-subscribers-on-change>yes</xmp:rhcc-notify-portal-subscribers-on-change>
         <tiff:ImageLength>36</tiff:ImageLength>
         <tiff:ImageWidth>36</tiff:ImageWidth>
         <dc:format>image/svg+xml</dc:format>
         <dc:modified>2024-08-09T21:23:09.764Z</dc:modified>
         <dc:description>
            <rdf:Alt>
               <rdf:li xml:lang="x-default">execute, executions, runs, steps, pipelines, tasks, middleware, AI, ML, configure, configuration, workflow, automation, component</rdf:li>
            </rdf:Alt>
         </dc:description>
         <dc:title>
            <rdf:Alt>
               <rdf:li xml:lang="x-default">Run (pipeline) icon</rdf:li>
            </rdf:Alt>
         </dc:title>
      </rdf:Description>
   </rdf:RDF>
</x:xmpmeta>
                                                                                                    
                                                                                                    
                                                                                                    
                                                                                                    
                                                                                                    
                                                                                                    
                                                                                                    
                                                                                                    
                                                                                                    
                                                                                                    
                                                                                                    
                                                                                                    
                                                                                                    
                                                                                                    
                                                                                                    
                                                                                                    
                                                                                                    
                                                                                                    
                  
<?xpacket end="w"?></metadata>
<defs><style>.uuid-30b6b1b4-ab1f-468e-bf48-f8c10dfbd25e{fill:#fff;stroke-width:0px;}</style></defs><path class="uuid-30b6b1b4-ab1f-468e-bf48-f8c10dfbd25e" d="M28,24.375c-1.785,0-3.2637,1.2992-3.5618,3h-7.4382c-.3452,0-.625.2803-.625.625s.2798.625.625.625h7.4382c.298,1.7008,1.7768,3,3.5618,3,1.999,0,3.625-1.626,3.625-3.625s-1.626-3.625-3.625-3.625ZM28,30.375c-1.3096,0-2.375-1.0654-2.375-2.375s1.0654-2.375,2.375-2.375,2.375,1.0654,2.375,2.375-1.0654,2.375-2.375,2.375Z"/><path class="uuid-30b6b1b4-ab1f-468e-bf48-f8c10dfbd25e" d="M8,11.625c1.785,0,3.2637-1.2992,3.5618-3h9.9293l-.9329.9326c-.2441.2441-.2441.6406,0,.8848.1221.1221.2817.1826.4419.1826s.3198-.0605.4419-.1826l2-2c.01-.01.0133-.0234.0225-.0339.0447-.0509.0858-.1056.1122-.1691.0634-.1531.0634-.3257,0-.4788-.0264-.0635-.0674-.1182-.1122-.1691-.0092-.0105-.0125-.0239-.0225-.0339l-2-1.9995c-.2441-.2441-.6396-.2441-.8838,0s-.2441.6396,0,.8838l.9331.9331h-9.9294c-.298-1.7008-1.7768-3-3.5618-3-1.999,0-3.625,1.626-3.625,3.625s1.626,3.625,3.625,3.625ZM8,5.625c1.3096,0,2.375,1.0654,2.375,2.375s-1.0654,2.375-2.375,2.375-2.375-1.0654-2.375-2.375,1.0654-2.375,2.375-2.375Z"/><path class="uuid-30b6b1b4-ab1f-468e-bf48-f8c10dfbd25e" d="M10,18.625h4.4382c.298,1.7008,1.7768,3,3.5618,3s3.2637-1.2992,3.5618-3h4.4382c3.1016,0,5.625-2.5234,5.625-5.625s-2.5234-5.625-5.625-5.625c-.3452,0-.625.2803-.625.625s.2798.625.625.625c2.4126,0,4.375,1.9629,4.375,4.375s-1.9624,4.375-4.375,4.375h-4.4382c-.298-1.7008-1.7768-3-3.5618-3s-3.2637,1.2992-3.5618,3h-4.4382c-3.1016,0-5.625,2.5234-5.625,5.625s2.5234,5.625,5.625,5.625h2.491l-.9329.9326c-.2441.2441-.2441.6406,0,.8848.1221.1221.2817.1826.4419.1826s.3198-.0605.4419-.1826l2-2c.01-.01.0133-.0234.0225-.0339.0447-.0509.0858-.1056.1122-.1691.0634-.1531.0634-.3257,0-.4788-.0264-.0635-.0674-.1182-.1122-.1691-.0092-.0105-.0125-.0239-.0225-.0339l-2-2c-.2441-.2441-.6396-.2441-.8838,0s-.2441.6406,0,.8848l.9329.9326h-2.491c-2.4126,0-4.375-1.9629-4.375-4.375s1.9624-4.375,4.375-4.375ZM18,15.625c1.3096,0,2.375,1.0654,2.375,2.375s-1.0654,2.375-2.375,2.375-2.375-1.0654-2.375-2.375,1.0654-2.375,2.375-2.375Z"/></svg>