<svg id="ae7d3b90-7245-4183-9a2f-f6c4eec4c71d" data-name="Icon" xmlns="http://www.w3.org/2000/svg" viewBox="0 0 36 36">
  <title>Open hand icon - White</title>
<desc>stop, open, fingers, person, arm, gesture, five, people and audiences</desc>
<metadata><?xpacket begin="﻿" id="W5M0MpCehiHzreSzNTczkc9d"?>
<x:xmpmeta xmlns:x="adobe:ns:meta/" x:xmptk="Adobe XMP Core 8.0-c001 1.000000, 0000/00/00-00:00:00        ">
   <rdf:RDF xmlns:rdf="http://www.w3.org/1999/02/22-rdf-syntax-ns#">
      <rdf:Description rdf:about=""
            xmlns:xmp="http://ns.adobe.com/xap/1.0/"
            xmlns:dc="http://purl.org/dc/elements/1.1/"
            xmlns:cq="http://www.day.com/jcr/cq/1.0"
            xmlns:tiff="http://ns.adobe.com/tiff/1.0/">
         <xmp:rhcc-effective-on>2023-12-08T17:33:55.089Z</xmp:rhcc-effective-on>
         <xmp:rhcc-metadata-complete-moderator>pending</xmp:rhcc-metadata-complete-moderator>
         <xmp:rhcc-translation-id>TRA55349cba-e316-4075-ba9e-8a704b4f0d02</xmp:rhcc-translation-id>
         <xmp:brand-content-type>Icon</xmp:brand-content-type>
         <xmp:CreateDate>2023-12-08T17:33:55.089Z</xmp:CreateDate>
         <xmp:rhcc-aspect-ratio>square</xmp:rhcc-aspect-ratio>
         <xmp:rhcc-effective-on-set-on-upload>true</xmp:rhcc-effective-on-set-on-upload>
         <xmp:rhcc-metadata-complete-uploader>pending</xmp:rhcc-metadata-complete-uploader>
         <xmp:rhcc-file-last-modified>2024-07-12T20:47:40.346Z</xmp:rhcc-file-last-modified>
         <xmp:rhcc-audience>rhcc-audience:internal</xmp:rhcc-audience>
         <xmp:brand-content-subtype>Icon</xmp:brand-content-subtype>
         <xmp:rhcc-rights-restricted>no</xmp:rhcc-rights-restricted>
         <xmp:rhcc-derivative-id>DER55349cba-e316-4075-ba9e-8a704b4f0d02</xmp:rhcc-derivative-id>
         <xmp:rhcc-uploaded-by>pmeilleu@redhat.com</xmp:rhcc-uploaded-by>
         <xmp:brand-logo-color>White</xmp:brand-logo-color>
         <xmp:rhcc-notify-portal-subscribers-on-change>yes</xmp:rhcc-notify-portal-subscribers-on-change>
         <dc:format>image/svg+xml</dc:format>
         <dc:modified>2024-02-09T20:22:19.732Z</dc:modified>
         <dc:title>
            <rdf:Alt>
               <rdf:li xml:lang="x-default">Open hand icon - White</rdf:li>
            </rdf:Alt>
         </dc:title>
         <dc:description>
            <rdf:Alt>
               <rdf:li xml:lang="x-default">stop, open, fingers, person, arm, gesture, five, people and audiences</rdf:li>
            </rdf:Alt>
         </dc:description>
         <cq:lastReplicationAction_scene7>Activate</cq:lastReplicationAction_scene7>
         <cq:lastReplicationAction_publish>Activate</cq:lastReplicationAction_publish>
         <cq:lastReplicated_publish>2024-10-02T19:35:55.141Z</cq:lastReplicated_publish>
         <cq:lastReplicatedBy>workflow-process-service</cq:lastReplicatedBy>
         <cq:lastReplicationAction>Activate</cq:lastReplicationAction>
         <cq:lastReplicatedBy_publish>workflow-process-service</cq:lastReplicatedBy_publish>
         <cq:isDelivered>false</cq:isDelivered>
         <cq:lastReplicated>2024-10-02T19:35:55.141Z</cq:lastReplicated>
         <cq:lastReplicatedBy_scene7>workflow-process-service</cq:lastReplicatedBy_scene7>
         <cq:lastReplicated_scene7>2024-10-02T19:35:55.141Z</cq:lastReplicated_scene7>
         <tiff:ImageLength>36</tiff:ImageLength>
         <tiff:ImageWidth>36</tiff:ImageWidth>
      </rdf:Description>
   </rdf:RDF>
</x:xmpmeta>
                                                                                                    
                                                                                                    
                                                                                                    
                                                                                                    
                                                                                                    
                                                                                                    
                                                                                                    
                                                                                                    
                                                                                                 
<?xpacket end="w"?></metadata>
<defs>
    <style>
      .b881d711-977d-4e74-9d95-35edea82bd57 {
        fill: #fff;
      }
    </style>
  </defs>
  <path class="b881d711-977d-4e74-9d95-35edea82bd57" d="M28.06,14.37a2.57,2.57,0,0,0-3.64,1.4l-.8,2V8A2.62,2.62,0,0,0,19.4,5.94a2.64,2.64,0,0,0-4.8,0A2.62,2.62,0,0,0,10.38,8V9.77a2.63,2.63,0,0,0-4,2.23v9a10.63,10.63,0,0,0,3.36,7.75c5.95,5.73,16.07,2.38,17.65-5.8a32.9,32.9,0,0,1,1.24-3.8C29.38,17.41,30,15.45,28.06,14.37Zm0,2.63c-.55,1.65-1.6,4.2-1.91,5.69a9.48,9.48,0,0,1-8.54,7.66A9.4,9.4,0,0,1,7.63,21V12a1.38,1.38,0,0,1,2.76,0c0,1.33,0,4.72,0,6a.63.63,0,0,0,1.25,0V16c0-2,0-6,0-8a1.37,1.37,0,0,1,2.74,0c0,1.49,0,8.67,0,10a.63.63,0,0,0,1.25,0c0-1.29,0-11,0-11a1.38,1.38,0,1,1,2.76,0s0,9.67,0,11a.62.62,0,0,0,1.24,0V8a1.38,1.38,0,0,1,2.75,0V21a.62.62,0,0,0,1.2.23l2-5A1.3,1.3,0,0,1,28.07,17Z"/>
</svg>
