<?xml version="1.0" encoding="UTF-8"?><svg id="uuid-83037fd9-b88c-4fcc-949f-e24cec06b753" xmlns="http://www.w3.org/2000/svg" viewBox="0 0 38 38"><title>Red Hat Service Interconnect icon</title>
<desc>Cloud, Skupper</desc>
<metadata><?xpacket begin="﻿" id="W5M0MpCehiHzreSzNTczkc9d"?>
<x:xmpmeta xmlns:x="adobe:ns:meta/" x:xmptk="Adobe XMP Core 8.0-c001 1.000000, 0000/00/00-00:00:00        ">
   <rdf:RDF xmlns:rdf="http://www.w3.org/1999/02/22-rdf-syntax-ns#">
      <rdf:Description rdf:about=""
            xmlns:xmp="http://ns.adobe.com/xap/1.0/"
            xmlns:tiff="http://ns.adobe.com/tiff/1.0/"
            xmlns:dc="http://purl.org/dc/elements/1.1/"
            xmlns:xmpRights="http://ns.adobe.com/xap/1.0/rights/">
         <xmp:rhcc-effective-on>2024-08-13T16:28:21.174Z</xmp:rhcc-effective-on>
         <xmp:rhcc-rights-restricted>no</xmp:rhcc-rights-restricted>
         <xmp:brand-content-subtype>Technology icon</xmp:brand-content-subtype>
         <xmp:rhcc-metadata-complete-moderator>pending</xmp:rhcc-metadata-complete-moderator>
         <xmp:rhcc-translation-id>TRA5735a5f9-4d69-4a60-a3df-13f6589b5824</xmp:rhcc-translation-id>
         <xmp:brand-content-type>Icon</xmp:brand-content-type>
         <xmp:CreateDate>2024-08-13T16:28:21.174Z</xmp:CreateDate>
         <xmp:rhcc-derivative-id>DER5735a5f9-4d69-4a60-a3df-13f6589b5824</xmp:rhcc-derivative-id>
         <xmp:rhcc-effective-on-set-on-upload>true</xmp:rhcc-effective-on-set-on-upload>
         <xmp:rhcc-uploaded-by>ryawilli@redhat.com</xmp:rhcc-uploaded-by>
         <xmp:brand-logo-color>Black</xmp:brand-logo-color>
         <xmp:rhcc-metadata-complete-uploader>pending</xmp:rhcc-metadata-complete-uploader>
         <xmp:rhcc-file-last-modified>2024-08-13T16:28:32.585Z</xmp:rhcc-file-last-modified>
         <xmp:rhcc-audience>rhcc-audience:internal</xmp:rhcc-audience>
         <xmp:rhcc-notify-portal-subscribers-on-change>yes</xmp:rhcc-notify-portal-subscribers-on-change>
         <tiff:ImageLength>38</tiff:ImageLength>
         <tiff:ImageWidth>38</tiff:ImageWidth>
         <dc:format>image/svg+xml</dc:format>
         <dc:modified>2024-08-13T16:29:16.080Z</dc:modified>
         <dc:description>
            <rdf:Alt>
               <rdf:li xml:lang="x-default">Cloud, Skupper</rdf:li>
            </rdf:Alt>
         </dc:description>
         <dc:title>
            <rdf:Alt>
               <rdf:li xml:lang="x-default">Red Hat Service Interconnect icon</rdf:li>
            </rdf:Alt>
         </dc:title>
         <xmpRights:UsageTerms>
            <rdf:Alt>
               <rdf:li xml:lang="x-default">Use technology icons to represent Red Hat products and components. Do not remove the icon from the bounding shape.</rdf:li>
            </rdf:Alt>
         </xmpRights:UsageTerms>
      </rdf:Description>
   </rdf:RDF>
</x:xmpmeta>
                                                                                                    
                                                                                                    
                                                                                                    
                                                                                                    
                                                                                                    
                                                                                                    
                                                                                                    
                                                                                                    
                                                                                                    
                                                                                                    
                                                                                                    
                                                                                                    
                                                                                                    
                                                                                                    
                                                                                                    
                                                                                                    
                                                                                                    
                                                                                                    
                  
<?xpacket end="w"?></metadata>
<path d="M26.5,24.394c-1.1422,0-2.1426-.258-2.875-.6837v.2779c0,.5137,1.1201,1.2598,2.875,1.2598s2.875-.7461,2.875-1.2598v-.2932c-.0485.0282-.0847.0621-.1357.0891-.7451.3936-1.7188.6099-2.7393.6099Z"/><path d="M28,1H10C5.0294,1,1,5.0294,1,10v18c0,4.9706,4.0294,9,9,9h18c4.9706,0,9-4.0294,9-9V10c0-4.9706-4.0294-9-9-9ZM25.5,12.5444c.25-.2363.6475-.2231.8838.0278,1.3936,1.4854,2.2988,3.3286,2.6152,5.3301.0537.3408-.1787.6611-.5195.7148-.0332.0054-.0664.0078-.0986.0078-.3018,0-.5674-.2192-.6162-.5273-.2773-1.7529-1.0703-3.3677-2.293-4.6699-.2363-.2515-.2236-.647.0283-.8833ZM16.5425,9.042c.6211-1.0259,1.7373-1.667,2.9575-1.667,1.8047,0,3.29,1.3892,3.4443,3.1543.7969.3105,1.3477,1.0801,1.3477,1.9707,0,1.0493-.7646,1.9238-1.7666,2.0947-.0605.0195-.125.0303-.1924.0303h-5.833c-1.5391,0-2.7915-1.2524-2.7915-2.7915,0-1.5532,1.2905-2.8076,2.834-2.7915ZM11.6162,12.5723c.2368-.252.6318-.2642.8833-.0278.2515.2358.2642.6313.0278.8833-1.2217,1.3022-2.0142,2.917-2.2925,4.6699-.0488.3081-.3145.5273-.6162.5273-.0327,0-.0659-.0024-.0986-.0078-.3413-.0542-.5737-.374-.5195-.7148.3174-2.0015,1.2217-3.8447,2.6157-5.3301ZM12,27.0254c-.1079,0-.2158-.0278-.3125-.0835l-3-1.7319c-.1934-.1118-.3125-.3184-.3125-.5415v-3.4639c0-.2231.1191-.4297.3125-.541l3-1.7324c.1934-.1123.4316-.1123.625,0l3,1.7324c.1934.1113.3125.3179.3125.541v3.4639c0,.2231-.1191.4297-.3125.5415l-3,1.7319c-.0967.0557-.2046.0835-.3125.0835ZM23.5264,28.5596c-1.4121.707-2.9355,1.0654-4.5264,1.0654s-3.1133-.3584-4.5259-1.0654c-.3086-.1548-.4336-.5303-.2793-.8389.1553-.3091.5312-.4326.8389-.2793,2.4761,1.2402,5.4604,1.2393,7.9321,0,.3115-.1543.6846-.0288.8389.2793.1553.3086.0303.6841-.2783.8389ZM30.625,23.9883c0,1.4307-1.7734,2.5098-4.125,2.5098s-4.125-1.0791-4.125-2.5098v-2.1035c0-1.4307,1.7734-2.5098,4.125-2.5098s4.125,1.0791,4.125,2.5098v2.1035Z"/><path d="M16.5,13.375h5.667c.4824,0,.875-.3926.875-.875,0-.4443-.3369-.8149-.7832-.8623-.334-.0352-.5801-.3271-.5586-.6616l.0078-.1426c0-1.2178-.9902-2.2085-2.208-2.2085-.8794,0-1.6743.522-2.0254,1.3296-.1162.2686-.4053.4214-.6904.3647-.0923-.0176-.187-.0278-.2842-.0278-.8501,0-1.5415.6919-1.5415,1.542s.6914,1.5415,1.5415,1.5415Z"/><polygon points="9.625 21.5654 9.625 24.3076 12 25.6787 14.375 24.3076 14.375 21.5654 12 20.1938 9.625 21.5654"/><path d="M26.5,20.625c-1.7549,0-2.875.7461-2.875,1.2598s1.1201,1.2593,2.875,1.2593c.8096,0,1.5957-.1694,2.1572-.4653.4492-.2373.7178-.5337.7178-.7939,0-.5137-1.1201-1.2598-2.875-1.2598Z"/></svg>