<?xml version="1.0" encoding="UTF-8"?><svg xmlns="http://www.w3.org/2000/svg" viewBox="0 0 38 38"><title>Red Hat Service Interconnect icon</title>
<desc>Cloud, Skupper</desc>
<metadata><?xpacket begin="﻿" id="W5M0MpCehiHzreSzNTczkc9d"?>
<x:xmpmeta xmlns:x="adobe:ns:meta/" x:xmptk="Adobe XMP Core 8.0-c001 1.000000, 0000/00/00-00:00:00        ">
   <rdf:RDF xmlns:rdf="http://www.w3.org/1999/02/22-rdf-syntax-ns#">
      <rdf:Description rdf:about=""
            xmlns:xmp="http://ns.adobe.com/xap/1.0/"
            xmlns:tiff="http://ns.adobe.com/tiff/1.0/"
            xmlns:dc="http://purl.org/dc/elements/1.1/"
            xmlns:xmpRights="http://ns.adobe.com/xap/1.0/rights/">
         <xmp:rhcc-translation-id>TRAe24278ab-924c-4bed-8e4a-a8aa902082b4</xmp:rhcc-translation-id>
         <xmp:rhcc-rights-restricted>no</xmp:rhcc-rights-restricted>
         <xmp:CreateDate>2024-08-13T16:28:21.201Z</xmp:CreateDate>
         <xmp:rhcc-audience>rhcc-audience:internal</xmp:rhcc-audience>
         <xmp:brand-content-subtype>Technology</xmp:brand-content-subtype>
         <xmp:rhcc-metadata-complete-moderator>pending</xmp:rhcc-metadata-complete-moderator>
         <xmp:rhcc-file-last-modified>2024-12-19T17:34:15.074Z</xmp:rhcc-file-last-modified>
         <xmp:rhcc-effective-on-set-on-upload>true</xmp:rhcc-effective-on-set-on-upload>
         <xmp:brand-logo-color>Standard</xmp:brand-logo-color>
         <xmp:rhcc-aspect-ratio>square</xmp:rhcc-aspect-ratio>
         <xmp:brand-content-type>Icon</xmp:brand-content-type>
         <xmp:rhcc-effective-on>2024-08-13T16:28:21.201Z</xmp:rhcc-effective-on>
         <xmp:rhcc-notify-portal-subscribers-on-change>yes</xmp:rhcc-notify-portal-subscribers-on-change>
         <xmp:rhcc-derivative-id>DERe24278ab-924c-4bed-8e4a-a8aa902082b4</xmp:rhcc-derivative-id>
         <xmp:rhcc-uploaded-by>ryawilli@redhat.com</xmp:rhcc-uploaded-by>
         <xmp:rhcc-metadata-complete-uploader>pending</xmp:rhcc-metadata-complete-uploader>
         <xmp:rhcc-product>
            <rdf:Bag>
               <rdf:li>rhcc-product:red-hat-service-interconnect</rdf:li>
            </rdf:Bag>
         </xmp:rhcc-product>
         <xmp:brand-colorway>
            <rdf:Bag>
               <rdf:li>colorway:standard</rdf:li>
            </rdf:Bag>
         </xmp:brand-colorway>
         <xmp:brand-subtype>
            <rdf:Bag>
               <rdf:li>Technology icon</rdf:li>
            </rdf:Bag>
         </xmp:brand-subtype>
         <tiff:ImageWidth>38</tiff:ImageWidth>
         <tiff:ImageLength>38</tiff:ImageLength>
         <dc:modified>2024-08-13T16:29:15.298Z</dc:modified>
         <dc:format>image/svg+xml</dc:format>
         <dc:description>
            <rdf:Alt>
               <rdf:li xml:lang="x-default">Cloud, Skupper</rdf:li>
            </rdf:Alt>
         </dc:description>
         <dc:title>
            <rdf:Alt>
               <rdf:li xml:lang="x-default">Red Hat Service Interconnect icon</rdf:li>
            </rdf:Alt>
         </dc:title>
         <xmpRights:UsageTerms>
            <rdf:Alt>
               <rdf:li xml:lang="x-default">Use technology icons to represent Red Hat products and components. Do not remove the icon from the bounding shape.</rdf:li>
            </rdf:Alt>
         </xmpRights:UsageTerms>
      </rdf:Description>
   </rdf:RDF>
</x:xmpmeta>
                                                                                                    
                                                                                                    
                                                                                                    
                                                                                                    
                                                                                                    
                                                                                                    
                                                                                                    
                                                                                                    
                                                                                                    
                                                                                                    
                                                                                                    
                                                                                                    
                                                                               
<?xpacket end="w"?></metadata>
<defs><style>.uuid-4a52a505-2673-44b0-8e74-3c35f09103af{fill:#4d4d4d;}.uuid-869b30c6-cf1d-4c6c-812c-7d67ac7e6938{fill:#fff;}.uuid-541c85a6-fabe-4908-88b0-9376144281bf{fill:#e00;}</style></defs><g id="uuid-138a4ec8-3ca7-40ed-befb-aea3caae17f0"><rect x="1" y="1" width="36" height="36" rx="9" ry="9"/><path class="uuid-4a52a505-2673-44b0-8e74-3c35f09103af" d="M28,2.25c4.2734,0,7.75,3.4766,7.75,7.75v18c0,4.2734-3.4766,7.75-7.75,7.75H10c-4.2734,0-7.75-3.4766-7.75-7.75V10c0-4.2734,3.4766-7.75,7.75-7.75h18M28,1H10C5.0294,1,1,5.0294,1,10v18c0,4.9706,4.0294,9,9,9h18c4.9706,0,9-4.0294,9-9V10c0-4.9706-4.0294-9-9-9h0Z"/></g><g id="uuid-02babe38-1d02-4d1e-b0a2-475bc481ef4f"><path class="uuid-541c85a6-fabe-4908-88b0-9376144281bf" d="M26.3838,12.5723c-.2363-.251-.6338-.2642-.8838-.0278-.252.2363-.2646.6318-.0283.8833,1.2227,1.3022,2.0156,2.917,2.293,4.6699.0488.3081.3145.5273.6162.5273.0322,0,.0654-.0024.0986-.0078.3408-.0537.5732-.374.5195-.7148-.3164-2.0015-1.2217-3.8447-2.6152-5.3301Z"/><path class="uuid-541c85a6-fabe-4908-88b0-9376144281bf" d="M11.6162,12.5723c-1.394,1.4854-2.2983,3.3286-2.6157,5.3301-.0542.3408.1782.6606.5195.7148.0327.0054.0659.0078.0986.0078.3018,0,.5674-.2192.6162-.5273.2783-1.7529,1.0708-3.3677,2.2925-4.6699.2363-.252.2236-.6475-.0278-.8833-.2515-.2363-.6465-.2241-.8833.0278Z"/><path class="uuid-541c85a6-fabe-4908-88b0-9376144281bf" d="M22.9658,27.4414c-2.4717,1.2393-5.4561,1.2402-7.9321,0-.3076-.1533-.6836-.0298-.8389.2793-.1543.3086-.0293.6841.2793.8389,1.4126.707,2.9355,1.0654,4.5259,1.0654s3.1143-.3584,4.5264-1.0654c.3086-.1548.4336-.5303.2783-.8389-.1543-.3081-.5273-.4336-.8389-.2793Z"/><path class="uuid-869b30c6-cf1d-4c6c-812c-7d67ac7e6938" d="M24.292,12.5c0-.8906-.5508-1.6602-1.3477-1.9707-.1543-1.7651-1.6396-3.1543-3.4443-3.1543-1.2202,0-2.3364.6411-2.9575,1.667-1.5435-.0161-2.834,1.2383-2.834,2.7915,0,1.5391,1.2524,2.7915,2.7915,2.7915h5.833c.0674,0,.1318-.0107.1924-.0303,1.002-.1709,1.7666-1.0454,1.7666-2.0947ZM22.167,13.375h-5.667c-.8501,0-1.5415-.6914-1.5415-1.5415s.6914-1.542,1.5415-1.542c.0972,0,.1919.0103.2842.0278.2852.0566.5742-.0962.6904-.3647.3511-.8076,1.146-1.3296,2.0254-1.3296,1.2178,0,2.208.9907,2.208,2.2085l-.0078.1426c-.0215.3345.2246.6265.5586.6616.4463.0474.7832.418.7832.8623,0,.4824-.3926.875-.875.875Z"/><path class="uuid-869b30c6-cf1d-4c6c-812c-7d67ac7e6938" d="M15.3125,20.6636l-3-1.7324c-.1934-.1123-.4316-.1123-.625,0l-3,1.7324c-.1934.1113-.3125.3179-.3125.541v3.4639c0,.2231.1191.4297.3125.5415l3,1.7319c.0967.0557.2046.0835.3125.0835s.2158-.0278.3125-.0835l3-1.7319c.1934-.1118.3125-.3184.3125-.5415v-3.4639c0-.2231-.1191-.4297-.3125-.541ZM14.375,24.3076l-2.375,1.3711-2.375-1.3711v-2.7422l2.375-1.3716,2.375,1.3716v2.7422Z"/><path class="uuid-869b30c6-cf1d-4c6c-812c-7d67ac7e6938" d="M26.5,19.375c-2.3516,0-4.125,1.0791-4.125,2.5098v2.1035c0,1.4307,1.7734,2.5098,4.125,2.5098s4.125-1.0791,4.125-2.5098v-2.1035c0-1.4307-1.7734-2.5098-4.125-2.5098ZM29.375,23.9883c0,.5137-1.1201,1.2598-2.875,1.2598s-2.875-.7461-2.875-1.2598v-.2779c.7324.4257,1.7328.6837,2.875.6837,1.0205,0,1.9941-.2163,2.7393-.6099.0511-.0269.0873-.0609.1357-.0891v.2932ZM28.6572,22.6787c-.5615.2959-1.3477.4653-2.1572.4653-1.7549,0-2.875-.7456-2.875-1.2593s1.1201-1.2598,2.875-1.2598,2.875.7461,2.875,1.2598c0,.2603-.2686.5566-.7178.7939Z"/></g></svg>