<?xml version="1.0" encoding="UTF-8"?>
<svg id="uuid-3658d6a9-6d52-4697-af33-1c043ab5e02e" data-name="Training URL" xmlns="http://www.w3.org/2000/svg" viewBox="0 0 36 36">
  <title>Blood drive icon</title>
<desc>blood drive, icon, red</desc>
<metadata><?xpacket begin="﻿" id="W5M0MpCehiHzreSzNTczkc9d"?>
<x:xmpmeta xmlns:x="adobe:ns:meta/" x:xmptk="Adobe XMP Core 8.0-c001 1.000000, 0000/00/00-00:00:00        ">
   <rdf:RDF xmlns:rdf="http://www.w3.org/1999/02/22-rdf-syntax-ns#">
      <rdf:Description rdf:about=""
            xmlns:xmp="http://ns.adobe.com/xap/1.0/"
            xmlns:tiff="http://ns.adobe.com/tiff/1.0/"
            xmlns:dc="http://purl.org/dc/elements/1.1/"
            xmlns:xmpRights="http://ns.adobe.com/xap/1.0/rights/">
         <xmp:rhcc-effective-on>2024-05-07T17:04:07.457Z</xmp:rhcc-effective-on>
         <xmp:rhcc-rights-restricted>no</xmp:rhcc-rights-restricted>
         <xmp:rhcc-metadata-complete-moderator>pending</xmp:rhcc-metadata-complete-moderator>
         <xmp:rhcc-translation-id>TRA789cafcd-5ce8-4ba0-a5ad-bb9bc8a0cf77</xmp:rhcc-translation-id>
         <xmp:brand-content-type>Icon</xmp:brand-content-type>
         <xmp:CreateDate>2024-05-07T17:04:07.457Z</xmp:CreateDate>
         <xmp:rhcc-aspect-ratio>square</xmp:rhcc-aspect-ratio>
         <xmp:rhcc-derivative-id>DER789cafcd-5ce8-4ba0-a5ad-bb9bc8a0cf77</xmp:rhcc-derivative-id>
         <xmp:rhcc-effective-on-set-on-upload>true</xmp:rhcc-effective-on-set-on-upload>
         <xmp:brand-color-mode>RGB</xmp:brand-color-mode>
         <xmp:rhcc-uploaded-by>sfoltz@redhat.com</xmp:rhcc-uploaded-by>
         <xmp:brand-logo-color>Red</xmp:brand-logo-color>
         <xmp:rhcc-metadata-complete-uploader>pending</xmp:rhcc-metadata-complete-uploader>
         <xmp:rhcc-file-last-modified>2024-07-12T23:49:49.963Z</xmp:rhcc-file-last-modified>
         <xmp:rhcc-audience>rhcc-audience:internal</xmp:rhcc-audience>
         <xmp:rhcc-notify-portal-subscribers-on-change>yes</xmp:rhcc-notify-portal-subscribers-on-change>
         <tiff:ImageLength>36</tiff:ImageLength>
         <tiff:ImageWidth>36</tiff:ImageWidth>
         <dc:format>image/svg+xml</dc:format>
         <dc:modified>2024-05-07T17:10:36.336Z</dc:modified>
         <dc:description>
            <rdf:Alt>
               <rdf:li xml:lang="x-default">blood drive, icon, red</rdf:li>
            </rdf:Alt>
         </dc:description>
         <dc:title>
            <rdf:Alt>
               <rdf:li xml:lang="x-default">Blood drive icon</rdf:li>
            </rdf:Alt>
         </dc:title>
         <xmpRights:UsageTerms>
            <rdf:Alt>
               <rdf:li xml:lang="x-default">One-color icon in red</rdf:li>
            </rdf:Alt>
         </xmpRights:UsageTerms>
      </rdf:Description>
   </rdf:RDF>
</x:xmpmeta>
                                                                                                    
                                                                                                    
                                                                                                    
                                                                                                    
                                                                                                    
                                                                                                    
                                                                                                    
                                                                                                    
                                                                                                    
                                                                                                    
                                                                                                    
                                                                                                    
                                                                                                    
                                                                                                    
                                                                                                    
                                                                                                    
                                                                                                    
                                            
<?xpacket end="w"?></metadata>
<defs>
    <style>
      .uuid-99333238-dc13-49f5-afbf-4c4fee3441a2 {
        fill: #e00;
        stroke-width: 0px;
      }
    </style>
  </defs>
  <path class="uuid-99333238-dc13-49f5-afbf-4c4fee3441a2" d="M11.14,20.93c-.06-.82-1.3-.73-1.25.08.28,4.25,3.84,7.58,8.11,7.58.82,0,.81-1.25,0-1.25-3.61,0-6.62-2.82-6.86-6.42Z"/>
  <path class="uuid-99333238-dc13-49f5-afbf-4c4fee3441a2" d="M31,13.96h-2.96v-2.96c0-.34-.28-.62-.62-.62h-2.16l-6.82-6.84c-.24-.24-.65-.23-.89,0,0,0-5.53,5.55-8.21,8.23-7.71,7.69-2.13,20.92,8.65,20.88,4.23.08,8.66-2.45,10.73-6.34.17-.3.06-.68-.25-.85-.3-.17-.68-.05-.85.25-.5.91-1.13,1.74-1.87,2.48-4.28,4.28-11.25,4.28-15.53,0-4.26-4.09-4.26-11.45,0-15.53,2.22-2.22,6.4-6.42,7.77-7.79,0,0,3.64,3.65,5.5,5.51h-1.03c-.35,0-.62.28-.62.62v2.96h-2.96c-.35,0-.62.28-.62.62v4.95c0,.34.28.62.62.62h2.96v2.96c0,.34.28.62.62.62h4.95c.35,0,.62-.28.62-.62v-2.96h2.96c.35,0,.62-.28.62-.62v-4.95c0-.34-.28-.62-.62-.62ZM30.38,18.91h-2.96c-.35,0-.62.28-.62.62v2.96h-3.7v-2.96c0-.34-.28-.62-.62-.62h-2.96v-3.7h2.96c.35,0,.62-.28.62-.62v-2.96h3.7v2.96c0,.34.28.62.62.62h2.96v3.7Z"/>
</svg>