<?xml version="1.0" encoding="UTF-8"?><svg id="uuid-d1b84238-0c81-4927-8d82-79727f98fcac" xmlns="http://www.w3.org/2000/svg" viewBox="0 0 38 38"><title>Cluster observability icon</title>
<desc>Cloud, operator</desc>
<metadata><?xpacket begin="﻿" id="W5M0MpCehiHzreSzNTczkc9d"?>
<x:xmpmeta xmlns:x="adobe:ns:meta/" x:xmptk="Adobe XMP Core 8.0-c001 1.000000, 0000/00/00-00:00:00        ">
   <rdf:RDF xmlns:rdf="http://www.w3.org/1999/02/22-rdf-syntax-ns#">
      <rdf:Description rdf:about=""
            xmlns:xmp="http://ns.adobe.com/xap/1.0/"
            xmlns:tiff="http://ns.adobe.com/tiff/1.0/"
            xmlns:dc="http://purl.org/dc/elements/1.1/"
            xmlns:xmpRights="http://ns.adobe.com/xap/1.0/rights/">
         <xmp:rhcc-effective-on>2024-04-05T19:51:20.733Z</xmp:rhcc-effective-on>
         <xmp:rhcc-rights-restricted>no</xmp:rhcc-rights-restricted>
         <xmp:brand-content-subtype>Technology icon</xmp:brand-content-subtype>
         <xmp:rhcc-metadata-complete-moderator>pending</xmp:rhcc-metadata-complete-moderator>
         <xmp:rhcc-translation-id>TRAd3706b1f-7fdf-4c81-b224-ad79b07060a0</xmp:rhcc-translation-id>
         <xmp:brand-content-type>Icon</xmp:brand-content-type>
         <xmp:CreateDate>2024-04-05T19:51:20.733Z</xmp:CreateDate>
         <xmp:rhcc-aspect-ratio>square</xmp:rhcc-aspect-ratio>
         <xmp:rhcc-derivative-id>DERd3706b1f-7fdf-4c81-b224-ad79b07060a0</xmp:rhcc-derivative-id>
         <xmp:rhcc-effective-on-set-on-upload>true</xmp:rhcc-effective-on-set-on-upload>
         <xmp:rhcc-uploaded-by>ryawilli@redhat.com</xmp:rhcc-uploaded-by>
         <xmp:brand-logo-color>Standard</xmp:brand-logo-color>
         <xmp:rhcc-metadata-complete-uploader>pending</xmp:rhcc-metadata-complete-uploader>
         <xmp:rhcc-file-last-modified>2024-07-12T23:51:53.472Z</xmp:rhcc-file-last-modified>
         <xmp:rhcc-audience>rhcc-audience:internal</xmp:rhcc-audience>
         <xmp:rhcc-notify-portal-subscribers-on-change>yes</xmp:rhcc-notify-portal-subscribers-on-change>
         <tiff:ImageLength>38</tiff:ImageLength>
         <tiff:ImageWidth>38</tiff:ImageWidth>
         <dc:format>image/svg+xml</dc:format>
         <dc:modified>2024-04-05T19:52:50.457Z</dc:modified>
         <dc:description>
            <rdf:Alt>
               <rdf:li xml:lang="x-default">Cloud, operator</rdf:li>
            </rdf:Alt>
         </dc:description>
         <dc:title>
            <rdf:Alt>
               <rdf:li xml:lang="x-default">Cluster observability icon</rdf:li>
            </rdf:Alt>
         </dc:title>
         <xmpRights:UsageTerms>
            <rdf:Alt>
               <rdf:li xml:lang="x-default">Use technology icons to represent Red Hat products and components. Do not remove the icon from the bounding shape.</rdf:li>
            </rdf:Alt>
         </xmpRights:UsageTerms>
      </rdf:Description>
   </rdf:RDF>
</x:xmpmeta>
                                                                                                    
                                                                                                    
                                                                                                    
                                                                                                    
                                                                                                    
                                                                                                    
                                                                                                    
                                                                                                    
                                                                                                    
                                                                                                    
                                                                                                    
                                                                                                    
                                             
<?xpacket end="w"?></metadata>
<defs><style>.uuid-24b0d97b-681e-4da6-a1c7-7671ae57532a{fill:#e0e0e0;}.uuid-24b0d97b-681e-4da6-a1c7-7671ae57532a,.uuid-97c1ec84-9b81-456e-99aa-713750eb69e0,.uuid-f032178e-bd50-4de7-b773-665bfd5c5bb8,.uuid-4bef820b-56c9-47e7-82a3-2db8d8c7b112{stroke-width:0px;}.uuid-97c1ec84-9b81-456e-99aa-713750eb69e0{fill:#000;}.uuid-f032178e-bd50-4de7-b773-665bfd5c5bb8{fill:#e00;}.uuid-4bef820b-56c9-47e7-82a3-2db8d8c7b112{fill:#fff;}</style></defs><rect class="uuid-4bef820b-56c9-47e7-82a3-2db8d8c7b112" x="1" y="1" width="36" height="36" rx="9" ry="9"/><path class="uuid-24b0d97b-681e-4da6-a1c7-7671ae57532a" d="M28,2.25c4.2734,0,7.75,3.4766,7.75,7.75v18c0,4.2734-3.4766,7.75-7.75,7.75H10c-4.2734,0-7.75-3.4766-7.75-7.75V10c0-4.2734,3.4766-7.75,7.75-7.75h18M28,1H10C5.0294,1,1,5.0294,1,10v18c0,4.9706,4.0294,9,9,9h18c4.9706,0,9-4.0294,9-9V10c0-4.9706-4.0294-9-9-9h0Z"/><path class="uuid-f032178e-bd50-4de7-b773-665bfd5c5bb8" d="M21.375,19c0,.3452.2803.625.625.625s.625-.2798.625-.625c0-1.999-1.626-3.625-3.625-3.625-.3447,0-.625.2798-.625.625s.2803.625.625.625c1.3096,0,2.375,1.0654,2.375,2.375Z"/><path class="uuid-f032178e-bd50-4de7-b773-665bfd5c5bb8" d="M19,13.375c-.7822,0-1.5391.1577-2.25.4683-.3164.1382-.4609.5068-.3223.8232.1377.3164.5078.4585.8223.3223.5527-.2412,1.1416-.3638,1.75-.3638,2.4121,0,4.375,1.9624,4.375,4.375s-1.9629,4.375-4.375,4.375-4.375-1.9624-4.375-4.375c0-.6089.1221-1.1973.3633-1.7495.1387-.3164-.0059-.6851-.3223-.8232-.3145-.1392-.6836.0054-.8223.3223-.3115.7114-.4688,1.4683-.4688,2.2505,0,3.1016,2.5234,5.625,5.625,5.625s5.625-2.5234,5.625-5.625-2.5234-5.625-5.625-5.625Z"/><path class="uuid-97c1ec84-9b81-456e-99aa-713750eb69e0" d="M30.4668,18.7388c-2.0566-4.4731-6.5576-7.3638-11.4668-7.3638s-9.4102,2.8906-11.4668,7.3638c-.0752.166-.0752.3564,0,.5225,2.0566,4.4731,6.5576,7.3638,11.4668,7.3638s9.4102-2.8906,11.4668-7.3638c.0752-.166.0752-.3564,0-.5225ZM19,25.375c-4.3262,0-8.3008-2.4927-10.2061-6.375,1.9053-3.8823,5.8799-6.375,10.2061-6.375s8.3008,2.4927,10.2061,6.375c-1.9053,3.8823-5.8799,6.375-10.2061,6.375Z"/><path class="uuid-97c1ec84-9b81-456e-99aa-713750eb69e0" d="M15.4424,14.5581c-.2441-.2441-.6406-.2441-.8848,0-.2432.2441-.2432.6396,0,.8838l4,4c.1221.1221.2822.1831.4424.1831s.3203-.061.4424-.1831c.2432-.2441.2432-.6396,0-.8838l-4-4Z"/></svg>