<?xml version="1.0" encoding="UTF-8"?>
<svg id="Icon" xmlns="http://www.w3.org/2000/svg" viewBox="0 0 36 36">
  <title>Overflow icon</title>
<desc>overflow, ui</desc>
<metadata><?xpacket begin="﻿" id="W5M0MpCehiHzreSzNTczkc9d"?>
<x:xmpmeta xmlns:x="adobe:ns:meta/" x:xmptk="Adobe XMP Core 8.0-c001 1.000000, 0000/00/00-00:00:00        ">
   <rdf:RDF xmlns:rdf="http://www.w3.org/1999/02/22-rdf-syntax-ns#">
      <rdf:Description rdf:about=""
            xmlns:tiff="http://ns.adobe.com/tiff/1.0/"
            xmlns:xmp="http://ns.adobe.com/xap/1.0/"
            xmlns:dc="http://purl.org/dc/elements/1.1/"
            xmlns:repo="http://ns.adobe.com/aem/metadata-unspecified/repo">
         <tiff:ImageWidth>36</tiff:ImageWidth>
         <tiff:ImageLength>36</tiff:ImageLength>
         <xmp:brand-content-type>Icon</xmp:brand-content-type>
         <xmp:rhcc-file-last-modified>2025-08-13T14:53:44.932Z</xmp:rhcc-file-last-modified>
         <xmp:rhcc-rights-restricted>no</xmp:rhcc-rights-restricted>
         <xmp:brand-content-subtype>Icon</xmp:brand-content-subtype>
         <xmp:brand-colorway>
            <rdf:Bag>
               <rdf:li>colorway:red</rdf:li>
            </rdf:Bag>
         </xmp:brand-colorway>
         <dc:format>image/svg+xml</dc:format>
         <dc:modified>2025-08-13T14:55:37.351Z</dc:modified>
         <dc:description>
            <rdf:Alt>
               <rdf:li xml:lang="x-default">overflow, ui</rdf:li>
            </rdf:Alt>
         </dc:description>
         <dc:title>
            <rdf:Alt>
               <rdf:li xml:lang="x-default">Overflow icon</rdf:li>
            </rdf:Alt>
         </dc:title>
         <repo:encoding>utf-8</repo:encoding>
      </rdf:Description>
   </rdf:RDF>
</x:xmpmeta>
                                                                                                    
                                                                                                    
                                                                                                    
                                                                                                    
                                                                                                    
                                                                                                    
                                                                                                    
                                                                                                    
                                                                                                    
                                                                                                    
                                                                                                    
                                                                                                    
                                                                                                    
                                                                                                    
                                                                                                    
                                                                                                    
                                                                                                    
                                                          
<?xpacket end="w"?></metadata>
<defs>
    <style>
      .cls-1 {
        fill: #e00;
      }
    </style>
  </defs>
  <path class="cls-1" d="M5,4.38c-.35,0-.62.28-.62.62v26c0,.81,1.25.82,1.25,0,0,0,0-26,0-26,0-.34-.28-.62-.62-.62Z"/>
  <path class="cls-1" d="M21,14.62c.35,0,.62-.28.62-.62V5c0-.34-.28-.62-.62-.62s-.62.28-.62.62v9c0,.34.28.62.62.62Z"/>
  <path class="cls-1" d="M21,21.38c-.35,0-.62.28-.62.62v9c0,.34.28.62.62.62s.62-.28.62-.62v-9c0-.34-.28-.62-.62-.62Z"/>
  <path class="cls-1" d="M31.58,18.24c.1-.23.03-.5-.13-.68,0,0-6-6-6-6-.24-.24-.64-.24-.88,0s-.24.64,0,.88l4.93,4.93H9c-.35,0-.62.28-.62.62s.28.62.62.62h20.49l-4.93,4.93c-.4.37-.09,1.09.44,1.07.16,0,.32-.06.44-.18l6-6c.04-.07.1-.13.13-.2Z"/>
</svg>