<?xml version="1.0" encoding="UTF-8"?>
<svg id="Layer_14" xmlns="http://www.w3.org/2000/svg" width="36" height="36" version="1.1" viewBox="0 0 36 36">
  <!-- Generator: Adobe Illustrator 30.2.1, SVG Export Plug-In . SVG Version: 2.1.1 Build 1)  -->
  <defs>
    <style>
      .st0 {
        fill: none;
      }

      .st1 {
        fill: #fff;
      }
    </style>
  </defs>
  <path id="icon" class="st1" d="M31,4.37494H5c-.34521,0-.625.28027-.625.625v26c0,.34473.27979.625.625.625h26c.34521,0,.625-.28027.625-.625V4.99994c0-.34473-.27979-.625-.625-.625ZM30.375,30.37494H5.625V5.62494h24.75v24.75ZM18,27.62494c4.75586,0,8.625-3.86914,8.625-8.625v-8.2998c0-.29492-.20654-.5498-.49512-.61133l-8-1.7002c-.08594-.01758-.17383-.01758-.25977,0l-8,1.7002c-.28857.06152-.49512.31641-.49512.61133v8.2998c0,4.75586,3.86914,8.625,8.625,8.625ZM10.625,11.20599l7.375-1.56738,7.375,1.56738v7.79395c0,4.06641-3.30859,7.375-7.375,7.375s-7.375-3.30859-7.375-7.375v-7.79395ZM14.55811,18.44232c-.24414-.24414-.24414-.64062,0-.88477s.63965-.24414.88379,0l1.55811,1.55859,3.55811-3.55859c.24414-.24414.63965-.24414.88379,0s.24414.64062,0,.88477l-4,4c-.12207.12207-.28174.18262-.44189.18262s-.31982-.06055-.44189-.18262l-2-2Z"/>
  <rect id="transparent_rectangle" class="st0" width="36" height="36"/>
</svg>