<svg id="bc07fda2-f68e-4b31-bf02-2939e0ae6549" data-name="Icon" xmlns="http://www.w3.org/2000/svg" viewBox="0 0 36 36">
  <title>Cheeseburger icon - White</title>
<desc>food, cook, eat, meat, restaurant, cafe, meal, entree, food and drink</desc>
<metadata><?xpacket begin="﻿" id="W5M0MpCehiHzreSzNTczkc9d"?>
<x:xmpmeta xmlns:x="adobe:ns:meta/" x:xmptk="Adobe XMP Core 8.0-c001 1.000000, 0000/00/00-00:00:00        ">
   <rdf:RDF xmlns:rdf="http://www.w3.org/1999/02/22-rdf-syntax-ns#">
      <rdf:Description rdf:about=""
            xmlns:xmp="http://ns.adobe.com/xap/1.0/"
            xmlns:dc="http://purl.org/dc/elements/1.1/"
            xmlns:cq="http://www.day.com/jcr/cq/1.0"
            xmlns:tiff="http://ns.adobe.com/tiff/1.0/">
         <xmp:rhcc-effective-on>2023-12-08T17:45:30.351Z</xmp:rhcc-effective-on>
         <xmp:rhcc-metadata-complete-moderator>pending</xmp:rhcc-metadata-complete-moderator>
         <xmp:rhcc-translation-id>TRA829b86cf-d447-4194-bdea-cb1d09e13dec</xmp:rhcc-translation-id>
         <xmp:brand-content-type>Icon</xmp:brand-content-type>
         <xmp:CreateDate>2023-12-08T17:45:30.351Z</xmp:CreateDate>
         <xmp:rhcc-aspect-ratio>square</xmp:rhcc-aspect-ratio>
         <xmp:rhcc-effective-on-set-on-upload>true</xmp:rhcc-effective-on-set-on-upload>
         <xmp:rhcc-metadata-complete-uploader>pending</xmp:rhcc-metadata-complete-uploader>
         <xmp:rhcc-file-last-modified>2024-07-12T18:58:55.345Z</xmp:rhcc-file-last-modified>
         <xmp:rhcc-audience>rhcc-audience:internal</xmp:rhcc-audience>
         <xmp:brand-content-subtype>Icon</xmp:brand-content-subtype>
         <xmp:rhcc-rights-restricted>no</xmp:rhcc-rights-restricted>
         <xmp:rhcc-derivative-id>DER829b86cf-d447-4194-bdea-cb1d09e13dec</xmp:rhcc-derivative-id>
         <xmp:rhcc-uploaded-by>pmeilleu@redhat.com</xmp:rhcc-uploaded-by>
         <xmp:brand-logo-color>White</xmp:brand-logo-color>
         <xmp:rhcc-notify-portal-subscribers-on-change>yes</xmp:rhcc-notify-portal-subscribers-on-change>
         <dc:format>image/svg+xml</dc:format>
         <dc:modified>2024-02-09T20:36:20.274Z</dc:modified>
         <dc:title>
            <rdf:Alt>
               <rdf:li xml:lang="x-default">Cheeseburger icon - White</rdf:li>
            </rdf:Alt>
         </dc:title>
         <dc:description>
            <rdf:Alt>
               <rdf:li xml:lang="x-default">food, cook, eat, meat, restaurant, cafe, meal, entree, food and drink</rdf:li>
            </rdf:Alt>
         </dc:description>
         <cq:lastReplicationAction_scene7>Activate</cq:lastReplicationAction_scene7>
         <cq:lastReplicationAction_publish>Activate</cq:lastReplicationAction_publish>
         <cq:lastReplicated_publish>2024-10-02T19:30:44.610Z</cq:lastReplicated_publish>
         <cq:lastReplicatedBy>workflow-process-service</cq:lastReplicatedBy>
         <cq:lastReplicationAction>Activate</cq:lastReplicationAction>
         <cq:lastReplicatedBy_publish>workflow-process-service</cq:lastReplicatedBy_publish>
         <cq:isDelivered>false</cq:isDelivered>
         <cq:lastReplicated>2024-10-02T19:30:44.610Z</cq:lastReplicated>
         <cq:lastReplicatedBy_scene7>workflow-process-service</cq:lastReplicatedBy_scene7>
         <cq:lastReplicated_scene7>2024-10-02T19:30:44.610Z</cq:lastReplicated_scene7>
         <tiff:ImageLength>36</tiff:ImageLength>
         <tiff:ImageWidth>36</tiff:ImageWidth>
      </rdf:Description>
   </rdf:RDF>
</x:xmpmeta>
                                                                                                    
                                                                                                    
                                                                                                    
                                                                                                    
                                                                                                    
                                                                                                    
                                                                                                    
                                                                                                    
                                                                                                 
<?xpacket end="w"?></metadata>
<defs>
    <style>
      .bbbb4eb4-e3d1-464f-b47a-cb1ba58ce000 {
        fill: #fff;
      }
    </style>
  </defs>
  <g>
    <path class="bbbb4eb4-e3d1-464f-b47a-cb1ba58ce000" d="M31,21.38c-2-.11-2-2.06-4.33-2s-2.37,1.89-4.33,2c-2-.11-2-2.06-4.33-2s-2.37,1.89-4.34,2a2.3,2.3,0,0,1-1.74-.84,3.5,3.5,0,0,0-5.19,0A2.28,2.28,0,0,1,5,21.38a.62.62,0,0,0,0,1.24c2.34.06,2.37-1.89,4.34-2a2.28,2.28,0,0,1,1.74.84,3.5,3.5,0,0,0,5.19,0,2.25,2.25,0,0,1,3.48,0,3.48,3.48,0,0,0,5.18,0,2.28,2.28,0,0,1,1.74-.84c2,.11,2,2.06,4.33,2A.62.62,0,0,0,31,21.38Z"/>
    <path class="bbbb4eb4-e3d1-464f-b47a-cb1ba58ce000" d="M29,24.38H7a.62.62,0,0,0-.62.62v5a.62.62,0,0,0,.62.62H29a.62.62,0,0,0,.62-.62V25A.62.62,0,0,0,29,24.38Zm-.62,5H7.62V25.62H28.38Z"/>
    <path class="bbbb4eb4-e3d1-464f-b47a-cb1ba58ce000" d="M7,17.62H29a.62.62,0,0,0,.62-.62C29,1.58,7,1.58,6.37,17A.63.63,0,0,0,7,17.62Zm11-11a10.4,10.4,0,0,1,10.36,9.76H7.64A10.4,10.4,0,0,1,18,6.62Z"/>
  </g>
</svg>
