<svg id="bd1d7cbc-4c0a-43b0-9344-105cc50bdcc0" data-name="Icon" xmlns="http://www.w3.org/2000/svg" viewBox="0 0 36 36">
  <title>Target icon - White</title>
<desc>arrow, archer, hit, opportunity, defend, make, complete, finish, goal, bullseye, objects, telco</desc>
<metadata><?xpacket begin="﻿" id="W5M0MpCehiHzreSzNTczkc9d"?>
<x:xmpmeta xmlns:x="adobe:ns:meta/" x:xmptk="Adobe XMP Core 8.0-c001 1.000000, 0000/00/00-00:00:00        ">
   <rdf:RDF xmlns:rdf="http://www.w3.org/1999/02/22-rdf-syntax-ns#">
      <rdf:Description rdf:about=""
            xmlns:xmp="http://ns.adobe.com/xap/1.0/"
            xmlns:dc="http://purl.org/dc/elements/1.1/"
            xmlns:cq="http://www.day.com/jcr/cq/1.0"
            xmlns:tiff="http://ns.adobe.com/tiff/1.0/">
         <xmp:rhcc-effective-on>2023-12-08T17:36:36.607Z</xmp:rhcc-effective-on>
         <xmp:rhcc-metadata-complete-moderator>pending</xmp:rhcc-metadata-complete-moderator>
         <xmp:rhcc-translation-id>TRAc09b05ed-f750-4174-afb8-6a882281945f</xmp:rhcc-translation-id>
         <xmp:brand-content-type>Icon</xmp:brand-content-type>
         <xmp:CreateDate>2023-12-08T17:36:36.607Z</xmp:CreateDate>
         <xmp:rhcc-aspect-ratio>square</xmp:rhcc-aspect-ratio>
         <xmp:rhcc-effective-on-set-on-upload>true</xmp:rhcc-effective-on-set-on-upload>
         <xmp:rhcc-metadata-complete-uploader>pending</xmp:rhcc-metadata-complete-uploader>
         <xmp:rhcc-file-last-modified>2024-12-19T21:08:59.821Z</xmp:rhcc-file-last-modified>
         <xmp:rhcc-audience>rhcc-audience:internal</xmp:rhcc-audience>
         <xmp:brand-content-subtype>Icon</xmp:brand-content-subtype>
         <xmp:rhcc-rights-restricted>no</xmp:rhcc-rights-restricted>
         <xmp:rhcc-derivative-id>DERc09b05ed-f750-4174-afb8-6a882281945f</xmp:rhcc-derivative-id>
         <xmp:rhcc-uploaded-by>pmeilleu@redhat.com</xmp:rhcc-uploaded-by>
         <xmp:brand-logo-color>White</xmp:brand-logo-color>
         <xmp:rhcc-notify-portal-subscribers-on-change>yes</xmp:rhcc-notify-portal-subscribers-on-change>
         <dc:format>image/svg+xml</dc:format>
         <dc:modified>2024-02-09T20:33:27.335Z</dc:modified>
         <dc:title>
            <rdf:Alt>
               <rdf:li xml:lang="x-default">Target icon - White</rdf:li>
            </rdf:Alt>
         </dc:title>
         <dc:description>
            <rdf:Alt>
               <rdf:li xml:lang="x-default">arrow, archer, hit, opportunity, defend, make, complete, finish, goal, bullseye, objects, telco</rdf:li>
            </rdf:Alt>
         </dc:description>
         <cq:lastReplicationAction_scene7>Activate</cq:lastReplicationAction_scene7>
         <cq:lastReplicationAction_publish>Activate</cq:lastReplicationAction_publish>
         <cq:lastReplicated_publish>2025-01-31T18:11:31.418Z</cq:lastReplicated_publish>
         <cq:lastReplicatedBy>workflow-process-service</cq:lastReplicatedBy>
         <cq:lastReplicationAction>Activate</cq:lastReplicationAction>
         <cq:lastReplicatedBy_publish>workflow-process-service</cq:lastReplicatedBy_publish>
         <cq:isDelivered>false</cq:isDelivered>
         <cq:lastReplicated>2025-01-31T18:11:31.418Z</cq:lastReplicated>
         <cq:lastReplicatedBy_scene7>workflow-process-service</cq:lastReplicatedBy_scene7>
         <cq:lastReplicated_scene7>2025-01-31T18:11:31.418Z</cq:lastReplicated_scene7>
         <tiff:ImageLength>36</tiff:ImageLength>
         <tiff:ImageWidth>36</tiff:ImageWidth>
      </rdf:Description>
   </rdf:RDF>
</x:xmpmeta>
                                                                                                    
                                                                                                    
                                                                                                    
                                                                                                    
                                                                                                    
                                                                                                    
                                                                                                    
                                                                                                    
                                                                                          
<?xpacket end="w"?></metadata>
<defs>
    <style>
      .a15bb707-0513-4dfc-8159-882d972f2336 {
        fill: #fff;
      }
    </style>
  </defs>
  <g>
    <path class="a15bb707-0513-4dfc-8159-882d972f2336" d="M17.56,17.56a.62.62,0,0,0,.88.88l5.82-5.82H27a.6.6,0,0,0,.44-.18l4-4A.62.62,0,0,0,31,7.38H28.62V5a.62.62,0,0,0-1.06-.44l-4,4a.59.59,0,0,0-.18.44v2.74Zm9.18-6.18H25.51l2.75-2.76h1.23ZM24.62,9.26l2.76-2.75V7.74l-2.76,2.75Z"/>
    <path class="a15bb707-0513-4dfc-8159-882d972f2336" d="M32.31,15a.62.62,0,1,0-1.22.26A13.59,13.59,0,0,1,31.38,18,13.38,13.38,0,1,1,18,4.62a12.87,12.87,0,0,1,2.78.3.63.63,0,0,0,.74-.49A.62.62,0,0,0,21,3.69,14.57,14.57,0,1,0,32.31,15Z"/>
    <path class="a15bb707-0513-4dfc-8159-882d972f2336" d="M18,14.62a3.27,3.27,0,0,1,.7.08.62.62,0,0,0,.74-.48.61.61,0,0,0-.48-.74,4.41,4.41,0,0,0-1-.1A4.62,4.62,0,1,0,22.62,18a4.34,4.34,0,0,0-.1-1,.61.61,0,0,0-.74-.48.63.63,0,0,0-.48.74,3.27,3.27,0,0,1,.08.7A3.38,3.38,0,1,1,18,14.62Z"/>
    <path class="a15bb707-0513-4dfc-8159-882d972f2336" d="M20.48,9.33A.63.63,0,0,0,20,8.58a10.28,10.28,0,0,0-2-.2A9.62,9.62,0,1,0,27.62,18a10.28,10.28,0,0,0-.2-2,.63.63,0,0,0-1.23.26,8.42,8.42,0,1,1-6.45-6.45A.63.63,0,0,0,20.48,9.33Z"/>
  </g>
</svg>
