<svg id="e2d3b83f-fce8-48dc-af49-182d67cb0dbd" data-name="Icon" xmlns="http://www.w3.org/2000/svg" viewBox="0 0 36 36">
  <title>Tree icon - Red</title>
<desc>forest, nature, shrub, leaves, wood, plant, outside, science and nature, telco, sustainability</desc>
<metadata><?xpacket begin="﻿" id="W5M0MpCehiHzreSzNTczkc9d"?>
<x:xmpmeta xmlns:x="adobe:ns:meta/" x:xmptk="Adobe XMP Core 8.0-c001 1.000000, 0000/00/00-00:00:00        ">
   <rdf:RDF xmlns:rdf="http://www.w3.org/1999/02/22-rdf-syntax-ns#">
      <rdf:Description rdf:about=""
            xmlns:xmp="http://ns.adobe.com/xap/1.0/"
            xmlns:dc="http://purl.org/dc/elements/1.1/"
            xmlns:cq="http://www.day.com/jcr/cq/1.0"
            xmlns:tiff="http://ns.adobe.com/tiff/1.0/">
         <xmp:rhcc-effective-on>2023-12-08T17:41:32.725Z</xmp:rhcc-effective-on>
         <xmp:rhcc-metadata-complete-moderator>pending</xmp:rhcc-metadata-complete-moderator>
         <xmp:rhcc-translation-id>TRA3f59c958-53a2-4805-9a02-cf8bc6430df1</xmp:rhcc-translation-id>
         <xmp:brand-content-type>Icon</xmp:brand-content-type>
         <xmp:CreateDate>2023-12-08T17:41:32.725Z</xmp:CreateDate>
         <xmp:rhcc-aspect-ratio>square</xmp:rhcc-aspect-ratio>
         <xmp:rhcc-effective-on-set-on-upload>true</xmp:rhcc-effective-on-set-on-upload>
         <xmp:rhcc-published-asset-email-sent>true</xmp:rhcc-published-asset-email-sent>
         <xmp:rhcc-metadata-complete-uploader>pending</xmp:rhcc-metadata-complete-uploader>
         <xmp:rhcc-file-last-modified>2024-12-19T21:30:26.835Z</xmp:rhcc-file-last-modified>
         <xmp:rhcc-audience>rhcc-audience:internal</xmp:rhcc-audience>
         <xmp:brand-content-subtype>Icon</xmp:brand-content-subtype>
         <xmp:rhcc-rights-restricted>no</xmp:rhcc-rights-restricted>
         <xmp:rhcc-derivative-id>DER3f59c958-53a2-4805-9a02-cf8bc6430df1</xmp:rhcc-derivative-id>
         <xmp:rhcc-uploaded-by>pmeilleu@redhat.com</xmp:rhcc-uploaded-by>
         <xmp:brand-logo-color>Red</xmp:brand-logo-color>
         <xmp:rhcc-notify-portal-subscribers-on-change>yes</xmp:rhcc-notify-portal-subscribers-on-change>
         <dc:format>image/svg+xml</dc:format>
         <dc:modified>2024-02-09T20:27:08.370Z</dc:modified>
         <dc:title>
            <rdf:Alt>
               <rdf:li xml:lang="x-default">Tree icon - Red</rdf:li>
            </rdf:Alt>
         </dc:title>
         <dc:description>
            <rdf:Alt>
               <rdf:li xml:lang="x-default">forest, nature, shrub, leaves, wood, plant, outside, science and nature, telco, sustainability</rdf:li>
            </rdf:Alt>
         </dc:description>
         <cq:lastReplicationAction_scene7>Activate</cq:lastReplicationAction_scene7>
         <cq:lastReplicationAction_publish>Activate</cq:lastReplicationAction_publish>
         <cq:lastReplicated_publish>2025-01-31T18:06:58.446Z</cq:lastReplicated_publish>
         <cq:lastReplicatedBy>workflow-process-service</cq:lastReplicatedBy>
         <cq:lastReplicationAction>Activate</cq:lastReplicationAction>
         <cq:lastReplicatedBy_publish>workflow-process-service</cq:lastReplicatedBy_publish>
         <cq:isDelivered>false</cq:isDelivered>
         <cq:lastReplicated>2025-01-31T18:06:58.446Z</cq:lastReplicated>
         <cq:lastReplicatedBy_scene7>workflow-process-service</cq:lastReplicatedBy_scene7>
         <cq:lastReplicated_scene7>2025-01-31T18:06:58.446Z</cq:lastReplicated_scene7>
         <tiff:ImageLength>36</tiff:ImageLength>
         <tiff:ImageWidth>36</tiff:ImageWidth>
      </rdf:Description>
   </rdf:RDF>
</x:xmpmeta>
                                                                                                    
                                                                                                    
                                                                                                    
                                                                                                    
                                                                                                    
                                                                                                    
                                                                                                    
                                                                                      
<?xpacket end="w"?></metadata>
<defs>
    <style>
      .b91dbc93-e48d-44a4-acbc-6e7349023f6d {
        fill: #e00;
      }
    </style>
  </defs>
  <g>
    <path class="b91dbc93-e48d-44a4-acbc-6e7349023f6d" d="M22.44,14.44c.58-.56-.32-1.46-.88-.88l-2.94,2.93V11a.62.62,0,1,0-1.24,0V21.56l-3.93-4a.63.63,0,0,0-.9.88l4.83,4.9V31a.62.62,0,0,0,1.24,0V18.26Z"/>
    <path class="b91dbc93-e48d-44a4-acbc-6e7349023f6d" d="M28.44,16.31A6.41,6.41,0,0,0,23.5,8a6.42,6.42,0,0,0-12.15,2.37c-10.18,2.35-8.74,17,1.76,17.27.61,0,1.84.14,1.77-.79s-1.17-.38-1.77-.46C3.86,26.12,2.94,13.07,12,11.5a.71.71,0,0,0,.53-.71,5.17,5.17,0,0,1,9.93-2,.64.64,0,0,0,.5.38,5.14,5.14,0,0,1,4.53,5.09,5.23,5.23,0,0,1-.38,1.94.62.62,0,0,0,.11.65A5.74,5.74,0,0,1,23,26.38c-.75.16-2-.73-2.34.21-.17,1.12,1.6.94,2.34,1A7,7,0,0,0,28.44,16.31Z"/>
  </g>
</svg>
