<?xml version="1.0" encoding="UTF-8"?><svg id="uuid-87e08660-5780-4533-ba0a-24e0094eeba4" xmlns="http://www.w3.org/2000/svg" viewBox="0 0 38 38"><title>orchestrator icon</title>
<desc>Cloud</desc>
<metadata><?xpacket begin="﻿" id="W5M0MpCehiHzreSzNTczkc9d"?>
<x:xmpmeta xmlns:x="adobe:ns:meta/" x:xmptk="Adobe XMP Core 8.0-c001 1.000000, 0000/00/00-00:00:00        ">
   <rdf:RDF xmlns:rdf="http://www.w3.org/1999/02/22-rdf-syntax-ns#">
      <rdf:Description rdf:about=""
            xmlns:xmp="http://ns.adobe.com/xap/1.0/"
            xmlns:tiff="http://ns.adobe.com/tiff/1.0/"
            xmlns:dc="http://purl.org/dc/elements/1.1/"
            xmlns:xmpRights="http://ns.adobe.com/xap/1.0/rights/">
         <xmp:rhcc-effective-on>2024-07-08T20:57:59.877Z</xmp:rhcc-effective-on>
         <xmp:rhcc-rights-restricted>no</xmp:rhcc-rights-restricted>
         <xmp:brand-content-subtype>Technology icon</xmp:brand-content-subtype>
         <xmp:rhcc-metadata-complete-moderator>pending</xmp:rhcc-metadata-complete-moderator>
         <xmp:rhcc-translation-id>TRAae89e964-ddb9-4e3a-ba91-7b0496a777cf</xmp:rhcc-translation-id>
         <xmp:brand-content-type>Icon</xmp:brand-content-type>
         <xmp:CreateDate>2024-07-08T20:57:59.877Z</xmp:CreateDate>
         <xmp:rhcc-aspect-ratio>square</xmp:rhcc-aspect-ratio>
         <xmp:rhcc-derivative-id>DERae89e964-ddb9-4e3a-ba91-7b0496a777cf</xmp:rhcc-derivative-id>
         <xmp:rhcc-effective-on-set-on-upload>true</xmp:rhcc-effective-on-set-on-upload>
         <xmp:rhcc-uploaded-by>ryawilli@redhat.com</xmp:rhcc-uploaded-by>
         <xmp:brand-logo-color>Red</xmp:brand-logo-color>
         <xmp:rhcc-metadata-complete-uploader>pending</xmp:rhcc-metadata-complete-uploader>
         <xmp:rhcc-file-last-modified>2024-07-13T00:26:52.276Z</xmp:rhcc-file-last-modified>
         <xmp:rhcc-audience>rhcc-audience:internal</xmp:rhcc-audience>
         <xmp:rhcc-notify-portal-subscribers-on-change>yes</xmp:rhcc-notify-portal-subscribers-on-change>
         <xmp:rhcc-product>
            <rdf:Bag>
               <rdf:li>rhcc-product:red-hat-developer-hub</rdf:li>
            </rdf:Bag>
         </xmp:rhcc-product>
         <tiff:ImageLength>38</tiff:ImageLength>
         <tiff:ImageWidth>38</tiff:ImageWidth>
         <dc:format>image/svg+xml</dc:format>
         <dc:modified>2024-07-08T20:59:23.189Z</dc:modified>
         <dc:description>
            <rdf:Alt>
               <rdf:li xml:lang="x-default">Cloud</rdf:li>
            </rdf:Alt>
         </dc:description>
         <dc:title>
            <rdf:Alt>
               <rdf:li xml:lang="x-default">orchestrator icon</rdf:li>
            </rdf:Alt>
         </dc:title>
         <xmpRights:UsageTerms>
            <rdf:Alt>
               <rdf:li xml:lang="x-default">Use technology icons to represent Red Hat products and components. Do not remove the icon from the bounding shape.</rdf:li>
            </rdf:Alt>
         </xmpRights:UsageTerms>
      </rdf:Description>
   </rdf:RDF>
</x:xmpmeta>
                                                                                                    
                                                                                                    
                                                                                                    
                                                                                                    
                                                                                                    
                                                                                                    
                                                                                                    
                                                                                                    
                                                                                                    
                                                                                                    
                                                                                                    
                                                                                                    
                                                                                                    
                                                                                                    
                                                                                                    
                                                                                                    
                                                                                     
<?xpacket end="w"?></metadata>
<defs><style>.uuid-23853cb6-62fc-4424-84f4-827bb0440fbb{fill:#e00;stroke-width:0px;}</style></defs><path class="uuid-23853cb6-62fc-4424-84f4-827bb0440fbb" d="M28,1H10C5.0294,1,1,5.0294,1,10v18c0,4.9706,4.0294,9,9,9h18c4.9706,0,9-4.0294,9-9V10c0-4.9706-4.0294-9-9-9ZM35.75,28c0,4.2734-3.4766,7.75-7.75,7.75H10c-4.2734,0-7.75-3.4766-7.75-7.75V10c0-4.2734,3.4766-7.75,7.75-7.75h18c4.2734,0,7.75,3.4766,7.75,7.75v18Z"/><path class="uuid-23853cb6-62fc-4424-84f4-827bb0440fbb" d="M14.625,14v-4c0-.3452-.2803-.625-.625-.625h-4c-.3447,0-.625.2798-.625.625v4c0,.3452.2803.625.625.625h4c.3447,0,.625-.2798.625-.625ZM13.375,13.375h-2.75v-2.75h2.75v2.75Z"/><path class="uuid-23853cb6-62fc-4424-84f4-827bb0440fbb" d="M27,22.6196c.1699,0,.3301-.0596.4395-.1797.1201-.1104.1904-.2803.1904-.4399,0-.0801-.0205-.1602-.0498-.2402-.0303-.0698-.0801-.1401-.1406-.1997-.2295-.2305-.6494-.2305-.8799,0-.1201.1099-.1797.2695-.1797.4399,0,.1699.0596.3296.1797.4399.1201.1201.2803.1797.4404.1797Z"/><path class="uuid-23853cb6-62fc-4424-84f4-827bb0440fbb" d="M25,22.6196c.1699,0,.3301-.0596.4395-.1797.1201-.1104.1904-.2803.1904-.4399,0-.0801-.0205-.1602-.0498-.2402-.0303-.0698-.0801-.1401-.1406-.1997-.0498-.0601-.1299-.1104-.1992-.1401-.2305-.0903-.5107-.04-.6807.1401-.0596.0596-.1094.1299-.1396.1997-.0303.0801-.0498.1602-.0498.2402,0,.1597.0693.3296.1895.4399.1104.1201.2803.1797.4404.1797Z"/><path class="uuid-23853cb6-62fc-4424-84f4-827bb0440fbb" d="M29,19.375h-8c-.3447,0-.625.2798-.625.625v8c0,.3452.2803.625.625.625h8c.3447,0,.625-.2798.625-.625v-8c0-.3452-.2803-.625-.625-.625ZM28.375,27.375h-6.75v-6.75h6.75v6.75Z"/><path class="uuid-23853cb6-62fc-4424-84f4-827bb0440fbb" d="M16,12.625h5.5c1.0342,0,1.875.8413,1.875,1.875s-.8408,1.875-1.875,1.875h-2.875v-.375c0-.2529-.1523-.4805-.3857-.5776-.2314-.0952-.502-.0439-.6816.1357l-1,1c-.0129.0129-.0175.03-.0289.0438-.0412.0488-.0806.0994-.1054.1592-.0276.067-.039.1382-.0424.2096-.0005.0103-.0059.0189-.0059.0293,0,.0104.0055.0192.006.0295.0034.0713.0147.1423.0423.2094.0249.0601.0644.111.1058.16.0114.0135.0158.0304.0285.0431l1,1c.1201.1196.2803.1831.4424.1831.0811,0,.1621-.0156.2393-.0474.2334-.0972.3857-.3247.3857-.5776v-.375h2.875c1.7227,0,3.125-1.4019,3.125-3.125s-1.4023-3.125-3.125-3.125h-5.5c-.3447,0-.625.2798-.625.625s.2803.625.625.625Z"/><path class="uuid-23853cb6-62fc-4424-84f4-827bb0440fbb" d="M17.4424,20.5581c-.2441-.2441-.6406-.2441-.8848,0-.2432.2441-.2432.6396,0,.8838l.9334.9331h-3.491c-1.3096,0-2.375-1.0654-2.375-2.375s1.0654-2.375,2.375-2.375h1c.3447,0,.625-.2798.625-.625s-.2803-.625-.625-.625h-1c-1.999,0-3.625,1.626-3.625,3.625s1.626,3.625,3.625,3.625h3.491l-.9334.9331c-.2432.2441-.2432.6396,0,.8838.1221.1221.2822.1831.4424.1831s.3203-.061.4424-.1831l2-2c.2432-.2441.2432-.6396,0-.8838l-2-2Z"/></svg>