<?xml version="1.0" encoding="UTF-8"?><svg id="uuid-ae372eab-a7b9-458d-8390-b99fb78fc1e6" xmlns="http://www.w3.org/2000/svg" viewBox="0 0 38 38"><title>Private automation hub icon</title>
<desc>Ansible, Management, component</desc>
<metadata><?xpacket begin="﻿" id="W5M0MpCehiHzreSzNTczkc9d"?>
<x:xmpmeta xmlns:x="adobe:ns:meta/" x:xmptk="Adobe XMP Core 8.0-c001 1.000000, 0000/00/00-00:00:00        ">
   <rdf:RDF xmlns:rdf="http://www.w3.org/1999/02/22-rdf-syntax-ns#">
      <rdf:Description rdf:about=""
            xmlns:xmp="http://ns.adobe.com/xap/1.0/"
            xmlns:dc="http://purl.org/dc/elements/1.1/"
            xmlns:cq="http://www.day.com/jcr/cq/1.0"
            xmlns:tiff="http://ns.adobe.com/tiff/1.0/"
            xmlns:xmpRights="http://ns.adobe.com/xap/1.0/rights/">
         <xmp:rhcc-effective-on>2024-03-01T15:26:22.905Z</xmp:rhcc-effective-on>
         <xmp:rhcc-metadata-complete-moderator>pending</xmp:rhcc-metadata-complete-moderator>
         <xmp:rhcc-translation-id>TRAe7e04668-0cd8-44d0-93f0-d611c6c6eca3</xmp:rhcc-translation-id>
         <xmp:brand-content-type>Icon</xmp:brand-content-type>
         <xmp:CreateDate>2024-03-01T15:26:22.905Z</xmp:CreateDate>
         <xmp:rhcc-aspect-ratio>square</xmp:rhcc-aspect-ratio>
         <xmp:rhcc-effective-on-set-on-upload>true</xmp:rhcc-effective-on-set-on-upload>
         <xmp:rhcc-published-asset-email-sent>true</xmp:rhcc-published-asset-email-sent>
         <xmp:rhcc-metadata-complete-uploader>pending</xmp:rhcc-metadata-complete-uploader>
         <xmp:rhcc-file-last-modified>2024-07-13T00:09:19.382Z</xmp:rhcc-file-last-modified>
         <xmp:rhcc-audience>rhcc-audience:internal</xmp:rhcc-audience>
         <xmp:rhcc-rights-restricted>no</xmp:rhcc-rights-restricted>
         <xmp:brand-content-subtype>Technology icon</xmp:brand-content-subtype>
         <xmp:rhcc-derivative-id>DERe7e04668-0cd8-44d0-93f0-d611c6c6eca3</xmp:rhcc-derivative-id>
         <xmp:rhcc-uploaded-by>pmeilleu@redhat.com</xmp:rhcc-uploaded-by>
         <xmp:brand-logo-color>Black</xmp:brand-logo-color>
         <xmp:rhcc-notify-portal-subscribers-on-change>yes</xmp:rhcc-notify-portal-subscribers-on-change>
         <xmp:rhcc-product>
            <rdf:Bag>
               <rdf:li>rhcc-product:red-hat-ansible-automation-platform</rdf:li>
            </rdf:Bag>
         </xmp:rhcc-product>
         <xmp:brand-subtype>
            <rdf:Bag>
               <rdf:li>Technology icon</rdf:li>
            </rdf:Bag>
         </xmp:brand-subtype>
         <dc:format>image/svg+xml</dc:format>
         <dc:modified>2024-05-10T13:41:01.638Z</dc:modified>
         <dc:title>
            <rdf:Alt>
               <rdf:li xml:lang="x-default">Private automation hub icon</rdf:li>
            </rdf:Alt>
         </dc:title>
         <dc:description>
            <rdf:Alt>
               <rdf:li xml:lang="x-default">Ansible, Management, component</rdf:li>
            </rdf:Alt>
         </dc:description>
         <cq:lastReplicationAction_scene7>Activate</cq:lastReplicationAction_scene7>
         <cq:lastReplicationAction_publish>Activate</cq:lastReplicationAction_publish>
         <cq:lastReplicated_publish>2024-10-02T19:51:50.320Z</cq:lastReplicated_publish>
         <cq:lastReplicatedBy>workflow-process-service</cq:lastReplicatedBy>
         <cq:lastReplicationAction>Activate</cq:lastReplicationAction>
         <cq:lastReplicatedBy_publish>workflow-process-service</cq:lastReplicatedBy_publish>
         <cq:isDelivered>false</cq:isDelivered>
         <cq:lastReplicated>2024-10-02T19:51:50.320Z</cq:lastReplicated>
         <cq:lastReplicatedBy_scene7>workflow-process-service</cq:lastReplicatedBy_scene7>
         <cq:lastReplicated_scene7>2024-10-02T19:51:50.320Z</cq:lastReplicated_scene7>
         <tiff:ImageLength>38</tiff:ImageLength>
         <tiff:ImageWidth>38</tiff:ImageWidth>
         <xmpRights:UsageTerms>
            <rdf:Alt>
               <rdf:li xml:lang="x-default">Use technology icons to represent Red Hat products and components. Do not remove the icon from the bounding shape.</rdf:li>
            </rdf:Alt>
         </xmpRights:UsageTerms>
      </rdf:Description>
   </rdf:RDF>
</x:xmpmeta>
                                                                                                    
                                                                                                    
                                                                                                    
                                                                                                    
                                                                                                    
                                                                                                    
                                                                                                    
                                                                                                    
                                                                                                    
                                                                                                    
                                                                                                    
                                                                                                    
                                                                                                    
                                                                                                    
                                                                                                    
                                                                                                    
                                                      
<?xpacket end="w"?></metadata>
<path d="m28,1H10C5.02942,1,1,5.02942,1,10v18c0,4.97058,4.02942,9,9,9h18c4.97058,0,9-4.02942,9-9V10c0-4.97058-4.02942-9-9-9Zm7.75,27c0,4.27338-3.47668,7.75-7.75,7.75H10c-4.27332,0-7.75-3.47662-7.75-7.75V10c0-4.27338,3.47668-7.75,7.75-7.75h18c4.27332,0,7.75,3.47662,7.75,7.75v18Z"/><path d="m14,10.47559h-3c-.34473,0-.625.28027-.625.625v3c0,.34473.28027.625.625.625h3c.34473,0,.625-.28027.625-.625v-3c0-.34473-.28027-.625-.625-.625Zm-.625,3h-1.75v-1.75h1.75v1.75Z"/><path d="m27,10.47559h-3c-.34473,0-.625.28027-.625.625v3c0,.34473.28027.625.625.625h3c.34473,0,.625-.28027.625-.625v-3c0-.34473-.28027-.625-.625-.625Zm-.625,3h-1.75v-1.75h1.75v1.75Z"/><path d="m27,23.47559h-3c-.34473,0-.625.28027-.625.625v3c0,.34473.28027.625.625.625h3c.34473,0,.625-.28027.625-.625v-3c0-.34473-.28027-.625-.625-.625Zm-.625,3h-1.75v-1.75h1.75v1.75Z"/><path d="m14,23.47559h-3c-.34473,0-.625.28027-.625.625v3c0,.34473.28027.625.625.625h3c.34473,0,.625-.28027.625-.625v-3c0-.34473-.28027-.625-.625-.625Zm-.625,3h-1.75v-1.75h1.75v1.75Z"/><path d="m21.15527,10.74707c-1.4043-.35938-2.90625-.35938-4.31055,0-.33398.08594-.53613.42676-.4502.76074.08496.33301.42285.53906.76074.4502,1.20312-.30859,2.48633-.30859,3.68945,0,.05176.01367.10449.01953.15527.01953.2793,0,.5332-.1875.60547-.46973.08594-.33398-.11621-.6748-.4502-.76074Z"/><path d="m11.40723,16.49512c-.33691-.08984-.6748.11719-.76074.4502-.17969.70117-.27148,1.42676-.27148,2.15527,0,.72754.0918,1.45312.27148,2.15527.07227.28223.32617.46973.60547.46973.05078,0,.10352-.00586.15527-.01953.33398-.08594.53613-.42676.4502-.76074-.1543-.60156-.23242-1.22168-.23242-1.84473,0-.62402.07812-1.24414.23242-1.84473.08594-.33398-.11523-.6748-.4502-.76074Z"/><path d="m20.84473,26.24316c-1.20312.30859-2.48633.30859-3.68945,0-.33691-.08789-.6748.11621-.76074.4502s.11621.6748.4502.76074c.70215.17969,1.42773.27148,2.15527.27148s1.45312-.0918,2.15527-.27148c.33398-.08594.53613-.42676.4502-.76074-.08496-.33398-.42383-.53906-.76074-.4502Z"/><path d="m26.59277,16.49512c-.33496.08594-.53613.42676-.4502.76074.1543.60059.23242,1.2207.23242,1.84473,0,.62305-.07812,1.24316-.23242,1.84473-.08594.33398.11621.6748.4502.76074.05176.01367.10449.01953.15527.01953.2793,0,.5332-.1875.60547-.46973.17969-.70215.27148-1.42773.27148-2.15527,0-.72852-.0918-1.4541-.27148-2.15527-.08594-.33301-.42383-.54102-.76074-.4502Z"/><path d="m20.91113,17.38574c0-1.05371-.85742-1.91016-1.91113-1.91016s-1.91113.85645-1.91113,1.91016c0,.62775.30835,1.18103.77722,1.52966l-.75867,3.03381c-.04688.18652-.00488.38477.11426.53613.11816.15137.2998.24023.49219.24023h2.57227c.19238,0,.37402-.08887.49219-.24023.11914-.15137.16113-.34961.11426-.53613l-.75867-3.03381c.46887-.34863.77722-.90192.77722-1.52966Zm-2.39648,4.08984l.48535-1.94141.48535,1.94141h-.9707Zm.48535-3.42871c-.36426,0-.66113-.29688-.66113-.66113s.29688-.66016.66113-.66016.66113.2959.66113.66016-.29688.66113-.66113.66113Z"/></svg>