<?xml version="1.0" encoding="UTF-8"?>
<svg id="uuid-39ba5e7d-26b8-4a23-98d9-a5793a4d186e" data-name="Icon" xmlns="http://www.w3.org/2000/svg" viewBox="0 0 36 36">
  <title>Cargo ship icon - Red</title>
<desc>logistics, supply chain, boat, water, ocean, sea, delivery, shipping, industry, transportation</desc>
<metadata><?xpacket begin="﻿" id="W5M0MpCehiHzreSzNTczkc9d"?>
<x:xmpmeta xmlns:x="adobe:ns:meta/" x:xmptk="Adobe XMP Core 8.0-c001 1.000000, 0000/00/00-00:00:00        ">
   <rdf:RDF xmlns:rdf="http://www.w3.org/1999/02/22-rdf-syntax-ns#">
      <rdf:Description rdf:about=""
            xmlns:xmp="http://ns.adobe.com/xap/1.0/"
            xmlns:dc="http://purl.org/dc/elements/1.1/"
            xmlns:cq="http://www.day.com/jcr/cq/1.0"
            xmlns:tiff="http://ns.adobe.com/tiff/1.0/">
         <xmp:rhcc-effective-on>2023-12-08T17:46:09.362Z</xmp:rhcc-effective-on>
         <xmp:rhcc-metadata-complete-moderator>pending</xmp:rhcc-metadata-complete-moderator>
         <xmp:rhcc-translation-id>TRA33ab2e5b-33f4-4928-9478-07c913db9da1</xmp:rhcc-translation-id>
         <xmp:brand-content-type>Icon</xmp:brand-content-type>
         <xmp:CreateDate>2023-12-08T17:46:09.362Z</xmp:CreateDate>
         <xmp:rhcc-aspect-ratio>square</xmp:rhcc-aspect-ratio>
         <xmp:rhcc-effective-on-set-on-upload>true</xmp:rhcc-effective-on-set-on-upload>
         <xmp:rhcc-published-asset-email-sent>true</xmp:rhcc-published-asset-email-sent>
         <xmp:rhcc-metadata-complete-uploader>pending</xmp:rhcc-metadata-complete-uploader>
         <xmp:rhcc-file-last-modified>2024-07-12T21:17:49.345Z</xmp:rhcc-file-last-modified>
         <xmp:rhcc-audience>rhcc-audience:internal</xmp:rhcc-audience>
         <xmp:brand-content-subtype>Icon</xmp:brand-content-subtype>
         <xmp:rhcc-rights-restricted>no</xmp:rhcc-rights-restricted>
         <xmp:rhcc-derivative-id>DER33ab2e5b-33f4-4928-9478-07c913db9da1</xmp:rhcc-derivative-id>
         <xmp:rhcc-uploaded-by>pmeilleu@redhat.com</xmp:rhcc-uploaded-by>
         <xmp:brand-logo-color>Red</xmp:brand-logo-color>
         <xmp:rhcc-notify-portal-subscribers-on-change>yes</xmp:rhcc-notify-portal-subscribers-on-change>
         <dc:format>image/svg+xml</dc:format>
         <dc:modified>2024-02-09T20:24:56.605Z</dc:modified>
         <dc:title>
            <rdf:Alt>
               <rdf:li xml:lang="x-default">Cargo ship icon - Red</rdf:li>
            </rdf:Alt>
         </dc:title>
         <dc:description>
            <rdf:Alt>
               <rdf:li xml:lang="x-default">logistics, supply chain, boat, water, ocean, sea, delivery, shipping, industry, transportation</rdf:li>
            </rdf:Alt>
         </dc:description>
         <cq:lastReplicationAction_scene7>Activate</cq:lastReplicationAction_scene7>
         <cq:lastReplicationAction_publish>Activate</cq:lastReplicationAction_publish>
         <cq:lastReplicated_publish>2024-10-02T19:46:11.456Z</cq:lastReplicated_publish>
         <cq:lastReplicatedBy>workflow-process-service</cq:lastReplicatedBy>
         <cq:lastReplicationAction>Activate</cq:lastReplicationAction>
         <cq:lastReplicatedBy_publish>workflow-process-service</cq:lastReplicatedBy_publish>
         <cq:isDelivered>false</cq:isDelivered>
         <cq:lastReplicated>2024-10-02T19:46:11.456Z</cq:lastReplicated>
         <cq:lastReplicatedBy_scene7>workflow-process-service</cq:lastReplicatedBy_scene7>
         <cq:lastReplicated_scene7>2024-10-02T19:46:11.456Z</cq:lastReplicated_scene7>
         <tiff:ImageLength>36</tiff:ImageLength>
         <tiff:ImageWidth>36</tiff:ImageWidth>
      </rdf:Description>
   </rdf:RDF>
</x:xmpmeta>
                                                                                                    
                                                                                                    
                                                                                                    
                                                                                                    
                                                                                                    
                                                                                                    
                                                                                                    
                                                                                                    
        
<?xpacket end="w"?></metadata>
<defs>
    <style>
      .uuid-d6354b89-3463-4b7f-8ee4-19fd5dd7c0fa {
        fill: #e00;
      }
    </style>
  </defs>
  <path class="uuid-d6354b89-3463-4b7f-8ee4-19fd5dd7c0fa" d="M12.38,16.62v1.38c0,.34,.28,.62,.62,.62h15c.35,0,.62-.28,.62-.62v-1.38h1.51l-2.71,6.09c-.14,.32,0,.68,.32,.83,.08,.04,.17,.05,.25,.05,.24,0,.47-.14,.57-.37l3.1-6.96c.14-.32,0-.68-.32-.83-.1-.04-.2-.05-.3-.04-.02,0-.03-.01-.05-.01h-2.38v-3.38c0-.34-.28-.62-.62-.62h-4.38v-2.38c0-.34-.28-.62-.62-.62h-5c-.35,0-.62,.28-.62,.62v8.38h-1.75v-5.38c0-.34-.28-.62-.62-.62h-1.38v-.75h.38c.35,0,.62-.28,.62-.62s-.28-.62-.62-.62h-2c-.35,0-.62,.28-.62,.62s.28,.62,.62,.62h.38v.75h-2.38c-.17,0-.32,.07-.44,.18l-3.82,3.82h-.74c-.35,0-.62,.28-.62,.62,0,2.66,.82,5.21,2.37,7.37,.12,.17,.31,.26,.51,.26,.13,0,.25-.04,.36-.12,.28-.2,.34-.59,.14-.87-1.27-1.77-1.99-3.84-2.11-6.01h6.73Zm15-2.25h-3.75v-1.75h3.75v1.75Zm-8.75-1.75h3.75v1.75h-3.75v-1.75Zm0-3h3.75v1.75h-3.75v-1.75Zm-5.62,5.75H7.51l2.75-2.75h4.12v4.75h-.75v-1.38c0-.34-.28-.62-.62-.62Zm5.62,.25h3.75v1.75h-3.75v-1.75Zm8.75,1.75h-3.75v-1.75h3.75v1.75Z"/>
  <path class="uuid-d6354b89-3463-4b7f-8ee4-19fd5dd7c0fa" d="M31.32,25.92c-.32-.19-.6-.42-.85-.71-.12-.14-.29-.21-.47-.21s-.35,.08-.47,.21c-.65,.74-1.57,1.17-2.53,1.17s-1.88-.42-2.53-1.17c-.24-.27-.7-.27-.94,0-.65,.74-1.57,1.17-2.53,1.17s-1.88-.42-2.53-1.17c-.24-.27-.7-.27-.94,0-.65,.74-1.57,1.17-2.53,1.17s-1.88-.42-2.53-1.17c-.24-.27-.7-.27-.94,0-.65,.74-1.57,1.17-2.53,1.17s-1.88-.42-2.53-1.17c-.24-.27-.7-.27-.94,0-.25,.28-.53,.52-.85,.71-.3,.18-.4,.56-.22,.86,.18,.3,.56,.39,.86,.22,.24-.14,.47-.31,.68-.49,1.67,1.44,4.33,1.44,6,0,1.67,1.44,4.33,1.44,6,0,1.67,1.44,4.33,1.44,6,0,.84,.72,1.9,1.13,3,1.13s2.16-.4,3-1.12c.21,.18,.44,.35,.68,.49,.3,.17,.68,.08,.86-.22s.08-.68-.22-.86Z"/>
</svg>