<?xml version="1.0" encoding="UTF-8"?><svg id="uuid-69a055fe-dcd6-4da7-ad0a-4bda542a43dd" xmlns="http://www.w3.org/2000/svg" width="36" height="36" viewBox="0 0 36 36"><title>Cloud (private) icon (2 color)</title>
<desc>on-premise, on-prem, self-hosted, dedicated, internal, corporate, enterprise, internal network, virtualization, vsphere, vpc, datacenter, data center, control, security, compliance, isolation, private, infrastructure, exclusive</desc>
<metadata><?xpacket begin="﻿" id="W5M0MpCehiHzreSzNTczkc9d"?>
<x:xmpmeta xmlns:x="adobe:ns:meta/" x:xmptk="Adobe XMP Core 8.0-c001 1.000000, 0000/00/00-00:00:00        ">
   <rdf:RDF xmlns:rdf="http://www.w3.org/1999/02/22-rdf-syntax-ns#">
      <rdf:Description rdf:about=""
            xmlns:dc="http://purl.org/dc/elements/1.1/"
            xmlns:tiff="http://ns.adobe.com/tiff/1.0/"
            xmlns:xmp="http://ns.adobe.com/xap/1.0/">
         <dc:modified>2025-10-21T17:13:59.962Z</dc:modified>
         <dc:format>image/svg+xml</dc:format>
         <dc:description>
            <rdf:Alt>
               <rdf:li xml:lang="x-default">on-premise, on-prem, self-hosted, dedicated, internal, corporate, enterprise, internal network, virtualization, vsphere, vpc, datacenter, data center, control, security, compliance, isolation, private, infrastructure, exclusive</rdf:li>
            </rdf:Alt>
         </dc:description>
         <dc:title>
            <rdf:Alt>
               <rdf:li xml:lang="x-default">Cloud (private) icon (2 color)</rdf:li>
            </rdf:Alt>
         </dc:title>
         <tiff:ImageLength>36</tiff:ImageLength>
         <tiff:ImageWidth>36</tiff:ImageWidth>
         <xmp:rhcc-rights-restricted>no</xmp:rhcc-rights-restricted>
         <xmp:brand-content-subtype>Icon</xmp:brand-content-subtype>
         <xmp:rhcc-file-last-modified>2025-10-21T17:13:19.991Z</xmp:rhcc-file-last-modified>
         <xmp:brand-content-type>Icon</xmp:brand-content-type>
         <xmp:brand-colorway>
            <rdf:Bag>
               <rdf:li>colorway:red</rdf:li>
               <rdf:li>colorway:black</rdf:li>
            </rdf:Bag>
         </xmp:brand-colorway>
      </rdf:Description>
   </rdf:RDF>
</x:xmpmeta>
                                                                                                    
                                                                                                    
                                                                                                    
                                                                                                    
                                                                                                    
                                                                                                    
                                                                                                    
                                                                                                    
                                                                                                    
                                                                                                    
                                                                                                    
                                                                                                    
                                                                                                    
                                                                                                    
                                                                                                    
                                                                                                    
                                                                                                    
                 
<?xpacket end="w"?></metadata>
<defs><style>.uuid-220ec1ab-da7d-4323-a447-726246238a95{fill:#e00;}</style></defs><path class="uuid-220ec1ab-da7d-4323-a447-726246238a95" d="M22,29.62472H5c-.34521,0-.625-.28027-.625-.625s.27979-.625.625-.625h17c.34521,0,.625.28027.625.625s-.27979.625-.625.625Z"/><path d="M32.33105,18.78976c-.58887-1.65039-2.0083-2.88379-3.70605-3.2666v-.02344c0-5.03125-4.09326-9.125-9.125-9.125-3.47119,0-6.62451,1.96777-8.16406,5.05176-.28369-.03418-.56348-.05176-.83594-.05176-3.92871,0-7.125,3.19629-7.125,7.125s3.19629,7.125,7.125,7.125h11.5c.34521,0,.625-.28027.625-.625s-.27979-.625-.625-.625h-11.5c-3.23926,0-5.875-2.63574-5.875-5.875s2.63574-5.875,5.875-5.875c.354,0,.71045.03418,1.08887.10547.28516.05273.57227-.09766.68848-.36523,1.25195-2.87988,4.08691-4.74023,7.22266-4.74023,4.34229,0,7.875,3.53223,7.875,7.875,0,.13086-.00928.25977-.01855.3877l-.00781.12012c-.02197.33398.22461.62598.55811.66113,1.47705.15625,2.75195,1.15332,3.24658,2.54102.11621.3252.4751.49414.79883.37891.3252-.11621.49463-.47363.37891-.79883Z"/><path d="M31,23.37472h-.375v-1.375c0-1.44727-1.17773-2.625-2.625-2.625s-2.625,1.17773-2.625,2.625v1.375h-.375c-.34521,0-.625.28027-.625.625v5c0,.34473.27979.625.625.625h6c.34521,0,.625-.28027.625-.625v-5c0-.34473-.27979-.625-.625-.625ZM29.375,23.37472h-2.75v-1.375c0-.75781.6167-1.375,1.375-1.375s1.375.61719,1.375,1.375v1.375Z"/></svg>