<?xml version="1.0" encoding="UTF-8"?>
<svg id="operational-sovereignty2" data-name="operational-sovereignty" xmlns="http://www.w3.org/2000/svg" width="36" height="36" version="1.1" viewBox="0 0 36 36">
  <!-- Generator: Adobe Illustrator 30.2.1, SVG Export Plug-In . SVG Version: 2.1.1 Build 1)  -->
  <defs>
    <style>
      .st0 {
        fill: none;
      }

      .st1 {
        fill: #e00;
      }
    </style>
  </defs>
  <path id="icon" class="st1" d="M31.00006,4.375H5.00006c-.34521,0-.625.27979-.625.625v26c0,.34473.27979.625.625.625h26c.34521,0,.625-.28027.625-.625V5c0-.34521-.27979-.625-.625-.625ZM30.37506,30.375H5.62506V5.625h24.75v24.75ZM9.00006,26.625h18c.34521,0,.625-.28027.625-.625v-8c0-.34473-.27979-.625-.625-.625H9.00006c-.34521,0-.625.28027-.625.625v8c0,.34473.27979.625.625.625ZM9.62506,18.625h16.75v6.75H9.62506v-6.75ZM24.57965,21.75977c.03027.08008.05029.16016.05029.24023s-.02002.16016-.05029.24023c-.02979.0791-.07959.14941-.13965.19922-.11035.12012-.27002.19043-.43994.19043-.16016,0-.32031-.07031-.43994-.19043-.12012-.10938-.18018-.2793-.18018-.43945,0-.08008.00977-.16016.04004-.24023.02979-.07031.08008-.15039.14014-.2002.22998-.24023.6499-.24023.87988,0,.06006.0498.10986.12988.13965.2002ZM16.62506,22c0,.34473-.27979.625-.625.625h-4c-.34521,0-.625-.28027-.625-.625s.27979-.625.625-.625h4c.34521,0,.625.28027.625.625ZM12.55817,12.44238c-.24414-.24414-.24414-.64062,0-.88477l2-2c.24414-.24414.63965-.24414.88379,0s.24414.64062,0,.88477l-1.55811,1.55762,1.55811,1.55762c.24414.24414.24414.64062,0,.88477-.12207.12207-.28174.18262-.44189.18262s-.31982-.06055-.44189-.18262l-2-2ZM20.55817,13.55762l1.55811-1.55762-1.55811-1.55762c-.24414-.24414-.24414-.64062,0-.88477s.63965-.24414.88379,0l2,2c.24414.24414.24414.64062,0,.88477l-2,2c-.12207.12207-.28174.18262-.44189.18262s-.31982-.06055-.44189-.18262c-.24414-.24414-.24414-.64062,0-.88477ZM16.96344,13.87012l.85059-4c.07178-.33789.40283-.55762.74121-.48145.33789.07227.55322.40332.48145.74121l-.85059,4c-.0625.29395-.32178.49512-.61084.49512-.04297,0-.08643-.00391-.13037-.01367-.33789-.07227-.55322-.40332-.48145-.74121Z"/>
  <rect id="transparent_rectangle" class="st0" width="36" height="36"/>
</svg>