<svg id="baa00a1e-5a76-425e-86f8-cd6735f607a0" data-name="Icon" xmlns="http://www.w3.org/2000/svg" viewBox="0 0 36 36">
  <title>Abstract globe icon - Red</title>
<desc>earth, nations, international, search, location, GPS, website, site, latitude, longitude, world, objects, telco</desc>
<metadata><?xpacket begin="﻿" id="W5M0MpCehiHzreSzNTczkc9d"?>
<x:xmpmeta xmlns:x="adobe:ns:meta/" x:xmptk="Adobe XMP Core 8.0-c001 1.000000, 0000/00/00-00:00:00        ">
   <rdf:RDF xmlns:rdf="http://www.w3.org/1999/02/22-rdf-syntax-ns#">
      <rdf:Description rdf:about=""
            xmlns:xmp="http://ns.adobe.com/xap/1.0/"
            xmlns:dc="http://purl.org/dc/elements/1.1/"
            xmlns:cq="http://www.day.com/jcr/cq/1.0"
            xmlns:tiff="http://ns.adobe.com/tiff/1.0/">
         <xmp:rhcc-effective-on>2023-12-08T17:35:44.023Z</xmp:rhcc-effective-on>
         <xmp:rhcc-metadata-complete-moderator>pending</xmp:rhcc-metadata-complete-moderator>
         <xmp:rhcc-translation-id>TRA3df00013-21a0-4837-93af-dd883539a4d7</xmp:rhcc-translation-id>
         <xmp:brand-content-type>Icon</xmp:brand-content-type>
         <xmp:CreateDate>2023-12-08T17:35:44.023Z</xmp:CreateDate>
         <xmp:rhcc-aspect-ratio>square</xmp:rhcc-aspect-ratio>
         <xmp:rhcc-effective-on-set-on-upload>true</xmp:rhcc-effective-on-set-on-upload>
         <xmp:rhcc-published-asset-email-sent>true</xmp:rhcc-published-asset-email-sent>
         <xmp:rhcc-metadata-complete-uploader>pending</xmp:rhcc-metadata-complete-uploader>
         <xmp:rhcc-file-last-modified>2024-12-19T18:38:50.810Z</xmp:rhcc-file-last-modified>
         <xmp:rhcc-audience>rhcc-audience:internal</xmp:rhcc-audience>
         <xmp:brand-content-subtype>Icon</xmp:brand-content-subtype>
         <xmp:rhcc-rights-restricted>no</xmp:rhcc-rights-restricted>
         <xmp:rhcc-derivative-id>DER3df00013-21a0-4837-93af-dd883539a4d7</xmp:rhcc-derivative-id>
         <xmp:rhcc-uploaded-by>pmeilleu@redhat.com</xmp:rhcc-uploaded-by>
         <xmp:brand-logo-color>Red</xmp:brand-logo-color>
         <xmp:rhcc-notify-portal-subscribers-on-change>yes</xmp:rhcc-notify-portal-subscribers-on-change>
         <dc:format>image/svg+xml</dc:format>
         <dc:modified>2024-02-09T20:30:56.417Z</dc:modified>
         <dc:title>
            <rdf:Alt>
               <rdf:li xml:lang="x-default">Abstract globe icon - Red</rdf:li>
            </rdf:Alt>
         </dc:title>
         <dc:description>
            <rdf:Alt>
               <rdf:li xml:lang="x-default">earth, nations, international, search, location, GPS, website, site, latitude, longitude, world, objects, telco</rdf:li>
            </rdf:Alt>
         </dc:description>
         <cq:lastReplicationAction_scene7>Activate</cq:lastReplicationAction_scene7>
         <cq:lastReplicationAction_publish>Activate</cq:lastReplicationAction_publish>
         <cq:lastReplicated_publish>2025-01-31T18:09:27.468Z</cq:lastReplicated_publish>
         <cq:lastReplicatedBy>workflow-process-service</cq:lastReplicatedBy>
         <cq:lastReplicationAction>Activate</cq:lastReplicationAction>
         <cq:lastReplicatedBy_publish>workflow-process-service</cq:lastReplicatedBy_publish>
         <cq:isDelivered>false</cq:isDelivered>
         <cq:lastReplicated>2025-01-31T18:09:27.468Z</cq:lastReplicated>
         <cq:lastReplicatedBy_scene7>workflow-process-service</cq:lastReplicatedBy_scene7>
         <cq:lastReplicated_scene7>2025-01-31T18:09:27.468Z</cq:lastReplicated_scene7>
         <tiff:ImageLength>36</tiff:ImageLength>
         <tiff:ImageWidth>36</tiff:ImageWidth>
      </rdf:Description>
   </rdf:RDF>
</x:xmpmeta>
                                                                                                    
                                                                                                    
                                                                                                    
                                                                                                    
                                                                                                    
                                                                                                    
                                                                                                    
                                                                                                    
 
<?xpacket end="w"?></metadata>
<defs>
    <style>
      .fc587aca-a9f8-4403-83c4-b31763a8c25a {
        fill: #e00;
      }
    </style>
  </defs>
  <path class="fc587aca-a9f8-4403-83c4-b31763a8c25a" d="M28.34,7.66c-9.09-9.18-25-2.58-25,10.34A14.67,14.67,0,0,0,18,32.62C30.93,32.68,37.52,16.74,28.34,7.66Zm2.52,14h-7a21.16,21.16,0,0,0,0-7.36h7A13.53,13.53,0,0,1,30.86,21.68Zm-17.43,0a19.8,19.8,0,0,1,0-7.36h9.14a19.8,19.8,0,0,1,0,7.36Zm8.85,1.25A19.57,19.57,0,0,1,18,31a19.57,19.57,0,0,1-4.28-8.07ZM4.62,18a13.69,13.69,0,0,1,.52-3.68h7a21.16,21.16,0,0,0,0,7.36h-7A13.69,13.69,0,0,1,4.62,18Zm9.1-4.93A19.57,19.57,0,0,1,18,5a19.57,19.57,0,0,1,4.28,8.07Zm16.71,0H23.56A20.76,20.76,0,0,0,19.39,4.7,13.41,13.41,0,0,1,30.43,13.07ZM8.54,8.54A13.32,13.32,0,0,1,16.61,4.7a20.76,20.76,0,0,0-4.17,8.37H5.57A13.24,13.24,0,0,1,8.54,8.54Zm-3,14.39h6.87a20.76,20.76,0,0,0,4.17,8.37A13.41,13.41,0,0,1,5.57,22.93Zm21.89,4.53a13.32,13.32,0,0,1-8.08,3.84,20.65,20.65,0,0,0,4.18-8.37h6.87A13.24,13.24,0,0,1,27.46,27.46Z"/>
</svg>
