<?xml version="1.0" encoding="UTF-8"?><svg id="uuid-7a95a7f2-1b65-496c-82e1-862fb3b9cf9b" xmlns="http://www.w3.org/2000/svg" width="36" height="36" viewBox="0 0 36 36"><metadata><?xpacket begin="﻿" id="W5M0MpCehiHzreSzNTczkc9d"?>
<x:xmpmeta xmlns:x="adobe:ns:meta/" x:xmptk="Adobe XMP Core 8.0-c001 1.000000, 0000/00/00-00:00:00        ">
   <rdf:RDF xmlns:rdf="http://www.w3.org/1999/02/22-rdf-syntax-ns#">
      <rdf:Description rdf:about=""
            xmlns:xmp="http://ns.adobe.com/xap/1.0/"
            xmlns:dc="http://purl.org/dc/elements/1.1/"
            xmlns:cq="http://www.day.com/jcr/cq/1.0"
            xmlns:tiff="http://ns.adobe.com/tiff/1.0/">
         <xmp:rhcc-effective-on>2023-12-08T17:44:39.381Z</xmp:rhcc-effective-on>
         <xmp:rhcc-metadata-complete-moderator>pending</xmp:rhcc-metadata-complete-moderator>
         <xmp:rhcc-translation-id>TRAf4f101f9-105e-451a-8d09-ae4e6701661f</xmp:rhcc-translation-id>
         <xmp:CreateDate>2023-12-08T17:44:39.381Z</xmp:CreateDate>
         <xmp:rhcc-aspect-ratio>square</xmp:rhcc-aspect-ratio>
         <xmp:rhcc-effective-on-set-on-upload>true</xmp:rhcc-effective-on-set-on-upload>
         <xmp:rhcc-published-asset-email-sent>true</xmp:rhcc-published-asset-email-sent>
         <xmp:rhcc-metadata-complete-uploader>pending</xmp:rhcc-metadata-complete-uploader>
         <xmp:rhcc-file-last-modified>2024-07-12T23:23:13.345Z</xmp:rhcc-file-last-modified>
         <xmp:rhcc-audience>rhcc-audience:internal</xmp:rhcc-audience>
         <xmp:rhcc-rights-restricted>no</xmp:rhcc-rights-restricted>
         <xmp:rhcc-derivative-id>DERf4f101f9-105e-451a-8d09-ae4e6701661f</xmp:rhcc-derivative-id>
         <xmp:rhcc-uploaded-by>pmeilleu@redhat.com</xmp:rhcc-uploaded-by>
         <xmp:rhcc-notify-portal-subscribers-on-change>yes</xmp:rhcc-notify-portal-subscribers-on-change>
         <dc:format>image/svg+xml</dc:format>
         <dc:modified>2024-02-09T20:36:53.619Z</dc:modified>
         <cq:lastReplicationAction_scene7>Activate</cq:lastReplicationAction_scene7>
         <cq:lastReplicationAction_publish>Activate</cq:lastReplicationAction_publish>
         <cq:lastReplicated_publish>2024-10-02T19:26:53.810Z</cq:lastReplicated_publish>
         <cq:lastReplicatedBy>workflow-process-service</cq:lastReplicatedBy>
         <cq:lastReplicationAction>Activate</cq:lastReplicationAction>
         <cq:lastReplicatedBy_publish>workflow-process-service</cq:lastReplicatedBy_publish>
         <cq:isDelivered>false</cq:isDelivered>
         <cq:lastReplicated>2024-10-02T19:26:53.810Z</cq:lastReplicated>
         <cq:lastReplicatedBy_scene7>workflow-process-service</cq:lastReplicatedBy_scene7>
         <cq:lastReplicated_scene7>2024-10-02T19:26:53.810Z</cq:lastReplicated_scene7>
         <tiff:ImageLength>36</tiff:ImageLength>
         <tiff:ImageWidth>36</tiff:ImageWidth>
      </rdf:Description>
   </rdf:RDF>
</x:xmpmeta>
                                                                                                    
                                                                                                    
                                                                                                    
                                                                                                    
                                                                                                    
                                                                                                    
                                                                                                    
                                                                                                    
        
<?xpacket end="w"?></metadata>
<path d="m27,4.375H9c-.34521,0-.625.28027-.625.625v26c0,.34473.27979.625.625.625h18c.34521,0,.625-.28027.625-.625V5c0-.34473-.27979-.625-.625-.625Zm-.625,26H9.625V5.625h16.75v24.75Z" fill="#e00" stroke-width="0"/><path d="m12,16.625h12c.34521,0,.625-.28027.625-.625v-8c0-.34473-.27979-.625-.625-.625h-12c-.34521,0-.625.28027-.625.625v8c0,.34473.27979.625.625.625Zm.625-8h10.75v6.75h-10.75v-6.75Z" fill="#e00" stroke-width="0"/><path d="m12,19.625h5c.34521,0,.625-.28027.625-.625s-.27979-.625-.625-.625h-5c-.34521,0-.625.28027-.625.625s.27979.625.625.625Z" fill="#e00" stroke-width="0"/><path d="m19.56006,18.55957c-.12012.12012-.18018.28027-.18018.44043s.06006.33008.18018.43945c.11963.12012.27979.19043.43994.19043.07959,0,.15967-.02051.23975-.0498.08008-.03027.1499-.08008.2002-.14062.12012-.10938.18994-.2793.18994-.43945s-.06982-.32031-.18994-.44043c-.22998-.24023-.6499-.24023-.87988,0Z" fill="#e00" stroke-width="0"/><path d="m21.75977,18.41992c-.06982.03027-.14014.08008-.19971.13965-.12012.12012-.19043.28027-.19043.44043s.07031.33008.19043.43945c.11963.12012.27979.19043.43994.19043.07959,0,.15967-.02051.23975-.0498.07031-.03027.14014-.08008.2002-.14062.12012-.10938.18994-.2793.18994-.43945s-.06982-.32031-.18994-.44043c-.16992-.17969-.4502-.22949-.68018-.13965Z" fill="#e00" stroke-width="0"/><path d="m24.23975,18.41992c-.22998-.08984-.50977-.04004-.67969.13965-.12012.12012-.18018.28027-.18018.44043s.06006.33008.18018.43945c.05957.06055.12988.11035.19971.14062.08008.0293.16016.0498.24023.0498.15967,0,.31982-.07031.43994-.19043.12012-.10938.18994-.2793.18994-.43945s-.06982-.32031-.18994-.44043c-.06006-.05957-.12012-.10938-.2002-.13965Z" fill="#e00" stroke-width="0"/><path d="m19.56006,20.55957c-.06006.06055-.1001.12988-.14014.2002-.03027.08008-.04004.16016-.04004.24023,0,.16016.06006.31934.18018.43945.10986.12012.26953.19043.43994.19043.07959,0,.15967-.02051.23975-.0498.08008-.03027.14014-.08008.2002-.14062.12012-.12012.18994-.2793.18994-.43945s-.06982-.32031-.18994-.44043c-.22998-.24023-.6499-.22949-.87988,0Z" fill="#e00" stroke-width="0"/><path d="m22.43994,20.55957c-.05029-.05957-.12012-.10938-.2002-.13965-.22998-.08984-.50977-.03027-.67969.13965-.06006.06055-.11035.12012-.14014.2002-.03027.08008-.04004.16016-.04004.24023,0,.16992.06006.33008.18018.43945.10986.12012.27979.19043.43994.19043.07959,0,.15967-.02051.23975-.0498.08008-.03027.1499-.08008.2002-.14062.12012-.12012.18994-.2793.18994-.43945,0-.08008-.02002-.16016-.05029-.24023-.02979-.07031-.07959-.13965-.13965-.2002Z" fill="#e00" stroke-width="0"/><path d="m23.56006,20.55957c-.06006.06055-.1001.12012-.14014.2002-.03027.08008-.04004.16016-.04004.24023,0,.16016.06006.33008.18018.43945.10986.12012.26953.19043.43994.19043.07959,0,.15967-.02051.23975-.0498.08008-.03027.1499-.08008.2002-.14062.12012-.12012.18994-.2793.18994-.43945s-.06982-.32031-.18994-.44043c-.22998-.24023-.6499-.22949-.87988,0Z" fill="#e00" stroke-width="0"/><path d="m20.43994,22.55957c-.22998-.24023-.6499-.22949-.87988,0-.06006.06055-.11035.12012-.14014.2002-.03027.08008-.04004.16016-.04004.24023s.00977.16016.04004.24023c.02979.0791.08008.13965.14014.19922.10986.12012.27979.19043.43994.19043.16992,0,.32959-.07031.43994-.19043.06006-.05957.10986-.12012.13965-.19922.03027-.08008.04004-.16016.04004-.24023s-.00977-.16016-.04004-.24023c-.02979-.08008-.07959-.13965-.13965-.2002Z" fill="#e00" stroke-width="0"/><path d="m21.56006,22.55957c-.12012.12012-.18018.28027-.18018.44043s.06006.31934.18018.43945c.05957.06055.11963.11035.19971.14062.08008.0293.16016.0498.24023.0498.16992,0,.32959-.07031.43994-.19043.12012-.12012.18994-.2793.18994-.43945s-.06982-.32031-.18994-.44043c-.22998-.22949-.6499-.24023-.87988,0Z" fill="#e00" stroke-width="0"/><path d="m23.56006,22.55957c-.12012.12012-.18018.28027-.18018.44043s.06006.31934.18018.43945c.05957.06055.11963.11035.19971.14062.08008.0293.16016.0498.24023.0498.16992,0,.32959-.07031.43994-.19043.12012-.12012.18994-.2793.18994-.43945s-.06982-.32031-.18994-.44043c-.22998-.22949-.6499-.24023-.87988,0Z" fill="#e00" stroke-width="0"/><path d="m22,9.375h-1c-.34521,0-.625.28027-.625.625s.27979.625.625.625h1c.34521,0,.625-.28027.625-.625s-.27979-.625-.625-.625Z" fill="#e00" stroke-width="0"/><path d="m22,11.375h-1c-.34521,0-.625.28027-.625.625s.27979.625.625.625h1c.34521,0,.625-.28027.625-.625s-.27979-.625-.625-.625Z" fill="#e00" stroke-width="0"/><path d="m22,13.375h-1c-.34521,0-.625.28027-.625.625s.27979.625.625.625h1c.34521,0,.625-.28027.625-.625s-.27979-.625-.625-.625Z" fill="#e00" stroke-width="0"/></svg>