<?xml version="1.0" encoding="UTF-8"?><svg id="Icons" xmlns="http://www.w3.org/2000/svg" viewBox="0 0 38 38"><title>streams for Apache Kafka icon</title>
<desc>Application services, AMQ Streams</desc>
<metadata><?xpacket begin="﻿" id="W5M0MpCehiHzreSzNTczkc9d"?>
<x:xmpmeta xmlns:x="adobe:ns:meta/" x:xmptk="Adobe XMP Core 8.0-c001 1.000000, 0000/00/00-00:00:00        ">
   <rdf:RDF xmlns:rdf="http://www.w3.org/1999/02/22-rdf-syntax-ns#">
      <rdf:Description rdf:about=""
            xmlns:xmp="http://ns.adobe.com/xap/1.0/"
            xmlns:tiff="http://ns.adobe.com/tiff/1.0/"
            xmlns:dc="http://purl.org/dc/elements/1.1/"
            xmlns:xmpRights="http://ns.adobe.com/xap/1.0/rights/">
         <xmp:rhcc-effective-on>2024-06-03T19:28:46.385Z</xmp:rhcc-effective-on>
         <xmp:rhcc-rights-restricted>no</xmp:rhcc-rights-restricted>
         <xmp:brand-content-subtype>Technology icon</xmp:brand-content-subtype>
         <xmp:rhcc-metadata-complete-moderator>pending</xmp:rhcc-metadata-complete-moderator>
         <xmp:rhcc-translation-id>TRAf536aca9-227e-47ef-ae22-a887a6c0d8b6</xmp:rhcc-translation-id>
         <xmp:brand-content-type>Icon</xmp:brand-content-type>
         <xmp:CreateDate>2024-06-03T19:28:46.385Z</xmp:CreateDate>
         <xmp:rhcc-aspect-ratio>square</xmp:rhcc-aspect-ratio>
         <xmp:rhcc-derivative-id>DERf536aca9-227e-47ef-ae22-a887a6c0d8b6</xmp:rhcc-derivative-id>
         <xmp:rhcc-effective-on-set-on-upload>true</xmp:rhcc-effective-on-set-on-upload>
         <xmp:rhcc-uploaded-by>agallowa@redhat.com</xmp:rhcc-uploaded-by>
         <xmp:brand-logo-color>Black</xmp:brand-logo-color>
         <xmp:rhcc-metadata-complete-uploader>pending</xmp:rhcc-metadata-complete-uploader>
         <xmp:rhcc-file-last-modified>2024-07-13T00:26:51.355Z</xmp:rhcc-file-last-modified>
         <xmp:rhcc-audience>rhcc-audience:internal</xmp:rhcc-audience>
         <xmp:rhcc-notify-portal-subscribers-on-change>yes</xmp:rhcc-notify-portal-subscribers-on-change>
         <xmp:rhcc-product>
            <rdf:Bag>
               <rdf:li>rhcc-product:red-hat-amq</rdf:li>
            </rdf:Bag>
         </xmp:rhcc-product>
         <tiff:ImageLength>38</tiff:ImageLength>
         <tiff:ImageWidth>38</tiff:ImageWidth>
         <dc:format>image/svg+xml</dc:format>
         <dc:modified>2024-06-03T19:31:10.414Z</dc:modified>
         <dc:description>
            <rdf:Alt>
               <rdf:li xml:lang="x-default">Application services, AMQ Streams</rdf:li>
            </rdf:Alt>
         </dc:description>
         <dc:title>
            <rdf:Alt>
               <rdf:li xml:lang="x-default">streams for Apache Kafka icon</rdf:li>
            </rdf:Alt>
         </dc:title>
         <xmpRights:UsageTerms>
            <rdf:Alt>
               <rdf:li xml:lang="x-default">Use technology icons to represent Red Hat products and components. Do not remove the icon from the bounding shape.</rdf:li>
            </rdf:Alt>
         </xmpRights:UsageTerms>
      </rdf:Description>
   </rdf:RDF>
</x:xmpmeta>
                                                                                                    
                                                                                                    
                                                                                                    
                                                                                                    
                                                                                                    
                                                                                                    
                                                                                                    
                                                                                                    
                                                                                                    
                                                                                                    
                                                                                                    
                                                                                                    
                                    
<?xpacket end="w"?></metadata>
<defs><style>.cls-1{stroke-width:0px;}</style></defs><path class="cls-1" d="M28,1H10C5.03,1,1,5.03,1,10v18c0,4.97,4.03,9,9,9h18c4.97,0,9-4.03,9-9V10c0-4.97-4.03-9-9-9ZM35.75,28c0,4.27-3.48,7.75-7.75,7.75H10c-4.27,0-7.75-3.48-7.75-7.75V10c0-4.27,3.48-7.75,7.75-7.75h18c4.27,0,7.75,3.48,7.75,7.75v18Z"/><path class="cls-1" d="M11.44,9.56c-.08-.08-.18-.13-.29-.15-.02,0-.05-.01-.07-.01-.11-.01-.22-.01-.32.03,0,0,0,0,0,0-.07.03-.13.07-.18.12,0,0-.01,0-.02.01l-2,2c-.24.24-.24.64,0,.88.12.12.28.18.44.18s.32-.06.44-.18l.93-.93v13.49c0,.35.28.62.62.62s.62-.28.62-.62v-13.49l.93.93c.24.24.64.24.88,0,.24-.24.24-.64,0-.88l-2-2Z"/><path class="cls-1" d="M28.56,25.56l-.93.93v-13.49c0-.35-.28-.62-.62-.62s-.62.28-.62.62v13.49l-.93-.93c-.24-.24-.64-.24-.88,0-.24.24-.24.64,0,.88l2,2c.06.06.13.11.21.14.08.03.16.05.24.05s.16-.02.24-.05c0,0,0,0,0,0,.07-.03.13-.07.18-.12,0,0,.01,0,.02-.01l2-2c.24-.24.24-.64,0-.88-.24-.24-.64-.24-.88,0Z"/><path class="cls-1" d="M20.13,15.5c0-1.72-1.4-3.12-3.12-3.12s-3.12,1.4-3.12,3.12,1.4,3.12,3.12,3.12,3.12-1.4,3.12-3.12ZM17,17.38c-1.03,0-1.88-.84-1.88-1.88s.84-1.88,1.88-1.88,1.88.84,1.88,1.88-.84,1.88-1.88,1.88Z"/><path class="cls-1" d="M23,18.63c.34,0,.62-.28.62-.62v-5c0-.35-.28-.62-.62-.62s-.62.28-.62.62v5c0,.35.28.62.62.62Z"/><path class="cls-1" d="M21,19.38c-1.72,0-3.12,1.4-3.12,3.12s1.4,3.12,3.12,3.12,3.12-1.4,3.12-3.12-1.4-3.12-3.12-3.12ZM21,24.38c-1.03,0-1.88-.84-1.88-1.88s.84-1.88,1.88-1.88,1.88.84,1.88,1.88-.84,1.88-1.88,1.88Z"/><path class="cls-1" d="M15,19.38c-.34,0-.62.28-.62.62v5c0,.35.28.62.62.62s.62-.28.62-.62v-5c0-.35-.28-.62-.62-.62Z"/></svg>