<svg id="baff2d26-294f-4bbd-b92a-780b94153c0b" data-name="Icon" xmlns="http://www.w3.org/2000/svg" viewBox="0 0 36 36">
  <title>Hypervisor icon - Red</title>
<desc>software, efficient, monitor, master, control, parent, virtual, software and technologies</desc>
<metadata><?xpacket begin="﻿" id="W5M0MpCehiHzreSzNTczkc9d"?>
<x:xmpmeta xmlns:x="adobe:ns:meta/" x:xmptk="Adobe XMP Core 8.0-c001 1.000000, 0000/00/00-00:00:00        ">
   <rdf:RDF xmlns:rdf="http://www.w3.org/1999/02/22-rdf-syntax-ns#">
      <rdf:Description rdf:about=""
            xmlns:xmp="http://ns.adobe.com/xap/1.0/"
            xmlns:dc="http://purl.org/dc/elements/1.1/"
            xmlns:cq="http://www.day.com/jcr/cq/1.0"
            xmlns:tiff="http://ns.adobe.com/tiff/1.0/">
         <xmp:rhcc-effective-on>2023-12-08T17:43:31.445Z</xmp:rhcc-effective-on>
         <xmp:rhcc-metadata-complete-moderator>pending</xmp:rhcc-metadata-complete-moderator>
         <xmp:rhcc-translation-id>TRAeb073ddc-30ae-4734-b1c9-8657c6b7dec4</xmp:rhcc-translation-id>
         <xmp:brand-content-type>Icon</xmp:brand-content-type>
         <xmp:CreateDate>2023-12-08T17:43:31.445Z</xmp:CreateDate>
         <xmp:rhcc-aspect-ratio>square</xmp:rhcc-aspect-ratio>
         <xmp:rhcc-effective-on-set-on-upload>true</xmp:rhcc-effective-on-set-on-upload>
         <xmp:rhcc-metadata-complete-uploader>pending</xmp:rhcc-metadata-complete-uploader>
         <xmp:rhcc-file-last-modified>2024-07-12T19:56:13.371Z</xmp:rhcc-file-last-modified>
         <xmp:rhcc-audience>rhcc-audience:internal</xmp:rhcc-audience>
         <xmp:brand-content-subtype>Icon</xmp:brand-content-subtype>
         <xmp:rhcc-rights-restricted>no</xmp:rhcc-rights-restricted>
         <xmp:rhcc-derivative-id>DEReb073ddc-30ae-4734-b1c9-8657c6b7dec4</xmp:rhcc-derivative-id>
         <xmp:rhcc-uploaded-by>pmeilleu@redhat.com</xmp:rhcc-uploaded-by>
         <xmp:brand-logo-color>Red</xmp:brand-logo-color>
         <xmp:rhcc-notify-portal-subscribers-on-change>yes</xmp:rhcc-notify-portal-subscribers-on-change>
         <dc:format>image/svg+xml</dc:format>
         <dc:modified>2024-02-09T20:17:06.758Z</dc:modified>
         <dc:title>
            <rdf:Alt>
               <rdf:li xml:lang="x-default">Hypervisor icon - Red</rdf:li>
            </rdf:Alt>
         </dc:title>
         <dc:description>
            <rdf:Alt>
               <rdf:li xml:lang="x-default">software, efficient, monitor, master, control, parent, virtual, software and technologies</rdf:li>
            </rdf:Alt>
         </dc:description>
         <cq:lastReplicationAction_scene7>Activate</cq:lastReplicationAction_scene7>
         <cq:lastReplicationAction_publish>Activate</cq:lastReplicationAction_publish>
         <cq:lastReplicated_publish>2024-10-02T19:37:16.595Z</cq:lastReplicated_publish>
         <cq:lastReplicatedBy>workflow-process-service</cq:lastReplicatedBy>
         <cq:lastReplicationAction>Activate</cq:lastReplicationAction>
         <cq:lastReplicatedBy_publish>workflow-process-service</cq:lastReplicatedBy_publish>
         <cq:isDelivered>false</cq:isDelivered>
         <cq:lastReplicated>2024-10-02T19:37:16.595Z</cq:lastReplicated>
         <cq:lastReplicatedBy_scene7>workflow-process-service</cq:lastReplicatedBy_scene7>
         <cq:lastReplicated_scene7>2024-10-02T19:37:16.595Z</cq:lastReplicated_scene7>
         <tiff:ImageLength>36</tiff:ImageLength>
         <tiff:ImageWidth>36</tiff:ImageWidth>
      </rdf:Description>
   </rdf:RDF>
</x:xmpmeta>
                                                                                                    
                                                                                                    
                                                                                                    
                                                                                                    
                                                                                                    
                                                                                                    
                                                                                                    
                                                                                                    
                                                                                                 
<?xpacket end="w"?></metadata>
<defs>
    <style>
      .b994e976-9e92-4aa7-b088-367ab064c365 {
        fill: #e00;
      }
    </style>
  </defs>
  <g>
    <path class="b994e976-9e92-4aa7-b088-367ab064c365" d="M31,18.38H5a.62.62,0,0,0-.62.62V29a.62.62,0,0,0,.62.62H31a.62.62,0,0,0,.62-.62V19A.62.62,0,0,0,31,18.38Zm-.62,10H5.62V19.62H30.38Z"/>
    <path class="b994e976-9e92-4aa7-b088-367ab064c365" d="M9,24.62h6a.62.62,0,0,0,0-1.24H9a.62.62,0,0,0,0,1.24Z"/>
    <path class="b994e976-9e92-4aa7-b088-367ab064c365" d="M26.76,24.58a.69.69,0,0,0,.24.05.63.63,0,0,0,.44-.19.6.6,0,0,0,.18-.44.67.67,0,0,0,0-.24.56.56,0,0,0-.14-.2.65.65,0,0,0-.88,0,.6.6,0,0,0,0,.88A.56.56,0,0,0,26.76,24.58Z"/>
    <path class="b994e976-9e92-4aa7-b088-367ab064c365" d="M31.24,16.58a.66.66,0,0,0,.2-.14.6.6,0,0,0,.18-.44.59.59,0,0,0-.18-.44.66.66,0,0,0-.2-.14.65.65,0,0,0-.68.14.6.6,0,0,0,0,.88.63.63,0,0,0,.44.19A.69.69,0,0,0,31.24,16.58Z"/>
    <path class="b994e976-9e92-4aa7-b088-367ab064c365" d="M13.67,16.63A.63.63,0,1,0,13,16,.63.63,0,0,0,13.67,16.63Z"/>
    <path class="b994e976-9e92-4aa7-b088-367ab064c365" d="M25.22,16.63a.63.63,0,1,0,0-1.25.63.63,0,0,0,0,1.25Z"/>
    <path class="b994e976-9e92-4aa7-b088-367ab064c365" d="M10.78,16.63a.63.63,0,1,0-.63-.63A.63.63,0,0,0,10.78,16.63Z"/>
    <path class="b994e976-9e92-4aa7-b088-367ab064c365" d="M19.44,16.63a.63.63,0,1,0-.62-.63A.63.63,0,0,0,19.44,16.63Z"/>
    <path class="b994e976-9e92-4aa7-b088-367ab064c365" d="M27.49,16a.63.63,0,1,0,.62-.62A.63.63,0,0,0,27.49,16Z"/>
    <path class="b994e976-9e92-4aa7-b088-367ab064c365" d="M16.56,16.63a.63.63,0,1,0-.63-.63A.63.63,0,0,0,16.56,16.63Z"/>
    <path class="b994e976-9e92-4aa7-b088-367ab064c365" d="M22.33,16.63a.63.63,0,1,0-.62-.63A.63.63,0,0,0,22.33,16.63Z"/>
    <path class="b994e976-9e92-4aa7-b088-367ab064c365" d="M7.89,16.63A.63.63,0,1,0,7.26,16,.63.63,0,0,0,7.89,16.63Z"/>
    <path class="b994e976-9e92-4aa7-b088-367ab064c365" d="M5,16.63a.61.61,0,0,0,.44-.19.63.63,0,0,0,0-.88.64.64,0,0,0-.88,0,.6.6,0,0,0,0,.88A.6.6,0,0,0,5,16.63Z"/>
    <path class="b994e976-9e92-4aa7-b088-367ab064c365" d="M5,13.62A.63.63,0,0,0,5.63,13a.63.63,0,1,0-1.26,0A.63.63,0,0,0,5,13.62Z"/>
    <path class="b994e976-9e92-4aa7-b088-367ab064c365" d="M5,10.63A.63.63,0,0,0,5.63,10a.63.63,0,0,0-1.26,0A.63.63,0,0,0,5,10.63Z"/>
    <path class="b994e976-9e92-4aa7-b088-367ab064c365" d="M5,7.62A.61.61,0,0,0,5.62,7a.67.67,0,0,0,0-.24.56.56,0,0,0-.14-.2.64.64,0,0,0-.88,0,.56.56,0,0,0-.14.2.69.69,0,0,0,0,.24.61.61,0,0,0,.19.44A.59.59,0,0,0,5,7.62Z"/>
    <path class="b994e976-9e92-4aa7-b088-367ab064c365" d="M28.11,7.63a.63.63,0,0,0,0-1.26.63.63,0,1,0,0,1.26Z"/>
    <path class="b994e976-9e92-4aa7-b088-367ab064c365" d="M25.22,7.63A.63.63,0,1,0,24.6,7,.63.63,0,0,0,25.22,7.63Z"/>
    <path class="b994e976-9e92-4aa7-b088-367ab064c365" d="M22.33,7.63A.63.63,0,1,0,21.71,7,.63.63,0,0,0,22.33,7.63Z"/>
    <path class="b994e976-9e92-4aa7-b088-367ab064c365" d="M19.44,7.63A.63.63,0,1,0,18.82,7,.63.63,0,0,0,19.44,7.63Z"/>
    <path class="b994e976-9e92-4aa7-b088-367ab064c365" d="M7.89,7.63A.63.63,0,1,0,7.26,7,.63.63,0,0,0,7.89,7.63Z"/>
    <path class="b994e976-9e92-4aa7-b088-367ab064c365" d="M10.78,7.63A.63.63,0,1,0,10.15,7,.63.63,0,0,0,10.78,7.63Z"/>
    <path class="b994e976-9e92-4aa7-b088-367ab064c365" d="M16.56,7.63A.63.63,0,1,0,15.93,7,.63.63,0,0,0,16.56,7.63Z"/>
    <path class="b994e976-9e92-4aa7-b088-367ab064c365" d="M13.67,7.63A.63.63,0,1,0,13,7,.63.63,0,0,0,13.67,7.63Z"/>
    <path class="b994e976-9e92-4aa7-b088-367ab064c365" d="M31,7.62a.67.67,0,0,0,.24,0,.66.66,0,0,0,.2-.14A.59.59,0,0,0,31.62,7a.6.6,0,0,0-.18-.44.66.66,0,0,0-.2-.14.65.65,0,0,0-.68.14.6.6,0,0,0,0,.88A.6.6,0,0,0,31,7.62Z"/>
    <path class="b994e976-9e92-4aa7-b088-367ab064c365" d="M31,10.62a.63.63,0,0,0,.63-.62A.63.63,0,0,0,31,9.37a.63.63,0,0,0-.63.63A.62.62,0,0,0,31,10.62Z"/>
    <path class="b994e976-9e92-4aa7-b088-367ab064c365" d="M31,12.37a.63.63,0,0,0-.63.63.62.62,0,0,0,.63.62.63.63,0,0,0,.63-.62A.63.63,0,0,0,31,12.37Z"/>
  </g>
</svg>
