<?xml version="1.0" encoding="UTF-8"?><svg id="uuid-b33c162e-e76f-4a4b-83de-8733d6690f61" xmlns="http://www.w3.org/2000/svg" viewBox="0 0 36 36"><title>Brain icon - Red</title>
<desc>think, body, human, neurons, impulse, thought, science, science and nature</desc>
<metadata><?xpacket begin="﻿" id="W5M0MpCehiHzreSzNTczkc9d"?>
<x:xmpmeta xmlns:x="adobe:ns:meta/" x:xmptk="Adobe XMP Core 8.0-c001 1.000000, 0000/00/00-00:00:00        ">
   <rdf:RDF xmlns:rdf="http://www.w3.org/1999/02/22-rdf-syntax-ns#">
      <rdf:Description rdf:about=""
            xmlns:xmp="http://ns.adobe.com/xap/1.0/"
            xmlns:dc="http://purl.org/dc/elements/1.1/"
            xmlns:cq="http://www.day.com/jcr/cq/1.0"
            xmlns:tiff="http://ns.adobe.com/tiff/1.0/">
         <xmp:rhcc-effective-on>2023-12-08T17:40:58.759Z</xmp:rhcc-effective-on>
         <xmp:rhcc-metadata-complete-moderator>pending</xmp:rhcc-metadata-complete-moderator>
         <xmp:rhcc-translation-id>TRA538db257-152a-4c1f-ad16-f1cf272c5f6b</xmp:rhcc-translation-id>
         <xmp:brand-content-type>Icon</xmp:brand-content-type>
         <xmp:CreateDate>2023-12-08T17:40:58.759Z</xmp:CreateDate>
         <xmp:rhcc-aspect-ratio>square</xmp:rhcc-aspect-ratio>
         <xmp:rhcc-effective-on-set-on-upload>true</xmp:rhcc-effective-on-set-on-upload>
         <xmp:rhcc-published-asset-email-sent>true</xmp:rhcc-published-asset-email-sent>
         <xmp:rhcc-metadata-complete-uploader>pending</xmp:rhcc-metadata-complete-uploader>
         <xmp:rhcc-file-last-modified>2024-07-12T23:41:40.363Z</xmp:rhcc-file-last-modified>
         <xmp:rhcc-audience>rhcc-audience:internal</xmp:rhcc-audience>
         <xmp:brand-content-subtype>Icon</xmp:brand-content-subtype>
         <xmp:rhcc-rights-restricted>no</xmp:rhcc-rights-restricted>
         <xmp:rhcc-derivative-id>DER538db257-152a-4c1f-ad16-f1cf272c5f6b</xmp:rhcc-derivative-id>
         <xmp:rhcc-uploaded-by>pmeilleu@redhat.com</xmp:rhcc-uploaded-by>
         <xmp:brand-logo-color>Red</xmp:brand-logo-color>
         <xmp:rhcc-notify-portal-subscribers-on-change>yes</xmp:rhcc-notify-portal-subscribers-on-change>
         <dc:format>image/svg+xml</dc:format>
         <dc:modified>2024-02-09T20:25:49.589Z</dc:modified>
         <dc:title>
            <rdf:Alt>
               <rdf:li xml:lang="x-default">Brain icon - Red</rdf:li>
            </rdf:Alt>
         </dc:title>
         <dc:description>
            <rdf:Alt>
               <rdf:li xml:lang="x-default">think, body, human, neurons, impulse, thought, science, science and nature</rdf:li>
            </rdf:Alt>
         </dc:description>
         <cq:lastReplicationAction_scene7>Activate</cq:lastReplicationAction_scene7>
         <cq:lastReplicationAction_publish>Activate</cq:lastReplicationAction_publish>
         <cq:lastReplicated_publish>2024-10-02T19:29:04.171Z</cq:lastReplicated_publish>
         <cq:lastReplicatedBy>workflow-process-service</cq:lastReplicatedBy>
         <cq:lastReplicationAction>Activate</cq:lastReplicationAction>
         <cq:lastReplicatedBy_publish>workflow-process-service</cq:lastReplicatedBy_publish>
         <cq:isDelivered>false</cq:isDelivered>
         <cq:lastReplicated>2024-10-02T19:29:04.171Z</cq:lastReplicated>
         <cq:lastReplicatedBy_scene7>workflow-process-service</cq:lastReplicatedBy_scene7>
         <cq:lastReplicated_scene7>2024-10-02T19:29:04.171Z</cq:lastReplicated_scene7>
         <tiff:ImageLength>36</tiff:ImageLength>
         <tiff:ImageWidth>36</tiff:ImageWidth>
      </rdf:Description>
   </rdf:RDF>
</x:xmpmeta>
                                                                                                    
                                                                                                    
                                                                                                    
                                                                                                    
                                                                                                    
                                                                                                    
                                                                                                    
                                                                                                    
                                                                                                    
                                                                                                    
                                                                                                    
                                                                                                    
                                                                                                    
                                                                                                    
                                                                                                    
                                                                                                    
                                                                                                    
                                                                                                    
                                                                                                    
                                                     
<?xpacket end="w"?></metadata>
<defs><style>.uuid-6f2d3732-19d9-48a9-bd29-596c946060db{fill:#e00;stroke-width:0px;}</style></defs><path class="uuid-6f2d3732-19d9-48a9-bd29-596c946060db" d="M31.625,16.5c0-2.2344-1.2192-4.2783-3.1499-5.3516.0996-.3789.1499-.7637.1499-1.1484,0-2.542-2.061-4.6113-4.5996-4.625-.7412-1.2275-2.0811-2-3.5254-2-.916,0-1.7847.2974-2.5.8467-.7153-.5493-1.584-.8467-2.5-.8467-1.4443,0-2.7842.7725-3.5254,2-2.5386.0137-4.5996,2.083-4.5996,4.625,0,.3848.0503.7695.1499,1.1484-1.7631.9801-2.9211,2.7722-3.1109,4.777-.0032.0256-.0151.0481-.0151.0745,0,.0131.0067.0241.0075.037-.0118.1541-.0314.3067-.0314.463,0,1.917.8857,3.6943,2.3936,4.8516-.2612.6904-.3936,1.4102-.3936,2.1484,0,2.7324,1.7812,5.0967,4.373,5.8643.7661,1.9639,2.6343,3.2607,4.752,3.2607.8804,0,1.7368-.2246,2.5-.6523.7632.4277,1.6196.6523,2.5.6523,2.1177,0,3.9858-1.2969,4.752-3.2607,2.3823-.7055,4.0614-2.7648,4.3203-5.2142.0125-.0493.0303-.0969.0303-.15,0-.0227-.0106-.0419-.0129-.064.0103-.1458.0354-.2878.0354-.436,0-.7383-.1323-1.458-.3936-2.1484,1.5078-1.1572,2.3936-2.9346,2.3936-4.8516ZM11.8525,28.7285v-2.7285c0-.7578.6167-1.375,1.375-1.375.3452,0,.625-.2803.625-.625s-.2798-.625-.625-.625c-1.4473,0-2.625,1.1777-2.625,2.625v1.985c-1.7863-.7483-2.9775-2.4927-2.9775-4.485,0-.7266.1616-1.4326.4805-2.0986.1367-.2842.0391-.626-.2266-.7959-1.3754-.8805-2.2047-2.3625-2.246-3.9805h2.3671c1.3096,0,2.375,1.0654,2.375,2.375,0,.3447.2798.625.625.625s.625-.2803.625-.625c0-.9425-.3702-1.7943-.9618-2.4396,1.694-.3038,2.9857-1.7803,2.9857-3.5604,0-.3447-.2798-.625-.625-.625s-.625.2803-.625.625c0,1.3096-1.0654,2.375-2.375,2.375h-4.2544c.3491-1.462,1.3525-2.7123,2.769-3.3359.3076-.1357.4526-.4902.3291-.8027-.1611-.4062-.2427-.8223-.2427-1.2363,0-1.8613,1.5142-3.375,3.375-3.375.042,0,.0815.0073.1221.0127l.1577.0186c.2637.0288.5083-.1216.6187-.3599.4712-1.0151,1.4927-1.6714,2.6016-1.6714.699,0,1.3514.2608,1.875.7179v4.938c-1.0052-.2764-1.75-1.1891-1.75-2.2809,0-.3447-.2798-.625-.625-.625s-.625.2803-.625.625c0,1.785,1.2992,3.2637,3,3.5618v19.3163c-.5743.3195-1.2134.4969-1.875.4969-1.6603,0-3.1138-1.0615-3.6475-2.6465ZM28.1211,20.6055c-.2656.1699-.3633.5117-.2266.7959.3004.6275.4559,1.2914.4735,1.9736h-1.368c-1.3096,0-2.375-1.0654-2.375-2.375,0-.3447-.2798-.625-.625-.625s-.625.2803-.625.625c0,1.999,1.626,3.625,3.625,3.625h1.2288c-.416,1.7613-1.7721,3.1793-3.6004,3.6123-.2144.0508-.3857.2109-.4521.4199-.5127,1.626-1.9902,2.7178-3.6763,2.7178-.6616,0-1.3007-.1774-1.875-.4969v-5.1591c1.0052.2764,1.75,1.1891,1.75,2.2809,0,.3447.2798.625.625.625s.625-.2803.625-.625c0-1.785-1.2992-3.2637-3-3.5618v-7.8132h4.375c.8228,0,1.6152.2998,2.2319.8438.1191.1045.2666.1562.4136.1562.1729,0,.3452-.0713.4688-.2119.2285-.2588.2036-.6533-.0552-.8818-.6765-.5964-1.5097-.9667-2.3925-1.0956.5895-.6449.9584-1.495.9584-2.4356,0-.3447-.2798-.625-.625-.625s-.625.2803-.625.625c0,1.3096-1.0654,2.375-2.375,2.375h-2.375V5.3429c.5236-.4571,1.176-.7179,1.875-.7179,1.0711,0,2.0558.6158,2.5466,1.5724-.4208.7166-1.1953,1.1776-2.0466,1.1776-.3452,0-.625.2803-.625.625s.2798.625.625.625c1.3694,0,2.6089-.7803,3.2226-1.9775,1.7556.117,3.1524,1.5674,3.1524,3.3525,0,.4141-.0815.8301-.2427,1.2363-.1235.3125.0215.667.3291.8027,1.77.7793,2.9136,2.5312,2.9136,4.4609,0,1.667-.8428,3.2021-2.2539,4.1055Z"/></svg>