<?xml version="1.0" encoding="UTF-8"?><svg id="a" xmlns="http://www.w3.org/2000/svg" viewBox="0 0 36 36"><title>RV camper icon - White</title>
<desc>vacation, travel, drive, camp, stay, PTO, time off, transportation</desc>
<metadata><?xpacket begin="﻿" id="W5M0MpCehiHzreSzNTczkc9d"?>
<x:xmpmeta xmlns:x="adobe:ns:meta/" x:xmptk="Adobe XMP Core 8.0-c001 1.000000, 0000/00/00-00:00:00        ">
   <rdf:RDF xmlns:rdf="http://www.w3.org/1999/02/22-rdf-syntax-ns#">
      <rdf:Description rdf:about=""
            xmlns:xmp="http://ns.adobe.com/xap/1.0/"
            xmlns:dc="http://purl.org/dc/elements/1.1/"
            xmlns:cq="http://www.day.com/jcr/cq/1.0"
            xmlns:tiff="http://ns.adobe.com/tiff/1.0/">
         <xmp:rhcc-effective-on>2023-12-08T17:46:17.431Z</xmp:rhcc-effective-on>
         <xmp:rhcc-metadata-complete-moderator>pending</xmp:rhcc-metadata-complete-moderator>
         <xmp:rhcc-translation-id>TRA9aed0537-5922-4ac9-b031-69cd8af2955d</xmp:rhcc-translation-id>
         <xmp:brand-content-type>Icon</xmp:brand-content-type>
         <xmp:CreateDate>2023-12-08T17:46:17.431Z</xmp:CreateDate>
         <xmp:rhcc-aspect-ratio>square</xmp:rhcc-aspect-ratio>
         <xmp:rhcc-effective-on-set-on-upload>true</xmp:rhcc-effective-on-set-on-upload>
         <xmp:rhcc-published-asset-email-sent>true</xmp:rhcc-published-asset-email-sent>
         <xmp:rhcc-metadata-complete-uploader>pending</xmp:rhcc-metadata-complete-uploader>
         <xmp:rhcc-file-last-modified>2024-07-12T21:23:25.345Z</xmp:rhcc-file-last-modified>
         <xmp:rhcc-audience>rhcc-audience:internal</xmp:rhcc-audience>
         <xmp:brand-content-subtype>Icon</xmp:brand-content-subtype>
         <xmp:rhcc-rights-restricted>no</xmp:rhcc-rights-restricted>
         <xmp:rhcc-derivative-id>DER9aed0537-5922-4ac9-b031-69cd8af2955d</xmp:rhcc-derivative-id>
         <xmp:rhcc-uploaded-by>pmeilleu@redhat.com</xmp:rhcc-uploaded-by>
         <xmp:brand-logo-color>White</xmp:brand-logo-color>
         <xmp:rhcc-notify-portal-subscribers-on-change>yes</xmp:rhcc-notify-portal-subscribers-on-change>
         <dc:format>image/svg+xml</dc:format>
         <dc:modified>2024-02-09T20:25:15.554Z</dc:modified>
         <dc:title>
            <rdf:Alt>
               <rdf:li xml:lang="x-default">RV camper icon - White</rdf:li>
            </rdf:Alt>
         </dc:title>
         <dc:description>
            <rdf:Alt>
               <rdf:li xml:lang="x-default">vacation, travel, drive, camp, stay, PTO, time off, transportation</rdf:li>
            </rdf:Alt>
         </dc:description>
         <cq:lastReplicationAction_scene7>Activate</cq:lastReplicationAction_scene7>
         <cq:lastReplicationAction_publish>Activate</cq:lastReplicationAction_publish>
         <cq:lastReplicated_publish>2024-10-02T19:46:30.365Z</cq:lastReplicated_publish>
         <cq:lastReplicatedBy>workflow-process-service</cq:lastReplicatedBy>
         <cq:lastReplicationAction>Activate</cq:lastReplicationAction>
         <cq:lastReplicatedBy_publish>workflow-process-service</cq:lastReplicatedBy_publish>
         <cq:isDelivered>false</cq:isDelivered>
         <cq:lastReplicated>2024-10-02T19:46:30.365Z</cq:lastReplicated>
         <cq:lastReplicatedBy_scene7>workflow-process-service</cq:lastReplicatedBy_scene7>
         <cq:lastReplicated_scene7>2024-10-02T19:46:30.365Z</cq:lastReplicated_scene7>
         <tiff:ImageLength>36</tiff:ImageLength>
         <tiff:ImageWidth>36</tiff:ImageWidth>
      </rdf:Description>
   </rdf:RDF>
</x:xmpmeta>
                                                                                                    
                                                                                                    
                                                                                                    
                                                                                                    
                                                                                                    
                                                                                                    
                                                                                                    
                                                                                                    
        
<?xpacket end="w"?></metadata>
<defs><style>.b{fill:#fff;}</style></defs><path class="b" d="m31,27.375H5c-.3452,0-.625.2803-.625.625s.2798.625.625.625h26c.3452,0,.625-.2803.625-.625s-.2798-.625-.625-.625Z"/><path class="b" d="m15.625,15v-4c0-.3447-.2798-.625-.625-.625h-7c-.3452,0-.625.2803-.625.625v4c0,.3447.2798.625.625.625h7c.3452,0,.625-.2803.625-.625Zm-7-3.375h2.75v2.75h-2.75v-2.75Zm5.75,2.75h-1.75v-2.75h1.75v2.75Z"/><path class="b" d="m26,17.625c.2529,0,.4805-.1523.5776-.3857.0967-.2334.043-.5029-.1357-.6816l-3-3c-.1172-.1172-.2764-.1826-.4419-.1826h-3c-.3452,0-.625.2803-.625.625v3c0,.3447.2798.625.625.625h6Zm-5.375-3h2.1162l1.75,1.75h-3.8662v-1.75Z"/><path class="b" d="m31.6133,15.942c-.0042-.0432-.0123-.0831-.025-.1238-.0117-.0378-.0249-.0727-.0432-.1071-.019-.0358-.0411-.0674-.0667-.0989-.0252-.0311-.0511-.0588-.0818-.0846-.0301-.0253-.0618-.0458-.0967-.0652-.037-.0208-.0743-.0371-.1155-.05-.0193-.0061-.0342-.0193-.0544-.0236l-3.7314-.7939-1.9697-1.9697h1.4214s.0004-.0001.0005-.0001c.0428,0,.0858-.0038.1293-.0135.0203-.0043.0354-.0176.0548-.0237.0406-.0128.0774-.0288.114-.0492.0358-.0198.0682-.0408.0989-.0668.0299-.0252.0552-.0523.0799-.0826.0261-.032.0486-.0641.0679-.1006.0181-.0341.0312-.0688.0428-.1062.0128-.0408.021-.0809.0251-.1241.002-.0201.0117-.0375.0117-.058,0-.0228-.0106-.0421-.013-.0643-.0023-.0222.0041-.0433-.0007-.0656l-.8501-4c-.0043-.0204-.0176-.0357-.0237-.0552-.0126-.0399-.0282-.076-.0482-.112-.0206-.0378-.0427-.0717-.07-.1039-.0228-.0267-.0469-.0495-.0739-.072-.0359-.0303-.0728-.0558-.1146-.0773-.0284-.0146-.0571-.0254-.0879-.0356-.0461-.0153-.092-.0247-.1415-.0286-.0179-.0015-.0333-.0104-.0516-.0104H7c-1.4473,0-2.625,1.1777-2.625,2.625v11c0,.3447.2798.625.625.625h2.5152c-.0823.2795-.1402.5692-.1402.875,0,1.7227,1.4019,3.125,3.125,3.125s3.125-1.4023,3.125-3.125-1.4019-3.125-3.125-3.125c-.9005,0-1.7068.3885-2.2776,1h-2.5974v-10.375c0-.7578.6167-1.375,1.375-1.375h18.4939l.5844,2.75h-8.0783c-.3452,0-.625.2803-.625.625v6c0,.3447.2798.625.625.625s.625-.2803.625-.625v-5.375h5.0352l2.9854,2.9854c.0854.085.1938.1436.312.1689l3.4175.7267v3.869h-2.5974c-.5708-.6115-1.3771-1-2.2776-1s-1.7068.3885-2.2776,1h-8.2224c-.3452,0-.625.2803-.625.625s.2798.625.625.625h7.5152c-.0823.2795-.1402.5692-.1402.875,0,1.7227,1.4019,3.125,3.125,3.125s3.125-1.4023,3.125-3.125c0-.3058-.0579-.5955-.1402-.875h2.5152c.3452,0,.625-.2803.625-.625v-5c0-.0206-.0098-.038-.0117-.058Zm-21.1133,4.683c1.0337,0,1.875.8408,1.875,1.875s-.8413,1.875-1.875,1.875-1.875-.8408-1.875-1.875.8413-1.875,1.875-1.875Zm15,3.75c-1.0337,0-1.875-.8408-1.875-1.875s.8413-1.875,1.875-1.875,1.875.8408,1.875,1.875-.8413,1.875-1.875,1.875Z"/></svg>