<?xml version="1.0" encoding="UTF-8"?><svg id="uuid-3c660527-d3ea-482e-b08a-fd6fe3fa1bca" xmlns="http://www.w3.org/2000/svg" width="38" height="38" viewBox="0 0 38 38"><title>Power monitoring for Red Hat OpenShift icon</title>
<desc>Kepler, Cloud, tool</desc>
<metadata><?xpacket begin="﻿" id="W5M0MpCehiHzreSzNTczkc9d"?>
<x:xmpmeta xmlns:x="adobe:ns:meta/" x:xmptk="Adobe XMP Core 8.0-c001 1.000000, 0000/00/00-00:00:00        ">
   <rdf:RDF xmlns:rdf="http://www.w3.org/1999/02/22-rdf-syntax-ns#">
      <rdf:Description rdf:about=""
            xmlns:xmp="http://ns.adobe.com/xap/1.0/"
            xmlns:dc="http://purl.org/dc/elements/1.1/"
            xmlns:cq="http://www.day.com/jcr/cq/1.0"
            xmlns:tiff="http://ns.adobe.com/tiff/1.0/"
            xmlns:xmpRights="http://ns.adobe.com/xap/1.0/rights/">
         <xmp:rhcc-effective-on>2024-03-01T15:26:21.610Z</xmp:rhcc-effective-on>
         <xmp:rhcc-metadata-complete-moderator>pending</xmp:rhcc-metadata-complete-moderator>
         <xmp:rhcc-translation-id>TRAad378c94-aedc-4dd6-8ae3-15328c0e9912</xmp:rhcc-translation-id>
         <xmp:brand-content-type>Icon</xmp:brand-content-type>
         <xmp:CreateDate>2024-03-01T15:26:21.610Z</xmp:CreateDate>
         <xmp:rhcc-aspect-ratio>square</xmp:rhcc-aspect-ratio>
         <xmp:rhcc-effective-on-set-on-upload>true</xmp:rhcc-effective-on-set-on-upload>
         <xmp:rhcc-metadata-complete-uploader>pending</xmp:rhcc-metadata-complete-uploader>
         <xmp:rhcc-file-last-modified>2024-07-12T23:51:52.057Z</xmp:rhcc-file-last-modified>
         <xmp:rhcc-audience>rhcc-audience:internal</xmp:rhcc-audience>
         <xmp:rhcc-rights-restricted>no</xmp:rhcc-rights-restricted>
         <xmp:brand-content-subtype>Technology icon</xmp:brand-content-subtype>
         <xmp:rhcc-derivative-id>DERad378c94-aedc-4dd6-8ae3-15328c0e9912</xmp:rhcc-derivative-id>
         <xmp:rhcc-uploaded-by>pmeilleu@redhat.com</xmp:rhcc-uploaded-by>
         <xmp:rhcc-notify-portal-subscribers-on-change>yes</xmp:rhcc-notify-portal-subscribers-on-change>
         <xmp:rhcc-product>
            <rdf:Bag>
               <rdf:li>rhcc-product:red-hat-openshift</rdf:li>
            </rdf:Bag>
         </xmp:rhcc-product>
         <dc:format>image/svg+xml</dc:format>
         <dc:modified>2024-05-10T13:40:09.986Z</dc:modified>
         <dc:title>
            <rdf:Alt>
               <rdf:li xml:lang="x-default">Power monitoring for Red Hat OpenShift icon</rdf:li>
            </rdf:Alt>
         </dc:title>
         <dc:description>
            <rdf:Alt>
               <rdf:li xml:lang="x-default">Kepler, Cloud, tool</rdf:li>
            </rdf:Alt>
         </dc:description>
         <cq:lastReplicationAction_scene7>Activate</cq:lastReplicationAction_scene7>
         <cq:lastReplicationAction_publish>Activate</cq:lastReplicationAction_publish>
         <cq:lastReplicated_publish>2024-10-02T19:51:25.158Z</cq:lastReplicated_publish>
         <cq:lastReplicatedBy>workflow-process-service</cq:lastReplicatedBy>
         <cq:lastReplicationAction>Activate</cq:lastReplicationAction>
         <cq:lastReplicatedBy_publish>workflow-process-service</cq:lastReplicatedBy_publish>
         <cq:isDelivered>false</cq:isDelivered>
         <cq:lastReplicated>2024-10-02T19:51:25.158Z</cq:lastReplicated>
         <cq:lastReplicatedBy_scene7>workflow-process-service</cq:lastReplicatedBy_scene7>
         <cq:lastReplicated_scene7>2024-10-02T19:51:25.158Z</cq:lastReplicated_scene7>
         <tiff:ImageLength>38</tiff:ImageLength>
         <tiff:ImageWidth>38</tiff:ImageWidth>
         <xmpRights:UsageTerms>
            <rdf:Alt>
               <rdf:li xml:lang="x-default">Use technology icons to represent Red Hat products and components. Do not remove the icon from the bounding shape.</rdf:li>
            </rdf:Alt>
         </xmpRights:UsageTerms>
      </rdf:Description>
   </rdf:RDF>
</x:xmpmeta>
                                                                                                    
                                                                                                    
                                                                                                    
                                                                                                    
                                                                                                    
                                                                                                    
                                                                                                    
                                                                                                    
                                                                                                    
                                                                                                    
                                                                                                    
                                                                                                    
                                                                                                    
                                                                                                    
                                                                                                    
                                                                                                    
                                                                                                    
                                          
<?xpacket end="w"?></metadata>
<path d="m28,1H10C5.02942,1,1,5.02942,1,10v18c0,4.97058,4.02942,9,9,9h18c4.97058,0,9-4.02942,9-9V10c0-4.97058-4.02942-9-9-9Zm7.75,27c0,4.27338-3.47662,7.75-7.75,7.75H10c-4.27338,0-7.75-3.47662-7.75-7.75V10c0-4.27338,3.47662-7.75,7.75-7.75h18c4.27338,0,7.75,3.47662,7.75,7.75v18Z" fill="#e00" stroke-width="0"/><path d="m28.06445,23.41895c-.32227-.12549-.68359.0293-.81152.35059-1.34961,3.40527-4.58984,5.60547-8.25293,5.60547-4.72559,0-8.61914-3.69287-8.86328-8.40723-.01855-.3457-.33887-.60156-.65625-.5918-.34473.01758-.60938.31152-.5918.65625.27832,5.37939,4.71973,9.59277,10.11133,9.59277,4.17871,0,7.875-2.51025,9.41504-6.39453.12695-.3208-.03027-.68408-.35059-.81152Z" fill="#e00" stroke-width="0"/><path d="m29,21.375h-6c-.24707,0-.4707.14551-.57129.37061l-1.47949,3.32471-5.09668-11.44775c-.10059-.2251-.32422-.37061-.57129-.37061s-.4707.14551-.57129.37061l-2.11621,4.75244h-3.59375c-.34473,0-.625.27979-.625.625s.28027.625.625.625h4c.24707,0,.4707-.14551.57129-.37061l1.70996-3.84082,5.09668,11.44775c.10059.2251.32422.37061.57129.37061s.4707-.14551.57129-.37061l1.88574-4.23633h5.59375c.34473,0,.625-.27979.625-.625s-.28027-.625-.625-.625Z" fill="#e00" stroke-width="0"/><path d="m25,16.625h1.9729c.52026,1.0683.82745,2.20978.89038,3.40771.01758.3335.29297.59229.62305.59229.01172,0,.02246-.00049.0332-.00098.34473-.01807.61035-.31201.5918-.65674-.07812-1.50586-.47949-2.94092-1.19238-4.26367-.08759-.16235-.19684-.31439-.29395-.47302v-1.23059c0-3.10156-2.52344-5.625-5.625-5.625h-2c-.34473,0-.625.27979-.625.625v2c0,3.10156,2.52344,5.625,5.625,5.625Zm-4.375-7h1.375c2.41211,0,4.375,1.9624,4.375,4.375v.49072l-2.93262-2.93262c-.24414-.24414-.64062-.24414-.88477,0-.24316.24414-.24316.63965,0,.88379l2.93311,2.93311h-.49072c-2.41211,0-4.375-1.9624-4.375-4.375v-1.375Z" fill="#e00" stroke-width="0"/></svg>