<?xml version="1.0" encoding="UTF-8"?><svg id="uuid-a6793985-f9f1-4f73-a9e7-580163815c20" xmlns="http://www.w3.org/2000/svg" viewBox="0 0 36 36"><title>Books (multiple) icon - Red</title>
<desc>read, learn, audiobook, print, paper, document, shelf, library, resource, media and documents</desc>
<metadata><?xpacket begin="﻿" id="W5M0MpCehiHzreSzNTczkc9d"?>
<x:xmpmeta xmlns:x="adobe:ns:meta/" x:xmptk="Adobe XMP Core 8.0-c001 1.000000, 0000/00/00-00:00:00        ">
   <rdf:RDF xmlns:rdf="http://www.w3.org/1999/02/22-rdf-syntax-ns#">
      <rdf:Description rdf:about=""
            xmlns:xmp="http://ns.adobe.com/xap/1.0/"
            xmlns:dc="http://purl.org/dc/elements/1.1/"
            xmlns:cq="http://www.day.com/jcr/cq/1.0"
            xmlns:tiff="http://ns.adobe.com/tiff/1.0/">
         <xmp:rhcc-effective-on>2023-12-08T17:36:47.604Z</xmp:rhcc-effective-on>
         <xmp:rhcc-metadata-complete-moderator>pending</xmp:rhcc-metadata-complete-moderator>
         <xmp:rhcc-translation-id>TRAe0e4977a-980f-4d80-a7b3-9d0f2745e235</xmp:rhcc-translation-id>
         <xmp:brand-content-type>Icon</xmp:brand-content-type>
         <xmp:CreateDate>2023-12-08T17:36:47.604Z</xmp:CreateDate>
         <xmp:rhcc-aspect-ratio>square</xmp:rhcc-aspect-ratio>
         <xmp:rhcc-effective-on-set-on-upload>true</xmp:rhcc-effective-on-set-on-upload>
         <xmp:rhcc-metadata-complete-uploader>pending</xmp:rhcc-metadata-complete-uploader>
         <xmp:rhcc-file-last-modified>2024-07-12T19:40:40.348Z</xmp:rhcc-file-last-modified>
         <xmp:rhcc-audience>rhcc-audience:internal</xmp:rhcc-audience>
         <xmp:brand-content-subtype>Icon</xmp:brand-content-subtype>
         <xmp:rhcc-rights-restricted>no</xmp:rhcc-rights-restricted>
         <xmp:rhcc-derivative-id>DERe0e4977a-980f-4d80-a7b3-9d0f2745e235</xmp:rhcc-derivative-id>
         <xmp:rhcc-uploaded-by>pmeilleu@redhat.com</xmp:rhcc-uploaded-by>
         <xmp:brand-logo-color>Red</xmp:brand-logo-color>
         <xmp:rhcc-notify-portal-subscribers-on-change>yes</xmp:rhcc-notify-portal-subscribers-on-change>
         <dc:format>image/svg+xml</dc:format>
         <dc:modified>2024-02-09T20:19:32.784Z</dc:modified>
         <dc:title>
            <rdf:Alt>
               <rdf:li xml:lang="x-default">Books (multiple) icon - Red</rdf:li>
            </rdf:Alt>
         </dc:title>
         <dc:description>
            <rdf:Alt>
               <rdf:li xml:lang="x-default">read, learn, audiobook, print, paper, document, shelf, library, resource, media and documents</rdf:li>
            </rdf:Alt>
         </dc:description>
         <cq:lastReplicationAction_scene7>Activate</cq:lastReplicationAction_scene7>
         <cq:lastReplicationAction_publish>Activate</cq:lastReplicationAction_publish>
         <cq:lastReplicated_publish>2024-10-02T19:29:16.490Z</cq:lastReplicated_publish>
         <cq:lastReplicatedBy>workflow-process-service</cq:lastReplicatedBy>
         <cq:lastReplicationAction>Activate</cq:lastReplicationAction>
         <cq:lastReplicatedBy_publish>workflow-process-service</cq:lastReplicatedBy_publish>
         <cq:isDelivered>false</cq:isDelivered>
         <cq:lastReplicated>2024-10-02T19:29:16.490Z</cq:lastReplicated>
         <cq:lastReplicatedBy_scene7>workflow-process-service</cq:lastReplicatedBy_scene7>
         <cq:lastReplicated_scene7>2024-10-02T19:29:16.490Z</cq:lastReplicated_scene7>
         <tiff:ImageLength>36</tiff:ImageLength>
         <tiff:ImageWidth>36</tiff:ImageWidth>
      </rdf:Description>
   </rdf:RDF>
</x:xmpmeta>
                                                                                                    
                                                                                                    
                                                                                                    
                                                                                                    
                                                                                                    
                                                                                                    
                                                                                                    
                                                                                                    
                                                                                                 
<?xpacket end="w"?></metadata>
<defs><style>.uuid-cc763c44-2ef0-4889-9fc8-aaa8994cd809{fill:#e00;}</style></defs><path class="uuid-cc763c44-2ef0-4889-9fc8-aaa8994cd809" d="M29.61,29.88L24.29,4.87c-.07-.34-.4-.56-.74-.48-.34,.07-.55,.4-.48,.74l.29,1.38-3.56,.76-.31-1.47c-.07-.34-.4-.56-.74-.48-.05,0-.08,.03-.12,.05v-.36c0-.34-.28-.62-.62-.62H8c-.35,0-.62,.28-.62,.62V31c0,.34,.28,.62,.62,.62h10c.35,0,.62-.28,.62-.62V7.73l4.97,23.4c.07,.34,.41,.55,.74,.48,.34-.07,.55-.4,.48-.74l-.31-1.45,3.56-.76,.31,1.48c.07,.34,.41,.55,.74,.48,.34-.07,.55-.4,.48-.74ZM17.38,7.38h-3.75v-1.75h3.75v1.75Zm0,20h-3.75V8.62h3.75V27.38ZM8.62,8.62h3.75V27.38h-3.75V8.62Zm3.75-3v1.75h-3.75v-1.75h3.75Zm-3.75,23h3.75v1.75h-3.75v-1.75Zm5,1.75v-1.75h3.75v1.75h-3.75Zm10.63-2.17l-4.19-19.71,3.56-.76,4.19,19.71-3.56,.76Z"/></svg>