<?xml version="1.0" encoding="UTF-8"?><svg id="uuid-a3d4d00d-4d9f-4fe0-9cb1-508bbfa4c588" xmlns="http://www.w3.org/2000/svg" width="36" height="36" viewBox="0 0 36 36"><title>Compostable plastic icon</title>
<desc>compostable, plastics, drink, cup, compost, waste, GWS, signage</desc>
<metadata><?xpacket begin="﻿" id="W5M0MpCehiHzreSzNTczkc9d"?>
<x:xmpmeta xmlns:x="adobe:ns:meta/" x:xmptk="Adobe XMP Core 8.0-c001 1.000000, 0000/00/00-00:00:00        ">
   <rdf:RDF xmlns:rdf="http://www.w3.org/1999/02/22-rdf-syntax-ns#">
      <rdf:Description rdf:about=""
            xmlns:dc="http://purl.org/dc/elements/1.1/"
            xmlns:tiff="http://ns.adobe.com/tiff/1.0/"
            xmlns:xmp="http://ns.adobe.com/xap/1.0/">
         <dc:modified>2025-09-11T00:36:20.424Z</dc:modified>
         <dc:format>image/svg+xml</dc:format>
         <dc:description>
            <rdf:Alt>
               <rdf:li xml:lang="x-default">compostable, plastics, drink, cup, compost, waste, GWS, signage</rdf:li>
            </rdf:Alt>
         </dc:description>
         <dc:title>
            <rdf:Alt>
               <rdf:li xml:lang="x-default">Compostable plastic icon</rdf:li>
            </rdf:Alt>
         </dc:title>
         <tiff:ImageLength>36</tiff:ImageLength>
         <tiff:ImageWidth>36</tiff:ImageWidth>
         <xmp:rhcc-rights-restricted>no</xmp:rhcc-rights-restricted>
         <xmp:brand-content-subtype>Icon</xmp:brand-content-subtype>
         <xmp:rhcc-file-last-modified>2025-09-11T00:32:11.585Z</xmp:rhcc-file-last-modified>
         <xmp:brand-content-type>Icon</xmp:brand-content-type>
         <xmp:brand-colorway>
            <rdf:Bag>
               <rdf:li>colorway:red</rdf:li>
            </rdf:Bag>
         </xmp:brand-colorway>
      </rdf:Description>
   </rdf:RDF>
</x:xmpmeta>
                                                                                                    
                                                                                                    
                                                                                                    
                                                                                                    
                                                                                                    
                                                                                                    
                                                                                                    
                                                                                                    
                                                                                                    
                                                                                                    
                                                                                                    
                                                                                                    
                                                                                                    
                                                                                                    
                                                                                                    
                                                                                                    
                                                                                                    
                                                                                                    
                                                                              
<?xpacket end="w"?></metadata>
<defs><style>.uuid-21ffdaa0-dd14-40eb-80b9-a8d74cd7f134{fill:#e00;}</style></defs><path class="uuid-21ffdaa0-dd14-40eb-80b9-a8d74cd7f134" d="M26,13.375H10c-.18457,0-.35986.08203-.479.22363-.11865.1416-.16846.32812-.13672.50977l3,17c.05273.29883.3125.5166.61572.5166h10c.30322,0,.56299-.21777.61572-.5166l3-17c.03174-.18164-.01807-.36816-.13672-.50977-.11914-.1416-.29443-.22363-.479-.22363ZM22.47559,30.375h-8.95117l-2.7793-15.75h14.50977l-2.7793,15.75Z"/><path class="uuid-21ffdaa0-dd14-40eb-80b9-a8d74cd7f134" d="M27,10.375h-8.375v-4.04053l2.72168-1.81445c.28711-.19141.36475-.57959.17334-.8667-.19092-.28711-.5791-.36279-.8667-.17334l-3,2c-.17383.11572-.27832.31104-.27832.52002v4.375h-8.375c-.34521,0-.625.28027-.625.625s.27979.625.625.625h18c.34521,0,.625-.28027.625-.625s-.27979-.625-.625-.625Z"/><path class="uuid-21ffdaa0-dd14-40eb-80b9-a8d74cd7f134" d="M14.38867,24.86499c-.00134.0459-.01367.08875-.01367.13501v3c0,.34473.27979.625.625.625s.625-.28027.625-.625v-3c0-1.86133,1.51416-3.375,3.375-3.375.34521,0,.625-.28027.625-.625s-.27979-.625-.625-.625c-1.86041,0-3.4574,1.11047-4.19092,2.69775-.11542-.34351-.18408-.70374-.18408-1.07275,0-1.86133,1.51416-3.375,3.375-3.375h3.375v3.375c0,1.86133-1.51416,3.375-3.375,3.375-.34521,0-.625.28027-.625.625s.27979.625.625.625c2.55029,0,4.625-2.0752,4.625-4.625v-4c0-.34473-.27979-.625-.625-.625h-4c-2.55029,0-4.625,2.0752-4.625,4.625,0,1.04675.36688,2.04968,1.01367,2.86499Z"/></svg>