<?xml version="1.0" encoding="UTF-8"?><svg id="uuid-dc00971e-bf87-4da6-9b87-3a44c1c6bc6b" xmlns="http://www.w3.org/2000/svg" viewBox="0 0 38 38"><title>Red Hat OpenShift Service Mesh icon</title>
<desc>OSSM, Cloud</desc>
<metadata><?xpacket begin="﻿" id="W5M0MpCehiHzreSzNTczkc9d"?>
<x:xmpmeta xmlns:x="adobe:ns:meta/" x:xmptk="Adobe XMP Core 8.0-c001 1.000000, 0000/00/00-00:00:00        ">
   <rdf:RDF xmlns:rdf="http://www.w3.org/1999/02/22-rdf-syntax-ns#">
      <rdf:Description rdf:about=""
            xmlns:xmp="http://ns.adobe.com/xap/1.0/"
            xmlns:dc="http://purl.org/dc/elements/1.1/"
            xmlns:cq="http://www.day.com/jcr/cq/1.0"
            xmlns:tiff="http://ns.adobe.com/tiff/1.0/"
            xmlns:xmpRights="http://ns.adobe.com/xap/1.0/rights/">
         <xmp:rhcc-effective-on>2024-03-01T15:27:14.775Z</xmp:rhcc-effective-on>
         <xmp:rhcc-metadata-complete-moderator>pending</xmp:rhcc-metadata-complete-moderator>
         <xmp:rhcc-translation-id>TRA74c66a03-76eb-45b1-a47e-a8aff3be61c4</xmp:rhcc-translation-id>
         <xmp:brand-content-type>Icon</xmp:brand-content-type>
         <xmp:CreateDate>2024-03-01T15:27:14.775Z</xmp:CreateDate>
         <xmp:rhcc-aspect-ratio>square</xmp:rhcc-aspect-ratio>
         <xmp:rhcc-effective-on-set-on-upload>true</xmp:rhcc-effective-on-set-on-upload>
         <xmp:rhcc-metadata-complete-uploader>pending</xmp:rhcc-metadata-complete-uploader>
         <xmp:rhcc-file-last-modified>2024-07-12T23:52:24.158Z</xmp:rhcc-file-last-modified>
         <xmp:rhcc-audience>rhcc-audience:internal</xmp:rhcc-audience>
         <xmp:rhcc-rights-restricted>no</xmp:rhcc-rights-restricted>
         <xmp:brand-content-subtype>Technology icon</xmp:brand-content-subtype>
         <xmp:rhcc-derivative-id>DER74c66a03-76eb-45b1-a47e-a8aff3be61c4</xmp:rhcc-derivative-id>
         <xmp:rhcc-uploaded-by>pmeilleu@redhat.com</xmp:rhcc-uploaded-by>
         <xmp:brand-logo-color>Black</xmp:brand-logo-color>
         <xmp:rhcc-notify-portal-subscribers-on-change>yes</xmp:rhcc-notify-portal-subscribers-on-change>
         <xmp:rhcc-product>
            <rdf:Bag>
               <rdf:li>rhcc-product:red-hat-openshift-container-platform</rdf:li>
            </rdf:Bag>
         </xmp:rhcc-product>
         <xmp:brand-subtype>
            <rdf:Bag>
               <rdf:li>Technology icon</rdf:li>
            </rdf:Bag>
         </xmp:brand-subtype>
         <dc:format>image/svg+xml</dc:format>
         <dc:modified>2024-05-10T00:27:59.282Z</dc:modified>
         <dc:title>
            <rdf:Alt>
               <rdf:li xml:lang="x-default">Red Hat OpenShift Service Mesh icon</rdf:li>
            </rdf:Alt>
         </dc:title>
         <dc:description>
            <rdf:Alt>
               <rdf:li xml:lang="x-default">OSSM, Cloud</rdf:li>
            </rdf:Alt>
         </dc:description>
         <cq:lastReplicationAction_scene7>Activate</cq:lastReplicationAction_scene7>
         <cq:lastReplicationAction_publish>Activate</cq:lastReplicationAction_publish>
         <cq:lastReplicated_publish>2024-10-02T19:53:13.239Z</cq:lastReplicated_publish>
         <cq:lastReplicatedBy>workflow-process-service</cq:lastReplicatedBy>
         <cq:lastReplicationAction>Activate</cq:lastReplicationAction>
         <cq:lastReplicatedBy_publish>workflow-process-service</cq:lastReplicatedBy_publish>
         <cq:isDelivered>false</cq:isDelivered>
         <cq:lastReplicated>2024-10-02T19:53:13.239Z</cq:lastReplicated>
         <cq:lastReplicatedBy_scene7>workflow-process-service</cq:lastReplicatedBy_scene7>
         <cq:lastReplicated_scene7>2024-10-02T19:53:13.239Z</cq:lastReplicated_scene7>
         <tiff:ImageLength>38</tiff:ImageLength>
         <tiff:ImageWidth>38</tiff:ImageWidth>
         <xmpRights:UsageTerms>
            <rdf:Alt>
               <rdf:li xml:lang="x-default">Use technology icons to represent Red Hat products and components. Do not remove the icon from the bounding shape.</rdf:li>
            </rdf:Alt>
         </xmpRights:UsageTerms>
      </rdf:Description>
   </rdf:RDF>
</x:xmpmeta>
                                                                                                    
                                                                                                    
                                                                                                    
                                                                                                    
                                                                                                    
                                                                                                    
                                                                                                    
                                                                                                    
                                                                                                 
<?xpacket end="w"?></metadata>
<path d="m28,1H10C5.02942,1,1,5.02942,1,10v18c0,4.97058,4.02942,9,9,9h18c4.97058,0,9-4.02942,9-9V10c0-4.97058-4.02942-9-9-9Zm7.75,27c0,4.27332-3.47668,7.75-7.75,7.75H10c-4.27332,0-7.75-3.47668-7.75-7.75V10c0-4.27332,3.47668-7.75,7.75-7.75h18c4.27332,0,7.75,3.47668,7.75,7.75v18Z"/><path d="m27.65869,15.58752c.11011.02368.22412.03748.34131.03748.89648,0,1.625-.72852,1.625-1.625s-.72852-1.625-1.625-1.625c-.78003,0-1.43176.552-1.58813,1.28589-3.60815.40601-5.47021-1.95618-6.28418-3.49487.30554-.29565.49731-.70801.49731-1.16602,0-.89648-.72852-1.625-1.625-1.625s-1.625.72852-1.625,1.625c0,.41504.16077.78979.41736,1.07715-1.60388,3.14661-4.58533,3.41626-6.30566,3.27148-.25159-.57227-.82214-.97363-1.48669-.97363-.89648,0-1.625.72852-1.625,1.625s.72852,1.625,1.625,1.625c.12073,0,.23755-.01538.35071-.04041,1.84705,3.01208.93079,5.50183.08118,6.85608-.13843-.03857-.28137-.06567-.43188-.06567-.89648,0-1.625.72852-1.625,1.625s.72852,1.625,1.625,1.625c.78101,0,1.43384-.55334,1.58911-1.2887,3.62183-.41162,5.47852,1.96204,6.28467,3.49646-.3064.29565-.49878.7085-.49878,1.16724,0,.89648.72852,1.625,1.625,1.625s1.625-.72852,1.625-1.625c0-.46204-.19568-.87708-.50598-1.1731,1.55334-3.2583,4.54065-3.58521,6.30383-3.45227.17017.71545.81018,1.25037,1.57715,1.25037.89648,0,1.625-.72852,1.625-1.625s-.72852-1.625-1.625-1.625c-.11084,0-.21899.01147-.32361.03271-1.8053-3.00464-.8667-5.48254-.0177-6.82019Zm.34131-1.96252c.20703,0,.375.16797.375.375s-.16797.375-.375.375-.375-.16797-.375-.375.16797-.375.375-.375Zm-3.00391,1.32922l-5.37109,2.98401v-6.22876c1.00085,1.45276,2.7019,3.03979,5.37109,3.24475Zm-5.99609-6.32922c.20703,0,.375.16797.375.375s-.16797.375-.375.375-.375-.16797-.375-.375.16797-.375.375-.375Zm-5.13477,5.84961c1.44727-.27173,3.21704-1.0188,4.50977-2.89771v6.36133l-5.97876-3.32153c.46143-.00916.95361-.04541,1.46899-.14209Zm-4.24023-.47461c0-.20703.16797-.375.375-.375s.375.16797.375.375-.16797.375-.375.375-.375-.16797-.375-.375Zm.375,10.375c-.20703,0-.375-.16797-.375-.375s.16797-.375.375-.375.375.16797.375.375-.16797.375-.375.375Zm1.96875-2.18335c.72852-1.56226,1.18884-3.82251-.07251-6.42358l5.81738,3.23193-5.74487,3.19165Zm1.03027.85681l5.37598-2.98669v6.23145c-1.00061-1.45544-2.70312-3.04126-5.37598-3.24475Zm6.00098,6.32654c-.20703,0-.375-.16797-.375-.375s.16797-.375.375-.375.375.16797.375.375-.16797.375-.375.375Zm5.13477-6.11426c-1.44727.27173-3.21704,1.0188-4.50977,2.89771v-6.09668l5.5376,3.07654c-.33203.02209-.67322.05603-1.02783.12244Zm2.01733-1.00195l-5.86572-3.25879,5.88525-3.26953c-.76343,1.55933-1.29932,3.86035-.01953,6.52832Zm2.2229,1.74121c0,.20703-.16797.375-.375.375s-.375-.16797-.375-.375.16797-.375.375-.375.375.16797.375.375Z"/></svg>