<?xml version="1.0" encoding="UTF-8"?><svg id="Ryan_tweaks" xmlns="http://www.w3.org/2000/svg" viewBox="0 0 36 36"><title>Chair icon - Black</title>
<desc>chair, seating, therapy, comfort, cozy</desc>
<metadata><?xpacket begin="﻿" id="W5M0MpCehiHzreSzNTczkc9d"?>
<x:xmpmeta xmlns:x="adobe:ns:meta/" x:xmptk="Adobe XMP Core 8.0-c001 1.000000, 0000/00/00-00:00:00        ">
   <rdf:RDF xmlns:rdf="http://www.w3.org/1999/02/22-rdf-syntax-ns#">
      <rdf:Description rdf:about=""
            xmlns:dc="http://purl.org/dc/elements/1.1/"
            xmlns:tiff="http://ns.adobe.com/tiff/1.0/"
            xmlns:xmp="http://ns.adobe.com/xap/1.0/">
         <dc:modified>2025-06-03T18:39:20.672Z</dc:modified>
         <dc:format>image/svg+xml</dc:format>
         <dc:description>
            <rdf:Alt>
               <rdf:li xml:lang="x-default">chair, seating, therapy, comfort, cozy</rdf:li>
            </rdf:Alt>
         </dc:description>
         <dc:title>
            <rdf:Alt>
               <rdf:li xml:lang="x-default">Chair icon - Black</rdf:li>
            </rdf:Alt>
         </dc:title>
         <tiff:ImageLength>36</tiff:ImageLength>
         <tiff:ImageWidth>36</tiff:ImageWidth>
         <xmp:rhcc-rights-restricted>no</xmp:rhcc-rights-restricted>
         <xmp:brand-content-subtype>Icon</xmp:brand-content-subtype>
         <xmp:rhcc-file-last-modified>2025-06-03T18:37:02.525Z</xmp:rhcc-file-last-modified>
         <xmp:brand-content-type>Icon</xmp:brand-content-type>
         <xmp:brand-colorway>
            <rdf:Bag>
               <rdf:li>colorway:black</rdf:li>
            </rdf:Bag>
         </xmp:brand-colorway>
      </rdf:Description>
   </rdf:RDF>
</x:xmpmeta>
                                                                                                    
                                                                                                    
                                                                                                    
                                                                                                    
                                                                                                    
                                                                                                    
                                                                                                    
                                                                                                    
                                                                                                    
                                                                                                    
                                                                                                    
                                                                                                    
                                                                                                    
                                                                                                    
                                                                                                    
                                                                                                    
                                                                                                    
                                                                                      
<?xpacket end="w"?></metadata>
<defs><style>.cls-1{fill:none;}.cls-1,.cls-2{stroke-width:0px;}</style></defs><path class="cls-1" d="M24.38,21.62h-12.75v2.75h12.75v-2.75Z"/><path class="cls-1" d="M11.63,20v.37h12.75c-.1-1.67.8-3.08,2-3.59v-2.78c-.46-11.11-16.29-11.11-16.75,0,0,0,0,2.1,0,2.78,1.1.52,1.95,1.58,2,3.22Z"/><path class="cls-1" d="M28,17.62c-1.31,0-2.37,1.07-2.37,2.38v5c0,.34-.28.62-.62.62h-14c-.35,0-.62-.28-.62-.62v-5c0-1.31-1.07-2.38-2.38-2.38-3.13.08-3.13,4.67,0,4.75.35,0,.62.28.62.62,0,0,0,5.38,0,5.38h18.75v-5.38c0-.16.06-.28.14-.38.11-.15.27-.24.49-.25,3.13-.08,3.13-4.67,0-4.75Z"/><path class="cls-2" d="M31.63,20c-.08-2.56-2.11-3.74-4-3.56,0-.87,0-2.44,0-2.44-.53-12.77-18.72-12.77-19.25,0v2.44c-4.46-.5-5.68,6.11-1,7.12v5.44c0,.34.28.62.62.62h2.38v1.38c0,.34.28.62.62.62s.62-.28.62-.62v-1.38h12.75v1.38c0,.34.28.62.62.62s.62-.28.62-.62v-1.38h2.38c.35,0,.62-.28.62-.62v-5.44c1.7-.3,3-1.78,3-3.56ZM9.63,14c.46-11.11,16.29-11.11,16.75,0v2.78c-1.2.51-2.1,1.92-2,3.59h-12.75c.09-1.72-.79-3.06-2-3.59,0-.68,0-2.78,0-2.78ZM11.63,21.62h12.75v2.75h-12.75v-2.75ZM28,22.38c-.36.02-.61.27-.63.62,0,0,0,5.38,0,5.38H8.63v-5.38c0-.17-.07-.33-.18-.44s-.27-.18-.44-.18c-3.13-.08-3.13-4.67,0-4.75,1.31,0,2.38,1.07,2.38,2.38v5c0,.34.28.62.62.62h14c.35,0,.62-.28.62-.62v-5c0-1.31,1.07-2.38,2.37-2.38,3.13.08,3.13,4.67,0,4.75Z"/></svg>