<?xml version="1.0" encoding="UTF-8"?>
<svg id="Icon" xmlns="http://www.w3.org/2000/svg" viewBox="0 0 36 36">
  <title>Bat icon</title>
<desc> bat, wings, halloween</desc>
<metadata><?xpacket begin="﻿" id="W5M0MpCehiHzreSzNTczkc9d"?>
<x:xmpmeta xmlns:x="adobe:ns:meta/" x:xmptk="Adobe XMP Core 8.0-c001 1.000000, 0000/00/00-00:00:00        ">
   <rdf:RDF xmlns:rdf="http://www.w3.org/1999/02/22-rdf-syntax-ns#">
      <rdf:Description rdf:about=""
            xmlns:dc="http://purl.org/dc/elements/1.1/"
            xmlns:xmp="http://ns.adobe.com/xap/1.0/"
            xmlns:tiff="http://ns.adobe.com/tiff/1.0/"
            xmlns:repo="http://ns.adobe.com/aem/metadata-unspecified/repo">
         <dc:modified>2025-08-06T14:22:06.397Z</dc:modified>
         <dc:format>image/svg+xml</dc:format>
         <dc:description>
            <rdf:Alt>
               <rdf:li xml:lang="x-default"> bat, wings, halloween</rdf:li>
            </rdf:Alt>
         </dc:description>
         <dc:title>
            <rdf:Alt>
               <rdf:li xml:lang="x-default">Bat icon</rdf:li>
            </rdf:Alt>
         </dc:title>
         <xmp:rhcc-file-last-modified>2025-08-06T14:18:49.481Z</xmp:rhcc-file-last-modified>
         <xmp:rhcc-rights-restricted>no</xmp:rhcc-rights-restricted>
         <xmp:brand-content-subtype>Icon</xmp:brand-content-subtype>
         <xmp:brand-content-type>Icon</xmp:brand-content-type>
         <xmp:brand-colorway>
            <rdf:Bag>
               <rdf:li>colorway:white</rdf:li>
            </rdf:Bag>
         </xmp:brand-colorway>
         <tiff:ImageWidth>36</tiff:ImageWidth>
         <tiff:ImageLength>36</tiff:ImageLength>
         <repo:encoding>utf-8</repo:encoding>
      </rdf:Description>
   </rdf:RDF>
</x:xmpmeta>
                                                                                                    
                                                                                                    
                                                                                                    
                                                                                                    
                                                                                                    
                                                                                                    
                                                                                                    
                                                                                                    
                                                                                                    
                                                                                                    
                                                                                                    
                                                                                                    
                                                                                                    
                                                                                                    
                                                                                                    
                                                                                                  
<?xpacket end="w"?></metadata>
<defs>
    <style>
      .cls-1 {
        fill: none;
      }

      .cls-2 {
        fill: #fff;
      }
    </style>
  </defs>
  <path class="cls-1" d="M10.38,15c0-1.21.28-2.37.8-3.41-3.04,3.08-3.41,8.44-.76,11.91.19-1.36,1.13-2.48,2.39-2.92-1.54-1.43-2.44-3.45-2.44-5.58Z"/>
  <path class="cls-1" d="M7.38,18c0-3.82,2.03-7.28,5.32-9.18-.34-.94-.41-2.03-.18-3.01-7.8,3.33-10.42,13.87-5.01,20.46.28-.95,1.07-1.67,2.05-1.85-1.4-1.84-2.17-4.07-2.17-6.42Z"/>
  <path class="cls-1" d="M24.38,15c0-1.74-.7-3.37-1.93-4.57-.44.59-2.59,2.7-3.04,1.28,0-.04-.02-.08-.03-.12,0,0,0-2.08,0-2.08l-.93.93c-.67.62-1.27-.48-1.82-.93v2.08s-.02.08-.03.12c-.45,1.42-2.6-.68-3.04-1.28-2.57,2.37-2.55,6.81.03,9.16,1.33-4.25,7.49-4.25,8.81,0,1.24-1.19,1.97-2.85,1.97-4.59Z"/>
  <path class="cls-1" d="M28.51,26.27c5.4-6.59,2.78-17.13-5.01-20.46.23.99.15,2.07-.18,3.01,5.46,2.96,7.03,10.76,3.14,15.6.99.17,1.78.9,2.05,1.85Z"/>
  <path class="cls-1" d="M25.58,23.5c2.65-3.47,2.28-8.84-.76-11.91,1.52,2.92.81,6.79-1.63,8.99,1.26.44,2.2,1.56,2.39,2.92Z"/>
  <path class="cls-2" d="M32.62,18c0-6.3-4.01-11.87-9.97-13.87-.24-.08-.5,0-.67.18-.16.19-.21.47-.09.69.98,1.83.39,4.28-1.27,5.48v-2.49c0-.25-.15-.48-.39-.58-.23-.1-.5-.04-.68.13l-1.56,1.56-1.56-1.56c-.18-.18-.45-.23-.68-.13s-.39.32-.39.58v2.49c-1.66-1.2-2.25-3.64-1.27-5.47.13-.23.07-.49-.08-.69-.16-.19-.42-.27-.67-.19C3.22,7.38,0,20.74,7.55,28.24c.3.32.86.2,1.02-.2.08-.15.05-.87.05-1.04,0-.76.62-1.38,1.38-1.38h1c.85-.02.59-1.08.62-1.63,0-1.31,1.07-2.37,2.38-2.37.35,0,.62-.28.62-.62.14-4.46,6.61-4.46,6.75,0,0,.34.28.62.62.62,1.31,0,2.38,1.07,2.38,2.38.04.54-.22,1.6.63,1.62.16,0,.84,0,1,0,.76,0,1.37.62,1.37,1.37,0,0,0,.8,0,.8-.02.54.71.83,1.07.43,2.69-2.75,4.18-6.38,4.18-10.24ZM7.49,26.27c-5.4-6.59-2.78-17.13,5.01-20.46-.23.99-.15,2.07.18,3.01-5.46,2.96-7.03,10.76-3.14,15.6-.99.17-1.78.9-2.05,1.85ZM10.42,23.5c-2.65-3.47-2.28-8.83.76-11.91-1.52,2.92-.81,6.79,1.63,8.98-1.26.44-2.2,1.56-2.39,2.92ZM18,16.38c-2.06,0-3.81,1.35-4.41,3.22-2.58-2.35-2.61-6.79-.03-9.16.44.59,2.59,2.7,3.04,1.28,0-.04.02-.08.03-.12,0,0,0-2.08,0-2.08l.93.93c.67.62,1.27-.48,1.82-.93v2.08s.02.08.03.12c.45,1.42,2.6-.68,3.04-1.28,2.57,2.37,2.55,6.81-.03,9.16-.6-1.87-2.35-3.22-4.41-3.22ZM23.19,20.58c2.44-2.2,3.15-6.07,1.63-8.99,3.04,3.08,3.41,8.44.76,11.91-.19-1.36-1.13-2.48-2.39-2.92ZM26.45,24.42c3.88-4.84,2.31-12.64-3.14-15.6.34-.94.41-2.03.18-3.01,7.8,3.33,10.42,13.87,5.01,20.46-.28-.95-1.07-1.67-2.05-1.85Z"/>
</svg>